<svg xmlns="http://www.w3.org/2000/svg" viewBox="0 0 450 343.4"><defs><style>.cls-1{isolation:isolate;}.cls-2{fill:none;}.cls-3{fill:#f0f1f1;}.cls-4{fill:#f24d4d;}.cls-10,.cls-5{opacity:0.12;}.cls-5{mix-blend-mode:multiply;}.cls-6{fill:#fff;}.cls-7{fill:#33435a;}.cls-8{fill:#71c3cc;}.cls-9{fill:#424dbf;}.cls-11{opacity:0.17;}.cls-12{fill:#d6e8eb;}.cls-13{fill:#cad2d9;}.cls-14{fill:#ffbfa4;}.cls-15{fill:#fdb037;}.cls-16{fill:#d67a6b;}.cls-17{fill:#3a3029;}.cls-18{fill:#3c3b38;}.cls-19{fill:#e7cfb4;}.cls-20{opacity:0.13;}.cls-21{fill:#4ec5a2;}.cls-22{fill:#a0a2a6;}.cls-23{opacity:0.26;}.cls-24{fill:#000202;}.cls-25{fill:#f6f6f6;}.cls-26{opacity:0.05;}.cls-27{fill:#bbc6cc;}.cls-28{opacity:0.47;}.cls-29{fill:#bfc4ca;}.cls-30{opacity:0.32;}.cls-31{fill:#e0e0e0;}</style></defs><title>Asset 1</title><g class="cls-1"><g id="Layer_2" data-name="Layer 2"><g id="health_info" data-name="health info"><rect class="cls-2" width="450" height="343.4"/><path class="cls-3" d="M421.35,274.09H71.91c-11,0-20.09,4.14-20.09,9.2h0c0,3.5,4.33,6.56,10.67,8.11H31.72c-11,0-20.1,4.14-20.1,9.2h0c0,5.06,9.05,9.2,20.1,9.2H42.44c-3,1.61-4.81,3.69-4.81,5.95v3.68c0,5.06,9,9.2,20.1,9.2H402c11,0,20.09-4.14,20.09-9.2v-3.68c0-5.06-9-9.19-20.09-9.19l-23.41.2a13.38,13.38,0,0,0,6.62-1.94c3.41-2.27,3.56-5.72,1.89-8.58-1.08-1.86-2.81-3.33-7.09-3.88l41.37.13c11.06,0,20.1-4.14,20.1-9.2h0C441.45,278.23,432.41,274.09,421.35,274.09Z"/><path class="cls-4" d="M145.92,24.2c-8.32.95-17.76,7.38-18.84,14.87-3.84-6.52-17.26-8.34-25.32-6-21.27,6-23.82,31.67-11.45,46.1,6.66,7.76,15.26,14,24.35,19.34,7.61,4.46,26.73,13.34,26.77,13.29s14.36-15.47,19.7-22.51c6.38-8.4,12-17.45,15.16-27.17C182.25,44,167.89,21.67,145.92,24.2Z"/><g class="cls-5"><path d="M172.5,65a119.86,119.86,0,0,1-14.87,21.55c-5.55,6.38-12.35,12.33-20.5,15.49a30.27,30.27,0,0,1-11.84,2.08c8,4,16.52,7.94,16.55,7.9s14.35-15.47,19.7-22.51c6.38-8.4,12-17.45,15.16-27.17A27.3,27.3,0,0,0,178,52.63,86.53,86.53,0,0,1,172.5,65Z"/></g><path class="cls-6" d="M170.78,58.16,153.88,62Q148.6,51.4,143.33,40.83a1.21,1.21,0,0,0-2.23.45q-2.74,20.74-5.47,41.5c-.11.8-.21,1.6-.32,2.4l-14-23.83-2.25-3.82a1.22,1.22,0,0,0-2.16.16l-4,13.72-19,3.77a1.11,1.11,0,1,0,.43,2.18L114,73.45a1.15,1.15,0,0,0,.89-.73q1.74-5.89,3.47-11.77L132.72,85.4,135,89.22a1.21,1.21,0,0,0,2.23-.44q2.73-20.75,5.47-41.5c.09-.66.17-1.32.26-2l9.23,18.47a1.18,1.18,0,0,0,1.27.58l17.78-4A1.11,1.11,0,1,0,170.78,58.16Z"/><path class="cls-7" d="M338.91,56.87h0a.49.49,0,0,1-.65.23l-19-8.88a.49.49,0,0,1-.24-.65h0a.49.49,0,0,1,.65-.24l19,8.89A.49.49,0,0,1,338.91,56.87Z"/><path class="cls-8" d="M342.28,57l-1.06,2.28-10.14-4.75a1.26,1.26,0,0,1-.61-1.67h0a1.25,1.25,0,0,1,1.67-.6Z"/><path class="cls-9" d="M424.29,93.26,422.85,96,410.64,89.6l-4.36,8.33,12.21,6.42L417,107.11a2.27,2.27,0,1,0,4,2.11l7.25-13.85a2.27,2.27,0,0,0-4-2.11Z"/><g class="cls-10"><polygon points="413.25 101.6 417.62 93.26 420.88 94.98 414.15 102.07 413.25 101.6"/></g><path class="cls-7" d="M420.64,87.5l-10.39,19.84a1.24,1.24,0,0,1-1.68.52l-4.8-2.52,11.54-22,4.8,2.52A1.25,1.25,0,0,1,420.64,87.5Z"/><path class="cls-8" d="M419.67,77.34a2.14,2.14,0,0,0-2.73,1L416.09,80a2.06,2.06,0,0,1-2.78.87l-55.5-29.18a3.17,3.17,0,0,0-2.18-.3l-15.89,3.41a1,1,0,0,0-.7.53l-1.64,3.17a1,1,0,0,0,0,.88l6.26,15a3.25,3.25,0,0,0,1.47,1.61l55.52,29.19a2.06,2.06,0,0,1,.86,2.78l-.85,1.62a2.15,2.15,0,0,0,.73,2.82,2.08,2.08,0,0,0,2.94-.81l16.38-31.3A2.1,2.1,0,0,0,419.67,77.34Z"/><g class="cls-11"><path class="cls-12" d="M357.89,54.86a3.38,3.38,0,0,0-2-.39l-14.4,1.79a.81.81,0,0,0-.61.4l-1.3,2.52a.76.76,0,0,0,0,.73l6.72,12.83a3.46,3.46,0,0,0,1.47,1.44l53,27.84Z"/></g><path class="cls-7" d="M374.81,82.12l-3.7,7.07-1.36-.71,3.7-7.07a.15.15,0,0,1,.2-.06l1.1.58A.14.14,0,0,1,374.81,82.12Z"/><path class="cls-7" d="M355.91,72.18l-3.7,7.08-1.36-.71,3.71-7.08a.14.14,0,0,1,.19-.06l1.1.58A.14.14,0,0,1,355.91,72.18Z"/><path class="cls-7" d="M393.71,92.05,390,99.13l-1.35-.71,3.7-7.08a.16.16,0,0,1,.2-.06l1.1.58A.15.15,0,0,1,393.71,92.05Z"/><path class="cls-7" d="M382.31,90.51l-1.88,3.59-1.11-.59,1.88-3.58a.12.12,0,0,1,.16-.05l.9.47A.12.12,0,0,1,382.31,90.51Z"/><path class="cls-7" d="M363.41,80.58l-1.88,3.58-1.11-.58L362.3,80a.13.13,0,0,1,.16,0l.9.48A.12.12,0,0,1,363.41,80.58Z"/><polygon class="cls-13" points="185.69 215.76 183.35 247.83 175.61 300.93 169.66 300.93 165.9 251.94 164.23 212.3 185.69 215.76"/><polygon class="cls-7" points="169.69 300.22 169.69 303.45 176.13 306.67 179.35 303.45 176.13 300.22 169.69 300.22"/><polygon class="cls-13" points="143.52 208.2 145.78 253.16 150.96 304.77 157.06 304.77 162.02 255.87 169.26 204.4 143.52 208.2"/><polygon class="cls-7" points="157.03 304.04 157.03 307.35 150.43 310.65 147.13 307.35 150.43 304.04 157.03 304.04"/><path class="cls-14" d="M164.3,136.12l-6.24-.61a32.15,32.15,0,0,1,.33-5c-1.73-.61-3.74-1.52-4-3.34a5.06,5.06,0,0,1,.1-1.73c.4-2.36.81-4.72,1.21-7.09a6.43,6.43,0,0,1,.73-2.36,5.32,5.32,0,0,1,3.72-2,12.93,12.93,0,0,1,10.47,2.54,5.81,5.81,0,0,1,1.77,2.34,7.69,7.69,0,0,1-.26,4.49c-.35,1.36-.71,2.72-1.06,4.08-.41,1.57-1,3.35-2.5,3.94a13.44,13.44,0,0,0-2.47.68C164.79,132.86,165,134.76,164.3,136.12Z"/><path class="cls-7" d="M178.91,112a16.92,16.92,0,0,0-.12-5.41c-.23-1.11-1.64-4.6-1.21-5.58-.81,1.7-3,2.17-4.85,2.36-7,.7-14.86-1-21.31,2.58a8.48,8.48,0,0,0-2.86,2.82,12.62,12.62,0,0,0,0,13.31,17.22,17.22,0,0,0,1.95,2.47c1.48,1.6,3.24,3.57,5.27,4.16,0-1.82-1.61-7.54-.22-9,1.95-2.09,5.5-1.68,8-1.32a37.57,37.57,0,0,0,9.71,0,11.35,11.35,0,0,0,3.11-.66c2.35-1,2.27-3.18,2.48-5.41Z"/><polygon class="cls-14" points="123.04 109.24 122.29 105.36 124.28 102.5 123.89 101.76 122.97 102.21 123.94 99.36 123.08 97.07 119.94 96.24 116.85 97.56 116.36 100.78 117.76 104.38 118.57 109.74 123.04 109.24"/><polygon class="cls-15" points="123.54 106.5 117.59 106.13 120.25 138.66 145.5 152.05 151.32 136.25 131.35 127.04 123.54 106.5"/><polygon class="cls-14" points="191.68 95.11 191.89 91.15 189.51 88.6 189.8 87.82 190.77 88.13 189.4 85.45 189.94 83.06 192.93 81.8 196.17 82.67 197.11 85.78 196.23 89.54 196.19 94.96 191.68 95.11"/><polygon class="cls-15" points="190.81 92.46 196.65 91.25 197.11 113.76 194.81 131.15 179.89 153.11 167.67 135.39 181.86 124.94 190.81 92.46"/><polygon class="cls-15" points="169.25 134.51 149.53 135.35 139.57 173.32 131.35 225.95 194.81 227.5 179.89 153.11 169.25 134.51"/><polygon class="cls-16" points="267.03 120.93 266.31 117.13 268.26 114.34 267.88 113.63 266.98 114.06 267.94 111.28 267.11 109.05 264.04 108.22 261.03 109.5 260.53 112.64 261.89 116.16 262.66 121.39 267.03 120.93"/><polygon class="cls-9" points="267.23 116.94 261.27 122.02 262.12 148.07 272.14 155.07 291.29 152.61 288.73 136.12 272.74 139.21 267.23 116.94"/><polygon class="cls-7" points="328.26 298.54 329.01 301.98 323.07 306.89 318.98 304.17 321.58 300 327.51 295.1 328.26 298.54"/><polygon class="cls-9" points="307.5 192.67 314.13 207.98 314.75 251.04 328.37 297.35 322.04 300.17 294.25 246.39 291.09 229.35 289.83 193.48 307.5 192.67"/><polygon class="cls-9" points="275.44 196.1 274.92 241.23 283.41 299.41 289.93 299.41 294.05 245.73 302.98 192.04 275.44 196.1"/><polygon class="cls-17" points="289.89 298.63 289.89 302.17 282.84 305.71 279.31 302.17 282.84 298.63 289.89 298.63"/><path class="cls-9" d="M288.29,135l17.33-.65s10.37,9.12,15.73,32.81c5.45,24.13-1,58.85-1,58.85s-46.5-6.21-54.12-7.17l11.63-47.63Z"/><path class="cls-16" d="M294.5,136.77l6.07-.59a29.26,29.26,0,0,0-.32-4.86c1.69-.59,3.64-1.48,3.93-3.25a5,5,0,0,0-.09-1.68q-.6-3.45-1.18-6.9a6.3,6.3,0,0,0-.71-2.3,5.19,5.19,0,0,0-3.62-2,12.55,12.55,0,0,0-10.18,2.47,5.48,5.48,0,0,0-1.72,2.27,7.53,7.53,0,0,0,.24,4.37c.35,1.32.69,2.65,1,4,.39,1.53,1,3.26,2.43,3.83a12.7,12.7,0,0,1,2.4.67C294,133.6,293.86,135.45,294.5,136.77Z"/><path class="cls-7" d="M274.73,113.79a19.28,19.28,0,0,1,.5-4.61c.54-2.47,3.44-3.58,6-3.75,5.44-.38,10.68-2.85,16-1,3,1.09,7.11,1.35,9.86,2.89a8,8,0,0,1,2.77,2.75,12.26,12.26,0,0,1,0,12.95,16.91,16.91,0,0,1-1.91,2.4c-1.43,1.55-3.15,3.47-5.12,4.05,0-1.77,1.57-7.34.22-8.79-2.15-2.3-7-1.5-9.67-.94-2.91.61-5.5,2.67-8.38,3.11-2.08.31-4.72-.71-6.49-1.79C275.72,119.43,274.8,116.64,274.73,113.79Z"/><path class="cls-6" d="M293.07,137.15l-18.22,73-1.49,9.58,22.7,3s-.9-35-.6-39.64,3.67-14.75,4.18-25.62c.3-6.29,2.29-17.58.9-21.25Z"/><polygon class="cls-7" points="52.44 300.95 52.34 301.93 52.03 305.17 45.47 307.99 42.66 304.53 46.1 301.5 46.41 301.36 46.45 301.76 52.44 300.95"/><path class="cls-16" d="M52.77,300.9l-.33.05h-.35l-5.64.81-5.23-55.21L40.58,244c4.91.08,10.74.15,16.61.2Z"/><path class="cls-16" d="M79,244.13l-1.21,14.34-12.11,37.2-5.91-.79-.1.73h0L64,257.27l-3.73-13.09C67.13,244.22,73.84,244.22,79,244.13Z"/><polygon class="cls-7" points="65.68 295.67 66.05 295.72 68.76 299.44 65.18 302.32 59.33 298.18 59.67 295.61 65.45 296.38 65.68 295.67"/><polygon class="cls-18" points="65.68 295.67 65.45 296.38 59.67 295.61 59.77 294.88 65.68 295.67"/><path class="cls-8" d="M38,160.71c-.76,3.59-3.6,6.22-6.36,8.72,2-5.25,4.16-9.88,6.19-13.87A12.26,12.26,0,0,1,38,160.71Z"/><path class="cls-8" d="M27.71,243.75s5.35.1,12.87.21c4.91.08,10.74.15,16.61.2l3.07,0c6.87,0,13.58,0,18.74-.05,3.89-.07,6.89-.19,8.38-.38L74.82,178.63l0-.2L71.43,164.8l-4.87-19.88-12.14-5.8A7,7,0,0,1,51,137.47l-.44-.21A9,9,0,0,0,51,138.8a5.64,5.64,0,0,0,.26.55c1,1.85,2.58,3.59,2.55,5.7a5,5,0,0,1-.18,1.15,17.91,17.91,0,0,1-.71,2c-2.7,7.08.27,15.07,4.65,21,2.25,3.07,5.21,5.72,6.49,9.3a7.8,7.8,0,0,1,.42,1.94c.3,3.22-1.22,6.73-4.31,7.26a8.3,8.3,0,0,0-2.18.38c-2.29,1.07-1.3,4.83-3,6.71-1.09,1.21-3,1.25-4.58,1.2a2.9,2.9,0,0,1-1.54-.33c-.95-.62-.86-2-1.14-3.11-.51-2-2.5-3.32-4.51-3.76a28.18,28.18,0,0,0-6.16-.2,15.74,15.74,0,0,1-7.48-1.6,9.59,9.59,0,0,1-2.42-1.83C23.14,210.09,27.71,243.75,27.71,243.75Z"/><path class="cls-16" d="M50.45,137c-1.14-4.94.09-12.75,3.39-15.66A6.28,6.28,0,0,1,58.27,120c.78,0,1,.2,1.45.13a8,8,0,0,1,1.9,5.35c-.13,1.53-1,2.71-1.08,4.36-.14,3-4.44,6-2.79,9a7,7,0,0,1-3.33.29L51,137.47C50.78,137.32,50.61,137.17,50.45,137Z"/><path class="cls-19" d="M54.42,139.12A7,7,0,0,1,51,137.47Z"/><path class="cls-16" d="M60.54,129.81c.07-1.65,1-2.83,1.08-4.36a8,8,0,0,0-1.9-5.35,1.93,1.93,0,0,0,.69-.31,4.41,4.41,0,0,0,1.39-2.12,7,7,0,0,1,3,5.4,20.28,20.28,0,0,1-.67,8.87,11,11,0,0,1-5.86,6.72l-.48.17C56.1,135.84,60.4,132.82,60.54,129.81Z"/><path class="cls-7" d="M25.05,181.15a7.81,7.81,0,0,0,2.15,4.07l.27-1.58-.27,1.58a9.59,9.59,0,0,0,2.42,1.83,15.74,15.74,0,0,0,7.48,1.6,28.16,28.16,0,0,1,6.16.2c2,.44,4,1.76,4.51,3.76.28,1.1.19,2.49,1.14,3.11a2.9,2.9,0,0,0,1.54.33c1.63,0,3.49,0,4.58-1.2,1.69-1.88.7-5.64,3-6.71a8.3,8.3,0,0,1,2.18-.38c3.09-.53,4.61-4,4.31-7.26a7.8,7.8,0,0,0-.42-1.94c-1.28-3.58-4.24-6.23-6.49-9.3-4.38-6-7.35-14-4.65-21a17.91,17.91,0,0,0,.71-2,5,5,0,0,0,.18-1.15c0-2.11-1.53-3.85-2.55-5.7a5.64,5.64,0,0,1-.26-.55,9,9,0,0,1-.52-1.54l-.06-.26a12.29,12.29,0,0,1-2.31-13.19c.12-.25.24-.49.37-.72-.13.23-.25.47-.37.72A12.29,12.29,0,0,0,50.45,137c-1.14-4.94.1-12.75,3.39-15.66A6.28,6.28,0,0,1,58.27,120c.78,0,1,.2,1.45.13a1.93,1.93,0,0,0,.69-.31,4.41,4.41,0,0,0,1.39-2.12,7,7,0,0,1,3,5.4,20.28,20.28,0,0,1-.67,8.87,11,11,0,0,1-5.86,6.72l-.48.17a4.19,4.19,0,0,0,.54.74c1.5,1.66,3.92,2,6.14,2.33a1.54,1.54,0,0,0,.8,0,1.14,1.14,0,0,0,.63-1.09,4.27,4.27,0,0,0-.28-1.31c-1.29-4.5,1-9.64,1.38-14.18s-.55-9.46-4.18-12.52a10.36,10.36,0,0,0-1.78.68l-.18-.22c-5.25-6.32-12.66-.91-16.65,3.91a35,35,0,0,0-7.29,13.59,55,55,0,0,0-1.07,16.49c.29,2.81,1.41,5.58,2,8.34a12.26,12.26,0,0,1,.17,5.15c-.76,3.59-3.6,6.22-6.36,8.72-.26.64-.51,1.3-.76,2s-.49,1.34-.74,2c-.16.45-.31.89-.46,1.35.15-.46.3-.9.46-1.35.25-.68.49-1.36.74-2s.5-1.33.76-2c-.39.34-.77.68-1.14,1C27.38,173.27,24.35,177,25.05,181.15ZM52.66,118.6c.41-.27.83-.51,1.25-.73C53.49,118.09,53.07,118.33,52.66,118.6Z"/><polygon class="cls-14" points="360.81 218.05 386.4 208.62 381.12 253.55 384.18 292.32 384.45 294.78 384.45 294.78 384.45 294.78 379.42 294.92 379.42 294.92 379.42 294.92 367.7 258.63 361.73 221.84 361.73 221.84 360.81 218.05"/><polygon class="cls-7" points="379.42 294.92 384.66 294.78 385.99 299.21 385.86 299.25 385.9 299.25 377.24 304.4 373.12 304.85 372.6 300.14 373.71 299.32 379.42 294.92"/><polygon class="cls-14" points="343.37 218.82 351.23 297.56 356.29 298.31 361.21 254.45 370.03 213.07 343.37 218.82"/><polygon class="cls-7" points="351.07 297.54 344.36 301.36 344.99 304.53 356.98 302.72 356.27 298.15 351.07 297.54"/><path class="cls-4" d="M331.37,238.14c-1.62-1.12-1.65-3.08-1.65-5A49.76,49.76,0,0,1,331.23,222a165.76,165.76,0,0,0,4.23-23.55c2.07-22.53,9.17-37.65,9.17-37.65l2.29-6.12c.46-.8.93-1.58,1.43-2.36,2.86-4.5,7.82-12.15,13.14-13.4l.33-.07c5.59-1.23,12.75-.66,17.79,2.06a17.58,17.58,0,0,1,2.66,1.89c2.47,2,4.48,3.07,5.55,6.12.92,2.64,1.13,5.52,1.64,8.25,1,5.56,1.66,11.19,2.48,16.78,1.55,10.49,2.87,21,4.53,31.47.85,5.39,1.71,10.79,2.11,16.24.36,4.81,4.69,9.7,7.13,14,.84,1.5-11.33,5.39-12.42,5.65-5,1.18-10.41.88-15.62.9q-17.1.08-34.19-1.06c-3.78-.25-8.44-1-11.79-2.86Z"/><path class="cls-6" d="M368.09,138.27s6.42-1.74,7.31,12.79,2.36,51.29,4.43,61.37S385,242.28,385,242.28l-19.67.68-22.48-1.78s7.69-14.23,8.87-24.31-.88-48,4.14-62.25S362,138.53,368.09,138.27Z"/><polygon class="cls-4" points="339.01 170.63 328.75 169.04 328.75 160.18 353.51 141.28 361.5 138.9 357.65 149.28 339.01 170.63"/><path class="cls-7" d="M359.13,126.76c-1,2.93.43,6,1.67,8.71,1.09,2.36,1.47,3.92-1.31,4.56-1.56.36-4.34,1-5.72-.17-1-.91-.45-3.73.05-4.84.39-.86,1.41-1.29,1.78-2.15a2.93,2.93,0,0,0,.17-1.14,15.68,15.68,0,0,0-.64-4.67,16.08,16.08,0,0,1-.81-3.1c-.13-1.55,1-3.35,1.54-4.77,1.06-2.65,4.78-6.19,7.89-4.12a4.48,4.48,0,0,1,1.46,2.05,3.81,3.81,0,0,1,.41,1.46c0,2-1.83,2.38-3.1,3.34A10.16,10.16,0,0,0,359.13,126.76Z"/><path class="cls-14" d="M365,138.18a8.79,8.79,0,0,1-5.82-5.5,17.67,17.67,0,0,1-.78-8.21c.93-9.2,12.34-8.61,16.21-1.56C378,129.05,372.89,140,365,138.18Z"/><path class="cls-14" d="M365.05,137.18c0,1,.09,2.1.13,3.15a.65.65,0,0,0,.13.43.64.64,0,0,0,.49.12l2.56-.09a2.7,2.7,0,0,0,1.23-.23,2.37,2.37,0,0,0,.85-2.47,7.77,7.77,0,0,1-.26-2.74c-1.76.86-3.43-1.1-5.19-.23Z"/><path class="cls-7" d="M368.73,108.52c3,1,4.92,4.06,7.84,5.27,1.68.7,3.66.79,5,2,3.07,2.68.6,8.3,3.12,11.51.53.66,1.23,1.17,1.76,1.83,1.13,1.43,1.28,3.39,1.38,5.21a5.4,5.4,0,0,1,0,1.27c-.39,4.22-6.5,3.95-8.93,3.68-2.66-.3-1.77-1.78-1.77-1.78l.09-.12a5.08,5.08,0,0,0-1.78-4.62,6.28,6.28,0,0,1-1.44-1.27c-.79-1.21,0-2.8-.15-4.24-.47-5.79-10.17-4.55-12.9-8.67C357.58,113.51,363.07,106.6,368.73,108.52Z"/><polygon class="cls-14" points="392.56 100.59 388.85 95.39 386.56 96.88 388.31 101.01 386.9 101.21 390.62 105.28 393.21 104.05 392.56 100.59"/><polygon class="cls-4" points="376.85 145 396.26 129.28 389.06 105.28 396.22 102.35 409.57 134.01 390.13 158.59 376.85 145"/><polygon class="cls-14" points="350.33 172.1 356.13 171.14 355.82 168.64 351.71 168.41 352.11 167.17 347.25 168.59 347.21 171.24 350.33 172.1"/><polygon class="cls-4" points="334.58 162.7 334.55 163.21 348.74 167.56 348.39 172.8 328.75 167.75 334.58 162.7"/><rect class="cls-4" x="237.94" y="253.04" width="72.38" height="54.38" rx="8.06"/><path class="cls-4" d="M290,250.08V239.65a1.88,1.88,0,0,0-2-1.74H259.84a1.89,1.89,0,0,0-1.95,1.74v10.41a3,3,0,0,0-2.84,3h9.56a3,3,0,0,0-2.81-3V241.4h24.28v8.65h-.19a3,3,0,0,0-2.93,3h9.56A3,3,0,0,0,290,250.08Z"/><path class="cls-6" d="M290.91,274.76H278.05V261.64a.91.91,0,0,0-.88-.9h-7.31a.91.91,0,0,0-.88.9v13.12H256.12a.9.9,0,0,0-.88.9v7.45a.83.83,0,0,0,.25.63.81.81,0,0,0,.63.27H269v13.12a.91.91,0,0,0,.88.9h7.31a.85.85,0,0,0,.62-.26.88.88,0,0,0,.26-.64V284h12.86a.9.9,0,0,0,.88-.9v-7.45A.9.9,0,0,0,290.91,274.76Z"/><path class="cls-7" d="M144.05,161.94A16.9,16.9,0,1,0,157,141.73,16.94,16.94,0,0,0,144.05,161.94Z"/><path class="cls-13" d="M149.21,160.81a11.62,11.62,0,1,0,8.88-13.89A11.64,11.64,0,0,0,149.21,160.81Z"/><polygon class="cls-13" points="171.31 218.71 175.74 217.75 164.28 164.79 159.85 165.75 171.31 218.71"/><path class="cls-7" d="M156.86,159.58a4,4,0,1,0,3-4.76A4,4,0,0,0,156.86,159.58Z"/><g class="cls-20"><path d="M159.12,162.38l2.8,12.91a19.87,19.87,0,0,1-4.07-.17l.57-13.15Z"/></g><path class="cls-21" d="M248.84,203.31c-1,.17-1.83,1-2.92.92.25,1.56-.3-2.06-.15-.49q.3,3.16.38,6.34,0,1.8,0,3.6c0,.21,0,1.34,0,.48,0,.32,0,.64,0,1,0,.62-.06,1.23-.11,1.84a64.22,64.22,0,0,1-1.08,8c-.28,1.34-.61,2.69-1,4-.2.7-.42,1.39-.66,2.09-.1.3-.21.59-.31.89,0,.06,0,.15-.08.22a1.11,1.11,0,0,1-.07.16,38.09,38.09,0,0,1-3.93,7.49l-.62.87c.22-.31-.33.43-.44.57-.41.5-.83,1-1.28,1.48a33,33,0,0,1-3,2.87c.21-.18-.65.5-.8.62-.31.22-.63.45-1,.66-.58.4-1.17.77-1.79,1.13-.41.24-.83.48-1.26.7l-.44.23,0,0,0,0c-.7.3-1.38.62-2.09.9-.89.35-1.81.67-2.73,1l-1.18.34-.53.14h0a55.49,55.49,0,0,1-5.72,1l-1.67.13h-.17l-.37,0h0c-.84,0-1.67,0-2.5,0s-1.77-.12-2.64-.23l-1.09-.16h-.08l-.48-.1a31.5,31.5,0,0,1-4.5-1.29c-.22-.08-1.55-.65-.71-.28l-.93-.41c-.65-.31-1.28-.63-1.89-1a33.2,33.2,0,0,1-3.53-2.26l-.26-.19-.52-.41-.75-.63c-.53-.46-1-.92-1.55-1.39a42.38,42.38,0,0,1-3-3.17c-.5-.58-1-1.17-1.44-1.76-.14-.17-.61-.82-.35-.45-.19-.26-.38-.52-.56-.79a67.36,67.36,0,0,1-7.72-14.7c-.46-1.17-.88-2.35-1.29-3.53-.1-.32-.21-.63-.31-.94l0-.08,0-.14c-.17-.54-.34-1.08-.5-1.62-.56-1.87-1-3.75-1.49-5.65-.41-1.74-.79-3.5-1-5.27-.49-3.48-7.52-2.48-7,1l.06.37a65,65,0,0,0,1.73,7.89,93.35,93.35,0,0,0,5.14,14.59c4.7,10.33,12.12,21.25,25.33,26,13.83,5,32,.6,41.7-9.37,9.14-9.42,11.37-21.72,11.71-32.76.17-5.33.72-5.55-.18-10.8C251.74,203.45,250.12,203.08,248.84,203.31Zm-27.16,48c.49-.13.18,0,0,0Zm21.16-19.07s0,0,0,0Z"/><path class="cls-13" d="M250.08,95.82l15.17-2.55a2.05,2.05,0,0,1,2.33,1.67q2.91,17.39,5.81,34.75c.27,1.64.55,3.27.82,4.9.43,2.59-3.56,3.26-4,.67q-2.91-17.37-5.81-34.74l-.48-2.9-13.18,2.21C248.18,100.27,247.5,96.25,250.08,95.82Z"/><path class="cls-7" d="M245.33,102.68l4.6-.77-1.34-8-4.61.78a3.43,3.43,0,0,0-2.81,3.95l.21,1.26A3.43,3.43,0,0,0,245.33,102.68Z"/><path class="cls-13" d="M249.42,102.63l3.9-.65a4,4,0,0,0,3.25-4.57L256.33,96a4,4,0,0,0-4.56-3.25l-3.9.65Z"/><path class="cls-13" d="M210.46,102.2l-15.18,2.54a2.08,2.08,0,0,0-1.66,2.35q2.91,17.37,5.81,34.75c.27,1.63.55,3.27.82,4.9.43,2.58,4.43,1.92,4-.67q-2.9-17.37-5.8-34.75c-.17-1-.33-1.93-.49-2.89l13.18-2.22C213.7,105.78,213,101.76,210.46,102.2Z"/><path class="cls-7" d="M217.18,107.13l-4.61.77-1.34-8,4.61-.77a3.42,3.42,0,0,1,3.94,2.82l.21,1.26A3.42,3.42,0,0,1,217.18,107.13Z"/><path class="cls-13" d="M213.3,108.43l-3.9.65a4,4,0,0,1-4.56-3.26l-.25-1.46a4,4,0,0,1,3.25-4.56l3.91-.66Z"/><g class="cls-20"><path d="M245.94,207.37s.29,2.49.48,5.38l6.76-4.37-.47-3Z"/></g><path class="cls-21" d="M275.65,134.67a118.69,118.69,0,0,1,2.63,22.14c.45,13.1-.75,27.67-8.5,38.71-8.2,11.67-24.62,16.64-37.68,10.48-12.47-5.89-20-19-25.08-31.29a141.5,141.5,0,0,1-5.73-17.39c-.82-3.1-1.63-6.24-2.14-9.4,0-.15-.05-.29-.07-.44-.7-4.13,5.69-5.21,6.38-1.07.36,2.1.83,4.19,1.32,6.27.54,2.25,1.12,4.49,1.77,6.72.18.65.37,1.29.56,1.93.26.86-.15-.46.08.26l.36,1.12c.45,1.41.92,2.82,1.42,4.21a97.48,97.48,0,0,0,8.11,17.57c.21.36.43.71.64,1.06-.4-.66.14.21.28.42.47.72.95,1.43,1.45,2.12.93,1.31,1.92,2.59,3,3.8.49.57,1,1.13,1.52,1.68l.74.76.5.49c.13.13.68.63.07.07a35.44,35.44,0,0,0,3.58,2.9c.59.41,1.19.81,1.81,1.18l.88.51c-.8-.46.47.23.67.33a25.75,25.75,0,0,0,4.23,1.61l.44.12c.75.23-.7-.13.07,0l1,.2c.81.15,1.63.25,2.45.32s1.52.07,2.29.08c.2,0,.79,0,0,0l.5,0c.51,0,1-.08,1.52-.14a38.28,38.28,0,0,0,5.2-1l-.09,0,.6-.2c.35-.12.71-.25,1.06-.39a24.19,24.19,0,0,0,2.44-1.09c.64-.32,1.24-.68,1.86-1s-.57.41.08-.05l.38-.26q.57-.39,1.11-.81c.54-.42,1.07-.86,1.57-1.32.28-.25.56-.51.82-.77s1.14-1.22.53-.53A31.83,31.83,0,0,0,265,191c.37-.56.73-1.14,1.07-1.73.1-.19.68-1.27.27-.47.2-.41.41-.81.61-1.23a48.25,48.25,0,0,0,3.1-8.81c0-.16.07-.31.11-.47-.18.76-.05.2,0,0,.08-.35.16-.7.23-1.05.17-.82.32-1.65.46-2.48.26-1.58.47-3.17.63-4.76a93.31,93.31,0,0,0,.44-9.46c0-.72,0-1.45,0-2.17l0-1.13c0,1,0-.33,0-.57-.06-1.43-.15-2.86-.25-4.28q-.3-3.76-.79-7.52c-.39-2.92-.93-5.8-1.46-8.69l-.09-.42a3.24,3.24,0,1,1,6.39-1.08Z"/><path class="cls-22" d="M216.86,259v0l.3-.08h0Z"/><polygon class="cls-22" points="241.08 237.21 241.06 237.2 241.06 237.18 241.09 237.19 241.08 237.21"/><path class="cls-22" d="M243.89,195.66v0H244v0Z"/><path class="cls-22" d="M250.24,197.11v0l.22-.06h0v0h0Z"/><path class="cls-22" d="M266.31,177.32h0a1,1,0,0,0,0-.15v0l0-.1h0l0,.13A.75.75,0,0,0,266.31,177.32Z"/><path class="cls-22" d="M266.3,177.38h0v0h0Z"/><path class="cls-22" d="M244,198.18v0h.17v0H244Z"/><rect class="cls-7" x="69.04" y="151.7" width="71" height="94.38" transform="translate(33.52 -14.28) rotate(9.3)"/><g class="cls-23"><polygon class="cls-24" points="67.79 236.58 68.84 236.75 130.4 248.79 143.14 160.44 140.13 160.79 67.79 236.58"/></g><rect class="cls-25" x="72.7" y="154.71" width="63.84" height="87.32" transform="translate(33.44 -14.3) rotate(9.3)"/><g class="cls-26"><polygon points="79.86 149.73 125.17 157.15 73.59 187.72 79.86 149.73"/></g><g class="cls-10"><rect x="97.65" y="154.8" width="27.72" height="2.59" transform="translate(26.7 -15.97) rotate(9.3)"/></g><path class="cls-27" d="M121.05,148.4l-.42-.07,0-.28c.44-2.69-1.71-5.28-4.81-5.78l-4.08-.67c-3.1-.51-6,1.26-6.4,3.94l0,.29-.42-.07c-3.1-.51-6,1.26-6.4,4l-.89,5.43L125,159.62l.89-5.43C126.31,151.5,124.15,148.91,121.05,148.4Zm-4.48-.62-7.21-1.18a1.35,1.35,0,1,1,.43-2.67l7.21,1.18a1.35,1.35,0,1,1-.43,2.67Z"/><g class="cls-28"><path class="cls-29" d="M93.82,177.09l-9.25-1.51a.49.49,0,0,0-.56.4l-1.5,9.21a.49.49,0,0,0,.4.56l9.25,1.51a.45.45,0,0,0,.35-.07h0a.44.44,0,0,0,.18-.31q.75-4.61,1.51-9.21A.5.5,0,0,0,93.82,177.09Zm-2,9.14-8.29-1.36,1.35-8.26L93.18,178Q92.52,182.1,91.84,186.23Z"/><path class="cls-29" d="M91,194.13l-9.24-1.52a.49.49,0,0,0-.56.4c-.5,3.08-1,6.15-1.51,9.22a.51.51,0,0,0,.41.56l9.25,1.51a.43.43,0,0,0,.34-.07l0,0h0a.52.52,0,0,0,.19-.31l1.5-9.21A.49.49,0,0,0,91,194.13Zm-2,9.13-8.28-1.35q.66-4.14,1.34-8.26L90.41,195Z"/><path class="cls-29" d="M88.27,211.16,79,209.65a.49.49,0,0,0-.56.4L77,219.27a.48.48,0,0,0,.4.55l9.25,1.52a.45.45,0,0,0,.35-.08h0a.42.42,0,0,0,.18-.3l1.5-9.22A.5.5,0,0,0,88.27,211.16Zm-2,9.14L78,218.94q.68-4.12,1.34-8.25l8.29,1.36Z"/></g><polygon class="cls-4" points="87.12 179.57 89.36 179.21 90.2 181.53 101.54 175.89 102.68 176.32 89.3 184.04 87.12 179.57"/><polygon class="cls-4" points="83.5 196.91 85.74 196.56 86.58 198.87 97.92 193.24 99.07 193.67 85.68 201.38 83.5 196.91"/><polygon class="cls-4" points="80.68 213.01 82.92 212.65 83.76 214.96 95.1 209.33 96.25 209.76 82.86 217.47 80.68 213.01"/><g class="cls-30"><rect class="cls-8" x="93.01" y="218.52" width="33.06" height="4.67" transform="matrix(0.99, 0.16, -0.16, 0.99, 37.14, -14.8)"/></g><g class="cls-30"><rect class="cls-8" x="95.95" y="200.48" width="33.06" height="4.67" transform="translate(34.26 -15.51) rotate(9.3)"/></g><g class="cls-30"><rect class="cls-8" x="98.89" y="182.43" width="33.06" height="4.67" transform="translate(31.38 -16.23) rotate(9.3)"/></g><path class="cls-31" d="M364.07,211.08l-31.76,7.73a21.77,21.77,0,0,1-26.38-15.9h0a21.81,21.81,0,0,1,16.17-26.24l31.69-7.7Z"/><path class="cls-7" d="M365.2,210.81l35.71-8.76a20.17,20.17,0,0,0,14.81-24.35l-.72-2.95a20.12,20.12,0,0,0-24.29-14.84L355,168.67Z"/><path class="cls-7" d="M346.46,189.41l-8.07,2-.76.18-1.41-5.82c-.24-1-.47-2-.71-2.92a.63.63,0,0,0-.75-.46l-5,1.22a.65.65,0,0,0-.47.75c.65,2.67,1.3,5.33,1.94,8l.18.75-5.88,1.42-2.95.72a.64.64,0,0,0-.46.75l1.21,5a.58.58,0,0,0,.27.38.59.59,0,0,0,.48.07l8.07-2,.76-.19,1.41,5.83c.23,1,.47,1.94.7,2.92a.63.63,0,0,0,.75.45l5-1.22a.57.57,0,0,0,.38-.28.53.53,0,0,0,.08-.47c-.64-2.66-1.29-5.33-1.93-8-.06-.25-.12-.5-.19-.75L345,196.3l2.95-.72a.63.63,0,0,0,.46-.75l-1.2-5A.63.63,0,0,0,346.46,189.41Z"/><polygon class="cls-16" points="276.15 175.68 272.09 176.96 268.78 175.18 268.05 175.69 268.64 176.62 265.47 175.92 263.13 177.13 262.62 180.6 264.41 183.75 267.91 183.89 271.59 181.95 277.22 180.43 276.15 175.68"/><path class="cls-9" d="M272.69,176l18.93-4.45c1.69-.4,3.45-.48,5.15-.89,2.48-.61,3.16-.82,3.51-3.19,1-6.88-.27-14,.77-20.78a65.67,65.67,0,0,1,7.43-.81c4.16.06,3.8,2.92,4,6.11q.42,5.67.47,11.37c0,3.14,1,16.77-3.55,17.77-3.3.73-36.58,2.5-36.56,3.19C272.86,184,272.69,176,272.69,176Z"/><path class="cls-16" d="M91.35,187.87c.79-.25,6.66,1.23,6.27,1.75a10.43,10.43,0,0,1-1.49,1.48c1.68,1,6.92,2.81,3.18,4.71-1.62.83-5.93-.33-7.21-1.43L92,194.3l-2.08-5.57A3,3,0,0,1,91.35,187.87Z"/><path class="cls-8" d="M66.58,171.69l23.32,17,0,.07L92,194.3l.54,1.45C80,194.12,78.9,190.77,67,185.64Z"/></g></g></g></svg>