<svg id="Layer_1" data-name="Layer 1" xmlns="http://www.w3.org/2000/svg" viewBox="0 0 1146.68 132"><defs><style>.cls-1{fill:#fff;}.cls-2{fill:#eaa19a;}.cls-3{fill:#dd695d;}.cls-4{fill:#7a171b;}.cls-5{fill:#6b221a;}</style></defs><title>logo3</title><path class="cls-1" d="M289.39,82.84a3.49,3.49,0,0,0-2.38.79,6.53,6.53,0,0,0-1.53,2,9.69,9.69,0,0,0-.85,2.62,15.08,15.08,0,0,0-.24,2.51,9.72,9.72,0,0,0,.42,2.92c.29.9.59,1.77.92,2.63s.63,1.75.91,2.68a10.49,10.49,0,0,1,.43,3.11l-.12,4.52L285.24,105a31.17,31.17,0,0,0-4.09,3.66c-.85,1-1.63,1.91-2.32,2.81a25.27,25.27,0,0,1-2.56,2.8,36.06,36.06,0,0,1-4.82,3.66,3.85,3.85,0,0,0-1,1.16,10.46,10.46,0,0,0-.61,1.28,10.86,10.86,0,0,1-5.74-3.23,40.67,40.67,0,0,1-5.42-6.71,83.71,83.71,0,0,1-5-8.72q-2.37-4.77-4.27-9.28c-1.26-3-2.38-5.79-3.35-8.35s-1.75-4.54-2.32-5.92a1.22,1.22,0,0,0-.3-.49c-.21-.24-.35-.36-.43-.36l-4.15-.86v-1a1.62,1.62,0,0,1-.85-.31,2.65,2.65,0,0,0-.92-.37.54.54,0,0,0-.61.37,4.5,4.5,0,0,0-.06,1.77H225.09v18.3l.86,1.59a1.35,1.35,0,0,0,.61.12h1a60.67,60.67,0,0,0,10.86-1,61.34,61.34,0,0,1,11-1A5,5,0,0,1,247,99.12a25.7,25.7,0,0,1-5.61,3.11,49.75,49.75,0,0,1-6.46,2.2q-3.24.85-4.95,1.34a1,1,0,0,0-.18-1.1,1.35,1.35,0,0,0-1-.48h-.36a3.84,3.84,0,0,0-.86.79,3.88,3.88,0,0,1-.85.79l.85.86c-1.7,1-3.84,2.07-6.4,3.29s-5.21,2.38-7.93,3.48a82.54,82.54,0,0,1-7.87,2.74,23.43,23.43,0,0,1-6.22,1.1h-1.34a7.94,7.94,0,0,0-.25-2.38c-.16-.45-.73-.67-1.71-.67V118c0,.08-.2.22-.61.43a10.32,10.32,0,0,1-1,.43,15.67,15.67,0,0,0-2.5,1.28c-1,.61-2.06,1.26-3.11,2a32.41,32.41,0,0,1-3.05,1.77,5.64,5.64,0,0,1-2.32.73h-.49a6.66,6.66,0,0,1-3-3.54,12,12,0,0,1-1.1-4.63,1.42,1.42,0,0,1,.55-1.1,4.37,4.37,0,0,1,1.28-.79,6.22,6.22,0,0,1,1.53-.43,8.91,8.91,0,0,1,1.28-.12,3.59,3.59,0,0,1,3,1.15,11.24,11.24,0,0,0,2.25,2.14H189c.08,0,.23-.18.43-.55s.4-.77.61-1.22.38-.89.55-1.34.28-.79.36-1v-.73a5,5,0,0,1-2-.67c-.61-.37-1.18-.73-1.71-1.1s-1.05-.71-1.58-1a3.15,3.15,0,0,0-1.65-.48,2.08,2.08,0,0,0-1.28.54,17.77,17.77,0,0,0-1.4,1.29c-.49.48-1,.95-1.53,1.4a3.42,3.42,0,0,1-1.89.79.71.71,0,0,1-.49.12q-.24,0-.24-.12L173,105v-.85a4.33,4.33,0,0,1,.85-.86q.5,0,1.65-.12l2.44-.24,2.44-.25q1.16-.12,1.65-.12c.24-.08.63-.22,1.16-.43s.79-.34.79-.42V58.68c0-.08.16-.22.49-.43s.57-.34.73-.42h.85q1,.12,3.54.36l5.43.55c1.91.2,3.72.37,5.43.49s2.89.18,3.54.18a1.48,1.48,0,0,1,.73.86.49.49,0,0,1,.12.36.71.71,0,0,1-.12.49,5.07,5.07,0,0,1-.55.79c-.28.37-.61.78-1,1.22s-.71.86-1,1.22a4.13,4.13,0,0,0-.61.8v33.3a2.8,2.8,0,0,0,.61.8,6.06,6.06,0,0,0,1,.91H204a6.14,6.14,0,0,0,1.1-.49,2.63,2.63,0,0,1,.85-.36V71.61c0-.08.16-.22.49-.43a1.62,1.62,0,0,1,.73-.3,3.55,3.55,0,0,1,.85.37,4,4,0,0,0,.86.36l.85.12c.41,0,.65,0,.73-.12l7.32-7.32A8.57,8.57,0,0,1,219.48,61c.81-1,1.63-1.93,2.44-2.87a24.62,24.62,0,0,0,2.2-2.93,6.28,6.28,0,0,0,1-3.47v-.37a3.77,3.77,0,0,0-.36-.85,5.26,5.26,0,0,0-.49-.86,1.69,1.69,0,0,1-.12-.73h4.76a4.34,4.34,0,0,1-.61,2.32q-.61,1-1.29,1.89c-.44.61-.87,1.26-1.28,1.95a5.18,5.18,0,0,0-.61,2.62c0,1.71,0,3.18.13,4.4a32.23,32.23,0,0,0,.73,4.63,2.71,2.71,0,0,1,1.71-.3,1.64,1.64,0,0,1,.79.61,5,5,0,0,1,.55,1.09,1.86,1.86,0,0,0,1,1A4.09,4.09,0,0,0,231,68c.32-.52.67-1.07,1-1.64a8.46,8.46,0,0,1,1.16-1.47,1.87,1.87,0,0,1,1.34-.61,3.45,3.45,0,0,1,2.56,1.4,6.19,6.19,0,0,0,2.68,1.9h.37c.65,0,1-.21,1.16-.61a4.79,4.79,0,0,0,.18-1.35c0-.48-.1-1.77-.3-3.84s-.47-4.25-.8-6.53-.69-4.31-1.09-6.1-.78-2.68-1.1-2.68H216.92l-.73,1.22h3.17A11.73,11.73,0,0,0,215.58,50c-1.06,1-2.06,1.91-3,2.8a24.78,24.78,0,0,1-2.87,2.38,5.48,5.48,0,0,1-3.29,1V46H176.29c-.24,0-.5-.21-.79-.62a9.21,9.21,0,0,1-.79-1.44,15.2,15.2,0,0,1-.61-1.49,3.31,3.31,0,0,1-.25-.94,1.53,1.53,0,0,1,.31-.81c.2-.28.38-.43.55-.43h62.58c.08,0,.23-.16.43-.49s.35-.56.43-.72.22-.79.43-1.64a9.63,9.63,0,0,0,.3-1.64,2.9,2.9,0,0,0,1.59.79,7.46,7.46,0,0,0,2,.12,14.44,14.44,0,0,0,2-.24,7.9,7.9,0,0,1,1.4-.18,3,3,0,0,0-.54-1.82A11.08,11.08,0,0,0,244,33.05a9.23,9.23,0,0,1-1.28-1.45,3.26,3.26,0,0,1-.55-1.88v-.37l4-4.11a7.49,7.49,0,0,0-1.71-1.64,3.94,3.94,0,0,0-2.32-.79A1.46,1.46,0,0,0,240.71,24a13.64,13.64,0,0,0-.49,2.81c-.08,1.06-.18,2.13-.3,3.23a4.09,4.09,0,0,1-1,2.5,5.38,5.38,0,0,0-.3-1.16c-.21-.61-.35-1-.43-1.28s-.23-.4-.43-.73-.35-.49-.43-.49H186.91c-.08,0-.23-.26-.43-.79s-.35-.92-.43-1.16,0-1-.12-1.89-.12-1.53-.12-1.77l27.94-.12,3.17-3.62a14.32,14.32,0,0,0,1-1.21l1.52-2.05c.53-.72,1-1.41,1.53-2.05A12.78,12.78,0,0,0,221.8,13l.43-.42q.3-.3.42-.3c0-.08.13-.12.37-.12a5.58,5.58,0,0,1,3.78,1.52,33.61,33.61,0,0,1,3.3,3.42,35.34,35.34,0,0,0,3.23,3.41,5.2,5.2,0,0,0,3.6,1.53h.36a3.18,3.18,0,0,0,.55-.85,2.48,2.48,0,0,0,.31-.86V9l.73-.86h3.66c2.11,0,4.07,0,5.86.12a45.07,45.07,0,0,1,6,.74l-.85.85a1.08,1.08,0,0,0,.73.73,4.11,4.11,0,0,0,1,.12,2.3,2.3,0,0,0,1.22-.3c.32-.2.44-.67.36-1.4A8.6,8.6,0,0,1,258.64,9a8.13,8.13,0,0,1,2.14.43,5.18,5.18,0,0,1,1.77,1,2.43,2.43,0,0,1,.73,1.89,22.21,22.21,0,0,1,7.63,2A34.08,34.08,0,0,1,276,17.5l3.84,3a7.38,7.38,0,0,0,3.78,1.59l.13,2a4.77,4.77,0,0,1-.68,2.56,21.84,21.84,0,0,1-1.46,2.14c-.53.69-1,1.38-1.46,2.07a4.09,4.09,0,0,0-.67,2.26,2.33,2.33,0,0,0,.79,1.65,12.54,12.54,0,0,0,1.89,1.52l2.2,1.47a7.51,7.51,0,0,1,1.7,1.46h-.85a5.72,5.72,0,0,0-.79-.49,3.31,3.31,0,0,0-.8-.36h-.36a4,4,0,0,0-1.89.48A16.85,16.85,0,0,0,279.57,40a12.47,12.47,0,0,1-1.89,1.16,4.58,4.58,0,0,1-2.08.49,5.81,5.81,0,0,1-3.05-.73c-.81-.49-1.71-1.06-2.68-1.71a1.72,1.72,0,0,0-.12.73,3.62,3.62,0,0,0,.48,1.65,13.12,13.12,0,0,0,1.16,1.77,16.67,16.67,0,0,0,1.41,1.58l1.09,1.1H259.5q0,6.72.67,13.91a80.7,80.7,0,0,0,2.56,14,57.22,57.22,0,0,0,5.37,13,38.43,38.43,0,0,0,9.09,10.8h.73a7.82,7.82,0,0,0,1-.85,4.48,4.48,0,0,0,.73-.86L287,82.23h2.44Zm-106.51-40a.73.73,0,0,0-.12-.49,1.44,1.44,0,0,0-.73.86.49.49,0,0,0-.12.36A.71.71,0,0,0,182,44a1.46,1.46,0,0,0,.73-.85A.51.51,0,0,0,182.88,42.82Zm3.42,60.39c-.9,0-1.47.26-1.71.79a4.89,4.89,0,0,0-.37,2,1.67,1.67,0,0,0,1.65-.86A4.24,4.24,0,0,0,186.3,103.21Zm-.25-25.86h-1.34a6.42,6.42,0,0,0,.67,2.74,2.31,2.31,0,0,0,2.26,1.4,2.08,2.08,0,0,0,.85-.12Zm.86-7.32a4.38,4.38,0,0,0-.86-.86,1.1,1.1,0,0,0-.73.67A3.89,3.89,0,0,0,185,71c0,.41-.06.79-.06,1.16v.67a1.64,1.64,0,0,0,1.46-.73,3.06,3.06,0,0,0,.49-1.71ZM200,84.54a1.29,1.29,0,0,0-.67-1.22,2.92,2.92,0,0,0-1.4-.36,9.74,9.74,0,0,0-1.22.36c-.73.25-1.53.53-2.38.86s-1.63.61-2.32.85-1,.41-1,.49a10,10,0,0,0,5.37,1.59,6.18,6.18,0,0,0,2.38-.55A2,2,0,0,0,200,84.54Zm-2.44-18.91a.69.69,0,0,0-.12-.48,18.94,18.94,0,0,0-.3-2.44c-.21-1.22-.35-2-.43-2.44l-.67.61A14.07,14.07,0,0,0,194.9,62c-.37.41-.71.82-1,1.22a1.91,1.91,0,0,0-.49,1.1,2.46,2.46,0,0,0,.8,1.77,2.31,2.31,0,0,0,1.64.79,2.83,2.83,0,0,0,1.16-.24A1,1,0,0,0,197.52,65.63Zm9.64-6.95a1,1,0,0,1,.85.55,3.82,3.82,0,0,1,.55,1.28,8.42,8.42,0,0,1,.25,1.46c0,.49.06.86.06,1.1s0,.76-.06,1.28a8.43,8.43,0,0,1-.25,1.53A3.27,3.27,0,0,1,208,67.1a1.07,1.07,0,0,1-.85.49h-.73V58.68Zm7.32,30-4.88-4.88a4.12,4.12,0,0,1-.79.86,4,4,0,0,0-.8.85c-.08,0-.12.12-.12.37s.33.63,1,1.15,1.36,1.06,2.13,1.59,1.51,1,2.2,1.4a4.18,4.18,0,0,0,1.28.61Zm.85-13.78H213.5a4.67,4.67,0,0,0,.37,1.83,1.42,1.42,0,0,0,1.46.85Zm8.42-30.14a7,7,0,0,0-.18-1.34.93.93,0,1,0-1.83,0,7,7,0,0,0-.18,1.34Zm26.6,17.94H243v1.58c0,.08.4.23,1.22.43s1.46.35,1.95.43l4.15.24Zm6.83,9.51a3.36,3.36,0,0,0-1.4.31,1.15,1.15,0,0,0-.67,1.16.49.49,0,0,0,.12.36,3.16,3.16,0,0,0,1.34-.55A1.44,1.44,0,0,0,257.18,72.22Zm1.46-11.71c0-.89-.28-1.46-.85-1.71a5,5,0,0,0-2-.36,1.68,1.68,0,0,0,.79,1.64A4.16,4.16,0,0,0,258.64,60.51Zm12.81-30.87a3.28,3.28,0,0,0-.48-1.58,3.32,3.32,0,0,0-1.1-1.22,2.22,2.22,0,0,0-1.22,1.46,13.71,13.71,0,0,0-.49,1.71c-.33-.89-.79-2.18-1.4-3.84a47.54,47.54,0,0,0-2.14-4.94,20.48,20.48,0,0,0-2.8-4.27,4.54,4.54,0,0,0-3.42-1.83V39.77c0,.08.22.23.67.43s.79.34,1,.42h.36a4.61,4.61,0,0,0,3.18-1.34,23.06,23.06,0,0,0,2.8-3.11q1.35-1.77,2.56-3.54A10.45,10.45,0,0,1,271.45,30Zm8.18,94.19a23.79,23.79,0,0,1-2.56-.12,5.86,5.86,0,0,1-2.32-.86,3.73,3.73,0,0,1,3.29-1.58,3.93,3.93,0,0,1,2.2.73,7.31,7.31,0,0,1,1.83,1.71Zm8.05-84.06a21.3,21.3,0,0,1,1.89,1.49,2.43,2.43,0,0,1,.67,1.87,2.86,2.86,0,0,1-.12.87L287,39.77Zm.85,70.88a2.55,2.55,0,0,1-.73-1.1,5.83,5.83,0,0,1-.12-1.34v-.73a2.51,2.51,0,0,1,.73,1.1,5.83,5.83,0,0,1,.12,1.34Zm.86,2.44c-.41,0-.61-.26-.61-.79s.2-.79.61-.79.61.26.61.79S289.79,113.09,289.39,113.09Zm.73,4.88c-.08.25-.14.16-.18-.24s-.06-.86-.06-1.34,0-.94.06-1.35.1-.48.18-.24a3.58,3.58,0,0,1,0,3.17Z"/><path class="cls-1" d="M295,37.82c0-.65.45-1,1.34-1.1s1.55-.12,2-.12a22.56,22.56,0,0,1,6.41,1,23.88,23.88,0,0,1,6.4,3A19,19,0,0,1,316,45.26a10.12,10.12,0,0,1,2,6.1,9.7,9.7,0,0,1-2.2,6.34,7.72,7.72,0,0,1-6.34,2.69,7.82,7.82,0,0,1-4.27-1.16,9.48,9.48,0,0,1-3-3,13.21,13.21,0,0,1-1.71-4.09,18.56,18.56,0,0,1-.55-4.45v-.49a18.17,18.17,0,0,1,3.23-1.58,16.59,16.59,0,0,1,3.36-.86v-.36c0-.65-.25-1-.73-1.16a5.28,5.28,0,0,0-1.35-.19,4.13,4.13,0,0,0-2.74,1,11,11,0,0,1-2.5,1.59c-.17-.25-.41-.63-.73-1.16s-.67-1.1-1-1.71-.69-1.18-1-1.71a8.7,8.7,0,0,1-.55-1.16l-.42-.85a3.91,3.91,0,0,0-.43-.73Zm113.09,68.81c-.24,0-.61.38-1.09,1.15s-1.06,1.63-1.71,2.57a31.73,31.73,0,0,1-2.14,2.74,5.13,5.13,0,0,1-2.38,1.71c-1.46.41-2.52.71-3.17.91s-1,1.12-1,2.75a4.33,4.33,0,0,0,.12,1.22,37.37,37.37,0,0,1,3.41-2.26,7.64,7.64,0,0,1,3.91-1.16c0,.65,0,1.39-.12,2.2a11.28,11.28,0,0,1-.55,2.44,5.78,5.78,0,0,1-1.16,2,2.39,2.39,0,0,1-1.83.8,15.84,15.84,0,0,1-8.85-2.69,35,35,0,0,1-7.44-6.65,55.28,55.28,0,0,1-5.92-8.48q-2.55-4.5-4.27-8.17h-1.58c-1,1.46-2.06,3-3.23,4.45a47.49,47.49,0,0,1-3.85,4.33,38.22,38.22,0,0,1-4.39,3.79,24.32,24.32,0,0,1-4.88,2.8,3.1,3.1,0,0,1-.73-1.34,7.68,7.68,0,0,1-.12-1.46,3.47,3.47,0,0,1,1.4-2.75c.93-.77,2-1.62,3.17-2.56a15.22,15.22,0,0,0,3.17-3.48,9.36,9.36,0,0,0,1.41-5.37,9.56,9.56,0,0,0-.43-3c-.29-.86-.59-1.71-.92-2.57s-.63-1.75-.91-2.68a10.94,10.94,0,0,1-.43-3.23h-1.46c-.17,0-.39.89-.67,2.68s-.57,3.76-.86,5.92-.53,4.19-.73,6.1a15.89,15.89,0,0,0-.18,3.23A48.06,48.06,0,0,0,350,110a68.37,68.37,0,0,1-6.28,6.83,27.43,27.43,0,0,1-7.56,5q-4.33,2-11.66,2a5.61,5.61,0,0,1-2.56-.55c-.73-.37-1.44-.78-2.13-1.22s-1.37-.85-2-1.22a4.11,4.11,0,0,0-2.07-.55,1.88,1.88,0,0,0-1.65.79,10.64,10.64,0,0,0-1,1.77c-.29.65-.57,1.24-.86,1.77a1.36,1.36,0,0,1-1.28.79,7.22,7.22,0,0,1-5.67-2.56,8.3,8.3,0,0,1-2.26-5.61,35.67,35.67,0,0,1,.49-6.28q.48-2.74,1.22-6.77c.57.4,1,.48,1.4.24a2.05,2.05,0,0,0,.8-1.1,6.51,6.51,0,0,0,.3-1.58c0-.57.06-1,.06-1.22a5.85,5.85,0,0,0-1.83-4.27,28.41,28.41,0,0,0-4-3.3c-1.43-1-2.75-1.89-4-2.74a3.51,3.51,0,0,1-1.83-2.75,4.37,4.37,0,0,1,.12-1.22,13.11,13.11,0,0,0,7.38-1.83,15.63,15.63,0,0,0,4.64-4.88,39.06,39.06,0,0,0,3.3-6.77,79.54,79.54,0,0,1,3.35-7.62q.74-1.35,2.07-4.21c.9-1.91,1.91-4.07,3.05-6.47s2.32-4.94,3.54-7.62,2.38-5.23,3.48-7.63,2.09-4.55,3-6.47l2-4.2-3.17-.86h-1.71a13.75,13.75,0,0,1-3.84,4,10.16,10.16,0,0,1-5.07,1c-1.7,0-3.56-.93-5.55-2.8a40.33,40.33,0,0,1-5.55-6.53A51.24,51.24,0,0,1,302.44,16a14.76,14.76,0,0,1-1.71-5.37c0-.08.1-.22.31-.43a.83.83,0,0,1,.55-.3l4-.12a30.72,30.72,0,0,1,6.59.72,25.49,25.49,0,0,1,6.22,2.24,21.91,21.91,0,0,1,5.31,3.8A17.85,17.85,0,0,1,327.57,22c2.28.32,4.15.55,5.62.67s3.17.18,5.12.18h1.22a17.45,17.45,0,0,0,2-.12q1-.12,1.89-.3c.57-.12.86-.26.86-.42V8.05h2.44c1.22,0,2.6,0,4.15.06s3.17.1,4.88.18,3.27.21,4.69.37a20.36,20.36,0,0,1,3.54.67c.94.29,1.4.63,1.4,1a5.36,5.36,0,0,0-4.14,1.45,8.11,8.11,0,0,0-1.9,3.56,18,18,0,0,0-.54,4.47V24q.12,0,.24.18c.08.13.16.19.24.19a9.67,9.67,0,0,0,1.29-1.22L361.73,22h10.13V8.05L374.18,8l4.27-.12c1.62,0,3.33,0,5.12,0s3.42.14,4.88.3a13.5,13.5,0,0,1,3.66.86c1,.4,1.47.93,1.47,1.58,0,1.14-.12,1.81-.35,2a7.54,7.54,0,0,0-.75.8,5.11,5.11,0,0,0-.75,1.95,26.67,26.67,0,0,0-.35,5.37,3,3,0,0,0,2.24-1,14.62,14.62,0,0,0,1.69-2.26c.52-.85,1.09-1.7,1.69-2.56a5.63,5.63,0,0,1,2.24-1.89c.48-.16,1.21.12,2.17.86a32,32,0,0,1,3,2.62c1.05,1,2,2,2.86,2.93S408.7,21,409,21.23c-1.39-.33-2.3-.21-2.75.36a4.34,4.34,0,0,0-.85,2.14c-.12.85-.23,1.67-.31,2.44s-.4,1.16-1,1.16H392l-1.7,1.22v5.61l.86.12a5.34,5.34,0,0,1,.78-.49,3.33,3.33,0,0,1,.79-.36h.85c.32.16,1.06.65,2.23,1.46s2,1.42,2.6,1.83c.73.49,1.63,1.14,2.72,2s2.16,1.61,3.21,2.38l2.68,2a4.68,4.68,0,0,1,1.09,1v1.34l-1.22.06a4.53,4.53,0,0,0-1.22.19c-.16,0-.34.12-.55.36a1.22,1.22,0,0,0-.3.49V63.56a1.68,1.68,0,0,0-.73-.55,2.4,2.4,0,0,0-.86-.3,11.63,11.63,0,0,0-1.28.12l-1.95.24-2,.25a7.94,7.94,0,0,0-1.28.24,4.7,4.7,0,0,0-1,1.52,5.23,5.23,0,0,0-.67,1.65c0,.25.77.76,2.32,1.53s3.27,1.7,5.18,2.8a43.38,43.38,0,0,1,5.19,3.48c1.54,1.22,2.32,2.44,2.32,3.66H409a13.68,13.68,0,0,0-1.28-1c-.61-.44-1.26-.93-2-1.46s-1.36-1-2-1.46l-1.34-.92a9.32,9.32,0,0,0-1.28-1c-.61-.4-1-.65-1.16-.73h-.73a7.63,7.63,0,0,0-.79,2.69c0,.73-.07,1.62-.07,2.68v1.89a2.52,2.52,0,0,0,.86,1.77l1.64,1.28c.78.61,1.59,1.26,2.44,2l2.44,2a16,16,0,0,1,1.53,1.28c.41.32.89.75,1.46,1.28s1.1,1,1.59,1.58,1.1,1.2,1.83,2v1.46L399.19,83.08h-1.71a14.76,14.76,0,0,0,1,2.87c.44.93.91,1.85,1.4,2.74a18.6,18.6,0,0,1,1.22,2.75,9.15,9.15,0,0,1,.49,3H387.11a1.45,1.45,0,0,0-.61-1.35,2.73,2.73,0,0,0-1.4-.36,8,8,0,0,0-1.65.18,7,7,0,0,1-1.34.18,5.6,5.6,0,0,0,2.38,4.64,20.64,20.64,0,0,0,5.85,3,45,45,0,0,0,7.63,1.89c2.76.45,5.3.81,7.62,1.1s4.27.51,5.86.67,2.38.37,2.38.61v1.59ZM303.17,88q.12-.12-.42-.24a5.78,5.78,0,0,0-1.22-.13,9,9,0,0,0-1.22.07c-.37,0-.51.14-.43.3a3.84,3.84,0,0,0,3.29,0Zm5.13-.85a5.57,5.57,0,0,0-.25-1.59,1.12,1.12,0,0,0-1.22-.85h-.36a5,5,0,0,0-1.22,1,2.11,2.11,0,0,0-.73,1.47Zm49.41-19.52h-7.32a4.93,4.93,0,0,1-1.65,2.56A11.9,11.9,0,0,1,345.81,72a14.12,14.12,0,0,1-3.41,1,18,18,0,0,1-3.11.31,4.25,4.25,0,0,1-2-.43,4.66,4.66,0,0,0-2.07-.42,9.62,9.62,0,0,0-1.65.12,3.92,3.92,0,0,0-1.52.73V46.24a4.24,4.24,0,0,0-1.22.18,1.3,1.3,0,0,0-.86.79l-8.17,25.26c-.16.57-.43.87-.79.91l-1.1.12a2.09,2.09,0,0,0-1,.37c-.28.2-.42.71-.42,1.52a1.71,1.71,0,0,0,.24,1,1.84,1.84,0,0,0,.61.49,1.72,1.72,0,0,1,.61.49,1.7,1.7,0,0,1,.24,1,22.45,22.45,0,0,1-.85,6.1,23,23,0,0,0-.85,6.23,16.77,16.77,0,0,0,.79,5.24q.8,2.44,1.71,4.94t1.7,5a17.34,17.34,0,0,1,.8,5.3c0,1.55,0,3-.06,4.27a14.52,14.52,0,0,1-.8,4.15,1.11,1.11,0,0,0,.68.73,3.28,3.28,0,0,0,.91.12,2.08,2.08,0,0,0,.85-.12q2.56-1.09,7.2-3.48a85.23,85.23,0,0,0,9.21-5.49,47.71,47.71,0,0,0,7.93-6.64q3.36-3.54,3.36-7.08a9,9,0,0,0-.12-1.28c-.09-.53-.33-.79-.74-.79H326.72c-.08,0-.22-.17-.43-.49a1.67,1.67,0,0,1-.3-.73,5.82,5.82,0,0,1,.06-1.83q.18-1.47.18-1.83h28.18a2,2,0,0,0,1.83-1.28,9,9,0,0,0,.8-2.93,20.26,20.26,0,0,0,.12-3q-.06-1.41-.06-1.65h-8.42c-.08,0-.22-.16-.43-.49a1.62,1.62,0,0,1-.3-.73,7.66,7.66,0,0,1-.25-1.28c-.08-.61-.12-1-.12-1.16h-5v3.17h-11a1.92,1.92,0,0,1-1.89-1.28,6,6,0,0,1-.55-2.38v-.36a7.39,7.39,0,0,1,.43-.74q.3-.48.42-.48h27.7Zm-26.11,26c.08-.24,0-.36-.37-.36s-.44.12-.36.36a.37.37,0,1,0,.73,0Zm12.2-65H334a4.54,4.54,0,0,1,1.59,3.17c0,1.06,0,2,.06,2.86a2.91,2.91,0,0,0,1,2.14c.65.57,2.2.85,4.64.85h1.34c.73,0,1.1-.28,1.1-.85Zm40.75,8.17V34c-.65,0-1.45,0-2.38-.06s-1.91-.13-2.93-.25a16.37,16.37,0,0,1-2.93-.61,6.34,6.34,0,0,1-2.38-1.28v4.88h5.25A1.34,1.34,0,0,1,378,38.25a17.2,17.2,0,0,1-2.62.18,12.78,12.78,0,0,1-1.89-.18,1.33,1.33,0,0,1-1.16-1.53v-9H362.1V35q0,1.1-2,1.77a30.87,30.87,0,0,1-4.52,1.1c-1.66.29-3.27.53-4.82.73a13.16,13.16,0,0,0-2.8.55l.73.73h36.6a5.19,5.19,0,0,0,1.1-.91,7.65,7.65,0,0,0,1.34-1.53,1.07,1.07,0,0,0,.37-.73Zm-35.87,79.67a2.26,2.26,0,0,1,1.22-1.47,5.52,5.52,0,0,1,1.71-.24,4.37,4.37,0,0,1,1.22.12,3.74,3.74,0,0,1-3.3,1.59Zm9-69.18h-7.32V61.85h7.32ZM370,78c0-2-1.1-3-3.29-3-.57,0-1.24,0-2-.07a21.11,21.11,0,0,0-2.25,0,6.71,6.71,0,0,0-2,.43,1.85,1.85,0,0,0-1.16,1.22c.82,2,1.77,3.17,2.87,3.66a10,10,0,0,0,4.09.73c.16,0,.61,0,1.34-.12s1.22-.12,1.46-.12a1.22,1.22,0,0,0,.92-1.22C370,78.77,370,78.28,370,78Zm4.76,17.69a1.6,1.6,0,0,0-1.1-1.71,6.38,6.38,0,0,0-2.07-.37h-1.41c-.77,0-1.16.29-1.16.86a3.11,3.11,0,0,0,.68,1.46c.44.65.87,1,1.28,1h.48l3.3-.86Zm-.86-10.13c.25-.08.37-.22.37-.43s-.12-.34-.37-.42-.36,0-.36.36S373.69,85.52,373.93,85.52Zm13.79,4.88c.24,0,.69-.31,1.34-.91A20.74,20.74,0,0,0,391,87.35a22.6,22.6,0,0,0,1.71-2.44,4.09,4.09,0,0,0,.73-1.83.75.75,0,0,0-.85-.85H378a1.48,1.48,0,0,0-.37.24.72.72,0,0,0-.36.61,7.58,7.58,0,0,0-1,3.54q-.06,1.83-.06,3.78Zm-1.59-41.48-1.58-1.71h-7.32V61.12c0,.08.2.22.61.43a2.36,2.36,0,0,0,1,.3,4.15,4.15,0,0,0,1.47.12h3.23a2.28,2.28,0,0,0,1-.12l1.58-1.58ZM378,14.76c.41,0,.61-.28.61-.85s-.2-.86-.61-.86-.61.29-.61.86S377.55,14.76,378,14.76Zm11.47,57.71-.86-.86a3.64,3.64,0,0,1-.85-.91c-.33-.45-.63-.9-.91-1.35s-.55-.85-.8-1.22-.49-.54-.73-.54H378v8.17h9a2.1,2.1,0,0,0,1.71-1,3.29,3.29,0,0,0,.73-2ZM391.14,92h-.86v.85h.86Zm8.17-41.85a3.44,3.44,0,0,0-.49-2,15.91,15.91,0,0,0-1.34-1.71,3.71,3.71,0,0,0-.43.73,2.4,2.4,0,0,0-.3.86,1.68,1.68,0,0,0,.79,1.64A3.62,3.62,0,0,0,399.31,50.14Zm1.46-9.39a2,2,0,0,0-.85-.86h-.37a1.74,1.74,0,0,0-1.7,1,4.27,4.27,0,0,0-.49,2,4.33,4.33,0,0,0,.12,1.22Zm3.3,8.9h-1.71a1.72,1.72,0,0,0,1.71,1.1Zm8.05-26.11c.41,0,.61.27.61.8s-.2.79-.61.79-.61-.24-.61-.73h-.12c-.41,0-.61-.29-.61-.86h-.25c-.57,0-.77-.28-.61-.85h-.24c-.41,0-.61-.26-.61-.79s.2-.8.61-.8c.57,0,.77.29.61.86h.24c.41,0,.61.24.61.73h.25c.4,0,.61.29.61.85Z"/><path class="cls-1" d="M536.56,31,535,33.06H509.72l-1.59,1.21c.17,0,.47.22.92.67s.67.74.67.9a1.56,1.56,0,0,0-.37.61q-.12.24-.24.54a1.34,1.34,0,0,0-.12.43c-.17.24-.45.66-.86,1.27a9.29,9.29,0,0,1-.85,1.15v8.1h3.29L517,41.48c.08-.08.32-.12.73-.12a7.49,7.49,0,0,1,3.36,1,25.54,25.54,0,0,1,3.66,2.32A37.48,37.48,0,0,1,528,47.4a25.27,25.27,0,0,1,2.07,2.16,5.79,5.79,0,0,0-2.56,1.24l-1.89,1.68a14.54,14.54,0,0,1-2,1.49,5.46,5.46,0,0,1-2.93.68,5.81,5.81,0,0,1-2.56-.48,5.09,5.09,0,0,0-2.32-.49c-.24,0-.37,0-.37.12-.81.57-1.44,1-1.89,1.4a2.19,2.19,0,0,0-.67,1.77,7.36,7.36,0,0,0,.73,1.65c.49.93,1,2,1.65,3.05s1.2,2.09,1.77,3S518,66,518.26,66a4,4,0,0,0,1.83-.43,4.37,4.37,0,0,1,1.95-.42,3,3,0,0,1,2.56,1.15,6.72,6.72,0,0,1,1.16,2.81,18.21,18.21,0,0,1,.31,3.42v2.86a4.54,4.54,0,0,1-1,2.93,15,15,0,0,1-2.32,2.32c1.06,1.46,2,2.81,2.87,4a7.41,7.41,0,0,1,1.28,4.39,10.76,10.76,0,0,1-.49,3.35,10.76,10.76,0,0,0-.48,3.24c0,.24,0,.61.06,1.09a9.38,9.38,0,0,0,.24,1.47,6.63,6.63,0,0,0,.49,1.34,1,1,0,0,0,.91.61,2.28,2.28,0,0,0,.86-.31,1.68,1.68,0,0,0,.73-.54,15.78,15.78,0,0,1-5.8,7.68,15.43,15.43,0,0,1-9.21,2.93h-2.8a8.34,8.34,0,0,1-1.1-3.66q-.12-2-.12-3.9a18.88,18.88,0,0,0-.37-3.79,6.71,6.71,0,0,0-1.71-3.29.49.49,0,0,0-.36-.12.71.71,0,0,0-.49.12l-.73.37a1.76,1.76,0,0,0-.49.36v23.67c0,1.06-.87,1.87-2.62,2.44a33.22,33.22,0,0,1-5.86,1.28,56.48,56.48,0,0,1-6,.49l-3.29.06V56.48a4.73,4.73,0,0,0-2.32,1,27.39,27.39,0,0,0-2.87,2.2,19.71,19.71,0,0,0-2.44,2.5,3.89,3.89,0,0,0-1,1.77q0,.36.12.36a2.11,2.11,0,0,0,.36,1,2.62,2.62,0,0,1,.37.73h.85c.08-.16.35-.59.8-1.28a12.3,12.3,0,0,1,.79-1.16,1.18,1.18,0,0,1,.85-.37V80c-1.3,0-2.78,0-4.45-.12a12.48,12.48,0,0,1-4.45-1,2.79,2.79,0,0,0-.12.86v.42a.6.6,0,0,0,.12.43,10.9,10.9,0,0,0,.61,1l1,1.46c.33.49.65,1,1,1.46s.53.82.61,1h.85a3.1,3.1,0,0,1,.74-.37c.4-.16.83-.32,1.28-.48l1.28-.49a2.8,2.8,0,0,0,.73-.37,2.72,2.72,0,0,1,.85-.12V105a3.25,3.25,0,0,1-1.77,2.81,16,16,0,0,1-4.08,1.76,26.27,26.27,0,0,1-4.64.92c-1.54.16-2.68.24-3.41.24h-1.41c-.61,0-.91,0-.91-.12l-1.22-.73V63.68a3.64,3.64,0,0,1-.61-.12c-.33-.08-.53-.08-.61,0-.49.16-.9.29-1.22.37a2.78,2.78,0,0,0-.86.36v44.78a13.55,13.55,0,0,1-1.58,6.64,15,15,0,0,1-4.21,4.82,19.75,19.75,0,0,1-5.92,3,22.22,22.22,0,0,1-6.71,1,5.3,5.3,0,0,1-.85-.06c-.25,0-.45-.31-.61-.79q-.25-3.3-.61-5.62a14.34,14.34,0,0,0-1.28-4.14,11.32,11.32,0,0,0-2.63-3.36,26.67,26.67,0,0,0-4.51-3.11v-.85a4.11,4.11,0,0,1,.12-1,.84.84,0,0,1,.73-.61h8.18a6.82,6.82,0,0,0,1-.43c.41-.2.61-.34.61-.42V79.79c0-.57-.36-.86-1.09-.86h-1.35c-.89,0-1.75,1.1-2.56,3.3s-1.71,5-2.68,8.29-2,6.94-3.17,10.8a90.28,90.28,0,0,1-3.91,10.8,33.3,33.3,0,0,1-5,8.29,8.22,8.22,0,0,1-6.34,3.3,1.41,1.41,0,0,1-1.59-1.59,15.21,15.21,0,0,1,.43-3.17c.28-1.3.61-2.62,1-4s.74-2.56,1.1-3.66.63-1.85.79-2.25a.52.52,0,0,1,.37-.13.72.72,0,0,1,.49.13l3.17,3.29h.12a.39.39,0,0,0,.25-.12l.24-.25a4,4,0,0,0-1.16-2.74,6.24,6.24,0,0,0-2.62-1.77l-.12-2.07a54,54,0,0,1,.48-7.14q.5-3.6,1.22-7.14a6.12,6.12,0,0,0,3-1.95c.74-.89,1.45-1.81,2.14-2.75a18.24,18.24,0,0,1,2.38-2.62,7,7,0,0,1,3.78-1.58V77.35c.08-.17.24-.57.49-1.22a5.32,5.32,0,0,0,.36-1.22,3.69,3.69,0,0,0-.3-.8,1.71,1.71,0,0,0-.55-.79c-.33-.41-.75-.89-1.28-1.46s-1-1.1-1.53-1.59-.93-.92-1.34-1.28-.65-.55-.73-.55h-1c0,1.14,0,2.52.13,4.15a31.83,31.83,0,0,1-.13,4.88,12.23,12.23,0,0,1-1.28,4.45,5.46,5.46,0,0,1-3.35,2.75v-75a15.48,15.48,0,0,1,4.94.79c1.59.53,3.17,1.14,4.76,1.83s3.17,1.3,4.75,1.83a15.55,15.55,0,0,0,4.95.79l1.7-.12,6.47-6.59h.73a5.63,5.63,0,0,1,2.56.79,22.16,22.16,0,0,1,2.81,1.83c.89.7,1.69,1.35,2.38,2s1.12,1,1.28,1.16a.49.49,0,0,1,.12.36.71.71,0,0,1-.12.49,1.08,1.08,0,0,1-.73.73v6.59l-.86.73a2.54,2.54,0,0,1-1,.19q-.92.06-1.41.06a21.9,21.9,0,0,1-3.78-.31,9.42,9.42,0,0,1-3.54-1.52.49.49,0,0,0-.12.36.71.71,0,0,0,.12.49c.08.08.39.51.92,1.28s1.12,1.61,1.77,2.5,1.26,1.71,1.83,2.44.93,1.1,1.1,1.1a7.51,7.51,0,0,0,3.35-.55A3.07,3.07,0,0,0,460,27.33a13.23,13.23,0,0,0,.74-2.32,15.22,15.22,0,0,1,1-2.93A5.38,5.38,0,0,1,463,20.37c.41-.32.8-.61,1.16-.85a7.19,7.19,0,0,0,1-.79,3.22,3.22,0,0,0,.67-1.53,3.92,3.92,0,0,1,1,2.44,2.33,2.33,0,0,1-.55,1.59A12.16,12.16,0,0,1,465,22.38a11.29,11.29,0,0,0-1.22,1.16,2.46,2.46,0,0,0-.55,1.71,9.33,9.33,0,0,0,.49,2.69,2,2,0,0,0,2.07,1.58c1.06,0,1.63-.44,1.71-1.34H487a1.76,1.76,0,0,0,.36-.49l.37-.73a10.5,10.5,0,0,0,.55-1,2.88,2.88,0,0,0,.3-.73V9.88l.86-.85,3.78-.13q4.51,0,8.11.19t8.36.79c.89-.16,1.42,0,1.59.55a5,5,0,0,1,.24,1.4,3.78,3.78,0,0,1-.85,2.63,11,11,0,0,1-2.57,1.89V30.13a1.44,1.44,0,0,0,.49,1.22,2.61,2.61,0,0,0,1.1.49,4.52,4.52,0,0,0,1.28.06c.45,0,.79-.06,1-.06s.61,0,1.1.06a6,6,0,0,0,1.46-.06,2.69,2.69,0,0,0,1.22-.49,1.3,1.3,0,0,0,.49-1.1q0-3.29-3.3-3.29l2.44-3.29.86-.86h.36a8.08,8.08,0,0,1,5,1.4,18,18,0,0,1,3.17,3.12,35.31,35.31,0,0,0,2.74,3.11,5.06,5.06,0,0,0,3.72,1.4,4.65,4.65,0,0,0,2.38-.43,4,4,0,0,0,1.28-2ZM439,51.24a1.69,1.69,0,0,0-.73.12,3.71,3.71,0,0,0-.86.37,3.77,3.77,0,0,1-.85.36c0,.08-.12.12-.37.12s-.36,0-.36-.12a.75.75,0,0,1-.43-.12,3.31,3.31,0,0,0-.43-.24.81.81,0,0,1-.36-.37V43.19h-6.22a6.93,6.93,0,0,0,.48,2.56,6.74,6.74,0,0,1,.49,2.56v.85c0,.33,0,.49-.12.49l-4.88,4.88v.86a4.28,4.28,0,0,0,.85.85h.37a2.3,2.3,0,0,0,1.4-.49,14.8,14.8,0,0,0,1.41-1.16,10.37,10.37,0,0,1,1.52-1.16,3.36,3.36,0,0,1,1.77-.48,4.1,4.1,0,0,1,1.83.42,4,4,0,0,0,1.83.43h.49l.85-.3a6.24,6.24,0,0,1,1.1-.31L439,53Zm-4.27,13.91a1.64,1.64,0,0,0,1.1,1.58,1.8,1.8,0,0,0,1-1.58Zm9.15-45c-.16,0-.55,0-1.16.12a11.63,11.63,0,0,1-1.28.12l-.43.43c-.2.2-.3.35-.3.43v21.1c0,.17.2.35.61.55a2.41,2.41,0,0,0,1,.31,2.44,2.44,0,0,0,1-.31c.41-.2.61-.38.61-.55Zm.85,102.23a15.6,15.6,0,0,0,4.64-.91A27,27,0,0,0,454.7,119a21.45,21.45,0,0,0,4.45-3.48,5.79,5.79,0,0,0,1.89-4,1.51,1.51,0,0,0-1.71-1.71,2.72,2.72,0,0,0-.85.12,27.75,27.75,0,0,1-5.67,7.26,15.34,15.34,0,0,1-8.12,4.09Zm16.23-32a2.56,2.56,0,0,1-1.46-1.46c-.25-.65-.47-1.28-.67-1.9a4.75,4.75,0,0,0-1-1.64,3.33,3.33,0,0,0-2.5-.73c-.25,0-.47.4-.67,1.22s-.39,1.72-.55,2.74-.29,2-.37,3-.12,1.63-.12,1.95a2.25,2.25,0,0,0,.55,1.34,7.13,7.13,0,0,0,1.34,1.35,11.89,11.89,0,0,0,1.59,1,2.94,2.94,0,0,0,1.4.43,3,3,0,0,0,.73-.3c.41-.21.73-.39,1-.55l.43-.43c.2-.2.3-.35.3-.43Zm26.84-56.24h-24.4V48.8h2.93V43.43l1.34-.24c.41-.08.81-.15,1.22-.19a3.27,3.27,0,0,1,1.1.06,15.77,15.77,0,0,1,3.6,1.22L477.08,46q1.77.85,3.54,1.53a10.92,10.92,0,0,0,3.85.67,11.69,11.69,0,0,0,1.4-.12c.61-.08,1-.13,1.16-.13l.73-.85ZM469.09,74.91v-.86h-.85v.86Zm-.85,20.49a11.42,11.42,0,0,0,2.26-.3c.93-.2,1.4-.71,1.4-1.53h-3.66Zm16.35-66c0-.24-.17-.37-.49-.37s-.45.13-.37.37a.43.43,0,0,0,.86,0Zm5.61,9.76q-.24-.12-.3.24a4.78,4.78,0,0,0-.07.92,3.21,3.21,0,0,0,.13,1c.08.29.16.39.24.31a1.79,1.79,0,0,0,.37-1.28C490.57,39.71,490.44,39.32,490.2,39.16Zm8.17,58.56L505,92.11a2.62,2.62,0,0,0-.12-1,3.16,3.16,0,0,0-.73-.73,13.68,13.68,0,0,0-1.28-1c-.61-.44-1.27-.93-1.95-1.46s-1.37-1-2-1.47l-1.34-.91a4.33,4.33,0,0,0-1.22-.12,6.44,6.44,0,0,0-4,1.71,4.81,4.81,0,0,0-2.07,3.66,3.27,3.27,0,0,0,1.1,1.89c.73.77,1.54,1.54,2.44,2.32a21.08,21.08,0,0,0,2.62,2,4.64,4.64,0,0,0,1.65.79Zm2.44-53.8a19.53,19.53,0,0,0-5.91.73c-1.51.49-2.26,2.07-2.26,4.76a11.92,11.92,0,0,0,1.83-.25c.89-.16,1.81-.36,2.74-.61a13.14,13.14,0,0,0,2.51-.91c.73-.37,1.09-.75,1.09-1.16Zm-5.73,73.32a4.33,4.33,0,0,0,1.22.12,2.59,2.59,0,0,0,2.93-2.93c0-1.79-.59-2.88-1.77-3.29a12.44,12.44,0,0,0-4.09-.61l.12,1a4.61,4.61,0,0,0,1.35,1.89,2.78,2.78,0,0,1,1.09,1.77v.36Zm1.22-88.69a6.21,6.21,0,0,0,2.26-.37c.61-.24,1.24-.49,1.89-.73s1.4-.49,2.26-.73a11.71,11.71,0,0,1,3.23-.37,3,3,0,0,0-1.28-2.75,5.89,5.89,0,0,0-3.11-.79,8,8,0,0,0-1.89.31,8.62,8.62,0,0,0-2.14.85,8,8,0,0,0-1.71,1.28,2.34,2.34,0,0,0-.73,1.71C495.08,28,495.49,28.55,496.3,28.55ZM495.93,53a2,2,0,0,0,1.83,1,2,2,0,0,0-1-1.83Zm9.76-13.79-.85.73h.85Zm4.88,15.13-3.29.24-.43.43c-.2.2-.3.35-.3.43v33.3l1.34,2.08,2.68-1.22Zm7.57,22.81a4.67,4.67,0,0,0-2.08.43,1.66,1.66,0,0,0-.85,1.65,5.32,5.32,0,0,0,2.07-.37C517.85,78.57,518.14,78,518.14,77.1Zm3.78-58.31-1.59-.86h.86a3.34,3.34,0,0,1,.91.12,1.11,1.11,0,0,1,.67.74Zm3.29,2.44a4.29,4.29,0,0,1-.85-.8l-.73-.79a.49.49,0,0,1,.36-.12c.25,0,.37,0,.37.12a4.53,4.53,0,0,1,.85.73l.86.86Zm1.59,1.58c-.41,0-.61-.26-.61-.79s.2-.79.61-.79.61.26.61.79S527.21,22.81,526.8,22.81Zm1.71,0a2.39,2.39,0,0,0,.61.67c.32.29.67.61,1,1s.69.71,1,1l.55.61a.5.5,0,0,1-.37.12q-.36,0-.36-.12a20.64,20.64,0,0,1-1.71-1.59,20.64,20.64,0,0,1-1.59-1.71ZM529.24,57c-.24-.08-.18-.28.18-.61s.59-.36.67-.12a.62.62,0,0,1-.18.67A.48.48,0,0,1,529.24,57ZM531,49.65c.4,0,.61.29.61.86s-.21.85-.61.85-.61-.28-.61-.85S530.54,49.65,531,49.65Zm.73,1.71a.71.71,0,0,1,.49-.12.49.49,0,0,1,.36.12A6.92,6.92,0,0,1,534.12,53l-.73.85Zm1.71-22.81c-.57,0-.78-.29-.61-.86h-.25c-.4,0-.61-.26-.61-.79s.21-.79.61-.79c.57,0,.78.28.61.85h.25c.4,0,.61.24.61.73h.12c.41,0,.61.29.61.86s-.2.85-.61.85-.61-.28-.61-.85Z"/><path class="cls-1" d="M642.33,26.11l.8-.86c.44-.49.71-.73.79-.73a1.35,1.35,0,0,1,.67-.18l.67-.06c0,.81-.65,1.6-2,2.38A33.72,33.72,0,0,1,638.37,29q-3,1.17-6.41,2.32c-2.27.78-4.41,1.53-6.4,2.26a34.09,34.09,0,0,0-4.94,2.19c-1.3.74-2,1.47-2,2.2a.51.51,0,0,0,.12.37,1.43,1.43,0,0,0,.73.85c2.28.73,5.1,1.59,8.48,2.56a61.52,61.52,0,0,1,9.7,3.72,28.74,28.74,0,0,1,7.93,5.61,11.35,11.35,0,0,1,3.29,8.24c0,2.28-.38,3.92-1.16,4.94a6.94,6.94,0,0,1-2.93,2.26,34.49,34.49,0,0,1-4,1.34A12.62,12.62,0,0,0,636.6,70a21,21,0,0,0,1.83,1.52l2.75,2.14a29.4,29.4,0,0,1,2.5,2.19,3,3,0,0,1,1.09,1.83q0,.74-2.13,1.71a49.14,49.14,0,0,1-4.88,1.89q-2.75.91-5.25,1.59c-1.66.44-2.74.75-3.23.91s-1.38.61-2.68,1.1-2.69,1-4.15,1.46l-4.21,1.41-2.75.91a1.14,1.14,0,0,0-.73.67,3.91,3.91,0,0,0-.12,1q0,2.32,3.11,4.09a38.89,38.89,0,0,0,7.69,3.17,95.84,95.84,0,0,0,10,2.44c3.62.69,7,1.3,10,1.83s5.62,1,7.69,1.46,3.11.84,3.11,1.16a.71.71,0,0,1-.12.49l-.73.79a4,4,0,0,1-.86.8c.33-1.06.19-1.81-.42-2.26a5.54,5.54,0,0,0-2.32-.92,14.49,14.49,0,0,0-3-.18c-1.06,0-1.91.06-2.56.06a3,3,0,0,0-1.65.43l-1.34.85c-.45.29-.92.57-1.4.86a3.15,3.15,0,0,1-1.59.42,1.31,1.31,0,0,1-1.16-.67c-.29-.44-.57-.93-.85-1.46a9.4,9.4,0,0,0-1-1.47,1.74,1.74,0,0,0-1.4-.67,3.79,3.79,0,0,0-2,.67q-1,.67-2.07,1.47l-2.13,1.65a9.7,9.7,0,0,1-2,1.22,10.36,10.36,0,0,0,2.2,2.25,8.14,8.14,0,0,1,1.28,1,2.54,2.54,0,0,1,.61,1.34,19.44,19.44,0,0,1,.18,3.23q1.23,0,3.36-.18a41.72,41.72,0,0,0,4.33-.61,24.42,24.42,0,0,0,4.09-1.16,5.39,5.39,0,0,0,2.62-1.83,15,15,0,0,0-1.28,3.54c-.37,1.46-.79,2.91-1.28,4.33a15.35,15.35,0,0,1-1.83,3.72,3.4,3.4,0,0,1-2.93,1.59,26.07,26.07,0,0,1-9.76-2,46,46,0,0,1-9.52-5.25,44.69,44.69,0,0,1-8-7.32,30.63,30.63,0,0,1-5.18-8.36,6.93,6.93,0,0,1,3.35-.73q2.5-.12,5.19-.12c1.79,0,3.37,0,4.76-.06s2.07-.27,2.07-.67v-.86a10,10,0,0,0-1.46-.36,12.19,12.19,0,0,0-1.35-.19,8.2,8.2,0,0,1-1.22-.18,7.94,7.94,0,0,0-1.28-.24l-1.95-.25-2-.24a11.63,11.63,0,0,0-1.28-.12,4.38,4.38,0,0,1-.86-.86c-.08-.08-.34-.47-.79-1.16s-.71-1.11-.79-1.28h-.86a15,15,0,0,1-1.64.86,15.12,15.12,0,0,0-1.65.85,1.94,1.94,0,0,1-1.22-1.59,24.64,24.64,0,0,1-.37-2.5,9.83,9.83,0,0,0-.48-2.31,1.51,1.51,0,0,0-1.59-1,.51.51,0,0,0-.37.12A53,53,0,0,1,591,102.42a68.5,68.5,0,0,1-14,11.28,70.49,70.49,0,0,1-16.59,7.38,61.5,61.5,0,0,1-17.69,2.63h-1.22c1.06-.25,1.95-.43,2.68-.55a5.2,5.2,0,0,0,1.71-.55,2,2,0,0,0,.86-1,4.82,4.82,0,0,0,.24-1.71,7.3,7.3,0,0,1-1.1-.18,2.14,2.14,0,0,0-1.1-.06,4.08,4.08,0,0,0-1,.24c-.49.17-1,.33-1.53.49s-1,.33-1.52.49a2.7,2.7,0,0,0-.86.37,8.91,8.91,0,0,1,3.36-2.75,36.85,36.85,0,0,1,4.94-2.07q2.69-.92,5.31-1.71a27.93,27.93,0,0,0,4.33-1.65,5,5,0,0,1,2,.67,18.25,18.25,0,0,1,1.71,1.16,14.79,14.79,0,0,0,1.65,1.1,3.63,3.63,0,0,0,1.83.49,3.54,3.54,0,0,0,3.23-1.65,25.1,25.1,0,0,0,1.77-3.35,4.38,4.38,0,0,0-.86-.86h-.36a1.59,1.59,0,0,0-1.1.43l-1,.85a13,13,0,0,1-1.09.86,2.34,2.34,0,0,1-1.35.42,3.66,3.66,0,0,1-3.29-1.7,60.13,60.13,0,0,1,4.51-4.52c1.55-1.38,3.07-2.78,4.58-4.21s3-2.93,4.33-4.51A28,28,0,0,0,578,92.84a6.34,6.34,0,0,0,2.07-.12,18.05,18.05,0,0,0,2.44-.67,9.24,9.24,0,0,0,2.2-1.1,5.47,5.47,0,0,0,1.46-1.4A9.6,9.6,0,0,0,584,87.29a7.79,7.79,0,0,1-1.47-1.1,3.27,3.27,0,0,1-.79-1.65,26.08,26.08,0,0,1-.37-3.9V76.31q0-3.11.13-6.53c.08-2.27.14-4.43.18-6.46s.06-3.46.06-4.27a27.37,27.37,0,0,0-8.85,1.46q-4.32,1.47-8.66,3.23T555.41,67a29.11,29.11,0,0,1-9.09,1.46h-2.44c-.08-.16-.22-.45-.43-.85a2.4,2.4,0,0,1-.3-.86q-.12,0-.12-.36a.5.5,0,0,1,.12-.37c4-2.2,7.75-4.19,11.28-6a89.1,89.1,0,0,0,10-5.85,65.05,65.05,0,0,0,8.78-7.26A51.46,51.46,0,0,0,581,36.72v2.44a1.7,1.7,0,0,0,1.16-.73,4.07,4.07,0,0,0,.61-1.47,12.2,12.2,0,0,0,.24-1.7q.06-.85.06-1.47a2.12,2.12,0,0,0-.42-1.58,1.91,1.91,0,0,1-.43-1.47c0-1.87-.06-3.8-.19-5.79s-.18-4-.18-6a46.58,46.58,0,0,1,.37-5.92,19.24,19.24,0,0,1,1.58-5.61l3.66-.12q5.13,0,10.07.49c3.29.32,6.57.73,9.82,1.22a1.43,1.43,0,0,1,.85.85v.73a29.32,29.32,0,0,0-3,5.61,30.94,30.94,0,0,0-1.59,5.55c-.37,1.92-.67,3.89-.92,5.92s-.57,4.23-1,6.59a1.82,1.82,0,0,0,1.46,1.52,12.57,12.57,0,0,0,2.2.19,5.29,5.29,0,0,0,3.84-1.83,21.49,21.49,0,0,0,3.29-4.58q1.53-2.74,2.93-5.91c.94-2.12,1.83-4.09,2.69-5.92a26.73,26.73,0,0,1,2.62-4.58,3.65,3.65,0,0,1,2.81-1.83,10.31,10.31,0,0,1,4,1.22,45.74,45.74,0,0,1,5.19,2.93q2.61,1.71,4.88,3.54a17.24,17.24,0,0,1,3.11,3,4.88,4.88,0,0,0-1.28.3c-.61.21-1,.35-1.16.43a.51.51,0,0,0-.12.37,2.5,2.5,0,0,0,1.4,2,4.64,4.64,0,0,0,2.38.92ZM571.7,80.64a34.25,34.25,0,0,1-.68,6.77,19.13,19.13,0,0,1-2.25,6,12.64,12.64,0,0,1-4.21,4.33,12.3,12.3,0,0,1-6.65,1.65,8.9,8.9,0,0,1-6.65-2.56,9.2,9.2,0,0,1-2.5-6.71A8.14,8.14,0,0,1,550,85.4a14.64,14.64,0,0,1,3.11-3.23,35,35,0,0,1,4-2.63A16.28,16.28,0,0,0,561,76.49a6.13,6.13,0,0,0,1.46-2.38q.74-1.77,1.47-3.6a27.29,27.29,0,0,1,1.52-3.23c.53-.93,1.08-1.4,1.65-1.4a3.13,3.13,0,0,1,2.93,2,14.62,14.62,0,0,1,1.34,4.51,36.07,36.07,0,0,1,.37,5Zm-3.42-67.59a2.66,2.66,0,0,1,2.44,1.65,12.81,12.81,0,0,1,1.22,3.78,31,31,0,0,1,.43,4.27c0,1.42.06,2.42.06,3a29.63,29.63,0,0,1-.67,6.16,18.55,18.55,0,0,1-2.2,5.67,12.49,12.49,0,0,1-4,4.15,10.5,10.5,0,0,1-5.86,1.59q-4.51,0-7-2.14t-2.44-7a8.7,8.7,0,0,1,2.19-5.92,39.22,39.22,0,0,1,5.06-4.76c1.92-1.5,3.83-3.07,5.74-4.69a14.88,14.88,0,0,0,4.21-5.74ZM557.79,60.27a8.05,8.05,0,0,0-2.08,1,2.2,2.2,0,0,0-1.22,1.77v.49c.08.33.37.57.86.73q0,.12.36.12c.82,0,1.49-.55,2-1.64a6.64,6.64,0,0,0,.79-2.5Zm0,22.32a1,1,0,0,0-.55-1,2.72,2.72,0,0,0-1.16-.25A1.41,1.41,0,0,0,554.49,83a6.31,6.31,0,0,0,.19,1.64,8.77,8.77,0,0,0,.67,1.65,3.72,3.72,0,0,1,1.34-1.89A2.48,2.48,0,0,0,557.79,82.59Zm6.46-24.76-.85.42a3.91,3.91,0,0,0-.73.43,13.45,13.45,0,0,1,1.16.79,5.82,5.82,0,0,0,1.28.8,3.55,3.55,0,0,0,.85.55,3,3,0,0,0,.73.3.76.76,0,0,0,.86-.85A9.25,9.25,0,0,0,566.33,59l-1.22-1.16Zm15.5,32.57a1.44,1.44,0,0,1-.86.73V90.4a1.47,1.47,0,0,1,.86-.85Zm9,12.93a1.19,1.19,0,0,0-.68-1.1,5.92,5.92,0,0,0-1.52-.55,8.28,8.28,0,0,0-1.71-.18h-1.34a3.14,3.14,0,0,0,1.34,2.44,4.16,4.16,0,0,0,2.56,1.1,1.08,1.08,0,0,0,1-.55A2.4,2.4,0,0,0,588.78,103.33Zm26.35-17.81c.65,0,1-.37,1.1-1.1a17.32,17.32,0,0,0,.12-1.83A3.25,3.25,0,0,0,615.07,80a2.9,2.9,0,0,1-1.28-2.26.49.49,0,0,1,.12-.36q1.83-3.18,4.33-7t4.57-6.77a2.73,2.73,0,0,1,1.59-1,21.78,21.78,0,0,0,2.2-.73,6,6,0,0,0,1.95-1.22,3.09,3.09,0,0,0,.85-2.38.49.49,0,0,0-.12-.36,1.48,1.48,0,0,0-.73-.86,8.58,8.58,0,0,1-3.78.19,17.17,17.17,0,0,1-4.46-1.23,12.28,12.28,0,0,1-3.72-2.43A4.83,4.83,0,0,1,615,49.9a6.56,6.56,0,0,1-3.85-1.35,41.82,41.82,0,0,1-3.6-2.86c-1.14-1-2.19-2-3.17-2.87a4.2,4.2,0,0,0-2.68-1.34,8.41,8.41,0,0,0-2.81,1A37.27,37.27,0,0,0,594.69,45a20.52,20.52,0,0,0-3.53,3c-.94,1-1.25,1.86-.92,2.51l-4,4v1.71c1,.08,1.81.16,2.5.24s1.41.19,2.14.31a11.64,11.64,0,0,0,1.83.18c2.93.08,5.25.23,7,.43a38.68,38.68,0,0,1,4.76.85c1.47.37,2.2.92,2.2,1.65a2.51,2.51,0,0,1-.55,1.65c-.37.45-.75.87-1.16,1.28s-.79.83-1.16,1.28a2.51,2.51,0,0,0-.55,1.65c0,.65.08,1.87.25,3.66a39.55,39.55,0,0,0,.91,5.55,24.58,24.58,0,0,0,1.77,5.12c.73,1.51,1.71,2.26,2.93,2.26a2.43,2.43,0,0,0,1.77-.67,10.52,10.52,0,0,0,1.4-1.89c.16.4.45,1.22.85,2.44s.69,2,.86,2.44q0,.12.3.42l.43.43ZM596.1,31a14.9,14.9,0,0,1,.55-4c.36-1.34.77-2.66,1.22-4s.85-2.59,1.21-3.85a13.56,13.56,0,0,0,.55-3.84,6.51,6.51,0,0,0-2.68.49,6.35,6.35,0,0,1-2.56.49c-.82,0-1.51,0-2.08-.07a4.74,4.74,0,0,1-2.07-.79v3.66a15.4,15.4,0,0,0,.49,4,15.32,15.32,0,0,1,.49,3.9,7.74,7.74,0,0,1-.25,2.08A4,4,0,0,1,589.51,31l8,8.17a10.81,10.81,0,0,1,1-2.2,17.17,17.17,0,0,0,1-1.7,8.82,8.82,0,0,0,.67-1.77,9.77,9.77,0,0,0,.25-2.5Zm3.53,39a15.54,15.54,0,0,0-2,.18,14,14,0,0,0-2.56.61A7.78,7.78,0,0,0,592.8,72a2.11,2.11,0,0,0-1,1.71,2.82,2.82,0,0,0,.61,1.77,6.71,6.71,0,0,0,1.46,1.4,7.34,7.34,0,0,0,1.89,1,5.33,5.33,0,0,0,1.77.37,6.44,6.44,0,0,0,1-.12.71.71,0,0,0,.67-.73,3.31,3.31,0,0,0-.43-.8,3.16,3.16,0,0,1-.43-.79l-.12-1.34a3.87,3.87,0,0,1,.67-2.5A9.77,9.77,0,0,1,601.71,70Zm-7,22.81c.41,0,.61-.28.61-.85s-.2-.86-.61-.86-.61.29-.61.86S592.27,92.84,592.68,92.84Zm4.15-3.29a4.38,4.38,0,0,0-.86-.86h-.48c-.49,0-.82.35-1,1a7.73,7.73,0,0,0-.24,1.65,8.4,8.4,0,0,0,1.58-.19,1.14,1.14,0,0,0,1-1.28ZM600,9.88v2.44a9,9,0,0,0,2.75-.49,1.92,1.92,0,0,0,1.52-1.95Zm4.88,73.2c.41,0,.61-.28.61-.85s-.2-.86-.61-.86-.61.29-.61.86S604.47,83.08,604.88,83.08Zm6.59-45.63a2,2,0,0,0-1.83-1,2,2,0,0,0,1,1.83Zm.73,3.3c.08.4.22,1,.43,1.83a10.71,10.71,0,0,0,.42,1.46l.43.43c.2.2.35.3.43.3a2.81,2.81,0,0,0,2.32-1.46,4.83,4.83,0,0,0,1-2.56,1.33,1.33,0,0,0-1-1.47,8.58,8.58,0,0,0-1.9-.24,5.43,5.43,0,0,0-1.4.18.93.93,0,0,0-.67,1Zm6.59,68.93a9.34,9.34,0,0,0-1.4.12,1.18,1.18,0,0,0-1,.85,5.55,5.55,0,0,0,.91,1.22,2,2,0,0,0,1.53.73Zm5.61-78.33a1.15,1.15,0,0,0,.67,1.16,3.15,3.15,0,0,0,1.28.31,8.19,8.19,0,0,0-.18-1.53,1.4,1.4,0,0,0-.92-1.16,4.33,4.33,0,0,0-.85.86Zm3.29,19.16c.41,0,.61-.27.61-.8s-.2-.79-.61-.79-.61.26-.61.79S627.29,50.51,627.69,50.51Zm13.06,58.19a1,1,0,0,1-.55,1,2.87,2.87,0,0,1-1.16.24c-1.06,0-1.59-.41-1.59-1.22s.53-1.34,1.59-1.34a2.39,2.39,0,0,1,1.16.3A1.11,1.11,0,0,1,640.75,108.7Zm7.32-50.14a3.12,3.12,0,0,0-2-3.3,12.47,12.47,0,0,0-4.21-.73,5.4,5.4,0,0,0-2,.37,3.1,3.1,0,0,0-1.58,1.34,4,4,0,0,1,1.46,1.83,8.27,8.27,0,0,1,.25,2.2,3.39,3.39,0,0,1-.92,2.5,3.21,3.21,0,0,0-.91,2.38c0,.81.24,1.3.73,1.46a6,6,0,0,0,1.83.24,4,4,0,0,0,2.25-.91,12,12,0,0,0,2.38-2.26,18.15,18.15,0,0,0,1.89-2.74A5.12,5.12,0,0,0,648.07,58.56Zm-4.88-34c-.41,0-.61-.28-.61-.85s.2-.86.61-.86.61.29.61.86S643.59,24.52,643.19,24.52Z"/><path class="cls-1" d="M762.75,74.91a5.32,5.32,0,0,1,4.39,2.19,14.36,14.36,0,0,1,2.13,4.45,35.26,35.26,0,0,1,1,4.4c.2,1.34.51,2,.92,2a5.39,5.39,0,0,0,3.66-1.16,6.7,6.7,0,0,0,1.95-2.93,12.75,12.75,0,0,0,.67-3.72,36.41,36.41,0,0,0-.06-3.66,3,3,0,0,1,.85,2.2V81c0,2.84-.85,4.86-2.56,6a11.34,11.34,0,0,1-6.59,1.77A18.88,18.88,0,0,1,762,87.47a33.18,33.18,0,0,1-6.41-3.41,70.21,70.21,0,0,1-5.92-4.52c-1.91-1.62-3.8-3.17-5.67-4.63a1.7,1.7,0,0,0-.73-.13.86.86,0,0,0-.37.06.44.44,0,0,1-.24.07h-.25l-5.73,2.44h-.73a14.14,14.14,0,0,1-1.28-.86,5.73,5.73,0,0,0-1.16-.73.73.73,0,0,0-.49-.12,3,3,0,0,0-1.59.55,9.13,9.13,0,0,0-1.58,1.28,9.53,9.53,0,0,0-1.28,1.58,7.39,7.39,0,0,0-.8,1.59,5,5,0,0,0,2.08,1.71c1,.49,2,1,3,1.46a12.8,12.8,0,0,1,2.68,1.71A3.06,3.06,0,0,1,736.64,88v.73a4.41,4.41,0,0,1-2.32-1A18.79,18.79,0,0,1,732.74,86a11.46,11.46,0,0,0-1.59-1.53,3.7,3.7,0,0,0-2.32-.67,6,6,0,0,0-2.62.79c-1,.53-2.1,1.15-3.23,1.83s-2.28,1.35-3.42,2a10.72,10.72,0,0,1-3.17,1.16,3.46,3.46,0,0,1-.86-.43,3.32,3.32,0,0,0-.85-.43,7.08,7.08,0,0,0-1.46,1.22c-.66.65-1,1.06-1,1.22V105h22.81c1.3,0,2.63-.79,4-2.38a27.65,27.65,0,0,0,3.6-5.55,42.07,42.07,0,0,0,2.56-6.34,18.09,18.09,0,0,0,1-4.76c1.3,0,3,.08,5,.24a55.58,55.58,0,0,1,6.16.86,26.27,26.27,0,0,1,5.73,1.77A7.55,7.55,0,0,1,766.77,92a8.42,8.42,0,0,0-4.14,3.29,8.81,8.81,0,0,0-1.71,5.12q0,.73.06,1.89a1.11,1.11,0,0,0,1.28,1.16,1.59,1.59,0,0,0,1.16-.42,8.7,8.7,0,0,0,.79-.92,6.12,6.12,0,0,1,.86-.91,1.75,1.75,0,0,1,1.22-.43,2.7,2.7,0,0,1,3.05,3,2.23,2.23,0,0,1-.67,1.71,7.52,7.52,0,0,1-1.47,1,8.23,8.23,0,0,0-1.46,1,1.87,1.87,0,0,0-.67,1.53,2.72,2.72,0,0,0,.12.85,9.59,9.59,0,0,1,5.12,1.71,13.12,13.12,0,0,1,3.78,3.9,4.36,4.36,0,0,1-2.44,2,9.49,9.49,0,0,1-3.17.55,9.61,9.61,0,0,1-6.16-1.89,15.22,15.22,0,0,1-3.9-4.63,29.78,29.78,0,0,1-2.5-6q-1-3.3-2-6a22,22,0,0,0-2.32-4.64A4,4,0,0,0,748.11,93v10.37l2.38,2.2A8.36,8.36,0,0,1,752,107.3a6.54,6.54,0,0,1,.79,2,12.8,12.8,0,0,1,.25,2.81,7.67,7.67,0,0,1-1.22,4.21,11.3,11.3,0,0,1-3.11,3.17,15,15,0,0,1-4.21,2,16.13,16.13,0,0,1-4.52.67H705.41q0-4.16,2.07-6.16a12.13,12.13,0,0,1,4.64-2.87,24.08,24.08,0,0,1,4.63-1.1c1.39-.16,2.08-.44,2.08-.85,0-.89-.53-1.34-1.59-1.34a11.51,11.51,0,0,0-3.35.49,11.56,11.56,0,0,1-3.24.48,3.28,3.28,0,0,1-1.89-.54c-.53-.37-1-.76-1.52-1.16s-1-.8-1.53-1.16a3.21,3.21,0,0,0-1.89-.55,3.65,3.65,0,0,0-2.5.91,16.18,16.18,0,0,0-2,2.08c-.61.77-1.24,1.58-1.89,2.44a7.4,7.4,0,0,1-2.32,2,3.75,3.75,0,0,0,1.59,1.59l2,1a4.88,4.88,0,0,1,1.65,1.34,4.66,4.66,0,0,1,.67,2.81,6,6,0,0,1-2.63-.61,11.71,11.71,0,0,1-2.38-1.52,7.49,7.49,0,0,1-1.76-2.14,5,5,0,0,1-.68-2.44V84.67h16.84a5.15,5.15,0,0,0-.31-1.9,4.89,4.89,0,0,1-.3-1.76v-.37a2.07,2.07,0,0,1,.43-.55q.3-.3.42-.3h13.06c1.14-1,2.09-1.81,2.87-2.51L729,75.15c.82-.73,1.51-1.34,2.08-1.83.32-.32.81-.75,1.46-1.28a19.46,19.46,0,0,0,1.89-1.77A16.28,16.28,0,0,0,736,68.2a4.13,4.13,0,0,0,.73-2.32,7,7,0,0,0-.55-2.08,25.68,25.68,0,0,0-1.34-3A13.24,13.24,0,0,0,733,58.13,2.85,2.85,0,0,0,731,57a10,10,0,0,0-1.22.12c-.57.09-.86.33-.86.74V69.17c-.16-.08-.5-.22-1-.42a3.79,3.79,0,0,0-1-.31.71.71,0,0,0-.49-.12c-.24,0-.45.22-.61.67s-.36.93-.61,1.46a6.94,6.94,0,0,1-.91,1.47,1.77,1.77,0,0,1-1.41.67,2,2,0,0,1-1.89-1,11.93,11.93,0,0,1-.91-2.32,15.49,15.49,0,0,0-.86-2.31,1.81,1.81,0,0,0-1.83-1,11.56,11.56,0,0,0-2.86.3,8,8,0,0,0-2.63,1.41V57.83a.58.58,0,0,0-.42-.55,3.9,3.9,0,0,0-.92-.25,12.93,12.93,0,0,0-1.46-.06h-.61a8.06,8.06,0,0,0-1,.06,3.82,3.82,0,0,0-.91.25.58.58,0,0,0-.43.55v8.9a5.53,5.53,0,0,0-3.66-2.68,22.75,22.75,0,0,0-4.76-.49,5.47,5.47,0,0,0,.86,2.26,25,25,0,0,0,2,3.05A18.56,18.56,0,0,0,703,71.49c.81.73,1.46,1.06,1.95,1a2,2,0,0,0,.61-.37c.32-.24.67-.53,1-.85s.71-.61,1-.86a1.85,1.85,0,0,1,.61-.36,3.5,3.5,0,0,1,3,1.7,5.71,5.71,0,0,1,1.16,3.18l-.12,1.58a2.36,2.36,0,0,1-1.1-1.46,15.72,15.72,0,0,1-.49-1.71,3.32,3.32,0,0,0-1-.18l-1-.06a8.25,8.25,0,0,0-3.9,1c-1.31.69-2.65,1.47-4,2.32a40.72,40.72,0,0,1-4.33,2.32,11.72,11.72,0,0,1-4.94,1c-.25,0-.73,0-1.47.06s-1.14-.27-1.22-.92a34.17,34.17,0,0,0-.24-5.79c-.24-1.83-.53-3.6-.85-5.31s-.63-3.42-.92-5.12a33.19,33.19,0,0,1-.43-5.37V57a1.87,1.87,0,0,1,.31-.61c.2-.32.38-.65.55-1s.32-.65.49-1a2.12,2.12,0,0,0,.24-.61v-.37a.35.35,0,0,0-.12-.24,4.77,4.77,0,0,0-3.42,1.28A12.38,12.38,0,0,0,682,57.58a27.12,27.12,0,0,0-1.7,3.91q-.74,2.07-1.35,3.66a3.93,3.93,0,0,1,2,.42,8.58,8.58,0,0,1,1.28.92c.36.32.73.63,1.1.91a2.37,2.37,0,0,0,1.52.43,5,5,0,0,1-1,3L682.23,70h-.86a11.83,11.83,0,0,0-1.64.36,14.72,14.72,0,0,0-1.65.49h-1.59a5.1,5.1,0,0,0-.79-.49,3.33,3.33,0,0,0-.79-.36c-.08,0-.23.1-.43.3a2.31,2.31,0,0,0-.43.55v.37a4.78,4.78,0,0,0,1,2.44c.65,1,1.14,1.66,1.46,2.07l-2.44,4.88c-.08.08,0,.22.19.43a.92.92,0,0,0,.67.3,3.33,3.33,0,0,0,.79-.36,3.14,3.14,0,0,1,.79-.37l1.22-.12a4.33,4.33,0,0,1,1.22.12q-1.09,1.83-2.86,4.33a47.91,47.91,0,0,1-3.91,4.82,23.67,23.67,0,0,1-4.57,3.9,8.91,8.91,0,0,1-4.88,1.59,2.87,2.87,0,0,1-1.16-.24,1,1,0,0,1-.55-1,18,18,0,0,1,1.1-5.37q1.1-3.28,2.5-6.89c.93-2.4,1.85-4.8,2.74-7.2a38,38,0,0,0,1.83-6.16,127.57,127.57,0,0,0,1.59-12.75q.48-6.52.61-13.11t.12-13.06q0-6.46.12-12.32a4.37,4.37,0,0,1,1.22-.12,12.1,12.1,0,0,1,4.58.91c1.5.61,3,1.26,4.51,2s3,1.35,4.52,2a12.35,12.35,0,0,0,4.69.91h32.58V8.17l1.58-1.58c4.15.48,7.55.77,10.19.85s4.84.12,6.59.12a43.06,43.06,0,0,1,4.45.19,12.44,12.44,0,0,1,3.78,1,32.52,32.52,0,0,1,4.64,2.63q2.68,1.75,6.95,4.94a.37.37,0,0,0,.25.12h.61a1.38,1.38,0,0,0,1.22-.55c.24-.37.49-.75.73-1.16a11.82,11.82,0,0,1,.79-1.16,1.7,1.7,0,0,1,1.41-.55h.73L775,20.37v.86a3.6,3.6,0,0,0-1.22-.74,6,6,0,0,0-1.34-.12,2.52,2.52,0,0,0-2.2,1q-.74,1-1.71,2.19a8,8,0,0,1-2.74,2,10.67,10.67,0,0,1-5.43.49l-.86.85h17.08c.17,0,.35-.22.55-.67a2.67,2.67,0,0,0,.31-1,3,3,0,0,0-.43-.79,3.35,3.35,0,0,1-.43-.79v-.86A2.31,2.31,0,0,1,778,24a5.52,5.52,0,0,1,.24,1.71,5.91,5.91,0,0,1-.24,1.59c-.17.57-.65.85-1.47.85h-19a3.34,3.34,0,0,0,2.44,3.35,34.24,34.24,0,0,0,5.61,1.53c2.12.41,4.23.87,6.35,1.4a7.47,7.47,0,0,1,4.63,3,2.08,2.08,0,0,1-.85.12,5.36,5.36,0,0,1-3-.91,5.39,5.39,0,0,0-3-.92,4.52,4.52,0,0,0-2.13.49,4.45,4.45,0,0,1-2.14.49,2.82,2.82,0,0,1-2.19-.92q-.86-.91-1.77-1.95a17.8,17.8,0,0,0-2-2,4.21,4.21,0,0,0-2.8-.91h-.49a4.47,4.47,0,0,1,.06,1.4c0,.69-.12,1.44-.24,2.26s-.23,1.58-.31,2.31a5.71,5.71,0,0,1-.24,1.35,5.91,5.91,0,0,0-.49.61l-.79,1-.8,1a1.85,1.85,0,0,0-.36.61c-.08,0-.12.12-.12.37,0,.57.36,1.05,1.09,1.46a4,4,0,0,0,1.83.61,10.87,10.87,0,0,0,3.36-.49A19.33,19.33,0,0,0,762,42.39a27.11,27.11,0,0,1,2.68-1.16,8.62,8.62,0,0,1,2.93-.48,7.72,7.72,0,0,1,3.17.85,30.16,30.16,0,0,1-2.87,4.51c-1.42,2-2.86,4-4.33,6.23a69.38,69.38,0,0,0-3.78,6.34c-1.06,2-1.46,3.66-1.22,4.88L757,62.71v1.58c.08.33.33,1,.74,2.08s.69,1.75.85,2.07h.85a5.75,5.75,0,0,0,1-.92,2.69,2.69,0,0,0,.61-.79,3,3,0,0,0-.61-1.28,4.56,4.56,0,0,0-1-1.16h.86a20.47,20.47,0,0,0,2,1.65,20.47,20.47,0,0,1,2,1.65l-.85.42a3.91,3.91,0,0,0-.73.43,2.58,2.58,0,0,0-.61.37,1.39,1.39,0,0,0-.25.36ZM688.69,102.6a17.73,17.73,0,0,1-1.09,6.16,16.3,16.3,0,0,1-3.12,5.25,16.56,16.56,0,0,1-4.69,3.66,12.77,12.77,0,0,1-6,1.4c-.33,0-.87,0-1.65-.12s-1.24-.12-1.4-.12L670,118a4.45,4.45,0,0,0,1.22.19c.65,0,1.32.06,2,.06s1.36,0,2-.06a4.45,4.45,0,0,0,1.22-.19,2.39,2.39,0,0,0,1-.3c.41-.21.61-.35.61-.43v-8.17h-.73a10.33,10.33,0,0,1-4,5.3,10.7,10.7,0,0,1-6.28,2,1.69,1.69,0,0,1-1.52-.92,7.48,7.48,0,0,1-.86-2.2,19.3,19.3,0,0,1-.43-2.44c-.08-.77-.12-1.36-.12-1.76a8.68,8.68,0,0,1,2.32-5.92A47.61,47.61,0,0,1,671.92,98c2.07-1.7,4.17-3.53,6.28-5.49a18.62,18.62,0,0,0,4.76-7,1.17,1.17,0,0,1,.61-.18l.61-.06a2.59,2.59,0,0,1,2.32,1.58,15.13,15.13,0,0,1,1.34,3.66,30.28,30.28,0,0,1,.67,4.09c.12,1.34.18,2.3.18,2.87a2.9,2.9,0,0,1-.3,1.4,9.24,9.24,0,0,1-.67,1,7.91,7.91,0,0,0-.67,1,3.12,3.12,0,0,0-.31,1.53.11.11,0,0,0,.12.12h.25l1.58-.85ZM670.88,83.81c0-1-.45-1.58-1.34-1.58s-1.26.48-1.34,1.46-.12,1.67-.12,2.07a5.87,5.87,0,0,0,1.95-.3C670.6,85.26,670.88,84.71,670.88,83.81Zm4.76,17.94h-3.42a2.37,2.37,0,0,0,1.16,2,4,4,0,0,0,2.26.79Zm8.17-60.27c0-1.06-.4-1.59-1.22-1.59a6.89,6.89,0,0,0-1.76.61c-.94.41-1.94.86-3,1.34l-3.11,1.41a11.18,11.18,0,0,1-2.26.79l-.12,2v1.53c0,.77.28,1.24.85,1.4.24,0,.73,0,1.46.12s1.22.12,1.47.12A7.6,7.6,0,0,0,681.5,47,7.28,7.28,0,0,0,683.81,41.48Zm0-15.74a4,4,0,0,0-1.52-3.6,6.49,6.49,0,0,0-3.72-1,28.83,28.83,0,0,0-2.93.19,3,3,0,0,0-2.44,1.52A4.84,4.84,0,0,0,675.09,25a9.9,9.9,0,0,0,2.68,1.16,25.79,25.79,0,0,0,2.81.55L683,27a2,2,0,0,0,.85-.85Zm-2.19,73.57a1.82,1.82,0,0,0-1.1-1.59v1.59Zm8.66-70.76-.73.85h2c.89,0,1.67,0,2.32-.06a5,5,0,0,0,2.19-.79Zm21.23,3.29c-.08,0-.84.14-2.26.43l-5.12,1q-3,.62-6.16,1.35t-5.25,1.22a17.35,17.35,0,0,1-2,.48c-.82.17-1.22.29-1.22.37v.73H709.8a3.52,3.52,0,0,0,.91-.61,12.41,12.41,0,0,0,1.59-1.46,23.14,23.14,0,0,0,1.53-1.83,4.22,4.22,0,0,0,.85-1.71ZM709.07,88a5.49,5.49,0,0,0-2.63-.92c-.85,0-1.76-.06-2.74-.06l-2.81.13a2.84,2.84,0,0,1-1.34,2.07,11.49,11.49,0,0,1-2,.79,7.66,7.66,0,0,0-1.83.8c-.53.32-.79,1-.79,2.07a9.15,9.15,0,0,0,3.9-.79,31.39,31.39,0,0,0,3.29-1.77,28,28,0,0,1,3.24-1.71A7.85,7.85,0,0,1,709.07,88Zm-12.2-32.57A2.59,2.59,0,0,0,695.53,57a6.74,6.74,0,0,0-.37,2v.36a2.06,2.06,0,0,0,.85.86l.86-4Zm22-18.91a6.22,6.22,0,0,0-.37-2.14,3.75,3.75,0,0,0-1.34-1.77,6.88,6.88,0,0,1-1.16,3.3,13,13,0,0,1-2.56,2.86A13.56,13.56,0,0,1,710,40.81a8.6,8.6,0,0,1-3.41.79,5.75,5.75,0,0,1-2.5-.49,5.93,5.93,0,0,0-2.5-.49l-1.28.06c-.7,0-1,.35-1,.92a6.17,6.17,0,0,0,.3,1.22A10.28,10.28,0,0,0,700,44c-.16,0-.47,0-.92.06a5.09,5.09,0,0,0-1.34.31,5.35,5.35,0,0,0-1.22.61,1.13,1.13,0,0,0-.55,1v.49l3.24,1.71c.93.49,1.85.91,2.74,1.28a16,16,0,0,0,2.87.85,16.6,16.6,0,0,0,3.35.31,15.73,15.73,0,0,0,2.38-.19,8.63,8.63,0,0,0,2.38-.67,4.77,4.77,0,0,0,1.83-1.4,3.68,3.68,0,0,0,.73-2.38,1.15,1.15,0,0,0-1-1.22,3.08,3.08,0,0,1-1.47-.73.71.71,0,0,1-.12-.49.49.49,0,0,1,.12-.36l5.74-5.74ZM700,51.36v.73l1.71-.73Zm1.71,52.83c.4,0,.61-.27.61-.8s-.21-.79-.61-.79-.61.26-.61.79S701.34,104.19,701.75,104.19Zm4.88-78.33a2.06,2.06,0,0,0-1.53.73,11.6,11.6,0,0,0-.91,1.1h2.44ZM709.8,53h-1.59a1.82,1.82,0,0,0,1.59,1ZM714,77.35a.44.44,0,0,1-.86,0c-.08-.25,0-.37.37-.37S714,77.1,714,77.35Zm0,11.34c.4,0,.61-.26.61-.79s-.21-.79-.61-.79-.61.26-.61.79S713.54,88.69,714,88.69Zm4-6.46v.85l.86-.85Zm0,8.17a14.66,14.66,0,0,0,4.46.24,8,8,0,0,0,2.25-.67c.57-.28,1.16-.59,1.77-.91a6.68,6.68,0,0,1,3-.49,4.18,4.18,0,0,1,2.44.67c.65.45,1.3.92,2,1.4s1.33,1,2,1.41a4.7,4.7,0,0,0,2.62.67,8.43,8.43,0,0,1-2.81,6.71,10.2,10.2,0,0,1-6.95,2.44h-2.5a3.15,3.15,0,0,1-2.5-1,19.26,19.26,0,0,1-1.1-1.71c-.49-.81-1-1.7-1.46-2.68s-1-1.89-1.41-2.75-.75-1.44-.91-1.76ZM730.3,51q0-4-1.47-4.88c-1-.56-2.76-.85-5.37-.85a4.87,4.87,0,0,0,2.26,4.15A7.88,7.88,0,0,0,730.3,51Zm-4.15-25.74h-.86v.86h.86Zm30,1.71a3.91,3.91,0,0,1-1.46-1.89,8.55,8.55,0,0,1-.25-2.26A3.47,3.47,0,0,1,756,19.7a19.28,19.28,0,0,1,3.41-1.77.49.49,0,0,0,.13-.36,2,2,0,0,0-.86-1.47,15.27,15.27,0,0,0-2-1.4,21.09,21.09,0,0,0-2-1.1,5.68,5.68,0,0,1-1-.55c-.41.17-.75.9-1,2.2a23,23,0,0,1-1.4,4.21,12.29,12.29,0,0,1-2.93,4.08A7.54,7.54,0,0,1,743,25.37a1.64,1.64,0,0,1-1.15-.3,2.91,2.91,0,0,1-.49-.61c-.13-.2-.27-.41-.43-.61a1,1,0,0,0-.85-.31,4.08,4.08,0,0,0-2.57,1l1.59.73c-.9.9-1.91,1.81-3.05,2.75a5.85,5.85,0,0,1-3.78,1.4,4.08,4.08,0,0,1-2.08-.49,4.17,4.17,0,0,0-2.07-.49,5.68,5.68,0,0,0-1.34.19c-.49.12-.73.51-.73,1.16a3.24,3.24,0,0,0,.73,2.19,5.72,5.72,0,0,0,1.83,1.4,7.49,7.49,0,0,0,2.32.74,15.79,15.79,0,0,0,2.31.18,2.27,2.27,0,0,0,1.47-.49,6.1,6.1,0,0,0,1.1-1.16,7.81,7.81,0,0,1,1-1.16,2.08,2.08,0,0,1,1.41-.48h.85a5.38,5.38,0,0,1,1.28.42,7.12,7.12,0,0,0,1.16.43.94.94,0,0,0,1-.73,15.39,15.39,0,0,0,.3-1.65,6,6,0,0,1,.49-1.71,1.44,1.44,0,0,1,1.46-.79Zm-26,26.6a9.56,9.56,0,0,0-1.4.12,1.2,1.2,0,0,0-1,.85h2.44Zm5,55a.52.52,0,0,0-.13-.37,7.4,7.4,0,0,1-1-.3c-.61-.21-1.08-.35-1.41-.43a.69.69,0,0,0-.48-.12.5.5,0,0,0-.37.12c-.73.57-1.34,1-1.83,1.4a2.07,2.07,0,0,0-.73,1.77,2.17,2.17,0,0,0,.12.86,25.51,25.51,0,0,0,2.93-.86,10.24,10.24,0,0,0,2-.91C734.87,109.37,735.18,109,735.18,108.58Zm-1.47-90.4c0-.17,0-.47-.06-.92s-.1-.91-.18-1.4a4.68,4.68,0,0,0-.43-1.34,1.29,1.29,0,0,0-.79-.74.7.7,0,0,0-.49.13c-.33.08-.57.36-.73.85-.08,0-.12.12-.12.37a3.22,3.22,0,0,0,.79,2.07A2.49,2.49,0,0,0,733.71,18.18Zm-2,6.34q1.95-.24,2-1.83a3,3,0,0,0-1.28.31,1,1,0,0,0-.67,1Zm12-9.76a19.43,19.43,0,0,1-.19,2.14,14,14,0,0,0,0,3.17,8.5,8.5,0,0,0,.8,2.86,2.31,2.31,0,0,0,2.31,1.22q0-.48-.06-2c0-1-.1-2.07-.18-3.17s-.18-2.07-.3-2.93-.27-1.28-.43-1.28ZM744,69.17c.24-.08.37-.32.37-.73a1,1,0,0,0-.37-.85c-.24-.17-.37.1-.37.79S743.72,69.34,744,69.17Zm.85-40.62c-.48,0-.75.2-.79.61s-.06.73-.06,1a31.06,31.06,0,0,0,.31,3.42,44.8,44.8,0,0,0,.91,5,23.54,23.54,0,0,0,1.53,4.51c.6,1.31,1.32,2,2.13,2s1.42-.72,2.07-2.14A41.3,41.3,0,0,0,752.74,38a49.29,49.29,0,0,0,1.35-5.31,24,24,0,0,0,.48-3.29.75.75,0,0,0-.85-.85ZM753.72,73c-.24,0-.69,0-1.34-.06a15.86,15.86,0,0,0-2,0,4.27,4.27,0,0,0-1.77.49,1.59,1.59,0,0,0-.8,1.53h5.86Zm-3.17,36.12a.44.44,0,0,0,0-.86c-.25,0-.37.17-.37.49S750.3,109.15,750.55,109.07Zm17.81-16.23a.37.37,0,1,1-.73,0c-.08-.24,0-.37.36-.37S768.44,92.6,768.36,92.84Zm.85,1.59c-.4,0-.61-.27-.61-.8s.21-.79.61-.79.61.26.61.79S769.62,94.43,769.21,94.43Zm.86-30.87c-.41,0-.61-.28-.61-.85s.2-.86.61-.86.61.29.61.86S770.47,63.56,770.07,63.56Zm0,30.87a.49.49,0,0,1,.36-.13c.25,0,.37,0,.37.13a29.48,29.48,0,0,1,3.29,3.29c.08,0,.13.12.13.37a.49.49,0,0,1-.13.36Zm.73-32.58c-.41,0-.61-.26-.61-.79s.2-.79.61-.79.61.26.61.79S771.21,61.85,770.8,61.85Zm.85-1.58c-.4,0-.61-.27-.61-.8s.21-.79.61-.79.61.26.61.79S772.06,60.27,771.65,60.27Zm.86-1.59c-.41,0-.61-.28-.61-.85s.2-.86.61-.86.61.29.61.86S772.91,58.68,772.51,58.68Zm.73-1.71c-.41,0-.61-.26-.61-.79s.2-.79.61-.79.61.26.61.79S773.65,57,773.24,57ZM775,73.32a1,1,0,0,1-.86-1V71a25.7,25.7,0,0,1,.13-2.87,14.51,14.51,0,0,1,.73-3Zm0,26.84c-.41,0-.61-.28-.61-.85s.2-.86.61-.86.61.29.61.86S775.35,100.16,775,100.16Zm.36-45.63a1.08,1.08,0,0,1,1,.55,2.4,2.4,0,0,1,.31,1.16,1.67,1.67,0,0,1-.13.73L775,54.53Zm.37-31.72c-.41,0-.61-.26-.61-.79s.2-.79.61-.79.61.26.61.79S776.09,22.81,775.68,22.81Zm0,52.1c-.24.08-.37,0-.37-.37s.13-.49.37-.49a.43.43,0,0,1,0,.86Zm0,26c-.24.08-.37,0-.37-.36s.13-.45.37-.37a.37.37,0,1,1,0,.73Zm.85-24.4c-.4,0-.61-.26-.61-.79s.21-.79.61-.79.61.26.61.79S776.94,76.49,776.53,76.49Zm0,26.84c-.4,0-.61-.26-.61-.79s.21-.79.61-.79.61.26.61.79S776.94,103.33,776.53,103.33Z"/><path class="cls-1" d="M901,102.6a13.23,13.23,0,0,1-4.45,3.66,13.47,13.47,0,0,0-4.45,3.66,11.11,11.11,0,0,0-1.22,2.32l-1.53,3.54a25.22,25.22,0,0,1-1.7,3.29c-.62,1-1.16,1.46-1.65,1.46a13.6,13.6,0,0,1-6.59-1.89,38.49,38.49,0,0,1-6.77-4.82q-3.36-2.92-6.47-6.22t-5.79-6.22q-2.69-2.92-4.7-4.82c-1.34-1.26-2.38-1.89-3.11-1.89v24.16a2,2,0,0,1-.85,1.52,10.71,10.71,0,0,1-2,1.22,11.17,11.17,0,0,1-2.25.85c-.78.21-1.37.35-1.77.43a9.19,9.19,0,0,0-.49-3c-.32-.93-.67-1.85-1-2.74s-.73-1.79-1.1-2.69a9.74,9.74,0,0,1-.67-2.92h-.36c-1.3,0-2.14.36-2.5,1.09a5.65,5.65,0,0,0-.55,2.57,4.53,4.53,0,0,0,.61,2.44,18.2,18.2,0,0,0,1.4,2,15.46,15.46,0,0,1,1.4,2,4.83,4.83,0,0,1,.61,2.5,20,20,0,0,1-2.56-.12,10,10,0,0,1-1.46-.3c-.41-.13-.84-.25-1.28-.37a7.08,7.08,0,0,0-1.77-.18v1.7l-3.3-.24a2.29,2.29,0,0,1-.54-.43c-.21-.2-.31-.34-.31-.42V110.16c1.3,0,2.05-.3,2.26-.91a8.82,8.82,0,0,0,.3-2.62v-2.14a2.37,2.37,0,0,0-.85-1.89l-1.71.73c.08-.73,0-1.2-.37-1.4a2.27,2.27,0,0,0-1.22-.31,6.34,6.34,0,0,0-3.72,1.16,6.44,6.44,0,0,1-3.84,1.16c0,.9-.77,1.94-2.32,3.11a45.51,45.51,0,0,1-5.92,3.72q-3.6,2-8,3.85t-8.6,3.35q-4.2,1.47-7.62,2.38a22.05,22.05,0,0,1-5.13.92c-.65,0-1-.25-1.15-.74a5.57,5.57,0,0,1-.19-1.46c0-.49.83-1.36,2.5-2.62s3.76-2.77,6.29-4.52,5.22-3.74,8.11-6,5.59-4.56,8.11-7A43.33,43.33,0,0,0,815,91.62a13.36,13.36,0,0,0,2.5-7.32h-21a4.88,4.88,0,0,0-.73-2.56,2.41,2.41,0,0,0-2.2-1.22c-1,0-1.54.34-1.7,1a9.54,9.54,0,0,0-.25,2.26h-5.37q-.12,0-.42-.3l-.43-.43-.24-4.51h45.87V68.44c0-.08-.1-.22-.31-.43a2.06,2.06,0,0,0-.55-.42h-.85l-9.76,4H818a3.6,3.6,0,0,0,1.16-1.22,3,3,0,0,0,.55-1.58.5.5,0,0,0-.12-.37,2.43,2.43,0,0,1-1.53.79c-.52,0-1.07.06-1.64.06l-1.71-.12.85-3.17a4.15,4.15,0,0,0,.74.43,2.37,2.37,0,0,0,.85.3,7.22,7.22,0,0,0,4.45-2,28.88,28.88,0,0,0,4.64-4.94,55.68,55.68,0,0,0,4.33-6.77q2.07-3.78,3.66-7.38a57.7,57.7,0,0,0,2.5-6.65,17.88,17.88,0,0,0,.92-4.76l-.13-2.44a.75.75,0,0,0-.85-.85H822.9q-1.23,0-3.18,2.92a55.25,55.25,0,0,0-3.78,6.77,76.59,76.59,0,0,0-3.17,7.69,19.38,19.38,0,0,0-1.34,5.8l.12,2.07A7.12,7.12,0,0,0,812,57.4c.28.69.38,1.12.3,1.28a2.29,2.29,0,0,1-1,1.1c-.57.41-1.18.83-1.83,1.28a16.38,16.38,0,0,0-1.82,1.46,2.63,2.63,0,0,0-.62,3.42c.33.69.7,1.4,1.1,2.13A20.15,20.15,0,0,0,809.29,70a3.93,3.93,0,0,1,.55.92,2.66,2.66,0,0,0,.31.49,2.8,2.8,0,0,1,.3.49,5.56,5.56,0,0,0,.24.61,1.43,1.43,0,0,1-.91,1.22,7.84,7.84,0,0,1-2.13.73c-.82.16-1.59.28-2.32.36a14.69,14.69,0,0,1-1.59.13,15.26,15.26,0,0,1-2.87-.37,15,15,0,0,1-3.35-1.1,9.41,9.41,0,0,1-2.75-1.89,3.76,3.76,0,0,1-1.16-2.74v-.37a11.44,11.44,0,0,1,.13-1.34c.08-.65.16-1.32.24-2s.16-1.34.24-1.95a7.89,7.89,0,0,1,.25-1.28A2.76,2.76,0,0,1,795.75,64a17.09,17.09,0,0,1,.3,2h.86a2.1,2.1,0,0,0,1.83-.85,3.26,3.26,0,0,0,.61-2,7.16,7.16,0,0,0-.19-1.28,15.43,15.43,0,0,0-.48-1.83,13.58,13.58,0,0,0-.67-1.64c-.25-.49-.49-.74-.74-.74a.49.49,0,0,0-.36.13A10.2,10.2,0,0,0,795.63,59a9.53,9.53,0,0,0-1.16,1.28,6,6,0,0,0-1.71-2.63c-.9-.85-1.81-1.64-2.75-2.38l-2.56-2c-.77-.61-1.16-1.12-1.16-1.52v-.37a1.47,1.47,0,0,1,.86-.85,33.42,33.42,0,0,0,4.88-.68,25.18,25.18,0,0,0,5.18-1.64,15.75,15.75,0,0,0,4.46-2.93,8.69,8.69,0,0,0,2.56-4.51h-9c-.73,0-1.67-.75-2.8-2.26a40.94,40.94,0,0,1-3.3-5.13,51.68,51.68,0,0,1-2.68-5.55,12.67,12.67,0,0,1-1.1-3.41,1.25,1.25,0,0,1,.79-1.22,5.77,5.77,0,0,1,1.77-.49,7.47,7.47,0,0,1,1.89,0,11.63,11.63,0,0,0,1.28.12,25.86,25.86,0,0,1,6.65.86,25.45,25.45,0,0,0,6.53.85H805a24,24,0,0,0-3.6-7.14,40.31,40.31,0,0,0-5.31-5.91,2.17,2.17,0,0,1-.12-.86q0-1.21,1.47-1.71a15.23,15.23,0,0,1,3.23-.67A24.13,24.13,0,0,1,804,8.11l1.83.06c1.3,0,2.81.08,4.52.25a16.67,16.67,0,0,1,4.82,1.16,10,10,0,0,1,3.78,2.62,6.5,6.5,0,0,1,1.52,4.51,8.75,8.75,0,0,1-1.22,4.76A9.08,9.08,0,0,1,816,24.58a12.77,12.77,0,0,1-4.45,1.53,16.63,16.63,0,0,1-4.88,0,10.76,10.76,0,0,1,1.83,4.27,33.5,33.5,0,0,1,.61,4.63.49.49,0,0,0,.36.12c.25,0,.37,0,.37-.12s.22-.1.43-.3l.42-.43c.25-.32.88-1.1,1.89-2.32s2.12-2.52,3.3-3.9,2.3-2.66,3.35-3.85a21.17,21.17,0,0,1,2.08-2.13,9.58,9.58,0,0,1,1.46-1.65q1-.91,1.89-1.83l2.26-2.25h2.93a5.75,5.75,0,0,1-.43,2.25c-.28.69-.59,1.37-.91,2s-.63,1.32-.92,2a5.63,5.63,0,0,0-.43,2.13,74.92,74.92,0,0,1,9.22.61,71,71,0,0,0,9,.61,3.44,3.44,0,0,0-2.19-3.17,21.46,21.46,0,0,0-4-1.58c0-.41,0-1.16-.12-2.26s-.17-2.26-.25-3.48-.16-2.36-.24-3.41-.12-1.79-.12-2.2v-1a5.3,5.3,0,0,1,.06-.85c0-.24.26-.45.67-.61l3.66-.12c.57,0,2,.06,4.21.18s4.57.27,7,.43,4.64.34,6.59.55,2.93.38,2.93.55v2.44l-4.14,4a4.43,4.43,0,0,1-1-1.28c-.36-.61-.73-1.26-1.09-2a14.87,14.87,0,0,0-1.1-1.77,1.58,1.58,0,0,0-1.28-.73c-.73,0-1.12.32-1.16,1s-.06,1.22-.06,1.71a4.22,4.22,0,0,0,1.65,3.42A5.73,5.73,0,0,0,859,17.2v7.32h3.68c.16-.24.54-.75,1.16-1.52s1.35-1.61,2.21-2.51a19.32,19.32,0,0,1,2.75-2.38,5,5,0,0,1,2.83-1,2.72,2.72,0,0,1,.85.12q3.32,2.44,7.18,5.25a38.08,38.08,0,0,1,6.66,6.1L883,31.84V47.21c0,.57.41.88,1.22.92l1.46.06a4.72,4.72,0,0,0,2.63-.61,7.46,7.46,0,0,0,2-2.81,10.75,10.75,0,0,1,3.78,4.64,15.69,15.69,0,0,1,1.1,6,11,11,0,0,1-.37,1.64,12.14,12.14,0,0,0-.36,1.65,3.65,3.65,0,0,0-.19,1q-.06.8-.06,1.77t.06,1.83a2.32,2.32,0,0,0,.19,1,17.68,17.68,0,0,1-7.26,1.65q-3.84.06-7.5.06h-3.91a25.72,25.72,0,0,1-5.24-.55A12.49,12.49,0,0,1,866,63.56a4.69,4.69,0,0,1-2-4.15V31.84c0-.08-.17-.22-.49-.43s-.57-.34-.73-.42l-1.71-.86h-.37q-1.83,0-3.47,2.81a47,47,0,0,0-3.11,6.46q-1.47,3.66-2.93,7.32a17.9,17.9,0,0,1-3.05,5.37c-.41.49-1.14,1.28-2.2,2.38s-2.19,2.26-3.41,3.48-2.38,2.36-3.48,3.41-1.89,1.79-2.38,2.2c.16.41,1.14.77,2.93,1.1s3.8.63,6,.91,4.39.53,6.46.73,3.44.35,4.09.43a2.79,2.79,0,0,1,.12.86,3.18,3.18,0,0,1-.67,2.13,11.84,11.84,0,0,1-1.46,1.46,12.75,12.75,0,0,0-1.47,1.47,3,3,0,0,0-.67,2v.67a6.88,6.88,0,0,0,.12,1.22,6.63,6.63,0,0,0,.31,1.16c.12.33.3.49.55.49h20.25a3.46,3.46,0,0,0,2.13-1.34,34.28,34.28,0,0,0,2.57-3l2.44-3.3a9.1,9.1,0,0,1,1.89-2.07q0-.12.36-.12a5.36,5.36,0,0,1,2.08.79c1,.53,2.09,1.2,3.35,2s2.55,1.73,3.85,2.75,2.5,2,3.6,3a35,35,0,0,1,2.74,2.81,3.66,3.66,0,0,1,1.1,2v.49a4.08,4.08,0,0,1-.86.85,4.66,4.66,0,0,0-1.83-2.93,5.81,5.81,0,0,0-3.05-.73v4.39H870.11a3.64,3.64,0,0,1,1.95-1.28c.89-.28,1.81-.53,2.75-.73s1.74-.41,2.43-.61,1-.55,1-1a.94.94,0,0,0-.73-1,6.14,6.14,0,0,0-1.46-.18,6,6,0,0,0-1.53.18,2.51,2.51,0,0,0-1.28,1H853.64l-.73,1.22a4.4,4.4,0,0,0,1.89,1,18.2,18.2,0,0,0,2.13.36c.73.09,1.45.19,2.14.31a4.67,4.67,0,0,1,1.91.79l-1.48.73a1.51,1.51,0,0,0-1,1.35c0,1,.88,2.13,2.63,3.23a37.46,37.46,0,0,0,6.73,3.17c2.73,1,5.75,2,9,2.93s6.47,1.79,9.49,2.56,5.71,1.42,8.07,2,4,.92,4.9,1.16a5.19,5.19,0,0,0-3.48,1.71,19.8,19.8,0,0,0-2.26,3.17.51.51,0,0,0,.37.12,7.06,7.06,0,0,0,1.59-.3,10.76,10.76,0,0,0,2.13-.85,7.48,7.48,0,0,0,1.77-1.29,1.94,1.94,0,0,0,.61-1.7ZM793.61,118a6.9,6.9,0,0,0-1-1.77,2,2,0,0,0-1.71-.79,5.35,5.35,0,0,0,.3,1.89c.21.53.72.79,1.53.79A2.08,2.08,0,0,0,793.61,118Zm4-5.61c.41,0,.61-.29.61-.85s-.2-.86-.61-.86-.61.29-.61.86S797.23,112.36,797.64,112.36Zm.85.73c.17.73.33,1.41.49,2s.65.92,1.47.92c0-1.87-.66-3.09-2-3.66ZM815.7,12.32a1.91,1.91,0,0,0-.55-1.4,3.31,3.31,0,0,0-1.34-.8,7.51,7.51,0,0,0-1.65-.3q-.85-.06-1.47-.06a11.27,11.27,0,0,0-2.5.24c-.69.17-1,.82-1,1.95H809q1.1,0,2.31.06a16.64,16.64,0,0,1,2.38.31,5.33,5.33,0,0,1,1.89.73A1.67,1.67,0,0,0,815.7,12.32Zm-4.15,88.57a4.25,4.25,0,0,0-.8.12l-1.21.31a6.47,6.47,0,0,0-1.29.49,1.83,1.83,0,0,0-.85.79,1,1,0,0,0,.91.79c.45,0,.84.06,1.16.06a3.25,3.25,0,0,0,1.53-.3c.37-.2.55-.67.55-1.4ZM814,72.47v-.86l2.44.86Zm9-44.78a1.72,1.72,0,0,0-.12-.73,2.81,2.81,0,0,0-1.71,2.44,1.69,1.69,0,0,0,.12.73A2.82,2.82,0,0,0,823,27.69Zm.73-5.61v2.44a1.23,1.23,0,0,0,.85-1.1,10.17,10.17,0,0,0,.12-1.34Zm17.93,48.68c0-.49-.36-1-1.1-1.47a21.23,21.23,0,0,0-2.5-1.4,20.28,20.28,0,0,0-2.8-1.1,8.2,8.2,0,0,0-2-.42,4.39,4.39,0,0,0,.61,1.76c.41.78.88,1.57,1.41,2.38a12.57,12.57,0,0,0,1.64,2.08c.57.57,1,.85,1.35.85a5,5,0,0,0,2.31-.55A2.13,2.13,0,0,0,841.68,70.76Zm-3.29,20.37a3.74,3.74,0,0,0-.8-.42,2.67,2.67,0,0,0-.91-.31c-.08,0-.22.1-.43.31s-.3.34-.3.42ZM848.79,88a13.5,13.5,0,0,0,.48-1.65,11.83,11.83,0,0,0,.36-1.64c0-.08-.22-.33-.66-.74s-.73-.69-.89-.85a.69.69,0,0,0-.48-.12.49.49,0,0,0-.36.12,16,16,0,0,1-2.36,6.1q-1.51,2.07-5.76,2.81c.4.4.88.93,1.45,1.58a19.56,19.56,0,0,0,1.87,1.89,13.71,13.71,0,0,0,2.17,1.59,4.4,4.4,0,0,0,2.23.67,5.92,5.92,0,0,0,2.36-.55,1.93,1.93,0,0,0,1.27-1.89,5.64,5.64,0,0,0-.84-3,5.61,5.61,0,0,1-.84-3Zm-.64-37.45c.4,0,.61-.27.61-.8s-.21-.79-.61-.79-.61.26-.61.79S847.74,50.51,848.15,50.51Zm30-26a1.88,1.88,0,0,0-.55-1.77A11.22,11.22,0,0,0,875.72,21a17,17,0,0,0-2.32-1.4l-1.71-.85-2.44,1.58a3.08,3.08,0,0,0-1.7,2.56,3.31,3.31,0,0,0,.73,2.14,6,6,0,0,0,1.83,1.52,9.13,9.13,0,0,0,2.32.92,9.23,9.23,0,0,0,2.19.3,2.11,2.11,0,0,0,1-.36,6.5,6.5,0,0,0,1.16-.92,10.77,10.77,0,0,0,1-1.1A1.59,1.59,0,0,0,878.16,24.52ZM876.57,57H875a1.64,1.64,0,0,0,1.58,1.1Zm19.16-18.42c-1.14,0-1.85.18-2.14.55a25.56,25.56,0,0,0-1.52,2.5.71.71,0,0,1-.12-.49,6.37,6.37,0,0,1,.85-2.86,2.66,2.66,0,0,1,2.44-1.65,2.08,2.08,0,0,1,.85.12,22.48,22.48,0,0,0,1,4.94c.53,1.59,1.08,3.15,1.65,4.7s1.08,3.07,1.52,4.57a15.52,15.52,0,0,1,.67,4.46,15.82,15.82,0,0,1-.48,3.6,4.29,4.29,0,0,1-2,2.86v-.36a10,10,0,0,1,.43-3,10.82,10.82,0,0,0,.43-3.11,12.61,12.61,0,0,0-.43-3.66c-.29-.9-1.36-1.83-3.23-2.81Z"/><path class="cls-1" d="M1001.87,36.72a4.62,4.62,0,0,0,4,2.5,60,60,0,0,0,6.23.31c2.23,0,4.37.1,6.4.3a5.78,5.78,0,0,1,4.51,2.5.76.76,0,0,1-.85.86,32.69,32.69,0,0,1-6.77-.74,34.57,34.57,0,0,0-7-.73v.86c.57,0,1.29,0,2.14.06a8.26,8.26,0,0,1,2.44.48,5,5,0,0,1,2,1.29,3.45,3.45,0,0,1,.79,2.44v.36l-1.09,2.56-1.47,3.42c-.49,1.14-1,2.18-1.4,3.11a4.56,4.56,0,0,1-.92,1.53,1.92,1.92,0,0,0-.18-1.83,5.7,5.7,0,0,0-1.46-1.53,7.29,7.29,0,0,0-2-1,6.09,6.09,0,0,0-1.83-.36,5.82,5.82,0,0,0,.62,3.11c.4.61,1.5,1.16,3.29,1.65v.85l-5.37,4.88V98.21a2.93,2.93,0,0,0-1.59.73,24.18,24.18,0,0,0-2,1.71,18.82,18.82,0,0,0-1.77,1.89,2.79,2.79,0,0,0-.73,1.28c0,.57,1,1.1,2.93,1.59a65.75,65.75,0,0,1,6.46,2,28.32,28.32,0,0,1,6.47,3.29,6.17,6.17,0,0,1,2.93,5.31,5.72,5.72,0,0,1-1.22,3.78,9.38,9.38,0,0,1-3,2.38,14,14,0,0,1-4,1.28,22.9,22.9,0,0,1-4,.37,12.94,12.94,0,0,1-3.84-1.22c-1.92-.82-4.17-1.85-6.78-3.11s-5.36-2.65-8.29-4.15S979.68,112.4,977,111s-5-2.62-6.95-3.72L966,105v-.85a6.85,6.85,0,0,1,.43-1c.2-.41.34-.61.42-.61h16.23a.76.76,0,0,0,.85-.67,6.57,6.57,0,0,0,.13-1,1.33,1.33,0,0,0-.67-1.16,6.27,6.27,0,0,0-1.53-.67,13.66,13.66,0,0,0-1.65-.36,7.73,7.73,0,0,1-1.16-.25,3.46,3.46,0,0,1,.68-.85c.44-.49,1-1,1.58-1.59s1.16-1.1,1.65-1.58a5.82,5.82,0,0,1,1-.86V86.74H967.71c.32-.57.55-1,.67-1.22a1.53,1.53,0,0,0,.18-.67,2.16,2.16,0,0,0-.12-.67,3.79,3.79,0,0,1-.12-1.1h-7.2c-.08,0-.22.1-.43.3s-.3.35-.3.43a7.16,7.16,0,0,0,.3,1.47c.21.73.35,1.22.43,1.46H947.33v8.05h29.28a8.25,8.25,0,0,0-1,4.15H958a1.91,1.91,0,0,0-.86.43,3.32,3.32,0,0,0-.85.79v.73a5.26,5.26,0,0,1,.49.86,3.77,3.77,0,0,1,.36.85,6.79,6.79,0,0,1-3.47,5.12,7.65,7.65,0,0,1-6.29.49,4.33,4.33,0,0,0-.85.86v.85q2.19,1.22,3.54,1.83a8.19,8.19,0,0,0,3.41.61,4.89,4.89,0,0,0,2-.49,8.92,8.92,0,0,0,2-1.22,6.52,6.52,0,0,0,1.52-1.71,3.62,3.62,0,0,0,.61-2v-.36a13.73,13.73,0,0,0-.79-1.65,14.54,14.54,0,0,1-.79-1.65h.36a8.53,8.53,0,0,1,2.69.73,29,29,0,0,1,3.72,1.83,19.48,19.48,0,0,1,3.29,2.38,3.49,3.49,0,0,1,1.41,2.38c0,.82-1.22,1.75-3.66,2.81a74.79,74.79,0,0,1-9.4,3.17q-5.73,1.59-12.56,3.17t-13.12,2.81q-6.28,1.22-11.22,2a55.37,55.37,0,0,1-6.77.73,10.75,10.75,0,0,1-2-.18,1.13,1.13,0,0,1-1-1.28c0-1,.67-1.87,2-2.69a34.22,34.22,0,0,1,4.94-2.38q2.92-1.16,6.47-2.25a63.15,63.15,0,0,0,6.47-2.38,24.71,24.71,0,0,0,4.94-2.81,4.25,4.25,0,0,0,2-3.35q-.5,0-1.53.06l-2.13.12-2.14.12a4.19,4.19,0,0,1-1.4-.06,3.81,3.81,0,0,1-1.16-.3c-.53-.21-.79-.35-.79-.43V54A6.34,6.34,0,0,0,924,55,28.87,28.87,0,0,0,921,57.16c-.93.77-1.87,1.48-2.8,2.13a5.18,5.18,0,0,1-3,1c-.81,0-1.71-.8-2.69-2.38a45.58,45.58,0,0,1-2.8-5.43,56.08,56.08,0,0,1-2.26-6,16.27,16.27,0,0,1-.91-4.15,1.73,1.73,0,0,1,1.09-1.71,12.89,12.89,0,0,1,2.2-.73q10.49-.86,17.69-1.77a32.47,32.47,0,0,0,12.26-3.84,23.17,23.17,0,0,0,8.48-9q3.42-6,6.34-17.14a1.13,1.13,0,0,1,.68-.73,3.28,3.28,0,0,1,.91-.12l.85.12,16.23,3.17,2.68.55a1.72,1.72,0,0,1,1.47,1.89,2,2,0,0,1-1,1.89c-.65.37-1.38.76-2.19,1.16a9.21,9.21,0,0,0-2.2,1.53,3.58,3.58,0,0,0-1,2.74h26.6a3.18,3.18,0,0,0,2.44-1c.65-.68,1.3-1.42,2-2.19s1.32-1.51,2-2.2a3.54,3.54,0,0,1,2.62-1h.73c.24.24.67.63,1.28,1.16l2,1.7c.74.61,1.41,1.18,2,1.71s1,.92,1.28,1.16.61.57,1.1,1a1.85,1.85,0,0,1,.73,1.46h-1.22a3.81,3.81,0,0,0,.43,2,7.1,7.1,0,0,0,.91,1.28c.32.37.63.76.92,1.16a3,3,0,0,1,.42,1.71.51.51,0,0,1-.12.37c-.41.24-1,.59-1.83,1s-1.69.92-2.62,1.41a22.76,22.76,0,0,1-2.81,1.22,7.82,7.82,0,0,1-2.5.48,2.27,2.27,0,0,1-1.22-.3,8.56,8.56,0,0,1-1-.73,7.81,7.81,0,0,0-1-.74,2.3,2.3,0,0,0-1.22-.3,3.53,3.53,0,0,1-.18,1.22,4.27,4.27,0,0,0-.25.85.9.9,0,0,0,.25.74,4.15,4.15,0,0,0,1.4.85ZM942.45,24a9,9,0,0,1-2.86,6.77,9.47,9.47,0,0,1-6.77,2.75q-1.83,0-4.88-2.69a50.91,50.91,0,0,1-6-6.28,62.39,62.39,0,0,1-5.06-7.14q-2.14-3.53-2.14-5.24a1.26,1.26,0,0,1,1.1-1.41,12.79,12.79,0,0,1,2.07-.18,65.61,65.61,0,0,1,7.26.49,33.71,33.71,0,0,1,8,2,18.74,18.74,0,0,1,6.53,4.09A9.2,9.2,0,0,1,942.45,24Zm-22,30.5q0-2-1.83-2a12,12,0,0,0,.13,1.59,1.31,1.31,0,0,0,.85,1.22A.76.76,0,0,0,920.49,54.53Zm6.71-5.61a10.27,10.27,0,0,0-1-4.15,5.52,5.52,0,0,0-4.15,2.44,2.37,2.37,0,0,0,2.2,1.53A28.32,28.32,0,0,0,927.2,48.92Zm12-19.52c0-.08-.41-.22-1.22-.43s-1.46-.34-2-.42a20.42,20.42,0,0,1-4.33-1,12.46,12.46,0,0,0-4.09-.79c0,.24,0,.69.06,1.34a6.17,6.17,0,0,0,.18,1.34c0,.08.13.22.37.43a1.16,1.16,0,0,0,.49.3h10.49Zm1.71,34.53a2.81,2.81,0,0,0-1.28-2.38,10.81,10.81,0,0,0-3.05-1.47,15.78,15.78,0,0,0-3.54-.67,15.46,15.46,0,0,0-2.75,0c-.89.17-1.4.59-1.52,1.28a11.2,11.2,0,0,0-.18,1.89,8.41,8.41,0,0,0,.3,2.44c.2.66.88,1,2,1a43.34,43.34,0,0,0,4.58-.24c1.5-.17,3-.37,4.57-.61a2.06,2.06,0,0,0,.86-.86Zm-4.15,11.83a2.4,2.4,0,0,0-1.77-1.4,10.12,10.12,0,0,0-2.26-.31c-1.62,0-2.62.51-3,1.53a10.48,10.48,0,0,0-.55,3.6,6.48,6.48,0,0,0,3.72-1.47A12,12,0,0,1,936.72,75.76Zm-2.07,22a7.58,7.58,0,0,1-2.75-.49,7.74,7.74,0,0,0-2.74-.49l.24,4.15a1.93,1.93,0,0,0,.43.55c.2.21.34.31.42.31a4.62,4.62,0,0,0,3-1.16A3.57,3.57,0,0,0,934.65,97.72Zm3.78,18.67-.92.06a14.43,14.43,0,0,0-1.7.24,6.66,6.66,0,0,0-1.65.55,1.16,1.16,0,0,0-.73,1.1,8.89,8.89,0,0,0,.24,2,1.24,1.24,0,0,0,1.34,1,2,2,0,0,0,1.47-.61,8.05,8.05,0,0,0,1.09-1.4,13.62,13.62,0,0,0,.86-1.65,6.44,6.44,0,0,1,.73-1.34Zm16.22-84.55a20.32,20.32,0,0,1-2.5,2.87q-1.77,1.77-4,3.72c-1.47,1.3-3,2.62-4.52,4s-3,2.55-4.27,3.6-2.36,1.93-3.17,2.62A6.94,6.94,0,0,0,935,49.77a1.29,1.29,0,0,0,.55,1,5.28,5.28,0,0,0,1.28.73,8.8,8.8,0,0,0,1.53.49,6,6,0,0,0,1.28.18.49.49,0,0,0,.36-.12l7.69-3.54a54.4,54.4,0,0,0,8.6-4.94,30.83,30.83,0,0,0,7-6.65,13.76,13.76,0,0,0,2.86-8.54,2.58,2.58,0,0,0-.3-1.34,3.19,3.19,0,0,0-1.41-1,1.13,1.13,0,0,0,.74-.74,4,4,0,0,0,.12-1,1.7,1.7,0,0,0-1-1.53c-.69-.36-1.46-.75-2.32-1.16a12.56,12.56,0,0,1-2.31-1.4,2.66,2.66,0,0,1-1-2.26,3.54,3.54,0,0,1,.79-2.31,15.25,15.25,0,0,1,1.77-1.83h-.37a11.85,11.85,0,0,0-6.89,1.76q-2.5,1.77-2.5,6.9a4.37,4.37,0,0,0,.43,2.19c.28.49.55,1,.79,1.41a6.73,6.73,0,0,1,.61,1.71,8.48,8.48,0,0,1-.12,3.11Zm-9.75.73c-.09,0-.23.1-.43.31a1.93,1.93,0,0,0-.43.55L943.8,36a6.44,6.44,0,0,0,1.52-.37c.77-.24,1.59-.53,2.44-.85a12.86,12.86,0,0,0,2.26-1.1c.65-.41,1-.77,1-1.1Zm39,28.55h-36.6v6.47h36.6Zm0,12.93h-36.6v6.59h36.6Zm-36.6,8.18v.85h.86Zm1.59,17.93-.73.73h.73Zm35-65.15h-1.58c-1.3,1.39-3,3.07-4.94,5.07a34.59,34.59,0,0,1-5.68,4.69.49.49,0,0,1-.36.12.71.71,0,0,1-.49-.12.85.85,0,0,1-.73-.73,5.54,5.54,0,0,1-2.26,3.05,19.26,19.26,0,0,1-3.48,1.83c-.57.16-1.54.47-2.92.91s-2.85,1-4.4,1.53-3,1.08-4.39,1.52-2.36.76-2.93.92L948.92,55h17.93V57a2.84,2.84,0,0,1,2.44-1.71,1.56,1.56,0,0,1,1.29.55,7,7,0,0,1,.73,1.22,5.48,5.48,0,0,0,.73,1.22,1.5,1.5,0,0,0,1.28.55V55h10.61l6.47-7ZM953.8,98.45a.84.84,0,0,0-.61-.73,4.11,4.11,0,0,0-1-.12,2.72,2.72,0,0,0-.85.12v.73Zm2.44-66.61c-.41,0-.61-.28-.61-.85s.2-.86.61-.86.61.29.61.86S956.65,31.84,956.24,31.84Zm2.44-2.44c-.08.08-.43-.2-1-.85s-1.08-1.18-1.4-1.59v-.85A1.51,1.51,0,0,1,958,24.4a2.23,2.23,0,0,1,1.95,1.1A3.51,3.51,0,0,0,962,27Zm12.2-13.91a21.24,21.24,0,0,0-2.2-3.35,4.24,4.24,0,0,0-3.41-1.89v1.22l4,4Zm6.59,12.2h-9.15a5.68,5.68,0,0,0,1.83,4,5.4,5.4,0,0,0,3.9,1.89,10.73,10.73,0,0,0,1.71-.12,9.82,9.82,0,0,0,1.16-.31c.37-.12.55-.3.55-.55ZM988,87.11c-.33.08-.57.36-.73.85H988a2,2,0,0,0,.85-.85Zm0-58.93a3.18,3.18,0,0,0,.61,1.77A9.74,9.74,0,0,0,990,31.66a8,8,0,0,0,1.83,1.28,4.19,4.19,0,0,0,1.83.49,2.66,2.66,0,0,0,2.44-1.77,7.37,7.37,0,0,0,.86-3.11,5.34,5.34,0,0,0-.12-1,.69.69,0,0,0-.74-.61h-7.32q-.12,0-.42.3l-.43.43Zm5.73,29.16a5.72,5.72,0,0,0-1.34-4,5,5,0,0,0-3.9-1.46,29.78,29.78,0,0,0,.12,3,2.84,2.84,0,0,0,.61,1.64,2.29,2.29,0,0,0,1.53.68A27.74,27.74,0,0,0,993.69,57.34Zm1.22-8.79a4.53,4.53,0,0,0-1-2.92A3.51,3.51,0,0,0,991,44.41a4.21,4.21,0,0,0,1.1,2.92A3.57,3.57,0,0,0,994.91,48.55Zm6.1-26.47a.75.75,0,0,0-.85-.85,10,10,0,0,0-1.65.3,4.24,4.24,0,0,0-1.52.55,2.82,2.82,0,0,0,2.44,1.71,1.92,1.92,0,0,0,1.16-.31C1000.87,23.28,1001,22.81,1001,22.08Zm-1.58,40.63a2.89,2.89,0,0,0-1.4,1,2.83,2.83,0,0,0-.31,1.41q0,1.83,1.71,1.83Zm21.1-35c-.4,0-.61-.24-.61-.73h-.24c-.41,0-.61-.28-.61-.85s.2-.86.61-.86.61.29.61.86h.24c.41,0,.62.26.62.79S1020.94,27.69,1020.53,27.69Z"/><path class="cls-1" d="M1080,35a8.07,8.07,0,0,1-.92,1c-.44.45-.71.67-.79.67h-50.39c-.57,0-.85-.37-.85-1.1V33.67a8.18,8.18,0,0,1,.06-1,3.15,3.15,0,0,1,.25-.91.59.59,0,0,1,.54-.43h31.72c.25,0,.72-.4,1.41-1.22s1.44-1.72,2.25-2.74,1.57-2,2.26-2.87,1.16-1.46,1.41-1.71a12.35,12.35,0,0,1,3.72,2.14,44.9,44.9,0,0,1,3.66,3.29q1.76,1.77,3.23,3.42c1,1.09,1.79,2,2.44,2.62Zm-26.84,28.92a6.53,6.53,0,0,0,1.16-1.22c.69-.82,1.42-1.69,2.19-2.63s1.81-2.21,3.11-3.84c.41-.49.65-.77.74-.85a1.58,1.58,0,0,1,.85-.13,7.37,7.37,0,0,1,3.36,1.28,27.07,27.07,0,0,1,4.08,3.05,31.69,31.69,0,0,1,3.42,3.6,5.43,5.43,0,0,1,1.46,3c0,2-1.1,2.93-3.29,2.93h-35.87a1.3,1.3,0,0,1-1.16-.73,6.63,6.63,0,0,1-.67-1.71,10.92,10.92,0,0,1-.3-1.77c0-.53-.07-.87-.07-1Zm.73-16.23c.41-.73.85-1.59,1.34-2.56a31.89,31.89,0,0,1,1.59-2.81,12.56,12.56,0,0,1,1.89-2.32,3.1,3.1,0,0,1,2.13-1,6,6,0,0,1,3.3,1.46,47.5,47.5,0,0,1,3.9,3.3,48.1,48.1,0,0,1,3.42,3.53c1,1.14,1.62,1.92,1.95,2.32a2.79,2.79,0,0,1,.12.86,2.21,2.21,0,0,1-.91,1.89,3.58,3.58,0,0,1-2.14.67,2.84,2.84,0,0,1-2.44-1.83,43,43,0,0,1-1.83-3.91c-.57-1.38-1.1-2.62-1.58-3.72s-1.06-1.52-1.71-1.28a4.76,4.76,0,0,0-2.5,2.32,6.81,6.81,0,0,0-.92,3.17,3.78,3.78,0,0,0,.06.61,4,4,0,0,1,.06.49l4,4h-17.81a4.31,4.31,0,0,0-2.26-2.38,11.52,11.52,0,0,0-3.66-1,26.49,26.49,0,0,0-4-.18c-1.31,0-2.36.06-3.18.06V47.7Zm23.67,36.11.24,1.1a2.17,2.17,0,0,1-.42,1.46,3.74,3.74,0,0,1-1,.8c-.37.2-.75.42-1.16.67a3.42,3.42,0,0,0-1,.85v22.82c0,.56-.06,1.42-.18,2.56a15.42,15.42,0,0,1-.73,3.35,9.26,9.26,0,0,1-1.53,2.87,3.12,3.12,0,0,1-2.56,1.22l.12-1.1a3.62,3.62,0,0,1,.37-.79,4.39,4.39,0,0,1,.49-.79V118a1.44,1.44,0,0,0-.86-.73q-2.55,1-4.88,1.71a16.42,16.42,0,0,1-5,.73c-1.3,0-2.11-.26-2.44-.79a4.15,4.15,0,0,1-.55-2q-.06-1.16-.06-2.43a2.89,2.89,0,0,0-.85-2.14l-2.44-.12a5,5,0,0,0-.67.06,5.79,5.79,0,0,1-.79.06h-1a1.33,1.33,0,0,0-.79.31c-.29.2-.43.34-.43.42v6.59a2.52,2.52,0,0,1-.49.37l-.43.24a.58.58,0,0,1-.3.12,3.41,3.41,0,0,1-.92.55,3.83,3.83,0,0,1-.79.31h-.73l.67-1.53a1.86,1.86,0,0,0,.18-.67,1.52,1.52,0,0,0-.12-.55,3.67,3.67,0,0,1-.12-1.16,4,4,0,0,0-2.2.61c-.65.41-1.3.86-2,1.34s-1.3.94-2,1.35a4.14,4.14,0,0,1-2.2.61h-.49a9.7,9.7,0,0,1-1.4-.13l-1.58-.24a11.36,11.36,0,0,1-1.9-.49V83.81a3.08,3.08,0,0,0,2.44,1h2.57l2.31-.12.86-.86a10.05,10.05,0,0,1-2-2c-.57-.77-1.16-1.51-1.77-2.2a11.49,11.49,0,0,0-2-1.77,4.32,4.32,0,0,0-2.51-.73V74.66a14.91,14.91,0,0,1,5.07.86q2.37.86,4.76,1.83c1.58.65,3.19,1.26,4.81,1.83a15.79,15.79,0,0,0,5.25.85h1a6.38,6.38,0,0,0,1.22-.12,10.79,10.79,0,0,0,1.46-.12l5.73-5.74h2.44Zm37.33-65.88a2.37,2.37,0,0,0,.85-.3l.86-.43,1.65-1.65,2.44-2.44,2.44-2.44A19.06,19.06,0,0,0,1124.6,9a23.9,23.9,0,0,1,4.33,2.44q2.74,1.83,5.43,4a49.54,49.54,0,0,1,4.64,4.15c1.3,1.34,2,2.3,2,2.87a2.55,2.55,0,0,1-.92,2c-.61.53-1.26,1.06-2,1.58a12.44,12.44,0,0,0-1.95,1.9,4.63,4.63,0,0,0-.92,3V71.61a28.32,28.32,0,0,0,.55,5.61q.56,2.69,1.35,5.25t1.58,4.94c.53,1.59,1,3.11,1.4,4.58a5.53,5.53,0,0,1-.3,1.16,6.19,6.19,0,0,1-.55,1.28c0,.08-.12.12-.37.12-.65,0-1.22-.55-1.7-1.65a19.25,19.25,0,0,1-1.22-4.09c-.33-1.62-.61-3.41-.86-5.36s-.44-3.8-.61-5.55l-.42-4.58a9.53,9.53,0,0,0-.43-2.44c-.49-.89-.86-1.3-1.1-1.22a1.45,1.45,0,0,0-.61.37c-.16.16-.29.22-.37.18a6.17,6.17,0,0,1-.36-1.77,6.08,6.08,0,0,1-2.38,1.16c-1,.28-2,.61-3,1a14.91,14.91,0,0,0-2.56,1.21,2.12,2.12,0,0,0-1.1,1.9,3.42,3.42,0,0,0,1.28,2.68c.86.73,1.81,1.48,2.87,2.26a17.83,17.83,0,0,1,2.87,2.62,5.56,5.56,0,0,1,1.28,3.78,3.45,3.45,0,0,1-.8,2.44,14.11,14.11,0,0,1-1.76,1.59,9.55,9.55,0,0,0-1.77,1.71,4.32,4.32,0,0,0-.8,2.8A2.7,2.7,0,0,0,1127,96a6.47,6.47,0,0,0,2.93.92,2.78,2.78,0,0,0,1.52-.43,3.31,3.31,0,0,1,1.77-.43,3.19,3.19,0,0,1,1.47.31c.4.2.61.67.61,1.4a2.1,2.1,0,0,1-1,1.71c-.69.49-1.46,1-2.32,1.58a11.39,11.39,0,0,0-2.32,2.08,4.72,4.72,0,0,0-1,3.17.51.51,0,0,0,.12.37,3.33,3.33,0,0,0,.36.79,3.14,3.14,0,0,1,.37.79.66.66,0,0,1-.43.67,3.4,3.4,0,0,1-.91.25,13.26,13.26,0,0,1-1.47.06q-2.43,0-3.84-3.11a32.78,32.78,0,0,1-2.19-7.14,77.79,77.79,0,0,1-1.16-7.93c-.25-2.6-.41-4.43-.49-5.49-.08-.57-.18-1.59-.31-3s-.28-3-.48-4.7-.39-3.23-.55-4.69-.29-2.48-.37-3l-1.59-1.59h-8.9L1105.08,70a104.49,104.49,0,0,1-9.64,27.51,85.86,85.86,0,0,1-17.93,22.87,21.32,21.32,0,0,1-2.62,2.14,5.52,5.52,0,0,1-3.12,1.16h-.85a23.69,23.69,0,0,1,4.45-4.09,27.26,27.26,0,0,0,4.58-4.09v-.73c-.08-.08-.29-.33-.61-.73s-.67-.86-1-1.34-.71-.92-1-1.29a4.29,4.29,0,0,1-.61-.79v-.36a24.69,24.69,0,0,1,1.53-7.69c1-3,2.15-6.24,3.42-9.7s2.39-7,3.41-10.61a38.45,38.45,0,0,0,1.53-10.43l-.13-2.69-.85-.73c-.65.08-1.48.16-2.5.24a13,13,0,0,1-2.93-.06,5,5,0,0,1-2.44-1,3,3,0,0,1-1-2.5,8.68,8.68,0,0,1,.13-1.22c.08-.57.32-.86.73-.86h8.9l.86-1.22a15.15,15.15,0,0,0,.91-2.19,7.88,7.88,0,0,0,.37-2q.06-1,.12-2.25c0-.86.1-2,.18-3.36.49.57,1.18,1.28,2.08,2.14a4.05,4.05,0,0,0,2.8,1.28,1.27,1.27,0,0,0,1.1-.49,2.64,2.64,0,0,0,.49-1.22,9.08,9.08,0,0,0,.12-1.46V51.12a1.91,1.91,0,0,0-.73-1.65,4,4,0,0,0-1.77-.73,9.78,9.78,0,0,0-2.19-.13c-.78,0-1.41.07-1.9.07v-9a2.34,2.34,0,0,1,1.53.55,12.18,12.18,0,0,1,1.34,1.28,8.88,8.88,0,0,0,1.47,1.28,3.24,3.24,0,0,0,1.89.55,4.09,4.09,0,0,0,1.83-.49,1.74,1.74,0,0,0,1-1.71c0-.24-.38-.61-1.16-1.1s-1.64-1-2.62-1.58-1.91-1.1-2.81-1.59a10.22,10.22,0,0,1-1.58-1,3,3,0,0,1-.79-.43c-.29-.2-.43-.35-.43-.43V24.52l-1.22-1.22h-9.76l-2.44-2.07h-39.9c-.08,0-.22-.11-.42-.31a1.93,1.93,0,0,1-.43-.55,7.21,7.21,0,0,0-.37-1.1,4.75,4.75,0,0,1-.36-1.34q-.12,0-.12-.36c0-.25,0-.37.12-.37a.53.53,0,0,1,.12-.37,1.4,1.4,0,0,0,.24-.36,2,2,0,0,1,.37-.49h19.52a5.31,5.31,0,0,0,1-1.1,22.81,22.81,0,0,0,1.4-1.83c.73-.89,1.42-1.75,2.07-2.56q.86-1,1.59-1.89a4.26,4.26,0,0,1,1.22-1.16.5.5,0,0,1,.37-.12,5.49,5.49,0,0,1,3.9,1.64,42.92,42.92,0,0,1,3.36,3.66,44.54,44.54,0,0,0,3.29,3.66,5.14,5.14,0,0,0,3.72,1.65Zm-81.25,35v-.86H1036l.61-.06a4.52,4.52,0,0,1,1,0,4.3,4.3,0,0,1,1,.24.68.68,0,0,1,.49.68Zm3.17-18.67a.85.85,0,0,0-.3-.55c-.21-.2-.35-.3-.43-.3a2.1,2.1,0,0,0-1.34.48,1.51,1.51,0,0,0-.61,1.22A4.56,4.56,0,0,0,1036.76,34.28ZM1055.55,88l-.86-1.71a6.34,6.34,0,0,1-.73-.12,5.35,5.35,0,0,0-1-.12c-.17,0-.47,0-.92.06a7.86,7.86,0,0,0-1.34.24,4.22,4.22,0,0,0-1.22.55A1.23,1.23,0,0,0,1049,88v18.67h6.59Zm-4.88-22h-.86v.73h.86Zm13.17,45.38a3.62,3.62,0,0,0-3.29,1.77,7,7,0,0,0-1.1,3.72,2.52,2.52,0,0,0,1.53-.61,6.71,6.71,0,0,0,1.4-1.46,11.38,11.38,0,0,0,1-1.77A4,4,0,0,0,1063.84,111.38Zm6.71-24.27a4.07,4.07,0,0,0,1.83-.61,1.74,1.74,0,0,0,1.1-1.47.49.49,0,0,0-.12-.36,6.92,6.92,0,0,0-1.59-1.59q0-.12-.36-.12a4,4,0,0,0-1.83.61c-.73.41-1.1.89-1.1,1.46v.49a4.17,4.17,0,0,1,.85.79,4,4,0,0,0,.86.8Zm35.38-20.74a8.22,8.22,0,0,0-1-3.48,3,3,0,0,0-2.69-2,4.11,4.11,0,0,0-1.22.24,5.58,5.58,0,0,1-.61,4,16.9,16.9,0,0,1-2.31,2.87c-.9.9-1.73,1.79-2.5,2.69a5,5,0,0,0-1.16,3.41,3.66,3.66,0,0,0,1.7,3.3,24.51,24.51,0,0,0,2.63-2,43.57,43.57,0,0,0,3.23-3,32,32,0,0,0,2.75-3.23A4.9,4.9,0,0,0,1105.93,66.37Zm-10.61-5.25c.41,0,.61-.28.61-.85s-.2-.86-.61-.86-.61.29-.61.86S1094.91,61.12,1095.32,61.12ZM1097.76,35q.12-.36-.36-.36c-.33,0-.45.12-.37.36a.37.37,0,1,0,.73,0Zm7.44-3.66a.49.49,0,0,0-.12-.36,1.48,1.48,0,0,0-.73-.86,1.71,1.71,0,0,0-.55.79,3,3,0,0,0-.31.92c0,.08.11.23.31.43a.85.85,0,0,0,.55.3,1.08,1.08,0,0,0,.73-.73A.71.71,0,0,0,1105.2,31.35Zm10.13-8.54c1.79,0,3,.41,3.66,1.22a6.91,6.91,0,0,1,1.34,2.81c.24,1.06.49,2.07.73,3.05a2.66,2.66,0,0,0,2,1.95,3.51,3.51,0,0,0,.74-1.22,5.17,5.17,0,0,0,.12-1.22,7.27,7.27,0,0,0-1-3.72,11.33,11.33,0,0,0-2.68-3.11,15.94,15.94,0,0,0-3.54-2.2,9,9,0,0,0-3.72-.85,4.12,4.12,0,0,0-3.54,1.65,10.8,10.8,0,0,0-1.77,3.78,22.56,22.56,0,0,0-.67,4.33c-.08,1.46-.12,2.56-.12,3.29a25.24,25.24,0,0,0-.25,3.11q-.12,2.63-.24,6t-.24,6.77c-.09,2.28-.13,4.07-.13,5.37v1.34a4.66,4.66,0,0,0,.19,1.34c.12.41.46.61,1,.61a1.35,1.35,0,0,0,1.35-.91,1.42,1.42,0,0,1,1.46-.92l.85.13a1.78,1.78,0,0,1,.61.3,7.93,7.93,0,0,0,1,.55c.37.16.71.33,1,.49a2.12,2.12,0,0,0,.61.24q0,.12.36.12c.25,0,.37,0,.37-.12a.72.72,0,0,0,.61-.36,1.48,1.48,0,0,0,.24-.37v-31l-2.44-2.44Zm17.32,31.11a7.54,7.54,0,0,0-.36-2.25,8,8,0,0,0-1-2.14,6.47,6.47,0,0,0-1.65-1.65,3.83,3.83,0,0,0-2.19-.67c-.41,0-1,.47-1.89,1.4a39.87,39.87,0,0,0-2.63,3.24,34,34,0,0,0-2.32,3.6,6.39,6.39,0,0,0-1,2.5,4.71,4.71,0,0,0,2.8-.79,16.12,16.12,0,0,0,2-1.71q.91-.91,1.77-1.71a2.91,2.91,0,0,1,2.07-.79,4.56,4.56,0,0,1,2.14.48A4.68,4.68,0,0,0,1132.65,53.92Zm13.18,53.56c.32,1.46.55,2.73.67,3.78a34.19,34.19,0,0,1,.18,3.78,7.94,7.94,0,0,1-2.07,5.86,7.77,7.77,0,0,1-5.74,2.07,11.3,11.3,0,0,1-8.29-3.11,23.89,23.89,0,0,1-5.13-7.5,8.23,8.23,0,0,1,2.2-1.4,6.46,6.46,0,0,1,2.2-.31,5.36,5.36,0,0,1,3.47,1,6.59,6.59,0,0,1,2,2.62,10.8,10.8,0,0,1,.79,3.48,25.21,25.21,0,0,1,0,3.48c.08.65.51,1,1.28.91l1.52-.06q3.66,0,5-2.2a10.77,10.77,0,0,0,1.28-5.49,40,40,0,0,0-.49-6.22,38.67,38.67,0,0,1-.49-6.22,83.9,83.9,0,0,1,.49-9.15,86.49,86.49,0,0,0,.49-9.15l-.13-2.32-.85-.73a1.72,1.72,0,0,1,1.71-1.1ZM1131.92,35h-1a1.93,1.93,0,0,0,1,1.71Zm2.56,56.61a1,1,0,0,1-.55,1,2.9,2.9,0,0,1-2.31,0,1,1,0,0,1-.55-1,1.09,1.09,0,0,1,.55-1,2.37,2.37,0,0,1,2.31,0A1.09,1.09,0,0,1,1134.48,91.62Zm3.17-68.32a1.92,1.92,0,0,0-.79-1.59,2.72,2.72,0,0,0-1.65-.61,1.29,1.29,0,0,0-1.09.49,3.27,3.27,0,0,0-.55,1.22,6.18,6.18,0,0,0-.19,1.47V25.5A10.12,10.12,0,0,0,1136,25C1137.11,24.68,1137.65,24.11,1137.65,23.3Z"/><path class="cls-2" d="M71.19,7.73A5.16,5.16,0,1,1,66,2.58,5.15,5.15,0,0,1,71.19,7.73Z"/><path class="cls-2" d="M71.12,124.27A5.16,5.16,0,1,1,66,119.12,5.15,5.15,0,0,1,71.12,124.27Z"/><path class="cls-2" d="M129.42,66a5.15,5.15,0,1,1-5.15-5.15A5.15,5.15,0,0,1,129.42,66Z"/><path class="cls-2" d="M12.88,66a5.15,5.15,0,1,1-5.15-5.16A5.15,5.15,0,0,1,12.88,66Z"/><path class="cls-3" d="M118.66,20.6a7.22,7.22,0,1,1-7.21-7.21A7.21,7.21,0,0,1,118.66,20.6Z"/><path class="cls-3" d="M27.82,20.55a7.22,7.22,0,1,1-7.22-7.21A7.22,7.22,0,0,1,27.82,20.55Z"/><path class="cls-3" d="M27.77,111.4a7.22,7.22,0,1,1-7.22-7.22A7.21,7.21,0,0,1,27.77,111.4Z"/><path class="cls-3" d="M118.61,111.45a7.22,7.22,0,1,1-7.21-7.22A7.21,7.21,0,0,1,118.61,111.45Z"/><path class="cls-2" d="M110.32,66A44.32,44.32,0,1,1,66,21.68,44.32,44.32,0,0,1,110.32,66Z"/><path class="cls-3" d="M91.29,49a8.25,8.25,0,1,1-8.24-8.24A8.24,8.24,0,0,1,91.29,49Z"/><path class="cls-3" d="M55.61,88.74a5.16,5.16,0,1,1-5.16-5.15A5.16,5.16,0,0,1,55.61,88.74Z"/><path class="cls-3" d="M48.82,51.48a6.7,6.7,0,1,1-6.7-6.7A6.7,6.7,0,0,1,48.82,51.48Z"/><path class="cls-3" d="M93.6,86.5a6.7,6.7,0,1,1-6.7-6.7A6.7,6.7,0,0,1,93.6,86.5Z"/><path class="cls-4" d="M83.05,59.87A10.83,10.83,0,1,0,72.22,49,10.84,10.84,0,0,0,83.05,59.87Zm0-16.5A5.67,5.67,0,1,1,77.38,49,5.68,5.68,0,0,1,83.05,43.37Z"/><path class="cls-4" d="M42.72,88.74A7.73,7.73,0,1,0,50.45,81,7.74,7.74,0,0,0,42.72,88.74Zm10.31,0a2.58,2.58,0,1,1-2.58-2.57A2.59,2.59,0,0,1,53,88.74Z"/><path class="cls-4" d="M51.39,51.48a9.28,9.28,0,1,0-9.27,9.28A9.28,9.28,0,0,0,51.39,51.48Zm-13.4,0a4.13,4.13,0,1,1,4.13,4.12A4.13,4.13,0,0,1,38,51.48Z"/><path class="cls-4" d="M86.9,77.22a9.28,9.28,0,1,0,9.28,9.28A9.29,9.29,0,0,0,86.9,77.22Zm0,13.4A4.13,4.13,0,1,1,91,86.5,4.13,4.13,0,0,1,86.9,90.62Z"/><path class="cls-4" d="M38.94,74.82a2.59,2.59,0,0,0,2.58-2.58,2.63,2.63,0,0,0-.76-1.83,2.56,2.56,0,0,0-1.82-.75,2.58,2.58,0,0,0,0,5.16Z"/><path class="cls-4" d="M69.07,94.83a2.57,2.57,0,0,0,3.65,0,2.58,2.58,0,0,0-3.65-3.64A2.62,2.62,0,0,0,68.32,93,2.58,2.58,0,0,0,69.07,94.83Z"/><path class="cls-4" d="M59.9,42a2.58,2.58,0,0,0,1.82-.75,2.57,2.57,0,0,0,0-3.65,2.58,2.58,0,0,0-3.64,0,2.57,2.57,0,0,0,0,3.65A2.58,2.58,0,0,0,59.9,42Z"/><path class="cls-4" d="M99.76,68.54a2.58,2.58,0,0,0,1.82-4.4,2.58,2.58,0,0,0-3.65,3.65A2.6,2.6,0,0,0,99.76,68.54Z"/><path class="cls-4" d="M63.46,66A2.58,2.58,0,0,0,66,68.58a2.58,2.58,0,1,0-1.82-4.4A2.58,2.58,0,0,0,63.46,66Z"/><path class="cls-5" d="M124.27,58.3A7.76,7.76,0,0,0,117,63.46h-4.15a46.73,46.73,0,0,0-11.89-28.71l5.65-5.65a9.77,9.77,0,1,0-3.65-3.64L97.3,31.1A46.77,46.77,0,0,0,68.61,19.17V15a7.74,7.74,0,1,0-5.15,0v4.15A46.73,46.73,0,0,0,34.75,31.06L29.1,25.41a9.77,9.77,0,1,0-3.64,3.65L31.1,34.7A46.7,46.7,0,0,0,19.18,63.39H15a7.74,7.74,0,1,0,0,5.15h4.15A46.73,46.73,0,0,0,31.06,97.25l-5.65,5.65a9.77,9.77,0,1,0,3.65,3.64l5.64-5.64a46.77,46.77,0,0,0,28.69,11.93V117a7.74,7.74,0,1,0,5.15,0v-4.15a46.73,46.73,0,0,0,28.71-11.89l5.65,5.65a9.77,9.77,0,1,0,3.64-3.65L100.9,97.3a46.77,46.77,0,0,0,11.93-28.69H117a7.73,7.73,0,1,0,7.29-10.31Zm-16.1-41a4.64,4.64,0,0,1,6.56,0,4.66,4.66,0,0,1,0,6.56,4.64,4.64,0,1,1-6.56-6.56ZM66,5.15a2.58,2.58,0,1,1-2.57,2.58A2.59,2.59,0,0,1,66,5.15ZM17.32,23.83a4.64,4.64,0,1,1,6.56,0A4.64,4.64,0,0,1,17.32,23.83ZM7.73,68.54A2.58,2.58,0,1,1,10.31,66,2.58,2.58,0,0,1,7.73,68.54ZM66,24.26A41.75,41.75,0,1,1,24.26,66,41.78,41.78,0,0,1,66,24.26ZM23.83,114.68a4.64,4.64,0,0,1-6.56,0,4.66,4.66,0,0,1,0-6.56,4.64,4.64,0,0,1,6.56,6.56ZM66,126.85a2.58,2.58,0,1,1,2.57-2.58A2.59,2.59,0,0,1,66,126.85Zm48.71-18.68a4.64,4.64,0,1,1-6.56,0,4.64,4.64,0,0,1,6.56,0Zm9.59-39.56A2.58,2.58,0,1,1,126.85,66,2.59,2.59,0,0,1,124.27,68.61Z"/><path class="cls-4" d="M61.21,45.15a2.58,2.58,0,0,0-1.93,3.09l1.52,6.64a2.58,2.58,0,0,0,2.51,2,3,3,0,0,0,.58-.07,2.58,2.58,0,0,0,1.93-3.09L64.3,47.09A2.58,2.58,0,0,0,61.21,45.15Z"/></svg>