<?xml version="1.0" encoding="utf-8"?>
<!-- Generator: Adobe Illustrator 23.1.1, SVG Export Plug-In . SVG Version: 6.00 Build 0)  -->
<svg version="1.1" id="Layer_1" xmlns="http://www.w3.org/2000/svg" xmlns:xlink="http://www.w3.org/1999/xlink" x="0px" y="0px"
	 viewBox="0 0 485.7 264.4" style="enable-background:new 0 0 485.7 264.4;" xml:space="preserve">
<style type="text/css">
	.st0{fill:#FFFFFF;}
</style>
<path class="st0" d="M87.5,43.6c2,0,3.7-0.6,4.9-1.8c1.3-1.2,2.4-2.5,3.4-4c1-1.4,1.9-2.7,2.9-4c0.9-1.2,2.1-1.8,3.5-1.8
	c0.7,0,1.5,0.3,2.3,0.8c0.8,0.5,1.6,1.1,2.4,1.8c0.8,0.7,1.5,1.4,2.1,2.2c0.7,0.8,1.2,1.4,1.7,1.9c-0.2,0.2-0.8,0.8-1.6,1.6
	c-0.9,0.8-1.4,1.4-1.6,1.7c-0.2,0.2-0.3,0.4-0.5,0.9c-0.2,0.4-0.3,0.7-0.2,0.7l3.2,4.9l-1.6,0.9l-0.7,0.4c-0.2,0.1-0.3,0.2-0.5,0.4
	v62.7c0,0.8-0.7,1.5-2.2,2c-1.5,0.5-3.1,1-4.9,1.3c-1.8,0.3-3.6,0.5-5.2,0.7c-1.6,0.1-2.6,0.2-3.1,0.2l-2.9-0.1l-0.9-0.9V87.5
	l0.6-1.2L87.1,50c0-0.1-0.1-0.2-0.4-0.4c-0.2-0.2-0.4-0.3-0.5-0.3c-0.1-0.1-0.4-0.1-1-0.1c-0.6,0-1.1,0-1.4,0c-0.2,0-0.6,0-1,0
	c-0.4,0-0.6,0-0.6,0.1l-0.9,1.6c-0.2,5.6-0.5,11-1,16.3c-0.5,5.2-1.4,10.3-2.9,15.1c-1.4,4.8-3.4,9.5-6,13.8
	c-2.6,4.4-6.1,8.5-10.5,12.4c-0.5,0.7-1.3,1.4-2.4,2.4c-1.1,0.9-2.4,1.8-3.7,2.7c-1.3,0.9-2.6,1.6-3.8,2.3c-1.3,0.6-2.3,1-3,1
	c-1.1,0-1.7-0.6-1.7-1.7c0-1.8,0.5-3.5,1.5-5.2c1-1.7,2.2-3.3,3.4-4.9c1.3-1.6,2.5-3.3,3.6-4.9c1.1-1.7,1.8-3.4,2.1-5.3
	c0-0.2-0.1-0.4-0.3-0.9c-0.2-0.4-0.4-0.7-0.5-0.7c-0.2,0-0.9,0-2.1,0c-1.2,0-2.5-0.1-3.9-0.4c-1.4-0.2-2.6-0.6-3.8-1.2
	c-1.1-0.6-1.7-1.4-1.7-2.6c0-0.3,0-0.6,0.1-0.7l1.6,1.6c0.1,0.1,0.2,0.1,0.4-0.1c0.2-0.1,0.3-0.2,0.4-0.2c0-0.8-0.1-1.8-0.2-2.9
	c-0.1-1.1-0.5-2-1.3-2.6c-0.1-0.1-0.3,0-0.7,0.1l-0.5,0.4v2.8c-0.2-0.9-0.4-1.8-0.6-2.7c-0.2-0.9-0.4-1.8-0.6-2.5s-0.6-1.3-1-1.8
	c-0.4-0.4-1.1-0.7-1.9-0.7v32.1c0,0.1-0.3,0.3-0.8,0.7c-0.5,0.4-0.9,0.7-1.2,0.9c-0.1,0.1-0.2,0.1-0.5,0.1c-0.2,0-0.3,0-0.4-0.1
	l0.9-2.4v-0.4c0-0.7-0.3-1.2-0.8-1.5c-0.5-0.4-1.1-0.5-1.6-0.5c-0.4,0-0.9,0.1-1.6,0.2c-0.7,0.1-1,0.5-1,1c0,0.7,0.2,1.4,0.5,1.9
	c0.3,0.5,0.5,1.2,0.5,2c0,0.9-0.4,1.6-1.3,2.1c-0.9,0.5-1.9,0.9-3,1.2c-1.1,0.2-2.3,0.4-3.5,0.5c-1.2,0.1-2.1,0.1-2.6,0.1
	c-0.2,0-0.6,0-1.3-0.1c-0.7,0-1-0.3-1-0.8V95.6c0-0.1-0.2-0.2-0.5-0.4c-0.3-0.2-0.6-0.3-0.7-0.4h-0.9c-0.7,0.5-1.7,1.4-3,2.6
	c-1.4,1.3-2.9,2.5-4.6,3.8c-1.7,1.3-3.4,2.5-5.2,3.5c-1.8,1-3.3,1.5-4.6,1.5c-0.7,0-1.2-0.1-1.5-0.3c-0.4-0.2-0.5-0.7-0.5-1.4v-0.9
	c1.7-2.2,3.6-4.6,5.6-7.3c2-2.7,3.9-5.5,5.6-8.4c1.7-2.9,3.2-5.8,4.3-8.8c1.1-3,1.7-5.9,1.7-8.8c0-0.3,0-0.6-0.1-0.9
	c-1.5,0-3.2,0.1-5.1,0.2s-3.5,0.1-5.1-0.2c-1.6-0.2-2.9-0.8-4-1.7c-1.1-0.9-1.6-2.4-1.6-4.4h19.9V49.7H1.7c-0.2,0-0.4-0.1-0.6-0.4
	c-0.2-0.3-0.3-0.6-0.3-0.9c0-0.3-0.1-0.8-0.1-1.5c0-0.2,0-0.6,0.1-1.3c0-0.7,0.3-1.1,0.9-1.1c0.1,0,0.3,0.1,0.8,0.4
	c0.4,0.2,0.7,0.4,0.8,0.4h0.4c1.7,0,3.5-0.2,5.5-0.5c2-0.3,3.8-0.7,5.5-1.1v-0.4c0-1.4,0-3-0.1-4.8c-0.1-1.8-0.3-3.7-0.5-5.6
	c-0.3-1.9-0.7-3.7-1.2-5.4c-0.5-1.7-1.2-3.1-2.1-4.3c-0.9-1.1-1.8-1.6-2.8-1.6s-1.9,0-2.7,0.1c-0.8,0.1-1.5-0.1-2.1-0.5
	c-0.6-0.4-0.9-1.6-0.9-3.7h15.7c1.4,1,2.5,1.8,3.4,2.4c0.9,0.6,2,0.9,3.4,0.9c0.4,0,1-0.4,1.7-1.1s1.4-1.6,2.1-2.5
	c0.7-0.9,1.3-1.8,1.8-2.7c0.5-0.9,0.7-1.5,0.7-1.8c0-0.6-0.3-1.3-0.9-2.1C29.7,9.8,29,9,28.1,8.2c-0.9-0.8-1.7-1.5-2.6-2.1
	c-0.9-0.6-1.7-0.9-2.3-0.9c-0.2,0-0.3,0-0.4,0.1c-0.2,0-0.4,0.1-0.9,0.3c-0.4,0.2-0.7,0.3-0.7,0.4c0-0.3,0.1-1,0.3-2
	c0.2-1,0.3-1.7,0.4-2l0.9-0.9h4.9c1.5,0,2.9,0,4.1,0.1c1.2,0,2.4,0.1,3.6,0.1c1.2,0,2.4,0.1,3.8,0.2c1.3,0.1,2.9,0.3,4.7,0.4
	c0.5,0.2,0.8,0.4,0.9,0.7c0.1,0.3,0.1,0.7,0.1,1c0,1-0.1,1.6-0.4,1.8C44.3,5.8,44,6,43.7,6.3c-0.3,0.3-0.5,0.9-0.8,1.8
	c-0.2,0.9-0.4,2.6-0.4,5c0.6,0,1.2-0.2,1.6-0.7c0.4-0.5,0.8-1.1,1.2-1.7c0.4-0.7,0.8-1.3,1.2-1.8c0.4-0.6,0.9-0.9,1.6-1.1
	c0.2-0.1,0.4,0,0.8,0.2c0.4,0.2,0.7,0.5,1.1,0.8c0.4,0.3,0.7,0.6,0.9,0.9c0.2,0.3,0.4,0.5,0.4,0.5l-5.6,5.6v0.9
	c0.5,0.1,1.1,0.3,1.8,0.6c0.7,0.3,1.5,0.7,2.2,1c0.7,0.4,1.4,0.7,2.1,1c0.6,0.3,1.2,0.4,1.6,0.4c0-1.3,0.1-2.2,0.2-2.7
	c0.1-0.5,0.2-1,0.2-1.5c0-0.4-0.1-1-0.3-1.6c-0.2-0.6-0.6-1.6-1.3-3h0.9l8.9,8.2l1.2-0.9V10c1.7,0,3.7,0.3,5.9,1
	c2.2,0.7,3.9,1.6,5.1,2.9h-4.6l-0.2,0.5c-0.2,0.4-0.2,0.7,0,0.7c0.1,0.1,0.2,0.4,0.4,0.9c0.2,0.5,0.4,1,0.7,1.6
	c0.3,0.6,0.6,1.1,1,1.6c0.4,0.5,0.8,0.8,1.2,0.9c0.1,0,0.3-0.1,0.7-0.3c0.4-0.2,0.7-0.4,0.9-0.5c0.3-0.2,0.8-0.7,1.5-1.3
	c0.6-0.6,1-1,1-1.1c0.1-0.2,0-0.7-0.2-1.3c-0.2-0.6-0.4-1-0.7-1.2h0.5c0.3,0,0.8,0,1.3,0.1c0.5,0,1,0.1,1.5,0.3
	c0.5,0.2,0.9,0.4,1.2,0.7c0.3,0.3,0.4,0.8,0.4,1.3c1.2-0.8,2.5-1.8,3.7-3c1.3-1.2,2.5-2.4,3.7-3.7c1.2-1.3,2.4-2.5,3.6-3.8
	c1.2-1.3,2.4-2.4,3.6-3.4c0.1-0.1,0.2-0.1,0.5-0.1c2,0,3.5,0.7,4.3,2c0.9,1.3,1.4,2.8,1.7,4.5c0.3,1.7,0.4,3.2,0.4,4.5s0.1,2,0.4,2
	h7.3c-0.4,0.1-1.4,0.3-2.9,0.6c-1.5,0.3-3.3,0.7-5.4,1.2c-2,0.5-4.2,1-6.5,1.5c-2.3,0.5-4.4,1-6.2,1.5c-1.9,0.4-3.4,0.8-4.7,1.2
	c-1.3,0.3-1.9,0.5-1.9,0.6v20.3c0,0.1,0.5,0.2,1.5,0.4c1,0.2,1.8,0.3,2.5,0.4H87.5z M22.8,11c0.9,0.6,1.5,1.1,2,1.5
	c0.4,0.4,0.6,1,0.6,1.8c0,0.9-0.4,1.5-1.1,1.8c-0.7,0.3-1.5,0.5-2.3,0.7v-0.9L22.8,11z M22,24c1.7,1.8,3.4,3.6,5,5.5
	c1.6,1.9,2.4,4.1,2.4,6.7c0,1.4-0.2,2.7-0.5,4c-0.4,1.3-0.5,2.6-0.5,4c1.8,0,3.2-0.8,4.2-2.3c1-1.5,1.8-3.3,2.3-5.4
	c0.5-2.1,0.8-4.2,0.9-6.4c0.1-2.2,0.2-3.9,0.2-5.3c0-0.2,0-0.7,0-1.3c0-0.7-0.3-1-0.9-1H22.8c-0.1,0-0.2,0.1-0.4,0.3
	C22.2,23,22,23.1,22,23.2V24z M28.9,82.6c0.9,0,1.7,0.5,2.3,1.5c0.7,1,1.2,2.1,1.5,3.5c0.4,1.3,0.6,2.7,0.7,4
	c0.1,1.3,0.1,2.4-0.1,3.2c0.2-0.1,0.5-0.3,0.9-0.5c0.4-0.3,0.9-0.6,1.5-1c0.5-0.4,1-0.7,1.5-1c0.4-0.3,0.8-0.6,1-0.7
	c0.3-0.1,0.6-0.3,0.7-0.7c-0.5-0.8-1.1-1.4-1.8-1.8c-0.7-0.4-1.4-0.8-2.1-1.3c-0.7-0.4-1.3-1-1.8-1.6c-0.5-0.6-0.7-1.5-0.7-2.6
	c0-0.2,0.1-0.7,0.4-1.6c0.3-0.9,0.4-1.5,0.4-1.6c0-0.1-0.1-0.2-0.3-0.4c-0.2-0.2-0.4-0.3-0.5-0.4c-0.1,0-0.4,0-0.9,0
	c-0.5,0-1,0-1.6,0c-0.6,0-1.4,0-2.4,0c-0.7-0.1-1.2-0.4-1.6-0.9c-0.4-0.5-0.8-1-1.1-1.5c-0.3-0.5-0.7-1-1-1.4
	c-0.3-0.4-0.8-0.6-1.3-0.6c0,0.6,0,1.3,0.1,2.3c0,1,0.2,1.9,0.4,2.8c0.2,0.9,0.6,1.7,1.2,2.4c0.5,0.7,1.2,1,2.1,1h0.4
	c0.1-0.1,0.4-0.2,0.9-0.5c0.5-0.2,0.8-0.4,0.9-0.4H28.9z M40.7,63.1c1-0.3,1.8-1,2.4-2c0.6-1,1.3-2,1.9-3c0.6-1.1,1.2-2,1.8-2.8
	c0.6-0.8,1.4-1.2,2.3-1.2c1.4,0,2.6,0.5,3.5,1.4c1,0.9,1.9,2,2.9,3.1c0.9,1.1,1.9,2.2,2.8,3.1c0.9,0.9,2.1,1.4,3.5,1.4
	c1.1,0,1.7-0.6,1.7-1.7c0-0.4-0.1-0.8-0.2-1c-0.1-0.3-0.5-0.5-1.2-0.5v-8.9L61,49.7H42.3c0.9-1.2,1.7-2.2,2.4-2.9
	c0.7-0.7,1.4-1.2,2.3-1.5c0.8-0.3,1.7-0.4,2.7-0.4c1,0,2.3,0.1,4,0.2c0.1,0,0.3-0.1,0.6-0.4c0.3-0.2,0.7-0.5,1-0.9
	c0.4-0.4,0.7-0.8,0.9-1.2c0.2-0.4,0.4-0.8,0.4-1.1c-1.3,0-2.6-0.1-4-0.4c-1.4-0.2-2.6-0.8-3.8-1.7c0.2-0.2,0.7-0.8,1.3-1.6
	s1-1.4,1.2-1.6l0.9-0.9h0.4c1.1,0,2,0.3,2.9,0.9c0.9,0.6,1.7,1.3,2.6,2.1c0.9,0.8,1.7,1.5,2.6,2.1c0.9,0.6,1.9,0.9,3,0.9
	c0-1.5,0-3.2-0.1-5c0-1.8-0.1-3.6-0.2-5.4c-0.1-1.8-0.2-3.5-0.3-5.1c-0.1-1.6-0.2-3.1-0.3-4.3c0-0.6-0.3-0.9-0.9-0.9
	c-0.5,0-1.1,0.1-1.8,0.3c-0.7,0.2-1.5,0.4-2.3,0.7c-0.8,0.3-1.5,0.6-2.3,0.9c-0.7,0.3-1.3,0.5-1.8,0.5c0.2,0.4,0.6,0.7,1,1
	c0.4,0.2,0.9,0.5,1.4,0.7c0.5,0.2,0.9,0.5,1.2,0.8c0.3,0.3,0.5,0.7,0.5,1.2c0,0.4-0.2,0.8-0.6,1.1c-0.4,0.3-0.9,0.6-1.3,0.9
	c-0.5,0.2-1,0.4-1.4,0.6c-0.4,0.2-0.7,0.3-0.8,0.4L41.5,42v1.6h4.1c-0.6,0.7-1.2,1.2-1.8,1.6c-0.7,0.4-1.2,0.8-1.8,1.2
	c-0.5,0.4-1,0.9-1.3,1.3c-0.4,0.5-0.5,1.1-0.5,2h-6l9,2.1c0.1,0,0.1,0.2,0.1,0.6c0,1.2-0.5,2.3-1.5,3.3s-1.9,1.8-2.8,2.6l-0.7-0.9
	c-0.4-0.2-0.9-0.7-1.5-1.3c-0.6-0.6-1.2-1.3-1.8-2c-0.6-0.7-1.2-1.3-1.6-1.8c-0.5-0.5-0.9-0.7-1.1-0.7c-0.5,0-1,0.1-1.5,0.2
	c-0.5,0.1-0.7,0.5-0.7,1.2c0,0.7,0.1,1.2,0.3,1.7c0.2,0.5,0.3,1.1,0.3,2h-3.9c-0.2,1.1-0.5,2.5-1,4.1c-0.5,1.6-1.2,2.9-2.2,3.9
	c0.1,0.3,0.3,0.6,0.7,0.9c0.6,0.4,1.3,1.2,2.3,2.3c0.5,0.6,1.1,1.2,1.7,1.8c1.2,0,2.3-0.2,3.2-0.6c0.9-0.4,2.1-0.6,3.7-0.6
	c0-0.6-0.2-1-0.5-1.2c-0.4-0.2-0.8-0.5-1.2-0.7c-0.4-0.2-0.9-0.5-1.2-0.8c-0.4-0.3-0.5-0.9-0.5-1.6c0-0.9,0.3-1.6,0.8-2.1
	c0.5-0.5,1.2-0.9,2-1.1c0.8-0.2,1.6-0.4,2.4-0.6c0.8-0.2,1.5-0.4,2.2-0.6L40.7,63.1z M25.3,30.5c-0.1-0.3-0.4-0.6-0.9-0.7
	c0-0.1-0.1-0.1-0.4-0.1c-0.2,0-0.3,0-0.4,0.1v0.7H25.3z M29.3,105.5c0.9,0,1.8-0.4,2.9-1.1c1-0.7,1.5-1.6,1.5-2.6l-1.1,0.2
	c-0.5,0.3-1.2,0.8-2,1.4c-0.9,0.6-1.3,1-1.3,1V105.5z M35.9,2.9c0.8,0.6,1.6,0.9,2.4,0.9c0.3,0,0.6,0,0.9-0.1
	c0.3-0.1,0.5-0.3,0.7-0.7H35.9z M41.5,76.1c0.6,0.8,1.3,1.3,2.3,1.5c1,0.2,1.9,0.3,2.8,0.3c0-0.6-0.2-1.2-0.5-1.6
	c-0.4-0.4-0.8-0.8-1.3-1.1h-0.9L41.5,76.1z M47.2,68.8l-1.6,0.7c0.1,0.2,0.8,0.7,2.1,1.7c1.3,1,2.8,2,4.5,3.1c1.6,1.1,3.2,2.1,4.6,3
	c1.5,0.9,2.3,1.3,2.6,1.3c0.7,0,1.2-0.2,1.3-0.6c0.1-0.4,0.2-1.1,0.3-2c0.1-0.2,0.1-0.7,0.2-1.5c0-0.7,0.1-1.5,0.1-2.3
	c0-0.8,0.1-1.5,0.1-2.2c0-0.7,0-1.2,0-1.4H47.2z M59.4,105.4c-0.2-0.7-0.4-1.5-0.9-2.6c-0.4-1.1-1.1-1.6-2-1.6
	c-0.3,0-0.6,0.2-0.9,0.5c-0.2,0.4-0.5,0.8-0.7,1.3c-0.2,0.5-0.3,1-0.4,1.5c-0.1,0.5-0.1,0.9-0.1,1.1c0,0.6,0.4,1.1,1.1,1.5
	c0.7,0.4,1.3,0.6,1.8,0.6h0.4c0.1-0.2,0.3-0.4,0.8-0.9c0.4-0.4,0.7-0.7,0.8-0.9V105.4z M57.8,96.4c0.4,0,0.6-0.3,0.6-0.8
	c0-0.5-0.2-0.8-0.6-0.8c-0.4,0-0.6,0.3-0.6,0.8C57.2,96.1,57.4,96.4,57.8,96.4z M65.1,87.5c0-0.6-0.1-1.2-0.4-1.6
	c-0.2-0.4-0.7-1-1.3-1.6c-0.1,0.2-0.1,0.7-0.1,1.2c0,0.7,0.1,1.2,0.3,1.7c0.2,0.5,0.7,0.9,1.5,1.2V87.5z M75.4,76.6
	c-0.9,0-1.9,0.1-2.9,0.3c-1.1,0.2-1.9,0.8-2.4,1.6c0.2,0.5,0.8,0.9,1.5,1.2c0.8,0.3,1.3,0.4,1.6,0.4c1.1,0,1.7-0.4,1.9-1.2
	C75.3,78.1,75.4,77.3,75.4,76.6z M105.8,71.2c0-0.1-0.1-0.2-0.3-0.4c-0.2-0.2-0.4-0.3-0.5-0.4c-0.2-0.2-0.5-0.4-1.2-0.9
	c-0.6-0.4-1-0.6-1.3-0.7c-0.7,0.4-1.2,0.9-1.5,1.5c-0.2,0.6-0.5,1.1-0.7,1.6c-0.2,0.5-0.5,0.9-0.9,1.3c-0.4,0.4-1.1,0.5-2.1,0.5
	c-1.1,0-2.1-0.1-3-0.4c-0.9-0.3-1.9-0.4-2.9-0.4h-0.4c-0.2,0.1-0.5,0.2-0.9,0.4c-0.4,0.2-0.7,0.3-0.7,0.4c-0.1,0-0.1,0.1-0.1,0.4
	s0,0.4,0.1,0.4c0.2,0.5,0.4,0.8,0.7,0.9c0.3,0,0.8,0,1.5,0.1c0.7,0,1.4,0.1,2.2,0.2c0.8,0.1,1.5,0.2,2.2,0.3
	c0.7,0.1,1.2,0.2,1.4,0.3h0.9c0.2-0.1,0.6-0.2,1.2-0.5c0.7-0.2,1.1-0.4,1.2-0.4h0.9c0.8,0,1.5,0.3,2,0.9c0.5,0.6,1.2,0.9,2,0.9V71.2
	z M101.7,44.4l-4.1-4.1h-0.9c0,1,0.2,1.9,0.5,2.7c0.3,0.8,0.5,1.7,0.5,2.7c0,1.4-0.4,2.6-1.3,3.6c-0.9,1-1.3,2.1-1.3,3.2
	c0,0.7,0.2,1.3,0.7,1.8c0.5,0.5,1.1,0.7,1.8,0.7s1.4-0.4,1.9-1.3c0.5-0.9,1-1.8,1.3-3c0.3-1.1,0.5-2.3,0.7-3.4
	c0.1-1.1,0.2-1.9,0.2-2.4V44.4z M105.8,94.8l-2.4-3.3l-0.9-1.6c0-0.1-0.1-0.1-0.4-0.1c-0.2,0-0.3,0-0.4,0.1c0,0.9-0.3,1.7-0.8,2.4
	c-0.5,0.7-1.1,1.3-1.7,1.8c-0.6,0.5-1.2,1-1.7,1.4c-0.5,0.4-0.8,0.9-0.8,1.3c0,0.2,0,0.3,0.1,0.4c0.2,0.3,0.7,1.1,1.3,2.2
	c0.7,1.1,1.3,2.3,2.1,3.6c0.7,1.3,1.4,2.4,2.1,3.4c0.7,1,1.1,1.5,1.3,1.5h0.5c0.2-0.1,0.6-0.2,1-0.4c0.4-0.2,0.6-0.3,0.6-0.4V94.8z
	 M100,81.7l-0.7,0.9c-0.2,0.2-0.6,0.7-1,1.3c-0.4,0.6-0.7,1-0.7,1.2v0.4c0,0.7,0.3,1.1,0.9,1.2c0.6,0.2,1.1,0.2,1.5,0.2V81.7z
	 M109.1,9.4c-1.5,0-2.9-0.5-4-1.4c-1.1-0.9-1.7-2.2-1.7-3.8V3.7c1.5,0.5,2.8,1.3,4,2.4c1.2,1.1,2.3,2.2,3.3,3.4H109.1z M111.5,11
	c-0.4,0-0.6-0.3-0.6-0.8c0-0.5,0.2-0.8,0.6-0.8c0.4,0,0.6,0.3,0.6,0.8C112.1,10.7,111.9,11,111.5,11z M111.5,40.3
	c-0.4,0-0.6-0.3-0.6-0.8c0-0.5,0.2-0.8,0.6-0.8c0.4,0,0.6,0.3,0.6,0.8C112.1,40,111.9,40.3,111.5,40.3z M117.1,15.1
	c-0.3,0.7-1,1.2-1.9,1.3c-0.9,0.2-1.8,0.2-2.5,0.2h-1.2c0.6-0.2,1.4-0.5,2.4-1c1.1-0.5,1.6-1.3,1.6-2.3L117.1,15.1z M113.1,41.1
	c-0.2-0.1-0.5-0.4-0.9-0.9h0.9c0.3,0.2,0.6,0.5,0.9,0.9H113.1z M115.5,48.4c-0.2,0.2-0.6,0.4-1.2,0.4c-0.7,0-1.1-0.1-1.2-0.4
	c-0.1-0.1,0-0.2,0.3-0.2c0.3-0.1,0.6-0.1,0.9-0.1c0.3,0,0.6,0,0.9,0.1C115.5,48.3,115.6,48.4,115.5,48.4z M114.7,13.4
	c-0.4,0-0.6-0.3-0.6-0.8c0-0.5,0.2-0.8,0.6-0.8c0.4,0,0.6,0.3,0.6,0.8C115.3,13.2,115.1,13.4,114.7,13.4z M117.1,43.6
	c0.4,0,0.6,0.3,0.6,0.8c0,0.5-0.2,0.8-0.6,0.8c-0.4,0-0.6-0.2-0.6-0.7h-0.1c-0.4,0-0.6-0.3-0.6-0.9h-0.2c-0.6,0-0.8-0.3-0.6-0.9
	h-0.2c-0.4,0-0.6-0.3-0.6-0.8c0-0.5,0.2-0.8,0.6-0.8c0.6,0,0.8,0.3,0.6,0.9h0.2c0.4,0,0.6,0.2,0.6,0.7h0.2c0.4,0,0.6,0.3,0.6,0.9
	H117.1z M117.1,47.6l0.9-2.4v2.4H117.1z"/>
<path class="st0" d="M234.2,95.6c-0.4-0.2-0.7-0.5-0.7-0.9c-0.1-0.4-0.2-0.7-0.2-1.1c-0.1-0.4-0.2-0.7-0.4-1c-0.2-0.3-0.5-0.4-1-0.4
	c-1.1,0-1.7,0.4-2,1.2c-0.3,0.8-0.6,1.8-1,2.8c-0.4,1.1-1,2.1-1.8,3c-0.8,1-2.2,1.6-4.3,2c-0.1,0.1-0.1,0.2-0.1,0.5
	c0,0.2,0.2,0.7,0.6,1.5c0.4,0.9,0.9,1.8,1.3,2.7c0.5,1,1,2,1.4,2.9c0.4,1,0.7,1.7,0.8,2.1l2.4,0.1c1.5,0,3-0.3,4.5-0.9
	c1.4-0.6,2.6-1.4,3.6-2.4c1-1,1.7-2.2,2.2-3.7c0.5-1.4,0.6-2.9,0.4-4.6c0.7,0.2,1.1,0.7,1,1.6c-0.1,0.9-0.1,1.5-0.1,1.6
	c0,2.8-1,4.9-2.9,6.4c-2,1.5-4.3,2.6-7,3.4s-5.5,1.2-8.4,1.3c-2.9,0.2-5.2,0.2-7,0.2h-43.9c-5.1,0-9-1.5-11.6-4.4
	c-2.6-2.9-3.9-6.9-3.9-11.8v-3.3c1.5,1.1,2.4,2.1,2.7,3.1c0.2,1,0.4,2.3,0.4,4c0.7,0,1.4-0.2,2.1-0.5c0.8-0.4,1.5-0.8,2.1-1.4
	c0.6-0.6,1.2-1.2,1.6-2c0.4-0.7,0.7-1.5,0.7-2.2c-2.2,0-3.8-0.2-4.8-0.5c-1-0.4-1.6-0.8-2-1.3c-0.4-0.5-0.5-1.1-0.5-1.7
	c0-0.6,0.1-1.2,0.1-1.8c0-0.6-0.2-1-0.5-1.4c-0.4-0.4-1.1-0.6-2.3-0.7V59l-1.2,0.7c-0.6,5.4-1.3,10.6-2.3,15.6
	c-1,5-2.3,9.8-4.1,14.3c-1.8,4.6-4,8.9-6.8,13c-2.8,4.1-6.2,8-10.4,11.7c-1.2,1.1-2.4,2-3.7,2.7c-1.2,0.7-2.6,1.1-4.3,1.1
	c0-0.8,0.1-1.8,0.3-3c0.2-1.2,0.8-2,1.9-2.3c0.2,0.8,0.3,1.3,0.3,1.6c0,0.2,0.1,0.3,0.2,0.2c0.1-0.1,0.2-0.2,0.3-0.4
	c0.1-0.2,0.3-0.2,0.7-0.2c0-0.1,0-0.3,0.1-0.6c0.1-0.3,0.1-0.5,0-0.6c0-0.1-0.1-0.4-0.4-0.9c-0.2-0.5-0.4-0.8-0.4-0.9
	c0-0.7,0.3-1.3,1-1.8c0.7-0.4,1.5-0.9,2.4-1.2c0.9-0.4,1.8-0.8,2.7-1.2c0.9-0.4,1.5-0.9,2-1.5l-5.6,1.6c-0.1-0.1-0.1-0.2-0.1-0.4
	c0-0.7,0.2-1.7,0.7-3.2c0.4-1.5,1-3,1.6-4.7c0.6-1.7,1.2-3.2,1.7-4.7c0.5-1.5,0.9-2.6,1-3.3c0.8-3.9,1.3-7.7,1.5-11.5
	c0.2-3.8,0.2-7.7,0.2-11.7l-0.1-7.8l-0.9-1.2l-8.1,0.1c-0.2,0-0.3-0.1-0.5-0.4c-0.2-0.3-0.3-0.6-0.3-0.8c-0.1-0.3-0.2-1.1-0.2-2.2
	c-0.1-1.2-0.1-1.9-0.1-2.2h37.8c0.8,0,1.5-0.5,2.2-1.6c0.7-1.1,1.3-2.2,2-3.5c0.6-1.3,1.3-2.5,2.1-3.5c0.7-1.1,1.6-1.6,2.7-1.6
	c0.6,0,1.4,0.4,2.4,1.2c1.1,0.8,2.2,1.6,3.3,2.6c1.1,1,2.2,1.9,3.1,2.8c0.9,0.9,1.5,1.4,1.8,1.6c1.1-0.4,2-0.1,2.6,0.9
	c0.6,1,0.9,2,0.9,2.9c-1.7,0-2.9,0.2-3.6,0.5c-0.7,0.3-1.2,1.3-1.5,3.1c-0.2,0-0.5,0-0.9,0.1c-0.4,0.1-0.9,0.2-1.5,0.2
	c-0.5,0.1-1,0.2-1.5,0.3c-0.4,0.1-0.8,0.2-1,0.2c-0.2,0-0.3,0-0.5,0.1c-0.2,0.1-0.3,0.2-0.5,0.2c-0.2,0.2-0.4,0.3-0.6,0.4v35.9
	c0.2,0.1,0.3,0.3,0.5,0.7c0.2,0.4,0.3,0.7,0.3,0.9c0,0.1-0.1,0.2-0.4,0.4c-0.3,0.2-0.4,0.3-0.4,0.4v0.4c0,0.2,0.5,1,1.5,2.1
	c1,1.2,2.1,2.4,3.4,3.7c1.3,1.3,2.6,2.5,3.8,3.5c1.3,1.1,2.2,1.6,2.7,1.6c0.8,0,1.4-0.4,1.8-1.1c0.4-0.7,0.6-1.5,0.6-2.2
	s-0.2-1.4-0.5-1.9c-0.4-0.5-0.8-1-1.2-1.5c-0.4-0.5-0.8-1-1.2-1.5c-0.4-0.5-0.5-1.2-0.5-1.9c0-0.6,0-1,0.1-1.2
	c0.7-0.1,1.8-0.2,3.5-0.3c1.7-0.1,3.5-0.2,5.4-0.3c1.9-0.1,3.7-0.1,5.4-0.2c1.7,0,2.9-0.1,3.5-0.1h2.8c0.8,0,1.5,0.1,2,0.4
	s0.9,0.5,1.2,0.9c0.3,0.3,0.7,0.6,1,0.9c0.4,0.2,0.9,0.4,1.5,0.4c0.8,0,1.6-0.2,2.4-0.5c0.8-0.3,1.2-1,1.3-2
	c3.9-0.3,6.7-1.4,8.3-3.3c1.7-2,2.9-3.8,3.5-5.6c0.7-2,1.4-3.9,1.9-5.7c0.5-1.7,1.6-2.9,3.4-3.4c0.2,0,0.5,0.1,0.9,0.3
	c0.4,0.2,0.7,0.4,0.8,0.5c0,0.6,0,1.5,0.1,2.9c0.1,1.4,0.2,2.8,0.2,4.4c0.1,1.5,0.2,3,0.2,4.4c0.1,1.4,0.1,2.4,0.1,2.9V95.6z
	 M223.7-0.4c5.4,4.6,10.5,9.4,15.4,14.6c0.1,0.1,0.1,0.2,0.1,0.4c0,0.7-0.3,1.1-0.8,1.5c-0.5,0.3-1.1,0.6-1.8,0.9
	c-0.7,0.2-1.4,0.5-2.1,0.7c-0.7,0.2-1.3,0.4-1.8,0.7c-0.7,0.5-1.6,1.1-2.7,1.8s-2.2,1.4-3.2,2.1c-1.1,0.7-2,1.3-2.7,1.8
	c-0.7,0.5-1.1,0.8-1.1,0.9v1.6c1.7,0.3,3.2,0.9,4.3,1.8c1.2,0.9,2.3,1.8,3.3,2.9c1,1.1,2,2.3,2.9,3.6c0.9,1.3,2,2.6,3.2,3.9v0.9
	l-8.1-7.3c-0.5,0.1-0.8,0.3-0.8,0.6c0,0.3-0.1,0.7-0.1,1c0,0.9,0.1,1.7,0.4,2.6c0.2,0.8,0.5,1.6,0.9,2.4c0.3,0.8,0.6,1.7,0.9,2.6
	c0.2,0.9,0.4,1.9,0.4,3l0.9,0.7c0.1,0.2,0.3,0.4,0.7,0.7c0.4,0.3,0.7,0.5,0.9,0.5h-6.5l-2.1,2.1v35.7c0,2-0.7,3.6-2,5.1
	c-1.3,1.4-2.9,2.6-4.8,3.6c-1.9,1-3.8,1.7-5.9,2.1c-2,0.4-3.8,0.7-5.4,0.7h-2.8c-0.5-0.2-0.9-0.7-1.1-1.3c-0.2-0.6-0.4-1.3-0.5-2.1
	c-0.1-0.7-0.2-1.5-0.2-2.2s0-1.3,0-1.7h3.3c0-0.5-0.2-1.1-0.5-1.7c-0.3-0.7-0.8-1.3-1.3-1.9c-0.5-0.6-1.1-1.1-1.7-1.6
	s-1.2-0.6-1.6-0.6h-0.4c-0.1,0-0.4,0.1-0.9,0.4c-0.5,0.3-0.8,0.4-0.9,0.4c-0.6,0-1.3-0.2-2.3-0.6c-1-0.4-1.9-0.9-2.9-1.6
	c-0.9-0.6-1.8-1.3-2.4-2.1c-0.7-0.8-1-1.5-1-2.2h16.8V47.6l-0.9-0.7h-19.5c-0.3,0-1-0.1-2-0.4c-1-0.2-1.7-0.4-2-0.5
	c1.7,0.1,3.3-0.2,4.7-0.8c1.4-0.6,2.3-1.8,2.6-3.7H205l1.2-1.2V26.5c0.4,0,0.9,0,1.5-0.1c0.6,0,1.2-0.1,1.8-0.3
	c0.6-0.2,1.2-0.4,1.6-0.7c0.5-0.3,0.9-0.8,1.1-1.3c0.2,0,0.5,0.4,0.7,1.2c0.2,0.8,0.4,1.6,0.5,2.6c0.2,1,0.3,2,0.4,2.9
	c0.1,1,0.1,1.6,0.1,2c0,1.1-0.1,1.9-0.2,2.6c-0.1,0.7-0.6,1.5-1.5,2.5v11.5c0,0.3,0.3,0.5,1,0.7c0.7,0.1,1.2,0.2,1.4,0.2
	c0.4,0,0.7,0,0.9-0.1c0.5-2.1,0.8-4.3,0.9-6.5c0.1-2.2,0.1-4.4,0-6.5c1.8-2.8,4.2-4.4,7.3-4.9v1.3c1.1,0,1.7-0.6,2-1.8
	c0.2-1.2,0.4-2.3,0.4-3.2c-1.4,0-2.9-0.1-4.6-0.2c-1.7-0.1-3.1-0.8-4.3-1.9c-0.2-0.2-0.2-0.5,0-0.9l-4-4v-7.3
	c-3.4-0.3-7.3-0.5-11.6-0.7c-4.3-0.1-8.6-0.2-13-0.2c-4.4,0-8.5,0-12.5,0c-4,0-7.4,0.1-10.1,0.1c0-0.2-0.1-0.9-0.3-2
	c-0.2-1.1-0.6-1.8-1.3-2c-0.8,0.4-1.4,1-1.8,1.9c-0.4,0.9-0.6,1.7-0.7,2.6h-13.1c-0.4,0-0.7,0.4-1,1.2c-0.2,0.8-0.4,1.7-0.5,2.7
	c-0.1,1.1-0.2,2.1-0.4,3.1c-0.1,1-0.3,1.8-0.5,2.3c-1.2,2.7-2.8,5-4.6,7c-1.9,2-4.4,2.9-7.6,2.9l-1.6-0.1c0.4-0.1,1.1-0.3,2-0.5
	c0.9-0.3,1.3-0.8,1.3-1.4c0-0.5-0.4-1.1-1.3-1.8c-0.9-0.7-1.5-1.1-2-1.1c-0.1,0.1-0.3,0.3-0.8,0.7c-0.4,0.4-0.7,0.7-0.8,1
	c-0.1,0-0.1,0.1-0.1,0.4s0,0.4,0.1,0.4c0,0.2,0.1,0.4,0.3,0.9c0.2,0.4,0.3,0.7,0.4,0.9h-1.6c-0.9,0-1.7-0.3-2.3-1
	c-0.7-0.7-1.2-1.4-1.5-2.4c-0.4-0.9-0.6-1.9-0.8-2.9c-0.2-1-0.2-1.8-0.2-2.4c0-1.3,0.5-2.7,1.5-4.3c1-1.6,2.2-3.1,3.7-4.5
	c1.4-1.4,2.9-2.6,4.5-3.8c1.6-1.1,2.9-2,4.1-2.4c0.1,0,0.4,0.1,0.9,0.4c0.5,0.3,0.8,0.4,0.9,0.4c0.2,0.1,0.7,0.1,1.5-0.1
	c0.7-0.1,1.2-0.2,1.5-0.2c0-0.5-0.2-0.9-0.5-1.3c-0.3-0.4-0.7-0.7-1-1c-0.4-0.3-0.7-0.7-1-1.1c-0.3-0.4-0.5-0.9-0.5-1.5
	c0-0.8,0.1-1.7,0.2-2.6c0.1-0.9,0.7-1.3,1.8-1.3c1,0,1.7,0.4,2.1,1.2c0.4,0.8,0.8,1.6,1,2.6c0.2,0.9,0.5,1.8,0.8,2.6
	c0.3,0.8,0.8,1.2,1.5,1.2h65c0.3-0.3,0.9-0.8,1.6-1.5c0.8-0.7,1.6-1.4,2.4-2.2c0.9-0.8,1.7-1.5,2.4-2.2c0.8-0.7,1.3-1.2,1.6-1.4
	c0.1-0.1,0.3-0.2,0.7-0.4c0.4-0.2,0.7-0.3,0.9-0.4H223.7z M165.2,33.8c-0.2-0.1-0.6-0.2-1-0.3c-0.4-0.1-0.9-0.3-1.5-0.4
	c-0.5-0.2-1-0.3-1.5-0.5c-0.4-0.2-0.8-0.3-0.9-0.4c0.2-0.6,0.5-1.3,0.9-2.3c0.4-1,1-1.9,1.6-2.9c0.6-0.9,1.3-1.8,2-2.5
	c0.7-0.7,1.4-1.2,2-1.3c0.7-0.1,2,0.5,3.7,1.6c1.7,1.2,3.4,2.6,5.2,4.2c1.7,1.6,3.3,3.2,4.6,4.8c1.3,1.5,2,2.6,2,3.3
	c0,0.8-0.4,1.4-1.2,1.8c-0.8,0.4-1.5,0.6-2.1,0.6h-46.4c-0.3,0-0.6-0.2-0.9-0.5c-0.3-0.4-0.5-0.8-0.8-1.3c-0.2-0.5-0.4-1-0.5-1.4
	c-0.1-0.4-0.2-0.8-0.2-0.9c0-0.1,0.1-0.2,0.3-0.4c0.2-0.2,0.4-0.3,0.5-0.3l27.6-0.9c0,0.5,0.2,1.2,0.6,2.1c0.4,0.9,1,1.3,1.8,1.2
	l4.1-1.7h1.3c1.1,0,1.8,0.2,2.4,0.7c0.5,0.4,1.2,1.3,1.9,2.6c0.1-0.8,0.3-1.5,0.7-2.1c0.4-0.6,0.8-1.1,1.2-1.6
	c0.4-0.5,0.8-1,1.2-1.5c0.4-0.5,0.5-1.1,0.5-1.8c-1.5,0-3,0.3-4.3,1c-1.3,0.7-2.7,1-4.1,1H165.2z M141.8,76.9c0-0.4-0.1-0.9-0.2-1.5
	c-0.2-0.6-0.6-0.9-1.2-0.9c-1.6,0-2.4,0.8-2.4,2.4H141.8z M152.1,36.4c-1.3,0-2.6-0.2-3.8-0.5c-1.2-0.4-2.5-0.5-3.8-0.5
	c0,1.3,0.4,2.2,1.2,2.7c0.8,0.5,1.8,0.7,3.1,0.7c0.5,0,1.2-0.1,2-0.3c0.9-0.2,1.3-0.4,1.3-0.5V36.4z M159.5,54.9
	c-0.1-0.3-0.4-0.6-0.9-0.7c0-0.1-0.1-0.1-0.4-0.1c-0.5,0-0.9,0.2-1.1,0.7c-0.2,0.4-0.4,0.9-0.4,1.3c0.4,0,0.9,0,1.5-0.1
	C158.9,55.8,159.3,55.5,159.5,54.9z M159.5,80.9h-0.9v1.6h0.9V80.9z M169.5,70.9c-0.2,0-0.8,0.2-1.6,0.7c-0.8,0.5-1.7,1.1-2.6,1.7
	c-0.9,0.7-1.7,1.3-2.4,1.9c-0.7,0.6-1,1-1,1.3c0,0.8,0.3,1.2,1,1.3c0.7,0,1.3,0.1,1.8,0.1l2.1-0.1c0.6-0.9,1.2-2,1.8-3.2
	C169.2,73.3,169.5,72.1,169.5,70.9z M173.2,113.5c0.4,0,0.6-0.3,0.6-0.8c0-0.5-0.2-0.8-0.6-0.8c-0.4,0-0.6,0.3-0.6,0.8
	C172.6,113.2,172.8,113.5,173.2,113.5z M174.1,54.9h-0.9v0.9h0.9V54.9z M183,98.1c-0.1,0.7-0.3,1.5-0.6,2.2
	c-0.3,0.7-0.9,1.1-1.8,1.1c-0.9,0-1.4-0.3-1.6-1c-0.2-0.7-0.2-1.4-0.2-2.3H183z M180.6,46c-0.4,0-0.6-0.3-0.6-0.8
	c0-0.5,0.2-0.8,0.6-0.8c0.4,0,0.6,0.3,0.6,0.8C181.2,45.7,181,46,180.6,46z M181.4,42c-0.1,0.2-0.2,0.4-0.4,0.4
	c-0.2,0-0.3-0.1-0.4-0.4c0-0.2,0.2-0.4,0.5-0.4C181.4,41.6,181.5,41.7,181.4,42z M184.7,48.1c2,0,4.2,0.4,6.6,1.2
	c2.4,0.8,4.6,1.9,6.6,3.4c2,1.4,3.7,3.1,5.1,5c1.4,1.9,2.1,4,2.1,6.3c0,1.2-0.3,2.4-0.8,3.5c-0.5,1.1-1.2,2.1-2.1,2.9
	c-0.9,0.8-1.9,1.4-3.1,1.9c-1.1,0.4-2.3,0.7-3.4,0.7c-1.6,0-3.1-0.4-4.4-1.1s-2.4-1.7-3.4-2.9c0-0.7,0-1.6-0.1-2.7
	c0-1.1-0.1-2.1-0.3-3.2c-0.2-1.1-0.5-2.2-0.9-3.2c-0.4-1-1.1-1.8-1.9-2.4c0.1-0.3,0.3-0.6,0.7-0.7c0.1-0.1,0.2-0.1,0.5-0.1
	c0.6,0,1,0.1,1.4,0.4c0.4,0.3,0.7,0.6,1.1,0.9c0.4,0.3,0.8,0.6,1.3,0.9c0.5,0.3,1.3,0.4,2.3,0.4c0.3,0,0.8-0.2,1.5-0.7
	c0.6-0.4,1-0.9,1-1.4c0-0.5-0.5-1.2-1.4-2c-0.9-0.9-2-1.7-3.2-2.6c-1.2-0.9-2.3-1.7-3.4-2.3c-1.1-0.6-1.7-1-1.8-1V48.1z M195.2,11.8
	c0.2-0.2,0.4-0.4,0.4-0.9c0-0.4-0.1-0.6-0.4-0.7c-0.2-0.2-0.4,0.1-0.4,0.8C194.8,11.7,195,12,195.2,11.8z M199.5,42.5
	c-1.2,0-2.1,0.1-2.7,0.4c-0.6,0.3-0.9,1.1-0.9,2.4c0.8,0,1.6-0.2,2.4-0.7C199.1,44,199.5,43.3,199.5,42.5z M205.8,89.9
	c0.4,0,0.6-0.3,0.6-0.8c0-0.5-0.2-0.8-0.6-0.8c-0.4,0-0.6,0.3-0.6,0.8C205.2,89.6,205.4,89.9,205.8,89.9z M206.7,90.8
	c0.2-0.1,0.4-0.2,0.4-0.4c0-0.2-0.1-0.3-0.4-0.4c-0.2-0.1-0.4,0-0.4,0.4C206.3,90.6,206.4,90.8,206.7,90.8z M207.4,92.4
	c0,0.3,0,0.7,0.1,1c0.1,0.3,0.3,0.5,0.7,0.6c0.1-0.2,0.1-0.4,0.1-0.7c0-0.4,0-0.8-0.1-1c-0.1-0.3-0.4-0.5-0.9-0.7V92.4z M208.3,75.3
	c0,0.2,0.3,0.7,1,1.3c0.6,0.7,1.4,1.3,2.3,2c0.9,0.7,1.7,1.3,2.4,2c0.8,0.6,1.3,1,1.6,1.2c0.1-0.2,0.1-0.6,0.1-1.2
	c0-0.5-0.3-1.1-0.9-1.8c-0.6-0.7-1.3-1.4-2.1-2.1c-0.8-0.6-1.6-1.2-2.5-1.7s-1.5-0.7-1.9-0.7V75.3z M216.5,84.1
	c0,0.6,0.2,0.9,0.6,0.9c0.4,0,0.6-0.3,0.6-0.8c0-0.5-0.2-0.8-0.6-0.8H217c0-0.6-0.2-0.9-0.6-0.9c-0.4,0-0.6,0.3-0.6,0.8
	c0,0.5,0.2,0.8,0.6,0.8H216.5z M217,83.3c-0.3,0-0.5,0.2-0.5,0.7C216.9,84.1,217,83.8,217,83.3z M221.3,99.7
	c-0.2-0.3-0.5-0.6-0.9-0.9h-0.9c-0.4,0.2-0.7,0.5-0.7,0.9l2.4,0.9V99.7z M236.8,14.6c0-0.2,0-0.3-0.1-0.4c-0.2-0.2-0.5-0.7-1.2-1.3
	s-1-1-1.3-1.2c0-0.1-0.1-0.1-0.4-0.1c-0.7,0-1.2,0.3-1.5,0.9c-0.4,0.6-0.5,1.1-0.5,1.7c0,0.8,0.2,1.3,0.7,1.5c0.4,0.2,1,0.2,1.8,0.2
	c0.5,0,1,0,1.6-0.1C236.5,15.8,236.8,15.4,236.8,14.6z M240.1,44c0,1.1-0.4,1.7-1.2,1.8c-0.8,0.2-1.7,0.2-2.6,0.2l-2.1-0.1
	c1.8-0.2,3-0.5,3.7-1.2c0.7-0.6,0.8-1.8,0.5-3.7c0.7,0.3,1.2,0.7,1.4,1.2C240,42.8,240.1,43.4,240.1,44z M237.5,41.1
	c-0.4,0-0.6-0.3-0.6-0.8c0-0.5,0.2-0.8,0.6-0.8c0.4,0,0.6,0.3,0.6,0.8C238.1,40.8,237.9,41.1,237.5,41.1z M239.1,98.8
	c-0.2,0.1-0.4,0-0.4-0.4c0-0.3,0.1-0.4,0.4-0.4c0.2,0,0.4,0.1,0.4,0.4S239.4,98.8,239.1,98.8z"/>
<path class="st0" d="M363.6,24l-1.6,2.1h-25.3l-1.6,1.2c0.2,0,0.5,0.2,0.9,0.7c0.4,0.4,0.7,0.7,0.7,0.9c-0.2,0.2-0.3,0.4-0.4,0.6
	c-0.1,0.2-0.2,0.3-0.2,0.5c-0.1,0.2-0.1,0.3-0.1,0.4c-0.2,0.2-0.4,0.7-0.9,1.3c-0.4,0.6-0.7,1-0.9,1.1V41h3.3l6.5-6.5
	c0.1-0.1,0.3-0.1,0.7-0.1c1,0,2.1,0.3,3.4,1c1.3,0.7,2.5,1.4,3.7,2.3c1.2,0.9,2.3,1.8,3.2,2.8c1,0.9,1.7,1.7,2.1,2.2
	c-1.1,0.2-1.9,0.7-2.6,1.2c-0.7,0.6-1.3,1.1-1.9,1.7c-0.6,0.5-1.3,1-2,1.5c-0.7,0.5-1.7,0.7-2.9,0.7c-1.1,0-1.9-0.2-2.6-0.5
	c-0.7-0.3-1.4-0.5-2.3-0.5c-0.2,0-0.4,0-0.4,0.1c-0.8,0.6-1.4,1-1.9,1.4c-0.4,0.4-0.7,1-0.7,1.8c0,0.2,0.2,0.7,0.7,1.6
	c0.5,0.9,1,2,1.6,3.1s1.2,2.1,1.8,3c0.6,0.9,1,1.3,1.2,1.3c0.7,0,1.3-0.1,1.8-0.4c0.6-0.3,1.2-0.4,2-0.4c1.1,0,2,0.4,2.6,1.2
	c0.6,0.8,1,1.7,1.2,2.8c0.2,1.1,0.3,2.2,0.3,3.4c0,1.2,0,2.1,0,2.9c0,1.1-0.3,2.1-1,2.9c-0.7,0.8-1.4,1.6-2.3,2.3
	c1.1,1.5,2,2.8,2.9,4c0.9,1.2,1.3,2.7,1.3,4.4c0,1.2-0.2,2.3-0.5,3.4c-0.3,1-0.5,2.1-0.5,3.2c0,0.2,0,0.6,0.1,1.1
	c0,0.5,0.1,1,0.2,1.5c0.1,0.5,0.3,0.9,0.5,1.3c0.2,0.4,0.5,0.6,0.9,0.6c0.2,0,0.4-0.1,0.9-0.3c0.4-0.2,0.7-0.4,0.7-0.5
	c-1.1,3.2-3.1,5.7-5.8,7.7c-2.7,2-5.8,2.9-9.2,2.9h-2.8c-0.7-1.1-1-2.4-1.1-3.7c-0.1-1.3-0.1-2.6-0.1-3.9c0-1.3-0.1-2.6-0.4-3.8
	c-0.2-1.2-0.8-2.3-1.7-3.3c-0.1-0.1-0.2-0.1-0.4-0.1c-0.2,0-0.4,0-0.5,0.1l-0.7,0.4c-0.2,0.1-0.3,0.2-0.5,0.4v23.7
	c0,1.1-0.9,1.9-2.6,2.4c-1.8,0.6-3.7,1-5.9,1.3c-2.2,0.3-4.2,0.4-6,0.5c-1.9,0-3,0.1-3.3,0.1V49.5c-0.6,0-1.3,0.3-2.3,1
	c-1,0.7-1.9,1.4-2.9,2.2c-0.9,0.8-1.8,1.6-2.4,2.5c-0.7,0.9-1,1.4-1,1.8c0,0.2,0,0.4,0.1,0.4c0,0.2,0.1,0.6,0.4,1
	c0.2,0.4,0.4,0.7,0.4,0.7h0.9c0.1-0.2,0.3-0.6,0.8-1.3c0.4-0.7,0.7-1.1,0.8-1.2c0.2-0.2,0.5-0.4,0.9-0.4v16.8c-1.3,0-2.8,0-4.5-0.1
	c-1.7-0.1-3.2-0.4-4.5-1c-0.1,0.2-0.1,0.5-0.1,0.9c0,0.1,0,0.2,0,0.4c0,0.2,0,0.3,0.1,0.4c0.1,0.2,0.3,0.5,0.6,1
	c0.3,0.5,0.7,1,1,1.5c0.3,0.5,0.6,1,1,1.5c0.3,0.5,0.5,0.8,0.6,1h0.9c0.1-0.1,0.3-0.2,0.7-0.4c0.4-0.2,0.8-0.3,1.3-0.5
	c0.4-0.2,0.9-0.3,1.3-0.5c0.4-0.2,0.6-0.3,0.7-0.4c0.2-0.1,0.5-0.1,0.9-0.1v21.4c0,1.1-0.6,2.1-1.8,2.8c-1.2,0.7-2.5,1.3-4.1,1.8
	c-1.5,0.4-3.1,0.8-4.6,0.9c-1.5,0.2-2.7,0.2-3.4,0.2c-0.3,0-0.8,0-1.4,0c-0.6,0-0.9,0-0.9-0.1l-1.2-0.7V56.7c-0.1,0-0.3,0-0.6-0.1
	c-0.3-0.1-0.5-0.1-0.6,0c-0.5,0.2-0.9,0.3-1.2,0.4c-0.3,0.1-0.6,0.2-0.9,0.4v44.8c0,2.5-0.5,4.7-1.6,6.6c-1.1,1.9-2.5,3.5-4.2,4.8
	c-1.8,1.3-3.7,2.3-5.9,3c-2.2,0.7-4.4,1-6.7,1c-0.3,0-0.6,0-0.9-0.1c-0.2,0-0.4-0.3-0.6-0.8c-0.2-2.2-0.4-4.1-0.6-5.6
	c-0.2-1.5-0.7-2.9-1.3-4.1c-0.6-1.2-1.5-2.3-2.6-3.4c-1.1-1-2.6-2.1-4.5-3.1v-0.9c0-0.3,0-0.7,0.1-1c0.1-0.3,0.3-0.5,0.7-0.6h8.2
	c0.2-0.1,0.6-0.2,1-0.4c0.4-0.2,0.6-0.3,0.6-0.4V72.8c0-0.6-0.4-0.9-1.1-0.9s-1.2,0-1.3,0c-0.9,0-1.8,1.1-2.6,3.3
	c-0.8,2.2-1.7,5-2.7,8.3c-1,3.3-2,6.9-3.2,10.8c-1.1,3.9-2.4,7.5-3.9,10.8s-3.1,6.1-5,8.3c-1.9,2.2-4,3.3-6.3,3.3
	c-1.1,0-1.6-0.5-1.6-1.6c0-0.8,0.1-1.9,0.4-3.2c0.3-1.3,0.6-2.6,1-4c0.4-1.3,0.7-2.6,1.1-3.7c0.4-1.1,0.6-1.8,0.8-2.3
	c0.1-0.1,0.2-0.1,0.4-0.1c0.2,0,0.4,0,0.5,0.1l3.2,3.3h0.1c0.1,0,0.2,0,0.2-0.1l0.2-0.2c0-1-0.4-1.9-1.2-2.7
	c-0.8-0.9-1.6-1.4-2.6-1.8l-0.1-2.1c0-2.4,0.2-4.7,0.5-7.1c0.3-2.4,0.7-4.8,1.2-7.1c1.3-0.4,2.3-1.1,3-2c0.7-0.9,1.4-1.8,2.1-2.7
	c0.7-0.9,1.5-1.8,2.4-2.6c0.9-0.8,2.2-1.3,3.8-1.6v-4.9c0.1-0.2,0.2-0.6,0.5-1.2c0.2-0.7,0.4-1.1,0.4-1.2c0-0.1-0.1-0.3-0.3-0.8
	c-0.2-0.4-0.4-0.7-0.5-0.8c-0.3-0.4-0.8-0.9-1.3-1.5c-0.5-0.6-1-1.1-1.5-1.6c-0.5-0.5-0.9-0.9-1.3-1.3c-0.4-0.4-0.7-0.5-0.7-0.5h-1
	c0,1.1,0,2.5,0.1,4.1c0.1,1.6,0,3.3-0.1,4.9c-0.2,1.6-0.6,3.1-1.3,4.5c-0.7,1.3-1.8,2.3-3.4,2.7v-75c1.7,0,3.4,0.3,4.9,0.8
	c1.6,0.5,3.2,1.1,4.8,1.8c1.6,0.7,3.2,1.3,4.8,1.8c1.6,0.5,3.2,0.8,4.9,0.8l1.7-0.1l6.5-6.6h0.7c0.7,0,1.6,0.3,2.6,0.8
	c1,0.5,1.9,1.1,2.8,1.8c0.9,0.7,1.7,1.3,2.4,2c0.7,0.6,1.1,1,1.3,1.2C288,7,288,7.2,288,7.3c0,0.2,0,0.4-0.1,0.5
	c-0.2,0.4-0.4,0.7-0.7,0.7v6.6l-0.9,0.7c-0.1,0.1-0.4,0.1-1,0.2c-0.6,0-1.1,0.1-1.4,0.1c-1.4,0-2.6-0.1-3.8-0.3
	c-1.1-0.2-2.3-0.7-3.5-1.5c-0.1,0.1-0.1,0.2-0.1,0.4c0,0.2,0,0.4,0.1,0.5c0.1,0.1,0.4,0.5,0.9,1.3c0.5,0.8,1.1,1.6,1.8,2.5
	c0.7,0.9,1.3,1.7,1.8,2.4c0.6,0.7,0.9,1.1,1.1,1.1c1.5,0,2.7-0.2,3.4-0.5c0.7-0.4,1.2-0.9,1.5-1.5c0.3-0.6,0.5-1.4,0.7-2.3
	c0.2-0.9,0.5-1.9,1-2.9c0.4-0.8,0.8-1.4,1.2-1.7c0.4-0.3,0.8-0.6,1.2-0.9c0.4-0.2,0.7-0.5,1-0.8c0.3-0.3,0.5-0.8,0.7-1.5
	c0.6,0.8,1,1.6,1,2.4c0,0.7-0.2,1.2-0.5,1.6c-0.4,0.4-0.8,0.8-1.2,1.2c-0.4,0.4-0.9,0.8-1.2,1.2c-0.4,0.4-0.5,1-0.5,1.7
	s0.2,1.6,0.5,2.7c0.3,1.1,1,1.6,2.1,1.6c1.1,0,1.6-0.4,1.7-1.3H314c0.2-0.2,0.3-0.3,0.4-0.5l0.4-0.7c0.2-0.2,0.3-0.6,0.5-1
	c0.2-0.4,0.3-0.6,0.3-0.7V2.9l0.9-0.9l3.8-0.1c3,0,5.7,0.1,8.1,0.2c2.4,0.1,5.2,0.4,8.4,0.8c0.9-0.2,1.4,0,1.6,0.5
	c0.2,0.5,0.2,1,0.2,1.4c0,1.1-0.3,2-0.9,2.6c-0.6,0.6-1.4,1.2-2.6,1.9v13.8c0,0.6,0.2,1,0.5,1.2c0.3,0.2,0.7,0.4,1.1,0.5
	c0.4,0.1,0.8,0.1,1.3,0.1c0.4,0,0.8-0.1,1-0.1s0.6,0,1.1,0.1c0.5,0,1,0,1.5-0.1c0.5-0.1,0.9-0.2,1.2-0.5c0.3-0.2,0.5-0.6,0.5-1.1
	c0-2.2-1.1-3.3-3.3-3.3l2.4-3.3l0.9-0.9h0.4c2.1,0,3.8,0.5,5,1.4c1.2,0.9,2.3,2,3.2,3.1c0.9,1.1,1.8,2.2,2.7,3.1
	c0.9,0.9,2.2,1.4,3.7,1.4c1.1,0,1.9-0.1,2.4-0.4c0.4-0.3,0.9-1,1.3-2L363.6,24z M266,44.3c-0.3,0-0.6,0-0.7,0.1
	c-0.1,0-0.4,0.1-0.9,0.4c-0.5,0.2-0.8,0.4-0.9,0.4c0,0.1-0.1,0.1-0.4,0.1c-0.2,0-0.4,0-0.4-0.1c-0.2,0-0.3,0-0.4-0.1
	c-0.1-0.1-0.3-0.2-0.4-0.2c-0.2-0.1-0.3-0.2-0.4-0.4v-8.2h-6.2c0,0.9,0.2,1.8,0.5,2.6c0.3,0.8,0.5,1.7,0.5,2.6c0,0.2,0,0.5,0,0.9
	c0,0.3,0,0.5-0.1,0.5l-4.9,4.9v0.9c0.2,0.3,0.5,0.6,0.9,0.9h0.4c0.5,0,1-0.2,1.4-0.5c0.4-0.3,0.9-0.7,1.4-1.2c0.5-0.4,1-0.8,1.5-1.2
	c0.5-0.3,1.1-0.5,1.8-0.5c0.6,0,1.3,0.1,1.8,0.4c0.6,0.3,1.2,0.4,1.8,0.4h0.5c0.2-0.1,0.5-0.2,0.9-0.3c0.3-0.1,0.7-0.2,1.1-0.3
	L266,46V44.3z M261.7,58.2c0,0.7,0.4,1.3,1.1,1.6c0.7-0.4,1-0.9,1-1.6H261.7z M270.8,13.2c-0.2,0-0.5,0-1.2,0.1
	c-0.6,0.1-1,0.1-1.3,0.1c-0.1,0.1-0.2,0.2-0.4,0.4c-0.2,0.2-0.3,0.3-0.3,0.4v21.1c0,0.2,0.2,0.3,0.6,0.5c0.4,0.2,0.7,0.3,1,0.3
	s0.6-0.1,1-0.3c0.4-0.2,0.6-0.4,0.6-0.5V13.2z M271.7,115.4c1.2,0,2.8-0.3,4.6-0.9c1.9-0.6,3.7-1.4,5.4-2.4c1.7-1,3.2-2.2,4.5-3.5
	c1.3-1.3,1.9-2.6,1.9-4c0-1.1-0.6-1.7-1.7-1.7c-0.3,0-0.6,0-0.9,0.1c-1.4,2.6-3.3,5-5.7,7.3c-2.4,2.2-5.1,3.6-8.1,4.1V115.4z
	 M287.9,83.4c-0.7-0.3-1.2-0.8-1.5-1.5c-0.2-0.7-0.5-1.3-0.7-1.9c-0.2-0.6-0.5-1.2-1-1.6c-0.4-0.5-1.3-0.7-2.5-0.7
	c-0.2,0-0.5,0.4-0.7,1.2c-0.2,0.8-0.4,1.7-0.5,2.7c-0.2,1-0.3,2-0.4,3c-0.1,1-0.1,1.6-0.1,2c0,0.4,0.2,0.9,0.5,1.3
	c0.4,0.5,0.8,0.9,1.3,1.3c0.5,0.4,1.1,0.8,1.6,1c0.5,0.3,1,0.4,1.4,0.4c0.1,0,0.3-0.1,0.7-0.3c0.4-0.2,0.7-0.4,1-0.5
	c0.1-0.1,0.2-0.2,0.4-0.4c0.2-0.2,0.3-0.3,0.3-0.4V83.4z M314.8,27.2h-24.4v14.6h2.9v-5.4l1.3-0.2c0.4-0.1,0.8-0.1,1.2-0.2
	c0.4,0,0.8,0,1.1,0.1c1.2,0.2,2.4,0.7,3.6,1.2c1.2,0.6,2.4,1.1,3.5,1.7c1.2,0.6,2.4,1.1,3.5,1.5c1.2,0.4,2.5,0.7,3.8,0.7
	c0.3,0,0.8,0,1.4-0.1c0.6-0.1,1-0.1,1.2-0.1l0.7-0.9V27.2z M296.1,68v-0.9h-0.9V68H296.1z M295.2,88.4c0.6,0,1.3-0.1,2.3-0.3
	c0.9-0.2,1.4-0.7,1.4-1.5h-3.7V88.4z M311.6,22.4c0-0.2-0.2-0.4-0.5-0.4c-0.3,0-0.4,0.1-0.4,0.4c0.1,0.2,0.2,0.4,0.4,0.4
	S311.5,22.7,311.6,22.4z M317.2,32.2c-0.2-0.1-0.3,0-0.3,0.2c0,0.2-0.1,0.5-0.1,0.9s0,0.7,0.1,1c0.1,0.3,0.2,0.4,0.2,0.3
	c0.2-0.2,0.4-0.7,0.4-1.3S317.4,32.4,317.2,32.2z M325.4,90.8l6.6-5.6c0-0.5,0-0.8-0.1-1c-0.1-0.2-0.3-0.4-0.7-0.7
	c-0.2-0.2-0.7-0.6-1.3-1c-0.6-0.4-1.3-0.9-2-1.5c-0.7-0.5-1.4-1-2-1.5c-0.7-0.4-1.1-0.8-1.3-0.9c-0.2-0.1-0.7-0.1-1.2-0.1
	c-1.3,0-2.6,0.6-4,1.7c-1.4,1.1-2.1,2.4-2.1,3.7c0,0.5,0.4,1.1,1.1,1.9c0.7,0.8,1.5,1.5,2.4,2.3c0.9,0.8,1.8,1.4,2.6,2
	c0.9,0.5,1.4,0.8,1.6,0.8H325.4z M327.8,37c-2.4,0-4.4,0.2-5.9,0.7c-1.5,0.5-2.3,2.1-2.3,4.8c0.3,0,0.9-0.1,1.8-0.2
	c0.9-0.2,1.8-0.4,2.7-0.6c0.9-0.2,1.8-0.5,2.5-0.9c0.7-0.4,1.1-0.8,1.1-1.2V37z M322.1,110.3c0.2,0.1,0.6,0.1,1.2,0.1
	c2,0,2.9-1,2.9-2.9c0-1.8-0.6-2.9-1.8-3.3c-1.2-0.4-2.5-0.6-4.1-0.6l0.1,1c0.2,0.6,0.6,1.2,1.3,1.9c0.7,0.7,1.1,1.3,1.1,1.8v0.4
	L322.1,110.3z M323.3,21.6c0.9,0,1.6-0.1,2.3-0.4c0.6-0.2,1.2-0.5,1.9-0.7c0.7-0.2,1.4-0.5,2.3-0.7c0.9-0.2,1.9-0.4,3.2-0.4
	c0-1.3-0.4-2.2-1.3-2.7c-0.9-0.5-1.9-0.8-3.1-0.8c-0.5,0-1.1,0.1-1.9,0.3c-0.8,0.2-1.5,0.5-2.1,0.9c-0.7,0.4-1.2,0.8-1.7,1.3
	c-0.5,0.5-0.7,1.1-0.7,1.7C322.1,21.1,322.5,21.6,323.3,21.6z M322.9,46c0.4,0.7,1,1,1.8,1c0-0.8-0.3-1.4-1-1.8L322.9,46z
	 M332.7,32.2l-0.9,0.7h0.9V32.2z M337.6,47.3l-3.3,0.2c-0.1,0.1-0.2,0.2-0.4,0.4c-0.2,0.2-0.3,0.3-0.3,0.4v33.3l1.3,2.1l2.7-1.2
	V47.3z M345.1,70.1c-0.8,0-1.5,0.1-2.1,0.4c-0.6,0.3-0.9,0.8-0.9,1.6c0.8,0,1.5-0.1,2.1-0.4C344.9,71.6,345.1,71,345.1,70.1z
	 M348.9,11.8l-1.6-0.9h0.9c0.3,0,0.6,0,0.9,0.1c0.3,0.1,0.5,0.3,0.7,0.7H348.9z M352.2,14.3c-0.2-0.1-0.4-0.3-0.9-0.8
	c-0.4-0.4-0.7-0.7-0.7-0.8c0.1-0.1,0.2-0.1,0.4-0.1c0.2,0,0.4,0,0.4,0.1c0.2,0.1,0.4,0.3,0.9,0.7c0.4,0.4,0.7,0.7,0.9,0.9H352.2z
	 M353.8,15.9c-0.4,0-0.6-0.3-0.6-0.8c0-0.5,0.2-0.8,0.6-0.8c0.4,0,0.6,0.3,0.6,0.8C354.4,15.6,354.2,15.9,353.8,15.9z M355.5,15.9
	c0.1,0.2,0.3,0.4,0.6,0.7c0.3,0.3,0.7,0.6,1,1c0.4,0.4,0.7,0.7,1,1c0.3,0.3,0.5,0.5,0.5,0.6c-0.1,0.1-0.2,0.1-0.4,0.1
	c-0.2,0-0.4,0-0.4-0.1c-0.3-0.2-0.9-0.8-1.7-1.6c-0.8-0.8-1.3-1.4-1.6-1.7H355.5z M356.2,50c-0.2-0.1-0.2-0.3,0.2-0.6
	c0.4-0.3,0.6-0.4,0.7-0.1c0.1,0.2,0,0.5-0.2,0.7C356.7,50.2,356.5,50.2,356.2,50z M357.9,42.7c0.4,0,0.6,0.3,0.6,0.9
	c0,0.6-0.2,0.9-0.6,0.9c-0.4,0-0.6-0.3-0.6-0.9C357.3,43,357.5,42.7,357.9,42.7z M358.7,44.4c0.1-0.1,0.2-0.1,0.5-0.1
	c0.2,0,0.3,0,0.4,0.1c0.2,0.1,0.4,0.3,0.9,0.7c0.4,0.4,0.6,0.7,0.7,0.9l-0.7,0.9L358.7,44.4z M360.4,21.6c-0.6,0-0.8-0.3-0.6-0.9
	h-0.2c-0.4,0-0.6-0.3-0.6-0.8c0-0.5,0.2-0.8,0.6-0.8c0.6,0,0.8,0.3,0.6,0.9h0.2c0.4,0,0.6,0.2,0.6,0.7h0.1c0.4,0,0.6,0.3,0.6,0.9
	c0,0.6-0.2,0.9-0.6,0.9c-0.4,0-0.6-0.3-0.6-0.9H360.4z"/>
<path class="st0" d="M469.3,19.2c0.1-0.1,0.3-0.4,0.8-0.9c0.4-0.5,0.7-0.7,0.8-0.7c0.1-0.1,0.3-0.1,0.7-0.2c0.4,0,0.6-0.1,0.7-0.1
	c0,0.8-0.7,1.6-2,2.4c-1.3,0.8-2.9,1.5-4.9,2.3c-2,0.8-4.1,1.5-6.4,2.3c-2.3,0.8-4.4,1.5-6.4,2.3c-2,0.7-3.6,1.5-4.9,2.2
	c-1.3,0.7-2,1.5-2,2.2c0,0.2,0,0.3,0.1,0.4c0.1,0.3,0.3,0.6,0.7,0.9c2.3,0.7,5.1,1.6,8.5,2.6c3.4,1,6.6,2.2,9.7,3.7
	c3.1,1.5,5.7,3.4,7.9,5.6c2.2,2.2,3.3,5,3.3,8.2c0,2.3-0.4,3.9-1.2,4.9c-0.8,1-1.8,1.8-2.9,2.3c-1.2,0.5-2.5,0.9-4,1.3
	c-1.5,0.4-2.9,1.1-4.3,2.2c0.3,0.3,0.9,0.8,1.8,1.5c0.9,0.7,1.8,1.4,2.7,2.1c0.9,0.7,1.8,1.5,2.5,2.2s1.1,1.3,1.1,1.8
	c0,0.5-0.7,1.1-2.1,1.7c-1.4,0.7-3.1,1.3-4.9,1.9c-1.8,0.6-3.6,1.1-5.2,1.6c-1.7,0.4-2.7,0.8-3.2,0.9c-0.5,0.2-1.4,0.6-2.7,1.1
	c-1.3,0.5-2.7,1-4.1,1.5c-1.5,0.5-2.9,1-4.2,1.4c-1.3,0.4-2.3,0.8-2.7,0.9c-0.4,0.2-0.7,0.4-0.7,0.7c-0.1,0.3-0.1,0.6-0.1,1
	c0,1.5,1,2.9,3.1,4.1c2.1,1.2,4.6,2.2,7.7,3.2c3,0.9,6.4,1.8,10,2.4c3.6,0.7,7,1.3,10,1.8c3,0.5,5.6,1,7.7,1.5
	c2.1,0.4,3.1,0.8,3.1,1.2c0,0.2,0,0.4-0.1,0.5c-0.1,0.1-0.3,0.3-0.7,0.8c-0.4,0.4-0.7,0.7-0.9,0.8c0.3-1.1,0.2-1.8-0.4-2.3
	c-0.6-0.4-1.4-0.8-2.3-0.9c-0.9-0.2-1.9-0.2-3-0.2c-1.1,0-1.9,0.1-2.6,0.1c-0.7,0-1.2,0.1-1.6,0.4c-0.4,0.3-0.9,0.6-1.3,0.9
	c-0.4,0.3-0.9,0.6-1.4,0.9c-0.5,0.3-1,0.4-1.6,0.4c-0.5,0-0.9-0.2-1.2-0.7c-0.3-0.4-0.6-0.9-0.9-1.5c-0.3-0.5-0.6-1-1-1.5
	c-0.4-0.4-0.8-0.7-1.4-0.7c-0.7,0-1.3,0.2-2,0.7c-0.7,0.4-1.4,0.9-2.1,1.5c-0.7,0.5-1.4,1.1-2.1,1.6c-0.7,0.6-1.4,1-2,1.2
	c0.9,1.1,1.6,1.9,2.2,2.3c0.6,0.4,1,0.7,1.3,1c0.3,0.3,0.5,0.7,0.6,1.3c0.1,0.6,0.2,1.7,0.2,3.2c0.8,0,1.9-0.1,3.4-0.2
	c1.4-0.1,2.9-0.3,4.3-0.6c1.5-0.3,2.8-0.7,4.1-1.2c1.3-0.5,2.1-1.1,2.6-1.8c-0.5,0.9-0.9,2.1-1.3,3.5c-0.4,1.5-0.8,2.9-1.3,4.3
	c-0.5,1.4-1.1,2.7-1.8,3.7c-0.7,1.1-1.7,1.6-2.9,1.6c-3.2,0-6.4-0.7-9.8-2c-3.3-1.3-6.5-3.1-9.5-5.2c-3-2.2-5.7-4.6-8-7.3
	c-2.3-2.7-4-5.5-5.2-8.4c0.6-0.4,1.7-0.7,3.4-0.7c1.7-0.1,3.4-0.1,5.2-0.1s3.4,0,4.8-0.1c1.4,0,2.1-0.3,2.1-0.7v-0.9
	c-0.5-0.2-1-0.3-1.5-0.4c-0.4-0.1-0.9-0.1-1.3-0.2c-0.5,0-0.9-0.1-1.2-0.2c-0.2-0.1-0.7-0.2-1.3-0.2c-0.6-0.1-1.3-0.2-2-0.2
	c-0.7-0.1-1.3-0.2-2-0.2c-0.6-0.1-1-0.1-1.3-0.1c-0.3-0.2-0.6-0.5-0.9-0.9c-0.1-0.1-0.3-0.5-0.8-1.2c-0.4-0.7-0.7-1.1-0.8-1.3h-0.9
	c-0.2,0.2-0.8,0.4-1.6,0.9c-0.9,0.4-1.4,0.7-1.6,0.9c-0.7-0.2-1.1-0.8-1.2-1.6c-0.2-0.8-0.3-1.6-0.4-2.5c-0.1-0.9-0.2-1.6-0.5-2.3
	c-0.2-0.7-0.8-1-1.6-1c-0.2,0-0.3,0-0.4,0.1c-2.4,5.3-5.7,10.1-9.9,14.5c-4.1,4.4-8.8,8.1-14,11.3c-5.2,3.2-10.7,5.6-16.6,7.4
	c-5.9,1.7-11.8,2.6-17.7,2.6h-1.2c1.1-0.2,2-0.4,2.7-0.5c0.7-0.1,1.3-0.3,1.7-0.5c0.4-0.2,0.7-0.6,0.9-1c0.2-0.4,0.2-1,0.2-1.7
	c-0.2,0-0.5-0.1-1.1-0.2c-0.6-0.1-0.9-0.1-1.1-0.1c-0.2,0-0.5,0.1-1,0.2c-0.5,0.2-1,0.3-1.5,0.5c-0.5,0.2-1,0.3-1.5,0.5
	c-0.5,0.2-0.8,0.3-0.9,0.4c0.7-1.1,1.8-2,3.4-2.7c1.5-0.8,3.2-1.5,4.9-2.1c1.8-0.6,3.6-1.2,5.3-1.7c1.7-0.5,3.2-1.1,4.3-1.6
	c0.7,0.1,1.4,0.3,2,0.7c0.6,0.4,1.2,0.8,1.7,1.2c0.5,0.4,1.1,0.8,1.6,1.1c0.6,0.3,1.2,0.5,1.8,0.5c1.5,0,2.5-0.5,3.2-1.6
	c0.7-1.1,1.3-2.2,1.8-3.4c-0.2-0.3-0.5-0.6-0.9-0.9h-0.4c-0.4,0-0.8,0.1-1.1,0.4c-0.3,0.3-0.7,0.6-1,0.9c-0.3,0.3-0.7,0.6-1.1,0.9
	c-0.4,0.3-0.9,0.4-1.3,0.4c-1.5,0-2.6-0.6-3.3-1.7c1.5-1.6,3-3.1,4.5-4.5c1.5-1.4,3.1-2.8,4.6-4.2c1.5-1.4,2.9-2.9,4.3-4.5
	c1.4-1.6,2.6-3.4,3.7-5.4c0.6,0.1,1.3,0,2.1-0.1c0.8-0.2,1.6-0.4,2.4-0.7c0.8-0.3,1.5-0.6,2.2-1.1c0.6-0.4,1.1-0.9,1.5-1.4
	c-0.9-1.1-1.6-1.9-2.3-2.3c-0.6-0.4-1.1-0.7-1.5-1.1c-0.4-0.4-0.6-0.9-0.8-1.6c-0.2-0.7-0.3-2-0.4-3.9c0-0.8,0-2.3,0-4.3
	c0-2.1,0-4.2,0.1-6.5c0.1-2.3,0.1-4.4,0.2-6.5c0-2,0.1-3.5,0.1-4.3c-3,0-6,0.5-8.8,1.5c-2.9,1-5.8,2.1-8.7,3.2
	c-2.9,1.2-5.8,2.3-8.8,3.2c-3,1-6,1.5-9.1,1.5h-2.4c-0.1-0.2-0.2-0.4-0.4-0.9c-0.2-0.4-0.3-0.7-0.3-0.9c-0.1,0-0.1-0.1-0.1-0.4
	c0-0.2,0-0.3,0.1-0.4c4-2.2,7.7-4.2,11.3-6c3.5-1.8,6.9-3.7,9.9-5.9c3.1-2.1,6-4.5,8.8-7.3c2.8-2.7,5.4-6.1,7.8-10.2v2.4
	c0.5-0.1,0.9-0.3,1.2-0.7c0.3-0.4,0.5-0.9,0.6-1.5c0.1-0.6,0.2-1.1,0.2-1.7c0-0.6,0.1-1.1,0.1-1.5c0-0.8-0.1-1.3-0.4-1.6
	c-0.3-0.2-0.4-0.7-0.4-1.5c0-1.9-0.1-3.8-0.2-5.8c-0.1-2-0.2-4-0.2-6c0-2,0.1-4,0.4-5.9c0.2-2,0.8-3.8,1.6-5.6l3.7-0.1
	c3.4,0,6.8,0.2,10.1,0.5c3.3,0.3,6.6,0.7,9.8,1.2c0.4,0.2,0.7,0.4,0.9,0.9v0.7c-1.3,2-2.3,3.8-3,5.6c-0.7,1.8-1.2,3.6-1.6,5.6
	c-0.4,1.9-0.7,3.9-0.9,5.9c-0.2,2-0.6,4.2-1,6.6c0.2,0.9,0.7,1.4,1.5,1.5s1.5,0.2,2.2,0.2c1.4,0,2.7-0.6,3.8-1.8
	c1.2-1.2,2.3-2.7,3.3-4.6c1-1.8,2-3.8,2.9-5.9c0.9-2.1,1.8-4.1,2.7-5.9c0.9-1.8,1.7-3.4,2.6-4.6c0.9-1.2,1.8-1.8,2.8-1.8
	c1,0,2.3,0.4,4,1.2c1.7,0.8,3.4,1.8,5.2,2.9c1.7,1.1,3.4,2.3,4.9,3.5c1.5,1.2,2.5,2.2,3.1,3.1c-0.2,0-0.7,0.1-1.3,0.3
	c-0.6,0.2-1,0.3-1.2,0.4c-0.1,0.1-0.1,0.2-0.1,0.4c0,0.7,0.5,1.4,1.4,2c0.9,0.6,1.7,0.9,2.4,0.9H469.3z M398.7,73.7
	c0,2.3-0.2,4.5-0.7,6.8c-0.4,2.2-1.2,4.3-2.3,6c-1.1,1.8-2.5,3.2-4.2,4.3c-1.8,1.1-4,1.6-6.6,1.6c-2.8,0-5-0.9-6.6-2.6
	c-1.7-1.7-2.5-3.9-2.5-6.7c0-2,0.4-3.5,1.3-4.8c0.9-1.2,1.9-2.3,3.1-3.2c1.2-0.9,2.5-1.8,4-2.6c1.4-0.8,2.7-1.8,3.8-3.1
	c0.5-0.4,1-1.2,1.5-2.4c0.5-1.2,1-2.4,1.5-3.6c0.5-1.2,1-2.3,1.5-3.2c0.5-0.9,1.1-1.4,1.6-1.4c1.3,0,2.3,0.7,2.9,2
	c0.6,1.3,1.1,2.8,1.3,4.5s0.4,3.4,0.4,5C398.7,72,398.7,73.1,398.7,73.7z M395.3,6.1c1.1,0,1.9,0.5,2.4,1.6c0.6,1.1,1,2.4,1.2,3.8
	c0.2,1.4,0.4,2.8,0.4,4.3c0,1.4,0.1,2.4,0.1,3c0,2-0.2,4.1-0.7,6.2s-1.2,4-2.2,5.7c-1,1.7-2.3,3.1-4,4.1c-1.6,1.1-3.6,1.6-5.9,1.6
	c-3,0-5.3-0.7-7-2.1c-1.6-1.4-2.4-3.8-2.4-7c0-2.3,0.7-4.2,2.2-5.9c1.5-1.7,3.2-3.3,5.1-4.8c1.9-1.5,3.8-3.1,5.7-4.7
	c1.9-1.6,3.3-3.5,4.2-5.7H395.3z M384.8,53.3c-0.6,0.2-1.3,0.5-2.1,1c-0.8,0.5-1.2,1.1-1.2,1.8v0.5c0.1,0.3,0.4,0.6,0.9,0.7
	c0,0.1,0.1,0.1,0.4,0.1c0.8,0,1.5-0.5,2-1.6c0.5-1.1,0.8-1.9,0.8-2.5H384.8z M384.8,75.6c0-0.5-0.2-0.8-0.5-1
	c-0.4-0.2-0.8-0.2-1.2-0.2c-1.1,0-1.6,0.5-1.6,1.6c0,0.7,0.1,1.2,0.2,1.6c0.1,0.4,0.3,1,0.7,1.6c0.2-0.6,0.6-1.3,1.3-1.9
	S384.8,76.2,384.8,75.6z M391.3,50.9c-0.2,0.1-0.4,0.2-0.9,0.4c-0.4,0.2-0.7,0.3-0.7,0.4c0.2,0.1,0.5,0.3,1.2,0.8
	c0.6,0.4,1,0.7,1.3,0.8c0.2,0.2,0.4,0.3,0.9,0.5c0.4,0.2,0.7,0.3,0.7,0.3c0.6,0,0.9-0.3,0.9-0.9c-0.2-0.2-0.6-0.7-1.2-1.3
	c-0.7-0.6-1.1-1-1.2-1.2H391.3z M406.7,83.4c-0.2,0.4-0.5,0.7-0.9,0.7v-0.7c0.2-0.4,0.4-0.7,0.9-0.9V83.4z M415.8,96.4
	c0-0.5-0.2-0.9-0.7-1.1c-0.4-0.2-1-0.4-1.5-0.5c-0.6-0.1-1.1-0.2-1.7-0.2c-0.6,0-1,0-1.3,0c0,0.9,0.4,1.7,1.3,2.4
	c0.9,0.7,1.7,1.1,2.6,1.1c0.5,0,0.8-0.2,1-0.5C415.7,97.2,415.8,96.8,415.8,96.4z M442.1,78.6c0.7,0,1-0.4,1.1-1.1
	c0.1-0.7,0.1-1.3,0.1-1.8c0-1.1-0.4-1.9-1.3-2.6c-0.9-0.7-1.3-1.4-1.3-2.3c0-0.2,0-0.3,0.1-0.4c1.2-2.1,2.7-4.5,4.3-7
	c1.7-2.6,3.2-4.8,4.6-6.8c0.3-0.5,0.9-0.8,1.6-1c0.7-0.2,1.5-0.4,2.2-0.7c0.7-0.3,1.4-0.7,2-1.2c0.6-0.5,0.9-1.3,0.9-2.4
	c0-0.2,0-0.3-0.1-0.4c-0.1-0.3-0.3-0.6-0.7-0.9c-1,0.3-2.2,0.4-3.8,0.2c-1.5-0.2-3-0.6-4.5-1.2c-1.4-0.6-2.7-1.4-3.7-2.4
	c-1.1-1-1.6-2.2-1.6-3.6c-1.3,0-2.6-0.4-3.8-1.3c-1.3-0.9-2.5-1.8-3.6-2.9c-1.1-1-2.2-2-3.2-2.9c-1-0.9-1.9-1.3-2.7-1.3
	c-0.5,0-1.4,0.3-2.8,1c-1.4,0.7-2.8,1.5-4.2,2.5c-1.4,1-2.6,2-3.5,3c-0.9,1-1.2,1.9-0.9,2.5l-4,4v1.7c1,0.1,1.8,0.2,2.5,0.2
	c0.7,0.1,1.4,0.2,2.1,0.3c0.7,0.1,1.3,0.2,1.8,0.2c2.9,0.1,5.2,0.2,7,0.4c1.7,0.2,3.3,0.5,4.8,0.9c1.5,0.4,2.2,0.9,2.2,1.6
	c0,0.7-0.2,1.2-0.5,1.6c-0.4,0.4-0.8,0.9-1.2,1.3c-0.4,0.4-0.8,0.8-1.2,1.3c-0.4,0.4-0.5,1-0.5,1.6c0,0.7,0.1,1.9,0.2,3.7
	c0.2,1.8,0.5,3.6,0.9,5.6c0.4,1.9,1,3.6,1.8,5.1c0.7,1.5,1.7,2.3,2.9,2.3c0.7,0,1.3-0.2,1.8-0.7c0.4-0.4,0.9-1.1,1.4-1.9
	c0.2,0.4,0.4,1.2,0.9,2.4c0.4,1.2,0.7,2,0.9,2.4c0,0.1,0.1,0.2,0.3,0.4c0.2,0.2,0.3,0.3,0.4,0.4H442.1z M423.1,24
	c0-1.3,0.2-2.6,0.5-4c0.4-1.3,0.8-2.7,1.2-4c0.4-1.3,0.9-2.6,1.2-3.8c0.4-1.3,0.5-2.5,0.5-3.8c-1.1,0-2,0.2-2.7,0.5
	c-0.7,0.3-1.6,0.5-2.6,0.5c-0.8,0-1.5,0-2.1-0.1c-0.6,0-1.3-0.3-2.1-0.8v3.7c0,1.5,0.2,2.8,0.5,4c0.3,1.2,0.5,2.5,0.5,3.9
	c0,0.8-0.1,1.5-0.2,2.1c-0.2,0.6-0.7,1.2-1.5,1.8l8.1,8.2c0.3-0.9,0.7-1.6,1-2.2c0.4-0.6,0.7-1.1,1-1.7c0.3-0.6,0.5-1.2,0.7-1.8
	c0.2-0.6,0.2-1.4,0.2-2.5H423.1z M426.6,63.1c-0.5,0-1.2,0.1-2,0.2c-0.9,0.1-1.7,0.3-2.6,0.6c-0.9,0.3-1.6,0.7-2.3,1.2
	c-0.7,0.5-1,1.1-1,1.7c0,0.7,0.2,1.2,0.6,1.8c0.4,0.5,0.9,1,1.5,1.4c0.6,0.4,1.2,0.7,1.9,1c0.7,0.2,1.3,0.4,1.8,0.4
	c0.2,0,0.6,0,1-0.1c0.4-0.1,0.7-0.3,0.7-0.7c0-0.1-0.1-0.3-0.4-0.8c-0.3-0.4-0.4-0.7-0.4-0.8l-0.1-1.3c0-1.1,0.2-2,0.7-2.5
	c0.4-0.5,1.4-1.2,2.7-1.9H426.6z M419.7,85.9c0.4,0,0.6-0.3,0.6-0.9c0-0.6-0.2-0.9-0.6-0.9c-0.4,0-0.6,0.3-0.6,0.9
	C419.1,85.6,419.3,85.9,419.7,85.9z M423.8,82.6c-0.2-0.3-0.5-0.6-0.9-0.9h-0.5c-0.5,0-0.8,0.3-1,1c-0.2,0.7-0.2,1.2-0.2,1.6
	c0.4,0,0.9-0.1,1.6-0.2c0.7-0.1,1-0.5,1-1.3V82.6z M427,2.9v2.4c0.8,0,1.7-0.2,2.7-0.5c1-0.3,1.5-1,1.5-2H427z M431.9,76.1
	c0.4,0,0.6-0.3,0.6-0.9c0-0.6-0.2-0.9-0.6-0.9c-0.4,0-0.6,0.3-0.6,0.9C431.3,75.8,431.5,76.1,431.9,76.1z M438.5,30.5
	c-0.4-0.6-1-1-1.8-1c0,0.8,0.3,1.4,1,1.8L438.5,30.5z M439.2,33.8c0.1,0.4,0.2,1,0.4,1.8c0.2,0.8,0.3,1.3,0.4,1.5
	c0.1,0.1,0.2,0.2,0.4,0.4c0.2,0.2,0.3,0.3,0.4,0.3c0.9,0,1.7-0.5,2.3-1.5c0.6-1,1-1.8,1-2.6c0-0.8-0.3-1.3-1-1.5
	c-0.7-0.2-1.3-0.2-1.9-0.2c-0.5,0-1,0.1-1.4,0.2c-0.4,0.1-0.7,0.5-0.7,1V33.8z M445.8,102.7c-0.4,0-0.9,0-1.4,0.1
	c-0.5,0.1-0.9,0.4-1,0.9c0.2,0.3,0.5,0.7,0.9,1.2c0.4,0.5,1,0.7,1.5,0.7V102.7z M451.4,24.4c0,0.6,0.2,1,0.7,1.2
	c0.4,0.2,0.9,0.3,1.3,0.3c0-0.4-0.1-0.9-0.2-1.5c-0.1-0.6-0.4-1-0.9-1.2c-0.3,0.2-0.6,0.5-0.9,0.9V24.4z M454.7,43.6
	c0.4,0,0.6-0.3,0.6-0.8c0-0.5-0.2-0.8-0.6-0.8c-0.4,0-0.6,0.3-0.6,0.8C454.1,43.3,454.3,43.6,454.7,43.6z M467.7,101.7
	c0,0.5-0.2,0.8-0.5,1c-0.4,0.2-0.8,0.2-1.2,0.2c-1.1,0-1.6-0.4-1.6-1.2c0-0.9,0.5-1.3,1.6-1.3c0.4,0,0.8,0.1,1.2,0.3
	C467.6,100.9,467.7,101.3,467.7,101.7z M475.1,51.6c0-1.7-0.7-2.8-2-3.3c-1.3-0.5-2.7-0.7-4.2-0.7c-0.7,0-1.3,0.1-2,0.4
	c-0.7,0.2-1.2,0.7-1.6,1.3c0.8,0.7,1.3,1.3,1.5,1.8c0.2,0.6,0.2,1.3,0.2,2.2c0,1.1-0.3,1.9-0.9,2.5c-0.6,0.6-0.9,1.4-0.9,2.4
	c0,0.8,0.2,1.3,0.7,1.5c0.5,0.2,1.1,0.2,1.8,0.2c0.6,0,1.4-0.3,2.3-0.9c0.9-0.6,1.6-1.4,2.4-2.3c0.7-0.9,1.4-1.8,1.9-2.7
	C474.8,53,475.1,52.3,475.1,51.6z M470.2,17.6c-0.4,0-0.6-0.3-0.6-0.9c0-0.6,0.2-0.9,0.6-0.9c0.4,0,0.6,0.3,0.6,0.9
	C470.8,17.3,470.6,17.6,470.2,17.6z"/>
<path class="st0" d="M101.7,214.4c2,0.1,3.4,0.8,4.4,2.2c1,1.4,1.7,2.9,2.1,4.5c0.4,1.6,0.8,3.1,1,4.4s0.5,2,0.9,2
	c1.5,0,2.8-0.4,3.7-1.2c0.9-0.8,1.5-1.7,2-2.9c0.4-1.2,0.6-2.4,0.7-3.7c0-1.3,0-2.5-0.1-3.7c0.6,0.6,0.9,1.3,0.9,2.2
	c0,0.9,0,1.7,0,2.3c0,2.8-0.9,4.9-2.6,6c-1.7,1.2-3.9,1.8-6.6,1.8c-2.5,0-4.9-0.4-7.1-1.3c-2.2-0.9-4.4-2-6.4-3.4
	c-2-1.4-4-2.9-5.9-4.5c-1.9-1.6-3.8-3.2-5.7-4.6c-0.2-0.1-0.4-0.1-0.7-0.1c-0.2,0-0.3,0-0.4,0.1c-0.1,0-0.2,0.1-0.2,0.1h-0.2
	l-5.7,2.4h-0.7c-0.2-0.1-0.6-0.4-1.3-0.9c-0.7-0.5-1.1-0.7-1.2-0.7c-0.1-0.1-0.2-0.1-0.5-0.1c-0.5,0-1,0.2-1.6,0.5
	c-0.6,0.4-1.1,0.8-1.6,1.3c-0.5,0.5-0.9,1-1.3,1.6c-0.4,0.6-0.6,1.1-0.8,1.6c0.4,0.7,1.1,1.2,2.1,1.7c1,0.5,2,1,3,1.5
	c1,0.5,1.9,1.1,2.7,1.7c0.8,0.7,1.2,1.5,1.2,2.4v0.7c-1-0.2-1.8-0.5-2.3-1c-0.6-0.5-1.1-1.1-1.6-1.6c-0.5-0.6-1-1.1-1.6-1.5
	c-0.6-0.4-1.3-0.7-2.3-0.7c-0.7,0-1.6,0.3-2.6,0.8c-1,0.5-2.1,1.1-3.2,1.8c-1.1,0.7-2.3,1.3-3.4,2c-1.1,0.6-2.2,1-3.2,1.2
	c-0.1,0-0.4-0.1-0.9-0.4c-0.5-0.3-0.8-0.4-0.9-0.4c-0.3,0.2-0.8,0.6-1.5,1.2c-0.7,0.7-1,1.1-1,1.2v13.9h22.8c1.3,0,2.6-0.8,4-2.4
	c1.3-1.6,2.5-3.4,3.6-5.6c1.1-2.1,1.9-4.2,2.6-6.3c0.6-2.1,1-3.7,1-4.8c1.3,0,3,0.1,5,0.2c2,0.2,4.1,0.4,6.2,0.9
	c2.1,0.4,4,1,5.7,1.8c1.7,0.8,3,1.8,3.7,3.1c-1.6,0.6-3,1.7-4.1,3.3c-1.1,1.6-1.7,3.3-1.7,5.1c0,0.5,0,1.1,0.1,1.9
	c0,0.8,0.5,1.2,1.3,1.2c0.5,0,0.9-0.1,1.2-0.4c0.3-0.3,0.5-0.6,0.8-0.9c0.2-0.3,0.5-0.6,0.9-0.9c0.3-0.3,0.7-0.4,1.2-0.4
	c2,0,3.1,1,3.1,3c0,0.7-0.2,1.3-0.7,1.7c-0.4,0.4-0.9,0.8-1.5,1c-0.5,0.3-1,0.6-1.5,1c-0.4,0.4-0.7,0.9-0.7,1.5c0,0.3,0,0.6,0.1,0.9
	c1.9,0.1,3.6,0.7,5.1,1.7c1.5,1.1,2.8,2.4,3.8,3.9c-0.6,1-1.4,1.6-2.4,2c-1.1,0.4-2.1,0.5-3.2,0.5c-2.5,0-4.6-0.6-6.2-1.9
	c-1.6-1.3-2.9-2.8-3.9-4.6c-1-1.8-1.9-3.8-2.5-6c-0.7-2.2-1.3-4.2-2-6c-0.7-1.8-1.5-3.4-2.3-4.6c-0.9-1.3-2-1.9-3.5-1.9v10.4
	c1,0.9,1.8,1.6,2.4,2.2c0.6,0.6,1.1,1.2,1.5,1.8c0.4,0.6,0.6,1.3,0.8,2c0.2,0.7,0.2,1.7,0.2,2.8c0,1.5-0.4,2.9-1.2,4.2
	c-0.8,1.3-1.9,2.3-3.1,3.2c-1.3,0.9-2.7,1.5-4.2,2c-1.5,0.4-3.1,0.7-4.5,0.7H44.4c0-2.8,0.7-4.8,2.1-6.2c1.4-1.3,2.9-2.3,4.6-2.9
	c1.7-0.6,3.3-0.9,4.6-1.1c1.4-0.2,2.1-0.4,2.1-0.9c0-0.9-0.5-1.3-1.6-1.3c-1.1,0-2.3,0.2-3.4,0.5c-1.1,0.3-2.2,0.5-3.2,0.5
	c-0.7,0-1.4-0.2-1.9-0.5c-0.5-0.4-1-0.8-1.5-1.2c-0.5-0.4-1-0.8-1.5-1.2c-0.5-0.4-1.2-0.5-1.9-0.5c-1,0-1.8,0.3-2.5,0.9
	c-0.7,0.6-1.3,1.3-2,2.1c-0.6,0.8-1.2,1.6-1.9,2.4c-0.7,0.9-1.4,1.5-2.3,2c0.4,0.7,0.9,1.3,1.6,1.6c0.6,0.3,1.3,0.7,2,1
	c0.6,0.3,1.2,0.8,1.6,1.3c0.4,0.6,0.7,1.5,0.7,2.8c-0.9,0-1.8-0.2-2.6-0.6c-0.9-0.4-1.6-0.9-2.4-1.5c-0.7-0.6-1.3-1.3-1.8-2.1
	c-0.4-0.8-0.7-1.6-0.7-2.4v-30.1h16.8c0-0.7-0.1-1.4-0.3-1.9c-0.2-0.5-0.3-1.1-0.3-1.8v-0.4c0.1-0.2,0.2-0.3,0.4-0.5
	c0.2-0.2,0.3-0.3,0.4-0.3h13.1c1.1-1,2.1-1.8,2.9-2.5c0.8-0.7,1.6-1.4,2.4-2.1c0.8-0.7,1.5-1.3,2.1-1.8c0.3-0.3,0.8-0.8,1.5-1.3
	c0.6-0.5,1.3-1.1,1.9-1.8c0.6-0.7,1.2-1.3,1.6-2.1c0.5-0.7,0.7-1.5,0.7-2.3c0-0.4-0.2-1.1-0.5-2.1c-0.4-1-0.8-2-1.3-3
	c-0.5-1-1.1-1.9-1.8-2.7c-0.7-0.8-1.4-1.2-2-1.2c-0.2,0-0.7,0-1.2,0.1c-0.6,0.1-0.9,0.3-0.9,0.7v11.3c-0.2-0.1-0.5-0.2-1-0.4
	c-0.5-0.2-0.9-0.3-1-0.3c-0.1-0.1-0.2-0.1-0.5-0.1s-0.4,0.2-0.6,0.7c-0.2,0.4-0.4,0.9-0.6,1.5c-0.2,0.5-0.5,1-0.9,1.5
	c-0.4,0.4-0.8,0.7-1.4,0.7c-0.9,0-1.5-0.3-1.9-1c-0.4-0.7-0.7-1.5-0.9-2.3c-0.2-0.9-0.5-1.6-0.9-2.3c-0.3-0.7-0.9-1-1.8-1
	c-1.1,0-2.1,0.1-2.9,0.3c-0.8,0.2-1.6,0.7-2.6,1.4v-9.8c0-0.2-0.1-0.4-0.4-0.5c-0.3-0.1-0.6-0.2-0.9-0.2c-0.3,0-0.8-0.1-1.5-0.1
	c-0.1,0-0.3,0-0.6,0c-0.3,0-0.7,0-1,0.1c-0.3,0-0.6,0.1-0.9,0.2c-0.3,0.1-0.4,0.3-0.4,0.5v8.9c-0.9-1.5-2.1-2.4-3.7-2.7
	c-1.5-0.3-3.1-0.5-4.8-0.5c0,0.5,0.3,1.2,0.9,2.3c0.6,1,1.2,2,2,3c0.8,1,1.6,1.9,2.4,2.6c0.8,0.7,1.5,1.1,2,1c0.1,0,0.3-0.1,0.6-0.4
	c0.3-0.2,0.7-0.5,1-0.9c0.4-0.3,0.7-0.6,1-0.9c0.3-0.2,0.5-0.4,0.6-0.4c1.2,0,2.2,0.6,3,1.7c0.8,1.1,1.2,2.2,1.2,3.2l-0.1,1.6
	c-0.5-0.2-0.9-0.7-1.1-1.5s-0.4-1.3-0.5-1.7c-0.2-0.1-0.5-0.1-1-0.2c-0.5,0-0.9-0.1-1-0.1c-1.3,0-2.6,0.3-3.9,1
	c-1.3,0.7-2.6,1.5-4,2.3c-1.4,0.9-2.8,1.6-4.3,2.3c-1.5,0.7-3.2,1-4.9,1c-0.2,0-0.7,0-1.5,0.1s-1.1-0.3-1.2-0.9c0.1-2,0-4-0.2-5.8
	c-0.2-1.8-0.5-3.6-0.9-5.3c-0.3-1.7-0.6-3.4-0.9-5.1c-0.3-1.7-0.4-3.5-0.4-5.4v-0.4c0-0.1,0.1-0.3,0.3-0.6c0.2-0.3,0.4-0.6,0.5-1
	c0.2-0.3,0.3-0.6,0.5-1c0.2-0.3,0.2-0.5,0.2-0.6v-0.4c0-0.1,0-0.2-0.1-0.2c-1.4,0-2.5,0.4-3.4,1.3c-0.9,0.9-1.7,1.9-2.3,3.1
	c-0.7,1.2-1.2,2.5-1.7,3.9c-0.5,1.4-0.9,2.6-1.3,3.7c0.8,0,1.5,0.1,2,0.4c0.5,0.3,0.9,0.6,1.3,0.9c0.4,0.3,0.7,0.6,1.1,0.9
	c0.4,0.3,0.9,0.4,1.5,0.4c0,1.1-0.3,2.2-1,3.1l-1.6-0.9h-0.9c-0.2,0-0.7,0.1-1.6,0.4c-0.9,0.2-1.5,0.4-1.6,0.5h-1.6
	c-0.1-0.1-0.3-0.2-0.8-0.5c-0.4-0.2-0.7-0.4-0.8-0.4c-0.1,0-0.2,0.1-0.4,0.3c-0.2,0.2-0.3,0.4-0.4,0.5v0.4c0,0.7,0.3,1.5,1,2.4
	c0.6,1,1.1,1.7,1.5,2.1l-2.4,4.9c-0.1,0.1,0,0.2,0.2,0.4c0.2,0.2,0.4,0.3,0.7,0.3c0.1,0,0.3-0.1,0.8-0.4c0.4-0.2,0.7-0.4,0.8-0.4
	l1.2-0.1c0.6,0,1,0,1.2,0.1c-0.7,1.2-1.7,2.7-2.9,4.3c-1.2,1.7-2.5,3.3-3.9,4.8c-1.4,1.5-2.9,2.8-4.6,3.9c-1.6,1.1-3.3,1.6-4.9,1.6
	c-0.4,0-0.8-0.1-1.2-0.2c-0.4-0.2-0.5-0.5-0.5-1c0-1.4,0.4-3.2,1.1-5.4s1.6-4.5,2.5-6.9c0.9-2.4,1.8-4.8,2.7-7.2
	c0.9-2.4,1.5-4.5,1.8-6.2c0.7-4.1,1.3-8.4,1.6-12.7c0.3-4.4,0.5-8.7,0.6-13.1c0.1-4.4,0.1-8.7,0.1-13.1c0-4.3,0-8.4,0.1-12.3
	c0.2-0.1,0.6-0.1,1.2-0.1c1.5,0,3.1,0.3,4.6,0.9c1.5,0.6,3,1.3,4.5,2c1.5,0.7,3,1.3,4.5,2c1.5,0.6,3.1,0.9,4.7,0.9h32.6v-14.6
	l1.6-1.6c4.1,0.5,7.5,0.8,10.2,0.9c2.6,0.1,4.8,0.1,6.6,0.1c1.7,0,3.2,0.1,4.5,0.2c1.2,0.1,2.5,0.5,3.8,1c1.3,0.6,2.8,1.4,4.6,2.6
	c1.8,1.2,4.1,2.8,7,4.9c0.1,0.1,0.2,0.1,0.2,0.1h0.6c0.6,0,1-0.2,1.2-0.5c0.2-0.4,0.5-0.8,0.7-1.2c0.2-0.4,0.5-0.8,0.8-1.2
	c0.3-0.4,0.8-0.5,1.4-0.5h0.7l7.3,7.3v0.9c-0.5-0.4-0.9-0.7-1.2-0.7c-0.3-0.1-0.8-0.1-1.3-0.1c-1,0-1.7,0.3-2.2,1
	c-0.5,0.7-1.1,1.4-1.7,2.2c-0.7,0.8-1.6,1.4-2.7,2c-1.2,0.6-3,0.7-5.4,0.5l-0.9,0.9h17.1c0.2,0,0.3-0.2,0.5-0.7
	c0.2-0.4,0.3-0.8,0.3-1c0-0.1-0.1-0.3-0.4-0.8c-0.3-0.4-0.4-0.7-0.4-0.8v-0.9c0.8,0.3,1.3,0.7,1.5,1.2c0.2,0.5,0.2,1.1,0.2,1.7
	c0,0.5-0.1,1-0.2,1.6c-0.2,0.6-0.7,0.9-1.5,0.9h-19c0,1.6,0.8,2.7,2.4,3.4c1.6,0.6,3.5,1.1,5.6,1.5c2.1,0.4,4.2,0.9,6.3,1.4
	c2.1,0.5,3.7,1.5,4.6,3c-0.2,0.1-0.4,0.1-0.9,0.1c-1.1,0-2.1-0.3-3-0.9c-0.9-0.6-1.9-0.9-3-0.9c-0.8,0-1.5,0.2-2.1,0.5
	c-0.6,0.3-1.3,0.5-2.1,0.5c-0.9,0-1.6-0.3-2.2-0.9c-0.6-0.6-1.2-1.3-1.8-2c-0.6-0.7-1.3-1.3-2-2c-0.7-0.6-1.7-0.9-2.8-0.9h-0.5
	c0.1,0.2,0.1,0.7,0.1,1.4c0,0.7-0.1,1.4-0.2,2.3c-0.1,0.8-0.2,1.6-0.3,2.3c-0.1,0.7-0.2,1.2-0.2,1.3c-0.1,0.1-0.2,0.3-0.5,0.6
	c-0.2,0.3-0.5,0.7-0.8,1c-0.3,0.4-0.5,0.7-0.8,1c-0.2,0.3-0.4,0.5-0.4,0.6c-0.1,0-0.1,0.1-0.1,0.4c0,0.6,0.4,1.1,1.1,1.5
	c0.7,0.4,1.3,0.6,1.8,0.6c1.2,0,2.3-0.2,3.4-0.5c1-0.3,2-0.7,2.9-1.2c0.9-0.4,1.8-0.8,2.7-1.2c0.9-0.3,1.9-0.5,2.9-0.5
	c0.9,0,2,0.3,3.2,0.9c-0.5,1.1-1.4,2.6-2.9,4.5c-1.4,2-2.9,4-4.3,6.2c-1.5,2.2-2.7,4.3-3.8,6.3c-1.1,2-1.5,3.7-1.2,4.9l-1.6-0.9v1.6
	c0.1,0.3,0.3,1,0.7,2.1c0.4,1.1,0.7,1.8,0.9,2.1h0.9c0.2-0.2,0.6-0.5,1-0.9c0.4-0.4,0.6-0.7,0.6-0.8c0-0.2-0.2-0.7-0.6-1.3
	c-0.4-0.6-0.7-1-1-1.2h0.9c0.3,0.3,1,0.9,2,1.6c1,0.8,1.7,1.3,2,1.6c-0.2,0.1-0.4,0.2-0.9,0.4c-0.4,0.2-0.7,0.3-0.7,0.4
	c-0.3,0.2-0.5,0.3-0.6,0.4c-0.1,0.1-0.2,0.2-0.2,0.4L101.7,214.4z M27.7,242c0,2.1-0.4,4.2-1.1,6.2c-0.7,2-1.8,3.7-3.1,5.2
	c-1.3,1.5-2.9,2.7-4.7,3.7c-1.8,0.9-3.8,1.4-6,1.4c-0.3,0-0.9,0-1.6-0.1c-0.8-0.1-1.2-0.1-1.4-0.1L9,257.4c0.2,0.1,0.6,0.1,1.2,0.2
	c0.6,0,1.3,0.1,2,0.1c0.7,0,1.4,0,2-0.1c0.7,0,1.1-0.1,1.2-0.2c0.2,0,0.6-0.1,1-0.3c0.4-0.2,0.6-0.3,0.6-0.4v-8.2h-0.7
	c-0.7,2.2-2.1,4-4,5.3c-1.9,1.3-4,2-6.3,2c-0.7,0-1.2-0.3-1.5-0.9c-0.4-0.6-0.7-1.3-0.9-2.2c-0.2-0.9-0.3-1.7-0.4-2.4
	c-0.1-0.8-0.1-1.4-0.1-1.8c0-2.2,0.8-4.2,2.3-5.9c1.5-1.7,3.4-3.5,5.4-5.2c2.1-1.7,4.2-3.5,6.3-5.5c2.1-2,3.7-4.3,4.8-7
	c0.1-0.1,0.3-0.1,0.6-0.2c0.3,0,0.5-0.1,0.6-0.1c1,0,1.7,0.5,2.3,1.6c0.6,1.1,1,2.3,1.3,3.7c0.3,1.4,0.5,2.7,0.7,4.1
	s0.2,2.3,0.2,2.9c0,0.6-0.1,1-0.3,1.4c-0.2,0.4-0.4,0.7-0.7,1c-0.2,0.3-0.5,0.7-0.7,1c-0.2,0.4-0.3,0.9-0.3,1.5c0,0.1,0,0.1,0.1,0.1
	h0.2l1.6-0.9V242z M9.9,223.3c0-1.1-0.4-1.6-1.3-1.6c-0.8,0-1.3,0.5-1.3,1.5c-0.1,1-0.1,1.7-0.1,2.1c0.7,0,1.4-0.1,2-0.3
	C9.6,224.7,9.9,224.2,9.9,223.3z M14.6,241.2h-3.4c0,0.8,0.4,1.5,1.2,2c0.8,0.5,1.5,0.8,2.3,0.8V241.2z M22.8,180.9
	c0-1.1-0.4-1.6-1.2-1.6c-0.2,0-0.8,0.2-1.8,0.6c-0.9,0.4-1.9,0.9-3,1.3c-1.1,0.5-2.1,1-3.1,1.4c-1,0.4-1.8,0.7-2.3,0.8l-0.1,2
	c0,0.2,0,0.8,0,1.5c0,0.8,0.3,1.2,0.9,1.4c0.2,0,0.7,0,1.5,0.1c0.7,0.1,1.2,0.1,1.5,0.1c2,0,3.8-0.7,5.4-2.2
	C22,184.9,22.8,183.1,22.8,180.9z M22.8,165.2c0-1.7-0.5-2.9-1.5-3.6c-1-0.7-2.3-1-3.7-1c-0.8,0-1.8,0.1-2.9,0.2
	c-1.1,0.1-2,0.6-2.4,1.5c0.4,0.9,1,1.6,1.9,2.1c0.9,0.5,1.7,0.9,2.7,1.2c0.9,0.2,1.9,0.4,2.8,0.5c0.9,0.1,1.7,0.2,2.4,0.3
	c0.5-0.3,0.8-0.6,0.9-0.9V165.2z M20.6,238.8c0-0.7-0.4-1.2-1.1-1.6v1.6H20.6z M29.3,168l-0.7,0.9h2c0.9,0,1.7,0,2.3-0.1
	c0.7,0,1.4-0.3,2.2-0.8H29.3z M50.5,171.3c-0.1,0-0.8,0.1-2.3,0.4c-1.4,0.3-3.1,0.6-5.1,1c-2,0.4-4,0.9-6.2,1.3
	c-2.1,0.5-3.9,0.9-5.2,1.2c-0.5,0.2-1.1,0.3-2,0.5c-0.8,0.2-1.2,0.3-1.2,0.4v0.7h20.3c0.1,0,0.4-0.2,0.9-0.6
	c0.5-0.4,1.1-0.9,1.6-1.5c0.5-0.6,1-1.2,1.5-1.8c0.5-0.6,0.8-1.2,0.9-1.7H50.5z M48.1,227.4c-0.9-0.6-1.8-0.9-2.6-0.9
	c-0.9,0-1.8-0.1-2.7-0.1l-2.8,0.1c-0.2,1.1-0.7,1.8-1.3,2.1c-0.7,0.3-1.3,0.6-2,0.8c-0.7,0.2-1.3,0.5-1.8,0.8
	c-0.5,0.3-0.8,1-0.8,2.1c1.5,0,2.8-0.3,3.9-0.8c1.1-0.5,2.2-1.1,3.3-1.8c1.1-0.6,2.1-1.2,3.2-1.7C45.4,227.5,46.7,227.3,48.1,227.4z
	 M35.9,194.8c-0.7,0.3-1.1,0.9-1.3,1.6c-0.2,0.8-0.4,1.4-0.4,2v0.4c0.3,0.5,0.6,0.8,0.9,0.9l0.9-4V194.8z M57.8,175.9
	c0-0.7-0.1-1.4-0.4-2.1c-0.2-0.7-0.7-1.3-1.3-1.8c-0.1,1.1-0.5,2.2-1.2,3.3c-0.7,1.1-1.5,2-2.6,2.9c-1,0.9-2.1,1.5-3.4,2.1
	c-1.2,0.5-2.4,0.8-3.4,0.8c-1,0-1.8-0.2-2.5-0.5c-0.7-0.3-1.5-0.5-2.5-0.5c-0.2,0-0.6,0-1.3,0.1c-0.7,0-1,0.3-1,0.9
	c0,0.2,0.1,0.6,0.3,1.2c0.2,0.7,0.3,1.1,0.4,1.2c-0.2,0-0.5,0-0.9,0.1c-0.4,0-0.9,0.1-1.3,0.3c-0.4,0.2-0.9,0.4-1.2,0.6
	c-0.4,0.2-0.5,0.6-0.5,1v0.5c1.2,0.7,2.3,1.2,3.2,1.7c0.9,0.5,1.8,0.9,2.7,1.3c0.9,0.4,1.8,0.7,2.9,0.9c1,0.2,2.1,0.3,3.4,0.3
	c0.7,0,1.5-0.1,2.4-0.2s1.6-0.3,2.4-0.7c0.7-0.3,1.3-0.8,1.8-1.4c0.5-0.6,0.7-1.4,0.7-2.4c0-0.6-0.3-1.1-1-1.2
	c-0.7-0.2-1.1-0.4-1.5-0.7c-0.1-0.1-0.1-0.2-0.1-0.5c0-0.2,0-0.3,0.1-0.4l5.7-5.7V175.9z M39,190.8v0.7l1.7-0.7H39z M40.7,243.6
	c0.4,0,0.6-0.3,0.6-0.8c0-0.5-0.2-0.8-0.6-0.8c-0.4,0-0.6,0.3-0.6,0.8C40.1,243.4,40.3,243.6,40.7,243.6z M45.6,165.3
	c-0.6,0-1.1,0.2-1.5,0.7c-0.4,0.5-0.8,0.9-0.9,1.1h2.4V165.3z M48.8,192.4h-1.6c0.4,0.7,0.9,1,1.6,1V192.4z M52.9,216.8
	c-0.1,0.2-0.2,0.4-0.4,0.4c-0.2,0-0.3-0.1-0.4-0.4c-0.1-0.2,0-0.4,0.4-0.4C52.8,216.4,52.9,216.5,52.9,216.8z M52.9,228.1
	c0.4,0,0.6-0.3,0.6-0.8c0-0.5-0.2-0.8-0.6-0.8c-0.4,0-0.6,0.3-0.6,0.8C52.3,227.9,52.5,228.1,52.9,228.1z M57,221.7v0.9l0.9-0.9H57z
	 M57,229.8c2,0.3,3.5,0.4,4.5,0.2c0.9-0.2,1.7-0.4,2.3-0.7c0.6-0.3,1.2-0.6,1.8-0.9c0.6-0.3,1.6-0.5,3-0.5c1,0,1.8,0.2,2.4,0.7
	c0.7,0.4,1.3,0.9,2,1.4c0.6,0.5,1.3,1,2,1.4c0.7,0.4,1.6,0.7,2.6,0.7c0,2.8-0.9,5.1-2.8,6.7c-1.9,1.6-4.2,2.4-7,2.4
	c-0.6,0-1.4,0-2.5,0s-1.9-0.3-2.5-1c-0.2-0.3-0.6-0.9-1.1-1.7c-0.5-0.8-1-1.7-1.5-2.7c-0.5-1-1-1.9-1.4-2.7
	c-0.4-0.9-0.8-1.4-0.9-1.8L57,229.8z M69.3,190.4c0-2.7-0.5-4.3-1.5-4.9c-1-0.6-2.8-0.9-5.4-0.9c0,1.7,0.8,3.1,2.3,4.1
	C66.2,189.9,67.7,190.4,69.3,190.4z M65.1,164.7h-0.9v0.9h0.9V164.7z M95.2,166.4c-0.8-0.6-1.3-1.3-1.5-1.9
	c-0.2-0.6-0.2-1.4-0.2-2.3c0-1.4,0.5-2.4,1.6-3.1c1.1-0.7,2.2-1.3,3.4-1.8c0.1-0.1,0.1-0.2,0.1-0.4c0-0.5-0.3-1-0.9-1.5
	c-0.6-0.5-1.2-1-2-1.4c-0.7-0.4-1.4-0.8-2-1.1c-0.6-0.3-1-0.5-1-0.5c-0.4,0.2-0.8,0.9-1,2.2c-0.3,1.3-0.8,2.7-1.4,4.2
	c-0.7,1.5-1.6,2.9-2.9,4.1c-1.3,1.2-3.1,1.8-5.4,1.8c-0.6,0-1-0.1-1.2-0.3c-0.2-0.2-0.4-0.4-0.5-0.6c-0.1-0.2-0.3-0.4-0.4-0.6
	c-0.2-0.2-0.4-0.3-0.9-0.3c-0.9,0-1.8,0.3-2.6,1l1.6,0.7c-0.9,0.9-1.9,1.8-3,2.7c-1.1,0.9-2.4,1.4-3.8,1.4c-0.8,0-1.5-0.2-2.1-0.5
	c-0.6-0.3-1.3-0.5-2.1-0.5c-0.4,0-0.9,0.1-1.3,0.2c-0.5,0.1-0.7,0.5-0.7,1.2c0,0.9,0.2,1.6,0.7,2.2c0.5,0.6,1.1,1,1.8,1.4
	c0.7,0.4,1.5,0.6,2.3,0.7c0.8,0.1,1.6,0.2,2.3,0.2c0.6,0,1.1-0.2,1.5-0.5c0.4-0.3,0.8-0.7,1.1-1.2c0.3-0.4,0.7-0.8,1-1.2
	c0.4-0.3,0.8-0.5,1.4-0.5h0.9c0.2,0,0.6,0.1,1.3,0.4c0.7,0.3,1.1,0.4,1.2,0.4c0.6,0,0.9-0.2,1-0.7c0.1-0.5,0.2-1,0.3-1.6
	c0.1-0.6,0.2-1.2,0.5-1.7c0.2-0.5,0.7-0.8,1.5-0.8H95.2z M69.2,193c-0.4,0-0.9,0-1.4,0.1c-0.5,0.1-0.9,0.4-1,0.9h2.4V193z M74.2,248
	c0-0.2,0-0.3-0.1-0.4c-0.1,0-0.4-0.1-1-0.3c-0.6-0.2-1.1-0.3-1.4-0.4c-0.1-0.1-0.2-0.1-0.5-0.1c-0.2,0-0.3,0-0.4,0.1
	c-0.7,0.6-1.3,1-1.8,1.4c-0.5,0.4-0.7,1-0.7,1.8c0,0.4,0,0.7,0.1,0.9c1.1-0.2,2-0.5,2.9-0.9c0.7-0.2,1.4-0.5,2-0.9
	C73.9,248.8,74.2,248.4,74.2,248z M72.7,157.6c0-0.2,0-0.5-0.1-0.9c0-0.4-0.1-0.9-0.2-1.4c-0.1-0.5-0.2-0.9-0.4-1.3
	c-0.2-0.4-0.5-0.6-0.8-0.7c-0.2,0-0.4,0-0.5,0.1c-0.3,0.1-0.6,0.4-0.7,0.9c-0.1,0-0.1,0.1-0.1,0.4c0,0.7,0.3,1.4,0.8,2.1
	C71.2,157.3,71.9,157.6,72.7,157.6z M70.8,164c1.3-0.2,2-0.8,2-1.8c-0.4,0-0.8,0.1-1.3,0.3c-0.4,0.2-0.7,0.5-0.7,1V164z M82.7,154.2
	c0,0.4-0.1,1.1-0.2,2.1c-0.1,1-0.1,2.1,0,3.2s0.4,2.1,0.8,2.9c0.4,0.8,1.2,1.2,2.3,1.2c0-0.3,0-1-0.1-2c0-1-0.1-2.1-0.2-3.2
	c-0.1-1.1-0.2-2.1-0.3-2.9s-0.3-1.3-0.4-1.3H82.7z M83,208.6c0.2-0.1,0.4-0.3,0.4-0.7c0-0.4-0.1-0.7-0.4-0.9
	c-0.2-0.2-0.4,0.1-0.4,0.8C82.6,208.5,82.7,208.8,83,208.6z M83.8,168c-0.5,0-0.8,0.2-0.8,0.6c0,0.4-0.1,0.7-0.1,1
	c0,0.7,0.1,1.8,0.3,3.4c0.2,1.6,0.5,3.3,0.9,5c0.4,1.7,0.9,3.2,1.5,4.5c0.6,1.3,1.3,2,2.1,2c0.7,0,1.4-0.7,2.1-2.1
	c0.6-1.4,1.3-3,1.8-4.9c0.6-1.8,1-3.6,1.3-5.3c0.3-1.7,0.5-2.8,0.5-3.3c0-0.6-0.3-0.9-0.9-0.9H83.8z M92.7,212.4
	c-0.2,0-0.7,0-1.3-0.1c-0.7,0-1.3,0-2,0c-0.7,0-1.2,0.2-1.8,0.5c-0.5,0.3-0.8,0.8-0.8,1.5h5.9V212.4z M89.5,248.5
	c0.2-0.1,0.4-0.2,0.4-0.4c0-0.2-0.1-0.3-0.4-0.4c-0.2,0-0.4,0.2-0.4,0.5C89.2,248.5,89.3,248.6,89.5,248.5z M107.4,232.3
	c0,0.2-0.1,0.4-0.4,0.4s-0.4-0.1-0.4-0.4c-0.1-0.2,0-0.4,0.4-0.4C107.3,231.9,107.4,232,107.4,232.3z M108.2,233.9
	c-0.4,0-0.6-0.3-0.6-0.8c0-0.5,0.2-0.8,0.6-0.8c0.4,0,0.6,0.3,0.6,0.8C108.8,233.6,108.6,233.9,108.2,233.9z M109.1,203
	c-0.4,0-0.6-0.3-0.6-0.9c0-0.6,0.2-0.9,0.6-0.9c0.4,0,0.6,0.3,0.6,0.9C109.7,202.7,109.5,203,109.1,203z M109.1,233.9
	c0.1-0.1,0.2-0.1,0.4-0.1c0.2,0,0.4,0,0.4,0.1c0.3,0.2,0.9,0.8,1.7,1.6c0.8,0.8,1.3,1.4,1.6,1.7c0.1,0,0.1,0.1,0.1,0.4
	c0,0.2,0,0.3-0.1,0.4L109.1,233.9z M109.8,201.3c-0.4,0-0.6-0.3-0.6-0.8c0-0.5,0.2-0.8,0.6-0.8c0.4,0,0.6,0.3,0.6,0.8
	C110.4,201,110.2,201.3,109.8,201.3z M110.7,199.7c-0.4,0-0.6-0.3-0.6-0.8c0-0.5,0.2-0.8,0.6-0.8c0.4,0,0.6,0.3,0.6,0.8
	C111.3,199.4,111.1,199.7,110.7,199.7z M111.5,198.1c-0.4,0-0.6-0.3-0.6-0.9c0-0.6,0.2-0.9,0.6-0.9c0.4,0,0.6,0.3,0.6,0.9
	C112.1,197.8,111.9,198.1,111.5,198.1z M112.2,196.4c-0.4,0-0.6-0.3-0.6-0.8c0-0.5,0.2-0.8,0.6-0.8c0.4,0,0.6,0.3,0.6,0.8
	C112.8,196.2,112.6,196.4,112.2,196.4z M113.9,212.8c-0.6-0.2-0.9-0.5-0.9-1c0-0.5,0-1,0-1.3c0-1.1,0-2.1,0.1-2.9
	c0.1-0.8,0.3-1.8,0.7-3V212.8z M113.9,239.6c-0.4,0-0.6-0.3-0.6-0.9c0-0.6,0.2-0.9,0.6-0.9c0.4,0,0.6,0.3,0.6,0.9
	C114.6,239.3,114.4,239.6,113.9,239.6z M114.3,194c0.5,0,0.8,0.2,1,0.5c0.2,0.4,0.3,0.8,0.3,1.2c0,0.3,0,0.6-0.1,0.7l-1.6-2.4H114.3
	z M114.7,162.3c-0.4,0-0.6-0.3-0.6-0.8c0-0.5,0.2-0.8,0.6-0.8c0.4,0,0.6,0.3,0.6,0.8C115.3,162,115.1,162.3,114.7,162.3z
	 M114.7,214.4c-0.2,0.1-0.4,0-0.4-0.4c0-0.3,0.1-0.5,0.4-0.5c0.2,0.1,0.4,0.2,0.4,0.4C115,214.1,114.9,214.3,114.7,214.4z
	 M114.7,240.3c-0.2,0.1-0.4,0-0.4-0.4c0-0.3,0.1-0.4,0.4-0.4c0.2,0,0.4,0.1,0.4,0.4S114.9,240.3,114.7,240.3z M115.5,215.9
	c-0.4,0-0.6-0.3-0.6-0.8c0-0.5,0.2-0.8,0.6-0.8c0.4,0,0.6,0.3,0.6,0.8C116.1,215.7,115.9,215.9,115.5,215.9z M115.5,242.8
	c-0.4,0-0.6-0.3-0.6-0.8c0-0.5,0.2-0.8,0.6-0.8c0.4,0,0.6,0.3,0.6,0.8C116.1,242.5,115.9,242.8,115.5,242.8z"/>
<path class="st0" d="M240,242c-1.2,1.5-2.7,2.8-4.5,3.7c-1.8,0.9-3.2,2.1-4.5,3.7c-0.3,0.4-0.7,1.2-1.2,2.3s-1,2.3-1.5,3.5
	c-0.5,1.2-1.1,2.3-1.7,3.3c-0.6,1-1.2,1.5-1.6,1.5c-2.1,0-4.3-0.6-6.6-1.9c-2.3-1.3-4.5-2.9-6.8-4.8c-2.2-2-4.4-4-6.5-6.2
	s-4-4.3-5.8-6.2c-1.8-2-3.4-3.6-4.7-4.8c-1.3-1.3-2.4-1.9-3.1-1.9v24.2c0,0.6-0.3,1.1-0.9,1.5c-0.6,0.4-1.2,0.9-2,1.2
	s-1.5,0.6-2.3,0.9c-0.8,0.2-1.4,0.3-1.8,0.4c0-1.1-0.2-2.1-0.5-3c-0.3-0.9-0.7-1.9-1-2.7c-0.4-0.9-0.7-1.8-1.1-2.7
	c-0.4-0.9-0.6-1.9-0.7-2.9H181c-1.3,0-2.1,0.4-2.5,1.1c-0.4,0.7-0.5,1.6-0.5,2.6c0,1,0.2,1.8,0.6,2.4c0.4,0.6,0.9,1.3,1.4,2
	c0.5,0.7,1,1.3,1.4,2c0.4,0.7,0.6,1.5,0.6,2.5c-1.1,0-2,0-2.6-0.1c-0.6-0.1-1.1-0.2-1.5-0.3c-0.4-0.1-0.8-0.2-1.3-0.4
	c-0.4-0.1-1-0.2-1.8-0.2v1.7l-3.3-0.2c-0.2-0.1-0.3-0.2-0.5-0.4c-0.2-0.2-0.3-0.3-0.3-0.4v-13.5c1.3,0,2.1-0.3,2.3-0.9
	c0.2-0.6,0.3-1.5,0.3-2.6c0-0.7,0-1.4,0-2.1c0-0.8-0.3-1.4-0.9-1.9l-1.7,0.7c0.1-0.7,0-1.2-0.4-1.4c-0.3-0.2-0.7-0.3-1.2-0.3
	c-1.4,0-2.6,0.4-3.7,1.2c-1.1,0.8-2.4,1.2-3.8,1.2c0,0.9-0.8,1.9-2.3,3.1c-1.5,1.2-3.5,2.4-5.9,3.7c-2.4,1.3-5.1,2.6-8,3.8
	c-2.9,1.3-5.8,2.4-8.6,3.4c-2.8,1-5.3,1.8-7.6,2.4c-2.3,0.6-4,0.9-5.1,0.9c-0.7,0-1-0.2-1.2-0.7c-0.1-0.5-0.2-1-0.2-1.5
	s0.8-1.4,2.5-2.6c1.7-1.3,3.8-2.8,6.3-4.5c2.5-1.7,5.2-3.7,8.1-6c2.9-2.2,5.6-4.6,8.1-7c2.5-2.4,4.6-4.9,6.3-7.4
	c1.7-2.5,2.5-5,2.5-7.3h-21c0-0.9-0.2-1.7-0.7-2.6c-0.5-0.8-1.2-1.2-2.2-1.2c-1,0-1.5,0.3-1.7,1c-0.2,0.7-0.2,1.4-0.2,2.3h-5.4
	c-0.1,0-0.2-0.1-0.4-0.3c-0.2-0.2-0.3-0.3-0.4-0.4l-0.2-4.5h45.9v-10.1c0-0.1-0.1-0.2-0.3-0.4c-0.2-0.2-0.4-0.3-0.5-0.4h-0.9l-9.8,4
	H157c0.4-0.2,0.8-0.6,1.2-1.2c0.4-0.6,0.5-1.1,0.5-1.6c0-0.2,0-0.3-0.1-0.4c-0.5,0.5-1,0.8-1.5,0.8c-0.5,0-1.1,0.1-1.6,0.1l-1.7-0.1
	l0.9-3.2c0.1,0.1,0.3,0.2,0.7,0.4c0.4,0.2,0.7,0.3,0.9,0.3c1.4,0,2.9-0.7,4.5-2c1.6-1.3,3.1-2.9,4.6-4.9c1.5-2,2.9-4.2,4.3-6.8
	c1.4-2.5,2.6-5,3.7-7.4c1.1-2.4,1.9-4.6,2.5-6.6c0.6-2,0.9-3.6,0.9-4.8l-0.1-2.4c0-0.6-0.3-0.9-0.9-0.9h-13.8c-0.8,0-1.9,1-3.2,2.9
	c-1.3,2-2.6,4.2-3.8,6.8c-1.2,2.6-2.3,5.1-3.2,7.7c-0.9,2.6-1.3,4.5-1.3,5.8l0.1,2.1c0,0.1,0.1,0.5,0.4,1.2c0.3,0.7,0.4,1.1,0.3,1.3
	c-0.1,0.3-0.4,0.7-1,1.1c-0.6,0.4-1.2,0.8-1.8,1.3c-0.7,0.4-1.3,0.9-1.8,1.5c-0.6,0.5-0.9,1.1-1,1.8c-0.1,0.4,0,1,0.4,1.6
	c0.3,0.7,0.7,1.4,1.1,2.1c0.4,0.7,0.8,1.4,1.2,1.9c0.4,0.5,0.5,0.8,0.5,0.9c0.1,0.2,0.2,0.3,0.3,0.5c0.1,0.2,0.2,0.3,0.3,0.5
	c0.1,0.2,0.2,0.4,0.2,0.6c0,0.5-0.3,0.9-0.9,1.2c-0.6,0.3-1.3,0.6-2.1,0.7c-0.8,0.2-1.6,0.3-2.3,0.4c-0.7,0.1-1.3,0.1-1.6,0.1
	c-0.7,0-1.7-0.1-2.9-0.4c-1.2-0.2-2.3-0.6-3.4-1.1c-1.1-0.5-2-1.1-2.7-1.9c-0.8-0.8-1.2-1.7-1.2-2.7v-0.4c0-0.2,0-0.7,0.1-1.3
	c0.1-0.6,0.2-1.3,0.2-2c0.1-0.7,0.2-1.3,0.2-2c0.1-0.6,0.2-1,0.2-1.3c0.6,0.3,1.1,1,1.3,2.1s0.3,1.8,0.3,2h0.9
	c0.8,0,1.4-0.3,1.8-0.9c0.4-0.6,0.6-1.2,0.6-2c0-0.2-0.1-0.7-0.2-1.3c-0.1-0.6-0.3-1.2-0.5-1.8c-0.2-0.6-0.4-1.2-0.7-1.6
	c-0.2-0.5-0.5-0.7-0.7-0.7c-0.2,0-0.3,0-0.4,0.1c-0.2,0.2-0.7,0.5-1.3,1.2c-0.6,0.6-1,1-1.2,1.3c-0.2-0.9-0.8-1.8-1.7-2.6
	c-0.9-0.9-1.8-1.6-2.7-2.4c-0.9-0.7-1.8-1.4-2.6-2c-0.8-0.6-1.2-1.1-1.2-1.5v-0.4c0.2-0.4,0.4-0.7,0.9-0.9c1.5-0.1,3.1-0.3,4.9-0.7
	c1.8-0.4,3.5-0.9,5.2-1.6c1.7-0.7,3.2-1.7,4.5-2.9c1.3-1.2,2.2-2.7,2.6-4.5h-9c-0.7,0-1.7-0.8-2.8-2.3c-1.1-1.5-2.2-3.2-3.3-5.1
	c-1.1-1.9-2-3.8-2.7-5.6c-0.7-1.8-1.1-2.9-1.1-3.4c0-0.6,0.3-1,0.8-1.2c0.5-0.2,1.1-0.4,1.8-0.5c0.7-0.1,1.3-0.1,1.9,0
	c0.6,0.1,1,0.1,1.3,0.1c2.3,0,4.5,0.3,6.6,0.9c2.2,0.6,4.3,0.9,6.5,0.9h0.7c-0.8-2.6-2-5-3.6-7.1c-1.6-2.2-3.4-4.1-5.3-5.9
	c-0.1-0.2-0.1-0.4-0.1-0.9c0-0.8,0.5-1.4,1.5-1.7c1-0.3,2.1-0.5,3.2-0.7c1.2-0.1,2.3-0.2,3.4-0.1c1.1,0,1.7,0.1,1.8,0.1
	c1.3,0,2.8,0.1,4.5,0.2c1.7,0.2,3.3,0.5,4.8,1.2c1.5,0.6,2.8,1.5,3.8,2.6c1,1.1,1.5,2.6,1.5,4.5c0,1.9-0.4,3.5-1.2,4.8
	c-0.8,1.3-1.9,2.3-3.2,3.1c-1.3,0.8-2.8,1.3-4.5,1.5s-3.3,0.2-4.9,0c0.9,1.2,1.5,2.6,1.8,4.3c0.3,1.6,0.5,3.2,0.6,4.6
	c0.1,0.1,0.2,0.1,0.4,0.1c0.2,0,0.4,0,0.4-0.1c0.1,0,0.2-0.1,0.4-0.3c0.2-0.2,0.3-0.3,0.4-0.4c0.2-0.3,0.9-1.1,1.9-2.3
	c1-1.2,2.1-2.5,3.3-3.9c1.2-1.4,2.3-2.7,3.4-3.8c1.1-1.2,1.7-1.9,2.1-2.1c0.3-0.5,0.8-1,1.5-1.6c0.7-0.6,1.3-1.2,1.9-1.8
	c0.6-0.6,1.4-1.4,2.3-2.3h2.9c0,0.8-0.1,1.6-0.4,2.3c-0.3,0.7-0.6,1.4-0.9,2c-0.3,0.7-0.6,1.3-0.9,2c-0.3,0.7-0.4,1.4-0.4,2.1
	c2.9,0,6,0.2,9.2,0.6c3.2,0.4,6.2,0.6,9,0.6c0-1.4-0.7-2.4-2.2-3.2s-2.8-1.3-4-1.6c0-0.4,0-1.2-0.1-2.3c-0.1-1.1-0.2-2.3-0.2-3.5
	c-0.1-1.2-0.2-2.4-0.2-3.4c-0.1-1.1-0.1-1.8-0.1-2.2v-1c0-0.3,0-0.6,0.1-0.9c0-0.2,0.3-0.4,0.7-0.6l3.7-0.1c0.6,0,2,0.1,4.2,0.2
	c2.2,0.1,4.6,0.3,7,0.4c2.4,0.2,4.6,0.3,6.6,0.5c2,0.2,2.9,0.4,2.9,0.5v2.4l-4.1,4c-0.3-0.2-0.7-0.7-1-1.3c-0.4-0.6-0.7-1.3-1.1-2
	c-0.4-0.7-0.7-1.3-1.1-1.8c-0.4-0.5-0.8-0.7-1.3-0.7c-0.7,0-1.1,0.3-1.2,1c0,0.7-0.1,1.2-0.1,1.7c0,1.4,0.5,2.5,1.6,3.4
	c1.1,0.9,2.3,1.3,3.7,1.3v7.3h3.7c0.2-0.2,0.5-0.8,1.2-1.5c0.6-0.8,1.3-1.6,2.2-2.5c0.9-0.9,1.8-1.7,2.8-2.4c1-0.7,1.9-1,2.8-1
	c0.3,0,0.6,0,0.9,0.1c2.2,1.6,4.6,3.4,7.2,5.2c2.6,1.9,4.8,3.9,6.7,6.1l-3.3,3.3v15.4c0,0.6,0.4,0.9,1.2,0.9c0.8,0,1.3,0.1,1.5,0.1
	c1.1,0,2-0.2,2.6-0.6c0.6-0.4,1.3-1.3,2-2.8c1.8,1.3,3.1,2.8,3.8,4.6c0.7,1.8,1.1,3.8,1.1,6c0,0.2-0.1,0.7-0.4,1.6
	c-0.2,0.9-0.4,1.5-0.4,1.6c-0.1,0.2-0.1,0.5-0.2,1c0,0.5-0.1,1.1-0.1,1.8c0,0.7,0,1.3,0.1,1.8c0,0.6,0.1,0.9,0.2,1
	c-2.3,1.1-4.7,1.6-7.3,1.6c-2.6,0-5.1,0.1-7.5,0.1c-0.9,0-2.2,0-3.9,0s-3.5-0.2-5.2-0.5c-1.8-0.4-3.3-1-4.6-1.9
	c-1.3-0.9-2-2.3-2-4.1v-27.6c0-0.1-0.2-0.2-0.5-0.4c-0.3-0.2-0.6-0.3-0.7-0.4l-1.7-0.9h-0.4c-1.2,0-2.4,0.9-3.5,2.8
	c-1.1,1.9-2.1,4-3.1,6.5c-1,2.4-2,4.9-2.9,7.3c-1,2.4-2,4.2-3,5.4c-0.4,0.5-1.1,1.3-2.2,2.4c-1.1,1.1-2.2,2.3-3.4,3.5
	c-1.2,1.2-2.4,2.4-3.5,3.4c-1.1,1.1-1.9,1.8-2.4,2.2c0.2,0.4,1.1,0.8,2.9,1.1c1.8,0.3,3.8,0.6,6,0.9c2.2,0.3,4.4,0.5,6.5,0.7
	c2.1,0.2,3.4,0.3,4.1,0.4c0.1,0.2,0.1,0.5,0.1,0.9c0,0.9-0.2,1.6-0.7,2.1c-0.4,0.5-0.9,1-1.5,1.5c-0.5,0.4-1,0.9-1.5,1.5
	c-0.4,0.5-0.7,1.2-0.7,2c0,0.1,0,0.3,0,0.7c0,0.4,0,0.8,0.1,1.2c0.1,0.4,0.2,0.8,0.3,1.2c0.1,0.3,0.3,0.5,0.5,0.5h20.3
	c0.6,0,1.3-0.4,2.1-1.3c0.9-0.9,1.7-1.9,2.6-3c0.9-1.1,1.7-2.2,2.4-3.3c0.8-1.1,1.4-1.7,1.9-2.1c0-0.1,0.1-0.1,0.4-0.1
	c0.4,0,1.1,0.3,2.1,0.8c1,0.5,2.1,1.2,3.4,2c1.3,0.8,2.5,1.7,3.8,2.7c1.3,1,2.5,2,3.6,3.1c1.1,1,2,2,2.7,2.8c0.7,0.9,1.1,1.5,1.1,2
	v0.5c-0.2,0.3-0.5,0.6-0.9,0.9c-0.4-1.5-1-2.4-1.8-2.9c-0.8-0.5-1.8-0.7-3-0.7v4.4h-23.5c0.4-0.6,1.1-1,2-1.3
	c0.9-0.3,1.8-0.5,2.7-0.7c0.9-0.2,1.7-0.4,2.4-0.6c0.7-0.2,1-0.5,1-1c0-0.6-0.2-0.9-0.7-1c-0.5-0.1-1-0.2-1.5-0.2
	c-0.6,0-1.1,0.1-1.5,0.2c-0.4,0.1-0.9,0.5-1.3,1h-19.6l-0.7,1.2c0.6,0.5,1.2,0.8,1.9,1c0.7,0.2,1.4,0.3,2.1,0.4
	c0.7,0.1,1.4,0.2,2.1,0.3c0.7,0.1,1.3,0.4,1.9,0.8c-0.3,0.2-0.8,0.4-1.5,0.7c-0.7,0.3-1,0.8-1,1.3c0,1.1,0.9,2.1,2.6,3.2
	s4,2.2,6.7,3.2c2.7,1,5.8,2,9.1,2.9c3.3,0.9,6.5,1.8,9.5,2.6c3,0.8,5.7,1.4,8.1,2c2.4,0.5,4,0.9,4.9,1.2c-1.5,0.2-2.6,0.7-3.5,1.7
	c-0.9,1-1.6,2-2.3,3.2c0.1,0.1,0.2,0.1,0.4,0.1c0.3,0,0.9-0.1,1.6-0.3s1.4-0.5,2.1-0.9c0.7-0.4,1.3-0.8,1.8-1.3
	c0.5-0.5,0.7-1.1,0.6-1.7L240,242z M132.6,257.4c-0.2-0.7-0.6-1.2-1-1.8c-0.4-0.5-1-0.8-1.7-0.8c0,0.7,0.1,1.4,0.3,1.9
	c0.2,0.5,0.7,0.8,1.5,0.8C132.2,257.5,132.4,257.5,132.6,257.4z M136.6,251.8c0.4,0,0.6-0.3,0.6-0.9c0-0.6-0.2-0.9-0.6-0.9
	c-0.4,0-0.6,0.3-0.6,0.9C136,251.5,136.2,251.8,136.6,251.8z M137.5,252.5c0.2,0.7,0.3,1.4,0.5,2c0.2,0.6,0.7,0.9,1.5,0.9
	c0-1.9-0.7-3.1-2-3.7V252.5z M154.7,151.8c0-0.6-0.2-1-0.5-1.4c-0.4-0.4-0.8-0.6-1.3-0.8c-0.5-0.2-1.1-0.3-1.6-0.3
	c-0.6,0-1.1-0.1-1.5-0.1c-1,0-1.8,0.1-2.5,0.2c-0.7,0.2-1,0.8-1,2c0.5,0,1.1,0,1.8,0c0.7,0,1.5,0,2.3,0.1c0.8,0,1.6,0.1,2.4,0.3
	c0.8,0.2,1.4,0.4,1.9,0.7C154.7,152.3,154.7,152.1,154.7,151.8z M150.5,240.3c-0.2,0-0.4,0-0.8,0.1c-0.4,0.1-0.8,0.2-1.2,0.3
	c-0.4,0.1-0.9,0.3-1.3,0.5c-0.4,0.2-0.7,0.5-0.9,0.8c0.2,0.5,0.5,0.8,0.9,0.8c0.4,0,0.8,0.1,1.2,0.1c0.6,0,1.2-0.1,1.5-0.3
	c0.4-0.2,0.5-0.7,0.5-1.4V240.3z M153,211.9v-0.9l2.4,0.9H153z M162,167.1c0-0.3,0-0.6-0.1-0.7c-1.1,0.7-1.7,1.5-1.7,2.4
	c0,0.3,0,0.6,0.1,0.7C161.4,168.9,162,168.1,162,167.1z M162.7,161.5v2.4c0.5-0.2,0.8-0.5,0.9-1.1c0.1-0.6,0.1-1,0.1-1.3H162.7z
	 M180.7,210.2c0-0.5-0.4-1-1.1-1.5c-0.7-0.5-1.6-1-2.5-1.4c-0.9-0.4-1.9-0.8-2.8-1.1c-0.9-0.3-1.6-0.4-2-0.4c0,0.4,0.2,1,0.6,1.8
	c0.4,0.8,0.9,1.6,1.4,2.4c0.5,0.8,1.1,1.5,1.6,2.1c0.6,0.6,1,0.9,1.3,0.9c0.8,0,1.6-0.2,2.3-0.5C180.3,212,180.7,211.3,180.7,210.2z
	 M177.4,230.6c-0.1-0.1-0.3-0.2-0.8-0.4c-0.4-0.2-0.8-0.3-0.9-0.3c-0.1,0-0.2,0.1-0.4,0.3c-0.2,0.2-0.3,0.3-0.3,0.4H177.4z
	 M187.8,227.4c0.1-0.2,0.2-0.7,0.5-1.6c0.2-0.9,0.4-1.5,0.4-1.6c0-0.1-0.2-0.3-0.7-0.7c-0.4-0.4-0.7-0.7-0.9-0.9
	c-0.1-0.1-0.2-0.1-0.5-0.1c-0.2,0-0.3,0-0.4,0.1c-0.6,2.7-1.4,4.7-2.4,6.1c-1,1.4-2.9,2.3-5.8,2.8c0.4,0.4,0.9,0.9,1.4,1.6
	c0.6,0.7,1.2,1.3,1.9,1.9c0.7,0.6,1.4,1.1,2.2,1.6c0.8,0.4,1.5,0.7,2.2,0.7s1.5-0.2,2.4-0.5c0.8-0.4,1.3-1,1.3-1.9
	c0-1.1-0.3-2.2-0.8-3c-0.6-0.9-0.8-1.9-0.8-3.1V227.4z M187.1,190c0.4,0,0.6-0.3,0.6-0.8c0-0.5-0.2-0.8-0.6-0.8
	c-0.4,0-0.6,0.3-0.6,0.8C186.5,189.7,186.7,190,187.1,190z M217.2,164c0.2-0.6,0-1.2-0.5-1.8c-0.5-0.6-1.2-1.2-1.9-1.7
	c-0.7-0.5-1.5-1-2.3-1.4c-0.8-0.4-1.4-0.7-1.7-0.9c-0.5,0.3-1.3,0.9-2.4,1.6c-1.1,0.7-1.7,1.6-1.7,2.6c0,0.8,0.2,1.5,0.7,2.1
	s1.1,1.1,1.8,1.5c0.7,0.4,1.5,0.7,2.3,0.9c0.8,0.2,1.5,0.3,2.2,0.3c0.2,0,0.6-0.1,1-0.4c0.4-0.2,0.8-0.5,1.2-0.9
	c0.4-0.4,0.7-0.7,1-1.1C217,164.5,217.2,164.2,217.2,164z M215.6,196.4H214c0.3,0.7,0.9,1.1,1.6,1.1V196.4z M234.7,178
	c-1.1,0-1.9,0.2-2.1,0.5c-0.3,0.4-0.8,1.2-1.5,2.5c-0.1-0.1-0.1-0.2-0.1-0.5c0-0.8,0.3-1.8,0.9-2.9c0.6-1.1,1.4-1.6,2.4-1.6
	c0.4,0,0.7,0,0.9,0.1c0.2,1.7,0.5,3.4,1,4.9c0.5,1.6,1.1,3.2,1.6,4.7c0.6,1.5,1.1,3.1,1.5,4.6c0.4,1.5,0.7,3,0.7,4.5
	c0,1.1-0.2,2.3-0.5,3.6c-0.3,1.3-1,2.3-2,2.9v-0.4c0-1.1,0.1-2.1,0.4-3c0.3-0.9,0.4-2,0.4-3.1c0-1.5-0.1-2.8-0.4-3.7
	c-0.3-0.9-1.4-1.8-3.2-2.8V178z"/>
<path class="st0" d="M340.9,176.2c0.7,1.5,2.1,2.3,4,2.5c1.9,0.2,4,0.3,6.2,0.3c2.2,0,4.4,0.1,6.4,0.3c2,0.2,3.5,1,4.5,2.5
	c0,0.6-0.3,0.9-0.9,0.9c-2.2,0-4.5-0.2-6.8-0.7c-2.3-0.5-4.7-0.7-7-0.7v0.9c0.6,0,1.3,0,2.1,0.1c0.9,0,1.7,0.2,2.4,0.5
	c0.8,0.3,1.4,0.7,2,1.3c0.5,0.6,0.8,1.4,0.8,2.4v0.4c-0.2,0.6-0.6,1.4-1.1,2.6c-0.5,1.1-1,2.3-1.5,3.4c-0.5,1.1-1,2.2-1.4,3.1
	c-0.4,0.9-0.8,1.4-0.9,1.5c0.2-0.6,0.2-1.3-0.2-1.8c-0.4-0.6-0.9-1.1-1.5-1.5c-0.6-0.4-1.3-0.8-2-1c-0.7-0.2-1.3-0.4-1.8-0.4
	c0,1.5,0.2,2.5,0.6,3.1c0.4,0.6,1.5,1.2,3.3,1.6v0.9l-5.4,4.9v34.6c-0.4,0-0.9,0.2-1.6,0.7c-0.7,0.5-1.3,1.1-2,1.7
	c-0.7,0.7-1.3,1.3-1.8,1.9c-0.5,0.6-0.7,1-0.7,1.3c0,0.6,1,1.1,2.9,1.6s4.1,1.2,6.5,2c2.4,0.9,4.5,2,6.5,3.3c2,1.3,2.9,3.1,2.9,5.3
	c0,1.5-0.4,2.8-1.2,3.8c-0.8,1-1.8,1.8-3,2.4c-1.2,0.6-2.5,1-4,1.3c-1.4,0.2-2.7,0.4-4,0.4c-0.7,0-1.9-0.4-3.8-1.2
	c-1.9-0.8-4.2-1.9-6.8-3.1c-2.6-1.3-5.4-2.6-8.3-4.1c-2.9-1.5-5.7-2.9-8.4-4.3c-2.6-1.4-5-2.6-7-3.7c-2-1.1-3.4-1.8-4.1-2.3v-0.9
	c0.1-0.2,0.2-0.6,0.4-1c0.2-0.4,0.3-0.6,0.4-0.6h16.2c0.5,0,0.8-0.2,0.9-0.7c0.1-0.4,0.1-0.8,0.1-1c0-0.5-0.2-0.9-0.7-1.2
	c-0.4-0.3-1-0.5-1.5-0.7c-0.6-0.2-1.1-0.3-1.6-0.4c-0.5-0.1-0.9-0.2-1.2-0.2c0-0.1,0.2-0.4,0.7-0.9c0.4-0.5,1-1,1.6-1.6
	c0.6-0.6,1.2-1.1,1.6-1.6c0.5-0.5,0.8-0.8,1-0.9v-6.8h-16.2c0.3-0.6,0.5-1,0.7-1.2c0.1-0.2,0.2-0.5,0.2-0.7c0-0.2,0-0.4-0.1-0.7
	c-0.1-0.2-0.1-0.6-0.1-1.1h-7.2c-0.1,0-0.2,0.1-0.4,0.3c-0.2,0.2-0.3,0.3-0.3,0.4c0,0.2,0.1,0.7,0.3,1.5c0.2,0.7,0.3,1.2,0.4,1.5
	h-13.8v8.1h29.3c-0.7,1.1-1,2.5-1,4.1h-17.7c-0.2,0-0.4,0.1-0.9,0.4c-0.4,0.3-0.7,0.5-0.9,0.8v0.7c0.1,0.1,0.2,0.4,0.5,0.9
	s0.4,0.8,0.4,0.9c-0.4,2.4-1.6,4.1-3.5,5.1c-1.9,1.1-4,1.2-6.3,0.5c-0.3,0.2-0.6,0.5-0.9,0.9v0.9c1.5,0.8,2.6,1.4,3.5,1.8
	c0.9,0.4,2,0.6,3.4,0.6c0.6,0,1.2-0.2,2-0.5c0.7-0.3,1.4-0.7,2-1.2c0.6-0.5,1.1-1.1,1.5-1.7c0.4-0.6,0.6-1.3,0.6-2v-0.4
	c-0.1-0.2-0.3-0.8-0.8-1.6c-0.4-0.9-0.7-1.4-0.8-1.6h0.4c0.6,0,1.5,0.2,2.7,0.7c1.2,0.5,2.5,1.1,3.7,1.8c1.3,0.7,2.4,1.5,3.3,2.4
	c0.9,0.9,1.4,1.6,1.4,2.4c0,0.8-1.2,1.7-3.7,2.8c-2.4,1.1-5.6,2.1-9.4,3.2c-3.8,1.1-8,2.1-12.6,3.2c-4.6,1.1-8.9,2-13.1,2.8
	c-4.2,0.8-7.9,1.5-11.2,2c-3.3,0.5-5.6,0.7-6.8,0.7c-0.7,0-1.3-0.1-2-0.2c-0.7-0.1-1-0.5-1-1.3c0-1,0.7-1.9,2-2.7
	c1.3-0.8,3-1.6,4.9-2.4c2-0.8,4.1-1.5,6.5-2.3c2.4-0.7,4.5-1.5,6.5-2.4c2-0.9,3.6-1.8,4.9-2.8c1.3-1,2-2.1,2-3.4
	c-0.3,0-0.8,0-1.5,0.1c-0.7,0-1.4,0.1-2.1,0.1c-0.7,0-1.4,0.1-2.1,0.1c-0.7,0-1.2,0-1.4-0.1c-0.2,0-0.6-0.1-1.2-0.3
	c-0.5-0.2-0.8-0.3-0.8-0.4v-53.4c-1.3,0-2.5,0.3-3.5,1c-1,0.7-2,1.4-2.9,2.1c-0.9,0.8-1.9,1.5-2.8,2.1c-0.9,0.7-1.9,1-3,1
	c-0.8,0-1.7-0.8-2.7-2.4s-1.9-3.4-2.8-5.4c-0.9-2-1.6-4-2.3-6c-0.6-2-0.9-3.3-0.9-4.1c0-0.8,0.4-1.4,1.1-1.7
	c0.7-0.3,1.5-0.6,2.2-0.7c7-0.6,12.9-1.2,17.7-1.8c4.8-0.6,8.9-1.9,12.3-3.8s6.2-4.9,8.5-9c2.3-4,4.4-9.7,6.3-17.1
	c0.2-0.4,0.4-0.6,0.7-0.7c0.3-0.1,0.6-0.1,0.9-0.1l0.9,0.1l16.2,3.2c0.8,0.2,1.7,0.3,2.7,0.5c1,0.2,1.5,0.8,1.5,1.9
	c0,0.9-0.3,1.5-1,1.9c-0.7,0.4-1.4,0.8-2.2,1.2c-0.8,0.4-1.5,0.9-2.2,1.5c-0.7,0.6-1,1.5-1,2.7h26.6c1,0,1.8-0.3,2.4-1
	c0.6-0.7,1.3-1.4,2-2.2c0.7-0.8,1.3-1.5,2-2.2c0.7-0.7,1.6-1,2.6-1h0.7c0.2,0.2,0.7,0.6,1.3,1.2c0.6,0.5,1.3,1.1,2,1.7
	s1.4,1.2,2,1.7c0.6,0.5,1,0.9,1.3,1.2c0.2,0.2,0.6,0.6,1.1,1c0.5,0.4,0.7,0.9,0.7,1.5h-1.2c0,0.8,0.1,1.5,0.4,2
	c0.3,0.5,0.6,0.9,0.9,1.3c0.3,0.4,0.6,0.8,0.9,1.2c0.3,0.4,0.4,1,0.4,1.7c0,0.2,0,0.3-0.1,0.4c-0.4,0.2-1,0.6-1.8,1
	c-0.8,0.4-1.7,0.9-2.6,1.4c-0.9,0.5-1.9,0.9-2.8,1.2c-0.9,0.3-1.8,0.5-2.5,0.5c-0.5,0-0.9-0.1-1.2-0.3c-0.3-0.2-0.7-0.4-1-0.7
	c-0.3-0.3-0.7-0.5-1-0.7c-0.3-0.2-0.7-0.3-1.2-0.3c0,0.5-0.1,0.9-0.2,1.2c-0.1,0.3-0.2,0.6-0.2,0.9s0,0.5,0.2,0.7
	c0.2,0.2,0.7,0.5,1.4,0.9L340.9,176.2z M281.5,163.5c0,2.7-1,4.9-2.9,6.8c-1.9,1.8-4.2,2.7-6.8,2.7c-1.2,0-2.8-0.9-4.9-2.7
	c-2-1.8-4-3.9-6-6.3c-2-2.4-3.6-4.8-5.1-7.1c-1.4-2.4-2.1-4.1-2.1-5.2c0-0.8,0.4-1.3,1.1-1.4s1.4-0.2,2.1-0.2c2,0,4.5,0.2,7.3,0.5
	c2.8,0.3,5.5,1,8.1,2c2.6,1,4.7,2.3,6.5,4.1C280.6,158.3,281.5,160.6,281.5,163.5z M259.5,194c0-1.3-0.6-2-1.8-2
	c0,0.4,0,0.9,0.1,1.6c0.1,0.7,0.4,1.1,0.9,1.2C259.2,194.8,259.5,194.5,259.5,194z M266.2,188.4c0-1.3-0.3-2.7-1-4.1
	c-1.9,0.2-3.3,1.1-4.1,2.4c0.3,0.9,1.1,1.4,2.2,1.5C264.4,188.3,265.4,188.4,266.2,188.4z M278.2,168.8c0-0.1-0.4-0.2-1.2-0.4
	c-0.8-0.2-1.5-0.3-2-0.4c-1.4-0.2-2.8-0.5-4.3-1c-1.5-0.5-2.9-0.8-4.1-0.8c0,0.2,0,0.7,0.1,1.3c0,0.7,0.1,1.1,0.2,1.3
	c0,0.1,0.1,0.2,0.4,0.4c0.2,0.2,0.4,0.3,0.5,0.3h10.5V168.8z M279.9,203.4c0-1-0.4-1.8-1.3-2.4c-0.9-0.6-1.9-1.1-3-1.5
	c-1.2-0.4-2.4-0.6-3.5-0.7c-1.2-0.1-2.1-0.1-2.7,0c-0.9,0.2-1.4,0.6-1.5,1.3c-0.1,0.7-0.2,1.3-0.2,1.9c0,1,0.1,1.8,0.3,2.4
	c0.2,0.7,0.9,1,2,1c1.5,0,3.1-0.1,4.6-0.2c1.5-0.2,3-0.4,4.6-0.6c0.2-0.1,0.5-0.4,0.9-0.9V203.4z M275.7,215.2
	c-0.3-0.7-0.9-1.2-1.8-1.4c-0.9-0.2-1.6-0.3-2.3-0.3c-1.6,0-2.6,0.5-3,1.5c-0.4,1-0.5,2.2-0.5,3.6c1.1,0,2.4-0.5,3.7-1.5
	C273.2,216.2,274.5,215.5,275.7,215.2z M273.6,237.2c-1,0-1.9-0.2-2.7-0.5c-0.9-0.3-1.8-0.5-2.7-0.5l0.2,4.1
	c0.1,0.2,0.2,0.3,0.4,0.5c0.2,0.2,0.3,0.3,0.4,0.3c1.1,0,2.1-0.4,3-1.2C273.2,239.3,273.6,238.3,273.6,237.2z M277.4,255.8
	c-0.1,0-0.4,0-0.9,0.1c-0.5,0-1.1,0.1-1.7,0.2c-0.6,0.1-1.2,0.3-1.6,0.5c-0.5,0.2-0.7,0.6-0.7,1.1c0,0.7,0.1,1.3,0.2,2
	c0.2,0.7,0.6,1,1.3,1c0.6,0,1.1-0.2,1.5-0.6c0.4-0.4,0.8-0.9,1.1-1.4c0.3-0.5,0.6-1.1,0.9-1.6c0.2-0.6,0.5-1,0.7-1.3H277.4z
	 M293.7,171.3c-0.5,0.7-1.3,1.7-2.5,2.9c-1.2,1.2-2.5,2.4-4,3.7c-1.5,1.3-3,2.6-4.5,4c-1.5,1.3-3,2.5-4.3,3.6
	c-1.3,1.1-2.4,1.9-3.2,2.6c-0.8,0.7-1.2,1.1-1.2,1.2c0,0.4,0.2,0.8,0.5,1c0.4,0.3,0.8,0.5,1.3,0.7c0.5,0.2,1,0.4,1.5,0.5
	c0.5,0.1,1,0.2,1.3,0.2c0.2,0,0.3,0,0.4-0.1c2.1-1,4.7-2.2,7.7-3.5c3-1.4,5.9-3,8.6-4.9c2.7-1.9,5-4.1,7-6.6
	c1.9-2.5,2.9-5.4,2.9-8.5c0-0.6-0.1-1-0.3-1.3c-0.2-0.3-0.7-0.7-1.4-1c0.4-0.2,0.6-0.4,0.7-0.7c0.1-0.3,0.1-0.7,0.1-1
	c0-0.6-0.3-1.2-1-1.5c-0.7-0.4-1.5-0.8-2.3-1.2c-0.9-0.4-1.6-0.9-2.3-1.4c-0.7-0.5-1-1.3-1-2.3c0-0.9,0.3-1.7,0.8-2.3
	c0.5-0.6,1.1-1.3,1.8-1.8h-0.4c-2.9,0-5.2,0.6-6.9,1.8c-1.7,1.2-2.5,3.5-2.5,6.9c0,1,0.1,1.7,0.4,2.2c0.3,0.5,0.5,1,0.8,1.4
	c0.2,0.4,0.4,1,0.6,1.7c0.2,0.7,0.1,1.7-0.1,3.1L293.7,171.3z M283.9,172c-0.1,0-0.2,0.1-0.4,0.3c-0.2,0.2-0.3,0.4-0.4,0.5l-0.2,2.6
	c0.2,0,0.8-0.1,1.5-0.4c0.8-0.2,1.6-0.5,2.4-0.9c0.9-0.3,1.6-0.7,2.3-1.1c0.7-0.4,1-0.8,1-1.1H283.9z M322.9,200.6h-36.6v6.5h36.6
	V200.6z M322.9,213.5h-36.6v6.6h36.6V213.5z M286.3,221.7v0.9h0.9L286.3,221.7z M287.9,239.6l-0.7,0.7h0.7V239.6z M322.9,174.5h-1.6
	c-1.3,1.4-2.9,3.1-4.9,5.1c-2,2-3.9,3.6-5.7,4.7c-0.1,0.1-0.2,0.1-0.4,0.1c-0.2,0-0.4,0-0.5-0.1c-0.4-0.1-0.7-0.3-0.7-0.7
	c-0.4,1.3-1.2,2.3-2.3,3s-2.3,1.3-3.5,1.8c-0.6,0.2-1.5,0.5-2.9,0.9c-1.4,0.4-2.8,1-4.4,1.5c-1.5,0.6-3,1.1-4.4,1.5
	c-1.4,0.4-2.4,0.8-2.9,0.9l-0.9,1.2h17.9v2c0.7-1.1,1.5-1.7,2.4-1.7c0.6,0,1,0.2,1.3,0.5c0.3,0.4,0.5,0.8,0.7,1.2
	c0.2,0.4,0.4,0.9,0.7,1.2c0.3,0.4,0.7,0.5,1.3,0.5v-3.8h10.6l6.5-7L322.9,174.5z M292.8,237.9c-0.1-0.4-0.3-0.6-0.6-0.7
	c-0.3-0.1-0.7-0.1-1-0.1c-0.3,0-0.6,0-0.9,0.1v0.7H292.8z M295.2,171.3c-0.4,0-0.6-0.3-0.6-0.9c0-0.6,0.2-0.9,0.6-0.9
	c0.4,0,0.6,0.3,0.6,0.9C295.8,171,295.6,171.3,295.2,171.3z M297.7,168.8c-0.1,0.1-0.4-0.2-1-0.9c-0.6-0.6-1.1-1.2-1.4-1.6v-0.9
	c0-1.1,0.6-1.7,1.7-1.7c0.8,0,1.5,0.4,2,1.1c0.5,0.7,1.2,1.2,2.1,1.5L297.7,168.8z M309.9,154.9c-0.5-1-1.2-2.1-2.2-3.4
	c-1-1.3-2.1-1.9-3.4-1.9v1.2l4,4H309.9z M316.5,167.1h-9.2c0,1.4,0.6,2.7,1.8,4c1.2,1.3,2.5,1.9,3.9,1.9c0.6,0,1.2,0,1.7-0.1
	c0.4-0.1,0.8-0.2,1.2-0.3c0.4-0.1,0.5-0.3,0.5-0.5V167.1z M327,226.6c-0.3,0.1-0.6,0.4-0.7,0.9h0.7c0.5-0.3,0.8-0.6,0.9-0.9H327z
	 M327,167.6c0,0.6,0.2,1.2,0.6,1.8c0.4,0.6,0.9,1.2,1.5,1.7c0.6,0.5,1.2,1,1.8,1.3c0.7,0.3,1.3,0.5,1.8,0.5c1.1,0,1.9-0.6,2.4-1.8
	c0.6-1.2,0.9-2.2,0.9-3.1c0-0.2,0-0.6-0.1-1c-0.1-0.4-0.3-0.6-0.7-0.6h-7.3c-0.1,0-0.2,0.1-0.4,0.3c-0.2,0.2-0.3,0.3-0.4,0.4V167.6z
	 M332.7,196.8c0-1.7-0.4-3-1.3-4c-0.9-1-2.2-1.5-3.9-1.5c0,1.3,0,2.3,0.1,3.1c0.1,0.7,0.3,1.3,0.6,1.6c0.3,0.4,0.8,0.6,1.5,0.7
	C330.4,196.7,331.4,196.8,332.7,196.8z M333.9,188c0-1.1-0.3-2.1-1-2.9c-0.7-0.8-1.6-1.2-2.9-1.2c0,1.1,0.4,2.1,1.1,2.9
	C331.8,187.6,332.8,188,333.9,188z M340,161.5c0-0.6-0.3-0.9-0.9-0.9c-0.2,0-0.8,0.1-1.6,0.3c-0.9,0.2-1.4,0.4-1.5,0.5
	c0.6,1.1,1.5,1.7,2.4,1.7c0.5,0,0.9-0.1,1.2-0.3C339.9,162.7,340,162.3,340,161.5z M338.4,202.2c-0.7,0.3-1.2,0.7-1.4,1
	c-0.2,0.4-0.3,0.8-0.3,1.4c0,1.2,0.6,1.8,1.7,1.8V202.2z M359.5,167.1c-0.4,0-0.6-0.2-0.6-0.7h-0.2c-0.4,0-0.6-0.3-0.6-0.9
	c0-0.6,0.2-0.9,0.6-0.9c0.4,0,0.6,0.3,0.6,0.9h0.2c0.4,0,0.6,0.3,0.6,0.8C360.1,166.9,359.9,167.1,359.5,167.1z"/>
<path class="st0" d="M418.9,174.5c-0.2,0.2-0.5,0.6-0.9,1c-0.4,0.4-0.7,0.7-0.8,0.7h-50.4c-0.6,0-0.9-0.4-0.9-1.1c0-0.7,0-1.2,0-1.3
	c0-0.1,0-0.3,0-0.6c0-0.3,0-0.6,0.1-1c0-0.3,0.1-0.6,0.2-0.9c0.1-0.3,0.3-0.4,0.5-0.4h31.7c0.2,0,0.7-0.4,1.4-1.2
	c0.7-0.8,1.4-1.7,2.3-2.7c0.8-1,1.6-2,2.3-2.9c0.7-0.9,1.2-1.5,1.4-1.7c1.2,0.4,2.5,1.1,3.7,2.1c1.3,1,2.5,2.1,3.7,3.3
	c1.2,1.2,2.3,2.3,3.2,3.4c1,1.1,1.8,2,2.4,2.6V174.5z M392.1,203.4c0.1,0,0.5-0.4,1.2-1.2c0.7-0.8,1.4-1.7,2.2-2.6
	c0.8-0.9,1.8-2.2,3.1-3.8c0.4-0.5,0.6-0.8,0.7-0.9c0.1-0.1,0.4-0.1,0.9-0.1c0.8,0,1.9,0.4,3.4,1.3c1.4,0.9,2.8,1.9,4.1,3
	c1.3,1.2,2.4,2.4,3.4,3.6s1.5,2.2,1.5,3c0,2-1.1,2.9-3.3,2.9h-35.9c-0.5,0-0.9-0.2-1.2-0.7c-0.3-0.5-0.5-1.1-0.7-1.7
	c-0.2-0.7-0.3-1.2-0.3-1.8c0-0.5-0.1-0.9-0.1-1H392.1z M392.8,187.1c0.4-0.7,0.9-1.6,1.3-2.6s1-1.9,1.6-2.8c0.6-0.9,1.2-1.7,1.9-2.3
	c0.7-0.6,1.4-1,2.1-1c0.9,0,2,0.5,3.3,1.5c1.3,1,2.6,2.1,3.9,3.3c1.3,1.2,2.4,2.4,3.4,3.5c1,1.1,1.6,1.9,2,2.3
	c0.1,0.2,0.1,0.5,0.1,0.9c0,0.8-0.3,1.4-0.9,1.9c-0.6,0.4-1.3,0.7-2.1,0.7c-1,0-1.8-0.6-2.4-1.8c-0.7-1.2-1.3-2.5-1.8-3.9
	c-0.6-1.4-1.1-2.6-1.6-3.7c-0.5-1.1-1.1-1.5-1.7-1.3c-1.1,0.4-1.9,1.2-2.5,2.3c-0.6,1.1-0.9,2.2-0.9,3.2c0,0.2,0,0.4,0.1,0.6
	c0,0.2,0.1,0.4,0.1,0.5l4,4h-17.8c-0.4-1.1-1.2-1.8-2.3-2.4c-1.1-0.5-2.3-0.9-3.7-1c-1.3-0.2-2.7-0.2-4-0.2c-1.3,0-2.4,0.1-3.2,0.1
	v-1.7H392.8z M416.5,223.3l0.2,1.1c0,0.7-0.1,1.1-0.4,1.5c-0.3,0.3-0.6,0.6-1,0.8s-0.8,0.4-1.2,0.7c-0.4,0.2-0.7,0.5-1,0.9V251
	c0,0.6-0.1,1.4-0.2,2.6c-0.1,1.1-0.4,2.3-0.7,3.4c-0.4,1.1-0.9,2.1-1.5,2.9c-0.7,0.8-1.5,1.2-2.6,1.2l0.1-1.1c0-0.1,0.1-0.3,0.4-0.8
	c0.2-0.4,0.4-0.7,0.5-0.8v-0.9c-0.2-0.4-0.5-0.7-0.9-0.7c-1.7,0.7-3.3,1.2-4.9,1.7c-1.5,0.5-3.2,0.7-5,0.7c-1.3,0-2.1-0.3-2.4-0.8
	c-0.3-0.5-0.5-1.2-0.5-2c0-0.8-0.1-1.6-0.1-2.4s-0.3-1.6-0.9-2.1l-2.4-0.1c-0.2,0-0.4,0-0.7,0.1c-0.3,0-0.5,0.1-0.8,0.1h-1
	c-0.2,0-0.5,0.1-0.8,0.3c-0.3,0.2-0.4,0.3-0.4,0.4v6.6c-0.2,0.2-0.3,0.3-0.5,0.4c-0.2,0.1-0.3,0.2-0.4,0.2c-0.1,0.1-0.2,0.1-0.3,0.1
	c-0.2,0.2-0.5,0.3-0.9,0.5c-0.4,0.2-0.7,0.3-0.8,0.3h-0.7c0.3-0.7,0.5-1.2,0.7-1.5c0.1-0.3,0.2-0.5,0.2-0.7c0-0.2,0-0.3-0.1-0.5
	c-0.1-0.2-0.1-0.6-0.1-1.2c-0.8,0-1.5,0.2-2.2,0.6c-0.7,0.4-1.3,0.9-2,1.3c-0.7,0.5-1.3,0.9-2,1.3c-0.7,0.4-1.4,0.6-2.2,0.6h-0.5
	c-0.4,0-0.9,0-1.4-0.1c-0.5-0.1-1.1-0.2-1.6-0.2c-0.5-0.1-1.2-0.2-1.9-0.5v-36.6c0.6,0.7,1.4,1,2.4,1c1.1,0,1.9,0,2.6,0l2.3-0.1
	l0.9-0.9c-0.7-0.6-1.4-1.2-2-2c-0.6-0.8-1.2-1.5-1.8-2.2c-0.6-0.7-1.3-1.3-2-1.8c-0.7-0.5-1.5-0.7-2.5-0.7v-2.4
	c1.8,0,3.5,0.3,5.1,0.9c1.6,0.6,3.2,1.2,4.8,1.8c1.6,0.7,3.2,1.3,4.8,1.8c1.6,0.6,3.4,0.9,5.2,0.9c0.2,0,0.6,0,1,0
	c0.4,0,0.8,0,1.2-0.1c0.4,0,0.9,0,1.5-0.1l5.7-5.7h2.4L416.5,223.3z M453.8,157.4c0.2,0,0.4-0.1,0.9-0.3c0.4-0.2,0.7-0.3,0.9-0.4
	c0.3-0.3,0.9-0.9,1.6-1.6c0.8-0.8,1.6-1.6,2.4-2.4s1.7-1.7,2.4-2.4c0.8-0.8,1.3-1.3,1.5-1.6c1.1,0.4,2.5,1.2,4.3,2.4
	c1.8,1.2,3.6,2.5,5.4,4c1.8,1.4,3.3,2.8,4.6,4.1c1.3,1.3,2,2.3,2,2.9c0,0.8-0.3,1.5-0.9,2c-0.6,0.5-1.3,1.1-2,1.6
	c-0.7,0.5-1.3,1.2-2,1.9c-0.6,0.7-0.9,1.8-0.9,3v40.6c0,2,0.2,3.8,0.5,5.6c0.4,1.8,0.8,3.5,1.3,5.2c0.5,1.7,1.1,3.4,1.6,4.9
	c0.5,1.6,1,3.1,1.4,4.6c0,0.2-0.1,0.5-0.3,1.2c-0.2,0.6-0.4,1-0.5,1.3c0,0.1-0.1,0.1-0.4,0.1c-0.7,0-1.2-0.5-1.7-1.6
	s-0.9-2.5-1.2-4.1c-0.3-1.6-0.6-3.4-0.9-5.4s-0.4-3.8-0.6-5.6c-0.2-1.7-0.3-3.3-0.4-4.6c-0.1-1.3-0.3-2.1-0.4-2.4
	c-0.5-0.9-0.9-1.3-1.1-1.2c-0.2,0.1-0.4,0.2-0.6,0.4c-0.2,0.2-0.3,0.2-0.4,0.2c-0.1,0-0.2-0.6-0.4-1.8c-0.6,0.5-1.4,0.9-2.4,1.2
	c-1,0.3-2,0.6-3,1s-1.8,0.8-2.6,1.2c-0.7,0.4-1.1,1.1-1.1,1.9c0,1.1,0.4,2,1.3,2.7c0.9,0.7,1.8,1.5,2.9,2.3c1.1,0.8,2,1.6,2.9,2.6
	c0.9,1,1.3,2.2,1.3,3.8c0,1.1-0.3,1.9-0.8,2.4c-0.5,0.6-1.1,1.1-1.8,1.6c-0.7,0.5-1.2,1.1-1.8,1.7c-0.5,0.7-0.8,1.6-0.8,2.8
	c0,1,0.6,1.8,1.7,2.4c1.1,0.6,2.1,0.9,2.9,0.9c0.6,0,1.1-0.1,1.5-0.4c0.4-0.3,1-0.4,1.8-0.4c0.6,0,1.1,0.1,1.5,0.3
	c0.4,0.2,0.6,0.7,0.6,1.4c0,0.7-0.3,1.2-1,1.7c-0.7,0.5-1.5,1-2.3,1.6c-0.9,0.6-1.6,1.3-2.3,2.1c-0.7,0.8-1,1.9-1,3.2
	c0,0.2,0,0.3,0.1,0.4c0,0.1,0.1,0.3,0.4,0.8s0.4,0.7,0.4,0.8c0,0.3-0.1,0.5-0.4,0.7c-0.3,0.1-0.6,0.2-0.9,0.2
	c-0.3,0-0.8,0.1-1.5,0.1c-1.6,0-2.9-1-3.8-3.1c-0.9-2.1-1.7-4.5-2.2-7.1c-0.5-2.7-0.9-5.3-1.2-7.9c-0.2-2.6-0.4-4.4-0.5-5.5
	c-0.1-0.6-0.2-1.6-0.3-3c-0.1-1.5-0.3-3-0.5-4.7c-0.2-1.7-0.4-3.2-0.5-4.7c-0.2-1.5-0.3-2.5-0.4-3l-1.6-1.6h-8.9l-1.7,1.6
	c-2.1,10.2-5.3,19.3-9.6,27.5c-4.3,8.2-10.3,15.8-17.9,22.9c-0.7,0.7-1.5,1.4-2.6,2.1c-1.1,0.8-2.1,1.2-3.1,1.2h-0.9
	c1.3-1.5,2.8-2.9,4.5-4.1c1.7-1.2,3.2-2.5,4.6-4.1v-0.7c-0.1-0.1-0.3-0.3-0.6-0.7c-0.3-0.4-0.7-0.9-1-1.3c-0.4-0.5-0.7-0.9-1-1.3
	c-0.3-0.4-0.5-0.6-0.6-0.8v-0.4c0-2.1,0.5-4.7,1.5-7.7c1-3,2.2-6.2,3.4-9.7c1.3-3.5,2.4-7,3.4-10.6c1-3.6,1.5-7.1,1.5-10.4l-0.1-2.7
	l-0.9-0.7c-0.7,0.1-1.5,0.2-2.5,0.2c-1,0.1-2,0.1-2.9-0.1c-0.9-0.1-1.8-0.4-2.4-1c-0.7-0.5-1-1.4-1-2.5c0-0.2,0-0.7,0.1-1.2
	c0.1-0.6,0.3-0.9,0.7-0.9h8.9l0.9-1.2c0.4-0.8,0.7-1.5,0.9-2.2c0.2-0.6,0.3-1.3,0.4-2c0-0.7,0.1-1.4,0.1-2.3s0.1-2,0.2-3.4
	c0.5,0.6,1.2,1.3,2.1,2.1c0.9,0.9,1.8,1.3,2.8,1.3c0.5,0,0.9-0.2,1.1-0.5c0.2-0.3,0.4-0.7,0.5-1.2c0.1-0.5,0.1-1,0.1-1.5
	c0-0.5,0-0.9,0-1.2c0-0.7-0.2-1.3-0.7-1.6c-0.5-0.4-1.1-0.6-1.8-0.7c-0.7-0.1-1.4-0.2-2.2-0.1c-0.8,0-1.4,0.1-1.9,0.1v-9
	c0.6,0,1.1,0.2,1.5,0.5c0.4,0.4,0.9,0.8,1.3,1.3c0.4,0.5,0.9,0.9,1.5,1.3c0.5,0.4,1.2,0.5,1.9,0.5c0.6,0,1.2-0.2,1.8-0.5
	c0.6-0.3,1-0.9,1-1.7c0-0.2-0.4-0.6-1.2-1.1c-0.8-0.5-1.6-1-2.6-1.6c-1-0.6-1.9-1.1-2.8-1.6c-0.9-0.5-1.4-0.8-1.6-1
	c-0.2-0.1-0.5-0.2-0.8-0.4c-0.3-0.2-0.4-0.3-0.4-0.4V164l-1.2-1.2h-9.8l-2.4-2.1h-39.9c-0.1,0-0.2-0.1-0.4-0.3
	c-0.2-0.2-0.3-0.4-0.4-0.5c0-0.1-0.1-0.4-0.4-1.1c-0.2-0.6-0.4-1.1-0.4-1.3c-0.1,0-0.1-0.1-0.1-0.4s0-0.4,0.1-0.4
	c0-0.2,0-0.3,0.1-0.4c0.1-0.1,0.2-0.2,0.2-0.4c0.1-0.2,0.2-0.3,0.4-0.5h19.5c0.1,0,0.4-0.4,1-1.1c0.6-0.7,1.1-1.3,1.4-1.8
	c0.7-0.9,1.4-1.7,2.1-2.6c0.6-0.6,1.1-1.3,1.6-1.9c0.5-0.6,0.9-1,1.2-1.2c0.1-0.1,0.2-0.1,0.4-0.1c1.5,0,2.8,0.5,3.9,1.6
	c1.1,1.1,2.3,2.3,3.4,3.7c1.1,1.3,2.2,2.6,3.3,3.7c1.1,1.1,2.3,1.6,3.7,1.6H453.8z M372.6,192.4v-0.9h2.4c0.1,0,0.3,0,0.6-0.1
	c0.3,0,0.7,0,1,0c0.4,0,0.7,0.1,1,0.2c0.3,0.1,0.5,0.3,0.5,0.7H372.6z M375.8,173.7c0-0.2-0.1-0.3-0.3-0.5c-0.2-0.2-0.3-0.3-0.4-0.3
	c-0.5,0-0.9,0.2-1.3,0.5c-0.4,0.3-0.6,0.7-0.6,1.2C374.1,174.6,374.9,174.3,375.8,173.7z M394.5,227.4l-0.9-1.7
	c-0.1,0-0.3,0-0.7-0.1c-0.4-0.1-0.7-0.1-1-0.1c-0.2,0-0.5,0-0.9,0.1c-0.4,0-0.9,0.1-1.3,0.2c-0.4,0.1-0.9,0.3-1.2,0.5
	s-0.5,0.6-0.5,1.1v18.7h6.6V227.4z M389.7,205.4h-0.9v0.7h0.9V205.4z M402.8,250.8c-1.5,0-2.6,0.6-3.3,1.8c-0.7,1.2-1.1,2.4-1.1,3.7
	c0.5,0,1-0.2,1.5-0.6c0.5-0.4,1-0.9,1.4-1.5c0.4-0.6,0.8-1.2,1-1.8S402.8,251.3,402.8,250.8z M409.6,226.6c0.5,0,1.1-0.2,1.8-0.6
	c0.7-0.4,1.1-0.9,1.1-1.5c0-0.2,0-0.3-0.1-0.4c-0.1-0.2-0.3-0.4-0.7-0.9c-0.4-0.4-0.7-0.7-0.9-0.7c0-0.1-0.1-0.1-0.4-0.1
	c-0.5,0-1.1,0.2-1.8,0.6c-0.7,0.4-1.1,0.9-1.1,1.5v0.5c0.2,0.1,0.4,0.3,0.9,0.8c0.4,0.4,0.7,0.7,0.9,0.8H409.6z M444.9,205.8
	c0-1-0.3-2.1-1-3.5c-0.7-1.3-1.5-2-2.7-2c-0.3,0-0.7,0.1-1.2,0.2c0.2,1.6,0,2.9-0.6,4c-0.7,1-1.4,2-2.3,2.9
	c-0.9,0.9-1.7,1.8-2.5,2.7c-0.8,0.9-1.2,2-1.2,3.4c0,1.5,0.6,2.6,1.7,3.3c0.7-0.4,1.5-1.1,2.6-2c1.1-0.9,2.2-2,3.2-3.1
	c1.1-1.1,2-2.2,2.7-3.2C444.5,207.4,444.9,206.5,444.9,205.8z M434.3,200.6c0.4,0,0.6-0.3,0.6-0.9c0-0.6-0.2-0.9-0.6-0.9
	c-0.4,0-0.6,0.3-0.6,0.9C433.7,200.3,433.9,200.6,434.3,200.6z M436.8,174.5c0.1-0.2,0-0.4-0.4-0.4c-0.3,0-0.4,0.1-0.4,0.4
	c0,0.2,0.1,0.4,0.4,0.4S436.8,174.7,436.8,174.5z M444.2,170.8c0-0.2,0-0.3-0.1-0.4c-0.1-0.3-0.3-0.6-0.7-0.9
	c-0.2,0.1-0.3,0.3-0.5,0.8c-0.2,0.4-0.3,0.8-0.3,0.9c0,0.1,0.1,0.2,0.3,0.4c0.2,0.2,0.4,0.3,0.5,0.3c0.3-0.1,0.6-0.3,0.7-0.7
	C444.2,171.2,444.2,171,444.2,170.8z M454.3,162.3c1.8,0,3,0.4,3.7,1.2c0.6,0.8,1.1,1.8,1.3,2.8c0.2,1.1,0.5,2.1,0.7,3s0.9,1.6,2,2
	c0.4-0.5,0.7-0.9,0.7-1.2c0.1-0.3,0.1-0.7,0.1-1.2c0-1.3-0.3-2.5-1-3.7c-0.7-1.2-1.6-2.2-2.7-3.1c-1.1-0.9-2.3-1.6-3.5-2.2
	c-1.3-0.6-2.5-0.9-3.7-0.9c-1.5,0-2.7,0.5-3.5,1.6c-0.8,1.1-1.4,2.4-1.8,3.8c-0.4,1.4-0.6,2.9-0.7,4.3c-0.1,1.5-0.1,2.6-0.1,3.3
	c-0.1,0.3-0.2,1.4-0.2,3.1c-0.1,1.8-0.2,3.7-0.2,6c-0.1,2.2-0.2,4.5-0.2,6.8c-0.1,2.3-0.1,4.1-0.1,5.4v1.3c0,0.5,0.1,0.9,0.2,1.3
	c0.1,0.4,0.5,0.6,1,0.6c0.6,0,1.1-0.3,1.3-0.9c0.2-0.6,0.7-0.9,1.5-0.9l0.9,0.1c0.1,0,0.3,0.1,0.6,0.3c0.3,0.2,0.7,0.4,1,0.5
	c0.4,0.2,0.7,0.3,1,0.5c0.3,0.2,0.5,0.2,0.6,0.2c0,0.1,0.1,0.1,0.4,0.1s0.4,0,0.4-0.1c0.2,0,0.4-0.1,0.6-0.4
	c0.1-0.1,0.2-0.2,0.2-0.4v-31l-2.4-2.4H454.3z M471.7,193.4c0-0.7-0.1-1.5-0.4-2.3c-0.2-0.8-0.6-1.5-1-2.1c-0.4-0.6-1-1.2-1.6-1.6
	c-0.7-0.4-1.4-0.7-2.2-0.7c-0.4,0-1,0.5-1.9,1.4c-0.9,0.9-1.7,2-2.6,3.2c-0.9,1.2-1.7,2.4-2.3,3.6c-0.7,1.2-1,2-1,2.5
	c1.1,0,2.1-0.3,2.8-0.8c0.7-0.5,1.4-1.1,2-1.7c0.6-0.6,1.2-1.2,1.8-1.7c0.6-0.5,1.3-0.8,2.1-0.8c0.8,0,1.5,0.2,2.1,0.5
	C470,193.2,470.8,193.4,471.7,193.4z M484.8,246.9c0.3,1.5,0.5,2.7,0.7,3.8c0.1,1.1,0.2,2.3,0.2,3.8c0,2.5-0.7,4.5-2.1,5.9
	c-1.4,1.4-3.3,2.1-5.7,2.1c-3.4,0-6.2-1-8.3-3.1c-2.1-2.1-3.8-4.6-5.1-7.5c0.9-0.7,1.6-1.2,2.2-1.4c0.6-0.2,1.3-0.3,2.2-0.3
	c1.5,0,2.6,0.3,3.5,1c0.9,0.7,1.5,1.6,2,2.6c0.4,1.1,0.7,2.2,0.8,3.5c0.1,1.3,0.1,2.4,0,3.5c0.1,0.7,0.5,1,1.3,0.9
	c0.8,0,1.3-0.1,1.5-0.1c2.4,0,4.1-0.7,4.9-2.2c0.9-1.5,1.3-3.3,1.3-5.5c0-2.1-0.2-4.2-0.5-6.2c-0.3-2-0.5-4.1-0.5-6.2
	c0-3.1,0.2-6.1,0.5-9.2c0.3-3,0.5-6.1,0.5-9.1l-0.1-2.3l-0.9-0.7c0.3-0.7,0.9-1.1,1.7-1.1V246.9z M470.9,174.5h-1
	c0,0.7,0.3,1.3,1,1.7V174.5z M473.5,231.1c0,0.5-0.2,0.8-0.5,1c-0.4,0.2-0.8,0.2-1.2,0.2c-0.4,0-0.8-0.1-1.2-0.2
	c-0.4-0.2-0.5-0.5-0.5-1c0-0.5,0.2-0.8,0.5-1c0.4-0.2,0.8-0.3,1.2-0.3c0.4,0,0.8,0.1,1.2,0.3S473.5,230.6,473.5,231.1z M476.7,162.7
	c0-0.6-0.3-1.2-0.8-1.6c-0.5-0.4-1.1-0.6-1.6-0.6c-0.5,0-0.9,0.2-1.1,0.5c-0.2,0.3-0.4,0.7-0.5,1.2c-0.1,0.5-0.2,1-0.2,1.5
	s0,0.9,0,1.2c0.6,0,1.5-0.2,2.6-0.5C476.1,164.1,476.7,163.6,476.7,162.7z"/>
</svg>
