<svg id="Layer_1" data-name="Layer 1" xmlns="http://www.w3.org/2000/svg" viewBox="0 0 485.68 264.37"><defs><style>.cls-1{fill:#fff;}</style></defs><title>logo1</title><path class="cls-1" d="M116.39,75.52a3.49,3.49,0,0,0-2.38.79,6.53,6.53,0,0,0-1.53,2,9.65,9.65,0,0,0-.85,2.63,15,15,0,0,0-.24,2.5,9.79,9.79,0,0,0,.42,2.93c.29.89.59,1.77.92,2.62s.63,1.75.91,2.68a10.53,10.53,0,0,1,.43,3.11L114,99.31l-1.71-1.59a32.69,32.69,0,0,0-4.09,3.66c-.85,1-1.63,1.91-2.32,2.81a25.27,25.27,0,0,1-2.56,2.8,36.06,36.06,0,0,1-4.82,3.66,4,4,0,0,0-1,1.16,11.21,11.21,0,0,0-.61,1.28,10.86,10.86,0,0,1-5.74-3.23,40.67,40.67,0,0,1-5.42-6.71,83.71,83.71,0,0,1-5-8.72q-2.37-4.75-4.27-9.27T73.08,76.8Q71.61,73,70.76,70.88a1.22,1.22,0,0,0-.3-.49c-.21-.24-.35-.36-.43-.36l-4.15-.86v-1a1.62,1.62,0,0,1-.85-.31,2.43,2.43,0,0,0-.92-.36.54.54,0,0,0-.61.36,4.5,4.5,0,0,0-.06,1.77H52.09V88L53,89.55a1.35,1.35,0,0,0,.61.12h1a59.77,59.77,0,0,0,10.86-1,61.34,61.34,0,0,1,11-1A5.07,5.07,0,0,1,74,91.81a26.56,26.56,0,0,1-5.61,3.11,51.23,51.23,0,0,1-6.46,2.19q-3.24.86-5,1.34a1,1,0,0,0-.18-1.09,1.33,1.33,0,0,0-1-.49h-.36a3.84,3.84,0,0,0-.86.79,3.88,3.88,0,0,1-.85.79l.85.86c-1.7,1-3.84,2.07-6.4,3.29s-5.21,2.38-7.93,3.48a82.54,82.54,0,0,1-7.87,2.74,23,23,0,0,1-6.22,1.1H24.77a7.94,7.94,0,0,0-.25-2.38c-.16-.44-.73-.67-1.71-.67v3.78c0,.08-.2.23-.61.43a8.21,8.21,0,0,1-1,.43,15.67,15.67,0,0,0-2.5,1.28c-1,.61-2.06,1.26-3.11,1.95a32.41,32.41,0,0,1-3,1.77,5.64,5.64,0,0,1-2.32.73H9.76a6.66,6.66,0,0,1-3-3.54,11.92,11.92,0,0,1-1.1-4.63,1.42,1.42,0,0,1,.55-1.1,4.37,4.37,0,0,1,1.28-.79A6.22,6.22,0,0,1,9,106.75a8.91,8.91,0,0,1,1.28-.12,3.57,3.57,0,0,1,3,1.16,11.49,11.49,0,0,0,2.25,2.13H16c.08,0,.23-.18.43-.55s.4-.77.61-1.22.38-.89.55-1.34.28-.79.36-1V105a4.84,4.84,0,0,1-2-.67c-.61-.37-1.18-.73-1.71-1.1s-1.05-.71-1.58-1a3.07,3.07,0,0,0-1.65-.49,2,2,0,0,0-1.28.55,15.83,15.83,0,0,0-1.4,1.28c-.49.49-1,1-1.53,1.4a3.42,3.42,0,0,1-1.89.79.7.7,0,0,1-.49.13c-.16,0-.24-.05-.24-.13L0,97.72v-.85A4.33,4.33,0,0,1,.85,96q.5,0,1.65-.12l2.44-.24c.85-.08,1.67-.16,2.44-.25S8.7,95.28,9,95.28s.63-.22,1.16-.43.79-.34.79-.42V51.36c0-.08.16-.22.49-.42a7.52,7.52,0,0,1,.73-.43h.85q1,.12,3.54.36l5.43.55c1.91.21,3.72.37,5.43.49s2.89.18,3.54.18a1.48,1.48,0,0,1,.73.86.49.49,0,0,1,.12.36.71.71,0,0,1-.12.49,5,5,0,0,1-.55.8c-.28.36-.61.77-1,1.21s-.71.86-1,1.23a4.17,4.17,0,0,0-.61.79v33.3c0,.09.2.35.61.8a5.62,5.62,0,0,0,1,.91H31a6.14,6.14,0,0,0,1.1-.49,2.63,2.63,0,0,1,.85-.36V64.29c0-.08.16-.22.49-.42a1.67,1.67,0,0,1,.73-.31,3.55,3.55,0,0,1,.85.37,4,4,0,0,0,.86.36l.85.13c.41,0,.65,0,.73-.13L44.77,57a8.64,8.64,0,0,1,1.71-3.29c.81-1,1.63-1.93,2.44-2.87a24.62,24.62,0,0,0,2.2-2.93,6.28,6.28,0,0,0,1-3.47V44a4,4,0,0,0-.36-.85,5.81,5.81,0,0,0-.49-.86,1.69,1.69,0,0,1-.12-.73h4.76a4.34,4.34,0,0,1-.61,2.32q-.62,1-1.29,1.89c-.44.61-.87,1.26-1.28,1.95a5.22,5.22,0,0,0-.61,2.63c0,1.7,0,3.17.13,4.39A32.23,32.23,0,0,0,53,59.41a2.78,2.78,0,0,1,1.71-.3,1.7,1.7,0,0,1,.79.61,4.89,4.89,0,0,1,.55,1.1,1.84,1.84,0,0,0,1,1,4,4,0,0,0,1-1.16c.32-.52.67-1.07,1-1.64a8.46,8.46,0,0,1,1.16-1.47A1.87,1.87,0,0,1,61.49,57a3.44,3.44,0,0,1,2.56,1.41,6.25,6.25,0,0,0,2.68,1.89h.37c.65,0,1-.2,1.16-.61a4.77,4.77,0,0,0,.18-1.34c0-.49-.1-1.77-.3-3.85s-.47-4.25-.8-6.52-.69-4.31-1.09-6.1-.78-2.69-1.1-2.69H43.92l-.73,1.22h3.17a11.73,11.73,0,0,0-3.78,2.32c-1.06,1-2.06,1.91-3,2.81a25.72,25.72,0,0,1-2.87,2.37,5.48,5.48,0,0,1-3.29,1V38.67H3.29c-.24,0-.5-.2-.79-.62a9.09,9.09,0,0,1-.79-1.43c-.25-.54-.45-1-.61-1.5a3.28,3.28,0,0,1-.25-.93,1.47,1.47,0,0,1,.31-.81c.2-.29.38-.44.55-.44H64.29c.08,0,.23-.16.43-.48s.35-.57.43-.73.22-.79.43-1.64a9.58,9.58,0,0,0,.3-1.63,3,3,0,0,0,1.59.79,8.37,8.37,0,0,0,2,.12,13,13,0,0,0,2-.25,7.9,7.9,0,0,1,1.4-.18,3,3,0,0,0-.54-1.81A10.49,10.49,0,0,0,71,25.73a9.23,9.23,0,0,1-1.28-1.45,3.26,3.26,0,0,1-.55-1.88V22l4-4.12a7.49,7.49,0,0,0-1.71-1.64,3.94,3.94,0,0,0-2.32-.79,1.46,1.46,0,0,0-1.46,1.22,13.64,13.64,0,0,0-.49,2.81c-.08,1.06-.18,2.13-.3,3.23a4.07,4.07,0,0,1-1,2.5,5.35,5.35,0,0,0-.3-1.15c-.21-.62-.35-1-.43-1.29s-.23-.4-.43-.73-.35-.49-.43-.49H13.91c-.08,0-.23-.26-.43-.79s-.35-.91-.43-1.16,0-.95-.12-1.89-.12-1.52-.12-1.77l27.94-.12,3.17-3.62a15.36,15.36,0,0,0,1-1.2c.48-.65,1-1.33,1.52-2.06L48,6.93a11.53,11.53,0,0,0,.85-1.21l.43-.42q.3-.3.42-.3c0-.08.13-.12.37-.12A5.58,5.58,0,0,1,53.8,6.4a33.61,33.61,0,0,1,3.3,3.42,36.69,36.69,0,0,0,3.23,3.42,5.23,5.23,0,0,0,3.6,1.52h.36a3,3,0,0,0,.55-.85,2.48,2.48,0,0,0,.31-.86V1.71l.73-.86h3.66c2.11,0,4.07.05,5.86.13a43.32,43.32,0,0,1,6,.73l-.85.85a1.08,1.08,0,0,0,.73.73,3.67,3.67,0,0,0,1,.13,2.3,2.3,0,0,0,1.22-.31c.32-.2.44-.67.36-1.4a8.69,8.69,0,0,1,1.83-.06,7.74,7.74,0,0,1,2.14.42,5.34,5.34,0,0,1,1.77,1A2.43,2.43,0,0,1,90.28,5a22,22,0,0,1,7.63,2A32.53,32.53,0,0,1,103,10.19c1.42,1.1,2.7,2.09,3.84,3a7.45,7.45,0,0,0,3.78,1.58l.13,2a4.83,4.83,0,0,1-.68,2.57,23,23,0,0,1-1.46,2.13c-.53.69-1,1.38-1.46,2.07a4.09,4.09,0,0,0-.67,2.26,2.33,2.33,0,0,0,.79,1.65,12,12,0,0,0,1.89,1.52l2.2,1.47a7.77,7.77,0,0,1,1.7,1.46h-.85a5.72,5.72,0,0,0-.79-.49,3.31,3.31,0,0,0-.8-.36h-.36a3.92,3.92,0,0,0-1.89.49,15.34,15.34,0,0,0-1.83,1.15,12.47,12.47,0,0,1-1.89,1.16,4.58,4.58,0,0,1-2.08.49,5.81,5.81,0,0,1-3-.73c-.81-.49-1.71-1.06-2.68-1.71a1.75,1.75,0,0,0-.12.73,3.62,3.62,0,0,0,.48,1.65A13.12,13.12,0,0,0,98.39,36a18.15,18.15,0,0,0,1.41,1.59l1.09,1.09H86.5q0,6.72.67,13.91a80.7,80.7,0,0,0,2.56,14,57.22,57.22,0,0,0,5.37,13,38.43,38.43,0,0,0,9.09,10.8h.73a7,7,0,0,0,1-.85,4.48,4.48,0,0,0,.73-.86L114,74.91h2.44ZM9.88,35.5A.74.74,0,0,0,9.76,35a1.44,1.44,0,0,0-.73.86.49.49,0,0,0-.12.36.71.71,0,0,0,.12.49,1.46,1.46,0,0,0,.73-.85A.5.5,0,0,0,9.88,35.5ZM13.3,95.89c-.9,0-1.47.27-1.71.8a4.84,4.84,0,0,0-.37,2,1.67,1.67,0,0,0,1.65-.86A4.21,4.21,0,0,0,13.3,95.89ZM13.05,70H11.71a6.42,6.42,0,0,0,.67,2.74,2.32,2.32,0,0,0,2.26,1.41,1.89,1.89,0,0,0,.85-.13Zm.86-7.32a4.38,4.38,0,0,0-.86-.86,1.12,1.12,0,0,0-.73.67,3.89,3.89,0,0,0-.3,1.16c0,.41-.06.8-.06,1.16v.67a1.64,1.64,0,0,0,1.46-.73,3,3,0,0,0,.49-1.71ZM27,77.23A1.27,1.27,0,0,0,26.29,76a2.82,2.82,0,0,0-1.4-.37,8.93,8.93,0,0,0-1.22.37c-.73.24-1.53.53-2.38.85s-1.63.61-2.32.85-1,.41-1,.49a10,10,0,0,0,5.37,1.59,6.18,6.18,0,0,0,2.38-.55A2,2,0,0,0,27,77.23ZM24.52,58.32a.71.71,0,0,0-.12-.49,18.94,18.94,0,0,0-.3-2.44c-.21-1.22-.35-2-.43-2.44l-.67.61a12.68,12.68,0,0,0-1.1,1.1c-.37.4-.71.81-1,1.22A1.86,1.86,0,0,0,20.37,57a2.44,2.44,0,0,0,.8,1.77,2.33,2.33,0,0,0,1.64.8A2.69,2.69,0,0,0,24,59.29,1,1,0,0,0,24.52,58.32Zm9.64-7a1,1,0,0,1,.85.55,3.91,3.91,0,0,1,.55,1.28,8.37,8.37,0,0,1,.25,1.47c0,.48.06.85.06,1.09s0,.76-.06,1.29a8.46,8.46,0,0,1-.25,1.52A3.19,3.19,0,0,1,35,59.78a1,1,0,0,1-.85.49h-.73V51.36Zm7.32,30L36.6,76.49a4.12,4.12,0,0,1-.79.86,4.29,4.29,0,0,0-.8.85c-.08,0-.12.12-.12.37s.33.63,1,1.16,1.36,1.06,2.13,1.58,1.51,1,2.2,1.41a4.47,4.47,0,0,0,1.28.61Zm.85-13.78H40.5a4.67,4.67,0,0,0,.37,1.83,1.42,1.42,0,0,0,1.46.85Zm8.42-30.14a7,7,0,0,0-.18-1.34,1.37,1.37,0,0,0-.92-1.1,1.37,1.37,0,0,0-.91,1.1,7,7,0,0,0-.18,1.34Zm26.6,17.94H70V57c0,.09.4.23,1.22.43s1.46.35,2,.43l4.15.24Zm6.83,9.51a3.36,3.36,0,0,0-1.4.31,1.15,1.15,0,0,0-.67,1.16.49.49,0,0,0,.12.36,3.27,3.27,0,0,0,1.34-.54A1.47,1.47,0,0,0,84.18,64.9Zm1.46-11.71c0-.89-.28-1.46-.85-1.71a5,5,0,0,0-2-.36,1.71,1.71,0,0,0,.79,1.65A4.28,4.28,0,0,0,85.64,53.19ZM98.45,22.33A3.28,3.28,0,0,0,98,20.74a3.32,3.32,0,0,0-1.1-1.22A2.22,2.22,0,0,0,95.65,21a14.76,14.76,0,0,0-.49,1.71c-.33-.89-.79-2.17-1.4-3.84a48.48,48.48,0,0,0-2.14-4.94,20.48,20.48,0,0,0-2.8-4.27A4.54,4.54,0,0,0,85.4,7.81V32.45c0,.08.22.23.67.43s.79.35,1,.43h.36A4.62,4.62,0,0,0,90.65,32a23.06,23.06,0,0,0,2.8-3.11c.9-1.18,1.75-2.35,2.56-3.54a10.62,10.62,0,0,1,2.44-2.62Zm8.18,94.18a23.79,23.79,0,0,1-2.56-.12,5.71,5.71,0,0,1-2.32-.86A3.75,3.75,0,0,1,105,114a3.93,3.93,0,0,1,2.2.73,7.5,7.5,0,0,1,1.83,1.71Zm8.05-84.06a21.3,21.3,0,0,1,1.89,1.49,2.43,2.43,0,0,1,.67,1.87,2.86,2.86,0,0,1-.12.87L114,32.45Zm.85,70.88a2.58,2.58,0,0,1-.73-1.09,6,6,0,0,1-.12-1.35v-.73a2.57,2.57,0,0,1,.73,1.1,5.89,5.89,0,0,1,.12,1.34Zm.86,2.44c-.41,0-.61-.26-.61-.79s.2-.79.61-.79.61.26.61.79S116.79,105.77,116.39,105.77Zm.73,4.88q-.12.38-.18-.24c0-.41-.06-.85-.06-1.34s0-.94.06-1.34.1-.49.18-.25a2.39,2.39,0,0,1,.37,1.59A2.36,2.36,0,0,1,117.12,110.65Z"/><path class="cls-1" d="M122,30.5c0-.65.45-1,1.34-1.1s1.55-.12,2-.12a22.6,22.6,0,0,1,6.41,1,23.58,23.58,0,0,1,6.4,3A18.78,18.78,0,0,1,143,37.94a10.14,10.14,0,0,1,2,6.1,9.75,9.75,0,0,1-2.2,6.35,8.68,8.68,0,0,1-10.61,1.52,9.48,9.48,0,0,1-3-3,13.21,13.21,0,0,1-1.71-4.09,18.5,18.5,0,0,1-.55-4.45v-.49a18.88,18.88,0,0,1,3.23-1.58,16.59,16.59,0,0,1,3.36-.86v-.36c0-.65-.25-1-.73-1.16a5.71,5.71,0,0,0-1.35-.18,4.12,4.12,0,0,0-2.74,1,11,11,0,0,1-2.5,1.59c-.17-.25-.41-.63-.73-1.16s-.67-1.1-1-1.71-.69-1.18-1-1.71a8.15,8.15,0,0,1-.55-1.16l-.42-.85A3.91,3.91,0,0,0,122,31ZM235.09,99.31c-.24,0-.61.38-1.09,1.16s-1.06,1.62-1.71,2.56a31.73,31.73,0,0,1-2.14,2.74,5.13,5.13,0,0,1-2.38,1.71c-1.46.41-2.52.71-3.17.92s-1,1.11-1,2.74a4.33,4.33,0,0,0,.12,1.22,39.57,39.57,0,0,1,3.41-2.26,7.62,7.62,0,0,1,3.91-1.15q0,1-.12,2.19a11.28,11.28,0,0,1-.55,2.44,5.92,5.92,0,0,1-1.16,2,2.42,2.42,0,0,1-1.83.79,15.84,15.84,0,0,1-8.85-2.69,34.92,34.92,0,0,1-7.44-6.64,55.77,55.77,0,0,1-5.92-8.48q-2.55-4.52-4.27-8.18h-1.58q-1.47,2.2-3.23,4.45a49,49,0,0,1-3.85,4.34,39.13,39.13,0,0,1-4.39,3.78,24.32,24.32,0,0,1-4.88,2.8,3,3,0,0,1-.73-1.34,7.6,7.6,0,0,1-.12-1.46,3.47,3.47,0,0,1,1.4-2.75c.93-.77,2-1.62,3.17-2.56a15,15,0,0,0,3.17-3.48,9.34,9.34,0,0,0,1.41-5.36,9.58,9.58,0,0,0-.43-3c-.29-.86-.59-1.71-.92-2.56s-.63-1.75-.91-2.69a10.89,10.89,0,0,1-.43-3.23h-1.46c-.17,0-.39.89-.67,2.68s-.57,3.76-.86,5.92-.53,4.19-.73,6.1a15.89,15.89,0,0,0-.18,3.23,48.06,48.06,0,0,0-7.69,7.44,69.63,69.63,0,0,1-6.28,6.84,27.4,27.4,0,0,1-7.56,5q-4.34,1.95-11.66,2A5.61,5.61,0,0,1,149,116a20.52,20.52,0,0,1-2.13-1.22c-.69-.45-1.37-.85-2-1.22a4.11,4.11,0,0,0-2.07-.55,1.86,1.86,0,0,0-1.65.8,10.15,10.15,0,0,0-1,1.76c-.29.65-.57,1.24-.86,1.77a1.37,1.37,0,0,1-1.28.8,7.23,7.23,0,0,1-5.67-2.57,8.28,8.28,0,0,1-2.26-5.61,35.67,35.67,0,0,1,.49-6.28q.48-2.74,1.22-6.77c.57.41,1,.49,1.4.24A2.05,2.05,0,0,0,134,96a6.42,6.42,0,0,0,.3-1.58c0-.57.06-1,.06-1.22a5.85,5.85,0,0,0-1.83-4.27,28.41,28.41,0,0,0-4-3.3c-1.43-1-2.75-1.89-4-2.74a3.51,3.51,0,0,1-1.83-2.75,4.42,4.42,0,0,1,.12-1.22,13.11,13.11,0,0,0,7.38-1.83,15.63,15.63,0,0,0,4.64-4.88,38.71,38.71,0,0,0,3.3-6.77,79.54,79.54,0,0,1,3.35-7.62q.73-1.35,2.07-4.21c.9-1.91,1.91-4.07,3-6.47s2.32-4.94,3.54-7.62,2.38-5.23,3.48-7.63,2.09-4.55,3-6.46,1.54-3.32,1.95-4.21l-3.17-.86h-1.71a13.62,13.62,0,0,1-3.84,4,10.15,10.15,0,0,1-5.07,1c-1.7,0-3.56-.94-5.55-2.81A40.33,40.33,0,0,1,133.71,16a51.24,51.24,0,0,1-4.27-7.38,14.76,14.76,0,0,1-1.71-5.37c0-.08.1-.22.31-.42a.85.85,0,0,1,.55-.31l4-.12a30.72,30.72,0,0,1,6.59.72,25.49,25.49,0,0,1,6.22,2.24,22.23,22.23,0,0,1,5.31,3.81,17.8,17.8,0,0,1,3.84,5.43q3.42.5,5.62.67c1.46.12,3.17.18,5.12.18h1.22a17.45,17.45,0,0,0,2-.12q1-.12,1.89-.3c.57-.12.86-.26.86-.42V.73h2.44c1.22,0,2.6,0,4.15.06s3.17.11,4.88.19,3.27.2,4.69.36A21.35,21.35,0,0,1,191,2c.94.29,1.4.63,1.4,1a5.36,5.36,0,0,0-4.14,1.45,8.17,8.17,0,0,0-1.9,3.56,18,18,0,0,0-.54,4.47v4.18c.08,0,.16.06.24.19s.16.18.24.18a9.67,9.67,0,0,0,1.29-1.22l1.15-1.22h10.13V.73l2.32-.06,4.27-.12c1.62,0,3.33,0,5.12,0s3.42.14,4.88.3a13.5,13.5,0,0,1,3.66.86c1,.41,1.47.93,1.47,1.58,0,1.14-.12,1.81-.35,2a7.34,7.34,0,0,0-.75.79,5.26,5.26,0,0,0-.75,2,26.67,26.67,0,0,0-.35,5.37,2.91,2.91,0,0,0,2.24-1,15,15,0,0,0,1.69-2.25c.52-.86,1.09-1.71,1.69-2.57a5.63,5.63,0,0,1,2.24-1.89c.48-.16,1.21.13,2.17.86a32,32,0,0,1,3,2.62c1.05,1,2,2,2.86,2.93s1.4,1.52,1.65,1.77c-1.39-.33-2.3-.2-2.75.36a4.38,4.38,0,0,0-.85,2.14c-.12.85-.23,1.67-.31,2.44s-.4,1.16-1,1.16H219l-1.7,1.22v5.61l.86.12a5.34,5.34,0,0,1,.78-.49,3.33,3.33,0,0,1,.79-.36h.85c.32.16,1.06.65,2.23,1.46l2.6,1.83c.73.49,1.63,1.14,2.72,2s2.16,1.61,3.21,2.38,1.94,1.45,2.68,2,1.09.89,1.09,1v1.34l-1.22.06a4.53,4.53,0,0,0-1.22.19c-.16,0-.34.12-.55.36a1.22,1.22,0,0,0-.3.49V56.24a1.76,1.76,0,0,0-.73-.55,2.4,2.4,0,0,0-.86-.3,11.63,11.63,0,0,0-1.28.12l-2,.24L225,56a7.94,7.94,0,0,0-1.28.24,4.78,4.78,0,0,0-1,1.53,5.13,5.13,0,0,0-.67,1.64c0,.25.77.76,2.32,1.53s3.27,1.71,5.18,2.81a42.19,42.19,0,0,1,5.19,3.47c1.54,1.22,2.32,2.44,2.32,3.66H236a12.45,12.45,0,0,0-1.28-1l-2-1.47c-.69-.53-1.36-1-2-1.46L229.36,66a8.68,8.68,0,0,0-1.28-1c-.61-.41-1-.65-1.16-.74h-.73A7.69,7.69,0,0,0,225.4,67c-.05.73-.07,1.63-.07,2.68v1.89a2.52,2.52,0,0,0,.86,1.77l1.64,1.28c.78.61,1.59,1.26,2.44,2l2.44,2a17.75,17.75,0,0,1,1.53,1.28c.41.32.89.75,1.46,1.28s1.1,1.06,1.59,1.58l1.83,2v1.46L226.19,75.76h-1.71a14.76,14.76,0,0,0,1,2.87c.44.93.91,1.85,1.4,2.74a19.07,19.07,0,0,1,1.22,2.75,9.19,9.19,0,0,1,.49,3H214.11a1.42,1.42,0,0,0-.61-1.34,2.64,2.64,0,0,0-1.4-.37,8,8,0,0,0-1.65.18,6.4,6.4,0,0,1-1.34.19,5.6,5.6,0,0,0,2.38,4.63,20.64,20.64,0,0,0,5.85,3A43.22,43.22,0,0,0,225,95.34q4.14.68,7.62,1.1t5.86.67c1.59.17,2.38.37,2.38.61v1.59ZM130.17,80.64q.12-.12-.42-.24a5.8,5.8,0,0,0-1.22-.12,11.18,11.18,0,0,0-1.22.06c-.37,0-.51.14-.43.3a3.84,3.84,0,0,0,3.29,0Zm5.13-.85a5.57,5.57,0,0,0-.25-1.59,1.12,1.12,0,0,0-1.22-.85h-.36a5.27,5.27,0,0,0-1.22,1,2.11,2.11,0,0,0-.73,1.47Zm49.41-19.52h-7.32a4.93,4.93,0,0,1-1.65,2.56,11.9,11.9,0,0,1-2.93,1.83,14.14,14.14,0,0,1-3.41,1,18.93,18.93,0,0,1-3.11.3,4.38,4.38,0,0,1-2-.42,4.52,4.52,0,0,0-2.07-.43,9.62,9.62,0,0,0-1.65.12,4.07,4.07,0,0,0-1.52.73V38.92a4.24,4.24,0,0,0-1.22.18,1.3,1.3,0,0,0-.86.79l-8.17,25.26c-.16.57-.43.87-.79.91l-1.1.13a2.08,2.08,0,0,0-1,.36q-.42.3-.42,1.53a1.7,1.7,0,0,0,.24,1,1.72,1.72,0,0,0,.61.49,1.84,1.84,0,0,1,.61.49,1.71,1.71,0,0,1,.24,1,22.55,22.55,0,0,1-.85,6.1,22.88,22.88,0,0,0-.85,6.22,16.77,16.77,0,0,0,.79,5.24q.79,2.44,1.71,4.94t1.7,5a17.39,17.39,0,0,1,.8,5.3c0,1.55,0,3-.06,4.27a14.52,14.52,0,0,1-.8,4.15,1.11,1.11,0,0,0,.68.73,3.28,3.28,0,0,0,.91.13,2,2,0,0,0,.85-.13q2.56-1.09,7.2-3.47a88.61,88.61,0,0,0,9.21-5.49,48.24,48.24,0,0,0,7.93-6.65q3.36-3.54,3.36-7.08a9,9,0,0,0-.12-1.28c-.09-.53-.33-.79-.74-.79H153.72c-.08,0-.22-.16-.43-.49a1.62,1.62,0,0,1-.3-.73,5.82,5.82,0,0,1,.06-1.83q.18-1.47.18-1.83h28.18a2,2,0,0,0,1.83-1.28,9,9,0,0,0,.8-2.93,20.26,20.26,0,0,0,.12-3c0-.94-.06-1.48-.06-1.65h-8.42c-.08,0-.22-.16-.43-.49a1.58,1.58,0,0,1-.3-.73A7.66,7.66,0,0,1,174.7,72c-.08-.61-.12-1-.12-1.16h-5v3.17h-11a1.91,1.91,0,0,1-1.89-1.28,6,6,0,0,1-.55-2.38V70a7.52,7.52,0,0,1,.43-.73c.2-.33.34-.49.42-.49h27.7Zm-26.11,26c.08-.24,0-.36-.37-.36s-.44.12-.36.36a.37.37,0,1,0,.73,0Zm12.2-65H161a4.56,4.56,0,0,1,1.59,3.17c0,1.06,0,2,.06,2.87a2.91,2.91,0,0,0,1,2.13c.65.57,2.2.86,4.64.86h1.34c.73,0,1.1-.29,1.1-.86Zm40.75,8.17V26.72c-.65,0-1.45,0-2.38-.06s-1.91-.12-2.93-.25a16.37,16.37,0,0,1-2.93-.61,6.34,6.34,0,0,1-2.38-1.28V29.4h5.25c0,.9-.39,1.41-1.16,1.53a17.2,17.2,0,0,1-2.62.18,12.78,12.78,0,0,1-1.89-.18c-.78-.12-1.16-.63-1.16-1.53v-9H189.1v7.32q0,1.11-2,1.77a29.64,29.64,0,0,1-4.52,1.1c-1.66.29-3.27.53-4.82.73a13.16,13.16,0,0,0-2.8.55l.73.73h36.6a5.19,5.19,0,0,0,1.1-.91,7.65,7.65,0,0,0,1.34-1.53,1.05,1.05,0,0,0,.37-.73Zm-35.87,79.67a2.28,2.28,0,0,1,1.22-1.47,5.52,5.52,0,0,1,1.71-.24,4.37,4.37,0,0,1,1.22.12,3.74,3.74,0,0,1-3.3,1.59Zm9-69.18h-7.32V54.53h7.32ZM197,70.64q0-3-3.29-3c-.57,0-1.24,0-2-.06a21.11,21.11,0,0,0-2.25,0,6.42,6.42,0,0,0-2,.42,1.87,1.87,0,0,0-1.16,1.22c.82,2,1.77,3.18,2.87,3.66a10,10,0,0,0,4.09.74c.16,0,.61,0,1.34-.13s1.22-.12,1.46-.12A1.22,1.22,0,0,0,197,72.1C197,71.45,197,71,197,70.64Zm4.76,17.69a1.6,1.6,0,0,0-1.1-1.71,6.66,6.66,0,0,0-2.07-.37h-1.41c-.77,0-1.16.29-1.16.86a3.11,3.11,0,0,0,.68,1.46c.44.65.87,1,1.28,1h.48l3.3-.86Zm-.86-10.13c.25-.08.37-.22.37-.43s-.12-.34-.37-.42-.36,0-.36.36S200.69,78.2,200.93,78.2Zm13.79,4.88c.24,0,.69-.3,1.34-.91A19.75,19.75,0,0,0,218,80a21.65,21.65,0,0,0,1.71-2.44,4.09,4.09,0,0,0,.73-1.83.75.75,0,0,0-.85-.85H205a1.48,1.48,0,0,0-.37.24.73.73,0,0,0-.36.61,7.58,7.58,0,0,0-1,3.54q-.06,1.83-.06,3.78ZM213.13,41.6l-1.58-1.71h-7.32V53.8c0,.08.2.23.61.43a2.36,2.36,0,0,0,1,.3,3.77,3.77,0,0,0,1.47.13h3.23c.61,0,1,0,1-.13L213.13,53ZM205,7.44c.41,0,.61-.28.61-.85s-.2-.86-.61-.86-.61.29-.61.86S204.55,7.44,205,7.44Zm11.47,57.71-.86-.86a3.64,3.64,0,0,1-.85-.91c-.33-.45-.63-.9-.91-1.34s-.55-.86-.8-1.22-.49-.55-.73-.55H205v8.17h9a2.11,2.11,0,0,0,1.71-1,3.29,3.29,0,0,0,.73-2Zm1.71,19.52h-.86v.85h.86Zm8.17-41.85a3.44,3.44,0,0,0-.49-2,15.91,15.91,0,0,0-1.34-1.71,3.71,3.71,0,0,0-.43.73,2.46,2.46,0,0,0-.3.86,1.71,1.71,0,0,0,.79,1.65A3.73,3.73,0,0,0,226.31,42.82Zm1.46-9.39a2,2,0,0,0-.85-.86h-.37a1.74,1.74,0,0,0-1.7,1,4.27,4.27,0,0,0-.49,2,4.33,4.33,0,0,0,.12,1.22Zm3.3,8.9h-1.71a1.71,1.71,0,0,0,1.71,1.1Zm8.05-26.1c.41,0,.61.26.61.79s-.2.79-.61.79-.61-.24-.61-.73h-.12c-.41,0-.61-.28-.61-.85h-.25c-.57,0-.77-.29-.61-.86h-.24c-.41,0-.61-.26-.61-.79s.2-.79.61-.79c.57,0,.77.28.61.85h.24c.41,0,.61.24.61.73h.25c.4,0,.61.29.61.86Z"/><path class="cls-1" d="M363.56,23.67,362,25.74H336.72L335.13,27c.17,0,.47.23.92.67s.67.74.67.9a1.64,1.64,0,0,0-.37.61q-.12.24-.24.54a1.49,1.49,0,0,0-.12.43c-.17.24-.45.67-.86,1.27a8.53,8.53,0,0,1-.85,1.15v8.11h3.29L344,34.16c.08-.08.32-.12.73-.12a7.49,7.49,0,0,1,3.36,1,26.44,26.44,0,0,1,3.66,2.32A39.34,39.34,0,0,1,355,40.08a26.88,26.88,0,0,1,2.07,2.16,5.79,5.79,0,0,0-2.56,1.24l-1.89,1.68a14.54,14.54,0,0,1-2,1.49,5.45,5.45,0,0,1-2.93.69,5.8,5.8,0,0,1-2.56-.49,5.09,5.09,0,0,0-2.32-.49c-.24,0-.37,0-.37.12-.81.57-1.44,1-1.89,1.4a2.19,2.19,0,0,0-.67,1.77,7.16,7.16,0,0,0,.73,1.65c.49.94,1,2,1.65,3.05s1.2,2.1,1.77,3,1,1.34,1.22,1.34a4,4,0,0,0,1.83-.43,4.37,4.37,0,0,1,2-.42A3,3,0,0,1,351.6,59a6.62,6.62,0,0,1,1.16,2.8,18.21,18.21,0,0,1,.31,3.42v2.87a4.52,4.52,0,0,1-1,2.92,15,15,0,0,1-2.32,2.32q1.59,2.21,2.87,4a7.41,7.41,0,0,1,1.28,4.39,10.87,10.87,0,0,1-.49,3.36,10.65,10.65,0,0,0-.48,3.23c0,.24,0,.61.06,1.1a9.45,9.45,0,0,0,.24,1.46,6.41,6.41,0,0,0,.49,1.34,1,1,0,0,0,.91.61,2.4,2.4,0,0,0,.86-.3,1.76,1.76,0,0,0,.73-.55,15.78,15.78,0,0,1-5.8,7.68,15.36,15.36,0,0,1-9.21,2.93h-2.8a8.34,8.34,0,0,1-1.1-3.66q-.12-1.95-.12-3.9a18.78,18.78,0,0,0-.37-3.78,6.74,6.74,0,0,0-1.71-3.3.49.49,0,0,0-.36-.12.71.71,0,0,0-.49.12l-.73.37a1.76,1.76,0,0,0-.49.36v23.67c0,1.06-.87,1.87-2.62,2.44a32.35,32.35,0,0,1-5.86,1.28,54,54,0,0,1-6,.49l-3.29.06V49.17a4.69,4.69,0,0,0-2.32,1,28.83,28.83,0,0,0-2.87,2.2,19.71,19.71,0,0,0-2.44,2.5,3.89,3.89,0,0,0-1,1.77q0,.36.12.36a2.11,2.11,0,0,0,.36,1,2.62,2.62,0,0,1,.37.73h.85c.08-.16.35-.59.8-1.28a12.3,12.3,0,0,1,.79-1.16,1.17,1.17,0,0,1,.85-.36V72.71c-1.3,0-2.78,0-4.45-.12a12.48,12.48,0,0,1-4.45-1,2.79,2.79,0,0,0-.12.86v.43a.59.59,0,0,0,.12.42,9.6,9.6,0,0,0,.61,1l1,1.46,1,1.47c.32.48.53.81.61,1h.85a2.85,2.85,0,0,1,.74-.36c.4-.17.83-.33,1.28-.49l1.28-.49a2.5,2.5,0,0,0,.73-.37,2.72,2.72,0,0,1,.85-.12V97.72a3.24,3.24,0,0,1-1.77,2.81,16.37,16.37,0,0,1-4.08,1.77,26.24,26.24,0,0,1-4.64.91c-1.54.17-2.68.25-3.41.25h-1.41c-.61,0-.91,0-.91-.13l-1.22-.73V56.36a3.64,3.64,0,0,1-.61-.12c-.33-.08-.53-.08-.61,0-.49.17-.9.29-1.22.37A2.78,2.78,0,0,0,290,57v44.78a13.62,13.62,0,0,1-1.58,6.65,15.1,15.1,0,0,1-4.21,4.82,20,20,0,0,1-5.92,3,22.21,22.21,0,0,1-6.71,1,5.3,5.3,0,0,1-.85-.06c-.25,0-.45-.3-.61-.79q-.25-3.3-.61-5.61a14.31,14.31,0,0,0-1.28-4.15,11.32,11.32,0,0,0-2.63-3.36,26.67,26.67,0,0,0-4.51-3.11v-.85a4.11,4.11,0,0,1,.12-1,.84.84,0,0,1,.73-.61h8.18a6.82,6.82,0,0,0,1-.43c.41-.2.61-.34.61-.42V72.47c0-.57-.36-.86-1.09-.86h-1.35c-.89,0-1.75,1.1-2.56,3.3s-1.71,5-2.68,8.29-2,6.94-3.17,10.8a90.28,90.28,0,0,1-3.91,10.8,33.3,33.3,0,0,1-5,8.29,8.22,8.22,0,0,1-6.34,3.3A1.41,1.41,0,0,1,244,114.8a15.21,15.21,0,0,1,.43-3.17c.28-1.3.61-2.62,1-4s.74-2.57,1.1-3.67.63-1.84.79-2.25a.51.51,0,0,1,.37-.12.73.73,0,0,1,.49.12l3.17,3.29h.12a.39.39,0,0,0,.25-.12l.24-.24a4.06,4.06,0,0,0-1.16-2.75,6.24,6.24,0,0,0-2.62-1.77L248,98.09a54,54,0,0,1,.48-7.14q.5-3.6,1.22-7.14a6.12,6.12,0,0,0,3.05-2c.74-.89,1.45-1.81,2.14-2.74a17.8,17.8,0,0,1,2.38-2.63,7,7,0,0,1,3.78-1.58V70c.08-.16.24-.57.49-1.22a5.32,5.32,0,0,0,.36-1.22,3.69,3.69,0,0,0-.3-.8,1.71,1.71,0,0,0-.55-.79c-.33-.4-.75-.89-1.28-1.46s-1-1.1-1.53-1.59-.93-.91-1.34-1.28a2.67,2.67,0,0,0-.73-.55h-1c0,1.14,0,2.52.13,4.15a31.83,31.83,0,0,1-.13,4.88,12.23,12.23,0,0,1-1.28,4.45,5.46,5.46,0,0,1-3.35,2.75v-75a15.48,15.48,0,0,1,4.94.79c1.59.53,3.17,1.14,4.76,1.83s3.17,1.3,4.75,1.83a15.55,15.55,0,0,0,4.95.79l1.7-.12L278.16.85h.73a5.54,5.54,0,0,1,2.56.8,21.12,21.12,0,0,1,2.81,1.83c.89.69,1.69,1.34,2.38,1.95s1.12,1,1.28,1.16A.49.49,0,0,1,288,7a.71.71,0,0,1-.12.49,1.08,1.08,0,0,1-.73.73v6.59l-.86.73a2.21,2.21,0,0,1-1,.19q-.92.06-1.41.06a21,21,0,0,1-3.78-.31,9.42,9.42,0,0,1-3.54-1.52.49.49,0,0,0-.12.36.71.71,0,0,0,.12.49c.08.08.39.51.92,1.28s1.12,1.61,1.77,2.5,1.26,1.71,1.83,2.44.93,1.1,1.1,1.1a7.51,7.51,0,0,0,3.35-.55A3.07,3.07,0,0,0,287,20a13,13,0,0,0,.74-2.32,15.46,15.46,0,0,1,1-2.93A5.38,5.38,0,0,1,290,13.05c.41-.32.8-.61,1.16-.85a6.5,6.5,0,0,0,1-.79,3.22,3.22,0,0,0,.67-1.53,3.94,3.94,0,0,1,1,2.44,2.33,2.33,0,0,1-.55,1.59A12.25,12.25,0,0,1,292,15.07a9.63,9.63,0,0,0-1.22,1.16,2.42,2.42,0,0,0-.55,1.7,9.28,9.28,0,0,0,.49,2.69,2,2,0,0,0,2.07,1.58c1.06,0,1.63-.44,1.71-1.34H314a1.76,1.76,0,0,0,.36-.49l.37-.73c.16-.24.34-.57.55-1a2.88,2.88,0,0,0,.3-.74V2.56l.86-.85,3.78-.12q4.51,0,8.11.18c2.4.12,5.19.39,8.36.79.89-.16,1.42,0,1.59.55a5,5,0,0,1,.24,1.4,3.76,3.76,0,0,1-.85,2.63A11,11,0,0,1,335.13,9V22.81a1.44,1.44,0,0,0,.49,1.22,2.61,2.61,0,0,0,1.1.49,4.52,4.52,0,0,0,1.28.06c.45,0,.79-.06,1-.06s.61,0,1.1.06a6,6,0,0,0,1.46-.06,2.69,2.69,0,0,0,1.22-.49,1.29,1.29,0,0,0,.49-1.09q0-3.3-3.3-3.3l2.44-3.29.86-.86h.36a8,8,0,0,1,5,1.41A17.64,17.64,0,0,1,351.85,20a33.93,33.93,0,0,0,2.74,3.11,5,5,0,0,0,3.72,1.4,4.79,4.79,0,0,0,2.38-.42,4.13,4.13,0,0,0,1.28-2ZM266,43.92a1.69,1.69,0,0,0-.73.12,3.71,3.71,0,0,0-.86.37,3.77,3.77,0,0,1-.85.36c0,.09-.12.13-.37.13s-.36,0-.36-.13a.75.75,0,0,1-.43-.12,3.31,3.31,0,0,0-.43-.24.76.76,0,0,1-.36-.37V35.87h-6.22a6.93,6.93,0,0,0,.48,2.56,6.74,6.74,0,0,1,.49,2.56v.86q0,.48-.12.48l-4.88,4.88v.86a4.28,4.28,0,0,0,.85.85h.37a2.3,2.3,0,0,0,1.4-.49,14.8,14.8,0,0,0,1.41-1.16,9.64,9.64,0,0,1,1.52-1.15,3.28,3.28,0,0,1,1.77-.49,4,4,0,0,1,1.83.43,4.1,4.1,0,0,0,1.83.42h.49l.85-.3a7.23,7.23,0,0,1,1.1-.31l1.22-.24Zm-4.27,13.91a1.64,1.64,0,0,0,1.1,1.58,1.8,1.8,0,0,0,1-1.58Zm9.15-45c-.16,0-.55,0-1.16.12a11.63,11.63,0,0,1-1.28.12c-.08.09-.22.23-.43.43s-.3.35-.3.43V35c0,.17.2.35.61.55a2.26,2.26,0,0,0,1,.31,2.29,2.29,0,0,0,1-.31c.41-.2.61-.38.61-.55Zm.85,102.24a15.67,15.67,0,0,0,4.64-.92,26.47,26.47,0,0,0,5.37-2.44,21.45,21.45,0,0,0,4.45-3.48,5.79,5.79,0,0,0,1.89-4,1.51,1.51,0,0,0-1.71-1.71,2.72,2.72,0,0,0-.85.12,27.75,27.75,0,0,1-5.67,7.26,15.34,15.34,0,0,1-8.12,4.09Zm16.23-32a2.56,2.56,0,0,1-1.46-1.46c-.25-.65-.47-1.28-.67-1.89a4.79,4.79,0,0,0-1-1.65,3.33,3.33,0,0,0-2.5-.73c-.25,0-.47.41-.67,1.22s-.39,1.73-.55,2.74-.29,2-.37,3-.12,1.63-.12,2a2.3,2.3,0,0,0,.55,1.35,7.39,7.39,0,0,0,1.34,1.34,12,12,0,0,0,1.59,1,1.69,1.69,0,0,0,2.13.12,9.59,9.59,0,0,0,1-.55l.43-.43c.2-.2.3-.34.3-.43Zm26.84-56.24h-24.4V41.48h2.93V36.11l1.34-.24c.41-.08.81-.14,1.22-.18a3.27,3.27,0,0,1,1.1.06,14.86,14.86,0,0,1,3.6,1.22l3.53,1.7q1.77.86,3.54,1.53a10.7,10.7,0,0,0,3.85.67,11.69,11.69,0,0,0,1.4-.12c.61-.08,1-.12,1.16-.12l.73-.86ZM296.09,67.59v-.86h-.85v.86Zm-.85,20.49a11.42,11.42,0,0,0,2.26-.3c.93-.2,1.4-.71,1.4-1.53h-3.66Zm16.35-66c0-.24-.17-.36-.49-.36s-.45.12-.37.36a.43.43,0,0,0,.86,0Zm5.61,9.76c-.16-.08-.26,0-.3.25a4.6,4.6,0,0,0-.07.91,3.28,3.28,0,0,0,.13,1q.12.42.24.3a1.79,1.79,0,0,0,.37-1.28C317.57,32.39,317.44,32,317.2,31.84Zm8.17,58.56L332,84.79a2.62,2.62,0,0,0-.12-1,3.16,3.16,0,0,0-.73-.73,13.68,13.68,0,0,0-1.28-1c-.61-.44-1.27-.93-1.95-1.46s-1.37-1-2-1.46l-1.34-.92a4.33,4.33,0,0,0-1.22-.12,6.44,6.44,0,0,0-4,1.71,4.81,4.81,0,0,0-2.07,3.66,3.21,3.21,0,0,0,1.1,1.89c.73.77,1.54,1.54,2.44,2.32a21.08,21.08,0,0,0,2.62,2,4.64,4.64,0,0,0,1.65.79Zm2.44-53.8a19.53,19.53,0,0,0-5.91.73q-2.26.73-2.26,4.76a12.86,12.86,0,0,0,1.83-.24c.89-.17,1.81-.37,2.74-.61a13.14,13.14,0,0,0,2.51-.92c.73-.36,1.09-.75,1.09-1.16Zm-5.73,73.32a4.33,4.33,0,0,0,1.22.12,2.59,2.59,0,0,0,2.93-2.92q0-2.69-1.77-3.3a12.71,12.71,0,0,0-4.09-.61l.12,1a4.55,4.55,0,0,0,1.35,1.89,2.78,2.78,0,0,1,1.09,1.77v.36Zm1.22-88.69a6,6,0,0,0,2.26-.37c.61-.24,1.24-.49,1.89-.73s1.4-.49,2.26-.73a11.71,11.71,0,0,1,3.23-.37,3,3,0,0,0-1.28-2.74,5.8,5.8,0,0,0-3.11-.8,8,8,0,0,0-1.89.31,9,9,0,0,0-2.14.85,8.3,8.3,0,0,0-1.71,1.28,2.34,2.34,0,0,0-.73,1.71C322.08,20.7,322.49,21.23,323.3,21.23Zm-.37,24.4a2,2,0,0,0,1.83,1,2,2,0,0,0-1-1.83Zm9.76-13.79-.85.73h.85ZM337.57,47l-3.29.24-.43.43c-.2.2-.3.35-.3.43v33.3l1.34,2.08,2.68-1.22Zm7.57,22.81a4.67,4.67,0,0,0-2.08.43,1.67,1.67,0,0,0-.85,1.65,5.14,5.14,0,0,0,2.07-.37C344.85,71.25,345.14,70.68,345.14,69.78Zm3.78-58.31-1.59-.86h.86a3.33,3.33,0,0,1,.91.13,1.07,1.07,0,0,1,.67.73Zm3.29,2.44a4.29,4.29,0,0,1-.85-.8l-.73-.79a.49.49,0,0,1,.36-.12c.25,0,.37,0,.37.12a4.53,4.53,0,0,1,.85.73c.41.41.69.7.86.86Zm1.59,1.58c-.41,0-.61-.26-.61-.79s.2-.79.61-.79.61.26.61.79S354.21,15.49,353.8,15.49Zm1.71,0a2.53,2.53,0,0,0,.61.68c.32.28.67.6,1,1s.69.71,1,1l.55.61a.5.5,0,0,1-.37.12q-.36,0-.36-.12a19,19,0,0,1-1.71-1.59,20.64,20.64,0,0,1-1.59-1.71Zm.73,34.16c-.24-.08-.18-.28.18-.61s.59-.36.67-.12a.62.62,0,0,1-.18.67A.47.47,0,0,1,356.24,49.65ZM358,42.33c.4,0,.61.29.61.86s-.21.85-.61.85-.61-.28-.61-.85S357.54,42.33,358,42.33Zm.73,1.71a.71.71,0,0,1,.49-.12.49.49,0,0,1,.36.12,4.48,4.48,0,0,1,.86.73,4.82,4.82,0,0,1,.73.86l-.73.85Zm1.71-22.81c-.57,0-.78-.29-.61-.86h-.25c-.4,0-.61-.26-.61-.79s.21-.79.61-.79c.57,0,.78.28.61.85h.25c.4,0,.61.25.61.73h.12c.41,0,.61.29.61.86s-.2.85-.61.85-.61-.28-.61-.85Z"/><path class="cls-1" d="M469.33,18.79l.8-.86c.44-.48.71-.73.79-.73a1.35,1.35,0,0,1,.67-.18l.67-.06c0,.81-.65,1.6-1.95,2.38a33.72,33.72,0,0,1-4.94,2.31q-3,1.17-6.41,2.32c-2.27.78-4.41,1.53-6.4,2.26a33,33,0,0,0-4.94,2.2q-2,1.09-1.95,2.19a.5.5,0,0,0,.12.37,1.43,1.43,0,0,0,.73.85c2.28.73,5.1,1.59,8.48,2.56a61.52,61.52,0,0,1,9.7,3.72,28.56,28.56,0,0,1,7.93,5.62A11.32,11.32,0,0,1,475.92,52c0,2.28-.38,3.93-1.16,4.94a6.94,6.94,0,0,1-2.93,2.26,32.66,32.66,0,0,1-4,1.34,12.62,12.62,0,0,0-4.27,2.2,21,21,0,0,0,1.83,1.52l2.75,2.14a29.4,29.4,0,0,1,2.5,2.19,3,3,0,0,1,1.09,1.83q0,.73-2.13,1.71A49.14,49.14,0,0,1,464.76,74q-2.75.92-5.25,1.59c-1.66.45-2.74.75-3.23.91s-1.38.61-2.68,1.1-2.69,1-4.15,1.47l-4.21,1.4-2.75.91a1.14,1.14,0,0,0-.73.67,4,4,0,0,0-.12,1q0,2.33,3.11,4.09a38.3,38.3,0,0,0,7.69,3.17,93.39,93.39,0,0,0,10,2.44c3.62.69,7,1.3,10,1.83s5.62,1,7.69,1.47,3.11.83,3.11,1.15a.71.71,0,0,1-.12.49c-.08.08-.33.35-.73.8a4.12,4.12,0,0,1-.86.79c.33-1.06.19-1.81-.42-2.26a5.41,5.41,0,0,0-2.32-.91,13.81,13.81,0,0,0-3-.19c-1.06,0-1.91.06-2.56.06a3.07,3.07,0,0,0-1.65.43l-1.34.85c-.45.29-.92.57-1.4.86a3.06,3.06,0,0,1-1.59.43,1.32,1.32,0,0,1-1.16-.68c-.29-.44-.57-.93-.85-1.46a8.86,8.86,0,0,0-1-1.46,1.71,1.71,0,0,0-1.4-.67,3.71,3.71,0,0,0-2,.67c-.69.44-1.38.93-2.07,1.46l-2.13,1.65a9.7,9.7,0,0,1-2,1.22,10.36,10.36,0,0,0,2.2,2.25,8.14,8.14,0,0,1,1.28,1,2.54,2.54,0,0,1,.61,1.34,19.5,19.5,0,0,1,.18,3.24c.82,0,1.94-.06,3.36-.19a39.19,39.19,0,0,0,4.33-.61,23.51,23.51,0,0,0,4.09-1.16,5.26,5.26,0,0,0,2.62-1.83,15,15,0,0,0-1.28,3.54c-.37,1.47-.79,2.91-1.28,4.33a15.18,15.18,0,0,1-1.83,3.72,3.4,3.4,0,0,1-2.93,1.59,26.07,26.07,0,0,1-9.76-2,45.52,45.52,0,0,1-9.52-5.25,44.32,44.32,0,0,1-8-7.32,30.48,30.48,0,0,1-5.18-8.36,6.93,6.93,0,0,1,3.35-.73q2.51-.12,5.19-.12c1.79,0,3.37,0,4.76-.06S449,92.4,449,92v-.86a10,10,0,0,0-1.46-.36c-.41-.08-.86-.14-1.35-.19a8.2,8.2,0,0,1-1.22-.18,7.94,7.94,0,0,0-1.28-.24l-1.95-.25-1.95-.24a11.63,11.63,0,0,0-1.28-.12,4.38,4.38,0,0,1-.86-.86,13.71,13.71,0,0,1-.79-1.15c-.45-.7-.71-1.12-.79-1.29h-.86a15,15,0,0,1-1.64.86,17.28,17.28,0,0,0-1.65.85,1.94,1.94,0,0,1-1.22-1.58c-.16-.82-.29-1.65-.37-2.5a9.81,9.81,0,0,0-.48-2.32,1.53,1.53,0,0,0-1.59-1,.51.51,0,0,0-.37.12A53,53,0,0,1,418,95.1a68.5,68.5,0,0,1-14,11.28,70.11,70.11,0,0,1-16.59,7.39,61.84,61.84,0,0,1-17.69,2.62h-1.22c1.06-.25,1.95-.43,2.68-.55a5,5,0,0,0,1.71-.55,2,2,0,0,0,.86-1,4.76,4.76,0,0,0,.24-1.7,7.88,7.88,0,0,1-1.1-.19,2.14,2.14,0,0,0-1.1-.06,3.79,3.79,0,0,0-1,.25l-1.53.48-1.52.49a3,3,0,0,0-.86.37,9,9,0,0,1,3.36-2.75,36.85,36.85,0,0,1,4.94-2.07q2.69-.91,5.31-1.71a27.93,27.93,0,0,0,4.33-1.65,5,5,0,0,1,2,.67,20.42,20.42,0,0,1,1.71,1.16,13.52,13.52,0,0,0,1.65,1.1,3.88,3.88,0,0,0,5.06-1.16,24.51,24.51,0,0,0,1.77-3.35,4.38,4.38,0,0,0-.86-.86h-.36a1.64,1.64,0,0,0-1.1.43l-1,.85a13,13,0,0,1-1.09.86,2.35,2.35,0,0,1-1.35.43,3.65,3.65,0,0,1-3.29-1.71,60.13,60.13,0,0,1,4.51-4.52c1.55-1.38,3.07-2.78,4.58-4.21S400,92.54,401.38,91A27.74,27.74,0,0,0,405,85.52a6.34,6.34,0,0,0,2.07-.12,16.7,16.7,0,0,0,2.44-.67,9.24,9.24,0,0,0,2.2-1.1,5.18,5.18,0,0,0,1.46-1.4A9.6,9.6,0,0,0,411,80a7.79,7.79,0,0,1-1.47-1.1,3.27,3.27,0,0,1-.79-1.64,26.41,26.41,0,0,1-.37-3.91V69q0-3.1.13-6.53c.08-2.27.14-4.43.18-6.46s.06-3.46.06-4.27a27.64,27.64,0,0,0-8.85,1.46q-4.32,1.47-8.66,3.23t-8.78,3.24a29.11,29.11,0,0,1-9.09,1.46h-2.44l-.43-.85a2.4,2.4,0,0,1-.3-.86q-.12,0-.12-.36a.51.51,0,0,1,.12-.37c4-2.19,7.75-4.19,11.28-6a87.59,87.59,0,0,0,9.95-5.85,65.05,65.05,0,0,0,8.78-7.26A51.46,51.46,0,0,0,408,29.4v2.44a1.7,1.7,0,0,0,1.16-.73,4,4,0,0,0,.61-1.46,12.56,12.56,0,0,0,.24-1.71q.06-.86.06-1.47a2.12,2.12,0,0,0-.42-1.58,1.9,1.9,0,0,1-.43-1.47c0-1.87-.06-3.8-.19-5.79s-.18-4-.18-6a46.7,46.7,0,0,1,.37-5.92A19.24,19.24,0,0,1,410.77.12L414.43,0q5.13,0,10.07.49c3.29.32,6.57.73,9.82,1.22a1.46,1.46,0,0,1,.85.85v.73a29.38,29.38,0,0,0-3,5.62,30.94,30.94,0,0,0-1.59,5.55c-.37,1.91-.67,3.88-.92,5.91s-.57,4.23-1,6.59a1.84,1.84,0,0,0,1.46,1.53,13.6,13.6,0,0,0,2.2.18,5.29,5.29,0,0,0,3.84-1.83,21.41,21.41,0,0,0,3.29-4.57c1-1.83,2-3.81,2.93-5.92s1.83-4.09,2.69-5.92a26.6,26.6,0,0,1,2.62-4.57A3.65,3.65,0,0,1,450.55,4a10.14,10.14,0,0,1,4,1.22,45.61,45.61,0,0,1,5.19,2.92q2.61,1.71,4.88,3.54a17.24,17.24,0,0,1,3.11,3,4.62,4.62,0,0,0-1.28.31,11.58,11.58,0,0,0-1.16.42.53.53,0,0,0-.12.37,2.5,2.5,0,0,0,1.4,2,4.64,4.64,0,0,0,2.38.92ZM398.7,73.32a34.17,34.17,0,0,1-.68,6.77,19.13,19.13,0,0,1-2.25,6,12.64,12.64,0,0,1-4.21,4.33,12.3,12.3,0,0,1-6.65,1.65,8.86,8.86,0,0,1-6.65-2.56,9.2,9.2,0,0,1-2.5-6.71A8.16,8.16,0,0,1,377,78.08a14.64,14.64,0,0,1,3.11-3.23,35,35,0,0,1,4-2.63,16.28,16.28,0,0,0,3.84-3,6,6,0,0,0,1.46-2.38c.49-1.17,1-2.37,1.47-3.59A27.48,27.48,0,0,1,392.41,60c.53-.93,1.08-1.4,1.65-1.4A3.13,3.13,0,0,1,397,60.51,14.61,14.61,0,0,1,398.33,65a35.82,35.82,0,0,1,.37,5ZM395.28,5.73a2.66,2.66,0,0,1,2.44,1.65,12.81,12.81,0,0,1,1.22,3.78,31,31,0,0,1,.43,4.27c0,1.43.06,2.42.06,3a29.56,29.56,0,0,1-.67,6.16,18.71,18.71,0,0,1-2.2,5.68,12.56,12.56,0,0,1-4,4.14A10.5,10.5,0,0,1,386.74,36q-4.51,0-6.95-2.14t-2.44-7a8.7,8.7,0,0,1,2.19-5.92,38.49,38.49,0,0,1,5.06-4.75c1.92-1.51,3.83-3.07,5.74-4.7a14.88,14.88,0,0,0,4.21-5.74ZM384.79,53a8.39,8.39,0,0,0-2.08,1,2.22,2.22,0,0,0-1.22,1.77v.49c.08.33.37.57.86.73,0,.09.12.13.36.13.82,0,1.49-.55,2-1.65a6.64,6.64,0,0,0,.79-2.5Zm0,22.32a1,1,0,0,0-.55-1,2.88,2.88,0,0,0-1.16-.25,1.41,1.41,0,0,0-1.59,1.59,6.45,6.45,0,0,0,.19,1.65,9,9,0,0,0,.67,1.64A3.72,3.72,0,0,1,383.69,77,2.48,2.48,0,0,0,384.79,75.27Zm6.46-24.76-.85.43a3.55,3.55,0,0,0-.73.42,13.45,13.45,0,0,1,1.16.79,5.82,5.82,0,0,0,1.28.8,3.55,3.55,0,0,0,.85.55,3,3,0,0,0,.73.3.76.76,0,0,0,.86-.85,9.88,9.88,0,0,0-1.22-1.28l-1.22-1.16Zm15.5,32.57a1.44,1.44,0,0,1-.86.73v-.73a1.5,1.5,0,0,1,.86-.85Zm9,12.93a1.18,1.18,0,0,0-.68-1.09,5.26,5.26,0,0,0-1.52-.55,8.3,8.3,0,0,0-1.71-.19h-1.34a3.14,3.14,0,0,0,1.34,2.44,4.1,4.1,0,0,0,2.56,1.1,1.08,1.08,0,0,0,1-.55A2.37,2.37,0,0,0,415.78,96ZM442.13,78.2c.65,0,1-.36,1.1-1.1a17.32,17.32,0,0,0,.12-1.83,3.25,3.25,0,0,0-1.28-2.62,2.9,2.9,0,0,1-1.28-2.26.49.49,0,0,1,.12-.36c1.22-2.12,2.66-4.45,4.33-7s3.19-4.82,4.57-6.77a2.67,2.67,0,0,1,1.59-1c.73-.21,1.46-.45,2.2-.74a6,6,0,0,0,1.95-1.22,3.07,3.07,0,0,0,.85-2.38.49.49,0,0,0-.12-.36,1.48,1.48,0,0,0-.73-.86,8.58,8.58,0,0,1-3.78.19,17.15,17.15,0,0,1-4.46-1.22,12.5,12.5,0,0,1-3.72-2.44,4.83,4.83,0,0,1-1.58-3.6,6.61,6.61,0,0,1-3.85-1.34,41.93,41.93,0,0,1-3.6-2.87c-1.14-1-2.19-2-3.17-2.87a4.2,4.2,0,0,0-2.68-1.34,8.28,8.28,0,0,0-2.81,1,35.72,35.72,0,0,0-4.21,2.5,20.11,20.11,0,0,0-3.53,3c-.94,1-1.25,1.85-.92,2.5l-4,4v1.71c1,.08,1.81.17,2.5.25s1.41.18,2.14.3a11.64,11.64,0,0,0,1.83.18q4.4.14,6.95.43a38.62,38.62,0,0,1,4.76.86c1.47.36,2.2.91,2.2,1.64a2.51,2.51,0,0,1-.55,1.65c-.37.45-.75.87-1.16,1.28s-.79.83-1.16,1.28a2.51,2.51,0,0,0-.55,1.65c0,.65.08,1.87.25,3.66a39.55,39.55,0,0,0,.91,5.55,24.58,24.58,0,0,0,1.77,5.12c.73,1.51,1.71,2.26,2.93,2.26a2.39,2.39,0,0,0,1.77-.67,10.52,10.52,0,0,0,1.4-1.89c.16.41.45,1.22.85,2.44s.69,2,.86,2.44q0,.12.3.42l.43.43Zm-19-54.53a14.9,14.9,0,0,1,.55-4c.36-1.34.77-2.66,1.22-4s.85-2.58,1.21-3.84a13.68,13.68,0,0,0,.55-3.85,6.68,6.68,0,0,0-2.68.49,6.19,6.19,0,0,1-2.56.49c-.82,0-1.51,0-2.08-.06a4.91,4.91,0,0,1-2.07-.8v3.66a15.4,15.4,0,0,0,.49,4,15.32,15.32,0,0,1,.49,3.9,7.74,7.74,0,0,1-.25,2.08,4,4,0,0,1-1.46,1.83l8.05,8.17a10.7,10.7,0,0,1,1-2.19,18.52,18.52,0,0,0,1-1.71,8.82,8.82,0,0,0,.67-1.77,9.71,9.71,0,0,0,.25-2.5Zm3.53,39a15.54,15.54,0,0,0-2,.18,14.86,14.86,0,0,0-2.56.61,8,8,0,0,0-2.26,1.16,2.11,2.11,0,0,0-1,1.71,2.82,2.82,0,0,0,.61,1.77,6.71,6.71,0,0,0,1.46,1.4,7.69,7.69,0,0,0,1.89,1,5.55,5.55,0,0,0,1.77.36,6.44,6.44,0,0,0,1-.12.7.7,0,0,0,.67-.73,3.31,3.31,0,0,0-.43-.8,3.16,3.16,0,0,1-.43-.79l-.12-1.34a3.87,3.87,0,0,1,.67-2.5,9.77,9.77,0,0,1,2.75-1.89Zm-6.95,22.81c.41,0,.61-.28.61-.85s-.2-.86-.61-.86-.61.29-.61.86S419.27,85.52,419.68,85.52Zm4.15-3.29a4.38,4.38,0,0,0-.86-.86h-.48c-.49,0-.82.35-1,1a7.73,7.73,0,0,0-.24,1.65,9.15,9.15,0,0,0,1.58-.18,1.15,1.15,0,0,0,1-1.29ZM427,2.56V5a9,9,0,0,0,2.75-.49,1.92,1.92,0,0,0,1.52-1.95Zm4.88,73.2c.41,0,.61-.28.61-.85s-.2-.86-.61-.86-.61.29-.61.86S431.47,75.76,431.88,75.76Zm6.59-45.63a2,2,0,0,0-1.83-1,2,2,0,0,0,1,1.83Zm.73,3.3c.08.41.22,1,.43,1.83a10.71,10.71,0,0,0,.42,1.46l.43.43c.2.2.35.3.43.3A2.79,2.79,0,0,0,443.23,36a4.83,4.83,0,0,0,1-2.56,1.33,1.33,0,0,0-1-1.47,8.58,8.58,0,0,0-1.9-.24,5.43,5.43,0,0,0-1.4.18.93.93,0,0,0-.67,1Zm6.59,68.93a9.34,9.34,0,0,0-1.4.12,1.2,1.2,0,0,0-1,.85,5.32,5.32,0,0,0,.91,1.22,2,2,0,0,0,1.53.74ZM451.4,24a1.15,1.15,0,0,0,.67,1.16,3,3,0,0,0,1.28.31,8.19,8.19,0,0,0-.18-1.53,1.4,1.4,0,0,0-.92-1.16,4.33,4.33,0,0,0-.85.86Zm3.29,19.16c.41,0,.61-.27.61-.79s-.2-.8-.61-.8-.61.27-.61.8S454.29,43.19,454.69,43.19Zm13.06,58.19a1,1,0,0,1-.55,1,2.87,2.87,0,0,1-1.16.24c-1.06,0-1.59-.4-1.59-1.22S465,100,466,100a2.29,2.29,0,0,1,1.16.31A1.08,1.08,0,0,1,467.75,101.38Zm7.32-50.14a3.1,3.1,0,0,0-2-3.29,12.24,12.24,0,0,0-4.21-.74,5.62,5.62,0,0,0-2,.37,3.1,3.1,0,0,0-1.58,1.34,4,4,0,0,1,1.46,1.83A8.27,8.27,0,0,1,467,53a3.38,3.38,0,0,1-.92,2.5,3.21,3.21,0,0,0-.91,2.38c0,.81.24,1.3.73,1.46a5.65,5.65,0,0,0,1.83.25,4.06,4.06,0,0,0,2.25-.92,12,12,0,0,0,2.38-2.26,17.66,17.66,0,0,0,1.89-2.74A5.08,5.08,0,0,0,475.07,51.24Zm-4.88-34c-.41,0-.61-.28-.61-.85s.2-.86.61-.86.61.29.61.86S470.59,17.2,470.19,17.2Z"/><path class="cls-1" d="M101.75,214a5.32,5.32,0,0,1,4.39,2.19,14.31,14.31,0,0,1,2.13,4.46,35.13,35.13,0,0,1,1,4.39c.2,1.34.51,2,.92,2a5.39,5.39,0,0,0,3.66-1.16,6.7,6.7,0,0,0,2-2.93,12.63,12.63,0,0,0,.67-3.72,36.41,36.41,0,0,0-.06-3.66,3,3,0,0,1,.85,2.2v2.32q0,4.28-2.56,6a11.34,11.34,0,0,1-6.59,1.77,18.88,18.88,0,0,1-7.13-1.35,33.18,33.18,0,0,1-6.41-3.41,68.15,68.15,0,0,1-5.92-4.52C86.72,217,84.83,215.45,83,214a1.72,1.72,0,0,0-.73-.12.86.86,0,0,0-.37.06.53.53,0,0,1-.24.06h-.25l-5.73,2.44h-.73a14.14,14.14,0,0,1-1.28-.86,6.35,6.35,0,0,0-1.16-.73.73.73,0,0,0-.49-.12,3,3,0,0,0-1.59.55,9.62,9.62,0,0,0-2.86,2.87,7.34,7.34,0,0,0-.8,1.58,5,5,0,0,0,2.08,1.71c1,.49,2,1,3,1.46a12.8,12.8,0,0,1,2.68,1.71A3.08,3.08,0,0,1,75.64,227v.73a4.33,4.33,0,0,1-2.32-1,18.79,18.79,0,0,1-1.58-1.65,11.46,11.46,0,0,0-1.59-1.53,3.7,3.7,0,0,0-2.32-.67,5.92,5.92,0,0,0-2.62.8c-1,.53-2.1,1.14-3.23,1.83s-2.28,1.34-3.42,1.95a10.45,10.45,0,0,1-3.17,1.16,3.46,3.46,0,0,1-.86-.43,3.75,3.75,0,0,0-.85-.43A7.08,7.08,0,0,0,52.22,229c-.66.66-1,1.06-1,1.22v13.91H74.05c1.3,0,2.63-.79,4-2.38a27.65,27.65,0,0,0,3.6-5.55,42.07,42.07,0,0,0,2.56-6.34,18.09,18.09,0,0,0,1-4.76c1.3,0,3,.08,5,.24a55.58,55.58,0,0,1,6.16.86,27.41,27.41,0,0,1,5.73,1.77,7.55,7.55,0,0,1,3.72,3.11,8.47,8.47,0,0,0-4.14,3.29,8.82,8.82,0,0,0-1.71,5.13q0,.72.06,1.89a1.12,1.12,0,0,0,1.28,1.16,1.55,1.55,0,0,0,1.16-.43,8.7,8.7,0,0,0,.79-.92,6.12,6.12,0,0,1,.86-.91,1.75,1.75,0,0,1,1.22-.43,2.7,2.7,0,0,1,3,3.05,2.23,2.23,0,0,1-.67,1.71,7.52,7.52,0,0,1-1.47,1,8.82,8.82,0,0,0-1.46,1,1.87,1.87,0,0,0-.67,1.53,2.72,2.72,0,0,0,.12.85,9.59,9.59,0,0,1,5.12,1.71,13.24,13.24,0,0,1,3.78,3.9,4.42,4.42,0,0,1-2.44,2,9.75,9.75,0,0,1-3.17.55,9.62,9.62,0,0,1-6.16-1.9,15.22,15.22,0,0,1-3.9-4.63,29.54,29.54,0,0,1-2.5-6q-1-3.3-2-6a21.94,21.94,0,0,0-2.32-4.63,4,4,0,0,0-3.47-1.9v10.37l2.38,2.2A8.36,8.36,0,0,1,91,246.38a6.54,6.54,0,0,1,.79,2A12.8,12.8,0,0,1,92,251.2a7.64,7.64,0,0,1-1.22,4.21,11,11,0,0,1-3.11,3.17,15,15,0,0,1-4.21,1.95,16.13,16.13,0,0,1-4.52.67H44.41c0-2.76.69-4.82,2.07-6.16a12.13,12.13,0,0,1,4.64-2.87,23.28,23.28,0,0,1,4.63-1.09c1.39-.17,2.08-.45,2.08-.86,0-.89-.53-1.34-1.59-1.34a11.51,11.51,0,0,0-3.35.49,11.58,11.58,0,0,1-3.24.49,3.29,3.29,0,0,1-1.89-.55c-.53-.37-1-.75-1.52-1.16s-1-.8-1.53-1.16a3.21,3.21,0,0,0-1.89-.55,3.7,3.7,0,0,0-2.5.91,16.18,16.18,0,0,0-2,2.08c-.61.77-1.24,1.59-1.89,2.44a7.4,7.4,0,0,1-2.32,2,3.75,3.75,0,0,0,1.59,1.59l2,1a4.91,4.91,0,0,1,1.65,1.35,4.6,4.6,0,0,1,.67,2.8,6,6,0,0,1-2.63-.61A11.71,11.71,0,0,1,35,258.46a7.36,7.36,0,0,1-1.76-2.14,5,5,0,0,1-.68-2.44V223.75H49.41a5.13,5.13,0,0,0-.31-1.89,5,5,0,0,1-.3-1.77v-.37a2.25,2.25,0,0,1,.43-.55q.3-.3.42-.3H62.71c1.14-1,2.09-1.81,2.87-2.5L68,214.23c.82-.73,1.51-1.34,2.08-1.83.32-.32.81-.75,1.46-1.28a19.46,19.46,0,0,0,1.89-1.77A16.28,16.28,0,0,0,75,207.28a4.1,4.1,0,0,0,.73-2.32,6.84,6.84,0,0,0-.55-2.07,25.8,25.8,0,0,0-1.34-3A13.24,13.24,0,0,0,72,197.21a2.85,2.85,0,0,0-2-1.16,10.56,10.56,0,0,0-1.22.13c-.57.08-.86.32-.86.73v11.34c-.16-.08-.5-.22-1-.42a3.79,3.79,0,0,0-1-.31.71.71,0,0,0-.49-.12c-.24,0-.45.22-.61.67a14.87,14.87,0,0,1-.61,1.46,6.94,6.94,0,0,1-.91,1.47,1.74,1.74,0,0,1-1.41.67,2,2,0,0,1-1.89-1,11.93,11.93,0,0,1-.91-2.32,15.49,15.49,0,0,0-.86-2.31,1.83,1.83,0,0,0-1.83-1,11.05,11.05,0,0,0-2.86.31,7.9,7.9,0,0,0-2.63,1.4v-9.76a.58.58,0,0,0-.42-.55,3.9,3.9,0,0,0-.92-.25,12.93,12.93,0,0,0-1.46-.06h-.61a8.06,8.06,0,0,0-1,.06,3.82,3.82,0,0,0-.91.25.58.58,0,0,0-.43.55v8.9a5.56,5.56,0,0,0-3.66-2.68,23.44,23.44,0,0,0-4.76-.49,5.47,5.47,0,0,0,.86,2.26,24.23,24.23,0,0,0,2,3A18,18,0,0,0,42,210.57c.81.73,1.46,1.06,2,1a1.77,1.77,0,0,0,.61-.37c.32-.24.67-.53,1-.85s.71-.61,1-.86a1.85,1.85,0,0,1,.61-.36,3.48,3.48,0,0,1,3,1.71A5.69,5.69,0,0,1,51.36,214l-.12,1.58a2.36,2.36,0,0,1-1.1-1.46,15.72,15.72,0,0,1-.49-1.71,3.32,3.32,0,0,0-1-.18l-1-.06a8.36,8.36,0,0,0-3.9,1q-2,1-4,2.32a39,39,0,0,1-4.33,2.32,11.72,11.72,0,0,1-4.94,1c-.25,0-.73,0-1.47.06s-1.14-.26-1.22-.92a34.17,34.17,0,0,0-.24-5.79c-.24-1.83-.53-3.6-.85-5.31s-.63-3.41-.92-5.12a33.19,33.19,0,0,1-.43-5.37v-.37a1.87,1.87,0,0,1,.31-.61c.2-.32.38-.65.55-1s.32-.65.49-1a2.12,2.12,0,0,0,.24-.61v-.36a.37.37,0,0,0-.12-.25,4.77,4.77,0,0,0-3.42,1.28A12.38,12.38,0,0,0,21,196.66a27.62,27.62,0,0,0-1.7,3.91q-.74,2.07-1.35,3.66a3.93,3.93,0,0,1,2,.42,9.36,9.36,0,0,1,1.28.92c.36.33.73.63,1.1.91a2.37,2.37,0,0,0,1.52.43,5,5,0,0,1-1,3.05l-1.58-.85h-.86a11.83,11.83,0,0,0-1.64.36,14.72,14.72,0,0,0-1.65.49H15.49a5.1,5.1,0,0,0-.79-.49,3.33,3.33,0,0,0-.79-.36c-.08,0-.23.1-.43.3a2.52,2.52,0,0,0-.43.55v.37a4.78,4.78,0,0,0,1,2.44c.65,1,1.14,1.67,1.46,2.07l-2.44,4.88c-.08.08,0,.23.19.43a.92.92,0,0,0,.67.3,3.33,3.33,0,0,0,.79-.36,3.14,3.14,0,0,1,.79-.37l1.22-.12a4.33,4.33,0,0,1,1.22.12c-.73,1.22-1.68,2.67-2.86,4.33a47.91,47.91,0,0,1-3.91,4.82,24.09,24.09,0,0,1-4.57,3.91,9,9,0,0,1-4.88,1.58,2.87,2.87,0,0,1-1.16-.24,1,1,0,0,1-.55-1,18,18,0,0,1,1.1-5.37q1.1-3.28,2.5-6.89c.93-2.4,1.85-4.8,2.74-7.2a38,38,0,0,0,1.83-6.16,127.57,127.57,0,0,0,1.59-12.75q.48-6.53.61-13.11t.12-13.06q0-6.47.12-12.32a4.37,4.37,0,0,1,1.22-.12,12.1,12.1,0,0,1,4.58.91c1.5.62,3,1.27,4.51,2s3,1.34,4.52,1.95a12.35,12.35,0,0,0,4.69.91H62.71V147.25l1.58-1.58q6.22.74,10.19.85t6.59.12c1.75,0,3.23.07,4.45.19a12.74,12.74,0,0,1,3.78,1,32.52,32.52,0,0,1,4.64,2.63c1.79,1.18,4.11,2.82,7,4.94a.37.37,0,0,0,.25.12h.61A1.35,1.35,0,0,0,103,155c.24-.37.49-.75.73-1.16a13.15,13.15,0,0,1,.79-1.16,1.7,1.7,0,0,1,1.41-.55h.73l7.32,7.32v.86a3.38,3.38,0,0,0-1.22-.73,5.86,5.86,0,0,0-1.34-.13,2.52,2.52,0,0,0-2.2,1c-.49.69-1.06,1.43-1.71,2.2a8.16,8.16,0,0,1-2.74,2,10.67,10.67,0,0,1-5.43.49l-.86.85h17.08c.17,0,.35-.22.55-.67a2.67,2.67,0,0,0,.31-1,3,3,0,0,0-.43-.79,3.35,3.35,0,0,1-.43-.79v-.86a2.34,2.34,0,0,1,1.47,1.22,5.52,5.52,0,0,1,.24,1.71,5.91,5.91,0,0,1-.24,1.59c-.17.57-.65.85-1.47.85h-19a3.35,3.35,0,0,0,2.44,3.36,34.28,34.28,0,0,0,5.61,1.52c2.12.41,4.23.88,6.35,1.4a7.47,7.47,0,0,1,4.63,3,1.89,1.89,0,0,1-.85.13,5.37,5.37,0,0,1-3-.92,5.38,5.38,0,0,0-3-.91,4.52,4.52,0,0,0-2.13.48,4.45,4.45,0,0,1-2.14.49,2.85,2.85,0,0,1-2.19-.91q-.85-.91-1.77-1.95a17.05,17.05,0,0,0-2-2,4.21,4.21,0,0,0-2.8-.91h-.49a4.47,4.47,0,0,1,.06,1.4c0,.69-.12,1.45-.24,2.26s-.23,1.58-.31,2.32a5.58,5.58,0,0,1-.24,1.34,5.91,5.91,0,0,0-.49.61l-.79,1-.8,1a1.85,1.85,0,0,0-.36.61c-.08,0-.12.12-.12.37A1.72,1.72,0,0,0,93,182.51a4,4,0,0,0,1.83.61,10.87,10.87,0,0,0,3.36-.49,20.45,20.45,0,0,0,2.87-1.15,23.08,23.08,0,0,1,2.68-1.16,8.38,8.38,0,0,1,2.93-.49,7.72,7.72,0,0,1,3.17.85,30.65,30.65,0,0,1-2.87,4.52q-2.13,2.93-4.33,6.22a69.38,69.38,0,0,0-3.78,6.34c-1.06,2-1.46,3.66-1.22,4.88L96,201.79v1.58c.08.33.33,1,.74,2.08s.69,1.75.85,2.07h.85a6,6,0,0,0,1-.91c.41-.45.61-.71.61-.8a3,3,0,0,0-.61-1.28,4.56,4.56,0,0,0-1-1.16h.86a20.47,20.47,0,0,0,2,1.65,20.47,20.47,0,0,1,2,1.65l-.85.43a3.55,3.55,0,0,0-.73.42,3,3,0,0,0-.61.37,1.39,1.39,0,0,0-.25.36ZM27.69,241.68a17.73,17.73,0,0,1-1.09,6.16,16.19,16.19,0,0,1-3.12,5.25,16.56,16.56,0,0,1-4.69,3.66,12.77,12.77,0,0,1-6,1.4c-.33,0-.87,0-1.65-.12s-1.24-.12-1.4-.12L9,257.05a4.45,4.45,0,0,0,1.22.19q1,.06,2,.06t2-.06a4.45,4.45,0,0,0,1.22-.19,2.39,2.39,0,0,0,1-.3c.41-.21.61-.35.61-.43v-8.17h-.73a10.33,10.33,0,0,1-4,5.3,10.63,10.63,0,0,1-6.28,2,1.69,1.69,0,0,1-1.52-.92,7.53,7.53,0,0,1-.86-2.19,20,20,0,0,1-.43-2.44q-.12-1.15-.12-1.77a8.68,8.68,0,0,1,2.32-5.92,46.71,46.71,0,0,1,5.43-5.18c2.07-1.71,4.17-3.54,6.28-5.49a18.66,18.66,0,0,0,4.76-7,1.17,1.17,0,0,1,.61-.18l.61-.06a2.59,2.59,0,0,1,2.32,1.58,15.13,15.13,0,0,1,1.34,3.66,30.28,30.28,0,0,1,.67,4.09c.12,1.34.18,2.3.18,2.87a2.88,2.88,0,0,1-.3,1.4,9.24,9.24,0,0,1-.67,1,7.91,7.91,0,0,0-.67,1,3.12,3.12,0,0,0-.31,1.53.11.11,0,0,0,.12.12h.25l1.58-.85ZM9.88,222.89c0-1-.45-1.58-1.34-1.58s-1.26.49-1.34,1.46-.12,1.67-.12,2.08A5.87,5.87,0,0,0,9,224.54C9.6,224.34,9.88,223.79,9.88,222.89Zm4.76,17.94H11.22a2.37,2.37,0,0,0,1.16,2,4,4,0,0,0,2.26.79Zm8.17-60.27c0-1.06-.4-1.59-1.22-1.59a6.89,6.89,0,0,0-1.76.61c-.94.41-1.94.86-3,1.35l-3.11,1.4a10.57,10.57,0,0,1-2.26.79l-.12,1.95v1.53c0,.77.28,1.24.85,1.4.24,0,.73,0,1.46.12a14.63,14.63,0,0,0,1.47.13,7.61,7.61,0,0,0,5.37-2.2A7.25,7.25,0,0,0,22.81,180.56Zm0-15.74a4,4,0,0,0-1.52-3.6,6.48,6.48,0,0,0-3.72-1,28.5,28.5,0,0,0-2.93.18,3,3,0,0,0-2.44,1.52A4.84,4.84,0,0,0,14.09,164a9.9,9.9,0,0,0,2.68,1.16,25.79,25.79,0,0,0,2.81.55L22,166a2,2,0,0,0,.85-.85Zm-2.19,73.57a1.82,1.82,0,0,0-1.1-1.59v1.59Zm8.66-70.76-.73.85H30.5c.89,0,1.67,0,2.32-.06a4.92,4.92,0,0,0,2.19-.79Zm21.23,3.29c-.08,0-.84.14-2.26.43l-5.12,1q-3,.6-6.16,1.34L31.72,175a19.48,19.48,0,0,1-1.95.49c-.82.16-1.22.28-1.22.36v.73H48.8a3.52,3.52,0,0,0,.91-.61,12.41,12.41,0,0,0,1.59-1.46,23.14,23.14,0,0,0,1.53-1.83,4.22,4.22,0,0,0,.85-1.71ZM48.07,227a5.37,5.37,0,0,0-2.63-.91c-.85,0-1.76-.06-2.74-.06l-2.81.12a2.82,2.82,0,0,1-1.34,2.07,11.49,11.49,0,0,1-2,.79,7.66,7.66,0,0,0-1.83.8c-.53.32-.79,1-.79,2.07a9.15,9.15,0,0,0,3.9-.79,31.39,31.39,0,0,0,3.29-1.77,28,28,0,0,1,3.24-1.71A7.85,7.85,0,0,1,48.07,227Zm-12.2-32.57a2.59,2.59,0,0,0-1.34,1.64,6.74,6.74,0,0,0-.37,2v.36a2.06,2.06,0,0,0,.85.86l.86-4Zm22-18.91a6.26,6.26,0,0,0-.37-2.14,3.75,3.75,0,0,0-1.34-1.77A6.88,6.88,0,0,1,55,175a12.8,12.8,0,0,1-2.56,2.86A13.56,13.56,0,0,1,49,179.89a8.6,8.6,0,0,1-3.41.79,5.75,5.75,0,0,1-2.5-.49,5.93,5.93,0,0,0-2.5-.48l-1.28.06c-.7,0-1,.34-1,.91a6,6,0,0,0,.3,1.22,10.28,10.28,0,0,0,.43,1.22c-.16,0-.47,0-.92.06a5.52,5.52,0,0,0-1.34.31,5.35,5.35,0,0,0-1.22.61,1.13,1.13,0,0,0-.55,1v.49l3.24,1.71A30.23,30.23,0,0,0,41,188.55a15.19,15.19,0,0,0,2.87.85,16.6,16.6,0,0,0,3.35.31,17,17,0,0,0,2.38-.18,9.38,9.38,0,0,0,2.38-.67,4.9,4.9,0,0,0,1.83-1.41,3.68,3.68,0,0,0,.73-2.38,1.15,1.15,0,0,0-1-1.22,3.08,3.08,0,0,1-1.47-.73.71.71,0,0,1-.12-.49.49.49,0,0,1,.12-.36l5.74-5.74ZM39,190.44v.73l1.71-.73Zm1.71,52.83c.4,0,.61-.26.61-.79s-.21-.8-.61-.8-.61.27-.61.8S40.34,243.27,40.75,243.27Zm4.88-78.33a2,2,0,0,0-1.53.74,10.6,10.6,0,0,0-.91,1.09h2.44ZM48.8,192H47.21a1.82,1.82,0,0,0,1.59,1ZM53,216.43a.44.44,0,0,1-.86,0c-.08-.25,0-.37.37-.37S53,216.18,53,216.43Zm0,11.34c.4,0,.61-.26.61-.79s-.21-.79-.61-.79-.61.26-.61.79S52.54,227.77,53,227.77Zm4-6.46v.85l.86-.85Zm0,8.17a15.08,15.08,0,0,0,4.46.25,8.37,8.37,0,0,0,2.25-.68c.57-.28,1.16-.58,1.77-.91a6.82,6.82,0,0,1,3-.49,4.25,4.25,0,0,1,2.44.67q1,.68,2,1.41c.65.48,1.33,1,2,1.4a4.7,4.7,0,0,0,2.62.67,8.43,8.43,0,0,1-2.81,6.71,10.2,10.2,0,0,1-7,2.44h-2.5a3.11,3.11,0,0,1-2.5-1c-.25-.32-.61-.89-1.1-1.7s-1-1.71-1.46-2.69-1-1.89-1.41-2.74-.75-1.45-.91-1.77Zm12.33-39.4c0-2.69-.49-4.31-1.47-4.88s-2.76-.86-5.37-.86a4.87,4.87,0,0,0,2.26,4.15A7.9,7.9,0,0,0,69.3,190.08Zm-4.15-25.75h-.86v.86h.86Zm30,1.71a3.91,3.91,0,0,1-1.46-1.89,8.55,8.55,0,0,1-.25-2.26A3.48,3.48,0,0,1,95,158.78,19.28,19.28,0,0,1,98.45,157a.49.49,0,0,0,.13-.36,2,2,0,0,0-.86-1.47,16.32,16.32,0,0,0-2-1.4,21.09,21.09,0,0,0-2-1.1,5.07,5.07,0,0,1-1-.55c-.41.17-.75.9-1,2.2a23,23,0,0,1-1.4,4.21,12.33,12.33,0,0,1-2.93,4.09A7.54,7.54,0,0,1,82,164.46a1.63,1.63,0,0,1-1.15-.31,2.91,2.91,0,0,1-.49-.61c-.13-.2-.27-.41-.43-.61a1,1,0,0,0-.85-.3,4.07,4.07,0,0,0-2.57,1l1.59.73a40.58,40.58,0,0,1-3,2.75,5.85,5.85,0,0,1-3.78,1.4,4.08,4.08,0,0,1-2.08-.49,4.17,4.17,0,0,0-2.07-.48,5.63,5.63,0,0,0-1.34.18c-.49.12-.73.51-.73,1.16a3.22,3.22,0,0,0,.73,2.19,5.89,5.89,0,0,0,1.83,1.41,7.75,7.75,0,0,0,2.32.73,15.79,15.79,0,0,0,2.31.18,2.27,2.27,0,0,0,1.47-.49,6.1,6.1,0,0,0,1.1-1.16,7.25,7.25,0,0,1,1-1.15,2,2,0,0,1,1.41-.49h.85a5.13,5.13,0,0,1,1.28.43,7.63,7.63,0,0,0,1.16.42.94.94,0,0,0,1-.73,15.39,15.39,0,0,0,.3-1.65,6,6,0,0,1,.49-1.71,1.45,1.45,0,0,1,1.46-.79Zm-26,26.6a9.56,9.56,0,0,0-1.4.12,1.22,1.22,0,0,0-1,.85h2.44Zm5,55a.54.54,0,0,0-.13-.37,7.4,7.4,0,0,1-1-.3c-.61-.2-1.08-.35-1.41-.43a.69.69,0,0,0-.48-.12.5.5,0,0,0-.37.12c-.73.57-1.34,1-1.83,1.4a2.07,2.07,0,0,0-.73,1.77,2.14,2.14,0,0,0,.12.86,25.51,25.51,0,0,0,2.93-.86,9.69,9.69,0,0,0,2-.91C73.87,248.45,74.18,248.07,74.18,247.66Zm-1.47-90.4c0-.16,0-.47-.06-.92s-.1-.91-.18-1.4A4.78,4.78,0,0,0,72,153.6a1.24,1.24,0,0,0-.79-.73.71.71,0,0,0-.49.12c-.33.08-.57.36-.73.85-.08,0-.12.12-.12.37a3.22,3.22,0,0,0,.79,2.07A2.49,2.49,0,0,0,72.71,157.26Zm-1.95,6.34q2-.24,1.95-1.83a3.15,3.15,0,0,0-1.28.31,1,1,0,0,0-.67,1Zm12-9.76a19.43,19.43,0,0,1-.19,2.14,14,14,0,0,0,0,3.17,8.62,8.62,0,0,0,.8,2.87,2.33,2.33,0,0,0,2.31,1.22c0-.33,0-1-.06-2s-.1-2.07-.18-3.17-.18-2.07-.3-2.93-.27-1.28-.43-1.28ZM83,208.25c.24-.08.37-.32.37-.73a1,1,0,0,0-.37-.85c-.24-.16-.37.1-.37.79S82.72,208.42,83,208.25Zm.85-40.62c-.48,0-.75.2-.79.61s-.06.73-.06,1a30.86,30.86,0,0,0,.31,3.42,44.8,44.8,0,0,0,.91,5,23.65,23.65,0,0,0,1.53,4.52c.6,1.3,1.32,1.95,2.13,1.95s1.42-.71,2.07-2.14a41.3,41.3,0,0,0,1.83-4.88,49.74,49.74,0,0,0,1.35-5.3,24.22,24.22,0,0,0,.48-3.3.75.75,0,0,0-.85-.85ZM92.72,212c-.24,0-.69,0-1.34-.06a15.86,15.86,0,0,0-1.95,0,4.27,4.27,0,0,0-1.77.48,1.6,1.6,0,0,0-.8,1.53h5.86Zm-3.17,36.11a.44.44,0,0,0,.36-.43c0-.2-.12-.34-.36-.43s-.37.17-.37.49S89.3,248.23,89.55,248.15Zm17.81-16.23a.37.37,0,1,1-.73,0q-.12-.36.36-.36C107.32,231.56,107.44,231.68,107.36,231.92Zm.85,1.59c-.4,0-.61-.27-.61-.8s.21-.79.61-.79.61.27.61.79S108.62,233.51,108.21,233.51Zm.86-30.87c-.41,0-.61-.28-.61-.85s.2-.86.61-.86.61.29.61.86S109.47,202.64,109.07,202.64Zm0,30.87a.49.49,0,0,1,.36-.12c.25,0,.37,0,.37.12a29.48,29.48,0,0,1,3.29,3.29c.08,0,.13.12.13.37a.49.49,0,0,1-.13.36Zm.73-32.58c-.41,0-.61-.26-.61-.79s.2-.79.61-.79.61.26.61.79S110.21,200.93,109.8,200.93Zm.85-1.58c-.4,0-.61-.26-.61-.8s.21-.79.61-.79.61.27.61.79S111.06,199.35,110.65,199.35Zm.86-1.59c-.41,0-.61-.28-.61-.85s.2-.86.61-.86.61.29.61.86S111.91,197.76,111.51,197.76Zm.73-1.71c-.41,0-.61-.26-.61-.79s.2-.79.61-.79.61.26.61.79S112.65,196.05,112.24,196.05ZM114,212.4a1,1,0,0,1-.86-1v-1.28a25.51,25.51,0,0,1,.13-2.86,14.42,14.42,0,0,1,.73-3Zm0,26.84c-.41,0-.61-.28-.61-.85s.2-.86.61-.86.61.29.61.86S114.35,239.24,114,239.24Zm.36-45.63a1.1,1.1,0,0,1,1,.55,2.43,2.43,0,0,1,.31,1.16,1.67,1.67,0,0,1-.13.73L114,193.61Zm.37-31.72c-.41,0-.61-.26-.61-.79s.2-.79.61-.79.61.26.61.79S115.09,161.89,114.68,161.89Zm0,52.1c-.24.08-.37,0-.37-.37s.13-.49.37-.49.37.23.37.43S114.92,213.91,114.68,214Zm0,26c-.24.09-.37,0-.37-.36s.13-.45.37-.37a.37.37,0,1,1,0,.73Zm.85-24.4c-.4,0-.61-.26-.61-.79s.21-.79.61-.79.61.26.61.79S115.94,215.57,115.53,215.57Zm0,26.84c-.4,0-.61-.26-.61-.79s.21-.79.61-.79.61.26.61.79S115.94,242.41,115.53,242.41Z"/><path class="cls-1" d="M240,241.68a13.23,13.23,0,0,1-4.45,3.66,13.47,13.47,0,0,0-4.45,3.66,11.11,11.11,0,0,0-1.22,2.32l-1.53,3.54a24.6,24.6,0,0,1-1.7,3.29c-.62,1-1.16,1.47-1.65,1.47a13.71,13.71,0,0,1-6.59-1.89,40,40,0,0,1-6.77-4.82q-3.36-2.94-6.47-6.23c-2.07-2.19-4-4.27-5.79-6.22s-3.36-3.56-4.7-4.82-2.38-1.89-3.11-1.89v24.16a1.94,1.94,0,0,1-.85,1.52,10.71,10.71,0,0,1-2,1.22,11.84,11.84,0,0,1-2.25.86q-1.17.3-1.77.42a9.23,9.23,0,0,0-.49-3c-.33-.93-.67-1.85-1-2.74s-.73-1.79-1.1-2.68a9.88,9.88,0,0,1-.67-2.93h-.36c-1.3,0-2.14.36-2.5,1.1a5.58,5.58,0,0,0-.55,2.56,4.51,4.51,0,0,0,.61,2.44,18.2,18.2,0,0,0,1.4,1.95,15.46,15.46,0,0,1,1.4,2,4.83,4.83,0,0,1,.61,2.5,20,20,0,0,1-2.56-.12,10,10,0,0,1-1.46-.3c-.41-.13-.84-.25-1.28-.37a7.08,7.08,0,0,0-1.77-.18v1.71l-3.3-.25a2.25,2.25,0,0,1-.55-.43q-.3-.3-.3-.42V249.25c1.3,0,2-.31,2.26-.92a8.82,8.82,0,0,0,.3-2.62v-2.14a2.37,2.37,0,0,0-.85-1.89l-1.71.73c.08-.73,0-1.2-.37-1.4a2.27,2.27,0,0,0-1.22-.3,6.33,6.33,0,0,0-3.72,1.15,6.44,6.44,0,0,1-3.84,1.16c0,.9-.77,1.94-2.32,3.11a46,46,0,0,1-5.91,3.73q-3.6,1.95-8,3.84t-8.6,3.35c-2.8,1-5.35,1.77-7.62,2.38a22.05,22.05,0,0,1-5.13.92c-.65,0-1-.25-1.15-.73a5.7,5.7,0,0,1-.19-1.47c0-.49.83-1.36,2.5-2.62s3.76-2.77,6.29-4.51,5.22-3.75,8.11-6a105.11,105.11,0,0,0,8.11-7A42.43,42.43,0,0,0,154,230.7a13.3,13.3,0,0,0,2.51-7.32h-21a4.88,4.88,0,0,0-.73-2.56,2.41,2.41,0,0,0-2.2-1.22c-1,0-1.54.35-1.7,1a9.4,9.4,0,0,0-.25,2.25h-5.37q-.12,0-.42-.3l-.43-.43-.24-4.51h45.87V207.52c0-.08-.1-.22-.31-.42a1.93,1.93,0,0,0-.55-.43h-.85l-9.76,4H157a3.6,3.6,0,0,0,1.16-1.22,2.9,2.9,0,0,0,.55-1.58.51.51,0,0,0-.12-.37,2.43,2.43,0,0,1-1.52.79c-.54.05-1.08.07-1.65.07l-1.71-.13.85-3.17a3.59,3.59,0,0,0,.74.43,2.37,2.37,0,0,0,.85.3,7.22,7.22,0,0,0,4.45-1.95,28.51,28.51,0,0,0,4.64-4.94,55.68,55.68,0,0,0,4.33-6.77q2.07-3.78,3.66-7.38a57.7,57.7,0,0,0,2.5-6.65,17.88,17.88,0,0,0,.92-4.76l-.13-2.44a.75.75,0,0,0-.85-.85H161.89c-.81,0-1.87,1-3.17,2.93a54.52,54.52,0,0,0-3.78,6.77,75.48,75.48,0,0,0-3.17,7.68,19.38,19.38,0,0,0-1.34,5.8l.12,2.07a7.12,7.12,0,0,0,.43,1.16c.28.69.38,1.12.3,1.28a2.29,2.29,0,0,1-1,1.1c-.57.41-1.18.83-1.83,1.28a17.48,17.48,0,0,0-1.83,1.46A2.65,2.65,0,0,0,146,205c.33.69.69,1.4,1.1,2.14s.8,1.36,1.16,1.89a3.77,3.77,0,0,1,.55.91,2.36,2.36,0,0,0,.31.49,3.23,3.23,0,0,1,.3.49,4.86,4.86,0,0,0,.24.61,1.42,1.42,0,0,1-.91,1.22,7.8,7.8,0,0,1-2.14.73c-.81.16-1.58.29-2.31.37s-1.27.12-1.59.12a14.47,14.47,0,0,1-2.87-.37,15,15,0,0,1-3.35-1.1,9.09,9.09,0,0,1-2.75-1.89,3.74,3.74,0,0,1-1.16-2.74v-.37a11.44,11.44,0,0,1,.13-1.34q.12-1,.24-2c.08-.69.16-1.35.24-2a7.89,7.89,0,0,1,.25-1.28,2.79,2.79,0,0,1,1.28,2.14,17.4,17.4,0,0,1,.3,2h.86a2.1,2.1,0,0,0,1.83-.85,3.32,3.32,0,0,0,.61-1.95,7.61,7.61,0,0,0-.18-1.28,16.45,16.45,0,0,0-.49-1.83,13.77,13.77,0,0,0-.67-1.65c-.25-.49-.49-.73-.74-.73a.49.49,0,0,0-.36.12,17.58,17.58,0,0,0-2.44,2.44,5.87,5.87,0,0,0-1.71-2.62c-.9-.86-1.81-1.65-2.74-2.38l-2.57-2c-.77-.61-1.16-1.11-1.16-1.52v-.37a1.5,1.5,0,0,1,.86-.85,34.72,34.72,0,0,0,4.88-.67,26,26,0,0,0,5.18-1.65,15.75,15.75,0,0,0,4.46-2.93,8.69,8.69,0,0,0,2.56-4.51h-9c-.73,0-1.67-.75-2.81-2.26a42.72,42.72,0,0,1-3.29-5.12,51.68,51.68,0,0,1-2.68-5.55,12.8,12.8,0,0,1-1.1-3.42,1.25,1.25,0,0,1,.79-1.22,6.07,6.07,0,0,1,1.77-.49,7.47,7.47,0,0,1,1.89,0,11.63,11.63,0,0,0,1.28.12,25.92,25.92,0,0,1,6.65.86,25.39,25.39,0,0,0,6.53.85H144a24,24,0,0,0-3.6-7.14,40.89,40.89,0,0,0-5.31-5.91,2.14,2.14,0,0,1-.12-.86c0-.81.49-1.38,1.47-1.7a15.22,15.22,0,0,1,3.23-.68,24.13,24.13,0,0,1,3.35-.12l1.83.06c1.3,0,2.81.09,4.52.25a17,17,0,0,1,4.82,1.16,10.08,10.08,0,0,1,3.78,2.62,6.5,6.5,0,0,1,1.52,4.51,8.73,8.73,0,0,1-1.22,4.76,9.08,9.08,0,0,1-3.23,3.11,12.57,12.57,0,0,1-4.45,1.53,16.63,16.63,0,0,1-4.88,0,10.76,10.76,0,0,1,1.83,4.27,33.7,33.7,0,0,1,.61,4.63.45.45,0,0,0,.36.13c.25,0,.37,0,.37-.13s.22-.1.43-.3l.42-.43c.25-.32.88-1.1,1.89-2.32s2.12-2.52,3.3-3.9,2.3-2.66,3.35-3.84a21.75,21.75,0,0,1,2.08-2.14,9.58,9.58,0,0,1,1.46-1.65c.65-.61,1.28-1.22,1.89-1.82l2.26-2.26h2.93a5.83,5.83,0,0,1-.43,2.26c-.28.69-.59,1.36-.91,2s-.63,1.32-.92,2a5.64,5.64,0,0,0-.43,2.14,73,73,0,0,1,9.22.61,72.91,72.91,0,0,0,9,.61,3.45,3.45,0,0,0-2.19-3.18,21.46,21.46,0,0,0-4-1.58c0-.41,0-1.16-.12-2.26s-.17-2.26-.25-3.48-.16-2.35-.24-3.41-.12-1.79-.12-2.2v-1a5.43,5.43,0,0,1,.06-.86c0-.24.26-.44.67-.61l3.66-.12c.57,0,2,.06,4.21.18s4.57.27,7,.43,4.64.35,6.59.55,2.93.39,2.93.55v2.44l-4.14,4a4.43,4.43,0,0,1-1-1.28c-.36-.61-.73-1.26-1.09-1.95a14.87,14.87,0,0,0-1.1-1.77,1.58,1.58,0,0,0-1.28-.73c-.73,0-1.12.33-1.16,1s-.06,1.22-.06,1.7a4.21,4.21,0,0,0,1.65,3.42,5.67,5.67,0,0,0,3.72,1.34v7.32h3.68c.16-.24.54-.75,1.16-1.52a32.35,32.35,0,0,1,2.21-2.5,17.72,17.72,0,0,1,2.76-2.38,5,5,0,0,1,2.82-1,2.72,2.72,0,0,1,.85.12q3.31,2.44,7.18,5.25a38.08,38.08,0,0,1,6.66,6.1L222,170.92v15.37c0,.57.41.88,1.22.92l1.46.06a4.72,4.72,0,0,0,2.63-.61,7.46,7.46,0,0,0,2-2.81,10.81,10.81,0,0,1,3.78,4.64,15.69,15.69,0,0,1,1.1,6,11,11,0,0,1-.37,1.64,12.14,12.14,0,0,0-.36,1.65,3.48,3.48,0,0,0-.18,1c-.05.53-.07,1.12-.07,1.77s0,1.26.07,1.83a2.22,2.22,0,0,0,.18,1,17.68,17.68,0,0,1-7.26,1.65q-3.84.06-7.5.06h-3.91a25.72,25.72,0,0,1-5.24-.55,12.33,12.33,0,0,1-4.64-1.89,4.67,4.67,0,0,1-2-4.15V170.92c0-.08-.17-.22-.49-.42s-.57-.35-.73-.43l-1.71-.86h-.37q-1.83,0-3.47,2.81a47.14,47.14,0,0,0-3.11,6.47q-1.47,3.66-2.93,7.32a17.7,17.7,0,0,1-3,5.36c-.41.49-1.14,1.29-2.2,2.38s-2.19,2.26-3.41,3.48-2.38,2.36-3.48,3.42-1.89,1.79-2.38,2.19c.16.41,1.14.78,2.93,1.1s3.8.63,6,.91,4.39.54,6.46.74,3.44.34,4.09.42a2.79,2.79,0,0,1,.12.86,3.18,3.18,0,0,1-.67,2.13,12.67,12.67,0,0,1-1.46,1.47,11.92,11.92,0,0,0-1.47,1.46,3,3,0,0,0-.67,2v.68a6.87,6.87,0,0,0,.12,1.21,6.63,6.63,0,0,0,.31,1.16c.12.33.3.49.55.49h20.25a3.45,3.45,0,0,0,2.14-1.34,34.51,34.51,0,0,0,2.56-3.05l2.44-3.29a9,9,0,0,1,1.89-2.08q0-.12.36-.12a5.54,5.54,0,0,1,2.08.79c1,.53,2.09,1.2,3.35,2s2.54,1.73,3.85,2.74,2.5,2,3.59,3.05a33.64,33.64,0,0,1,2.75,2.81,3.66,3.66,0,0,1,1.1,2v.49a4.33,4.33,0,0,1-.86.85,4.66,4.66,0,0,0-1.83-2.93,5.91,5.91,0,0,0-3-.73v4.39H209.11a3.69,3.69,0,0,1,1.95-1.28c.89-.28,1.81-.52,2.75-.73s1.74-.4,2.44-.61,1-.55,1-1a.93.93,0,0,0-.73-1,5.68,5.68,0,0,0-1.46-.19,5.52,5.52,0,0,0-1.53.19,2.49,2.49,0,0,0-1.28,1H192.64l-.73,1.22a4.29,4.29,0,0,0,1.89,1,18.2,18.2,0,0,0,2.13.37c.73.08,1.45.18,2.14.3a4.67,4.67,0,0,1,1.91.79l-1.48.74a1.48,1.48,0,0,0-1,1.34c0,1.06.88,2.13,2.63,3.23a36.48,36.48,0,0,0,6.73,3.17q4.1,1.53,9.05,2.93t9.49,2.56q4.53,1.17,8.07,1.95c2.37.54,4,.92,4.9,1.16a5.26,5.26,0,0,0-3.48,1.71,20.26,20.26,0,0,0-2.26,3.17.48.48,0,0,0,.37.13,7.24,7.24,0,0,0,1.59-.31,10.76,10.76,0,0,0,2.13-.85,7.74,7.74,0,0,0,1.77-1.28,2,2,0,0,0,.61-1.71ZM132.61,257.05a6.9,6.9,0,0,0-1-1.77,2.06,2.06,0,0,0-1.71-.79,5.35,5.35,0,0,0,.3,1.89c.21.53.72.8,1.53.8A2,2,0,0,0,132.61,257.05Zm4-5.61c.41,0,.61-.28.61-.85s-.2-.86-.61-.86-.61.29-.61.86S136.23,251.44,136.64,251.44Zm.85.73c.17.74.33,1.41.49,2s.65.91,1.47.91c0-1.87-.66-3.09-2-3.66ZM154.7,151.4a1.91,1.91,0,0,0-.55-1.4,3.19,3.19,0,0,0-1.34-.79,7.07,7.07,0,0,0-1.65-.31q-.85-.06-1.47-.06a11.27,11.27,0,0,0-2.5.24c-.69.17-1,.82-1,2H148q1.09,0,2.31.06a15.33,15.33,0,0,1,2.38.3,5.53,5.53,0,0,1,1.89.73A1.67,1.67,0,0,0,154.7,151.4ZM150.55,240a4.5,4.5,0,0,0-.8.13c-.36.08-.77.18-1.21.3a7.15,7.15,0,0,0-1.29.49,1.83,1.83,0,0,0-.85.79,1,1,0,0,0,.91.8c.45,0,.84.06,1.16.06a3.12,3.12,0,0,0,1.53-.31c.37-.2.55-.67.55-1.4ZM153,211.55v-.86l2.44.86Zm9-44.78a1.73,1.73,0,0,0-.13-.73,2.82,2.82,0,0,0-1.7,2.44,1.69,1.69,0,0,0,.12.73A2.82,2.82,0,0,0,162,166.77Zm.73-5.61v2.44a1.23,1.23,0,0,0,.85-1.1,10,10,0,0,0,.12-1.34Zm17.93,48.68c0-.49-.36-1-1.1-1.46a19.89,19.89,0,0,0-2.5-1.41,21.63,21.63,0,0,0-2.8-1.1,8.2,8.2,0,0,0-2-.42,4.42,4.42,0,0,0,.61,1.77c.41.77.88,1.56,1.41,2.38a12.89,12.89,0,0,0,1.64,2.07c.57.57,1,.85,1.35.85a5.16,5.16,0,0,0,2.31-.54A2.15,2.15,0,0,0,180.68,209.84Zm-3.29,20.37a3.83,3.83,0,0,0-.79-.42,3,3,0,0,0-.92-.31c-.08,0-.22.11-.43.31s-.3.34-.3.42Zm10.4-3.17a13.69,13.69,0,0,0,.48-1.64,12.14,12.14,0,0,0,.36-1.65c0-.08-.22-.33-.66-.73s-.73-.69-.89-.86a.69.69,0,0,0-.48-.12.49.49,0,0,0-.36.12,15.92,15.92,0,0,1-2.36,6.1c-1,1.39-2.93,2.32-5.76,2.81.4.41.88.93,1.45,1.58a17.53,17.53,0,0,0,1.87,1.89,13.11,13.11,0,0,0,2.17,1.59,4.4,4.4,0,0,0,2.23.67,5.92,5.92,0,0,0,2.36-.55,1.92,1.92,0,0,0,1.27-1.89,5.64,5.64,0,0,0-.84-3.05,5.61,5.61,0,0,1-.84-3.05Zm-.64-37.45c.4,0,.61-.27.61-.8s-.21-.79-.61-.79-.61.27-.61.79S186.74,189.59,187.15,189.59Zm30-26a1.88,1.88,0,0,0-.55-1.77,11.22,11.22,0,0,0-1.89-1.71,18.09,18.09,0,0,0-2.32-1.4l-1.71-.85-2.44,1.58a3.1,3.1,0,0,0-1.7,2.57,3.3,3.3,0,0,0,.73,2.13,6.23,6.23,0,0,0,1.83,1.53,9.49,9.49,0,0,0,2.32.91,9.28,9.28,0,0,0,2.19.31,2.15,2.15,0,0,0,1-.37,6.08,6.08,0,0,0,1.16-.92,11.88,11.88,0,0,0,1-1.09A1.62,1.62,0,0,0,217.16,163.6Zm-1.59,32.45H214a1.62,1.62,0,0,0,1.58,1.1Zm19.16-18.42c-1.14,0-1.85.18-2.14.55a26.94,26.94,0,0,0-1.52,2.5.71.71,0,0,1-.12-.49,6.37,6.37,0,0,1,.85-2.86,2.66,2.66,0,0,1,2.44-1.65,2.08,2.08,0,0,1,.85.12,22.48,22.48,0,0,0,1,4.94q.8,2.38,1.65,4.7c.57,1.55,1.07,3.07,1.52,4.57a15.52,15.52,0,0,1,.67,4.46,15.68,15.68,0,0,1-.48,3.6,4.27,4.27,0,0,1-2,2.86v-.36a10.39,10.39,0,0,1,.43-3,10.44,10.44,0,0,0,.43-3.11,12.27,12.27,0,0,0-.43-3.66c-.28-.9-1.36-1.83-3.23-2.81Z"/><path class="cls-1" d="M340.87,175.8a4.6,4.6,0,0,0,4,2.5,57.31,57.31,0,0,0,6.23.31c2.23,0,4.37.1,6.4.3a5.81,5.81,0,0,1,4.51,2.5.76.76,0,0,1-.85.86,33.36,33.36,0,0,1-6.77-.73,33.89,33.89,0,0,0-7-.74v.86c.57,0,1.29,0,2.14.06a8,8,0,0,1,2.44.49,4.92,4.92,0,0,1,1.95,1.28,3.45,3.45,0,0,1,.79,2.44v.36l-1.09,2.57-1.47,3.41c-.49,1.14-.95,2.18-1.4,3.11a4.56,4.56,0,0,1-.92,1.53,1.92,1.92,0,0,0-.18-1.83,5.7,5.7,0,0,0-1.46-1.53,7.27,7.27,0,0,0-2-1,5.84,5.84,0,0,0-1.83-.37,5.94,5.94,0,0,0,.61,3.11q.62.92,3.3,1.65v.85l-5.37,4.88v34.65a2.93,2.93,0,0,0-1.59.73,24.18,24.18,0,0,0-2,1.71,18.82,18.82,0,0,0-1.77,1.89,2.79,2.79,0,0,0-.73,1.28c0,.57,1,1.1,2.93,1.59s4.1,1.16,6.46,2a28.32,28.32,0,0,1,6.47,3.29,6.19,6.19,0,0,1,2.93,5.31,5.7,5.7,0,0,1-1.22,3.78,9.38,9.38,0,0,1-3.05,2.38,14,14,0,0,1-4,1.28,22.9,22.9,0,0,1-4,.37,13.06,13.06,0,0,1-3.85-1.22c-1.91-.81-4.16-1.85-6.77-3.11s-5.36-2.64-8.29-4.15-5.72-3-8.36-4.33-5-2.62-7-3.72L305,244.12v-.85a6.85,6.85,0,0,1,.43-1c.2-.4.34-.61.42-.61h16.23a.76.76,0,0,0,.85-.67,6.57,6.57,0,0,0,.13-1,1.34,1.34,0,0,0-.67-1.16,6.27,6.27,0,0,0-1.53-.67,13.66,13.66,0,0,0-1.65-.36,6.64,6.64,0,0,1-1.16-.25,3.46,3.46,0,0,1,.68-.85c.44-.49,1-1,1.58-1.59s1.16-1.09,1.65-1.58a6.37,6.37,0,0,1,1-.86v-6.83H306.71c.32-.57.55-1,.67-1.22a1.53,1.53,0,0,0,.18-.67,2.16,2.16,0,0,0-.12-.67,3.75,3.75,0,0,1-.12-1.1h-7.2c-.08,0-.22.11-.43.31s-.3.34-.3.42a7,7,0,0,0,.3,1.47c.21.73.35,1.22.43,1.46H286.33v8.05h29.28a8.27,8.27,0,0,0-1,4.15H297a2,2,0,0,0-.86.43,3.32,3.32,0,0,0-.85.79V240a5.81,5.81,0,0,1,.49.86,4,4,0,0,1,.36.85,6.83,6.83,0,0,1-3.47,5.13,7.65,7.65,0,0,1-6.29.48,4.33,4.33,0,0,0-.85.86V249q2.19,1.23,3.54,1.83a8.19,8.19,0,0,0,3.41.61,4.89,4.89,0,0,0,2-.49,8.92,8.92,0,0,0,2-1.22,6.47,6.47,0,0,0,1.52-1.7,3.63,3.63,0,0,0,.61-2v-.36a14.54,14.54,0,0,0-.79-1.65,13.73,13.73,0,0,1-.79-1.65h.36a8.35,8.35,0,0,1,2.69.74,26.59,26.59,0,0,1,3.72,1.83,18.91,18.91,0,0,1,3.29,2.37,3.49,3.49,0,0,1,1.41,2.38c0,.82-1.22,1.75-3.66,2.81a73.74,73.74,0,0,1-9.4,3.17q-5.73,1.59-12.56,3.17t-13.12,2.81q-6.29,1.21-11.22,1.95a55.37,55.37,0,0,1-6.77.73,10.75,10.75,0,0,1-2-.18,1.13,1.13,0,0,1-1-1.28c0-1,.67-1.87,2-2.68a32.24,32.24,0,0,1,4.94-2.38q2.93-1.17,6.47-2.26a62.08,62.08,0,0,0,6.46-2.38,23.7,23.7,0,0,0,4.94-2.81,4.24,4.24,0,0,0,2-3.35q-.5,0-1.53.06l-2.13.12-2.14.12a3.91,3.91,0,0,1-1.4-.06,3.81,3.81,0,0,1-1.16-.3c-.53-.2-.79-.35-.79-.43V193.13a6.33,6.33,0,0,0-3.48,1,28.87,28.87,0,0,0-2.93,2.14c-.93.77-1.87,1.48-2.8,2.13a5.18,5.18,0,0,1-3,1c-.82,0-1.71-.8-2.69-2.38a45.58,45.58,0,0,1-2.8-5.43,56.08,56.08,0,0,1-2.26-6,16.27,16.27,0,0,1-.91-4.15,1.71,1.71,0,0,1,1.09-1.7,12.12,12.12,0,0,1,2.2-.74c7-.56,12.89-1.16,17.69-1.76a32.65,32.65,0,0,0,12.26-3.85,23.2,23.2,0,0,0,8.48-9q3.42-6,6.34-17.15a1.13,1.13,0,0,1,.68-.73,3.28,3.28,0,0,1,.91-.12l.85.12,16.23,3.17,2.68.55a1.72,1.72,0,0,1,1.47,1.89,2,2,0,0,1-1,1.89c-.65.37-1.38.76-2.19,1.16a9.21,9.21,0,0,0-2.2,1.53,3.58,3.58,0,0,0-1,2.74h26.6a3.2,3.2,0,0,0,2.44-1c.65-.69,1.3-1.43,1.95-2.2s1.32-1.5,2-2.2a3.56,3.56,0,0,1,2.63-1h.73c.24.24.67.63,1.28,1.16s1.28,1.1,2,1.7,1.41,1.18,2,1.71,1,.92,1.28,1.16.61.57,1.1,1a1.87,1.87,0,0,1,.73,1.46h-1.22a3.87,3.87,0,0,0,.42,2,8.19,8.19,0,0,0,.92,1.29c.32.36.63.75.92,1.15a3,3,0,0,1,.42,1.71.5.5,0,0,1-.12.37c-.41.24-1,.59-1.83,1l-2.62,1.4a21.34,21.34,0,0,1-2.81,1.22,7.91,7.91,0,0,1-2.5.49,2.27,2.27,0,0,1-1.22-.31,7.76,7.76,0,0,1-1-.73,7.69,7.69,0,0,0-1-.73,2.21,2.21,0,0,0-1.22-.31,3.53,3.53,0,0,1-.18,1.22,4.15,4.15,0,0,0-.25.86.89.89,0,0,0,.25.73,4.15,4.15,0,0,0,1.4.85Zm-59.42-12.69a9,9,0,0,1-2.86,6.77,9.47,9.47,0,0,1-6.77,2.75q-1.83,0-4.88-2.68a51.75,51.75,0,0,1-6-6.29,62.31,62.31,0,0,1-5.06-7.13q-2.15-3.54-2.14-5.25a1.24,1.24,0,0,1,1.1-1.4,11.8,11.8,0,0,1,2.07-.19,65.61,65.61,0,0,1,7.26.49,33.71,33.71,0,0,1,8.05,1.95,18.74,18.74,0,0,1,6.53,4.09A9.2,9.2,0,0,1,281.45,163.11Zm-22,30.5q0-2-1.83-2a12,12,0,0,0,.13,1.59,1.3,1.3,0,0,0,.85,1.22A.76.76,0,0,0,259.49,193.61ZM266.2,188a10.27,10.27,0,0,0-1-4.15,5.52,5.52,0,0,0-4.15,2.44,2.36,2.36,0,0,0,2.2,1.53A28.32,28.32,0,0,0,266.2,188Zm12-19.52c0-.08-.41-.22-1.22-.43s-1.46-.34-1.95-.42a19.83,19.83,0,0,1-4.33-1,12.46,12.46,0,0,0-4.09-.79c0,.24,0,.69.06,1.34a6.17,6.17,0,0,0,.18,1.34c0,.08.13.23.37.43a1.16,1.16,0,0,0,.49.3h10.49ZM279.87,203a2.81,2.81,0,0,0-1.28-2.38,10.53,10.53,0,0,0-3-1.46,15.8,15.8,0,0,0-3.54-.68,15.46,15.46,0,0,0-2.75,0c-.89.17-1.4.6-1.52,1.28a11.31,11.31,0,0,0-.18,1.9,8.46,8.46,0,0,0,.3,2.44c.2.65.87,1,2,1a43.34,43.34,0,0,0,4.58-.24c1.5-.16,3-.37,4.57-.61a2.06,2.06,0,0,0,.86-.86Zm-4.15,11.83a2.42,2.42,0,0,0-1.77-1.4,10.12,10.12,0,0,0-2.26-.31c-1.62,0-2.62.51-3,1.53a10.56,10.56,0,0,0-.55,3.6,6.48,6.48,0,0,0,3.72-1.47A12,12,0,0,1,275.72,214.84Zm-2.07,22a7.54,7.54,0,0,1-2.75-.49,7.74,7.74,0,0,0-2.74-.48l.24,4.14a1.93,1.93,0,0,0,.43.55c.2.21.34.31.42.31a4.62,4.62,0,0,0,3-1.16A3.57,3.57,0,0,0,273.65,236.8Zm3.78,18.67-.92.06a14.43,14.43,0,0,0-1.7.24,7,7,0,0,0-1.65.55,1.17,1.17,0,0,0-.73,1.1,8.89,8.89,0,0,0,.24,2,1.24,1.24,0,0,0,1.34,1,2,2,0,0,0,1.47-.61,8.05,8.05,0,0,0,1.09-1.4,12.92,12.92,0,0,0,.86-1.65,6.44,6.44,0,0,1,.73-1.34Zm16.22-84.55a20.32,20.32,0,0,1-2.5,2.87q-1.77,1.77-4,3.72c-1.47,1.3-3,2.62-4.52,4s-3,2.54-4.27,3.59S276,187,275.23,187.7a6.53,6.53,0,0,0-1.22,1.16,1.26,1.26,0,0,0,.55,1,5.28,5.28,0,0,0,1.28.73,8.8,8.8,0,0,0,1.53.49,6.17,6.17,0,0,0,1.28.19.45.45,0,0,0,.36-.13l7.69-3.53a54.45,54.45,0,0,0,8.6-4.95,31,31,0,0,0,6.95-6.64,13.73,13.73,0,0,0,2.87-8.54,2.6,2.6,0,0,0-.3-1.35,3.19,3.19,0,0,0-1.41-1,1.12,1.12,0,0,0,.74-.73,4.11,4.11,0,0,0,.12-1,1.67,1.67,0,0,0-1-1.52c-.69-.37-1.46-.76-2.32-1.16a13.17,13.17,0,0,1-2.31-1.41,2.65,2.65,0,0,1-1-2.25,3.55,3.55,0,0,1,.79-2.32,15.25,15.25,0,0,1,1.77-1.83h-.37a11.77,11.77,0,0,0-6.89,1.77c-1.67,1.18-2.5,3.47-2.5,6.89a4.41,4.41,0,0,0,.43,2.2c.28.48.55,1,.79,1.4a7,7,0,0,1,.61,1.71,8.48,8.48,0,0,1-.12,3.11Zm-9.76.73c-.08,0-.22.11-.42.31a2.07,2.07,0,0,0-.43.55l-.24,2.56a6.44,6.44,0,0,0,1.52-.37c.77-.24,1.59-.52,2.44-.85a12.19,12.19,0,0,0,2.26-1.1c.65-.4,1-.77,1-1.1Zm39,28.55h-36.6v6.47h36.6Zm0,12.93h-36.6v6.59h36.6Zm-36.6,8.18v.85h.86Zm1.59,17.93-.73.73h.73Zm35-65.15h-1.58q-2,2.08-4.94,5.07a34.08,34.08,0,0,1-5.68,4.69.45.45,0,0,1-.36.13.65.65,0,0,1-.49-.13.85.85,0,0,1-.73-.73,5.54,5.54,0,0,1-2.26,3,19.26,19.26,0,0,1-3.48,1.83c-.57.17-1.54.47-2.92.92s-2.85,1-4.4,1.52-3,1.08-4.39,1.53-2.36.75-2.93.91l-.85,1.22h17.93v2a2.84,2.84,0,0,1,2.44-1.7,1.54,1.54,0,0,1,1.29.55,6.59,6.59,0,0,1,.73,1.21,5.79,5.79,0,0,0,.73,1.23,1.52,1.52,0,0,0,1.28.54V194.1h10.61l6.47-6.95ZM292.8,237.53a.84.84,0,0,0-.61-.73,4.11,4.11,0,0,0-1-.12,2.72,2.72,0,0,0-.85.12v.73Zm2.44-66.61c-.41,0-.61-.28-.61-.85s.2-.86.61-.86.61.29.61.86S295.65,170.92,295.24,170.92Zm2.44-2.44c-.08.08-.43-.2-1-.85s-1.08-1.18-1.4-1.59v-.85a1.51,1.51,0,0,1,1.71-1.71,2.25,2.25,0,0,1,1.95,1.1A3.51,3.51,0,0,0,301,166Zm12.2-13.91a21.24,21.24,0,0,0-2.2-3.35,4.24,4.24,0,0,0-3.41-1.89v1.22l4,4Zm6.59,12.2h-9.15a5.68,5.68,0,0,0,1.83,4,5.4,5.4,0,0,0,3.9,1.89,10.73,10.73,0,0,0,1.71-.12,9.82,9.82,0,0,0,1.16-.31c.37-.12.55-.3.55-.55ZM327,226.19c-.33.08-.57.36-.73.85H327a2,2,0,0,0,.85-.85Zm0-58.93a3.18,3.18,0,0,0,.61,1.77,9.74,9.74,0,0,0,1.46,1.71,7.67,7.67,0,0,0,1.83,1.28,4.05,4.05,0,0,0,1.83.49,2.66,2.66,0,0,0,2.44-1.77,7.37,7.37,0,0,0,.86-3.11,5.34,5.34,0,0,0-.12-1,.69.69,0,0,0-.74-.61h-7.32c-.08,0-.22.11-.42.31l-.43.42Zm5.73,29.16a5.72,5.72,0,0,0-1.34-4,5,5,0,0,0-3.9-1.46,29.78,29.78,0,0,0,.12,3,2.91,2.91,0,0,0,.61,1.65,2.33,2.33,0,0,0,1.53.67A27.74,27.74,0,0,0,332.69,196.42Zm1.22-8.78a4.54,4.54,0,0,0-1-2.93,3.54,3.54,0,0,0-2.93-1.22,4.25,4.25,0,0,0,1.1,2.93A3.6,3.6,0,0,0,333.91,187.64Zm6.1-26.48a.75.75,0,0,0-.85-.85,10,10,0,0,0-1.65.3,4.24,4.24,0,0,0-1.52.55,2.82,2.82,0,0,0,2.44,1.71,1.92,1.92,0,0,0,1.16-.31C339.87,162.36,340,161.89,340,161.16Zm-1.58,40.63a3,3,0,0,0-1.41,1,3,3,0,0,0-.3,1.41q0,1.83,1.71,1.83Zm21.1-35c-.4,0-.61-.24-.61-.73h-.24c-.41,0-.61-.28-.61-.85s.2-.86.61-.86.61.29.61.86h.24c.41,0,.61.26.61.79S359.94,166.77,359.53,166.77Z"/><path class="cls-1" d="M419,174.09a7.44,7.44,0,0,1-.92,1c-.45.45-.71.67-.79.67H366.85c-.57,0-.85-.36-.85-1.1v-1.95a7.89,7.89,0,0,1,.06-1,3.13,3.13,0,0,1,.25-.92.59.59,0,0,1,.54-.43h31.72c.25,0,.72-.4,1.41-1.22s1.44-1.72,2.25-2.74,1.57-2,2.26-2.87,1.16-1.46,1.4-1.71a12.28,12.28,0,0,1,3.73,2.14,46.92,46.92,0,0,1,3.65,3.29q1.77,1.77,3.24,3.42c1,1.1,1.79,2,2.44,2.62ZM392.11,203a6.53,6.53,0,0,0,1.16-1.22c.69-.81,1.42-1.69,2.19-2.62s1.81-2.22,3.11-3.85c.41-.49.65-.77.74-.85a1.62,1.62,0,0,1,.85-.12,7.26,7.26,0,0,1,3.36,1.28,25.79,25.79,0,0,1,4.08,3.05,31.69,31.69,0,0,1,3.42,3.6,5.4,5.4,0,0,1,1.46,3.05q0,2.92-3.29,2.92H373.32a1.3,1.3,0,0,1-1.16-.73,6.49,6.49,0,0,1-.67-1.71,10.92,10.92,0,0,1-.3-1.77c-.05-.52-.07-.87-.07-1Zm.73-16.23c.41-.73.85-1.58,1.34-2.56a31.89,31.89,0,0,1,1.59-2.81,12.16,12.16,0,0,1,1.89-2.31,3.12,3.12,0,0,1,2.13-1,6,6,0,0,1,3.3,1.46,47.5,47.5,0,0,1,3.9,3.3,46.21,46.21,0,0,1,3.42,3.54l1.95,2.31a2.79,2.79,0,0,1,.12.86,2.21,2.21,0,0,1-.91,1.89,3.52,3.52,0,0,1-2.14.67,2.84,2.84,0,0,1-2.44-1.83q-1-1.83-1.83-3.9c-.57-1.39-1.1-2.63-1.58-3.73s-1.06-1.52-1.71-1.28a4.76,4.76,0,0,0-2.5,2.32,6.81,6.81,0,0,0-.92,3.17,3.78,3.78,0,0,0,.06.61,4,4,0,0,1,.06.49l4,4H384.79a4.31,4.31,0,0,0-2.26-2.38,11.79,11.79,0,0,0-3.66-1,26.49,26.49,0,0,0-4-.18c-1.31,0-2.36.06-3.18.06v-1.71Zm23.67,36.11.24,1.1a2.22,2.22,0,0,1-.42,1.47,3.87,3.87,0,0,1-1,.79c-.37.2-.75.43-1.16.67a3.42,3.42,0,0,0-1,.85v22.82c0,.57-.06,1.42-.18,2.56a15.64,15.64,0,0,1-.73,3.36,9.32,9.32,0,0,1-1.53,2.86,3.12,3.12,0,0,1-2.56,1.22l.12-1.1a3.62,3.62,0,0,1,.37-.79,4.39,4.39,0,0,1,.49-.79v-.86a1.48,1.48,0,0,0-.86-.73q-2.55,1-4.88,1.71a16.42,16.42,0,0,1-5,.73c-1.3,0-2.11-.26-2.44-.79a4.14,4.14,0,0,1-.55-2c0-.78-.06-1.59-.06-2.44a2.89,2.89,0,0,0-.85-2.14l-2.44-.12a5,5,0,0,0-.67.06,5.81,5.81,0,0,1-.8.06h-1a1.33,1.33,0,0,0-.79.31c-.29.2-.43.34-.43.42v6.59a2.17,2.17,0,0,1-.49.37l-.43.24a.58.58,0,0,1-.3.12,3.17,3.17,0,0,1-.92.55,3.27,3.27,0,0,1-.79.31h-.73c.32-.73.55-1.24.67-1.53a1.86,1.86,0,0,0,.18-.67,1.57,1.57,0,0,0-.12-.55,3.67,3.67,0,0,1-.12-1.16,4.11,4.11,0,0,0-2.2.61q-1,.61-1.95,1.35c-.65.48-1.3.93-1.95,1.34a4.14,4.14,0,0,1-2.2.61h-.49a9.56,9.56,0,0,1-1.4-.12l-1.59-.25a11.53,11.53,0,0,1-1.89-.49v-36.6a3.05,3.05,0,0,0,2.44,1h2.57l2.31-.12.86-.86a9.8,9.8,0,0,1-2-2q-.85-1.15-1.77-2.19a10.43,10.43,0,0,0-2-1.77,4.2,4.2,0,0,0-2.5-.74v-2.44a14.91,14.91,0,0,1,5.07.86q2.37.85,4.76,1.83c1.58.65,3.19,1.26,4.81,1.83a15.79,15.79,0,0,0,5.25.85h1a6.38,6.38,0,0,0,1.22-.12,10.79,10.79,0,0,0,1.46-.12l5.73-5.74h2.44ZM453.84,157a2.37,2.37,0,0,0,.85-.3l.86-.43,1.64-1.65,2.45-2.44,2.44-2.44a19.06,19.06,0,0,0,1.52-1.64,24.54,24.54,0,0,1,4.33,2.44q2.74,1.83,5.43,4a51,51,0,0,1,4.64,4.15c1.3,1.34,1.95,2.3,1.95,2.87a2.55,2.55,0,0,1-.92,2q-.91.79-1.95,1.59a12.37,12.37,0,0,0-1.95,1.89,4.63,4.63,0,0,0-.92,3v40.62a28.42,28.42,0,0,0,.55,5.62c.37,1.79.82,3.53,1.34,5.24s1.06,3.36,1.59,4.94,1,3.11,1.4,4.58a5.38,5.38,0,0,1-.3,1.16,6.51,6.51,0,0,1-.55,1.28c0,.08-.12.12-.37.12-.65,0-1.22-.55-1.7-1.65A19.32,19.32,0,0,1,475,227.9c-.33-1.63-.61-3.42-.86-5.37s-.45-3.8-.61-5.55l-.42-4.58a9.53,9.53,0,0,0-.43-2.44c-.49-.89-.86-1.3-1.1-1.22a1.56,1.56,0,0,0-.61.37c-.16.16-.29.22-.37.18a6.17,6.17,0,0,1-.36-1.77,6.08,6.08,0,0,1-2.38,1.16c-1,.29-2,.61-3,1a14.2,14.2,0,0,0-2.56,1.22,2.1,2.1,0,0,0-1.1,1.89,3.4,3.4,0,0,0,1.28,2.68c.85.73,1.81,1.49,2.87,2.26a18.3,18.3,0,0,1,2.87,2.62,5.56,5.56,0,0,1,1.28,3.78,3.43,3.43,0,0,1-.8,2.44,13.53,13.53,0,0,1-1.77,1.59,10.21,10.21,0,0,0-1.77,1.71,4.38,4.38,0,0,0-.79,2.8A2.7,2.7,0,0,0,466,235,6.47,6.47,0,0,0,469,236a2.73,2.73,0,0,0,1.52-.43,3.76,3.76,0,0,1,3.24-.12c.4.2.61.67.61,1.4a2.1,2.1,0,0,1-1,1.71c-.69.49-1.47,1-2.32,1.59a11.34,11.34,0,0,0-2.32,2.07,4.72,4.72,0,0,0-1,3.17.5.5,0,0,0,.12.37,3.33,3.33,0,0,0,.36.79,3.14,3.14,0,0,1,.37.79.66.66,0,0,1-.43.67,3.07,3.07,0,0,1-.91.25,13.26,13.26,0,0,1-1.47.06q-2.43,0-3.84-3.11a32.44,32.44,0,0,1-2.19-7.14,74.72,74.72,0,0,1-1.16-7.93c-.25-2.6-.41-4.43-.49-5.49-.08-.57-.18-1.58-.31-3s-.28-3-.49-4.7-.38-3.23-.54-4.69-.29-2.48-.37-3l-1.59-1.59h-8.9l-1.71,1.59a104.37,104.37,0,0,1-9.64,27.51,85.86,85.86,0,0,1-17.93,22.87,21.32,21.32,0,0,1-2.62,2.14,5.52,5.52,0,0,1-3.12,1.16h-.85a23.69,23.69,0,0,1,4.45-4.09,27.26,27.26,0,0,0,4.58-4.09v-.73c-.08-.08-.29-.32-.61-.73s-.67-.85-1-1.34a15.41,15.41,0,0,0-1-1.28,4.61,4.61,0,0,1-.61-.8v-.36a24.69,24.69,0,0,1,1.53-7.69c1-3,2.15-6.24,3.42-9.7s2.39-7,3.41-10.61a38.45,38.45,0,0,0,1.53-10.43l-.13-2.69-.85-.73c-.65.08-1.48.17-2.5.25a13.53,13.53,0,0,1-2.93-.07,5,5,0,0,1-2.44-1,3,3,0,0,1-1-2.5,8.68,8.68,0,0,1,.13-1.22c.08-.57.32-.86.73-.86h8.9l.86-1.22a15.15,15.15,0,0,0,.91-2.19,7.89,7.89,0,0,0,.37-2c0-.65.08-1.41.12-2.26s.1-2,.18-3.36a29.6,29.6,0,0,0,2.08,2.14,4.05,4.05,0,0,0,2.8,1.28,1.27,1.27,0,0,0,1.1-.49,2.64,2.64,0,0,0,.49-1.22,9,9,0,0,0,.12-1.46V190.2a1.93,1.93,0,0,0-.73-1.65,4.15,4.15,0,0,0-1.77-.73,9.79,9.79,0,0,0-2.19-.12c-.78,0-1.41.06-1.9.06v-9a2.34,2.34,0,0,1,1.53.55,13.19,13.19,0,0,1,1.34,1.28,8.44,8.44,0,0,0,1.47,1.28,3.17,3.17,0,0,0,1.89.55,4.12,4.12,0,0,0,1.83-.49,1.74,1.74,0,0,0,1-1.71c0-.24-.38-.61-1.16-1.09s-1.64-1-2.62-1.59-1.91-1.1-2.81-1.59a9.45,9.45,0,0,1-1.58-1,2.71,2.71,0,0,1-.79-.43c-.29-.2-.43-.34-.43-.43V163.6l-1.22-1.22h-9.76l-2.44-2.07h-39.9c-.08,0-.22-.1-.42-.31a1.93,1.93,0,0,1-.43-.55,6.92,6.92,0,0,0-.37-1.09,4.79,4.79,0,0,1-.36-1.35q-.12,0-.12-.36c0-.25,0-.37.12-.37a.49.49,0,0,1,.12-.36,1.48,1.48,0,0,0,.24-.37,2.17,2.17,0,0,1,.37-.49h19.52a5,5,0,0,0,1-1.1,22.81,22.81,0,0,0,1.4-1.83c.73-.89,1.42-1.74,2.07-2.56q.86-1,1.59-1.89a4.41,4.41,0,0,1,1.22-1.16.5.5,0,0,1,.37-.12,5.46,5.46,0,0,1,3.9,1.65,41.46,41.46,0,0,1,3.36,3.66,48.09,48.09,0,0,0,3.29,3.66A5.16,5.16,0,0,0,414.8,157Zm-81.25,35v-.86H375l.61-.06a4.52,4.52,0,0,1,1,0,3.88,3.88,0,0,1,1,.25.66.66,0,0,1,.49.67Zm3.17-18.67a.87.87,0,0,0-.3-.55c-.21-.2-.35-.3-.43-.3a2.05,2.05,0,0,0-1.34.49,1.48,1.48,0,0,0-.61,1.22A4.57,4.57,0,0,0,375.76,173.36ZM394.55,227l-.86-1.71a6.34,6.34,0,0,1-.73-.12,5.35,5.35,0,0,0-1-.12c-.17,0-.47,0-.92.06a7,7,0,0,0-1.34.25,4.2,4.2,0,0,0-1.22.54A1.23,1.23,0,0,0,388,227v18.67h6.59Zm-4.88-22h-.86v.73h.86Zm13.17,45.39a3.61,3.61,0,0,0-3.29,1.76,7,7,0,0,0-1.1,3.73,2.58,2.58,0,0,0,1.53-.61,7.26,7.26,0,0,0,1.4-1.47,11.38,11.38,0,0,0,1-1.77A4,4,0,0,0,402.84,250.47Zm6.71-24.28a4,4,0,0,0,1.83-.61,1.74,1.74,0,0,0,1.1-1.47.49.49,0,0,0-.12-.36,4.82,4.82,0,0,0-.73-.86,4.48,4.48,0,0,0-.86-.73q0-.12-.36-.12a4,4,0,0,0-1.83.61c-.73.41-1.1.9-1.1,1.46v.49a4,4,0,0,1,.85.8,4.12,4.12,0,0,0,.86.79Zm35.38-20.74a8.22,8.22,0,0,0-1-3.48,3,3,0,0,0-2.69-2,4.11,4.11,0,0,0-1.22.24,5.62,5.62,0,0,1-.61,4,16.83,16.83,0,0,1-2.31,2.86c-.9.9-1.73,1.79-2.51,2.69a5,5,0,0,0-1.15,3.41,3.65,3.65,0,0,0,1.7,3.3,25.53,25.53,0,0,0,2.63-2c1.1-.94,2.17-2,3.23-3.06a29.64,29.64,0,0,0,2.74-3.23A4.83,4.83,0,0,0,444.93,205.45Zm-10.61-5.25c.41,0,.61-.28.61-.85s-.2-.86-.61-.86-.61.29-.61.86S433.91,200.2,434.32,200.2Zm2.44-26.11c.08-.24,0-.36-.37-.36s-.44.12-.36.36a.37.37,0,1,0,.73,0Zm7.44-3.66a.49.49,0,0,0-.12-.36,1.48,1.48,0,0,0-.73-.86,1.69,1.69,0,0,0-.55.8,3,3,0,0,0-.31.91c0,.08.11.23.31.43a.83.83,0,0,0,.55.3,1.08,1.08,0,0,0,.73-.73A.71.71,0,0,0,444.2,170.43Zm10.13-8.54c1.79,0,3,.41,3.66,1.22a6.91,6.91,0,0,1,1.34,2.81c.24,1.06.49,2.07.73,3.05a2.65,2.65,0,0,0,1.95,1.95,3.51,3.51,0,0,0,.74-1.22,5.17,5.17,0,0,0,.12-1.22,7.27,7.27,0,0,0-1-3.72,11.48,11.48,0,0,0-2.68-3.11,16.32,16.32,0,0,0-3.54-2.2,9.13,9.13,0,0,0-3.72-.85,4.12,4.12,0,0,0-3.54,1.65,10.88,10.88,0,0,0-1.77,3.78,21.92,21.92,0,0,0-.67,4.33c-.08,1.46-.12,2.56-.12,3.29a25.47,25.47,0,0,0-.25,3.11c-.08,1.75-.16,3.75-.24,6s-.16,4.5-.24,6.77-.13,4.07-.13,5.37v1.34a4.79,4.79,0,0,0,.19,1.35c.12.4.46.61,1,.61a1.36,1.36,0,0,0,1.35-.92,1.41,1.41,0,0,1,1.46-.91l.85.12a1.88,1.88,0,0,1,.61.3,7.93,7.93,0,0,0,1,.55l1,.49a2.12,2.12,0,0,0,.61.24c0,.09.12.13.36.13s.37,0,.37-.13a.72.72,0,0,0,.61-.36,1.31,1.31,0,0,0,.24-.37v-31l-2.44-2.44ZM471.65,193a7.54,7.54,0,0,0-.36-2.25,8.17,8.17,0,0,0-1-2.14A6.47,6.47,0,0,0,468.6,187a3.83,3.83,0,0,0-2.19-.67q-.62,0-1.89,1.41a38,38,0,0,0-2.63,3.23,34,34,0,0,0-2.32,3.6,6.39,6.39,0,0,0-1,2.5,4.64,4.64,0,0,0,2.8-.79,16.12,16.12,0,0,0,2-1.71q.91-.92,1.77-1.71a2.91,2.91,0,0,1,2.07-.79,4.45,4.45,0,0,1,2.14.49A4.77,4.77,0,0,0,471.65,193Zm13.18,53.56c.32,1.47.55,2.73.67,3.78a34.25,34.25,0,0,1,.18,3.79,7.91,7.91,0,0,1-2.07,5.85,7.79,7.79,0,0,1-5.74,2.08,11.31,11.31,0,0,1-8.29-3.12,23.89,23.89,0,0,1-5.13-7.5,8.23,8.23,0,0,1,2.2-1.4,6.72,6.72,0,0,1,2.2-.31,5.36,5.36,0,0,1,3.47,1,6.55,6.55,0,0,1,1.95,2.62,10.55,10.55,0,0,1,.8,3.48,25.21,25.21,0,0,1,0,3.48c.08.65.51.95,1.28.91l1.52-.06q3.66,0,4.94-2.19a10.72,10.72,0,0,0,1.29-5.49,40.08,40.08,0,0,0-.49-6.23,38.67,38.67,0,0,1-.49-6.22,83.9,83.9,0,0,1,.49-9.15,86.49,86.49,0,0,0,.49-9.15l-.13-2.32-.85-.73a1.72,1.72,0,0,1,1.71-1.1Zm-13.91-72.47h-1a1.9,1.9,0,0,0,1,1.71Zm2.56,56.61a1,1,0,0,1-.55,1,2.9,2.9,0,0,1-2.31,0,1,1,0,0,1-.55-1,1.07,1.07,0,0,1,.55-1,2.31,2.31,0,0,1,2.31,0A1.07,1.07,0,0,1,473.48,230.7Zm3.17-68.32a1.89,1.89,0,0,0-.79-1.58,2.66,2.66,0,0,0-1.65-.61,1.28,1.28,0,0,0-1.09.48,3.34,3.34,0,0,0-.55,1.22,5.7,5.7,0,0,0-.19,1.47v1.22a9.71,9.71,0,0,0,2.63-.49C476.1,163.77,476.65,163.2,476.65,162.38Z"/></svg>