<svg id="Layer_1" data-name="Layer 1" xmlns="http://www.w3.org/2000/svg" viewBox="0 0 973.68 118.83"><defs><style>.cls-1{fill:#fff;}</style></defs><title>logo2</title><path class="cls-1" d="M116.39,76.25A3.49,3.49,0,0,0,114,77a6.45,6.45,0,0,0-1.53,2,9.58,9.58,0,0,0-.85,2.62,15,15,0,0,0-.24,2.5,9.79,9.79,0,0,0,.42,2.93c.29.89.59,1.77.92,2.62s.63,1.75.91,2.69a10.44,10.44,0,0,1,.43,3.11L114,100l-1.71-1.59a32.69,32.69,0,0,0-4.09,3.66c-.85,1-1.63,1.92-2.32,2.81a26.22,26.22,0,0,1-2.56,2.81,37.86,37.86,0,0,1-4.82,3.66,3.82,3.82,0,0,0-1,1.15,10.56,10.56,0,0,0-.61,1.29,11,11,0,0,1-5.74-3.24,40.67,40.67,0,0,1-5.42-6.71,83.71,83.71,0,0,1-5-8.72q-2.37-4.75-4.27-9.27t-3.35-8.36q-1.47-3.84-2.32-5.92a1.15,1.15,0,0,0-.3-.48c-.21-.25-.35-.37-.43-.37l-4.15-.85v-1a1.62,1.62,0,0,1-.85-.31,2.43,2.43,0,0,0-.92-.36.54.54,0,0,0-.61.36,4.5,4.5,0,0,0-.06,1.77H52.09v18.3L53,90.28a1.35,1.35,0,0,0,.61.12h1a60.66,60.66,0,0,0,10.86-1,61.34,61.34,0,0,1,11-1A5.05,5.05,0,0,1,74,92.54a26.12,26.12,0,0,1-5.61,3.11,49.68,49.68,0,0,1-6.46,2.19q-3.24.85-5,1.35a1,1,0,0,0-.18-1.1,1.33,1.33,0,0,0-1-.49h-.36a4.12,4.12,0,0,0-.86.79,4,4,0,0,1-.85.8l.85.85c-1.7,1-3.84,2.07-6.4,3.29s-5.21,2.38-7.93,3.48-5.35,2-7.87,2.75a23.35,23.35,0,0,1-6.22,1.09H24.77a7.94,7.94,0,0,0-.25-2.38c-.16-.44-.73-.67-1.71-.67v3.79c0,.08-.2.22-.61.42a8.21,8.21,0,0,1-1,.43,15.67,15.67,0,0,0-2.5,1.28c-1,.61-2.06,1.26-3.11,2a32.41,32.41,0,0,1-3,1.77,5.64,5.64,0,0,1-2.32.73H9.76a6.67,6.67,0,0,1-3-3.53,12,12,0,0,1-1.1-4.64,1.44,1.44,0,0,1,.55-1.1,4.6,4.6,0,0,1,1.28-.79A6.69,6.69,0,0,1,9,107.48a8.91,8.91,0,0,1,1.28-.12,3.6,3.6,0,0,1,3,1.16,11.49,11.49,0,0,0,2.25,2.13H16c.08,0,.23-.18.43-.55s.4-.77.61-1.22.38-.89.55-1.34.28-.79.36-1v-.74a4.84,4.84,0,0,1-2-.67c-.61-.36-1.18-.73-1.71-1.1s-1.05-.71-1.58-1a3.07,3.07,0,0,0-1.65-.49A2,2,0,0,0,9.7,103a17.54,17.54,0,0,0-1.4,1.28c-.49.49-1,1-1.53,1.4a3.5,3.5,0,0,1-1.89.8.71.71,0,0,1-.49.12q-.24,0-.24-.12L0,98.45V97.6a4.28,4.28,0,0,1,.85-.85,15.89,15.89,0,0,0,1.65-.13l2.44-.24,2.44-.24C8.15,96.06,8.7,96,9,96l1.16-.42c.53-.21.79-.35.79-.43V52.09c0-.08.16-.22.49-.42a7.52,7.52,0,0,1,.73-.43h.85c.65.08,1.83.2,3.54.37s3.52.34,5.43.55,3.72.36,5.43.48,2.89.19,3.54.19a1.46,1.46,0,0,1,.73.85.5.5,0,0,1,.12.37.69.69,0,0,1-.12.48,5,5,0,0,1-.55.8c-.28.36-.61.77-1,1.22s-.71.85-1,1.22a4.17,4.17,0,0,0-.61.79V91.87a2.84,2.84,0,0,0,.61.79,5.62,5.62,0,0,0,1,.91H31a6.52,6.52,0,0,0,1.1-.48,2.44,2.44,0,0,1,.85-.37V65c0-.08.16-.23.49-.43a1.67,1.67,0,0,1,.73-.31,4.09,4.09,0,0,1,.85.37,4.3,4.3,0,0,0,.86.37l.85.12c.41,0,.65,0,.73-.12l7.32-7.32a8.68,8.68,0,0,1,1.71-3.3c.81-1,1.63-1.93,2.44-2.87a25.36,25.36,0,0,0,2.2-2.92,6.33,6.33,0,0,0,1-3.48v-.37a4,4,0,0,0-.36-.85,5,5,0,0,0-.49-.85,1.77,1.77,0,0,1-.12-.74h4.76a4.34,4.34,0,0,1-.61,2.32q-.62,1-1.29,1.89c-.44.61-.87,1.26-1.28,2a5.16,5.16,0,0,0-.61,2.62c0,1.71,0,3.17.13,4.39A32.33,32.33,0,0,0,53,60.15a2.73,2.73,0,0,1,1.71-.31,1.7,1.7,0,0,1,.79.61,5.11,5.11,0,0,1,.55,1.1,1.89,1.89,0,0,0,1,1,4.24,4.24,0,0,0,1-1.16c.32-.53.67-1.08,1-1.65a8,8,0,0,1,1.16-1.46,1.83,1.83,0,0,1,1.34-.61,3.42,3.42,0,0,1,2.56,1.4A6.16,6.16,0,0,0,66.73,61h.37c.65,0,1-.2,1.16-.61a4.72,4.72,0,0,0,.18-1.34q0-.73-.3-3.84c-.21-2.08-.47-4.25-.8-6.53s-.69-4.31-1.09-6.1-.78-2.69-1.1-2.69H43.92l-.73,1.22h3.17a11.9,11.9,0,0,0-3.78,2.32c-1.06,1-2.06,1.91-3,2.81a25.84,25.84,0,0,1-2.87,2.38,5.54,5.54,0,0,1-3.29,1V39.41H3.29c-.24,0-.5-.21-.79-.63a9.09,9.09,0,0,1-.79-1.43c-.25-.54-.45-1-.61-1.5a3.2,3.2,0,0,1-.25-.93,1.47,1.47,0,0,1,.31-.81c.2-.29.38-.44.55-.44H64.29c.08,0,.23-.16.43-.48s.35-.57.43-.73.22-.79.43-1.63a9.8,9.8,0,0,0,.3-1.64,3,3,0,0,0,1.59.79,8.37,8.37,0,0,0,2,.12,14.44,14.44,0,0,0,2-.24,8.13,8.13,0,0,1,1.4-.19,3,3,0,0,0-.54-1.81A10.49,10.49,0,0,0,71,26.46,8.81,8.81,0,0,1,69.72,25a3.23,3.23,0,0,1-.55-1.88v-.36l4-4.12A7.49,7.49,0,0,0,71.49,17a3.92,3.92,0,0,0-2.32-.78,1.45,1.45,0,0,0-1.46,1.22,13.53,13.53,0,0,0-.49,2.8q-.12,1.59-.3,3.24a4.12,4.12,0,0,1-1,2.5,5.24,5.24,0,0,0-.3-1.16c-.21-.61-.35-1-.43-1.28s-.23-.41-.43-.74-.35-.48-.43-.48H13.91c-.08,0-.23-.27-.43-.8s-.35-.91-.43-1.16,0-.95-.12-1.89-.12-1.52-.12-1.77l27.94-.12L43.92,13a15.36,15.36,0,0,0,1-1.2c.48-.65,1-1.33,1.52-2.06L48,7.66a13.25,13.25,0,0,0,.85-1.2L49.23,6c.2-.21.34-.31.42-.31s.13-.12.37-.12A5.54,5.54,0,0,1,53.8,7.14a33.48,33.48,0,0,1,3.3,3.41A35.48,35.48,0,0,0,60.33,14a5.19,5.19,0,0,0,3.6,1.52h.36a3,3,0,0,0,.55-.85,2.52,2.52,0,0,0,.31-.85V2.44l.73-.85h3.66c2.11,0,4.07,0,5.86.12a43.32,43.32,0,0,1,6,.73l-.85.85a1.1,1.1,0,0,0,.73.74,4.11,4.11,0,0,0,1,.12,2.21,2.21,0,0,0,1.22-.31c.32-.2.44-.67.36-1.4a8.69,8.69,0,0,1,1.83-.06,7.4,7.4,0,0,1,2.14.43,5.16,5.16,0,0,1,1.77,1,2.43,2.43,0,0,1,.73,1.89,22,22,0,0,1,7.63,2A32.53,32.53,0,0,1,103,10.92c1.42,1.1,2.7,2.09,3.84,3a7.45,7.45,0,0,0,3.78,1.58l.13,2A4.8,4.8,0,0,1,110.1,20a23,23,0,0,1-1.46,2.13c-.53.69-1,1.39-1.46,2.08a4,4,0,0,0-.67,2.25,2.33,2.33,0,0,0,.79,1.65,12.57,12.57,0,0,0,1.89,1.53l2.2,1.46a8,8,0,0,1,1.7,1.46h-.85a5.12,5.12,0,0,0-.79-.48,3.13,3.13,0,0,0-.8-.37h-.36a3.92,3.92,0,0,0-1.89.49,14.26,14.26,0,0,0-1.83,1.16,13.33,13.33,0,0,1-1.89,1.16,4.7,4.7,0,0,1-2.08.48,5.81,5.81,0,0,1-3-.73c-.81-.49-1.71-1.05-2.68-1.71a1.77,1.77,0,0,0-.12.74A3.62,3.62,0,0,0,97.23,35a13.12,13.12,0,0,0,1.16,1.77,18.15,18.15,0,0,0,1.41,1.59l1.09,1.1H86.5q0,6.71.67,13.9a80.7,80.7,0,0,0,2.56,14,57.48,57.48,0,0,0,5.37,13,38.53,38.53,0,0,0,9.09,10.79h.73a7,7,0,0,0,1-.85,4.88,4.88,0,0,0,.73-.85L114,75.64h2.44ZM9.88,36.23a.69.69,0,0,0-.12-.48A1.43,1.43,0,0,0,9,36.6a.5.5,0,0,0-.12.37.69.69,0,0,0,.12.48,1.43,1.43,0,0,0,.73-.85A.5.5,0,0,0,9.88,36.23ZM13.3,96.62c-.9,0-1.47.27-1.71.8a4.88,4.88,0,0,0-.37,2,1.66,1.66,0,0,0,1.65-.85A4.25,4.25,0,0,0,13.3,96.62Zm-.25-25.86H11.71a6.38,6.38,0,0,0,.67,2.74,2.32,2.32,0,0,0,2.26,1.41,2.08,2.08,0,0,0,.85-.12Zm.86-7.32a4.33,4.33,0,0,0-.86-.85,1.07,1.07,0,0,0-.73.67,3.74,3.74,0,0,0-.3,1.16c0,.4-.06.79-.06,1.16v.67a1.64,1.64,0,0,0,1.46-.74,3,3,0,0,0,.49-1.7ZM27,78a1.27,1.27,0,0,0-.67-1.22,2.82,2.82,0,0,0-1.4-.37,8.93,8.93,0,0,0-1.22.37c-.73.24-1.53.53-2.38.85s-1.63.61-2.32.86-1,.4-1,.48a10,10,0,0,0,5.37,1.59A6,6,0,0,0,25.68,80,2,2,0,0,0,27,78ZM24.52,59.05a.71.71,0,0,0-.12-.49,18.94,18.94,0,0,0-.3-2.44c-.21-1.22-.35-2-.43-2.44l-.67.61a14.26,14.26,0,0,0-1.1,1.1c-.37.41-.71.81-1,1.22a1.88,1.88,0,0,0-.49,1.1,2.46,2.46,0,0,0,.8,1.77,2.35,2.35,0,0,0,1.64.79A2.69,2.69,0,0,0,24,60,.94.94,0,0,0,24.52,59.05Zm9.64-7a1,1,0,0,1,.85.55,4,4,0,0,1,.55,1.28,8.37,8.37,0,0,1,.25,1.47c0,.49.06.85.06,1.1s0,.75-.06,1.28a8.32,8.32,0,0,1-.25,1.52A3.19,3.19,0,0,1,35,60.51a1,1,0,0,1-.85.49h-.73V52.09Zm7.32,30L36.6,77.23a4.45,4.45,0,0,1-.79.85,4.29,4.29,0,0,0-.8.85c-.08,0-.12.13-.12.37s.33.63,1,1.16S37.23,81.52,38,82s1.51,1,2.2,1.41a4.18,4.18,0,0,0,1.28.61Zm.85-13.79H40.5a4.67,4.67,0,0,0,.37,1.83,1.42,1.42,0,0,0,1.46.85Zm8.42-30.13a7,7,0,0,0-.18-1.35,1.35,1.35,0,0,0-.92-1.09,1.36,1.36,0,0,0-.91,1.09,7,7,0,0,0-.18,1.35Zm26.6,17.93H70v1.59c0,.08.4.22,1.22.42s1.46.35,2,.43l4.15.24Zm6.83,9.52a3.36,3.36,0,0,0-1.4.3,1.15,1.15,0,0,0-.67,1.16.51.51,0,0,0,.12.37,3.29,3.29,0,0,0,1.34-.55A1.46,1.46,0,0,0,84.18,65.64Zm1.46-11.72c0-.89-.28-1.46-.85-1.7a4.81,4.81,0,0,0-2-.37,1.71,1.71,0,0,0,.79,1.65A4.28,4.28,0,0,0,85.64,53.92ZM98.45,23.06A3.28,3.28,0,0,0,98,21.47a3.4,3.4,0,0,0-1.1-1.22,2.24,2.24,0,0,0-1.22,1.47,14.17,14.17,0,0,0-.49,1.7c-.33-.89-.79-2.17-1.4-3.84a49.47,49.47,0,0,0-2.14-4.94,20.48,20.48,0,0,0-2.8-4.27A4.54,4.54,0,0,0,85.4,8.54V33.18c0,.09.22.23.67.43a9.43,9.43,0,0,0,1,.43h.36a4.66,4.66,0,0,0,3.18-1.34,23.79,23.79,0,0,0,2.8-3.12Q94.8,27.83,96,26.05a10.51,10.51,0,0,1,2.44-2.63Zm8.18,94.18a23.79,23.79,0,0,1-2.56-.12,5.83,5.83,0,0,1-2.32-.85,3.73,3.73,0,0,1,3.29-1.59,3.93,3.93,0,0,1,2.2.73,7.5,7.5,0,0,1,1.83,1.71Zm8.05-84.06a19.45,19.45,0,0,1,1.89,1.5,2.39,2.39,0,0,1,.67,1.86,2.86,2.86,0,0,1-.12.87L114,33.18Zm.85,70.89a2.67,2.67,0,0,1-.73-1.1,5.89,5.89,0,0,1-.12-1.34v-.74a2.57,2.57,0,0,1,.73,1.1,6,6,0,0,1,.12,1.34Zm.86,2.44c-.41,0-.61-.27-.61-.8s.2-.79.61-.79.61.26.61.79S116.79,106.51,116.39,106.51Zm.73,4.88c-.08.24-.14.16-.18-.25s-.06-.85-.06-1.34,0-.94.06-1.34.1-.49.18-.25a3.6,3.6,0,0,1,0,3.18Z"/><path class="cls-1" d="M122,31.23c0-.65.45-1,1.34-1.1s1.55-.12,2-.12a22.6,22.6,0,0,1,6.41,1,23.58,23.58,0,0,1,6.4,3A18.94,18.94,0,0,1,143,38.67a10.14,10.14,0,0,1,2,6.1,9.75,9.75,0,0,1-2.2,6.35,8.68,8.68,0,0,1-10.61,1.52,9.48,9.48,0,0,1-3-3,13.25,13.25,0,0,1-1.71-4.08,18.64,18.64,0,0,1-.55-4.46v-.48A18.94,18.94,0,0,1,130.11,39a15.92,15.92,0,0,1,3.36-.85v-.37c0-.65-.25-1-.73-1.16a5.71,5.71,0,0,0-1.35-.18,4.12,4.12,0,0,0-2.74,1,10.68,10.68,0,0,1-2.5,1.59c-.17-.24-.41-.63-.73-1.16s-.67-1.1-1-1.71-.69-1.17-1-1.71a8.74,8.74,0,0,1-.55-1.15l-.42-.86a4.32,4.32,0,0,0-.43-.73ZM235.09,100c-.24,0-.61.39-1.09,1.16s-1.06,1.63-1.71,2.56a31.85,31.85,0,0,1-2.14,2.75,5.18,5.18,0,0,1-2.38,1.7c-1.46.41-2.52.71-3.17.92s-1,1.12-1,2.74a4.33,4.33,0,0,0,.12,1.22,37.42,37.42,0,0,1,3.41-2.25,7.54,7.54,0,0,1,3.91-1.16q0,1-.12,2.19a11.15,11.15,0,0,1-.55,2.44,5.74,5.74,0,0,1-1.16,2,2.42,2.42,0,0,1-1.83.79,15.91,15.91,0,0,1-8.85-2.68,35,35,0,0,1-7.44-6.65,55.77,55.77,0,0,1-5.92-8.48q-2.55-4.52-4.27-8.18h-1.58c-1,1.47-2.06,3-3.23,4.46a48.87,48.87,0,0,1-3.85,4.33,39.13,39.13,0,0,1-4.39,3.78,24.86,24.86,0,0,1-4.88,2.81,3.12,3.12,0,0,1-.73-1.35,7.6,7.6,0,0,1-.12-1.46,3.43,3.43,0,0,1,1.4-2.74c.93-.78,2-1.63,3.17-2.57a15.17,15.17,0,0,0,3.17-3.47,9.4,9.4,0,0,0,1.41-5.37,9.58,9.58,0,0,0-.43-3c-.29-.85-.59-1.71-.92-2.56s-.63-1.75-.91-2.69a10.89,10.89,0,0,1-.43-3.23h-1.46c-.17,0-.39.9-.67,2.68s-.57,3.77-.86,5.92-.53,4.19-.73,6.1a15.89,15.89,0,0,0-.18,3.23,48.1,48.1,0,0,0-7.69,7.45,69.49,69.49,0,0,1-6.28,6.83,27.4,27.4,0,0,1-7.56,5q-4.34,2-11.66,1.95a5.61,5.61,0,0,1-2.56-.55,20.52,20.52,0,0,1-2.13-1.22c-.69-.45-1.37-.85-2-1.22a4.22,4.22,0,0,0-2.07-.55,1.88,1.88,0,0,0-1.65.8,9.9,9.9,0,0,0-1,1.77c-.29.65-.57,1.23-.86,1.77a1.38,1.38,0,0,1-1.28.79,7.25,7.25,0,0,1-5.67-2.56,8.3,8.3,0,0,1-2.26-5.62,35.67,35.67,0,0,1,.49-6.28q.48-2.75,1.22-6.77c.57.41,1,.49,1.4.24a2.06,2.06,0,0,0,.8-1.09,6.59,6.59,0,0,0,.3-1.59c0-.57.06-1,.06-1.22a5.85,5.85,0,0,0-1.83-4.27,27.66,27.66,0,0,0-4-3.29c-1.43-1-2.75-1.89-4-2.75a3.5,3.5,0,0,1-1.83-2.74,4.33,4.33,0,0,1,.12-1.22,13.11,13.11,0,0,0,7.38-1.83A15.74,15.74,0,0,0,134.87,73a39.17,39.17,0,0,0,3.3-6.78,80.65,80.65,0,0,1,3.35-7.62c.49-.89,1.18-2.3,2.07-4.21s1.91-4.07,3-6.47,2.32-4.94,3.54-7.62,2.38-5.23,3.48-7.63,2.09-4.55,3-6.46,1.54-3.31,1.95-4.21l-3.17-.85h-1.71a13.69,13.69,0,0,1-3.84,4,10.15,10.15,0,0,1-5.07,1c-1.7,0-3.56-.94-5.55-2.81a39.9,39.9,0,0,1-5.55-6.53,51.24,51.24,0,0,1-4.27-7.38A14.73,14.73,0,0,1,127.73,4c0-.08.1-.23.31-.43a.85.85,0,0,1,.55-.31l4-.12a30.11,30.11,0,0,1,6.59.73,25.47,25.47,0,0,1,6.22,2.23,22.23,22.23,0,0,1,5.31,3.81,17.93,17.93,0,0,1,3.84,5.43q3.42.49,5.62.67c1.46.13,3.17.19,5.12.19h1.22a17.45,17.45,0,0,0,2-.12c.69-.08,1.32-.19,1.89-.31s.86-.26.86-.42V1.46h2.44c1.22,0,2.6,0,4.15.06s3.17.11,4.88.19,3.27.2,4.69.36a20.26,20.26,0,0,1,3.54.68c.94.28,1.4.63,1.4,1a5.39,5.39,0,0,0-4.14,1.45,8.17,8.17,0,0,0-1.9,3.56,18,18,0,0,0-.54,4.47v4.19q.12,0,.24.18t.24.18a9.67,9.67,0,0,0,1.29-1.22l1.15-1.22h10.13V1.46l2.32-.06,4.27-.12c1.62,0,3.33,0,5.12,0s3.42.14,4.88.31a13.17,13.17,0,0,1,3.66.85q1.47.62,1.47,1.59c0,1.14-.12,1.81-.35,2a7.34,7.34,0,0,0-.75.79,5.26,5.26,0,0,0-.75,1.95,26.67,26.67,0,0,0-.35,5.37,2.94,2.94,0,0,0,2.24-1,15.12,15.12,0,0,0,1.69-2.26c.52-.85,1.09-1.71,1.69-2.56a5.48,5.48,0,0,1,2.24-1.89c.48-.17,1.21.12,2.17.85a33.5,33.5,0,0,1,3,2.62c1.05,1,2,2,2.86,2.93s1.4,1.53,1.65,1.77c-1.39-.32-2.3-.2-2.75.37a4.34,4.34,0,0,0-.85,2.13c-.12.86-.23,1.67-.31,2.44s-.4,1.16-1,1.16H219L217.28,22v5.61l.86.12a4.8,4.8,0,0,1,.78-.48,3.14,3.14,0,0,1,.79-.37h.85c.32.16,1.06.65,2.23,1.46l2.6,1.83c.73.49,1.63,1.14,2.72,2l3.21,2.37c1.05.78,1.94,1.45,2.68,2s1.09.89,1.09,1V38.8l-1.22.06a4.27,4.27,0,0,0-1.22.18c-.16,0-.34.12-.55.37a1.15,1.15,0,0,0-.3.48V57a1.76,1.76,0,0,0-.73-.55,2.4,2.4,0,0,0-.86-.3,11.63,11.63,0,0,0-1.28.12l-2,.25-1.95.24a7.94,7.94,0,0,0-1.28.24,4.91,4.91,0,0,0-1,1.53,5.06,5.06,0,0,0-.67,1.65c0,.24.77.75,2.32,1.52s3.27,1.71,5.18,2.81A43.35,43.35,0,0,1,234.73,68c1.54,1.22,2.32,2.44,2.32,3.66H236a12.45,12.45,0,0,0-1.28-1l-2-1.47c-.69-.53-1.36-1-2-1.46l-1.34-.92a9.45,9.45,0,0,0-1.28-1c-.61-.41-1-.65-1.16-.73h-.73a7.59,7.59,0,0,0-.79,2.68c-.05.73-.07,1.63-.07,2.68v1.9a2.48,2.48,0,0,0,.86,1.76l1.64,1.28c.78.61,1.59,1.27,2.44,2l2.44,1.95a19.89,19.89,0,0,1,1.53,1.28c.41.33.89.75,1.46,1.28s1.1,1.06,1.59,1.59l1.83,2v1.46L226.19,76.49h-1.71a14.52,14.52,0,0,0,1,2.87c.44.94.91,1.85,1.4,2.75a18.49,18.49,0,0,1,1.22,2.74,9.19,9.19,0,0,1,.49,3H214.11a1.42,1.42,0,0,0-.61-1.34,2.64,2.64,0,0,0-1.4-.37,7.4,7.4,0,0,0-1.65.19,7,7,0,0,1-1.34.18,5.6,5.6,0,0,0,2.38,4.63,20.64,20.64,0,0,0,5.85,3.05,44.1,44.1,0,0,0,7.63,1.9c2.76.44,5.3.81,7.62,1.09s4.27.51,5.86.67,2.38.37,2.38.61V100ZM130.17,81.37q.12-.12-.42-.24a5.8,5.8,0,0,0-1.22-.12,11.18,11.18,0,0,0-1.22.06c-.37,0-.51.14-.43.3a3.84,3.84,0,0,0,3.29,0Zm5.13-.85a5.57,5.57,0,0,0-.25-1.59,1.13,1.13,0,0,0-1.22-.85h-.36a5.1,5.1,0,0,0-1.22,1,2.07,2.07,0,0,0-.73,1.46ZM184.71,61h-7.32a4.89,4.89,0,0,1-1.65,2.56,11.9,11.9,0,0,1-2.93,1.83,14.14,14.14,0,0,1-3.41,1,18.93,18.93,0,0,1-3.11.3,4.38,4.38,0,0,1-2-.42,4.52,4.52,0,0,0-2.07-.43,9.62,9.62,0,0,0-1.65.12,4.07,4.07,0,0,0-1.52.73V39.65a4.24,4.24,0,0,0-1.22.18,1.32,1.32,0,0,0-.86.8l-8.17,25.25c-.16.57-.43.87-.79.91l-1.1.13a2.08,2.08,0,0,0-1,.36q-.42.31-.42,1.53a1.68,1.68,0,0,0,.24,1,1.72,1.72,0,0,0,.61.49,2,2,0,0,1,.61.49,1.71,1.71,0,0,1,.24,1,22.5,22.5,0,0,1-.85,6.1,22.93,22.93,0,0,0-.85,6.22,16.88,16.88,0,0,0,.79,5.25q.79,2.43,1.71,4.94t1.7,5a17.45,17.45,0,0,1,.8,5.31c0,1.54,0,3-.06,4.27a14.45,14.45,0,0,1-.8,4.14,1.15,1.15,0,0,0,.68.74,3.28,3.28,0,0,0,.91.12,2.08,2.08,0,0,0,.85-.12q2.56-1.11,7.2-3.48a88.61,88.61,0,0,0,9.21-5.49,47.75,47.75,0,0,0,7.93-6.65q3.36-3.54,3.36-7.08a9,9,0,0,0-.12-1.28c-.09-.52-.33-.79-.74-.79H153.72c-.08,0-.22-.16-.43-.49a1.62,1.62,0,0,1-.3-.73,5.81,5.81,0,0,1,.06-1.83q.18-1.47.18-1.83h28.18a2,2,0,0,0,1.83-1.28A9,9,0,0,0,184,80a20.22,20.22,0,0,0,.12-3q-.06-1.4-.06-1.65h-8.42c-.08,0-.22-.16-.43-.48a1.65,1.65,0,0,1-.3-.74,7.66,7.66,0,0,1-.25-1.28c-.08-.61-.12-1-.12-1.16h-5v3.18h-11a1.92,1.92,0,0,1-1.89-1.29,6,6,0,0,1-.55-2.37v-.37a7.52,7.52,0,0,1,.43-.73c.2-.33.34-.49.42-.49h27.7ZM158.6,87c.08-.25,0-.37-.37-.37s-.44.12-.36.37a.37.37,0,0,0,.73,0Zm12.2-65H161a4.58,4.58,0,0,1,1.59,3.17c0,1.06,0,2,.06,2.87a2.89,2.89,0,0,0,1,2.13c.65.57,2.2.86,4.64.86h1.34c.73,0,1.1-.29,1.1-.86Zm40.75,8.17V27.45c-.65,0-1.45,0-2.38-.06s-1.91-.12-2.93-.24a18.33,18.33,0,0,1-2.93-.61,6.5,6.5,0,0,1-2.38-1.29v4.88h5.25c0,.9-.39,1.41-1.16,1.53a17.2,17.2,0,0,1-2.62.18,12.78,12.78,0,0,1-1.89-.18c-.78-.12-1.16-.63-1.16-1.53v-9H189.1v7.32c0,.73-.67,1.32-2,1.76a29.64,29.64,0,0,1-4.52,1.1c-1.66.29-3.27.53-4.82.73a13.16,13.16,0,0,0-2.8.55l.73.74h36.6a5.47,5.47,0,0,0,1.1-.92,7.94,7.94,0,0,0,1.34-1.52,1.09,1.09,0,0,0,.37-.74ZM175.68,109.8a2.26,2.26,0,0,1,1.22-1.46,5.22,5.22,0,0,1,1.71-.25,4.37,4.37,0,0,1,1.22.12,3.74,3.74,0,0,1-3.3,1.59Zm9-69.17h-7.32V55.27h7.32ZM197,71.37q0-3-3.29-3.05c-.57,0-1.24,0-2-.06a21.11,21.11,0,0,0-2.25,0,6.15,6.15,0,0,0-2,.43,1.83,1.83,0,0,0-1.16,1.22c.82,2,1.77,3.17,2.87,3.66a10.22,10.22,0,0,0,4.09.73c.16,0,.61,0,1.34-.12s1.22-.13,1.46-.13a1.21,1.21,0,0,0,.92-1.22C197,72.18,197,71.7,197,71.37Zm4.76,17.69a1.61,1.61,0,0,0-1.1-1.71,6.64,6.64,0,0,0-2.07-.36h-1.41c-.77,0-1.16.28-1.16.85a3.07,3.07,0,0,0,.68,1.46c.44.66.87,1,1.28,1h.48l3.3-.85Zm-.86-10.13c.25-.08.37-.22.37-.42s-.12-.35-.37-.43-.36,0-.36.37S200.69,78.93,200.93,78.93Zm13.79,4.88c.24,0,.69-.3,1.34-.91A19.75,19.75,0,0,0,218,80.76a21.65,21.65,0,0,0,1.71-2.44,4.09,4.09,0,0,0,.73-1.83.75.75,0,0,0-.85-.85H205a1.48,1.48,0,0,0-.37.24.73.73,0,0,0-.36.61,7.58,7.58,0,0,0-1,3.54q-.06,1.83-.06,3.78Zm-1.59-41.48-1.58-1.7h-7.32v13.9c0,.09.2.23.61.43a2.26,2.26,0,0,0,1,.31,4.15,4.15,0,0,0,1.47.12h3.23a2.28,2.28,0,0,0,1-.12l1.58-1.59ZM205,8.17c.41,0,.61-.28.61-.85s-.2-.85-.61-.85-.61.28-.61.85S204.55,8.17,205,8.17Zm11.47,57.71-.86-.85a3.91,3.91,0,0,1-.85-.92c-.33-.44-.63-.89-.91-1.34s-.55-.85-.8-1.22-.49-.55-.73-.55H205v8.17h9a2.11,2.11,0,0,0,1.71-1,3.29,3.29,0,0,0,.73-2Zm1.71,19.52h-.86v.85h.86Zm8.17-41.85a3.44,3.44,0,0,0-.49-1.95,17,17,0,0,0-1.34-1.71,3.92,3.92,0,0,0-.43.74,2.37,2.37,0,0,0-.3.85,1.71,1.71,0,0,0,.79,1.65A3.73,3.73,0,0,0,226.31,43.55Zm1.46-9.39a2,2,0,0,0-.85-.85h-.37a1.73,1.73,0,0,0-1.7,1,4.27,4.27,0,0,0-.49,1.95,4.33,4.33,0,0,0,.12,1.22Zm3.3,8.91h-1.71a1.72,1.72,0,0,0,1.71,1.09ZM239.12,17c.41,0,.61.26.61.79s-.2.79-.61.79-.61-.24-.61-.73h-.12c-.41,0-.61-.28-.61-.85h-.25c-.57,0-.77-.29-.61-.86h-.24c-.41,0-.61-.26-.61-.79s.2-.79.61-.79c.57,0,.77.28.61.85h.24c.41,0,.61.25.61.73h.25c.4,0,.61.29.61.86Z"/><path class="cls-1" d="M363.56,24.4,362,26.47H336.72l-1.59,1.21c.17,0,.47.23.92.67s.67.75.67.91a1.52,1.52,0,0,0-.37.6,6,6,0,0,0-.24.55,1.38,1.38,0,0,0-.12.42c-.17.24-.45.67-.86,1.27a8.53,8.53,0,0,1-.85,1.15v8.11h3.29L344,34.89c.08-.08.32-.12.73-.12a7.52,7.52,0,0,1,3.36,1,25.46,25.46,0,0,1,3.66,2.31A37.54,37.54,0,0,1,355,40.82,27.17,27.17,0,0,1,357.09,43a5.8,5.8,0,0,0-2.56,1.25l-1.89,1.67a15.45,15.45,0,0,1-2,1.5,5.55,5.55,0,0,1-2.93.68,5.67,5.67,0,0,1-2.56-.49,5.22,5.22,0,0,0-2.32-.49c-.24,0-.37,0-.37.12q-1.21.85-1.89,1.41a2.16,2.16,0,0,0-.67,1.77,7.39,7.39,0,0,0,.73,1.64c.49.94,1,2,1.65,3s1.2,2.1,1.77,3,1,1.34,1.22,1.34a4.1,4.1,0,0,0,1.83-.42,4.24,4.24,0,0,1,2-.43,3,3,0,0,1,2.56,1.16,6.67,6.67,0,0,1,1.16,2.8,18.21,18.21,0,0,1,.31,3.42v2.87a4.56,4.56,0,0,1-1,2.93,15.36,15.36,0,0,1-2.32,2.31q1.59,2.2,2.87,4a7.41,7.41,0,0,1,1.28,4.39,10.87,10.87,0,0,1-.49,3.36,10.65,10.65,0,0,0-.48,3.23c0,.24,0,.61.06,1.1a9.26,9.26,0,0,0,.24,1.46,6.41,6.41,0,0,0,.49,1.34,1,1,0,0,0,.91.61,2.4,2.4,0,0,0,.86-.3,1.68,1.68,0,0,0,.73-.55,15.85,15.85,0,0,1-5.8,7.69,15.42,15.42,0,0,1-9.21,2.92h-2.8a8.26,8.26,0,0,1-1.1-3.66q-.12-2-.12-3.9a18.78,18.78,0,0,0-.37-3.78,6.74,6.74,0,0,0-1.71-3.3.49.49,0,0,0-.36-.12.71.71,0,0,0-.49.12l-.73.37a1.62,1.62,0,0,0-.49.37v23.66c0,1.06-.87,1.87-2.62,2.44a33.2,33.2,0,0,1-5.86,1.29,56.34,56.34,0,0,1-6,.48l-3.29.06V49.9a4.69,4.69,0,0,0-2.32,1,30.42,30.42,0,0,0-2.87,2.2,20.39,20.39,0,0,0-2.44,2.5,3.94,3.94,0,0,0-1,1.77c0,.24,0,.37.12.37a2.08,2.08,0,0,0,.36,1,2.62,2.62,0,0,1,.37.73h.85c.08-.16.35-.58.8-1.28s.71-1.07.79-1.16a1.17,1.17,0,0,1,.85-.36V73.44c-1.3,0-2.78,0-4.45-.12a12.48,12.48,0,0,1-4.45-1,2.72,2.72,0,0,0-.12.85v.43a.59.59,0,0,0,.12.42,9.6,9.6,0,0,0,.61,1l1,1.46,1,1.47c.32.49.53.81.61,1h.85a2.85,2.85,0,0,1,.74-.36c.4-.16.83-.33,1.28-.49s.87-.32,1.28-.49a2.9,2.9,0,0,0,.73-.36,2.71,2.71,0,0,1,.85-.13V98.45a3.24,3.24,0,0,1-1.77,2.81,16.37,16.37,0,0,1-4.08,1.77,26.24,26.24,0,0,1-4.64.91c-1.54.17-2.68.25-3.41.25h-1.41c-.61,0-.91,0-.91-.12l-1.22-.74V57.1a3.1,3.1,0,0,1-.61-.13c-.33-.08-.53-.08-.61,0-.49.17-.9.29-1.22.37a2.58,2.58,0,0,0-.86.37v44.77a13.59,13.59,0,0,1-1.58,6.65A15,15,0,0,1,284.2,114a19.75,19.75,0,0,1-5.92,3,22.21,22.21,0,0,1-6.71,1,5.3,5.3,0,0,1-.85-.06c-.25,0-.45-.3-.61-.79q-.25-3.3-.61-5.61a14.31,14.31,0,0,0-1.28-4.15,11.32,11.32,0,0,0-2.63-3.36,26.67,26.67,0,0,0-4.51-3.11V100a4.17,4.17,0,0,1,.12-1,.86.86,0,0,1,.73-.61h8.18a7.86,7.86,0,0,0,1-.42c.41-.2.61-.35.61-.43V73.2c0-.57-.36-.85-1.09-.85h-1.35c-.89,0-1.75,1.09-2.56,3.29s-1.71,5-2.68,8.3-2,6.93-3.17,10.79a89,89,0,0,1-3.91,10.8,33.56,33.56,0,0,1-5,8.3,8.23,8.23,0,0,1-6.34,3.29,1.41,1.41,0,0,1-1.59-1.59,15.21,15.21,0,0,1,.43-3.17c.28-1.3.61-2.62,1-4s.74-2.57,1.1-3.66.63-1.85.79-2.26a.51.51,0,0,1,.37-.12.73.73,0,0,1,.49.12l3.17,3.29h.12a.39.39,0,0,0,.25-.12l.24-.24a4.06,4.06,0,0,0-1.16-2.75,6.24,6.24,0,0,0-2.62-1.77L248,98.82a54,54,0,0,1,.48-7.14c.33-2.4.74-4.77,1.22-7.13a6.21,6.21,0,0,0,3.05-2c.74-.89,1.45-1.81,2.14-2.74a17.73,17.73,0,0,1,2.38-2.62,6.93,6.93,0,0,1,3.78-1.59V70.76c.08-.16.24-.57.49-1.22a5.32,5.32,0,0,0,.36-1.22,3.71,3.71,0,0,0-.3-.79,1.76,1.76,0,0,0-.55-.8c-.33-.4-.75-.89-1.28-1.46s-1-1.1-1.53-1.59-.93-.91-1.34-1.28a2.67,2.67,0,0,0-.73-.55h-1c0,1.14,0,2.53.13,4.15a31.8,31.8,0,0,1-.13,4.88,12.23,12.23,0,0,1-1.28,4.45,5.42,5.42,0,0,1-3.35,2.75v-75a15.77,15.77,0,0,1,4.94.79c1.59.53,3.17,1.14,4.76,1.83S263.46,7,265,7.5a15.55,15.55,0,0,0,4.95.8l1.7-.13,6.47-6.58h.73a5.51,5.51,0,0,1,2.56.79,21.12,21.12,0,0,1,2.81,1.83c.89.69,1.69,1.34,2.38,2s1.12,1,1.28,1.16a.5.5,0,0,1,.12.37.69.69,0,0,1-.12.48,1.1,1.1,0,0,1-.73.74v6.58l-.86.74a2.44,2.44,0,0,1-1,.18q-.92.06-1.41.06a22,22,0,0,1-3.78-.3,9.61,9.61,0,0,1-3.54-1.53.5.5,0,0,0-.12.37.69.69,0,0,0,.12.48c.08.09.39.51.92,1.28s1.12,1.61,1.77,2.51,1.26,1.7,1.83,2.44.93,1.09,1.1,1.09a7.51,7.51,0,0,0,3.35-.55A3.07,3.07,0,0,0,287,20.74a13,13,0,0,0,.74-2.32,15.46,15.46,0,0,1,1-2.93,5.2,5.2,0,0,1,1.22-1.7c.41-.33.8-.61,1.16-.86a6.5,6.5,0,0,0,1-.79,3.17,3.17,0,0,0,.67-1.53,3.94,3.94,0,0,1,1,2.44,2.31,2.31,0,0,1-.55,1.59A12.25,12.25,0,0,1,292,15.8,10.39,10.39,0,0,0,290.79,17a2.44,2.44,0,0,0-.55,1.71,9.27,9.27,0,0,0,.49,2.68,2,2,0,0,0,2.07,1.59q1.59,0,1.71-1.35H314a1.88,1.88,0,0,0,.36-.48l.37-.74a10.14,10.14,0,0,0,.55-1,3,3,0,0,0,.3-.73V3.29l.86-.85,3.78-.12q4.51,0,8.11.18c2.4.12,5.19.39,8.36.79.89-.16,1.42,0,1.59.55a5,5,0,0,1,.24,1.41,3.74,3.74,0,0,1-.85,2.62,11,11,0,0,1-2.57,1.89V23.55a1.45,1.45,0,0,0,.49,1.22,2.72,2.72,0,0,0,1.1.48,4.17,4.17,0,0,0,1.28.07,9.73,9.73,0,0,1,1-.07c.24,0,.61,0,1.1.07a5.53,5.53,0,0,0,1.46-.07,2.79,2.79,0,0,0,1.22-.48,1.31,1.31,0,0,0,.49-1.1q0-3.3-3.3-3.3l2.44-3.29.86-.85h.36a8,8,0,0,1,5,1.4,18,18,0,0,1,3.17,3.11,33.93,33.93,0,0,0,2.74,3.11,5,5,0,0,0,3.72,1.4,4.79,4.79,0,0,0,2.38-.42,4.13,4.13,0,0,0,1.28-2ZM266,44.65a1.69,1.69,0,0,0-.73.12,4.3,4.3,0,0,0-.86.37,4.09,4.09,0,0,1-.85.37c0,.08-.12.12-.37.12s-.36,0-.36-.12a.69.69,0,0,1-.43-.13,3.31,3.31,0,0,0-.43-.24.76.76,0,0,1-.36-.37V36.6h-6.22a6.89,6.89,0,0,0,.48,2.56,6.78,6.78,0,0,1,.49,2.56v.86c0,.32,0,.49-.12.49L251.32,48v.85a4,4,0,0,0,.85.85h.37a2.35,2.35,0,0,0,1.4-.48A16.5,16.5,0,0,0,255.35,48a9.14,9.14,0,0,1,1.52-1.16,3.28,3.28,0,0,1,1.77-.49,4,4,0,0,1,1.83.43,4.1,4.1,0,0,0,1.83.42h.49l.85-.3a8.6,8.6,0,0,1,1.1-.31l1.22-.24Zm-4.27,13.91a1.66,1.66,0,0,0,1.1,1.59,1.82,1.82,0,0,0,1-1.59Zm9.15-45c-.16,0-.55,0-1.16.12a10.08,10.08,0,0,1-1.28.13l-.43.42c-.2.21-.3.35-.3.43V35.75c0,.16.2.34.61.54a2.26,2.26,0,0,0,1,.31,2.29,2.29,0,0,0,1-.31c.41-.2.61-.38.61-.54Zm.85,102.24a15.67,15.67,0,0,0,4.64-.92,26.47,26.47,0,0,0,5.37-2.44,21.09,21.09,0,0,0,4.45-3.47,5.83,5.83,0,0,0,1.89-4,1.51,1.51,0,0,0-1.71-1.71,2.72,2.72,0,0,0-.85.12,27.59,27.59,0,0,1-5.67,7.26,15.34,15.34,0,0,1-8.12,4.09Zm16.23-32a2.56,2.56,0,0,1-1.46-1.46c-.25-.65-.47-1.28-.67-1.89a4.79,4.79,0,0,0-1-1.65,3.33,3.33,0,0,0-2.5-.73c-.25,0-.47.41-.67,1.22s-.39,1.73-.55,2.74-.29,2-.37,3-.12,1.63-.12,2a2.3,2.3,0,0,0,.55,1.34,7.08,7.08,0,0,0,1.34,1.34,12,12,0,0,0,1.59,1,1.69,1.69,0,0,0,2.13.12,9.59,9.59,0,0,0,1-.55l.43-.43q.3-.3.3-.42Zm26.84-56.24h-24.4V42.21h2.93V36.84l1.34-.24c.41-.08.81-.14,1.22-.18a3.27,3.27,0,0,1,1.1.06,14.86,14.86,0,0,1,3.6,1.22l3.53,1.71c1.18.57,2.36,1.08,3.54,1.52a10.7,10.7,0,0,0,3.85.67,11.69,11.69,0,0,0,1.4-.12c.61-.08,1-.12,1.16-.12l.73-.86ZM296.09,68.32v-.85h-.85v.85Zm-.85,20.5a11.56,11.56,0,0,0,2.26-.31c.93-.2,1.4-.71,1.4-1.52h-3.66Zm16.35-66c0-.24-.17-.36-.49-.36s-.45.12-.37.36a.43.43,0,0,0,.86,0Zm5.61,9.76c-.16-.08-.26,0-.3.25a4.67,4.67,0,0,0-.07.91,3.28,3.28,0,0,0,.13,1q.12.43.24.3a1.79,1.79,0,0,0,.37-1.28C317.57,33.12,317.44,32.74,317.2,32.57Zm8.17,58.56L332,85.52a2.52,2.52,0,0,0-.12-1,3,3,0,0,0-.73-.74,14,14,0,0,0-1.28-1c-.61-.45-1.27-.94-1.95-1.47s-1.37-1-2-1.46l-1.34-.92a4.33,4.33,0,0,0-1.22-.12,6.44,6.44,0,0,0-4,1.71,4.81,4.81,0,0,0-2.07,3.66,3.21,3.21,0,0,0,1.1,1.89,32.26,32.26,0,0,0,2.44,2.32,21.08,21.08,0,0,0,2.62,2,4.64,4.64,0,0,0,1.65.79Zm2.44-53.8a19.85,19.85,0,0,0-5.91.73q-2.26.73-2.26,4.76a12.86,12.86,0,0,0,1.83-.24c.89-.16,1.81-.37,2.74-.61a13.14,13.14,0,0,0,2.51-.92c.73-.36,1.09-.75,1.09-1.16Zm-5.73,73.32a4.24,4.24,0,0,0,1.22.13,2.59,2.59,0,0,0,2.93-2.93q0-2.68-1.77-3.3a12.71,12.71,0,0,0-4.09-.61l.12,1a4.55,4.55,0,0,0,1.35,1.89,2.78,2.78,0,0,1,1.09,1.77V109ZM323.3,22a6,6,0,0,0,2.26-.37l1.89-.73c.65-.24,1.4-.49,2.26-.73a12.1,12.1,0,0,1,3.23-.37A3,3,0,0,0,331.66,17a5.8,5.8,0,0,0-3.11-.79,7.86,7.86,0,0,0-1.89.3,9.46,9.46,0,0,0-2.14.85,8,8,0,0,0-1.71,1.29,2.3,2.3,0,0,0-.73,1.7C322.08,21.43,322.49,22,323.3,22Zm-.37,24.4a2,2,0,0,0,1.83,1,2,2,0,0,0-1-1.83Zm9.76-13.79-.85.74h.85Zm4.88,15.13-3.29.25-.43.42c-.2.21-.3.35-.3.43V82.11l1.34,2.07L337.57,83Zm7.57,22.82a4.67,4.67,0,0,0-2.08.42,1.67,1.67,0,0,0-.85,1.65,5.14,5.14,0,0,0,2.07-.37C344.85,72,345.14,71.41,345.14,70.52Zm3.78-58.32-1.59-.85h.86a3.34,3.34,0,0,1,.91.12,1.07,1.07,0,0,1,.67.73Zm3.29,2.44a4.45,4.45,0,0,1-.85-.79l-.73-.8a.49.49,0,0,1,.36-.12c.25,0,.37,0,.37.12a4.73,4.73,0,0,1,.85.74l.86.85Zm1.59,1.59c-.41,0-.61-.27-.61-.8s.2-.79.61-.79.61.27.61.79S354.21,16.23,353.8,16.23Zm1.71,0a2.7,2.7,0,0,0,.61.67c.32.28.67.61,1,1s.69.72,1,1l.55.61a.5.5,0,0,1-.37.12q-.36,0-.36-.12a17.52,17.52,0,0,1-1.71-1.59,23,23,0,0,1-1.59-1.7Zm.73,34.16c-.24-.08-.18-.29.18-.61s.59-.37.67-.13a.64.64,0,0,1-.18.68A.48.48,0,0,1,356.24,50.39ZM358,43.07c.4,0,.61.28.61.85s-.21.85-.61.85-.61-.28-.61-.85S357.54,43.07,358,43.07Zm.73,1.7a.71.71,0,0,1,.49-.12.49.49,0,0,1,.36.12,4.67,4.67,0,0,1,.86.74,4.53,4.53,0,0,1,.73.85l-.73.85ZM360.39,22c-.57,0-.78-.28-.61-.85h-.25c-.4,0-.61-.27-.61-.8s.21-.79.61-.79c.57,0,.78.29.61.85h.25c.4,0,.61.25.61.74h.12c.41,0,.61.28.61.85s-.2.85-.61.85-.61-.28-.61-.85Z"/><path class="cls-1" d="M469.33,19.52l.8-.85c.44-.49.71-.74.79-.74a1.35,1.35,0,0,1,.67-.18l.67-.06c0,.81-.65,1.61-1.95,2.38a34.72,34.72,0,0,1-4.94,2.32q-3,1.16-6.41,2.32c-2.27.77-4.41,1.52-6.4,2.25a34,34,0,0,0-4.94,2.2q-2,1.1-1.95,2.19a.5.5,0,0,0,.12.37,1.4,1.4,0,0,0,.73.85c2.28.74,5.1,1.59,8.48,2.57a59.63,59.63,0,0,1,9.7,3.72,28.32,28.32,0,0,1,7.93,5.61,11.32,11.32,0,0,1,3.29,8.23c0,2.28-.38,3.93-1.16,4.95a7,7,0,0,1-2.93,2.25,32.66,32.66,0,0,1-4,1.34,12.62,12.62,0,0,0-4.27,2.2A19.25,19.25,0,0,0,465.43,65l2.75,2.14a27.79,27.79,0,0,1,2.5,2.2,3,3,0,0,1,1.09,1.83c0,.48-.71,1.05-2.13,1.7a49,49,0,0,1-4.88,1.9q-2.75.9-5.25,1.58c-1.66.45-2.74.75-3.23.92s-1.38.61-2.68,1.09-2.69,1-4.15,1.47l-4.21,1.4-2.75.92a1.1,1.1,0,0,0-.73.67,3.83,3.83,0,0,0-.12,1q0,2.32,3.11,4.09a38.3,38.3,0,0,0,7.69,3.17,93.39,93.39,0,0,0,10,2.44c3.62.7,7,1.31,10,1.83s5.62,1,7.69,1.47,3.11.83,3.11,1.16a.69.69,0,0,1-.12.48c-.08.09-.33.35-.73.8a4.12,4.12,0,0,1-.86.79c.33-1.06.19-1.81-.42-2.26a5.54,5.54,0,0,0-2.32-.91,15.2,15.2,0,0,0-3-.19c-1.06,0-1.91.07-2.56.07a3.06,3.06,0,0,0-1.65.42l-1.34.86c-.45.28-.92.57-1.4.85a3.06,3.06,0,0,1-1.59.43,1.33,1.33,0,0,1-1.16-.67c-.29-.45-.57-.94-.85-1.47a9.79,9.79,0,0,0-1-1.46,1.71,1.71,0,0,0-1.4-.67,3.71,3.71,0,0,0-2,.67c-.69.45-1.38.94-2.07,1.46l-2.13,1.65a9.27,9.27,0,0,1-2,1.22,10.71,10.71,0,0,0,2.2,2.26,7.61,7.61,0,0,1,1.28,1,2.54,2.54,0,0,1,.61,1.34,19.58,19.58,0,0,1,.18,3.24q1.23,0,3.36-.18a41.79,41.79,0,0,0,4.33-.62,24.42,24.42,0,0,0,4.09-1.15,5.39,5.39,0,0,0,2.62-1.83,14.77,14.77,0,0,0-1.28,3.53c-.37,1.47-.79,2.91-1.28,4.33a15.25,15.25,0,0,1-1.83,3.73,3.41,3.41,0,0,1-2.93,1.58,26.07,26.07,0,0,1-9.76-2,45.06,45.06,0,0,1-9.52-5.25,44,44,0,0,1-8-7.32,30.59,30.59,0,0,1-5.18-8.35,6.91,6.91,0,0,1,3.35-.74q2.51-.12,5.19-.12c1.79,0,3.37,0,4.76-.06s2.07-.26,2.07-.67v-.85a8.93,8.93,0,0,0-1.46-.37,12.3,12.3,0,0,0-1.35-.18,7,7,0,0,1-1.22-.19,7.94,7.94,0,0,0-1.28-.24l-1.95-.24-1.95-.25a11.63,11.63,0,0,0-1.28-.12,4.33,4.33,0,0,1-.86-.85c-.08-.08-.34-.47-.79-1.16s-.71-1.12-.79-1.28h-.86a18,18,0,0,1-1.64.85,17.28,17.28,0,0,0-1.65.85,1.94,1.94,0,0,1-1.22-1.58,25.06,25.06,0,0,1-.37-2.5,9.81,9.81,0,0,0-.48-2.32,1.53,1.53,0,0,0-1.59-1,.51.51,0,0,0-.37.12A53,53,0,0,1,418,95.83a68.88,68.88,0,0,1-14,11.29,70.49,70.49,0,0,1-16.59,7.38,61.49,61.49,0,0,1-17.69,2.62h-1.22c1.06-.24,1.95-.43,2.68-.55a4.76,4.76,0,0,0,1.71-.55,2,2,0,0,0,.86-1,4.86,4.86,0,0,0,.24-1.71,7.3,7.3,0,0,1-1.1-.18,2.07,2.07,0,0,0-1.1-.07,3.79,3.79,0,0,0-1,.25l-1.53.49-1.52.48a3.3,3.3,0,0,0-.86.37,9,9,0,0,1,3.36-2.75,36.85,36.85,0,0,1,4.94-2.07q2.69-.92,5.31-1.71a29.08,29.08,0,0,0,4.33-1.64,4.84,4.84,0,0,1,2,.67,16.51,16.51,0,0,1,1.71,1.16,14.7,14.7,0,0,0,1.65,1.09,3.88,3.88,0,0,0,5.06-1.16,23.94,23.94,0,0,0,1.77-3.35,4.33,4.33,0,0,0-.86-.85h-.36a1.63,1.63,0,0,0-1.1.42l-1,.86a12.94,12.94,0,0,1-1.09.85,2.28,2.28,0,0,1-1.35.43,3.65,3.65,0,0,1-3.29-1.71,58.14,58.14,0,0,1,4.51-4.51c1.55-1.39,3.07-2.79,4.58-4.21s2.95-2.93,4.33-4.52A27.44,27.44,0,0,0,405,86.25a5.83,5.83,0,0,0,2.07-.12,16.7,16.7,0,0,0,2.44-.67,8.88,8.88,0,0,0,2.2-1.1,5.18,5.18,0,0,0,1.46-1.4A9.6,9.6,0,0,0,411,80.7a7.39,7.39,0,0,1-1.47-1.1A3.27,3.27,0,0,1,408.7,78a26.1,26.1,0,0,1-.37-3.91V69.72c0-2.07,0-4.25.13-6.52s.14-4.44.18-6.47.06-3.46.06-4.27a27.64,27.64,0,0,0-8.85,1.46q-4.32,1.47-8.66,3.24t-8.78,3.23a28.82,28.82,0,0,1-9.09,1.46h-2.44l-.43-.85a2.43,2.43,0,0,1-.3-.85c-.08,0-.12-.13-.12-.37a.53.53,0,0,1,.12-.37c4-2.19,7.75-4.18,11.28-6a87.64,87.64,0,0,0,9.95-5.86,63.59,63.59,0,0,0,8.78-7.26A51.17,51.17,0,0,0,408,30.13v2.44a1.7,1.7,0,0,0,1.16-.73,4,4,0,0,0,.61-1.46,12.56,12.56,0,0,0,.24-1.71c0-.57.06-1.06.06-1.46a2.13,2.13,0,0,0-.42-1.59,1.87,1.87,0,0,1-.43-1.46c0-1.87-.06-3.81-.19-5.8s-.18-4-.18-6a46.43,46.43,0,0,1,.37-5.91A19.21,19.21,0,0,1,410.77.85l3.66-.12c3.42,0,6.78.17,10.07.49s6.57.73,9.82,1.22a1.46,1.46,0,0,1,.85.85V4a29,29,0,0,0-3,5.61,30.94,30.94,0,0,0-1.59,5.55c-.37,1.91-.67,3.88-.92,5.92s-.57,4.23-1,6.58a1.83,1.83,0,0,0,1.46,1.53,13.6,13.6,0,0,0,2.2.18,5.29,5.29,0,0,0,3.84-1.83A21.41,21.41,0,0,0,439.5,23q1.53-2.74,2.93-5.92c.94-2.11,1.83-4.09,2.69-5.92a26.6,26.6,0,0,1,2.62-4.57,3.65,3.65,0,0,1,2.81-1.83,10.31,10.31,0,0,1,4,1.22,44.25,44.25,0,0,1,5.19,2.93c1.74,1.14,3.37,2.31,4.88,3.53a17.24,17.24,0,0,1,3.11,3.05,5,5,0,0,0-1.28.31,10.71,10.71,0,0,0-1.16.43.49.49,0,0,0-.12.36,2.49,2.49,0,0,0,1.4,2,4.64,4.64,0,0,0,2.38.92ZM398.7,74.05a34.34,34.34,0,0,1-.68,6.78,19.07,19.07,0,0,1-2.25,6,12.56,12.56,0,0,1-4.21,4.33,12.3,12.3,0,0,1-6.65,1.65,8.86,8.86,0,0,1-6.65-2.56,9.18,9.18,0,0,1-2.5-6.71A8.16,8.16,0,0,1,377,78.81a14.64,14.64,0,0,1,3.11-3.23,35,35,0,0,1,4-2.62,16.54,16.54,0,0,0,3.84-3,6.21,6.21,0,0,0,1.46-2.38q.74-1.77,1.47-3.6a27.48,27.48,0,0,1,1.52-3.24c.53-.93,1.08-1.4,1.65-1.4a3.13,3.13,0,0,1,2.93,2,14.69,14.69,0,0,1,1.34,4.52,35.93,35.93,0,0,1,.37,5ZM395.28,6.47a2.65,2.65,0,0,1,2.44,1.64,12.78,12.78,0,0,1,1.22,3.79,30.73,30.73,0,0,1,.43,4.27c0,1.42.06,2.42.06,3a29.72,29.72,0,0,1-.67,6.17,18.75,18.75,0,0,1-2.2,5.67,12.59,12.59,0,0,1-4,4.15,10.58,10.58,0,0,1-5.86,1.58q-4.51,0-6.95-2.13t-2.44-7a8.67,8.67,0,0,1,2.19-5.91,37.89,37.89,0,0,1,5.06-4.76c1.92-1.51,3.83-3.07,5.74-4.7a14.92,14.92,0,0,0,4.21-5.73ZM384.79,53.68a8.14,8.14,0,0,0-2.08,1,2.2,2.2,0,0,0-1.22,1.77V57c.08.33.37.57.86.74q0,.12.36.12c.82,0,1.49-.55,2-1.65a6.64,6.64,0,0,0,.79-2.5Zm0,22.33a1,1,0,0,0-.55-1,2.87,2.87,0,0,0-1.16-.24,1.4,1.4,0,0,0-1.59,1.58,6.45,6.45,0,0,0,.19,1.65,8.77,8.77,0,0,0,.67,1.65,3.75,3.75,0,0,1,1.34-1.9A2.45,2.45,0,0,0,384.79,76Zm6.46-24.77-.85.43a3.55,3.55,0,0,0-.73.42c.16.09.55.35,1.16.8a6.06,6.06,0,0,0,1.28.79,3.26,3.26,0,0,0,.85.55,3,3,0,0,0,.73.3.76.76,0,0,0,.86-.85,10.6,10.6,0,0,0-1.22-1.28l-1.22-1.16Zm15.5,32.57a1.46,1.46,0,0,1-.86.74v-.74a1.5,1.5,0,0,1,.86-.85Zm9,12.94a1.18,1.18,0,0,0-.68-1.1,5.26,5.26,0,0,0-1.52-.55,8.28,8.28,0,0,0-1.71-.18h-1.34a3.17,3.17,0,0,0,1.34,2.44,4.14,4.14,0,0,0,2.56,1.09,1.09,1.09,0,0,0,1-.54A2.43,2.43,0,0,0,415.78,96.75Zm26.35-17.82c.65,0,1-.36,1.1-1.09a17.65,17.65,0,0,0,.12-1.83,3.27,3.27,0,0,0-1.28-2.63,2.9,2.9,0,0,1-1.28-2.25.5.5,0,0,1,.12-.37q1.83-3.17,4.33-7c1.67-2.57,3.19-4.82,4.57-6.78a2.72,2.72,0,0,1,1.59-1c.73-.2,1.46-.45,2.2-.73A6.35,6.35,0,0,0,455.55,54a3.1,3.1,0,0,0,.85-2.38.5.5,0,0,0-.12-.37,1.46,1.46,0,0,0-.73-.85,8.75,8.75,0,0,1-3.78.18,16.76,16.76,0,0,1-4.46-1.22,12.31,12.31,0,0,1-3.72-2.44,4.83,4.83,0,0,1-1.58-3.6A6.61,6.61,0,0,1,438.16,42a41.93,41.93,0,0,1-3.6-2.87c-1.14-1-2.19-2-3.17-2.87a4.2,4.2,0,0,0-2.68-1.34,8.28,8.28,0,0,0-2.81,1,35.72,35.72,0,0,0-4.21,2.5,20.54,20.54,0,0,0-3.53,3c-.94,1-1.25,1.85-.92,2.5l-4,4v1.7c1,.09,1.81.17,2.5.25s1.41.18,2.14.3a10.7,10.7,0,0,0,1.83.19q4.4.12,6.95.42a38.62,38.62,0,0,1,4.76.86c1.47.36,2.2.91,2.2,1.64A2.49,2.49,0,0,1,433,55a15.75,15.75,0,0,1-1.16,1.28c-.41.41-.79.84-1.16,1.28a2.51,2.51,0,0,0-.55,1.65c0,.65.08,1.87.25,3.66a39.55,39.55,0,0,0,.91,5.55,24.58,24.58,0,0,0,1.77,5.12c.73,1.51,1.71,2.26,2.93,2.26a2.39,2.39,0,0,0,1.77-.67,10.16,10.16,0,0,0,1.4-1.89c.16.41.45,1.22.85,2.44s.69,2,.86,2.44c0,.08.1.22.3.43l.43.42Zm-19-54.53a15,15,0,0,1,.55-4c.36-1.34.77-2.66,1.22-4s.85-2.58,1.21-3.84a13.57,13.57,0,0,0,.55-3.85,6.68,6.68,0,0,0-2.68.49,6.19,6.19,0,0,1-2.56.49c-.82,0-1.51,0-2.08-.06a5,5,0,0,1-2.07-.79v3.66a15.38,15.38,0,0,0,.49,4,15.34,15.34,0,0,1,.49,3.91,7.71,7.71,0,0,1-.25,2.07,4,4,0,0,1-1.46,1.83l8.05,8.17a10.7,10.7,0,0,1,1-2.19,18.52,18.52,0,0,0,1-1.71,8.82,8.82,0,0,0,.67-1.77,9.71,9.71,0,0,0,.25-2.5Zm3.53,39a15.54,15.54,0,0,0-2,.18,15.85,15.85,0,0,0-2.56.61,8,8,0,0,0-2.26,1.16,2.11,2.11,0,0,0-1,1.71,2.82,2.82,0,0,0,.61,1.77,6.49,6.49,0,0,0,1.46,1.4,7.69,7.69,0,0,0,1.89,1,5.55,5.55,0,0,0,1.77.36,6.44,6.44,0,0,0,1-.12.7.7,0,0,0,.67-.73,3.35,3.35,0,0,0-.43-.79,3.13,3.13,0,0,1-.43-.8l-.12-1.34a3.87,3.87,0,0,1,.67-2.5,9.77,9.77,0,0,1,2.75-1.89Zm-6.95,22.81c.41,0,.61-.28.61-.85s-.2-.85-.61-.85-.61.28-.61.85S419.27,86.25,419.68,86.25ZM423.83,83a4.33,4.33,0,0,0-.86-.85h-.48c-.49,0-.82.34-1,1a7.73,7.73,0,0,0-.24,1.65,9.15,9.15,0,0,0,1.58-.18,1.14,1.14,0,0,0,1-1.28ZM427,3.29V5.73a9.31,9.31,0,0,0,2.75-.48,1.94,1.94,0,0,0,1.52-2Zm4.88,73.2c.41,0,.61-.28.61-.85s-.2-.85-.61-.85-.61.28-.61.85S431.47,76.49,431.88,76.49Zm6.59-45.62a2,2,0,0,0-1.83-1,2,2,0,0,0,1,1.83Zm.73,3.29c.08.41.22,1,.43,1.83a10.71,10.71,0,0,0,.42,1.46c.08.09.23.23.43.43s.35.31.43.31a2.8,2.8,0,0,0,2.32-1.47,4.81,4.81,0,0,0,1-2.56,1.32,1.32,0,0,0-1-1.46,8.08,8.08,0,0,0-1.9-.25,5.43,5.43,0,0,0-1.4.18.94.94,0,0,0-.67,1Zm6.59,68.93a9.34,9.34,0,0,0-1.4.12,1.19,1.19,0,0,0-1,.86,5.79,5.79,0,0,0,.91,1.22,2.06,2.06,0,0,0,1.53.73Zm5.61-78.32a1.13,1.13,0,0,0,.67,1.15,3,3,0,0,0,1.28.31,8.09,8.09,0,0,0-.18-1.52,1.37,1.37,0,0,0-.92-1.16,4.28,4.28,0,0,0-.85.85Zm3.29,19.15c.41,0,.61-.26.61-.79s-.2-.8-.61-.8-.61.27-.61.8S454.29,43.92,454.69,43.92Zm13.06,58.19a1,1,0,0,1-.55,1,2.87,2.87,0,0,1-1.16.24c-1.06,0-1.59-.4-1.59-1.22s.53-1.34,1.59-1.34a2.4,2.4,0,0,1,1.16.31A1.09,1.09,0,0,1,467.75,102.11ZM475.07,52a3.11,3.11,0,0,0-2-3.29,12.23,12.23,0,0,0-4.21-.73,5.61,5.61,0,0,0-2,.36,3.15,3.15,0,0,0-1.58,1.34,4.09,4.09,0,0,1,1.46,1.83,8.33,8.33,0,0,1,.25,2.2,3.38,3.38,0,0,1-.92,2.5,3.21,3.21,0,0,0-.91,2.38c0,.81.24,1.3.73,1.46a5.65,5.65,0,0,0,1.83.25,4.06,4.06,0,0,0,2.25-.92,12.26,12.26,0,0,0,2.38-2.25,18.23,18.23,0,0,0,1.89-2.75A5.08,5.08,0,0,0,475.07,52Zm-4.88-34c-.41,0-.61-.28-.61-.85s.2-.85.61-.85.61.28.61.85S470.59,17.93,470.19,17.93Z"/><path class="cls-1" d="M589.75,68.32a5.3,5.3,0,0,1,4.39,2.2A14.15,14.15,0,0,1,596.27,75a35.13,35.13,0,0,1,1,4.39c.2,1.34.51,2,.92,2a5.39,5.39,0,0,0,3.66-1.16,6.67,6.67,0,0,0,1.95-2.92,12.75,12.75,0,0,0,.67-3.72,36.41,36.41,0,0,0-.06-3.66,3,3,0,0,1,.85,2.19v2.32q0,4.27-2.56,6a11.34,11.34,0,0,1-6.59,1.77A19.07,19.07,0,0,1,589,80.89a33.78,33.78,0,0,1-6.41-3.42A70.08,70.08,0,0,1,576.63,73q-2.86-2.44-5.67-4.64a1.72,1.72,0,0,0-.73-.12.86.86,0,0,0-.37.06.53.53,0,0,1-.24.06h-.25l-5.73,2.44h-.73c-.17-.08-.59-.37-1.28-.85a6.11,6.11,0,0,0-1.16-.74.73.73,0,0,0-.49-.12,3,3,0,0,0-1.59.55,9.62,9.62,0,0,0-1.58,1.28,9.2,9.2,0,0,0-1.28,1.59,7.57,7.57,0,0,0-.8,1.58,5,5,0,0,0,2.08,1.71c1,.49,2,1,3,1.47a12.38,12.38,0,0,1,2.68,1.7,3.09,3.09,0,0,1,1.16,2.44v.74a4.42,4.42,0,0,1-2.32-1,18.79,18.79,0,0,1-1.58-1.65,10.83,10.83,0,0,0-1.59-1.52,3.64,3.64,0,0,0-2.32-.67,5.89,5.89,0,0,0-2.62.79c-1,.53-2.1,1.14-3.23,1.83s-2.28,1.34-3.42,2A10.45,10.45,0,0,1,543.39,83a3.46,3.46,0,0,1-.86-.43,3.49,3.49,0,0,0-.85-.42,6.76,6.76,0,0,0-1.46,1.22c-.66.65-1,1-1,1.22v13.9h22.81c1.3,0,2.63-.79,4-2.37a28,28,0,0,0,3.6-5.56,41.65,41.65,0,0,0,2.56-6.34,18,18,0,0,0,1-4.76c1.3,0,3,.08,5,.25a53.26,53.26,0,0,1,6.16.85,27.41,27.41,0,0,1,5.73,1.77,7.55,7.55,0,0,1,3.72,3.11,8.47,8.47,0,0,0-4.14,3.29,8.82,8.82,0,0,0-1.71,5.13q0,.74.06,1.89a1.12,1.12,0,0,0,1.28,1.16,1.55,1.55,0,0,0,1.16-.43,8.59,8.59,0,0,0,.79-.91,6.18,6.18,0,0,1,.86-.92,1.8,1.8,0,0,1,1.22-.43,2.7,2.7,0,0,1,3.05,3,2.2,2.2,0,0,1-.67,1.71,7.52,7.52,0,0,1-1.47,1,8.28,8.28,0,0,0-1.46,1,1.84,1.84,0,0,0-.67,1.52,2.68,2.68,0,0,0,.12.85,9.76,9.76,0,0,1,5.12,1.71,13.16,13.16,0,0,1,3.78,3.91,4.45,4.45,0,0,1-2.44,2,9.49,9.49,0,0,1-3.17.55,9.61,9.61,0,0,1-6.16-1.89,15.38,15.38,0,0,1-3.9-4.64,29.54,29.54,0,0,1-2.5-6c-.66-2.19-1.33-4.21-2-6a21.94,21.94,0,0,0-2.32-4.63,4,4,0,0,0-3.47-1.89V96.75l2.38,2.19a8.36,8.36,0,0,1,1.46,1.77,6.54,6.54,0,0,1,.79,2,12.86,12.86,0,0,1,.25,2.81,7.64,7.64,0,0,1-1.22,4.21,11,11,0,0,1-3.11,3.17,14.74,14.74,0,0,1-4.21,2,16.13,16.13,0,0,1-4.52.67H532.41c0-2.76.69-4.82,2.07-6.16a12,12,0,0,1,4.64-2.86,23.36,23.36,0,0,1,4.63-1.1c1.39-.17,2.08-.45,2.08-.86,0-.89-.53-1.34-1.59-1.34a11.86,11.86,0,0,0-3.35.49,11.23,11.23,0,0,1-3.24.49,3.29,3.29,0,0,1-1.89-.55c-.53-.37-1-.75-1.52-1.16s-1-.79-1.53-1.16a3.29,3.29,0,0,0-1.89-.55,3.66,3.66,0,0,0-2.5.92,16.08,16.08,0,0,0-2,2.07c-.61.77-1.24,1.59-1.89,2.44a7.27,7.27,0,0,1-2.32,2,3.69,3.69,0,0,0,1.59,1.59l2,1a4.76,4.76,0,0,1,1.65,1.34,4.62,4.62,0,0,1,.67,2.8,6,6,0,0,1-2.63-.61,11.3,11.3,0,0,1-2.38-1.52,7.23,7.23,0,0,1-1.76-2.14,5,5,0,0,1-.68-2.44V78.08h16.84a5.13,5.13,0,0,0-.31-1.89,5,5,0,0,1-.3-1.77v-.37a2.25,2.25,0,0,1,.43-.55q.3-.3.42-.3h13.06c1.14-1,2.09-1.81,2.87-2.5L556,68.56c.82-.73,1.51-1.34,2.08-1.83.32-.32.81-.75,1.46-1.28a18.3,18.3,0,0,0,1.89-1.77A16.28,16.28,0,0,0,563,61.61a4.08,4.08,0,0,0,.73-2.32,6.91,6.91,0,0,0-.55-2.07,25.8,25.8,0,0,0-1.34-3A13.24,13.24,0,0,0,560,51.54a2.83,2.83,0,0,0-2-1.15,10,10,0,0,0-1.22.12c-.57.08-.86.32-.86.73V62.59c-.16-.08-.5-.23-1-.43a4.22,4.22,0,0,0-1-.31.71.71,0,0,0-.49-.12c-.24,0-.45.23-.61.67s-.36.94-.61,1.47a6.87,6.87,0,0,1-.91,1.46,1.74,1.74,0,0,1-1.41.67A2,2,0,0,1,548,65a12.09,12.09,0,0,1-.91-2.31,15.22,15.22,0,0,0-.86-2.32,1.83,1.83,0,0,0-1.83-1,11.51,11.51,0,0,0-2.86.31,7.9,7.9,0,0,0-2.63,1.4V51.24a.59.59,0,0,0-.42-.55,3.46,3.46,0,0,0-.92-.24,12.93,12.93,0,0,0-1.46-.06h-.61a8.06,8.06,0,0,0-1,.06,3.39,3.39,0,0,0-.91.24.59.59,0,0,0-.43.55v8.91a5.54,5.54,0,0,0-3.66-2.69,23.44,23.44,0,0,0-4.76-.49,5.47,5.47,0,0,0,.86,2.26,24.23,24.23,0,0,0,2,3.05A18,18,0,0,0,530,64.9c.81.74,1.46,1.06,1.95,1a1.77,1.77,0,0,0,.61-.37c.32-.24.67-.52,1-.85s.71-.61,1-.85a1.77,1.77,0,0,1,.61-.37,3.48,3.48,0,0,1,3,1.71,5.69,5.69,0,0,1,1.16,3.17l-.12,1.59a2.41,2.41,0,0,1-1.1-1.47,15.72,15.72,0,0,1-.49-1.71,3.32,3.32,0,0,0-1-.18l-1-.06a8.26,8.26,0,0,0-3.9,1q-2,1-4,2.31a39,39,0,0,1-4.33,2.32,11.72,11.72,0,0,1-4.94,1c-.25,0-.73,0-1.47.06s-1.14-.26-1.22-.91a34.24,34.24,0,0,0-.24-5.8c-.24-1.83-.53-3.6-.85-5.31s-.63-3.41-.92-5.12a33.19,33.19,0,0,1-.43-5.37v-.36a1.78,1.78,0,0,1,.31-.61c.2-.33.38-.65.55-1s.32-.65.49-1a2,2,0,0,0,.24-.61v-.36a.39.39,0,0,0-.12-.25,4.77,4.77,0,0,0-3.42,1.28A12.44,12.44,0,0,0,509,51a27.49,27.49,0,0,0-1.7,3.9q-.73,2.07-1.35,3.66a3.82,3.82,0,0,1,2,.43,8.54,8.54,0,0,1,1.28.91c.36.33.73.63,1.1.92a2.43,2.43,0,0,0,1.52.42,5,5,0,0,1-1,3.05l-1.58-.85h-.86a11,11,0,0,0-1.64.37,13.5,13.5,0,0,0-1.65.48h-1.59a4.62,4.62,0,0,0-.79-.48,3.14,3.14,0,0,0-.79-.37c-.08,0-.23.1-.43.31a2.29,2.29,0,0,0-.43.54v.37a4.78,4.78,0,0,0,1,2.44c.65,1,1.14,1.67,1.46,2.07l-2.44,4.88c-.08.09,0,.23.19.43a.93.93,0,0,0,.67.31,3.62,3.62,0,0,0,.79-.37,3.62,3.62,0,0,1,.79-.37l1.22-.12a4.33,4.33,0,0,1,1.22.12c-.73,1.22-1.68,2.67-2.86,4.33a47.91,47.91,0,0,1-3.91,4.82,24.09,24.09,0,0,1-4.57,3.91,8.89,8.89,0,0,1-4.88,1.58,2.87,2.87,0,0,1-1.16-.24,1,1,0,0,1-.55-1,17.88,17.88,0,0,1,1.1-5.36q1.09-3.3,2.5-6.9c.93-2.39,1.85-4.79,2.74-7.2a37.71,37.71,0,0,0,1.83-6.16,126.85,126.85,0,0,0,1.59-12.75q.48-6.52.61-13.11t.12-13q0-6.47.12-12.33a4.37,4.37,0,0,1,1.22-.12,12.12,12.12,0,0,1,4.58.92c1.5.61,3,1.26,4.51,1.95s3,1.34,4.52,2a12.36,12.36,0,0,0,4.69.92h32.58V1.59L552.29,0q6.23.74,10.19.85t6.59.13c1.75,0,3.23.06,4.45.18a12.48,12.48,0,0,1,3.78,1,32.32,32.32,0,0,1,4.64,2.62q2.68,1.77,6.95,4.94a.37.37,0,0,0,.25.12h.61A1.35,1.35,0,0,0,591,9.33c.24-.36.49-.75.73-1.16A13.15,13.15,0,0,1,592.49,7a1.69,1.69,0,0,1,1.41-.54h.73L602,13.79v.85a3.38,3.38,0,0,0-1.22-.73,6,6,0,0,0-1.34-.12,2.51,2.51,0,0,0-2.2,1c-.49.69-1.06,1.43-1.71,2.2a8.16,8.16,0,0,1-2.74,2,10.67,10.67,0,0,1-5.43.49l-.86.85h17.08c.17,0,.35-.22.55-.67a2.63,2.63,0,0,0,.31-1,2.94,2.94,0,0,0-.43-.8,3.16,3.16,0,0,1-.43-.79v-.85A2.28,2.28,0,0,1,605,17.45a5.41,5.41,0,0,1,.24,1.7,5.91,5.91,0,0,1-.24,1.59c-.17.57-.65.85-1.47.85h-19A3.35,3.35,0,0,0,586.94,25a34.28,34.28,0,0,0,5.61,1.52c2.12.41,4.23.88,6.35,1.41a7.43,7.43,0,0,1,4.63,3,2.08,2.08,0,0,1-.85.12,5.37,5.37,0,0,1-3-.92,5.38,5.38,0,0,0-3-.91,4.41,4.41,0,0,0-2.13.49,4.56,4.56,0,0,1-2.14.48,2.85,2.85,0,0,1-2.19-.91q-.86-.91-1.77-1.95a17,17,0,0,0-2-1.95,4.22,4.22,0,0,0-2.8-.92h-.49a4.47,4.47,0,0,1,.06,1.4c0,.7-.12,1.45-.24,2.26s-.23,1.59-.31,2.32a5.58,5.58,0,0,1-.24,1.34,7.38,7.38,0,0,0-.49.61c-.24.33-.51.67-.79,1s-.55.71-.8,1A1.85,1.85,0,0,0,580,35c-.08,0-.12.13-.12.37A1.72,1.72,0,0,0,581,36.84a4,4,0,0,0,1.83.61,11.18,11.18,0,0,0,3.36-.48A21.76,21.76,0,0,0,589,35.81a23.08,23.08,0,0,1,2.68-1.16,8.38,8.38,0,0,1,2.93-.49,7.88,7.88,0,0,1,3.17.85,30.13,30.13,0,0,1-2.87,4.52q-2.13,2.92-4.33,6.22a70.76,70.76,0,0,0-3.78,6.34c-1.06,2-1.46,3.66-1.22,4.88L584,56.12v1.59c.08.32.33,1,.74,2.07s.69,1.75.85,2.07h.85a5.59,5.59,0,0,0,1-.91,2.84,2.84,0,0,0,.61-.79,3,3,0,0,0-.61-1.29,4.29,4.29,0,0,0-1-1.15h.86a22.55,22.55,0,0,0,2,1.64,24,24,0,0,1,2,1.65l-.85.43a3.55,3.55,0,0,0-.73.42,3,3,0,0,0-.61.37,1.31,1.31,0,0,0-.25.37ZM515.69,96a17.73,17.73,0,0,1-1.09,6.16,16.09,16.09,0,0,1-3.12,5.25,16.38,16.38,0,0,1-4.69,3.66,12.77,12.77,0,0,1-6,1.4c-.33,0-.87,0-1.65-.12s-1.24-.12-1.4-.12l-.73-.85a4.2,4.2,0,0,0,1.22.18q1,.06,2,.06t2-.06a4.2,4.2,0,0,0,1.22-.18,2.44,2.44,0,0,0,1-.31c.41-.2.61-.35.61-.43v-8.17h-.73a10.35,10.35,0,0,1-4,5.31,10.69,10.69,0,0,1-6.28,2,1.67,1.67,0,0,1-1.52-.92,7.53,7.53,0,0,1-.86-2.19,20,20,0,0,1-.43-2.44q-.12-1.16-.12-1.77a8.68,8.68,0,0,1,2.32-5.92,48.45,48.45,0,0,1,5.43-5.18c2.07-1.71,4.17-3.54,6.28-5.49a18.58,18.58,0,0,0,4.76-7,1.17,1.17,0,0,1,.61-.18l.61-.06a2.58,2.58,0,0,1,2.32,1.59,14.83,14.83,0,0,1,1.34,3.66,29.89,29.89,0,0,1,.67,4.08c.12,1.34.18,2.3.18,2.87a2.88,2.88,0,0,1-.3,1.4,8.41,8.41,0,0,1-.67,1,8,8,0,0,0-.67,1,3.05,3.05,0,0,0-.31,1.52.11.11,0,0,0,.12.12h.25l1.58-.85ZM497.88,77.23c0-1.06-.45-1.59-1.34-1.59s-1.26.49-1.34,1.46-.12,1.67-.12,2.08a5.62,5.62,0,0,0,1.95-.31C497.6,78.67,497.88,78.12,497.88,77.23Zm4.76,17.93h-3.42a2.36,2.36,0,0,0,1.16,2,4,4,0,0,0,2.26.8Zm8.17-60.27c0-1-.4-1.58-1.22-1.58a6.48,6.48,0,0,0-1.76.61c-.94.4-1.94.85-3,1.34s-2.1,1-3.11,1.4a10.57,10.57,0,0,1-2.26.79l-.12,2v1.52c0,.78.28,1.24.85,1.4.24,0,.73.05,1.46.13s1.22.12,1.47.12a7.57,7.57,0,0,0,5.37-2.2A7.25,7.25,0,0,0,510.81,34.89Zm0-15.74a4,4,0,0,0-1.52-3.6,6.48,6.48,0,0,0-3.72-1,28.5,28.5,0,0,0-2.93.18,2.93,2.93,0,0,0-2.44,1.53,4.86,4.86,0,0,0,1.89,2.13,9.6,9.6,0,0,0,2.68,1.16,23.61,23.61,0,0,0,2.81.55l2.38.3a2,2,0,0,0,.85-.85Zm-2.19,73.57a1.82,1.82,0,0,0-1.1-1.59v1.59ZM517.28,22l-.73.85h2c.89,0,1.67,0,2.32-.06A4.92,4.92,0,0,0,523,22Zm21.23,3.29c-.08,0-.84.15-2.26.43l-5.12,1c-2,.41-4,.85-6.16,1.34l-5.25,1.22a17.06,17.06,0,0,1-2,.49c-.82.16-1.22.28-1.22.36v.74H536.8a3.86,3.86,0,0,0,.91-.61,13.31,13.31,0,0,0,1.59-1.47A23.14,23.14,0,0,0,540.83,27a4.22,4.22,0,0,0,.85-1.71Zm-2.44,56.12a5.47,5.47,0,0,0-2.63-.91c-.85,0-1.76-.06-2.74-.06l-2.81.12a2.82,2.82,0,0,1-1.34,2.07,12.38,12.38,0,0,1-2,.8,7.65,7.65,0,0,0-1.83.79,2.27,2.27,0,0,0-.79,2.07,9.15,9.15,0,0,0,3.9-.79,31.39,31.39,0,0,0,3.29-1.77A28,28,0,0,1,532.35,82,8,8,0,0,1,536.07,81.37ZM523.87,48.8a2.61,2.61,0,0,0-1.34,1.65,6.63,6.63,0,0,0-.37,2v.37a2.08,2.08,0,0,0,.85.85l.86-4Zm22-18.91a6.3,6.3,0,0,0-.37-2.14A3.73,3.73,0,0,0,544.12,26,6.85,6.85,0,0,1,543,29.28a13.06,13.06,0,0,1-2.56,2.87A13.83,13.83,0,0,1,537,34.22a8.6,8.6,0,0,1-3.41.79,5.9,5.9,0,0,1-2.5-.48,5.78,5.78,0,0,0-2.5-.49l-1.28.06c-.7,0-1,.35-1,.91a6,6,0,0,0,.3,1.22,9.6,9.6,0,0,0,.43,1.22c-.16,0-.47,0-.92.06a6,6,0,0,0-1.34.31,5.8,5.8,0,0,0-1.22.61,1.13,1.13,0,0,0-.55,1v.48c1.22.66,2.3,1.22,3.24,1.71A30.23,30.23,0,0,0,529,42.88a16,16,0,0,0,2.87.86,17.39,17.39,0,0,0,3.35.3,17,17,0,0,0,2.38-.18,9,9,0,0,0,2.38-.67,4.87,4.87,0,0,0,1.83-1.4,3.71,3.71,0,0,0,.73-2.38,1.15,1.15,0,0,0-1-1.22,3.17,3.17,0,0,1-1.47-.74A.69.69,0,0,1,540,37a.5.5,0,0,1,.12-.37l5.74-5.73ZM527,44.77v.74l1.71-.74Zm1.71,52.83c.4,0,.61-.26.61-.79s-.21-.8-.61-.8-.61.27-.61.8S528.34,97.6,528.75,97.6Zm4.88-78.32a2,2,0,0,0-1.53.73,10.44,10.44,0,0,0-.91,1.1h2.44Zm3.17,27.08h-1.59a1.83,1.83,0,0,0,1.59,1ZM541,70.76a.43.43,0,0,1-.86,0c-.08-.24,0-.37.37-.37S541,70.52,541,70.76Zm0,11.35c.4,0,.61-.27.61-.8s-.21-.79-.61-.79-.61.26-.61.79S540.54,82.11,541,82.11Zm4-6.47v.85l.86-.85Zm0,8.17a15.08,15.08,0,0,0,4.46.25,8.4,8.4,0,0,0,2.25-.67c.57-.29,1.16-.59,1.77-.92a6.82,6.82,0,0,1,3-.49,4.18,4.18,0,0,1,2.44.68c.65.44,1.3.91,2,1.4s1.33,1,2,1.4a4.7,4.7,0,0,0,2.62.67,8.42,8.42,0,0,1-2.81,6.71,10.2,10.2,0,0,1-6.95,2.44h-2.5a3.14,3.14,0,0,1-2.5-1c-.25-.33-.61-.9-1.1-1.71s-1-1.71-1.46-2.69-1-1.89-1.41-2.74-.75-1.44-.91-1.77Zm12.33-39.4c0-2.69-.49-4.31-1.47-4.88s-2.76-.86-5.37-.86a4.86,4.86,0,0,0,2.26,4.15A7.9,7.9,0,0,0,557.3,44.41Zm-4.15-25.74h-.86v.85h.86Zm30,1.7a3.91,3.91,0,0,1-1.46-1.89,8.52,8.52,0,0,1-.25-2.25A3.48,3.48,0,0,1,583,13.11a18.6,18.6,0,0,1,3.41-1.76.52.52,0,0,0,.13-.37,2,2,0,0,0-.86-1.46,15.31,15.31,0,0,0-2-1.41c-.73-.44-1.4-.81-2-1.1a6,6,0,0,1-1-.54c-.41.16-.75.89-1,2.19a22.78,22.78,0,0,1-1.4,4.21A12.23,12.23,0,0,1,575.35,17,7.54,7.54,0,0,1,570,18.79a1.58,1.58,0,0,1-1.15-.31,2.68,2.68,0,0,1-.49-.61c-.13-.2-.27-.4-.43-.61a1,1,0,0,0-.85-.3,4.07,4.07,0,0,0-2.57,1l1.59.74c-.9.89-1.91,1.81-3.05,2.74a5.79,5.79,0,0,1-3.78,1.4,4.18,4.18,0,0,1-2.08-.48,4.07,4.07,0,0,0-2.07-.49,5.63,5.63,0,0,0-1.34.18c-.49.12-.73.51-.73,1.16a3.25,3.25,0,0,0,.73,2.2,5.86,5.86,0,0,0,1.83,1.4,7.48,7.48,0,0,0,2.32.73,15.79,15.79,0,0,0,2.31.18,2.32,2.32,0,0,0,1.47-.48,6.41,6.41,0,0,0,1.1-1.16,6.92,6.92,0,0,1,1-1.16,2,2,0,0,1,1.41-.49h.85a5.13,5.13,0,0,1,1.28.43,7.63,7.63,0,0,0,1.16.42.94.94,0,0,0,1-.73,15.18,15.18,0,0,0,.3-1.64,5.94,5.94,0,0,1,.49-1.71,1.44,1.44,0,0,1,1.46-.8Zm-26,26.6a9.56,9.56,0,0,0-1.4.12,1.22,1.22,0,0,0-1,.86h2.44Zm5,55a.49.49,0,0,0-.13-.36,8.41,8.41,0,0,1-1-.31c-.61-.2-1.08-.34-1.41-.43a.69.69,0,0,0-.48-.12.5.5,0,0,0-.37.12l-1.83,1.41a2,2,0,0,0-.73,1.77,2.12,2.12,0,0,0,.12.85,25.55,25.55,0,0,0,2.93-.85,10.27,10.27,0,0,0,2-.92C561.87,102.79,562.18,102.4,562.18,102Zm-1.47-90.4c0-.16,0-.47-.06-.92s-.1-.91-.18-1.4A4.78,4.78,0,0,0,560,7.93a1.24,1.24,0,0,0-.79-.73.71.71,0,0,0-.49.12c-.33.08-.57.37-.73.85-.08,0-.12.13-.12.37a3.22,3.22,0,0,0,.79,2.07A2.46,2.46,0,0,0,560.71,11.59Zm-2,6.34q1.95-.24,2-1.83a3.15,3.15,0,0,0-1.28.31,1.05,1.05,0,0,0-.67,1Zm12-9.76a19.43,19.43,0,0,1-.19,2.14,14,14,0,0,0,0,3.17,8.56,8.56,0,0,0,.8,2.87,2.33,2.33,0,0,0,2.31,1.22c0-.33,0-1-.06-2s-.1-2.07-.18-3.17-.18-2.07-.3-2.92-.27-1.29-.43-1.29ZM571,62.59c.24-.08.37-.33.37-.74A1,1,0,0,0,571,61c-.24-.16-.37.1-.37.79S570.72,62.75,571,62.59ZM571.81,22c-.48,0-.75.2-.79.61s-.06.73-.06,1a30.74,30.74,0,0,0,.31,3.41,44.39,44.39,0,0,0,.91,5,23.65,23.65,0,0,0,1.53,4.52c.6,1.3,1.32,2,2.13,2s1.42-.71,2.07-2.14a41.11,41.11,0,0,0,1.83-4.87,49.89,49.89,0,0,0,1.35-5.31,24.22,24.22,0,0,0,.48-3.3.75.75,0,0,0-.85-.85Zm8.91,44.41c-.24,0-.69,0-1.34-.06a15.86,15.86,0,0,0-2,0,4.27,4.27,0,0,0-1.77.48,1.6,1.6,0,0,0-.8,1.53h5.86Zm-3.17,36.11a.44.44,0,0,0,.36-.43q0-.3-.36-.42c-.25,0-.37.16-.37.48S577.3,102.56,577.55,102.48Zm17.81-16.23a.37.37,0,1,1-.73,0q-.12-.36.36-.36C595.32,85.89,595.44,86,595.36,86.25Zm.85,1.59c-.4,0-.61-.26-.61-.79s.21-.8.61-.8.61.27.61.8S596.62,87.84,596.21,87.84ZM597.07,57c-.41,0-.61-.28-.61-.85s.2-.85.61-.85.61.28.61.85S597.47,57,597.07,57Zm0,30.87a.49.49,0,0,1,.36-.12c.25,0,.37,0,.37.12a31.93,31.93,0,0,1,3.29,3.29c.08,0,.13.13.13.37a.52.52,0,0,1-.13.37Zm.73-32.57c-.41,0-.61-.27-.61-.8s.2-.79.61-.79.61.26.61.79S598.21,55.27,597.8,55.27Zm.85-1.59c-.4,0-.61-.26-.61-.79s.21-.8.61-.8.61.27.61.8S599.06,53.68,598.65,53.68Zm.86-1.59c-.41,0-.61-.28-.61-.85s.2-.85.61-.85.61.28.61.85S599.91,52.09,599.51,52.09Zm.73-1.7c-.41,0-.61-.27-.61-.8s.2-.79.61-.79.61.27.61.79S600.65,50.39,600.24,50.39ZM602,66.73a1,1,0,0,1-.86-1V64.42a25.58,25.58,0,0,1,.13-2.87,14.57,14.57,0,0,1,.73-3Zm0,26.84c-.41,0-.61-.28-.61-.85s.2-.85.61-.85.61.28.61.85S602.35,93.57,602,93.57ZM602.31,48a1.08,1.08,0,0,1,1,.55,2.36,2.36,0,0,1,.31,1.15,1.75,1.75,0,0,1-.13.74L602,48Zm.37-31.72c-.41,0-.61-.27-.61-.8s.2-.79.61-.79.61.27.61.79S603.09,16.23,602.68,16.23Zm0,52.09c-.24.08-.37,0-.37-.37s.13-.48.37-.48.37.22.37.42S602.92,68.24,602.68,68.32Zm0,26c-.24.08-.37,0-.37-.37s.13-.45.37-.37a.37.37,0,1,1,0,.74Zm.85-24.4c-.4,0-.61-.27-.61-.8s.21-.79.61-.79.61.26.61.79S603.94,69.91,603.53,69.91Zm0,26.84c-.4,0-.61-.27-.61-.8s.21-.79.61-.79.61.26.61.79S603.94,96.75,603.53,96.75Z"/><path class="cls-1" d="M728,96a13.23,13.23,0,0,1-4.45,3.66,13.47,13.47,0,0,0-4.45,3.66,11.11,11.11,0,0,0-1.22,2.32l-1.53,3.54a24.6,24.6,0,0,1-1.7,3.29c-.62,1-1.16,1.47-1.65,1.47a13.6,13.6,0,0,1-6.59-1.89,39.56,39.56,0,0,1-6.77-4.82q-3.36-2.92-6.47-6.22t-5.79-6.23q-2.69-2.92-4.7-4.81c-1.34-1.27-2.38-1.9-3.11-1.9v24.16a1.93,1.93,0,0,1-.85,1.52,11.3,11.3,0,0,1-2,1.23,12.51,12.51,0,0,1-2.25.85c-.78.2-1.37.34-1.77.43a9.15,9.15,0,0,0-.49-3c-.32-.94-.67-1.85-1-2.75s-.73-1.79-1.1-2.68a9.81,9.81,0,0,1-.67-2.93h-.36c-1.3,0-2.14.37-2.5,1.1a5.58,5.58,0,0,0-.55,2.56,4.48,4.48,0,0,0,.61,2.44,18.2,18.2,0,0,0,1.4,2,14.9,14.9,0,0,1,1.4,2,4.78,4.78,0,0,1,.61,2.5,19.6,19.6,0,0,1-2.56-.13,10,10,0,0,1-1.46-.3l-1.28-.37a7.08,7.08,0,0,0-1.77-.18v1.71l-3.3-.25a2.21,2.21,0,0,1-.54-.42c-.21-.21-.31-.35-.31-.43V103.58c1.3,0,2.05-.31,2.26-.92a8.82,8.82,0,0,0,.3-2.62V97.91a2.38,2.38,0,0,0-.85-1.9l-1.71.74c.08-.74,0-1.2-.37-1.41a2.27,2.27,0,0,0-1.22-.3,6.27,6.27,0,0,0-3.72,1.16,6.51,6.51,0,0,1-3.84,1.16c0,.89-.77,1.93-2.32,3.11a45.51,45.51,0,0,1-5.92,3.72q-3.6,1.95-8,3.84t-8.6,3.36c-2.8,1-5.34,1.77-7.62,2.37a21.52,21.52,0,0,1-5.13.92c-.65,0-1-.24-1.15-.73a5.7,5.7,0,0,1-.19-1.47c0-.48.83-1.36,2.5-2.62s3.76-2.77,6.29-4.51,5.22-3.74,8.11-6,5.59-4.55,8.11-7A43,43,0,0,0,642,85a13.36,13.36,0,0,0,2.5-7.32h-21a4.91,4.91,0,0,0-.73-2.56,2.41,2.41,0,0,0-2.2-1.22c-1,0-1.54.35-1.7,1a9.43,9.43,0,0,0-.25,2.26h-5.37c-.08,0-.22-.11-.42-.31s-.35-.34-.43-.43L612.2,72h45.87V61.85c0-.08-.1-.22-.31-.42a2.13,2.13,0,0,0-.55-.43h-.85l-9.76,4H645a3.7,3.7,0,0,0,1.16-1.22,3,3,0,0,0,.55-1.59.53.53,0,0,0-.12-.37,2.45,2.45,0,0,1-1.53.8c-.52,0-1.07.06-1.64.06l-1.71-.12.85-3.18a3.16,3.16,0,0,0,.74.43,2.45,2.45,0,0,0,.85.31,7.18,7.18,0,0,0,4.45-2,28.51,28.51,0,0,0,4.64-4.94,55.68,55.68,0,0,0,4.33-6.77q2.07-3.78,3.66-7.38a57,57,0,0,0,2.5-6.65,17.88,17.88,0,0,0,.92-4.76l-.13-2.44a.75.75,0,0,0-.85-.85H649.9q-1.23,0-3.18,2.93a54.52,54.52,0,0,0-3.78,6.77,74.71,74.71,0,0,0-3.17,7.69,19.33,19.33,0,0,0-1.34,5.79l.12,2.07a6.76,6.76,0,0,0,.43,1.16c.28.69.38,1.12.3,1.28a2.25,2.25,0,0,1-1,1.1c-.57.41-1.18.84-1.83,1.28a15.38,15.38,0,0,0-1.82,1.47,2.62,2.62,0,0,0-.62,3.41c.33.69.7,1.41,1.1,2.14s.79,1.36,1.16,1.89a3.77,3.77,0,0,1,.55.91,2.36,2.36,0,0,0,.31.49,3.81,3.81,0,0,1,.3.49,4.86,4.86,0,0,0,.24.61,1.4,1.4,0,0,1-.91,1.22,7.52,7.52,0,0,1-2.13.73c-.82.17-1.59.29-2.32.37s-1.27.12-1.59.12a14.47,14.47,0,0,1-2.87-.37,15.46,15.46,0,0,1-3.35-1.09,9.44,9.44,0,0,1-2.75-1.9,3.74,3.74,0,0,1-1.16-2.74v-.37a11.44,11.44,0,0,1,.13-1.34q.12-1,.24-2t.24-2a7.66,7.66,0,0,1,.25-1.28,2.72,2.72,0,0,1,1.28,2.13,17.4,17.4,0,0,1,.3,2h.86a2.1,2.1,0,0,0,1.83-.85,3.25,3.25,0,0,0,.61-2,7,7,0,0,0-.19-1.28,15.43,15.43,0,0,0-.48-1.83,14.48,14.48,0,0,0-.67-1.65c-.25-.49-.49-.73-.74-.73a.49.49,0,0,0-.36.12,10.2,10.2,0,0,0-1.28,1.16,11,11,0,0,0-1.16,1.28,5.92,5.92,0,0,0-1.71-2.62A35.44,35.44,0,0,0,617,48.68c-.93-.73-1.78-1.41-2.56-2s-1.16-1.12-1.16-1.53v-.37a1.5,1.5,0,0,1,.86-.85,34.72,34.72,0,0,0,4.88-.67,25.83,25.83,0,0,0,5.18-1.65,15.75,15.75,0,0,0,4.46-2.93,8.69,8.69,0,0,0,2.56-4.51h-9c-.73,0-1.67-.75-2.8-2.26a41.54,41.54,0,0,1-3.3-5.12,51.68,51.68,0,0,1-2.68-5.55,12.8,12.8,0,0,1-1.1-3.42,1.25,1.25,0,0,1,.79-1.22,6.39,6.39,0,0,1,1.77-.49,7.47,7.47,0,0,1,1.89,0,10.08,10.08,0,0,0,1.28.13,25.85,25.85,0,0,1,6.65.85,25.45,25.45,0,0,0,6.53.85H632a23.82,23.82,0,0,0-3.6-7.13,39.88,39.88,0,0,0-5.31-5.92,2.12,2.12,0,0,1-.12-.85q0-1.23,1.47-1.71a14.64,14.64,0,0,1,3.23-.67A24.2,24.2,0,0,1,631,1.52l1.83.07c1.3,0,2.81.08,4.52.24A17,17,0,0,1,642.15,3a10.08,10.08,0,0,1,3.78,2.62,6.52,6.52,0,0,1,1.52,4.52,8.72,8.72,0,0,1-1.22,4.75A9.11,9.11,0,0,1,643,18a12.56,12.56,0,0,1-4.45,1.52,16.63,16.63,0,0,1-4.88,0,10.76,10.76,0,0,1,1.83,4.27,33.64,33.64,0,0,1,.61,4.64.49.49,0,0,0,.36.12c.25,0,.37,0,.37-.12s.22-.1.43-.31l.42-.43q.38-.48,1.89-2.31t3.3-3.91q1.77-2.07,3.35-3.84a21.75,21.75,0,0,1,2.08-2.14,10,10,0,0,1,1.46-1.64q1-.91,1.89-1.83l2.26-2.26h2.93a5.8,5.8,0,0,1-.43,2.26c-.28.69-.59,1.36-.91,2s-.63,1.32-.92,2a5.72,5.72,0,0,0-.43,2.14,73,73,0,0,1,9.22.61,71,71,0,0,0,9,.61,3.44,3.44,0,0,0-2.19-3.17,21.56,21.56,0,0,0-4-1.59c0-.41,0-1.16-.12-2.26s-.17-2.25-.25-3.47-.16-2.36-.24-3.42-.12-1.79-.12-2.2v-1a5.43,5.43,0,0,1,.06-.86c0-.24.26-.44.67-.61l3.66-.12c.57,0,2,.06,4.21.19s4.57.26,7,.42,4.64.35,6.59.55,2.93.39,2.93.55V4.88l-4.14,4a4.5,4.5,0,0,1-1-1.29c-.36-.61-.73-1.26-1.09-1.95a14.87,14.87,0,0,0-1.1-1.77,1.6,1.6,0,0,0-1.28-.73c-.73,0-1.12.33-1.16,1s-.06,1.22-.06,1.71a4.2,4.2,0,0,0,1.65,3.41A5.67,5.67,0,0,0,686,10.61v7.32h3.68c.16-.24.54-.75,1.16-1.52s1.35-1.61,2.21-2.5a18.12,18.12,0,0,1,2.75-2.38,5,5,0,0,1,2.83-1,2.72,2.72,0,0,1,.85.12q3.32,2.45,7.18,5.25a38.08,38.08,0,0,1,6.66,6.1L710,25.25V40.63c0,.57.41.87,1.22.91l1.46.06a4.72,4.72,0,0,0,2.63-.61,7.4,7.4,0,0,0,2-2.8,10.73,10.73,0,0,1,3.78,4.63,15.69,15.69,0,0,1,1.1,6,11.32,11.32,0,0,1-.37,1.65,11.83,11.83,0,0,0-.36,1.64,3.73,3.73,0,0,0-.19,1q-.06.79-.06,1.77t.06,1.83a2.39,2.39,0,0,0,.19,1,17.83,17.83,0,0,1-7.26,1.64c-2.56,0-5.06.06-7.5.06h-3.91a25.72,25.72,0,0,1-5.24-.55A12.33,12.33,0,0,1,693,57a4.67,4.67,0,0,1-2-4.14V25.25c0-.08-.17-.22-.49-.42s-.57-.35-.73-.43l-1.71-.85h-.37q-1.83,0-3.47,2.8a47.14,47.14,0,0,0-3.11,6.47q-1.47,3.66-2.93,7.32a17.9,17.9,0,0,1-3.05,5.37c-.41.48-1.14,1.28-2.2,2.37s-2.19,2.26-3.41,3.48-2.38,2.36-3.48,3.42-1.89,1.79-2.38,2.19c.16.41,1.14.78,2.93,1.1s3.8.63,6,.92,4.39.53,6.46.73,3.44.35,4.09.43a2.72,2.72,0,0,1,.12.85,3.14,3.14,0,0,1-.67,2.13,11.93,11.93,0,0,1-1.46,1.47,12.67,12.67,0,0,0-1.47,1.46,3.06,3.06,0,0,0-.67,2v.67a7.06,7.06,0,0,0,.12,1.22,6.89,6.89,0,0,0,.31,1.16c.12.32.3.48.55.48h20.25a3.41,3.41,0,0,0,2.13-1.34,32.9,32.9,0,0,0,2.57-3l2.44-3.29a9,9,0,0,1,1.89-2.08q0-.12.36-.12a5.54,5.54,0,0,1,2.08.79c1,.53,2.09,1.21,3.35,2s2.55,1.73,3.85,2.74,2.5,2,3.6,3a36.76,36.76,0,0,1,2.74,2.81,3.66,3.66,0,0,1,1.1,2v.49a3.85,3.85,0,0,1-.86.85,4.61,4.61,0,0,0-1.83-2.92,5.81,5.81,0,0,0-3.05-.74v4.4H697.11a3.65,3.65,0,0,1,1.95-1.29c.89-.28,1.81-.52,2.75-.73s1.74-.4,2.43-.61,1-.55,1-1a.94.94,0,0,0-.73-1,6.14,6.14,0,0,0-1.46-.18,6,6,0,0,0-1.53.18,2.46,2.46,0,0,0-1.28,1H680.64l-.73,1.22a4.49,4.49,0,0,0,1.89,1,16.33,16.33,0,0,0,2.13.37c.73.08,1.45.18,2.14.3a4.56,4.56,0,0,1,1.91.8L686.5,78a1.48,1.48,0,0,0-1,1.34c0,1.06.88,2.13,2.63,3.23a37.43,37.43,0,0,0,6.73,3.18c2.73,1,5.75,2,9,2.92s6.47,1.79,9.49,2.56,5.71,1.43,8.07,2,4,.91,4.9,1.16a5.18,5.18,0,0,0-3.48,1.7,19.89,19.89,0,0,0-2.26,3.18.51.51,0,0,0,.37.12,6.68,6.68,0,0,0,1.59-.31,10.76,10.76,0,0,0,2.13-.85,7.45,7.45,0,0,0,1.77-1.28,2,2,0,0,0,.61-1.71ZM620.61,111.39a6.73,6.73,0,0,0-1-1.77,2,2,0,0,0-1.71-.8,5.32,5.32,0,0,0,.3,1.89c.21.53.72.8,1.53.8A2.08,2.08,0,0,0,620.61,111.39Zm4-5.62c.41,0,.61-.28.61-.85s-.2-.85-.61-.85-.61.28-.61.85S624.23,105.77,624.64,105.77Zm.85.74c.17.73.33,1.4.49,2s.65.91,1.47.91c0-1.87-.66-3.09-2-3.66ZM642.7,5.73a1.94,1.94,0,0,0-.55-1.4,3.19,3.19,0,0,0-1.34-.79,7.52,7.52,0,0,0-1.65-.31q-.85-.06-1.47-.06a10.65,10.65,0,0,0-2.5.25c-.69.16-1,.81-1,2H636q1.1,0,2.31.06a15.33,15.33,0,0,1,2.38.3,5.33,5.33,0,0,1,1.89.74A1.75,1.75,0,0,0,642.7,5.73Zm-4.15,88.58a4.25,4.25,0,0,0-.8.12c-.36.08-.77.18-1.21.3a7.15,7.15,0,0,0-1.29.49,1.83,1.83,0,0,0-.85.79,1,1,0,0,0,.91.8c.45,0,.84.06,1.16.06a3.12,3.12,0,0,0,1.53-.31c.37-.2.55-.67.55-1.4ZM641,65.88V65l2.44.85Zm9-44.77a1.77,1.77,0,0,0-.12-.74,2.83,2.83,0,0,0-1.71,2.44,1.77,1.77,0,0,0,.12.74A2.84,2.84,0,0,0,650,21.11Zm.73-5.62v2.44a1.21,1.21,0,0,0,.85-1.09,10.3,10.3,0,0,0,.12-1.35Zm17.93,48.68c0-.49-.36-1-1.1-1.46a19.89,19.89,0,0,0-2.5-1.41,20.21,20.21,0,0,0-2.8-1.09,7.88,7.88,0,0,0-2-.43,4.37,4.37,0,0,0,.61,1.77c.41.77.88,1.57,1.41,2.38A12.89,12.89,0,0,0,663.92,66c.57.57,1,.86,1.35.86a5.17,5.17,0,0,0,2.31-.55A2.15,2.15,0,0,0,668.68,64.17Zm-3.29,20.38a3.58,3.58,0,0,0-.8-.43,2.93,2.93,0,0,0-.91-.31c-.08,0-.22.11-.43.31s-.3.35-.3.43Zm10.4-3.18a13.69,13.69,0,0,0,.48-1.64,12.14,12.14,0,0,0,.36-1.65c0-.08-.22-.32-.66-.73s-.73-.69-.89-.86a.69.69,0,0,0-.48-.12.49.49,0,0,0-.36.12,15.92,15.92,0,0,1-2.36,6.1c-1,1.39-2.93,2.32-5.76,2.81.4.41.88.94,1.45,1.59a19.56,19.56,0,0,0,1.87,1.89,13,13,0,0,0,2.17,1.58,4.4,4.4,0,0,0,2.23.67,5.92,5.92,0,0,0,2.36-.55,1.92,1.92,0,0,0,1.27-1.89,5.66,5.66,0,0,0-.84-3,5.61,5.61,0,0,1-.84-3Zm-.64-37.45c.4,0,.61-.26.61-.79s-.21-.8-.61-.8-.61.27-.61.8S674.74,43.92,675.15,43.92Zm30-26a1.86,1.86,0,0,0-.55-1.76,10.81,10.81,0,0,0-1.89-1.71,17.08,17.08,0,0,0-2.32-1.41l-1.71-.85c-.48.33-1.3.85-2.44,1.59a3.07,3.07,0,0,0-1.7,2.56,3.3,3.3,0,0,0,.73,2.13A6.23,6.23,0,0,0,697.11,20a9.11,9.11,0,0,0,2.32.91,8.79,8.79,0,0,0,2.19.31,2,2,0,0,0,1-.37,6.43,6.43,0,0,0,1.16-.91,13.43,13.43,0,0,0,1-1.1A1.62,1.62,0,0,0,705.16,17.93Zm-1.59,32.46H702a1.63,1.63,0,0,0,1.58,1.09ZM722.73,32c-1.14,0-1.85.19-2.14.55a26.94,26.94,0,0,0-1.52,2.5.69.69,0,0,1-.12-.48,6.41,6.41,0,0,1,.85-2.87A2.66,2.66,0,0,1,722.24,30a2.08,2.08,0,0,1,.85.12,22.69,22.69,0,0,0,1,4.95c.53,1.58,1.08,3.15,1.65,4.69s1.08,3.07,1.52,4.58A15.45,15.45,0,0,1,728,48.8a15.68,15.68,0,0,1-.48,3.6,4.32,4.32,0,0,1-2,2.87V54.9a10.05,10.05,0,0,1,.43-3,10.77,10.77,0,0,0,.43-3.11,12.71,12.71,0,0,0-.43-3.66c-.29-.89-1.36-1.83-3.23-2.81Z"/><path class="cls-1" d="M828.87,30.13a4.6,4.6,0,0,0,4,2.5,57.31,57.31,0,0,0,6.23.31,62.38,62.38,0,0,1,6.4.31,5.75,5.75,0,0,1,4.51,2.5.75.75,0,0,1-.85.85,32.66,32.66,0,0,1-6.77-.73,33.87,33.87,0,0,0-7-.73V36c.57,0,1.29,0,2.14.06a8,8,0,0,1,2.44.49,5,5,0,0,1,2,1.28,3.45,3.45,0,0,1,.79,2.44v.37c-.24.57-.61,1.42-1.09,2.56l-1.47,3.41c-.49,1.14-1,2.18-1.4,3.11a4.56,4.56,0,0,1-.92,1.53,1.92,1.92,0,0,0-.18-1.83,5.7,5.7,0,0,0-1.46-1.53,7.27,7.27,0,0,0-2-1,5.84,5.84,0,0,0-1.83-.37,5.8,5.8,0,0,0,.62,3.11c.4.61,1.5,1.16,3.29,1.65v.85L830.82,57V91.62a3,3,0,0,0-1.59.73,24.18,24.18,0,0,0-2,1.71A18.82,18.82,0,0,0,825.45,96a2.79,2.79,0,0,0-.73,1.28c0,.57,1,1.1,2.93,1.59s4.1,1.16,6.46,2a28.75,28.75,0,0,1,6.47,3.3,6.17,6.17,0,0,1,2.93,5.3,5.75,5.75,0,0,1-1.22,3.79,9.35,9.35,0,0,1-3,2.37,14,14,0,0,1-4,1.29,23.86,23.86,0,0,1-4,.36,12.94,12.94,0,0,1-3.84-1.22c-1.92-.81-4.17-1.85-6.78-3.11s-5.36-2.64-8.29-4.15-5.72-3-8.36-4.33-5-2.62-6.95-3.72L793,98.45V97.6a7.37,7.37,0,0,1,.43-1c.2-.4.34-.61.42-.61h16.23a.76.76,0,0,0,.85-.67,6.47,6.47,0,0,0,.13-1,1.32,1.32,0,0,0-.67-1.16,5.59,5.59,0,0,0-1.53-.67,12.06,12.06,0,0,0-1.65-.37,8,8,0,0,1-1.16-.24,3.4,3.4,0,0,1,.68-.86c.44-.49,1-1,1.58-1.58s1.16-1.1,1.65-1.59a5.57,5.57,0,0,1,1-.85V80.15H794.71c.32-.56.55-1,.67-1.22a1.5,1.5,0,0,0,.18-.67,2.21,2.21,0,0,0-.12-.67,3.75,3.75,0,0,1-.12-1.1h-7.2c-.08,0-.22.11-.43.31s-.3.35-.3.43a7.11,7.11,0,0,0,.3,1.46c.21.73.35,1.22.43,1.46H774.33v8.06h29.28a8.23,8.23,0,0,0-1,4.14H785a2,2,0,0,0-.86.43,3.5,3.5,0,0,0-.85.79v.74a5,5,0,0,1,.49.85,4,4,0,0,1,.36.85,6.83,6.83,0,0,1-3.47,5.13,7.65,7.65,0,0,1-6.29.49,4.28,4.28,0,0,0-.85.85v.85q2.19,1.23,3.54,1.83a8.19,8.19,0,0,0,3.41.61,5,5,0,0,0,2-.48,9.71,9.71,0,0,0,2-1.22,6.68,6.68,0,0,0,1.52-1.71,3.62,3.62,0,0,0,.61-2V100a15.45,15.45,0,0,0-.79-1.65,14.74,14.74,0,0,1-.79-1.64h.36a8.26,8.26,0,0,1,2.69.73,29,29,0,0,1,3.72,1.83,18.43,18.43,0,0,1,3.29,2.38,3.45,3.45,0,0,1,1.41,2.38q0,1.22-3.66,2.8a71.68,71.68,0,0,1-9.4,3.17q-5.73,1.59-12.56,3.18T757.68,116c-4.19.81-7.93,1.47-11.22,2a56,56,0,0,1-6.77.74,9.94,9.94,0,0,1-2-.19,1.13,1.13,0,0,1-1-1.28c0-1,.67-1.87,2-2.68a32.24,32.24,0,0,1,4.94-2.38c1.95-.77,4.11-1.53,6.47-2.26a60.88,60.88,0,0,0,6.47-2.38,24.7,24.7,0,0,0,4.94-2.8,4.28,4.28,0,0,0,2-3.36q-.5,0-1.53.06l-2.13.13-2.14.12a4.49,4.49,0,0,1-1.4-.06,3.91,3.91,0,0,1-1.16-.31c-.53-.2-.79-.34-.79-.43V47.46a6.33,6.33,0,0,0-3.48,1A32.29,32.29,0,0,0,748,50.57c-.93.77-1.87,1.48-2.8,2.13a5.11,5.11,0,0,1-3,1c-.81,0-1.71-.79-2.69-2.38a44.82,44.82,0,0,1-2.8-5.43,55.28,55.28,0,0,1-2.26-6,16.31,16.31,0,0,1-.91-4.14A1.72,1.72,0,0,1,734.68,34a11.35,11.35,0,0,1,2.2-.73q10.49-.86,17.69-1.77a32.29,32.29,0,0,0,12.26-3.85,23.2,23.2,0,0,0,8.48-9q3.42-6,6.34-17.14a1.15,1.15,0,0,1,.68-.74,3.28,3.28,0,0,1,.91-.12l.85.12L800.32,4c.81.16,1.71.34,2.68.55a1.71,1.71,0,0,1,1.47,1.89,2,2,0,0,1-1,1.89c-.65.36-1.38.75-2.19,1.16A8.9,8.9,0,0,0,799.1,11a3.6,3.6,0,0,0-1,2.75h26.6a3.21,3.21,0,0,0,2.44-1c.65-.69,1.3-1.42,2-2.2s1.32-1.5,2-2.19a3.55,3.55,0,0,1,2.62-1h.73c.24.24.67.63,1.28,1.16s1.28,1.1,2,1.71,1.41,1.18,2,1.71,1,.91,1.28,1.15.61.57,1.1,1a1.88,1.88,0,0,1,.73,1.46h-1.22a3.82,3.82,0,0,0,.43,2,7.88,7.88,0,0,0,.91,1.28,13.4,13.4,0,0,1,.92,1.16,3,3,0,0,1,.42,1.7.5.5,0,0,1-.12.37c-.41.24-1,.59-1.83,1l-2.62,1.4A20.08,20.08,0,0,1,837,25.62a7.59,7.59,0,0,1-2.5.49,2.19,2.19,0,0,1-1.22-.31,7.52,7.52,0,0,1-1-.73,7.69,7.69,0,0,0-1-.73,2.3,2.3,0,0,0-1.22-.31,3.53,3.53,0,0,1-.18,1.22,4.15,4.15,0,0,0-.25.86.88.88,0,0,0,.25.73,4.15,4.15,0,0,0,1.4.85ZM769.45,17.45a9,9,0,0,1-2.86,6.77A9.46,9.46,0,0,1,759.82,27q-1.83,0-4.88-2.68A51.63,51.63,0,0,1,749,18a62.39,62.39,0,0,1-5.06-7.14q-2.14-3.54-2.14-5.25a1.24,1.24,0,0,1,1.1-1.4A12.79,12.79,0,0,1,744.93,4a65.34,65.34,0,0,1,7.26.48,33.26,33.26,0,0,1,8,2,18.58,18.58,0,0,1,6.53,4.08A9.21,9.21,0,0,1,769.45,17.45Zm-22,30.5c0-1.3-.61-2-1.83-2a12,12,0,0,0,.13,1.59,1.3,1.3,0,0,0,.85,1.22A.75.75,0,0,0,747.49,48Zm6.71-5.62a10.19,10.19,0,0,0-1-4.14,5.46,5.46,0,0,0-4.15,2.44,2.37,2.37,0,0,0,2.2,1.52A28.32,28.32,0,0,0,754.2,42.33Zm12-19.52c0-.08-.41-.22-1.22-.42s-1.46-.35-2-.43a19.83,19.83,0,0,1-4.33-1,12.72,12.72,0,0,0-4.09-.79c0,.24,0,.69.06,1.34a6.17,6.17,0,0,0,.18,1.34c0,.09.13.23.37.43a1.23,1.23,0,0,0,.49.31h10.49Zm1.71,34.53A2.81,2.81,0,0,0,766.59,55a10.53,10.53,0,0,0-3.05-1.46,15.24,15.24,0,0,0-3.54-.67,15.46,15.46,0,0,0-2.75,0c-.89.16-1.4.59-1.52,1.28a11.11,11.11,0,0,0-.18,1.89,8.46,8.46,0,0,0,.3,2.44c.2.65.88,1,2,1a43.34,43.34,0,0,0,4.58-.24c1.5-.16,3-.37,4.57-.61a2.09,2.09,0,0,0,.86-.85Zm-4.15,11.83a2.42,2.42,0,0,0-1.77-1.4,10.05,10.05,0,0,0-2.26-.3c-1.62,0-2.62.51-3,1.52a10.56,10.56,0,0,0-.55,3.6,6.53,6.53,0,0,0,3.72-1.46A11.86,11.86,0,0,1,763.72,69.17Zm-2.07,22a7.79,7.79,0,0,1-2.75-.48,7.53,7.53,0,0,0-2.74-.49l.24,4.15a2.05,2.05,0,0,0,.43.54c.2.21.34.31.42.31a4.62,4.62,0,0,0,3-1.16A3.57,3.57,0,0,0,761.65,91.13Zm3.78,18.67-.92.06a14.43,14.43,0,0,0-1.7.24,7.1,7.1,0,0,0-1.65.55,1.17,1.17,0,0,0-.73,1.1,8.89,8.89,0,0,0,.24,2,1.23,1.23,0,0,0,1.34,1,2,2,0,0,0,1.47-.61,7.69,7.69,0,0,0,1.09-1.4,12.92,12.92,0,0,0,.86-1.65,6.44,6.44,0,0,1,.73-1.34Zm16.22-84.55a19.77,19.77,0,0,1-2.5,2.87q-1.77,1.77-4,3.72c-1.47,1.3-3,2.62-4.52,4s-3,2.54-4.27,3.6S764,41.34,763.23,42A6.53,6.53,0,0,0,762,43.19a1.3,1.3,0,0,0,.55,1,6,6,0,0,0,1.28.73,9.72,9.72,0,0,0,1.53.48,5.56,5.56,0,0,0,1.28.19.49.49,0,0,0,.36-.12L774.7,42A54.4,54.4,0,0,0,783.3,37a31.05,31.05,0,0,0,7-6.65,13.78,13.78,0,0,0,2.86-8.54,2.53,2.53,0,0,0-.3-1.34,3.19,3.19,0,0,0-1.41-1,1.12,1.12,0,0,0,.74-.73,4.11,4.11,0,0,0,.12-1,1.67,1.67,0,0,0-1-1.52c-.69-.37-1.46-.75-2.32-1.16a13.77,13.77,0,0,1-2.31-1.4,2.67,2.67,0,0,1-1-2.26,3.55,3.55,0,0,1,.79-2.32,15.25,15.25,0,0,1,1.77-1.83h-.37a11.77,11.77,0,0,0-6.89,1.77q-2.5,1.77-2.5,6.89a4.41,4.41,0,0,0,.43,2.2c.28.49.55.95.79,1.4a7,7,0,0,1,.61,1.71,8.48,8.48,0,0,1-.12,3.11ZM771.9,26c-.09,0-.23.1-.43.3a2.25,2.25,0,0,0-.43.55l-.24,2.56a6.78,6.78,0,0,0,1.52-.36c.77-.25,1.59-.53,2.44-.86a12.19,12.19,0,0,0,2.26-1.1c.65-.4,1-.77,1-1.09Zm39,28.54h-36.6V61h36.6Zm0,12.94h-36.6v6.58h36.6Zm-36.6,8.17v.85h.86Zm1.59,17.93-.73.74h.73Zm35-65.14h-1.58q-2,2.07-4.94,5.06a34.7,34.7,0,0,1-5.68,4.7.49.49,0,0,1-.36.12.71.71,0,0,1-.49-.12.86.86,0,0,1-.73-.74,5.51,5.51,0,0,1-2.26,3,18.07,18.07,0,0,1-3.48,1.83c-.57.17-1.54.47-2.92.92s-2.85,1-4.4,1.52-3,1.08-4.39,1.53-2.36.75-2.93.91l-.85,1.22h17.93v2a2.84,2.84,0,0,1,2.44-1.71,1.54,1.54,0,0,1,1.29.55,6.36,6.36,0,0,1,.73,1.22,5.72,5.72,0,0,0,.73,1.22,1.53,1.53,0,0,0,1.28.55V48.43h10.61l6.47-7ZM780.8,91.87a.86.86,0,0,0-.61-.74,4.11,4.11,0,0,0-1-.12,2.72,2.72,0,0,0-.85.12v.74Zm2.44-66.62c-.41,0-.61-.28-.61-.85s.2-.85.61-.85.61.28.61.85S783.65,25.25,783.24,25.25Zm2.44-2.44c-.08.09-.43-.2-1-.85s-1.08-1.18-1.4-1.59v-.85A1.51,1.51,0,0,1,785,17.81a2.25,2.25,0,0,1,1.95,1.1A3.51,3.51,0,0,0,789,20.37Zm12.2-13.9a20.82,20.82,0,0,0-2.2-3.36,4.24,4.24,0,0,0-3.41-1.89V4.88l4,4Zm6.59,12.2h-9.15a5.67,5.67,0,0,0,1.83,4,5.4,5.4,0,0,0,3.9,1.89,10.73,10.73,0,0,0,1.71-.12,9.82,9.82,0,0,0,1.16-.3c.37-.13.55-.31.55-.55ZM815,80.52c-.33.08-.57.37-.73.85H815a2,2,0,0,0,.85-.85Zm0-58.93a3.18,3.18,0,0,0,.61,1.77A9.74,9.74,0,0,0,817,25.07a7.67,7.67,0,0,0,1.83,1.28,4.05,4.05,0,0,0,1.83.49,2.66,2.66,0,0,0,2.44-1.77A7.33,7.33,0,0,0,824,22a5.44,5.44,0,0,0-.12-1,.69.69,0,0,0-.74-.61h-7.32c-.08,0-.22.11-.42.31s-.35.35-.43.43Zm5.73,29.16a5.68,5.68,0,0,0-1.34-4,5,5,0,0,0-3.9-1.47,29.78,29.78,0,0,0,.12,3.05,2.91,2.91,0,0,0,.61,1.65,2.28,2.28,0,0,0,1.53.67A27.74,27.74,0,0,0,820.69,50.75ZM821.91,42a4.54,4.54,0,0,0-1-2.93A3.54,3.54,0,0,0,818,37.82a4.23,4.23,0,0,0,1.1,2.93A3.6,3.6,0,0,0,821.91,42ZM828,15.49a.75.75,0,0,0-.85-.85,10,10,0,0,0-1.65.3,4.24,4.24,0,0,0-1.52.55,2.82,2.82,0,0,0,2.44,1.71,2,2,0,0,0,1.16-.3C827.87,16.69,828,16.23,828,15.49Zm-1.58,40.63a2.89,2.89,0,0,0-1.4,1,2.77,2.77,0,0,0-.31,1.4q0,1.83,1.71,1.83Zm21.1-35c-.4,0-.61-.25-.61-.74h-.24c-.41,0-.61-.28-.61-.85s.2-.85.61-.85.61.28.61.85h.24c.41,0,.62.26.62.79S847.94,21.11,847.53,21.11Z"/><path class="cls-1" d="M907,28.43a8.15,8.15,0,0,1-.92,1c-.44.45-.71.67-.79.67H854.85c-.57,0-.85-.36-.85-1.09v-2a7.89,7.89,0,0,1,.06-1,3.13,3.13,0,0,1,.25-.92.58.58,0,0,1,.54-.42h31.72c.25,0,.72-.41,1.41-1.22s1.44-1.73,2.25-2.75,1.57-2,2.26-2.87a19.83,19.83,0,0,1,1.41-1.7,12.1,12.1,0,0,1,3.72,2.13,47,47,0,0,1,3.66,3.3q1.76,1.75,3.23,3.41c1,1.1,1.79,2,2.44,2.62ZM880.11,57.34a6.53,6.53,0,0,0,1.16-1.22c.69-.81,1.42-1.69,2.19-2.62s1.81-2.22,3.11-3.85c.41-.48.65-.77.74-.85a1.62,1.62,0,0,1,.85-.12A7.26,7.26,0,0,1,891.52,50a25.79,25.79,0,0,1,4.08,3,31.69,31.69,0,0,1,3.42,3.6,5.43,5.43,0,0,1,1.46,3q0,2.93-3.29,2.93H861.32a1.31,1.31,0,0,1-1.16-.74,6.42,6.42,0,0,1-.67-1.7,10.92,10.92,0,0,1-.3-1.77c-.05-.53-.07-.88-.07-1Zm.73-16.23c.41-.73.85-1.58,1.34-2.56a31.71,31.71,0,0,1,1.59-2.8,11.93,11.93,0,0,1,1.89-2.32,3.12,3.12,0,0,1,2.13-1,5.93,5.93,0,0,1,3.3,1.47,45.42,45.42,0,0,1,3.9,3.29,46.21,46.21,0,0,1,3.42,3.54c1,1.14,1.62,1.91,2,2.32a2.72,2.72,0,0,1,.12.85,2.21,2.21,0,0,1-.91,1.89,3.52,3.52,0,0,1-2.14.67A2.84,2.84,0,0,1,895,44.65q-1-1.83-1.83-3.9c-.57-1.38-1.1-2.63-1.58-3.72s-1.06-1.53-1.71-1.28a4.74,4.74,0,0,0-2.5,2.31,6.81,6.81,0,0,0-.92,3.18,4,4,0,0,0,.06.61,3.68,3.68,0,0,1,.06.48l4,4H872.79A4.31,4.31,0,0,0,870.53,44a11.79,11.79,0,0,0-3.66-1,26.49,26.49,0,0,0-4-.18c-1.31,0-2.36.06-3.18.06V41.11Zm23.67,36.12.24,1.09a2.2,2.2,0,0,1-.42,1.47,3.7,3.7,0,0,1-1,.79c-.37.2-.75.43-1.16.67a3.45,3.45,0,0,0-1,.86v22.81c0,.57-.06,1.42-.18,2.56a15.64,15.64,0,0,1-.73,3.36,9.32,9.32,0,0,1-1.53,2.86,3.1,3.1,0,0,1-2.56,1.22l.12-1.09a3.38,3.38,0,0,1,.37-.8,4.39,4.39,0,0,1,.49-.79v-.85a1.46,1.46,0,0,0-.86-.74q-2.55,1-4.88,1.71a16.42,16.42,0,0,1-5,.73c-1.3,0-2.11-.26-2.44-.79a4.14,4.14,0,0,1-.55-2c0-.77-.06-1.59-.06-2.44a2.89,2.89,0,0,0-.85-2.14l-2.44-.12a5,5,0,0,0-.67.06,5.79,5.79,0,0,1-.79.06h-1a1.39,1.39,0,0,0-.79.31c-.29.2-.43.34-.43.43v6.58a1.91,1.91,0,0,1-.49.37l-.43.24a.62.62,0,0,1-.3.13,3.69,3.69,0,0,1-.92.55,3.51,3.51,0,0,1-.79.3h-.73l.67-1.52a1.9,1.9,0,0,0,.18-.68,1.57,1.57,0,0,0-.12-.55,3.64,3.64,0,0,1-.12-1.15,4,4,0,0,0-2.2.61c-.65.4-1.3.85-2,1.34s-1.3.93-2,1.34a4,4,0,0,1-2.2.61h-.49a9.56,9.56,0,0,1-1.4-.12l-1.58-.25a12.26,12.26,0,0,1-1.9-.48V77.23a3.08,3.08,0,0,0,2.44,1h2.57l2.31-.12.86-.85a9.85,9.85,0,0,1-1.95-2q-.86-1.15-1.77-2.19a11.49,11.49,0,0,0-2-1.77,4.25,4.25,0,0,0-2.51-.73V68.08a14.91,14.91,0,0,1,5.07.85q2.37.85,4.76,1.83c1.58.65,3.19,1.26,4.81,1.83a15.79,15.79,0,0,0,5.25.85h1a6.38,6.38,0,0,0,1.22-.12,10.79,10.79,0,0,0,1.46-.12L889,67.47h2.44Zm37.33-65.88a2.25,2.25,0,0,0,.85-.31l.86-.43L945.2,9c.77-.78,1.58-1.59,2.44-2.44s1.66-1.67,2.44-2.44a17.36,17.36,0,0,0,1.52-1.65,24.54,24.54,0,0,1,4.33,2.44q2.75,1.83,5.43,4A51,51,0,0,1,966,13c1.3,1.34,2,2.3,2,2.87a2.55,2.55,0,0,1-.92,2q-.91.79-1.95,1.59a12.37,12.37,0,0,0-2,1.89,4.63,4.63,0,0,0-.92,3V65a28.39,28.39,0,0,0,.55,5.61q.56,2.69,1.35,5.24t1.58,5c.53,1.58,1,3.11,1.4,4.57a5.38,5.38,0,0,1-.3,1.16,5.72,5.72,0,0,1-.55,1.28c0,.08-.12.12-.37.12-.65,0-1.22-.55-1.7-1.64A19.25,19.25,0,0,1,963,82.23c-.33-1.63-.61-3.42-.86-5.37s-.44-3.8-.61-5.55l-.42-4.58a9.53,9.53,0,0,0-.43-2.44c-.49-.89-.86-1.3-1.1-1.22a1.69,1.69,0,0,0-.61.37c-.16.16-.29.23-.37.18a6.17,6.17,0,0,1-.36-1.77A6.08,6.08,0,0,1,955.81,63c-1,.29-2,.61-3,1a14.2,14.2,0,0,0-2.56,1.22,2.11,2.11,0,0,0-1.1,1.89,3.4,3.4,0,0,0,1.28,2.68c.86.74,1.81,1.49,2.87,2.26a18.8,18.8,0,0,1,2.87,2.62,5.57,5.57,0,0,1,1.28,3.79,3.46,3.46,0,0,1-.8,2.44,14,14,0,0,1-1.76,1.58,9.55,9.55,0,0,0-1.77,1.71,4.36,4.36,0,0,0-.8,2.81A2.7,2.7,0,0,0,954,89.36a6.35,6.35,0,0,0,2.93.92,2.7,2.7,0,0,0,1.52-.43,3.85,3.85,0,0,1,3.24-.12c.4.2.61.67.61,1.4a2.09,2.09,0,0,1-1,1.71c-.69.49-1.46,1-2.32,1.59a11.34,11.34,0,0,0-2.32,2.07,4.74,4.74,0,0,0-1,3.17.5.5,0,0,0,.12.37,3.16,3.16,0,0,0,.36.79,3.13,3.13,0,0,1,.37.8.67.67,0,0,1-.43.67,3.39,3.39,0,0,1-.91.24,13.26,13.26,0,0,1-1.47.06c-1.62,0-2.9-1-3.84-3.11a32.44,32.44,0,0,1-2.19-7.14,77.39,77.39,0,0,1-1.16-7.93c-.25-2.6-.41-4.43-.49-5.49-.08-.56-.18-1.58-.31-3.05s-.28-3-.48-4.69-.39-3.24-.55-4.7-.29-2.48-.37-3l-1.59-1.59h-8.9l-1.71,1.59A104.24,104.24,0,0,1,922.44,91a86.06,86.06,0,0,1-17.93,22.88,20.46,20.46,0,0,1-2.62,2.13,5.52,5.52,0,0,1-3.12,1.16h-.85a23.69,23.69,0,0,1,4.45-4.09A27.64,27.64,0,0,0,907,109v-.74c-.08-.08-.29-.32-.61-.73s-.67-.85-1-1.34-.71-.91-1-1.28a5.1,5.1,0,0,1-.61-.79v-.37A24.74,24.74,0,0,1,905.18,96c1-3,2.15-6.24,3.42-9.69s2.39-7,3.41-10.62a38.39,38.39,0,0,0,1.53-10.43l-.13-2.68-.85-.74c-.65.09-1.48.17-2.5.25a14.23,14.23,0,0,1-2.93-.06,5,5,0,0,1-2.44-1,3,3,0,0,1-1-2.5,8.82,8.82,0,0,1,.13-1.22c.08-.57.32-.85.73-.85h8.9l.86-1.22a15.7,15.7,0,0,0,.91-2.2,7.89,7.89,0,0,0,.37-2c0-.65.08-1.41.12-2.26s.1-2,.18-3.35c.49.57,1.18,1.28,2.08,2.13a4,4,0,0,0,2.8,1.28,1.27,1.27,0,0,0,1.1-.49,2.64,2.64,0,0,0,.49-1.22,8.9,8.9,0,0,0,.12-1.46V44.53a1.93,1.93,0,0,0-.73-1.65,4.15,4.15,0,0,0-1.77-.73,9.79,9.79,0,0,0-2.19-.12c-.78,0-1.41.06-1.9.06v-9a2.39,2.39,0,0,1,1.53.55,13.19,13.19,0,0,1,1.34,1.28,8.44,8.44,0,0,0,1.47,1.28,3.17,3.17,0,0,0,1.89.55,4.09,4.09,0,0,0,1.83-.49,1.73,1.73,0,0,0,1-1.7c0-.25-.38-.61-1.16-1.1s-1.64-1-2.62-1.59-1.91-1.1-2.81-1.58a9.93,9.93,0,0,1-1.58-1,2.71,2.71,0,0,1-.79-.43c-.29-.2-.43-.34-.43-.42V17.93l-1.22-1.22h-9.76l-2.44-2.07h-39.9c-.08,0-.22-.1-.42-.31a2.05,2.05,0,0,1-.43-.54,6.84,6.84,0,0,0-.37-1.1,4.83,4.83,0,0,1-.36-1.34c-.08,0-.12-.13-.12-.37s0-.37.12-.37a.49.49,0,0,1,.12-.36,1.31,1.31,0,0,0,.24-.37,2.17,2.17,0,0,1,.37-.49h19.52a5.07,5.07,0,0,0,1-1.09c.61-.74,1.07-1.35,1.4-1.83.73-.9,1.42-1.75,2.07-2.57q.85-1,1.59-1.89A4.41,4.41,0,0,1,888.16.85a.5.5,0,0,1,.37-.12,5.46,5.46,0,0,1,3.9,1.65A42.92,42.92,0,0,1,895.79,6a48.09,48.09,0,0,0,3.29,3.66,5.14,5.14,0,0,0,3.72,1.65Zm-81.25,35v-.85H863a5.37,5.37,0,0,0,.61-.07,6,6,0,0,1,1,0,4.85,4.85,0,0,1,1,.25.67.67,0,0,1,.49.67Zm3.17-18.67a.83.83,0,0,0-.3-.54c-.21-.21-.35-.31-.43-.31a2.05,2.05,0,0,0-1.34.49,1.48,1.48,0,0,0-.61,1.22A4.57,4.57,0,0,0,863.76,27.69Zm18.79,53.68-.86-1.7a5.26,5.26,0,0,1-.73-.13,5.35,5.35,0,0,0-1-.12c-.17,0-.47,0-.92.06a7,7,0,0,0-1.34.25,4,4,0,0,0-1.22.55,1.21,1.21,0,0,0-.55,1.09V100h6.59Zm-4.88-22h-.86v.74h.86Zm13.17,45.39a3.62,3.62,0,0,0-3.29,1.77,7,7,0,0,0-1.1,3.72,2.58,2.58,0,0,0,1.53-.61,7,7,0,0,0,1.4-1.47,11.38,11.38,0,0,0,1-1.77A4,4,0,0,0,890.84,104.8Zm6.71-24.28a4,4,0,0,0,1.83-.61c.74-.41,1.1-.89,1.1-1.46a.5.5,0,0,0-.12-.37,4.53,4.53,0,0,0-.73-.85,4.67,4.67,0,0,0-.86-.74q0-.12-.36-.12a4.07,4.07,0,0,0-1.83.61,1.76,1.76,0,0,0-1.1,1.47v.48a4.33,4.33,0,0,1,.85.8,4.12,4.12,0,0,0,.86.79Zm35.38-20.74a8.26,8.26,0,0,0-1-3.48,3,3,0,0,0-2.69-2,4.11,4.11,0,0,0-1.22.24,5.62,5.62,0,0,1-.61,4,17.3,17.3,0,0,1-2.31,2.87c-.9.89-1.73,1.79-2.5,2.68a5,5,0,0,0-1.16,3.42,3.64,3.64,0,0,0,1.7,3.29,25.53,25.53,0,0,0,2.63-2c1.1-.94,2.17-2,3.23-3a32.08,32.08,0,0,0,2.75-3.24A4.87,4.87,0,0,0,932.93,59.78Zm-10.61-5.25c.41,0,.61-.28.61-.85s-.2-.85-.61-.85-.61.28-.61.85S921.91,54.53,922.32,54.53Zm2.44-26.1c.08-.25,0-.37-.36-.37s-.45.12-.37.37a.37.37,0,0,0,.73,0Zm7.44-3.66a.5.5,0,0,0-.12-.37,1.46,1.46,0,0,0-.73-.85,1.66,1.66,0,0,0-.55.79,3,3,0,0,0-.31.91c0,.09.11.23.31.43a.87.87,0,0,0,.55.31,1.1,1.1,0,0,0,.73-.74A.69.69,0,0,0,932.2,24.77Zm10.13-8.54c1.79,0,3,.4,3.66,1.22a6.87,6.87,0,0,1,1.34,2.8c.24,1.06.49,2.08.73,3.05a2.65,2.65,0,0,0,2,1.95,3.42,3.42,0,0,0,.74-1.22,5.17,5.17,0,0,0,.12-1.22,7.27,7.27,0,0,0-1-3.72A11.63,11.63,0,0,0,947.15,16a16.28,16.28,0,0,0-3.54-2.19,9,9,0,0,0-3.72-.86,4.12,4.12,0,0,0-3.54,1.65,11,11,0,0,0-1.77,3.78,22.68,22.68,0,0,0-.67,4.33c-.08,1.47-.12,2.56-.12,3.3a25,25,0,0,0-.25,3.11q-.12,2.63-.24,6t-.24,6.77c-.09,2.27-.13,4.06-.13,5.36v1.35a4.77,4.77,0,0,0,.19,1.34c.12.41.46.61,1,.61a1.36,1.36,0,0,0,1.35-.92,1.41,1.41,0,0,1,1.46-.91l.85.12a1.78,1.78,0,0,1,.61.3,7.93,7.93,0,0,0,1,.55l1,.49a2,2,0,0,0,.61.25q0,.12.36.12c.25,0,.37,0,.37-.12a.73.73,0,0,0,.61-.37,1.31,1.31,0,0,0,.24-.37v-31l-2.44-2.44Zm17.32,31.11a7.56,7.56,0,0,0-.36-2.26,8.32,8.32,0,0,0-1-2.14,6.43,6.43,0,0,0-1.65-1.64,3.75,3.75,0,0,0-2.19-.67c-.41,0-1,.46-1.89,1.4a38,38,0,0,0-2.63,3.23,34,34,0,0,0-2.32,3.6,6.39,6.39,0,0,0-1,2.5,4.64,4.64,0,0,0,2.8-.79,16.12,16.12,0,0,0,2-1.71q.92-.91,1.77-1.71a2.91,2.91,0,0,1,2.07-.79,4.45,4.45,0,0,1,2.14.49A4.8,4.8,0,0,0,959.65,47.34Zm13.18,53.55c.32,1.47.55,2.73.67,3.79a33.93,33.93,0,0,1,.18,3.78,7.91,7.91,0,0,1-2.07,5.85,7.73,7.73,0,0,1-5.74,2.08,11.34,11.34,0,0,1-8.29-3.11,24,24,0,0,1-5.13-7.51,8.5,8.5,0,0,1,2.2-1.4,6.75,6.75,0,0,1,2.2-.3,5.35,5.35,0,0,1,3.47,1,6.62,6.62,0,0,1,2,2.63,10.68,10.68,0,0,1,.79,3.47,25.21,25.21,0,0,1,0,3.48c.08.65.51.95,1.28.91l1.52-.06q3.66,0,5-2.19a10.82,10.82,0,0,0,1.28-5.49,39.85,39.85,0,0,0-.49-6.22,38.89,38.89,0,0,1-.49-6.23,83.9,83.9,0,0,1,.49-9.15,86.2,86.2,0,0,0,.49-9.15L972,74.79l-.85-.74A1.72,1.72,0,0,1,972.83,73ZM958.92,28.43h-1a1.9,1.9,0,0,0,1,1.7ZM961.48,85a1,1,0,0,1-.55,1,2.9,2.9,0,0,1-2.31,0,1,1,0,0,1-.55-1,1.08,1.08,0,0,1,.55-1,2.31,2.31,0,0,1,2.31,0A1.08,1.08,0,0,1,961.48,85Zm3.17-68.32a1.9,1.9,0,0,0-.79-1.58,2.66,2.66,0,0,0-1.65-.61,1.26,1.26,0,0,0-1.09.49,3.19,3.19,0,0,0-.55,1.22,6,6,0,0,0-.19,1.46v1.22a9.71,9.71,0,0,0,2.63-.49C964.11,18.1,964.65,17.53,964.65,16.71Z"/></svg>