<?xml version="1.0" encoding="utf-8"?>
<!-- Generator: Adobe Illustrator 23.1.1, SVG Export Plug-In . SVG Version: 6.00 Build 0)  -->
<svg version="1.1" id="Layer_1" xmlns="http://www.w3.org/2000/svg" xmlns:xlink="http://www.w3.org/1999/xlink" x="0px" y="0px"
	 viewBox="0 0 973.7 118.8" style="enable-background:new 0 0 973.7 118.8;" xml:space="preserve">
<style type="text/css">
	.st0{fill:#FFFFFF;}
</style>
<title>logo2</title>
<path class="st0" d="M87.5,44c2,0,3.7-0.6,4.9-1.8c1.3-1.2,2.4-2.5,3.4-4c1-1.4,1.9-2.7,2.9-4c0.9-1.2,2.1-1.8,3.5-1.8
	c0.7,0,1.5,0.3,2.3,0.8s1.6,1.1,2.4,1.8s1.5,1.4,2.1,2.2c0.7,0.8,1.2,1.4,1.7,1.9c-0.2,0.2-0.8,0.8-1.6,1.6
	c-0.9,0.8-1.4,1.4-1.6,1.7c-0.2,0.2-0.3,0.4-0.5,0.9c-0.2,0.4-0.3,0.7-0.2,0.7l3.2,4.9l-1.6,0.9l-0.7,0.4c-0.2,0.1-0.3,0.2-0.5,0.4
	v62.7c0,0.8-0.7,1.5-2.2,2s-3.1,1-4.9,1.3s-3.6,0.5-5.2,0.7c-1.6,0.1-2.6,0.2-3.1,0.2l-2.9-0.1l-0.9-0.9V87.9l0.6-1.2l-1.3-36.2
	c0-0.1-0.1-0.2-0.4-0.4c-0.2-0.2-0.4-0.3-0.5-0.3c-0.1-0.1-0.4-0.1-1-0.1s-1.1,0-1.4,0c-0.2,0-0.6,0-1,0s-0.6,0-0.6,0.1l-0.9,1.6
	c-0.2,5.6-0.5,11-1,16.3C80,72.9,79.1,78,77.6,82.8c-1.4,4.8-3.4,9.5-6,13.8c-2.6,4.4-6.1,8.5-10.5,12.4c-0.5,0.7-1.3,1.4-2.4,2.4
	c-1.1,0.9-2.4,1.8-3.7,2.7c-1.3,0.9-2.6,1.6-3.8,2.3c-1.3,0.6-2.3,1-3,1c-1.1,0-1.7-0.6-1.7-1.7c0-1.8,0.5-3.5,1.5-5.2
	s2.2-3.3,3.4-4.9c1.3-1.6,2.5-3.3,3.6-4.9c1.1-1.7,1.8-3.4,2.1-5.3c0-0.2-0.1-0.4-0.3-0.9c-0.2-0.4-0.4-0.7-0.5-0.7
	c-0.2,0-0.9,0-2.1,0c-1.2,0-2.5-0.1-3.9-0.4c-1.4-0.2-2.6-0.7-3.8-1.2c-1.1-0.6-1.7-1.4-1.7-2.6c0-0.3,0-0.6,0.1-0.7l1.6,1.6
	c0.1,0.1,0.2,0.1,0.4-0.1c0.2-0.1,0.3-0.2,0.4-0.2c0-0.8-0.1-1.8-0.2-2.9c-0.1-1.1-0.5-2-1.3-2.6c-0.1-0.1-0.3,0-0.7,0.1l-0.5,0.4
	V88c-0.2-0.9-0.4-1.8-0.6-2.7c-0.2-0.9-0.4-1.8-0.6-2.5s-0.6-1.3-1-1.8c-0.4-0.4-1.1-0.7-1.9-0.7v32.1c0,0.1-0.3,0.3-0.8,0.7
	c-0.5,0.4-0.9,0.7-1.2,0.9c-0.1,0.1-0.2,0.1-0.5,0.1c-0.2,0-0.3,0-0.4-0.1l0.9-2.4v-0.4c0-0.7-0.3-1.2-0.8-1.5
	c-0.5-0.4-1.1-0.5-1.6-0.5c-0.4,0-0.9,0.1-1.6,0.2c-0.7,0.1-1,0.5-1,1c0,0.7,0.2,1.4,0.5,1.9s0.5,1.2,0.5,2c0,0.9-0.4,1.6-1.3,2.1
	c-0.9,0.5-1.9,0.9-3,1.2c-1.1,0.2-2.3,0.4-3.5,0.5s-2.1,0.1-2.6,0.1c-0.2,0-0.6,0-1.3-0.1c-0.7,0-1-0.3-1-0.8V96.1
	c0-0.1-0.2-0.2-0.5-0.4c-0.3-0.2-0.6-0.3-0.7-0.4h-0.9c-0.7,0.5-1.7,1.4-3,2.6c-1.4,1.3-2.9,2.5-4.6,3.8s-3.4,2.5-5.2,3.5
	s-3.3,1.5-4.6,1.5c-0.7,0-1.2-0.1-1.5-0.3C0.2,106.2,0,105.7,0,105v-0.9c1.7-2.2,3.6-4.6,5.6-7.3c2-2.7,3.9-5.5,5.6-8.4
	s3.2-5.8,4.3-8.8s1.7-5.9,1.7-8.8c0-0.3,0-0.6-0.1-0.9c-1.5,0-3.2,0.1-5.1,0.2S8.5,70.2,6.9,70s-2.9-0.8-4-1.7
	c-1.1-0.9-1.6-2.4-1.6-4.4h19.9V50.1H1.7c-0.2,0-0.4-0.1-0.6-0.4c-0.2-0.3-0.3-0.6-0.3-0.9c0-0.3-0.1-0.8-0.1-1.5
	c0-0.2,0-0.6,0.1-1.3c0-0.7,0.3-1.1,0.9-1.1c0.1,0,0.3,0.1,0.8,0.4s0.7,0.4,0.8,0.4h0.4c1.7,0,3.5-0.2,5.5-0.5s3.8-0.7,5.5-1.1v-0.4
	c0-1.4,0-3-0.1-4.8s-0.3-3.7-0.5-5.6c-0.3-1.9-0.7-3.7-1.2-5.4c-0.5-1.7-1.2-3.1-2.1-4.3c-1.1-1-2-1.6-3-1.6s-1.9,0-2.7,0.1
	S3.6,22,3,21.6C2.5,21.3,2.2,20,2.2,18h15.7c1.4,1,2.5,1.8,3.4,2.4s2,0.9,3.4,0.9c0.4,0,1-0.4,1.7-1.1s1.4-1.6,2.1-2.5
	s1.3-1.8,1.8-2.7s0.7-1.5,0.7-1.8c0-0.6-0.3-1.3-0.9-2.1S28.8,9.5,28,8.7c-0.9-0.8-1.7-1.5-2.6-2.1s-1.7-0.9-2.3-0.9
	c-0.2,0-0.3,0-0.4,0.1c-0.2,0-0.4,0.1-0.9,0.3c-0.4,0.2-0.7,0.3-0.7,0.4c0-0.3,0.1-1,0.3-2c0.2-1,0.3-1.7,0.4-2l0.9-0.9h4.9
	c1.5,0,2.9,0,4.1,0.1c1.2,0,2.4,0.1,3.6,0.1s2.4,0.1,3.8,0.2c1.3,0.1,2.9,0.3,4.7,0.4c0.5,0.2,0.8,0.4,0.9,0.7
	c0.1,0.3,0.1,0.7,0.1,1c0,1-0.1,1.6-0.4,1.8c-0.2,0.2-0.5,0.5-0.8,0.8s-0.5,0.9-0.8,1.8c-0.2,0.9-0.4,2.6-0.4,5
	c0.6,0,1.2-0.2,1.6-0.7c0.4-0.5,0.8-1.1,1.2-1.7c0.4-0.7,0.8-1.3,1.2-1.8c0.4-0.6,0.9-0.9,1.6-1.1c0.2-0.1,0.4,0,0.8,0.2
	c0.4,0.2,0.7,0.5,1.1,0.8c0.4,0.3,0.7,0.6,0.9,0.9s0.4,0.5,0.4,0.5l-5.6,5.6v0.9c0.5,0.1,1.1,0.3,1.8,0.6c0.7,0.3,1.5,0.7,2.2,1
	c0.7,0.4,1.4,0.7,2.1,1c0.6,0.3,1.2,0.4,1.6,0.4c0-1.3,0.1-2.2,0.2-2.7c0.1-0.5,0.2-1,0.2-1.5c0-0.4-0.1-1-0.3-1.6s-0.6-1.6-1.3-3
	H53l8.9,8.2l1.2-0.9v-8.3c1.7,0,3.7,0.3,5.9,1s3.9,1.6,5.1,2.9h-4.6l-0.2,0.5c-0.2,0.4-0.2,0.7,0,0.7c0.1,0.1,0.2,0.4,0.4,0.9
	c0.2,0.5,0.4,1,0.7,1.6c0.3,0.6,0.6,1.1,1,1.6s0.8,0.8,1.2,0.9c0.1,0,0.3-0.1,0.7-0.3c0.4-0.2,0.7-0.4,0.9-0.5
	c0.3-0.2,0.8-0.7,1.5-1.3c0.7-0.6,1-1,1-1.1c0.1-0.2,0-0.7-0.2-1.3c-0.2-0.6-0.4-1-0.7-1.2h0.5c0.3,0,0.8,0,1.3,0.1
	c0.5,0,1,0.1,1.5,0.3s0.9,0.4,1.2,0.7c0.3,0.3,0.4,0.8,0.4,1.3c1.2-0.8,2.5-1.8,3.7-3c1.3-1.2,2.5-2.4,3.7-3.7s2.4-2.5,3.6-3.8
	s2.4-2.4,3.6-3.4c0.1-0.1,0.2-0.1,0.5-0.1c2,0,3.5,0.7,4.3,2s1.4,2.8,1.7,4.5c0.3,1.7,0.4,3.2,0.4,4.5s0.1,2,0.4,2h7.3
	c-0.4,0.1-1.4,0.3-2.9,0.6c-1.5,0.3-3.3,0.7-5.4,1.2c-2,0.5-4.2,1-6.5,1.5s-4.4,1-6.2,1.5c-1.9,0.4-3.4,0.8-4.7,1.2
	c-1.3,0.3-1.9,0.5-1.9,0.6V43c0,0.1,0.5,0.2,1.5,0.4s1.8,0.3,2.5,0.4h1.2V44z M22.8,11.4c0.9,0.6,1.5,1.1,2,1.5
	c0.4,0.4,0.6,1,0.6,1.8c0,0.9-0.4,1.5-1.1,1.8S22.8,17,22,17.2v-0.9L22.8,11.4z M22,24.5c1.7,1.8,3.4,3.6,5,5.5s2.4,4.1,2.4,6.7
	c0,1.4-0.2,2.7-0.5,4c-0.4,1.3-0.5,2.6-0.5,4c1.8,0,3.2-0.8,4.2-2.3c1-1.5,1.8-3.3,2.3-5.4c0.5-2.1,0.8-4.2,0.9-6.4
	c0.1-2.2,0.2-3.9,0.2-5.3c0-0.2,0-0.7,0-1.3c0-0.7-0.3-1-0.9-1H22.8c-0.1,0-0.2,0.1-0.4,0.3c-0.2,0.2-0.3,0.3-0.4,0.4V24.5z
	 M28.9,83c0.9,0,1.7,0.5,2.3,1.5c0.7,1,1.2,2.1,1.5,3.5c0.4,1.3,0.6,2.7,0.7,4c0.1,1.3,0.1,2.4-0.1,3.2c0.2-0.1,0.5-0.3,0.9-0.5
	c0.4-0.3,0.9-0.6,1.5-1c0.5-0.4,1-0.7,1.5-1c0.4-0.3,0.8-0.6,1-0.7c0.3-0.1,0.6-0.3,0.7-0.7c-0.5-0.8-1.1-1.4-1.8-1.8
	s-1.4-0.8-2.1-1.3c-0.7-0.4-1.3-1-1.8-1.6s-0.7-1.5-0.7-2.6c0-0.2,0.1-0.7,0.4-1.6c0.3-0.9,0.4-1.5,0.4-1.6s-0.1-0.2-0.3-0.4
	c-0.2-0.2-0.4-0.3-0.5-0.4c-0.1,0-0.4,0-0.9,0c-0.5,0-1,0-1.6,0s-1.4,0-2.4,0c-0.7-0.1-1.2-0.4-1.6-0.9s-0.8-1-1.1-1.5
	c-0.3-0.5-0.7-1-1-1.4s-0.8-0.6-1.3-0.6c0,0.6,0,1.3,0.1,2.3s0.2,1.9,0.4,2.8c0.2,0.9,0.6,1.7,1.2,2.4c0.5,0.7,1.2,1,2.1,1h0.4
	c0.1-0.1,0.4-0.2,0.9-0.5c0.5-0.2,0.8-0.4,0.9-0.4h0.3V83z M40.7,63.5c1-0.3,1.8-1,2.4-2c0.7-1,1.3-2,1.9-3c0.6-1.1,1.2-2,1.8-2.8
	s1.4-1.2,2.3-1.2c1.4,0,2.6,0.5,3.5,1.4c1,0.9,1.9,2,2.9,3.1c0.9,1.1,1.9,2.2,2.8,3.1c0.9,0.9,2.1,1.4,3.5,1.4
	c1.1,0,1.7-0.6,1.7-1.7c0-0.4-0.1-0.8-0.2-1c-0.1-0.3-0.5-0.5-1.2-0.5v-8.9L61,50.1H42.3c0.9-1.2,1.7-2.2,2.4-2.9s1.4-1.2,2.3-1.5
	c0.8-0.3,1.7-0.4,2.7-0.4s2.3,0.1,4,0.2c0.1,0,0.3-0.1,0.6-0.4c0.3-0.2,0.7-0.5,1-0.9c0.4-0.4,0.7-0.8,0.9-1.2s0.4-0.8,0.4-1.1
	c-1.3,0-2.6-0.1-4-0.4c-1.4-0.2-2.6-0.8-3.8-1.7c0.2-0.2,0.7-0.8,1.3-1.6c0.6-0.9,1-1.4,1.2-1.6l0.9-0.9h0.4c1.1,0,2,0.3,2.9,0.9
	c0.9,0.6,1.7,1.3,2.6,2.1c0.9,0.8,1.7,1.5,2.6,2.1c0.9,0.6,1.9,0.9,3,0.9c0-1.5,0-3.2-0.1-5c0-1.8-0.1-3.6-0.2-5.4
	c-0.1-1.8-0.2-3.5-0.3-5.1s-0.2-3-0.3-4.3c0-0.6-0.3-0.9-0.9-0.9c-0.5,0-1.1,0.1-1.8,0.3c-0.7,0.2-1.5,0.4-2.3,0.7
	c-0.8,0.3-1.5,0.6-2.3,0.9c-0.7,0.3-1.3,0.5-1.8,0.5c0.2,0.4,0.6,0.7,1,1c0.4,0.2,0.9,0.5,1.4,0.7s0.9,0.5,1.2,0.8s0.5,0.7,0.5,1.2
	c0,0.4-0.2,0.8-0.6,1.1c-0.4,0.3-0.9,0.6-1.3,0.9c-0.5,0.2-1,0.4-1.4,0.6s-0.7,0.3-0.8,0.4L41.5,42.4V44h4.1
	c-0.6,0.7-1.2,1.2-1.8,1.6c-0.7,0.4-1.2,0.8-1.8,1.2c-0.5,0.4-1,0.9-1.3,1.3c-0.4,0.5-0.5,1.1-0.5,2h-6l9,2.1c0.1,0,0.1,0.2,0.1,0.6
	c0,1.2-0.5,2.3-1.5,3.3s-1.9,1.8-2.8,2.6l-0.7-0.9c-0.4-0.2-0.9-0.7-1.5-1.3s-1.2-1.3-1.8-2s-1.2-1.3-1.6-1.8S32.6,52,32.3,52
	c-0.5,0-1,0.1-1.5,0.2c-0.5,0.1-0.7,0.5-0.7,1.2s0.1,1.2,0.3,1.7c0.2,0.5,0.3,1.1,0.3,2h-3.9c-0.2,1.1-0.5,2.5-1,4.1
	s-1.2,2.9-2.2,3.9c0.1,0.3,0.3,0.6,0.7,0.9c0.6,0.4,1.3,1.2,2.3,2.3c0.5,0.6,1.1,1.2,1.7,1.8c1.2,0,2.3-0.2,3.2-0.6
	c0.9-0.4,2.1-0.6,3.7-0.6c0-0.6-0.2-1-0.5-1.2c-0.4-0.2-0.8-0.5-1.2-0.7s-0.9-0.5-1.2-0.8c-0.4-0.3-0.5-0.9-0.5-1.6
	c0-0.9,0.3-1.6,0.8-2.1s1.2-0.9,2-1.1c0.8-0.2,1.6-0.4,2.4-0.6c0.8-0.2,1.5-0.4,2.2-0.6L40.7,63.5z M25.3,30.9
	c-0.1-0.3-0.4-0.6-0.9-0.7c0-0.1-0.1-0.1-0.4-0.1c-0.2,0-0.3,0-0.4,0.1v0.7H25.3z M29.3,106c0.9,0,1.8-0.4,2.9-1.1
	c1-0.7,1.5-1.6,1.5-2.6l-1.1,0.2c-0.5,0.3-1.2,0.8-2,1.4s-1.3,1-1.3,1S29.3,106,29.3,106z M35.9,3.4c0.8,0.6,1.6,0.9,2.4,0.9
	c0.3,0,0.6,0,0.9-0.1c0.3-0.1,0.5-0.3,0.7-0.7h-4V3.4z M41.5,76.6c0.6,0.8,1.3,1.3,2.3,1.5s1.9,0.3,2.8,0.3c0-0.6-0.2-1.2-0.5-1.6
	c-0.4-0.4-0.8-0.8-1.3-1.1h-0.9L41.5,76.6z M47.2,69.2L45.6,70c0.1,0.2,0.8,0.7,2.1,1.7s2.8,2,4.5,3.1c1.6,1.1,3.2,2.1,4.6,3
	c1.5,0.9,2.3,1.3,2.6,1.3c0.7,0,1.2-0.2,1.3-0.6s0.2-1.1,0.3-2c0.1-0.2,0.1-0.7,0.2-1.5c0-0.7,0.1-1.5,0.1-2.3s0.1-1.5,0.1-2.2
	s0-1.2,0-1.4L47.2,69.2L47.2,69.2z M59.4,105.8c-0.2-0.7-0.4-1.5-0.9-2.6c-0.4-1.1-1.1-1.6-2-1.6c-0.3,0-0.6,0.2-0.9,0.5
	c-0.2,0.4-0.5,0.8-0.7,1.3s-0.3,1-0.4,1.5c-0.1,0.5-0.1,0.9-0.1,1.1c0,0.6,0.4,1.1,1.1,1.5c0.7,0.4,1.3,0.6,1.8,0.6h0.4
	c0.1-0.2,0.3-0.4,0.8-0.9c0.4-0.4,0.7-0.7,0.8-0.9v-0.5H59.4z M57.8,96.8c0.4,0,0.6-0.3,0.6-0.8s-0.2-0.8-0.6-0.8
	c-0.4,0-0.6,0.3-0.6,0.8S57.4,96.8,57.8,96.8z M65.1,87.9c0-0.6-0.1-1.2-0.4-1.6c-0.2-0.4-0.7-1-1.3-1.6c-0.1,0.2-0.1,0.7-0.1,1.2
	c0,0.7,0.1,1.2,0.3,1.7s0.7,0.9,1.5,1.2V87.9z M75.4,77c-0.9,0-1.9,0.1-2.9,0.3c-1.1,0.2-1.9,0.8-2.4,1.6c0.2,0.5,0.8,0.9,1.5,1.2
	c0.8,0.3,1.3,0.4,1.6,0.4c1.1,0,1.7-0.4,1.9-1.2C75.3,78.5,75.4,77.8,75.4,77z M105.8,71.7c0-0.1-0.1-0.2-0.3-0.4
	c-0.2-0.2-0.4-0.3-0.5-0.4c-0.2-0.2-0.5-0.4-1.2-0.9c-0.6-0.4-1-0.6-1.3-0.7c-0.7,0.4-1.2,0.9-1.5,1.5c-0.2,0.6-0.5,1.1-0.7,1.6
	s-0.5,0.9-0.9,1.3s-1.1,0.5-2.1,0.5c-1.1,0-2.1-0.1-3-0.4s-1.9-0.4-2.9-0.4H91c-0.2,0.1-0.5,0.2-0.9,0.4c-0.4,0.2-0.7,0.3-0.7,0.4
	c-0.1,0-0.1,0.1-0.1,0.4s0,0.4,0.1,0.4c0.2,0.5,0.4,0.8,0.7,0.9c0.3,0,0.8,0,1.5,0.1c0.7,0,1.4,0.1,2.2,0.2c0.8,0.1,1.5,0.2,2.2,0.3
	c0.7,0.1,1.2,0.2,1.4,0.3h0.9c0.2-0.1,0.6-0.2,1.2-0.5c0.7-0.2,1.1-0.4,1.2-0.4h0.9c0.8,0,1.5,0.3,2,0.9s1.2,0.9,2,0.9v-6H105.8z
	 M101.7,44.8l-4.1-4.1h-0.9c0,1,0.2,1.9,0.5,2.7s0.5,1.7,0.5,2.7c0,1.4-0.4,2.6-1.3,3.6s-1.3,2.1-1.3,3.2c0,0.7,0.2,1.3,0.7,1.8
	s1.1,0.7,1.8,0.7s1.4-0.4,1.9-1.3c0.5-0.9,1-1.8,1.3-3c0.3-1.1,0.5-2.3,0.7-3.4s0.2-1.9,0.2-2.4C101.7,45.3,101.7,44.8,101.7,44.8z
	 M105.8,95.2l-2.4-3.3l-0.9-1.6c0-0.1-0.1-0.1-0.4-0.1c-0.2,0-0.3,0-0.4,0.1c0,0.9-0.3,1.7-0.8,2.4c-0.5,0.7-1.1,1.3-1.7,1.8
	s-1.2,1-1.7,1.4s-0.8,0.9-0.8,1.3c0,0.2,0,0.3,0.1,0.4c0.2,0.3,0.7,1.1,1.3,2.2c0.7,1.1,1.3,2.3,2.1,3.6c0.7,1.3,1.4,2.4,2.1,3.4
	s1.1,1.5,1.3,1.5h0.5c0.2-0.1,0.6-0.2,1-0.4c0.4-0.2,0.6-0.3,0.6-0.4V95.2H105.8z M100,82.2L99.3,83c-0.2,0.2-0.6,0.7-1,1.3
	c-0.4,0.6-0.7,1-0.7,1.2v0.4c0,0.7,0.3,1.1,0.9,1.2c0.6,0.2,1.1,0.2,1.5,0.2C100,87.3,100,82.2,100,82.2z M109.1,9.8
	c-1.5,0-2.9-0.5-4-1.4s-1.7-2.2-1.7-3.8V4.1c1.5,0.5,2.8,1.3,4,2.4s2.3,2.2,3.3,3.4L109.1,9.8L109.1,9.8z M111.5,11.4
	c-0.4,0-0.6-0.3-0.6-0.8s0.2-0.8,0.6-0.8s0.6,0.3,0.6,0.8C112.1,11.1,111.9,11.4,111.5,11.4z M111.5,40.7c-0.4,0-0.6-0.3-0.6-0.8
	s0.2-0.8,0.6-0.8s0.6,0.3,0.6,0.8S111.9,40.7,111.5,40.7z M117.1,15.6c-0.3,0.7-1,1.2-1.9,1.3c-0.9,0.2-1.8,0.2-2.5,0.2h-1.2
	c0.6-0.2,1.4-0.5,2.4-1c1.1-0.5,1.6-1.3,1.6-2.3L117.1,15.6z M113.1,41.5c-0.2-0.1-0.5-0.4-0.9-0.9h0.9c0.3,0.2,0.6,0.5,0.9,0.9
	H113.1z M115.5,48.9c-0.2,0.2-0.6,0.4-1.2,0.4c-0.7,0-1.1-0.1-1.2-0.4c-0.1-0.1,0-0.2,0.3-0.2c0.3-0.1,0.6-0.1,0.9-0.1
	s0.6,0,0.9,0.1C115.5,48.7,115.6,48.8,115.5,48.9z M114.7,13.8c-0.4,0-0.6-0.3-0.6-0.8s0.2-0.8,0.6-0.8s0.6,0.3,0.6,0.8
	C115.3,13.6,115.1,13.8,114.7,13.8z M117.1,44c0.4,0,0.6,0.3,0.6,0.8s-0.2,0.8-0.6,0.8s-0.6-0.2-0.6-0.7h-0.1
	c-0.4,0-0.6-0.3-0.6-0.9h-0.2c-0.6,0-0.8-0.3-0.6-0.9h-0.2c-0.4,0-0.6-0.3-0.6-0.8s0.2-0.8,0.6-0.8c0.6,0,0.8,0.3,0.6,0.9h0.2
	c0.4,0,0.6,0.2,0.6,0.7h0.2C116.8,43.1,117,43.4,117.1,44L117.1,44z M117.1,48l0.9-2.4V48H117.1z"/>
<path class="st0" d="M234.2,96.1c-0.4-0.2-0.7-0.5-0.7-0.9c-0.1-0.4-0.2-0.7-0.2-1.1c-0.1-0.4-0.2-0.7-0.4-1s-0.5-0.4-1-0.4
	c-1.1,0-1.7,0.4-2,1.2c-0.3,0.8-0.6,1.8-1,2.8c-0.4,1.1-1,2.1-1.8,3c-0.8,1-2.2,1.6-4.3,2c-0.1,0.1-0.1,0.2-0.1,0.5
	c0,0.2,0.2,0.7,0.6,1.5c0.4,0.9,0.9,1.8,1.3,2.7c0.5,1,1,2,1.4,2.9c0.4,1,0.7,1.7,0.8,2.1l2.4,0.1c1.5,0,3-0.3,4.5-0.9
	c1.4-0.6,2.6-1.4,3.6-2.4s1.7-2.2,2.2-3.7c0.5-1.4,0.6-2.9,0.4-4.6c0.7,0.2,1.1,0.7,1,1.6s-0.1,1.5-0.1,1.6c0,2.8-1,4.9-2.9,6.4
	c-2,1.5-4.3,2.6-7,3.4s-5.5,1.2-8.4,1.3c-2.9,0.2-5.2,0.2-7,0.2h-43.9c-5.1,0-9-1.5-11.6-4.4s-3.9-6.9-3.9-11.8v-3.3
	c1.5,1.1,2.4,2.1,2.7,3.1c0.2,1,0.4,2.3,0.4,4c0.7,0,1.4-0.2,2.1-0.5c0.8-0.4,1.5-0.8,2.1-1.4s1.2-1.2,1.6-2
	c0.4-0.7,0.7-1.5,0.7-2.2c-2.2,0-3.8-0.2-4.8-0.5c-1-0.4-1.6-0.8-2-1.3s-0.5-1.1-0.5-1.7s0.1-1.2,0.1-1.8c0-0.6-0.2-1-0.5-1.4
	c-0.4-0.4-1.1-0.6-2.3-0.7v-29l-1.2,0.7c-0.6,5.4-1.3,10.6-2.3,15.6s-2.3,9.8-4.1,14.3c-1.8,4.6-4,8.9-6.8,13s-6.2,8-10.4,11.7
	c-1.2,1.1-2.4,2-3.7,2.7c-1.2,0.7-2.6,1.1-4.3,1.1c0-0.8,0.1-1.8,0.3-3c0.2-1.2,0.8-2,1.9-2.3c0.2,0.8,0.3,1.3,0.3,1.6
	c0,0.2,0.1,0.3,0.2,0.2c0.1-0.1,0.2-0.2,0.3-0.4c0.1-0.2,0.3-0.2,0.7-0.2c0-0.1,0-0.3,0.1-0.6c0.1-0.3,0.1-0.5,0-0.6
	c0-0.1-0.1-0.4-0.4-0.9c-0.2-0.5-0.4-0.8-0.4-0.9c0-0.7,0.3-1.3,1-1.8c0.7-0.4,1.5-0.9,2.4-1.2c0.9-0.4,1.8-0.8,2.7-1.2
	c0.9-0.4,1.5-0.9,2-1.5l-5.6,1.6c-0.1-0.1-0.1-0.2-0.1-0.4c0-0.7,0.2-1.7,0.7-3.2c0.4-1.5,1-3,1.6-4.7s1.2-3.2,1.7-4.7
	s0.9-2.6,1-3.3c0.8-3.9,1.3-7.7,1.5-11.5s0.2-7.7,0.2-11.7l-0.1-7.8l-0.9-1.2l-8.1,0.1c-0.2,0-0.3-0.1-0.5-0.4
	c-0.2-0.3-0.3-0.6-0.3-0.8c-0.1-0.3-0.2-1.1-0.2-2.2c-0.1-1.2-0.1-1.9-0.1-2.2h37.8c0.8,0,1.5-0.5,2.2-1.6s1.3-2.2,2-3.5
	c0.6-1.3,1.3-2.5,2.1-3.5c0.7-1.1,1.6-1.6,2.7-1.6c0.6,0,1.4,0.4,2.4,1.2c1.1,0.8,2.2,1.6,3.3,2.6s2.2,1.9,3.1,2.8
	c0.9,0.9,1.5,1.4,1.8,1.6c1.1-0.4,2-0.1,2.6,0.9s0.9,2,0.9,2.9c-1.7,0-2.9,0.2-3.6,0.5c-0.7,0.3-1.2,1.3-1.5,3c-0.2,0-0.5,0-0.9,0.1
	s-0.9,0.2-1.5,0.2c-0.5,0.1-1,0.2-1.5,0.3c-0.4,0.1-0.8,0.2-1,0.2s-0.3,0-0.5,0.1s-0.3,0.2-0.5,0.2c-0.2,0.2-0.4,0.3-0.6,0.4v35.9
	c0.2,0.1,0.3,0.3,0.5,0.7c0.2,0.4,0.3,0.7,0.3,0.9c0,0.1-0.1,0.2-0.4,0.4c-0.3,0.2-0.4,0.3-0.4,0.4v0.4c0,0.2,0.5,1,1.5,2.1
	c1,1.2,2.1,2.4,3.4,3.7c1.3,1.3,2.6,2.5,3.8,3.5c1.3,1.1,2.2,1.6,2.7,1.6c0.8,0,1.4-0.4,1.8-1.1c0.4-0.7,0.6-1.5,0.6-2.2
	s-0.2-1.4-0.5-1.9c-0.4-0.5-0.8-1-1.2-1.5s-0.8-1-1.2-1.5s-0.5-1.2-0.5-1.9c0-0.6,0-1,0.1-1.2c0.7-0.1,1.8-0.2,3.5-0.3
	c1.7-0.1,3.5-0.2,5.4-0.3c1.9-0.1,3.7-0.1,5.4-0.2c1.7,0,2.9-0.1,3.5-0.1h2.8c0.8,0,1.5,0.1,2,0.4s0.9,0.5,1.2,0.9
	c0.3,0.3,0.7,0.6,1,0.9c0.4,0.2,0.9,0.4,1.5,0.4c0.8,0,1.6-0.2,2.4-0.5c0.8-0.3,1.2-1,1.3-2c3.9-0.3,6.7-1.4,8.3-3.3
	c1.7-2,2.9-3.8,3.5-5.6c0.7-2,1.4-3.9,1.9-5.7c0.5-1.7,1.6-2.9,3.4-3.4c0.2,0,0.5,0.1,0.9,0.3c0.4,0.2,0.7,0.4,0.8,0.5
	c0,0.6,0,1.5,0.1,2.9s0.2,2.8,0.2,4.4c0.1,1.5,0.2,3,0.2,4.4c0.1,1.4,0.1,2.4,0.1,2.9v1H234.2z M223.7,0.1
	c5.4,4.6,10.5,9.4,15.4,14.6c0.1,0.1,0.1,0.2,0.1,0.4c0,0.7-0.3,1.1-0.8,1.5c-0.5,0.3-1.1,0.6-1.8,0.9c-0.7,0.2-1.4,0.5-2.1,0.7
	c-0.7,0.2-1.3,0.4-1.8,0.7c-0.7,0.5-1.6,1.1-2.7,1.8s-2.2,1.4-3.2,2.1c-1.1,0.7-2,1.3-2.7,1.8s-1.1,0.8-1.1,0.9v1.6
	c1.7,0.3,3.2,0.9,4.3,1.8c1.2,0.9,2.3,1.8,3.3,2.9c1,1.1,2,2.3,2.9,3.6s2,2.6,3.2,3.9V40l-8.1-7.3c-0.5,0.1-0.8,0.3-0.8,0.6
	s-0.1,0.7-0.1,1c0,0.9,0.1,1.7,0.4,2.6c0.2,0.8,0.5,1.6,0.9,2.4c0.3,0.8,0.6,1.7,0.9,2.6c0.2,0.9,0.4,1.9,0.4,3.1l0.9,0.7
	c0.1,0.2,0.3,0.4,0.7,0.7s0.7,0.5,0.9,0.5h-6.5l-2.1,2.1v35.7c0,2-0.7,3.6-2,5.1c-1.3,1.4-2.9,2.6-4.8,3.6c-1.9,1-3.8,1.7-5.9,2.1
	c-2,0.4-3.8,0.7-5.4,0.7h-2.8c-0.5-0.2-0.9-0.7-1.1-1.3c-0.2-0.6-0.4-1.3-0.5-2.1c-0.1-0.7-0.2-1.5-0.2-2.2s0-1.3,0-1.7h3.3
	c0-0.5-0.2-1.1-0.5-1.7c-0.3-0.7-0.8-1.3-1.3-1.9s-1.1-1.1-1.7-1.6c-0.6-0.4-1.2-0.6-1.6-0.6h-0.4c-0.1,0-0.4,0.1-0.9,0.4
	s-0.8,0.4-0.9,0.4c-0.6,0-1.3-0.2-2.3-0.6s-1.9-0.9-2.9-1.6c-0.9-0.6-1.8-1.3-2.4-2.1c-0.7-0.8-1-1.5-1-2.2h16.8V48l-0.9-0.7h-19.5
	c-0.3,0-1-0.1-2-0.4c-1-0.2-1.7-0.4-2-0.5c1.7,0.1,3.3-0.2,4.7-0.8s2.3-1.8,2.6-3.7H205l1.2-1.2V26.9c0.4,0,0.9,0,1.5-0.1
	c0.6,0,1.2-0.1,1.8-0.3c0.6-0.2,1.2-0.4,1.6-0.7c0.5-0.3,0.9-0.8,1.1-1.3c0.2,0,0.5,0.4,0.7,1.2c0.2,0.8,0.4,1.6,0.5,2.6
	c0.2,1,0.3,2,0.4,2.9c0.1,1,0.1,1.6,0.1,2c0,1.1-0.1,1.9-0.2,2.6c-0.1,0.7-0.6,1.5-1.5,2.5v11.5c0,0.3,0.3,0.5,1,0.7
	c0.7,0.1,1.2,0.2,1.4,0.2c0.4,0,0.7,0,0.9-0.1c0.5-2.1,0.8-4.3,0.9-6.5c0.1-2.2,0.1-4.4,0-6.5c1.8-2.8,4.2-4.4,7.3-4.9V34
	c1.1,0,1.7-0.6,2-1.8c0.2-1.2,0.4-2.3,0.4-3.2c-1.4,0-2.9-0.1-4.6-0.2c-1.7-0.1-3.1-0.8-4.3-1.9c-0.2-0.2-0.2-0.5,0-0.9l-4-4v-7.3
	c-3.4-0.3-7.3-0.5-11.6-0.7c-4.3-0.1-8.6-0.2-13-0.2s-8.5,0-12.5,0s-7.4,0.1-10.1,0.1c0-0.2-0.1-0.9-0.3-2s-0.6-1.8-1.3-2
	c-0.8,0.4-1.4,1-1.8,1.9c-0.4,0.9-0.6,1.7-0.7,2.6h-13.1c-0.4,0-0.7,0.4-1,1.2c-0.2,0.8-0.4,1.7-0.5,2.7c-0.1,1.1-0.2,2.1-0.4,3.1
	c-0.1,1-0.3,1.8-0.5,2.3c-1.2,2.7-2.8,5-4.6,7c-1.9,2-4.4,2.9-7.6,2.9l-1.6-0.1c0.4-0.1,1.1-0.3,2-0.5c0.9-0.3,1.3-0.8,1.3-1.4
	c0-0.5-0.4-1.1-1.3-1.8c-0.9-0.7-1.5-1.1-2-1.1c-0.1,0.1-0.3,0.3-0.8,0.7c-0.4,0.4-0.7,0.7-0.8,1c-0.1,0-0.1,0.1-0.1,0.4
	s0,0.4,0.1,0.4c0,0.2,0.1,0.4,0.3,0.9c0.2,0.4,0.3,0.7,0.4,0.9h-1.6c-0.9,0-1.7-0.3-2.3-1c-0.7-0.7-1.2-1.4-1.5-2.4
	c-0.4-0.9-0.6-1.9-0.8-2.9c-0.2-1-0.2-1.8-0.2-2.4c0-1.3,0.5-2.7,1.5-4.3s2.2-3.1,3.7-4.5c1.4-1.4,2.9-2.6,4.5-3.8
	c1.6-1.1,2.9-2,4.1-2.4c0.1,0,0.4,0.1,0.9,0.4c0.5,0.3,0.8,0.4,0.9,0.4c0.2,0.1,0.7,0.1,1.5-0.1c0.7-0.1,1.2-0.2,1.5-0.2
	c0-0.5-0.2-0.9-0.5-1.3c-0.3-0.4-0.7-0.7-1-1c-0.4-0.3-0.7-0.7-1-1.1s-0.5-0.9-0.5-1.5c0-0.8,0.1-1.7,0.2-2.6
	c0.1-0.9,0.7-1.3,1.8-1.3c1,0,1.7,0.4,2.1,1.2s0.8,1.6,1,2.6c0.2,0.9,0.5,1.8,0.8,2.6s0.8,1.2,1.5,1.2h65c0.3-0.3,0.9-0.8,1.6-1.5
	c0.8-0.7,1.6-1.4,2.4-2.2c0.9-0.8,1.7-1.5,2.4-2.2c0.8-0.7,1.3-1.2,1.6-1.4c0.1-0.1,0.3-0.2,0.7-0.4s0.7-0.3,0.9-0.4h0.8V0.1z
	 M165.2,34.2c-0.2-0.1-0.6-0.2-1-0.3s-0.9-0.3-1.5-0.4c-0.5-0.2-1-0.3-1.5-0.5c-0.4-0.2-0.8-0.3-0.9-0.4c0.2-0.6,0.5-1.3,0.9-2.3
	s1-1.9,1.6-2.9c0.6-0.9,1.3-1.8,2-2.5s1.4-1.2,2-1.3c0.7-0.1,2,0.5,3.7,1.6c1.7,1.2,3.4,2.6,5.2,4.2c1.7,1.6,3.3,3.2,4.6,4.8
	c1.3,1.5,2,2.6,2,3.3c0,0.8-0.4,1.4-1.2,1.8c-0.8,0.4-1.5,0.6-2.1,0.6h-46.4c-0.3,0-0.6-0.2-0.9-0.5c-0.3-0.4-0.5-0.8-0.8-1.3
	c-0.2-0.5-0.4-1-0.5-1.4s-0.2-0.8-0.2-0.9c0-0.1,0.1-0.2,0.3-0.4s0.4-0.3,0.5-0.3l27.6-0.9c0,0.5,0.2,1.2,0.6,2.1
	c0.4,0.9,1,1.3,1.8,1.2l4.1-1.7h1.3c1.1,0,1.8,0.2,2.4,0.7c0.5,0.4,1.2,1.3,1.9,2.6c0.1-0.8,0.3-1.5,0.7-2.1s0.8-1.1,1.2-1.6
	s0.8-1,1.2-1.5s0.5-1.1,0.5-1.8c-1.5,0-3,0.3-4.3,1s-2.7,1-4.1,1h-0.7V34.2z M141.8,77.3c0-0.4-0.1-0.9-0.2-1.5
	c-0.2-0.6-0.6-0.9-1.2-0.9c-1.6,0-2.4,0.8-2.4,2.4H141.8z M152.1,36.8c-1.3,0-2.6-0.2-3.8-0.5c-1.2-0.4-2.5-0.5-3.8-0.5
	c0,1.3,0.4,2.2,1.2,2.7s1.8,0.7,3.1,0.7c0.5,0,1.2-0.1,2-0.3s1.3-0.4,1.3-0.5V36.8z M159.5,55.3c-0.1-0.3-0.4-0.6-0.9-0.7
	c0-0.1-0.1-0.1-0.4-0.1c-0.5,0-0.9,0.2-1.1,0.7c-0.2,0.4-0.4,0.9-0.4,1.3c0.4,0,0.9,0,1.5-0.1C158.9,56.2,159.3,55.9,159.5,55.3z
	 M159.5,81.3h-0.9v1.6h0.9V81.3z M169.5,71.3c-0.2,0-0.8,0.2-1.6,0.7s-1.7,1.1-2.6,1.7c-0.9,0.7-1.7,1.3-2.4,1.9s-1,1-1,1.3
	c0,0.8,0.3,1.2,1,1.3c0.7,0,1.3,0.1,1.8,0.1l2.1-0.1c0.6-0.9,1.2-2,1.8-3.2C169.2,73.8,169.5,72.5,169.5,71.3z M173.2,113.9
	c0.4,0,0.6-0.3,0.6-0.8s-0.2-0.8-0.6-0.8c-0.4,0-0.6,0.3-0.6,0.8S172.8,113.9,173.2,113.9z M174.1,55.3h-0.9v0.9h0.9V55.3z
	 M183,98.5c-0.1,0.7-0.3,1.5-0.6,2.2s-0.9,1.1-1.8,1.1c-0.9,0-1.4-0.3-1.6-1c-0.2-0.7-0.2-1.4-0.2-2.3C178.8,98.5,183,98.5,183,98.5
	z M180.6,46.4c-0.4,0-0.6-0.3-0.6-0.8s0.2-0.8,0.6-0.8c0.4,0,0.6,0.3,0.6,0.8C181.2,46.2,181,46.4,180.6,46.4z M181.4,42.4
	c-0.1,0.2-0.2,0.4-0.4,0.4s-0.3-0.1-0.4-0.4c0-0.2,0.2-0.4,0.5-0.4C181.4,42,181.5,42.2,181.4,42.4z M184.7,48.5
	c2,0,4.2,0.4,6.6,1.2c2.4,0.8,4.6,1.9,6.6,3.4c2,1.4,3.7,3.1,5.1,5c1.4,1.9,2.1,4,2.1,6.3c0,1.2-0.3,2.4-0.8,3.5s-1.2,2.1-2.1,2.9
	c-0.9,0.8-1.9,1.4-3.1,1.9c-1.1,0.4-2.3,0.7-3.4,0.7c-1.6,0-3.1-0.4-4.4-1.1c-1.3-0.7-2.4-1.7-3.4-2.9c0-0.7,0-1.6-0.1-2.7
	c0-1.1-0.1-2.1-0.3-3.2c-0.2-1.1-0.5-2.2-0.9-3.2s-1.1-1.8-1.9-2.4c0.1-0.3,0.3-0.6,0.7-0.7c0.1-0.1,0.2-0.1,0.5-0.1
	c0.6,0,1,0.1,1.4,0.4c0.4,0.3,0.7,0.6,1.1,0.9c0.4,0.3,0.8,0.6,1.3,0.9c0.5,0.3,1.3,0.4,2.3,0.4c0.3,0,0.8-0.2,1.5-0.7
	c0.6-0.4,1-0.9,1-1.4s-0.5-1.2-1.4-2c-0.9-0.9-2-1.7-3.2-2.6c-1.2-0.9-2.3-1.7-3.4-2.3c-1.1-0.7-1.7-1-1.8-1L184.7,48.5L184.7,48.5z
	 M195.2,12.3c0.2-0.2,0.4-0.4,0.4-0.9c0-0.4-0.1-0.6-0.4-0.7c-0.2-0.2-0.4,0.1-0.4,0.8C194.8,12.2,195,12.4,195.2,12.3z M199.5,42.9
	c-1.2,0-2.1,0.1-2.7,0.4c-0.6,0.3-0.9,1.1-0.9,2.4c0.8,0,1.6-0.2,2.4-0.7C199.1,44.5,199.5,43.8,199.5,42.9z M205.8,90.3
	c0.4,0,0.6-0.3,0.6-0.8s-0.2-0.8-0.6-0.8c-0.4,0-0.6,0.3-0.6,0.8C205.2,90.1,205.4,90.3,205.8,90.3z M206.7,91.2
	c0.2-0.1,0.4-0.2,0.4-0.4c0-0.2-0.1-0.3-0.4-0.4c-0.2-0.1-0.4,0-0.4,0.4C206.3,91,206.4,91.2,206.7,91.2z M207.4,92.8
	c0,0.3,0,0.7,0.1,1s0.3,0.5,0.7,0.6c0.1-0.2,0.1-0.4,0.1-0.7c0-0.4,0-0.8-0.1-1c-0.1-0.3-0.4-0.5-0.9-0.7L207.4,92.8L207.4,92.8z
	 M208.3,75.7c0,0.2,0.3,0.7,1,1.3c0.6,0.7,1.4,1.3,2.3,2c0.9,0.7,1.7,1.3,2.4,2c0.8,0.6,1.3,1,1.6,1.2c0.1-0.2,0.1-0.7,0.1-1.2
	s-0.3-1.1-0.9-1.8c-0.6-0.7-1.3-1.4-2.1-2.1c-0.8-0.6-1.6-1.2-2.5-1.7s-1.5-0.7-1.9-0.7L208.3,75.7L208.3,75.7z M216.5,84.5
	c0,0.6,0.2,0.9,0.6,0.9c0.4,0,0.6-0.3,0.6-0.8s-0.2-0.8-0.6-0.8H217c0-0.6-0.2-0.9-0.6-0.9c-0.4,0-0.6,0.3-0.6,0.8s0.2,0.8,0.6,0.8
	H216.5z M217,83.8c-0.3,0-0.5,0.2-0.5,0.7C216.9,84.5,217,84.2,217,83.8z M221.3,100.1c-0.2-0.3-0.5-0.6-0.9-0.9h-0.9
	c-0.4,0.2-0.7,0.5-0.7,0.9l2.4,0.9L221.3,100.1L221.3,100.1z M236.8,15.1c0-0.2,0-0.3-0.1-0.4c-0.2-0.2-0.5-0.7-1.2-1.3
	c-0.6-0.6-1-1-1.3-1.2c0-0.1-0.1-0.1-0.4-0.1c-0.7,0-1.2,0.3-1.5,0.9c-0.4,0.6-0.5,1.1-0.5,1.7c0,0.8,0.2,1.3,0.7,1.5
	c0.4,0.2,1,0.2,1.8,0.2c0.5,0,1,0,1.6-0.1C236.5,16.2,236.8,15.8,236.8,15.1z M240.1,44.5c0,1.1-0.4,1.7-1.2,1.8
	c-0.8,0.2-1.7,0.2-2.6,0.2l-2.1-0.1c1.8-0.2,3-0.5,3.7-1.2c0.7-0.6,0.8-1.8,0.5-3.7c0.7,0.3,1.2,0.7,1.4,1.2
	C240,43.3,240.1,43.8,240.1,44.5z M237.5,41.5c-0.4,0-0.6-0.3-0.6-0.8s0.2-0.8,0.6-0.8c0.4,0,0.6,0.3,0.6,0.8
	C238.1,41.3,237.9,41.5,237.5,41.5z M239.1,99.2c-0.2,0.1-0.4,0-0.4-0.4c0-0.3,0.1-0.4,0.4-0.4c0.2,0,0.4,0.1,0.4,0.4
	S239.4,99.2,239.1,99.2z"/>
<path class="st0" d="M363.6,24.5l-1.6,2.1h-25.3l-1.6,1.2c0.2,0,0.5,0.2,0.9,0.7c0.4,0.4,0.7,0.7,0.7,0.9c-0.2,0.2-0.3,0.4-0.4,0.6
	s-0.2,0.3-0.2,0.5c-0.1,0.2-0.1,0.3-0.1,0.4c-0.2,0.2-0.4,0.7-0.9,1.3c-0.4,0.6-0.7,1-0.9,1.2v8.1h3.3L344,35
	c0.1-0.1,0.3-0.1,0.7-0.1c1,0,2.1,0.3,3.4,1s2.5,1.4,3.7,2.3c1.2,0.9,2.3,1.8,3.2,2.8c1,0.9,1.7,1.7,2.1,2.2
	c-1.1,0.2-1.9,0.7-2.6,1.2c-0.7,0.6-1.3,1.1-1.9,1.7c-0.6,0.5-1.3,1-2,1.5s-1.7,0.7-2.9,0.7c-1.1,0-1.9-0.2-2.6-0.5
	s-1.4-0.5-2.3-0.5c-0.2,0-0.4,0-0.4,0.1c-0.8,0.6-1.4,1-1.9,1.4c-0.4,0.4-0.7,1-0.7,1.8c0,0.2,0.2,0.7,0.7,1.6c0.5,0.9,1,2,1.6,3.1
	s1.2,2.1,1.8,3c0.6,0.9,1,1.3,1.2,1.3c0.7,0,1.3-0.1,1.8-0.4c0.6-0.3,1.2-0.4,2-0.4c1.1,0,2,0.4,2.6,1.2s1,1.7,1.2,2.8
	s0.3,2.2,0.3,3.4c0,1.2,0,2.1,0,2.9c0,1.1-0.3,2.1-1,2.9s-1.4,1.6-2.3,2.3c1.1,1.5,2,2.8,2.9,4s1.3,2.7,1.3,4.4
	c0,1.2-0.2,2.3-0.5,3.4c-0.3,1-0.5,2.1-0.5,3.2c0,0.2,0,0.6,0.1,1.1c0,0.5,0.1,1,0.2,1.5s0.3,0.9,0.5,1.3s0.5,0.6,0.9,0.6
	c0.2,0,0.4-0.1,0.9-0.3c0.4-0.2,0.7-0.4,0.7-0.5c-1.1,3.2-3.1,5.7-5.8,7.7c-2.7,2-5.8,2.9-9.2,2.9h-2.8c-0.7-1.1-1-2.4-1.1-3.7
	c-0.1-1.3-0.1-2.6-0.1-3.9s-0.1-2.6-0.4-3.8c-0.2-1.2-0.8-2.3-1.7-3.3c-0.1-0.1-0.2-0.1-0.4-0.1c-0.2,0-0.4,0-0.5,0.1l-0.7,0.4
	c-0.2,0.1-0.3,0.2-0.5,0.4v23.7c0,1.1-0.9,1.9-2.6,2.4c-1.8,0.6-3.7,1-5.9,1.3c-2.2,0.3-4.2,0.4-6,0.5c-1.9,0-3,0.1-3.3,0.1V50
	c-0.6,0-1.3,0.3-2.3,1s-1.9,1.4-2.9,2.2c-0.9,0.8-1.8,1.6-2.4,2.5c-0.7,0.9-1,1.4-1,1.8c0,0.2,0,0.4,0.1,0.4c0,0.2,0.1,0.6,0.4,1
	c0.2,0.4,0.4,0.7,0.4,0.7h0.9c0.1-0.2,0.3-0.6,0.8-1.3c0.4-0.7,0.7-1.1,0.8-1.2c0.2-0.2,0.5-0.4,0.9-0.4v16.8c-1.3,0-2.8,0-4.5-0.1
	s-3.2-0.4-4.5-1c-0.1,0.2-0.1,0.5-0.1,0.9c0,0.1,0,0.2,0,0.4c0,0.2,0,0.3,0.1,0.4c0.1,0.2,0.3,0.5,0.6,1c0.3,0.5,0.7,1,1,1.5
	s0.6,1,1,1.5c0.3,0.5,0.5,0.8,0.6,1h0.9c0.1-0.1,0.3-0.2,0.7-0.4c0.4-0.2,0.8-0.3,1.3-0.5c0.4-0.2,0.9-0.3,1.3-0.5s0.6-0.3,0.7-0.4
	c0.2-0.1,0.5-0.1,0.9-0.1v21.3c0,1.1-0.6,2.1-1.8,2.8c-1.2,0.7-2.5,1.3-4.1,1.8c-1.5,0.4-3.1,0.8-4.6,0.9c-1.5,0.2-2.7,0.2-3.4,0.2
	c-0.3,0-0.8,0-1.4,0s-0.9,0-0.9-0.1l-1.2-0.7V57.2c-0.1,0-0.3,0-0.6-0.1c-0.3-0.1-0.5-0.1-0.6,0c-0.5,0.2-0.9,0.3-1.2,0.4
	c-0.3,0.1-0.6,0.2-0.9,0.4v44.8c0,2.5-0.5,4.7-1.6,6.6s-2.5,3.5-4.2,4.8c-1.8,1.3-3.7,2.3-5.9,3c-2.2,0.7-4.4,1-6.7,1
	c-0.3,0-0.6,0-0.9-0.1c-0.2,0-0.4-0.3-0.6-0.8c-0.2-2.2-0.4-4.1-0.6-5.6s-0.7-2.9-1.3-4.1c-0.6-1.2-1.5-2.3-2.6-3.4
	c-1.1-1-2.6-2.1-4.5-3.1v-0.9c0-0.3,0-0.7,0.1-1s0.3-0.5,0.7-0.6h8.2c0.2-0.1,0.6-0.2,1-0.4c0.4-0.2,0.6-0.3,0.6-0.4V73.3
	c0-0.6-0.4-0.9-1.1-0.9s-1.2,0-1.3,0c-0.9,0-1.8,1.1-2.6,3.3c-0.8,2.2-1.7,5-2.7,8.3s-2,6.9-3.2,10.8c-1.1,3.9-2.4,7.5-3.9,10.8
	s-3.1,6.1-5,8.3c-1.9,2.2-4,3.3-6.3,3.3c-1.1,0-1.6-0.5-1.6-1.6c0-0.8,0.1-1.9,0.4-3.2c0.3-1.3,0.6-2.6,1-4c0.4-1.3,0.7-2.6,1.1-3.7
	c0.4-1.1,0.6-1.8,0.8-2.3c0.1-0.1,0.2-0.1,0.4-0.1s0.4,0,0.5,0.1l3.2,3.3h0.1c0.1,0,0.2,0,0.2-0.1l0.2-0.2c0-1-0.4-1.9-1.2-2.7
	c-0.8-0.9-1.6-1.4-2.6-1.8l-0.1-2.1c0-2.4,0.2-4.7,0.5-7.1s0.7-4.8,1.2-7.1c1.3-0.4,2.3-1.1,3-2s1.4-1.8,2.1-2.7
	c0.7-0.9,1.5-1.8,2.4-2.6c0.9-0.8,2.2-1.3,3.8-1.6v-4.9c0.1-0.2,0.2-0.6,0.5-1.2c0.2-0.7,0.4-1.1,0.4-1.2s-0.1-0.3-0.3-0.8
	c-0.2-0.4-0.4-0.7-0.5-0.8c-0.3-0.4-0.8-0.9-1.3-1.5s-1-1.1-1.5-1.6s-0.9-0.9-1.3-1.3c-0.4-0.4-0.7-0.5-0.7-0.5h-1
	c0,1.1,0,2.5,0.1,4.1c0.1,1.6,0,3.3-0.1,4.9c-0.2,1.6-0.6,3.1-1.3,4.5c-0.7,1.3-1.8,2.3-3.4,2.7v-75c1.7,0,3.4,0.3,4.9,0.8
	c1.6,0.5,3.2,1.1,4.8,1.8s3.2,1.3,4.8,1.8c1.6,0.5,3.2,0.8,4.9,0.8l1.7-0.1l6.5-6.6h0.7c0.7,0,1.6,0.3,2.6,0.8s1.9,1.1,2.8,1.8
	s1.7,1.3,2.4,2c0.7,0.6,1.1,1,1.3,1.2c0.1,0.1,0.1,0.2,0.1,0.4s0,0.4-0.1,0.5C288,8.7,287.8,9,287.5,9v6.6l-0.9,0.7
	c-0.1,0.1-0.4,0.1-1,0.2c-0.6,0-1.1,0.1-1.4,0.1c-1.4,0-2.6-0.1-3.8-0.3c-1.1-0.2-2.3-0.7-3.5-1.5c-0.1,0.1-0.1,0.2-0.1,0.4
	s0,0.4,0.1,0.5s0.4,0.5,0.9,1.3s1.1,1.6,1.8,2.5c0.7,0.9,1.3,1.7,1.8,2.4c0.6,0.7,0.9,1.1,1.1,1.1c1.5,0,2.7-0.2,3.4-0.5
	c0.7-0.4,1.2-0.9,1.5-1.5s0.5-1.4,0.7-2.3s0.5-1.9,1-2.9c0.4-0.8,0.8-1.4,1.2-1.7c0.4-0.3,0.8-0.6,1.2-0.9c0.4-0.2,0.7-0.5,1-0.8
	s0.5-0.8,0.7-1.5c0.6,0.8,1,1.6,1,2.4c0,0.7-0.2,1.2-0.5,1.6c-0.4,0.4-0.8,0.8-1.2,1.2c-0.4,0.4-0.9,0.8-1.2,1.2
	c-0.4,0.4-0.5,1-0.5,1.7s0.2,1.6,0.5,2.7s1,1.6,2.1,1.6s1.6-0.4,1.7-1.3H314c0.2-0.2,0.3-0.3,0.4-0.5l0.4-0.7c0.2-0.2,0.3-0.6,0.5-1
	s0.3-0.6,0.3-0.7V3.4l0.9-0.9l3.8-0.1c3,0,5.7,0.1,8.1,0.2c2.4,0.1,5.2,0.4,8.4,0.8c0.9-0.2,1.4,0,1.6,0.5s0.2,1,0.2,1.4
	c0,1.1-0.3,2-0.9,2.6s-1.4,1.2-2.6,1.9v13.8c0,0.6,0.2,1,0.5,1.2s0.7,0.4,1.1,0.5s0.8,0.1,1.3,0.1s0.8-0.1,1-0.1s0.6,0,1.1,0.1
	c0.5,0,1,0,1.5-0.1s0.9-0.2,1.2-0.5c0.3-0.2,0.5-0.6,0.5-1.1c0-2.2-1.1-3.3-3.3-3.3l2.4-3.3l0.9-0.9h0.4c2.1,0,3.8,0.5,5,1.4
	s2.3,2,3.2,3.1c0.9,1.1,1.8,2.2,2.7,3.1c0.9,0.9,2.2,1.4,3.7,1.4c1.1,0,1.9-0.1,2.4-0.4c0.4-0.3,0.9-1,1.3-2L363.6,24.5z M266,44.7
	c-0.3,0-0.6,0-0.7,0.1c-0.1,0-0.4,0.1-0.9,0.4c-0.5,0.2-0.8,0.4-0.9,0.4c0,0.1-0.1,0.1-0.4,0.1c-0.2,0-0.4,0-0.4-0.1
	c-0.2,0-0.3,0-0.4-0.1s-0.3-0.2-0.4-0.2c-0.2-0.1-0.3-0.2-0.4-0.4v-8.2h-6.2c0,0.9,0.2,1.8,0.5,2.6s0.5,1.7,0.5,2.6
	c0,0.2,0,0.5,0,0.9c0,0.3,0,0.5-0.1,0.5l-4.9,4.9v0.9c0.2,0.3,0.5,0.6,0.9,0.9h0.4c0.5,0,1-0.2,1.4-0.5s0.9-0.7,1.4-1.2
	c0.5-0.4,1-0.8,1.5-1.2c0.5-0.3,1.1-0.5,1.8-0.5c0.6,0,1.3,0.1,1.8,0.4c0.6,0.3,1.2,0.4,1.8,0.4h0.5c0.2-0.1,0.5-0.2,0.9-0.3
	c0.3-0.1,0.7-0.2,1.1-0.3l1.2-0.2V44.7z M261.7,58.6c0,0.7,0.4,1.3,1.1,1.6c0.7-0.4,1-0.9,1-1.6H261.7z M270.8,13.6
	c-0.2,0-0.5,0-1.2,0.1c-0.6,0.1-1,0.1-1.3,0.1c-0.1,0.1-0.2,0.2-0.4,0.4c-0.2,0.2-0.3,0.3-0.3,0.4v21.1c0,0.2,0.2,0.3,0.6,0.5
	s0.7,0.3,1,0.3s0.6-0.1,1-0.3s0.6-0.4,0.6-0.5L270.8,13.6L270.8,13.6z M271.7,115.8c1.2,0,2.8-0.3,4.6-0.9c1.9-0.6,3.7-1.4,5.4-2.4
	c1.7-1,3.2-2.2,4.5-3.5s1.9-2.6,1.9-4c0-1.1-0.6-1.7-1.7-1.7c-0.3,0-0.6,0-0.9,0.1c-1.4,2.6-3.3,5-5.7,7.3c-2.4,2.2-5.1,3.6-8.1,4.1
	L271.7,115.8L271.7,115.8z M287.9,83.9c-0.7-0.3-1.2-0.8-1.5-1.5c-0.2-0.7-0.5-1.3-0.7-1.9s-0.5-1.2-1-1.6c-0.4-0.5-1.3-0.7-2.5-0.7
	c-0.2,0-0.5,0.4-0.7,1.2c-0.2,0.8-0.4,1.7-0.5,2.7c-0.2,1-0.3,2-0.4,3s-0.1,1.6-0.1,2s0.2,0.9,0.5,1.3c0.4,0.5,0.8,0.9,1.3,1.3
	s1.1,0.8,1.6,1c0.5,0.3,1,0.4,1.4,0.4c0.1,0,0.3-0.1,0.7-0.3c0.4-0.2,0.7-0.4,1-0.5c0.1-0.1,0.2-0.2,0.4-0.4
	c0.2-0.2,0.3-0.3,0.3-0.4v-5.6H287.9z M314.8,27.6h-24.4v14.6h2.9v-5.4l1.3-0.2c0.4-0.1,0.8-0.1,1.2-0.2c0.4,0,0.8,0,1.1,0.1
	c1.2,0.2,2.4,0.7,3.6,1.2c1.2,0.6,2.4,1.1,3.5,1.7c1.2,0.6,2.4,1.1,3.5,1.5c1.2,0.4,2.5,0.7,3.8,0.7c0.3,0,0.8,0,1.4-0.1
	s1-0.1,1.2-0.1l0.7-0.9V27.6H314.8z M296.1,68.4v-0.9h-0.9v0.9H296.1z M295.2,88.9c0.6,0,1.3-0.1,2.3-0.3c0.9-0.2,1.4-0.7,1.4-1.5
	h-3.7L295.2,88.9L295.2,88.9z M311.6,22.9c0-0.2-0.2-0.4-0.5-0.4s-0.4,0.1-0.4,0.4c0.1,0.2,0.2,0.4,0.4,0.4S311.5,23.1,311.6,22.9z
	 M317.2,32.6c-0.2-0.1-0.3,0-0.3,0.2s-0.1,0.5-0.1,0.9s0,0.7,0.1,1s0.2,0.4,0.2,0.3c0.2-0.2,0.4-0.7,0.4-1.3
	C317.6,33.2,317.4,32.8,317.2,32.6z M325.4,91.2l6.6-5.6c0-0.5,0-0.8-0.1-1s-0.3-0.4-0.7-0.7c-0.2-0.2-0.7-0.6-1.3-1
	c-0.6-0.4-1.3-0.9-2-1.5c-0.7-0.5-1.4-1-2-1.5c-0.7-0.4-1.1-0.8-1.3-0.9c-0.2-0.1-0.7-0.1-1.2-0.1c-1.3,0-2.6,0.6-4,1.7
	s-2.1,2.4-2.1,3.7c0,0.5,0.4,1.1,1.1,1.9s1.5,1.5,2.4,2.3s1.8,1.4,2.6,2c0.9,0.5,1.4,0.8,1.6,0.8h0.4V91.2z M327.8,37.4
	c-2.4,0-4.4,0.2-5.9,0.7s-2.3,2.1-2.3,4.8c0.3,0,0.9-0.1,1.8-0.2c0.9-0.2,1.8-0.4,2.7-0.6c0.9-0.2,1.8-0.5,2.5-0.9s1.1-0.8,1.1-1.2
	L327.8,37.4L327.8,37.4z M322.1,110.7c0.2,0.1,0.6,0.1,1.2,0.1c2,0,2.9-1,2.9-2.9c0-1.8-0.6-2.9-1.8-3.3c-1.2-0.4-2.5-0.6-4.1-0.6
	l0.1,1c0.2,0.6,0.6,1.2,1.3,1.9c0.7,0.7,1.1,1.3,1.1,1.8v0.4L322.1,110.7z M323.3,22c0.9,0,1.6-0.1,2.3-0.4c0.6-0.2,1.2-0.5,1.9-0.7
	c0.7-0.2,1.4-0.5,2.3-0.7s1.9-0.4,3.2-0.4c0-1.3-0.4-2.2-1.3-2.7s-1.9-0.8-3.1-0.8c-0.5,0-1.1,0.1-1.9,0.3c-0.8,0.2-1.5,0.5-2.1,0.9
	c-0.7,0.4-1.2,0.8-1.7,1.3s-0.7,1.1-0.7,1.7C322.1,21.5,322.5,22,323.3,22z M322.9,46.4c0.4,0.7,1,1,1.8,1c0-0.8-0.3-1.4-1-1.8
	L322.9,46.4z M332.7,32.6l-0.9,0.7h0.9V32.6z M337.6,47.8l-3.3,0.2c-0.1,0.1-0.2,0.2-0.4,0.4c-0.2,0.2-0.3,0.3-0.3,0.4v33.3l1.3,2.1
	l2.7-1.2L337.6,47.8L337.6,47.8z M345.1,70.6c-0.8,0-1.5,0.1-2.1,0.4s-0.9,0.8-0.9,1.6c0.8,0,1.5-0.1,2.1-0.4
	C344.9,72,345.1,71.5,345.1,70.6z M348.9,12.3l-1.6-0.9h0.9c0.3,0,0.6,0,0.9,0.1s0.5,0.3,0.7,0.7L348.9,12.3L348.9,12.3z
	 M352.2,14.7c-0.2-0.1-0.4-0.3-0.9-0.8c-0.4-0.4-0.7-0.7-0.7-0.8c0.1-0.1,0.2-0.1,0.4-0.1c0.2,0,0.4,0,0.4,0.1
	c0.2,0.1,0.4,0.3,0.9,0.7c0.4,0.4,0.7,0.7,0.9,0.9C353.2,14.7,352.2,14.7,352.2,14.7z M353.8,16.3c-0.4,0-0.6-0.3-0.6-0.8
	s0.2-0.8,0.6-0.8s0.6,0.3,0.6,0.8C354.4,16,354.2,16.3,353.8,16.3z M355.5,16.3c0.1,0.2,0.3,0.4,0.6,0.7c0.3,0.3,0.7,0.6,1,1
	c0.4,0.4,0.7,0.7,1,1s0.5,0.5,0.5,0.6c-0.1,0.1-0.2,0.1-0.4,0.1c-0.2,0-0.4,0-0.4-0.1c-0.3-0.2-0.9-0.8-1.7-1.6
	c-0.8-0.8-1.3-1.4-1.6-1.7H355.5z M356.2,50.4c-0.2-0.1-0.2-0.3,0.2-0.6c0.4-0.3,0.6-0.4,0.7-0.1c0.1,0.2,0,0.5-0.2,0.7
	C356.7,50.6,356.5,50.6,356.2,50.4z M357.9,43.1c0.4,0,0.6,0.3,0.6,0.9c0,0.6-0.2,0.9-0.6,0.9s-0.6-0.3-0.6-0.9
	C357.3,43.4,357.5,43.1,357.9,43.1z M358.7,44.8c0.1-0.1,0.2-0.1,0.5-0.1c0.2,0,0.3,0,0.4,0.1c0.2,0.1,0.4,0.3,0.9,0.7
	c0.4,0.4,0.6,0.7,0.7,0.9l-0.7,0.9L358.7,44.8z M360.4,22c-0.6,0-0.8-0.3-0.6-0.9h-0.2c-0.4,0-0.6-0.3-0.6-0.8s0.2-0.8,0.6-0.8
	c0.6,0,0.8,0.3,0.6,0.9h0.2c0.4,0,0.6,0.2,0.6,0.7h0.1c0.4,0,0.6,0.3,0.6,0.9s-0.2,0.9-0.6,0.9s-0.6-0.3-0.6-0.9
	C360.5,22,360.4,22,360.4,22z"/>
<path class="st0" d="M469.3,19.6c0.1-0.1,0.3-0.4,0.8-0.9c0.4-0.5,0.7-0.7,0.8-0.7c0.1-0.1,0.3-0.1,0.7-0.2c0.4,0,0.6-0.1,0.7-0.1
	c0,0.8-0.7,1.6-2,2.4s-2.9,1.5-4.9,2.3s-4.1,1.5-6.4,2.3s-4.4,1.5-6.4,2.3c-2,0.7-3.6,1.5-4.9,2.2s-2,1.5-2,2.2c0,0.2,0,0.3,0.1,0.4
	c0.1,0.3,0.3,0.6,0.7,0.9c2.3,0.7,5.1,1.6,8.5,2.6s6.6,2.2,9.7,3.7s5.7,3.4,7.9,5.6c2.2,2.2,3.3,5,3.3,8.2c0,2.3-0.4,3.9-1.2,4.9
	c-0.8,1-1.8,1.8-2.9,2.3c-1.2,0.5-2.5,0.9-4,1.3c-1.5,0.4-2.9,1.1-4.3,2.2c0.3,0.3,0.9,0.8,1.8,1.5c0.9,0.7,1.8,1.4,2.7,2.1
	c0.9,0.7,1.8,1.5,2.5,2.2s1.1,1.3,1.1,1.8s-0.7,1.1-2.1,1.7c-1.4,0.7-3.1,1.3-4.9,1.9s-3.6,1.1-5.2,1.6c-1.7,0.4-2.7,0.8-3.2,0.9
	c-0.5,0.2-1.4,0.6-2.7,1.1c-1.3,0.5-2.7,1-4.1,1.5c-1.5,0.5-2.9,1-4.2,1.4c-1.3,0.4-2.3,0.8-2.7,0.9c-0.4,0.2-0.7,0.4-0.7,0.7
	c-0.1,0.3-0.1,0.6-0.1,1c0,1.5,1,2.9,3.1,4.1s4.6,2.2,7.7,3.2c3,0.9,6.4,1.8,10,2.4c3.6,0.7,7,1.3,10,1.8s5.6,1,7.7,1.5
	s3.1,0.8,3.1,1.2c0,0.2,0,0.4-0.1,0.5s-0.3,0.3-0.7,0.8c-0.4,0.4-0.7,0.7-0.9,0.8c0.3-1.1,0.2-1.8-0.4-2.3c-0.6-0.4-1.4-0.8-2.3-0.9
	c-0.9-0.2-1.9-0.2-3-0.2s-1.9,0.1-2.6,0.1s-1.2,0.1-1.6,0.4s-0.9,0.6-1.3,0.9s-0.9,0.6-1.4,0.9s-1,0.4-1.6,0.4
	c-0.5,0-0.9-0.2-1.2-0.7c-0.3-0.4-0.6-0.9-0.9-1.5c-0.3-0.5-0.6-1-1-1.5c-0.4-0.4-0.8-0.7-1.4-0.7c-0.7,0-1.3,0.2-2,0.7
	c-0.7,0.4-1.4,0.9-2.1,1.5c-0.7,0.5-1.4,1.1-2.1,1.6c-0.7,0.6-1.4,1-2,1.2c0.9,1.1,1.6,1.9,2.2,2.3s1,0.7,1.3,1s0.5,0.7,0.6,1.3
	c0.1,0.6,0.2,1.7,0.2,3.2c0.8,0,1.9-0.1,3.4-0.2c1.4-0.1,2.9-0.3,4.3-0.6c1.5-0.3,2.8-0.7,4.1-1.2c1.3-0.5,2.1-1.1,2.6-1.8
	c-0.5,0.9-0.9,2.1-1.3,3.5c-0.4,1.5-0.8,2.9-1.3,4.3s-1.1,2.7-1.8,3.7c-0.7,1.1-1.7,1.6-2.9,1.6c-3.2,0-6.4-0.7-9.8-2
	c-3.3-1.3-6.5-3.1-9.5-5.2c-3-2.2-5.7-4.6-8-7.3c-2.3-2.7-4-5.5-5.2-8.4c0.6-0.4,1.7-0.7,3.4-0.7c1.7-0.1,3.4-0.1,5.2-0.1
	s3.4,0,4.8-0.1c1.4,0,2.1-0.3,2.1-0.7v-0.9c-0.5-0.2-1-0.3-1.5-0.4c-0.4-0.1-0.9-0.1-1.3-0.2c-0.5,0-0.9-0.1-1.2-0.2
	c-0.2-0.1-0.7-0.2-1.3-0.2c-0.6-0.1-1.3-0.2-2-0.2c-0.7-0.1-1.3-0.2-2-0.2c-0.6-0.1-1-0.1-1.3-0.1c-0.3-0.2-0.6-0.5-0.9-0.9
	c-0.1-0.1-0.3-0.5-0.8-1.2c-0.4-0.7-0.7-1.1-0.8-1.3h-0.9c-0.2,0.2-0.8,0.4-1.6,0.9c-0.9,0.4-1.4,0.7-1.6,0.9
	c-0.7-0.2-1.1-0.8-1.2-1.6c-0.2-0.8-0.3-1.6-0.4-2.5s-0.2-1.6-0.5-2.3c-0.2-0.7-0.8-1-1.6-1c-0.2,0-0.3,0-0.4,0.1
	c-2.4,5.3-5.7,10.1-9.9,14.5c-4.1,4.4-8.8,8.1-14,11.3c-5.2,3.2-10.7,5.6-16.6,7.4c-5.9,1.7-11.8,2.6-17.7,2.6h-1.2
	c1.1-0.2,2-0.4,2.7-0.5s1.3-0.3,1.7-0.5c0.4-0.2,0.7-0.6,0.9-1c0.2-0.4,0.2-1,0.2-1.7c-0.2,0-0.5-0.1-1.1-0.2s-0.9-0.1-1.1-0.1
	s-0.5,0.1-1,0.2c-0.5,0.2-1,0.3-1.5,0.5s-1,0.3-1.5,0.5s-0.8,0.3-0.9,0.4c0.7-1.1,1.8-2,3.4-2.7c1.5-0.8,3.2-1.5,4.9-2.1
	c1.8-0.6,3.6-1.2,5.3-1.7c1.7-0.5,3.2-1.1,4.3-1.6c0.7,0.1,1.4,0.3,2,0.7c0.6,0.4,1.2,0.8,1.7,1.2c0.5,0.4,1.1,0.8,1.6,1.1
	c0.6,0.3,1.2,0.5,1.8,0.5c1.5,0,2.5-0.5,3.2-1.6s1.3-2.2,1.8-3.4c-0.2-0.3-0.5-0.6-0.9-0.9h-0.4c-0.4,0-0.8,0.1-1.1,0.4
	c-0.3,0.3-0.7,0.6-1,0.9s-0.7,0.6-1.1,0.9s-0.9,0.4-1.3,0.4c-1.5,0-2.6-0.6-3.3-1.7c1.5-1.6,3-3.1,4.5-4.5s3.1-2.8,4.6-4.2
	c1.5-1.4,2.9-2.9,4.3-4.5s2.6-3.4,3.7-5.4c0.6,0.1,1.3,0,2.1-0.1c0.8-0.2,1.6-0.4,2.4-0.7c0.8-0.3,1.5-0.6,2.2-1.1
	c0.6-0.4,1.1-0.9,1.5-1.4c-0.9-1.1-1.6-1.9-2.3-2.3c-0.6-0.4-1.1-0.7-1.5-1.1s-0.6-0.9-0.8-1.6c-0.2-0.7-0.3-2-0.4-3.9
	c0-0.8,0-2.3,0-4.3c0-2.1,0-4.2,0.1-6.5c0.1-2.3,0.1-4.4,0.2-6.5c0-2,0.1-3.5,0.1-4.3c-3,0-6,0.5-8.8,1.5c-2.9,1-5.8,2.1-8.7,3.2
	c-2.9,1.2-5.8,2.3-8.8,3.2c-3,1-6,1.5-9.1,1.5h-2.4c-0.1-0.2-0.2-0.4-0.4-0.9c-0.2-0.4-0.3-0.7-0.3-0.9c-0.1,0-0.1-0.1-0.1-0.4
	c0-0.2,0-0.3,0.1-0.4c4-2.2,7.7-4.2,11.3-6s6.9-3.7,9.9-5.9c3.1-2.1,6-4.5,8.8-7.3c2.8-2.7,5.4-6.1,7.8-10.2v2.4
	c0.5-0.1,0.9-0.3,1.2-0.7c0.3-0.4,0.5-0.9,0.6-1.5s0.2-1.1,0.2-1.7s0.1-1.1,0.1-1.5c0-0.8-0.1-1.3-0.4-1.6c-0.3-0.2-0.4-0.7-0.4-1.5
	c0-1.9-0.1-3.8-0.2-5.8s-0.2-4-0.2-6s0.1-4,0.4-5.9c0.2-2,0.8-3.8,1.6-5.6l3.7-0.1c3.4,0,6.8,0.2,10.1,0.5c3.3,0.3,6.6,0.7,9.8,1.2
	c0.4,0.2,0.7,0.4,0.9,0.9v0.7c-1.3,2-2.3,3.8-3,5.6s-1.2,3.6-1.6,5.6c-0.4,1.9-0.7,3.9-0.9,5.9s-0.6,4.2-1,6.6
	c0.2,0.9,0.7,1.4,1.5,1.5s1.5,0.2,2.2,0.2c1.4,0,2.7-0.6,3.8-1.8c1.2-1.2,2.3-2.7,3.3-4.6c1-1.8,2-3.8,2.9-5.9s1.8-4.1,2.7-5.9
	c0.9-1.8,1.7-3.4,2.6-4.6s1.8-1.8,2.8-1.8s2.3,0.4,4,1.2s3.4,1.8,5.2,2.9c1.7,1.1,3.4,2.3,4.9,3.5s2.5,2.2,3.1,3
	c-0.2,0-0.7,0.1-1.3,0.3c-0.6,0.2-1,0.3-1.2,0.4c-0.1,0.1-0.1,0.2-0.1,0.4c0,0.7,0.5,1.4,1.4,2s1.7,0.9,2.4,0.9h0.5V19.6z
	 M398.7,74.1c0,2.3-0.2,4.5-0.7,6.8c-0.4,2.2-1.2,4.2-2.3,6c-1.1,1.8-2.5,3.2-4.2,4.3c-1.8,1.1-4,1.6-6.6,1.6c-2.8,0-5-0.9-6.6-2.6
	c-1.7-1.7-2.5-3.9-2.5-6.7c0-2,0.4-3.5,1.3-4.8c0.9-1.2,1.9-2.3,3.1-3.2c1.2-0.9,2.5-1.8,4-2.6c1.4-0.8,2.7-1.8,3.8-3.1
	c0.5-0.4,1-1.2,1.5-2.4c0.5-1.2,1-2.4,1.5-3.6c0.5-1.2,1-2.3,1.5-3.2s1.1-1.4,1.6-1.4c1.3,0,2.3,0.7,2.9,2s1.1,2.8,1.3,4.5
	s0.4,3.4,0.4,5C398.7,72.4,398.7,73.5,398.7,74.1z M395.3,6.5c1.1,0,1.9,0.5,2.4,1.6c0.6,1.1,1,2.4,1.2,3.8s0.4,2.8,0.4,4.3
	c0,1.4,0.1,2.4,0.1,3c0,2-0.2,4.1-0.7,6.2s-1.2,4-2.2,5.7s-2.3,3.1-4,4.1c-1.6,1.1-3.6,1.6-5.9,1.6c-3,0-5.3-0.7-7-2.1
	c-1.6-1.4-2.4-3.8-2.4-7c0-2.3,0.7-4.2,2.2-5.9c1.5-1.7,3.2-3.3,5.1-4.8c1.9-1.5,3.8-3.1,5.7-4.7c1.9-1.6,3.3-3.5,4.2-5.7h0.9V6.5z
	 M384.8,53.7c-0.6,0.2-1.3,0.5-2.1,1c-0.8,0.5-1.2,1.1-1.2,1.8V57c0.1,0.3,0.4,0.6,0.9,0.7c0,0.1,0.1,0.1,0.4,0.1
	c0.8,0,1.5-0.5,2-1.6s0.8-1.9,0.8-2.5H384.8z M384.8,76.1c0-0.5-0.2-0.8-0.5-1c-0.4-0.2-0.8-0.2-1.2-0.2c-1.1,0-1.6,0.5-1.6,1.6
	c0,0.7,0.1,1.2,0.2,1.6s0.3,1,0.7,1.6c0.2-0.6,0.6-1.3,1.3-1.9C384.4,77.2,384.8,76.6,384.8,76.1z M391.3,51.3
	c-0.2,0.1-0.4,0.2-0.9,0.4c-0.4,0.2-0.7,0.3-0.7,0.4c0.2,0.1,0.5,0.3,1.2,0.8c0.6,0.4,1,0.7,1.3,0.8c0.2,0.2,0.4,0.3,0.9,0.5
	c0.4,0.2,0.7,0.3,0.7,0.3c0.6,0,0.9-0.3,0.9-0.9c-0.2-0.2-0.6-0.7-1.2-1.3c-0.7-0.6-1.1-1-1.2-1.2h-1V51.3z M406.7,83.9
	c-0.2,0.4-0.5,0.7-0.9,0.7v-0.7c0.2-0.4,0.4-0.7,0.9-0.9V83.9z M415.8,96.8c0-0.5-0.2-0.9-0.7-1.1c-0.4-0.2-1-0.4-1.5-0.5
	c-0.6-0.1-1.1-0.2-1.7-0.2s-1,0-1.3,0c0,0.9,0.4,1.7,1.3,2.4c0.9,0.7,1.7,1.1,2.6,1.1c0.5,0,0.8-0.2,1-0.5
	C415.7,97.6,415.8,97.2,415.8,96.8z M442.1,79c0.7,0,1-0.4,1.1-1.1s0.1-1.3,0.1-1.8c0-1.1-0.4-1.9-1.3-2.6s-1.3-1.4-1.3-2.3
	c0-0.2,0-0.3,0.1-0.4c1.2-2.1,2.7-4.5,4.3-7c1.7-2.6,3.2-4.8,4.6-6.8c0.3-0.5,0.9-0.8,1.6-1s1.5-0.4,2.2-0.7s1.4-0.7,2-1.2
	s0.9-1.3,0.9-2.4c0-0.2,0-0.3-0.1-0.4c-0.1-0.3-0.3-0.6-0.7-0.9c-1,0.3-2.2,0.4-3.8,0.2c-1.5-0.2-3-0.6-4.5-1.2
	c-1.4-0.6-2.7-1.4-3.7-2.4c-1.1-1-1.6-2.2-1.6-3.6c-1.3,0-2.6-0.4-3.8-1.3c-1.3-0.9-2.5-1.8-3.6-2.9c-1.1-1-2.2-2-3.2-2.9
	s-1.9-1.3-2.7-1.3c-0.5,0-1.4,0.3-2.8,1s-2.8,1.5-4.2,2.5c-1.4,1-2.6,2-3.5,3s-1.2,1.9-0.9,2.5l-4,4v1.7c1,0.1,1.8,0.2,2.5,0.2
	c0.7,0.1,1.4,0.2,2.1,0.3s1.3,0.2,1.8,0.2c2.9,0.1,5.2,0.2,7,0.4s3.3,0.5,4.8,0.9s2.2,0.9,2.2,1.6c0,0.7-0.2,1.2-0.5,1.6
	c-0.4,0.4-0.8,0.9-1.2,1.3c-0.4,0.4-0.8,0.8-1.2,1.3c-0.4,0.4-0.5,1-0.5,1.6c0,0.7,0.1,1.9,0.2,3.7c0.2,1.8,0.5,3.6,0.9,5.6
	c0.4,1.9,1,3.6,1.8,5.1c0.7,1.5,1.7,2.3,2.9,2.3c0.7,0,1.3-0.2,1.8-0.7c0.4-0.4,0.9-1.1,1.4-1.9c0.2,0.4,0.4,1.2,0.9,2.4
	c0.4,1.2,0.7,2,0.9,2.4c0,0.1,0.1,0.2,0.3,0.4c0.2,0.2,0.3,0.3,0.4,0.4h0.3V79z M423.1,24.5c0-1.3,0.2-2.6,0.5-4
	c0.4-1.3,0.8-2.7,1.2-4c0.4-1.3,0.9-2.6,1.2-3.8c0.4-1.3,0.5-2.5,0.5-3.8c-1.1,0-2,0.2-2.7,0.5s-1.6,0.5-2.6,0.5
	c-0.8,0-1.5,0-2.1-0.1c-0.6,0-1.3-0.3-2.1-0.8v3.7c0,1.5,0.2,2.8,0.5,4s0.5,2.5,0.5,3.9c0,0.8-0.1,1.5-0.2,2.1
	c-0.2,0.6-0.7,1.2-1.5,1.8l8.1,8.2c0.3-0.9,0.7-1.6,1-2.2c0.4-0.6,0.7-1.1,1-1.7s0.5-1.2,0.7-1.8c0.2-0.6,0.2-1.4,0.2-2.5
	C427.3,24.5,423.1,24.5,423.1,24.5z M426.6,63.5c-0.5,0-1.2,0.1-2,0.2c-0.9,0.1-1.7,0.3-2.6,0.6s-1.6,0.7-2.3,1.2
	c-0.7,0.5-1,1.1-1,1.7c0,0.7,0.2,1.2,0.6,1.8c0.4,0.5,0.9,1,1.5,1.4s1.2,0.7,1.9,1c0.7,0.2,1.3,0.4,1.8,0.4c0.2,0,0.6,0,1-0.1
	s0.7-0.3,0.7-0.7c0-0.1-0.1-0.3-0.4-0.8c-0.3-0.4-0.4-0.7-0.4-0.8l-0.1-1.3c0-1.1,0.2-2,0.7-2.5c0.4-0.5,1.4-1.2,2.7-1.9h-2.1V63.5z
	 M419.7,86.3c0.4,0,0.6-0.3,0.6-0.9s-0.2-0.9-0.6-0.9s-0.6,0.3-0.6,0.9S419.3,86.3,419.7,86.3z M423.8,83c-0.2-0.3-0.5-0.6-0.9-0.9
	h-0.5c-0.5,0-0.8,0.3-1,1s-0.2,1.2-0.2,1.6c0.4,0,0.9-0.1,1.6-0.2s1-0.5,1-1.3V83z M427,3.4v2.4c0.8,0,1.7-0.2,2.7-0.5s1.5-1,1.5-2
	L427,3.4L427,3.4z M431.9,76.6c0.4,0,0.6-0.3,0.6-0.9s-0.2-0.9-0.6-0.9s-0.6,0.3-0.6,0.9C431.3,76.3,431.5,76.6,431.9,76.6z
	 M438.5,30.9c-0.4-0.7-1-1-1.8-1c0,0.8,0.3,1.4,1,1.8L438.5,30.9z M439.2,34.2c0.1,0.4,0.2,1,0.4,1.8c0.2,0.8,0.3,1.3,0.4,1.5
	c0.1,0.1,0.2,0.2,0.4,0.4c0.2,0.2,0.3,0.3,0.4,0.3c0.9,0,1.7-0.5,2.3-1.5c0.6-1,1-1.8,1-2.6s-0.3-1.3-1-1.5s-1.3-0.2-1.9-0.2
	c-0.5,0-1,0.1-1.4,0.2c-0.4,0.1-0.7,0.5-0.7,1v0.6H439.2z M445.8,103.2c-0.4,0-0.9,0-1.4,0.1s-0.9,0.4-1,0.9
	c0.2,0.3,0.5,0.7,0.9,1.2s1,0.7,1.5,0.7V103.2z M451.4,24.8c0,0.6,0.2,1,0.7,1.2c0.4,0.2,0.9,0.3,1.3,0.3c0-0.4-0.1-0.9-0.2-1.5
	s-0.4-1-0.9-1.2c-0.3,0.2-0.6,0.5-0.9,0.9V24.8z M454.7,44c0.4,0,0.6-0.3,0.6-0.8s-0.2-0.8-0.6-0.8s-0.6,0.3-0.6,0.8
	S454.3,44,454.7,44z M467.7,102.2c0,0.5-0.2,0.8-0.5,1c-0.4,0.2-0.8,0.2-1.2,0.2c-1.1,0-1.6-0.4-1.6-1.2c0-0.9,0.5-1.3,1.6-1.3
	c0.4,0,0.8,0.1,1.2,0.3C467.6,101.3,467.7,101.7,467.7,102.2z M475.1,52c0-1.7-0.7-2.8-2-3.3s-2.7-0.7-4.2-0.7c-0.7,0-1.3,0.1-2,0.4
	c-0.7,0.2-1.2,0.7-1.6,1.3c0.8,0.7,1.3,1.3,1.5,1.8c0.2,0.6,0.2,1.3,0.2,2.2c0,1.1-0.3,1.9-0.9,2.5s-0.9,1.4-0.9,2.4
	c0,0.8,0.2,1.3,0.7,1.5s1.1,0.2,1.8,0.2c0.6,0,1.4-0.3,2.3-0.9c0.9-0.6,1.6-1.4,2.4-2.3c0.7-0.9,1.4-1.8,1.9-2.7
	S475.1,52.7,475.1,52z M470.2,18c-0.4,0-0.6-0.3-0.6-0.9s0.2-0.9,0.6-0.9s0.6,0.3,0.6,0.9C470.8,17.7,470.6,18,470.2,18z"/>
<path class="st0" d="M589.7,68.4c2,0.1,3.4,0.8,4.4,2.2s1.7,2.9,2.1,4.5c0.4,1.6,0.8,3,1,4.4c0.2,1.3,0.5,2,0.9,2
	c1.5,0,2.8-0.4,3.7-1.2c0.9-0.8,1.5-1.7,2-2.9c0.4-1.2,0.6-2.4,0.7-3.7c0-1.3,0-2.5-0.1-3.7c0.6,0.6,0.9,1.3,0.9,2.2
	c0,0.9,0,1.7,0,2.3c0,2.8-0.9,4.9-2.6,6c-1.7,1.2-3.9,1.8-6.6,1.8c-2.5,0-4.9-0.4-7.1-1.3c-2.2-0.9-4.4-2-6.4-3.4s-4-2.9-5.9-4.5
	s-3.8-3.2-5.7-4.6c-0.2-0.1-0.4-0.1-0.7-0.1c-0.2,0-0.3,0-0.4,0.1c-0.1,0-0.2,0.1-0.2,0.1h-0.2l-5.7,2.4h-0.7
	c-0.2-0.1-0.6-0.4-1.3-0.9s-1.1-0.7-1.2-0.7c-0.1-0.1-0.2-0.1-0.5-0.1c-0.5,0-1,0.2-1.6,0.5c-0.6,0.4-1.1,0.8-1.6,1.3
	s-0.9,1-1.3,1.6c-0.4,0.6-0.6,1.1-0.8,1.6c0.4,0.7,1.1,1.2,2.1,1.7s2,1,3,1.5s1.9,1.1,2.7,1.7c0.8,0.7,1.2,1.5,1.2,2.4v0.7
	c-1-0.2-1.8-0.5-2.3-1c-0.6-0.5-1.1-1.1-1.6-1.6c-0.5-0.6-1-1.1-1.6-1.5s-1.3-0.7-2.3-0.7c-0.7,0-1.6,0.3-2.6,0.8s-2.1,1.1-3.2,1.8
	c-1.1,0.7-2.3,1.3-3.4,2c-1.1,0.6-2.2,1-3.2,1.2c-0.1,0-0.4-0.1-0.9-0.4s-0.8-0.4-0.9-0.4c-0.3,0.2-0.8,0.6-1.5,1.2
	c-0.7,0.7-1,1.1-1,1.2v13.9h22.8c1.3,0,2.6-0.8,4-2.4s2.5-3.4,3.6-5.6c1.1-2.1,1.9-4.2,2.6-6.3c0.7-2.1,1-3.7,1-4.8
	c1.3,0,3,0.1,5,0.2c2,0.2,4.1,0.4,6.2,0.9c2.1,0.4,4,1,5.7,1.8s3,1.8,3.7,3.1c-1.6,0.6-3,1.7-4.1,3.3s-1.7,3.3-1.7,5.1
	c0,0.5,0,1.1,0.1,1.9c0,0.8,0.5,1.2,1.3,1.2c0.5,0,0.9-0.1,1.2-0.4s0.5-0.6,0.8-0.9c0.2-0.3,0.5-0.6,0.9-0.9
	c0.3-0.3,0.7-0.4,1.2-0.4c2,0,3.1,1,3.1,3c0,0.7-0.2,1.3-0.7,1.7c-0.4,0.4-0.9,0.8-1.5,1c-0.5,0.3-1,0.6-1.5,1
	c-0.4,0.4-0.7,0.9-0.7,1.5c0,0.3,0,0.6,0.1,0.9c1.9,0.1,3.6,0.7,5.1,1.7c1.5,1.1,2.8,2.4,3.8,3.9c-0.6,1-1.4,1.6-2.4,2
	c-1.1,0.4-2.1,0.5-3.2,0.5c-2.5,0-4.6-0.6-6.2-1.9c-1.6-1.3-2.9-2.8-3.9-4.6c-1-1.8-1.9-3.8-2.5-6c-0.7-2.2-1.3-4.2-2-6
	s-1.5-3.4-2.3-4.6c-0.9-1.3-2-1.9-3.5-1.9v10.4c1,0.9,1.8,1.6,2.4,2.2c0.6,0.6,1.1,1.2,1.5,1.8c0.4,0.6,0.6,1.3,0.8,2
	s0.2,1.7,0.2,2.8c0,1.5-0.4,2.9-1.2,4.2c-0.8,1.3-1.9,2.3-3.1,3.2c-1.3,0.9-2.7,1.5-4.2,2c-1.5,0.4-3,0.7-4.5,0.7h-34.5
	c0-2.8,0.7-4.8,2.1-6.2c1.4-1.3,2.9-2.3,4.6-2.9c1.7-0.6,3.3-0.9,4.6-1.1c1.4-0.2,2.1-0.4,2.1-0.9c0-0.9-0.5-1.3-1.6-1.3
	s-2.3,0.2-3.4,0.5c-1.1,0.3-2.2,0.5-3.2,0.5c-0.7,0-1.4-0.2-1.9-0.5c-0.5-0.4-1-0.8-1.5-1.2c-0.5-0.4-1-0.8-1.5-1.2
	c-0.5-0.4-1.2-0.5-1.9-0.5c-1,0-1.8,0.3-2.5,0.9s-1.3,1.3-2,2.1c-0.6,0.8-1.2,1.6-1.9,2.4c-0.7,0.9-1.4,1.5-2.3,2
	c0.4,0.7,0.9,1.3,1.6,1.6c0.6,0.3,1.3,0.7,2,1s1.2,0.8,1.6,1.3c0.4,0.6,0.7,1.5,0.7,2.8c-0.9,0-1.8-0.2-2.6-0.6
	c-0.9-0.4-1.6-0.9-2.4-1.5s-1.3-1.3-1.8-2.1c-0.4-0.8-0.7-1.6-0.7-2.4V78.1h16.8c0-0.7-0.1-1.4-0.3-1.9s-0.3-1.1-0.3-1.8V74
	c0.1-0.2,0.2-0.3,0.4-0.5s0.3-0.3,0.4-0.3h13.1c1.1-1,2.1-1.8,2.9-2.5c0.8-0.7,1.6-1.4,2.4-2.1c0.8-0.7,1.5-1.3,2.1-1.8
	c0.3-0.3,0.8-0.8,1.5-1.3c0.6-0.5,1.3-1.1,1.9-1.8c0.6-0.7,1.2-1.3,1.6-2.1c0.5-0.7,0.7-1.5,0.7-2.3c0-0.4-0.2-1.1-0.5-2.1
	c-0.4-1-0.8-2-1.3-3s-1.1-1.9-1.8-2.7s-1.4-1.2-2-1.2c-0.2,0-0.7,0-1.2,0.1c-0.6,0.1-0.9,0.3-0.9,0.7v11.3c-0.2-0.1-0.5-0.2-1-0.4
	s-0.9-0.3-1-0.3c-0.1-0.1-0.2-0.1-0.5-0.1s-0.4,0.2-0.6,0.7c-0.2,0.4-0.4,0.9-0.6,1.5c-0.2,0.5-0.5,1-0.9,1.5
	c-0.4,0.4-0.8,0.7-1.4,0.7c-0.9,0-1.5-0.3-1.9-1s-0.7-1.5-0.9-2.3c-0.2-0.9-0.5-1.6-0.9-2.3c-0.3-0.7-0.9-1-1.8-1
	c-1.1,0-2.1,0.1-2.9,0.3c-0.8,0.2-1.6,0.7-2.6,1.4v-9.8c0-0.2-0.1-0.4-0.4-0.5c-0.3-0.1-0.6-0.2-0.9-0.2c-0.3,0-0.8-0.1-1.5-0.1
	c-0.1,0-0.3,0-0.6,0s-0.7,0-1,0.1c-0.3,0-0.6,0.1-0.9,0.2c-0.3,0.1-0.4,0.3-0.4,0.5v8.9c-0.9-1.5-2.1-2.4-3.7-2.7
	c-1.5-0.3-3.1-0.5-4.8-0.5c0,0.5,0.3,1.2,0.9,2.3c0.6,1,1.2,2,2,3s1.6,1.9,2.4,2.6c0.8,0.7,1.5,1.1,2,1c0.1,0,0.3-0.1,0.6-0.4
	c0.3-0.2,0.7-0.5,1-0.9c0.4-0.3,0.7-0.6,1-0.9c0.3-0.2,0.5-0.4,0.6-0.4c1.2,0,2.2,0.6,3,1.7s1.2,2.2,1.2,3.2l-0.1,1.6
	c-0.5-0.2-0.9-0.7-1.1-1.5c-0.2-0.7-0.4-1.3-0.5-1.7c-0.2-0.1-0.5-0.1-1-0.2c-0.5,0-0.9-0.1-1-0.1c-1.3,0-2.6,0.3-3.9,1
	c-1.3,0.7-2.6,1.5-4,2.3c-1.4,0.9-2.8,1.6-4.3,2.3c-1.5,0.7-3.2,1-4.9,1c-0.2,0-0.7,0-1.5,0.1c-0.7,0-1.1-0.3-1.2-0.9
	c0.1-2,0-4-0.2-5.8s-0.5-3.6-0.9-5.3c-0.3-1.7-0.6-3.4-0.9-5.1c-0.3-1.7-0.4-3.5-0.4-5.4v-0.4c0-0.1,0.1-0.3,0.3-0.6s0.4-0.7,0.5-1
	c0.2-0.3,0.3-0.7,0.5-1s0.2-0.5,0.2-0.6v-0.4c0-0.1,0-0.2-0.1-0.2c-1.4,0-2.5,0.4-3.4,1.3c-0.9,0.9-1.7,1.9-2.3,3.1
	c-0.7,1.2-1.2,2.5-1.7,3.9s-0.9,2.6-1.3,3.7c0.8,0,1.5,0.1,2,0.4c0.5,0.3,0.9,0.6,1.3,0.9c0.4,0.3,0.7,0.6,1.1,0.9s0.9,0.4,1.5,0.4
	c0,1.1-0.3,2.2-1,3l-1.6-0.9H509c-0.2,0-0.7,0.1-1.6,0.4c-0.9,0.2-1.5,0.4-1.6,0.5h-1.6c-0.1-0.1-0.3-0.2-0.8-0.5
	c-0.4-0.2-0.7-0.4-0.8-0.4c-0.1,0-0.2,0.1-0.4,0.3c-0.2,0.2-0.3,0.4-0.4,0.5v0.4c0,0.7,0.3,1.5,1,2.4c0.7,1,1.1,1.7,1.5,2.1
	l-2.4,4.9c-0.1,0.1,0,0.2,0.2,0.4c0.2,0.2,0.4,0.3,0.7,0.3c0.1,0,0.3-0.1,0.8-0.4c0.4-0.2,0.7-0.4,0.8-0.4l1.2-0.1
	c0.6,0,1,0,1.2,0.1c-0.7,1.2-1.7,2.7-2.9,4.3c-1.2,1.7-2.5,3.3-3.9,4.8s-2.9,2.8-4.6,3.9c-1.6,1.1-3.3,1.6-4.9,1.6
	c-0.4,0-0.8-0.1-1.2-0.2c-0.4-0.2-0.5-0.5-0.5-1c0-1.4,0.4-3.2,1.1-5.4c0.7-2.2,1.6-4.5,2.5-6.9s1.8-4.8,2.7-7.2
	c0.9-2.4,1.5-4.5,1.8-6.2c0.7-4.1,1.3-8.4,1.6-12.8c0.3-4.3,0.5-8.7,0.6-13.1s0.1-8.7,0.1-13.1c0-4.3,0-8.4,0.1-12.3
	c0.2-0.1,0.7-0.1,1.2-0.1c1.5,0,3.1,0.3,4.6,0.9c1.5,0.6,3,1.3,4.5,2s3,1.3,4.5,2c1.5,0.6,3.1,0.9,4.7,0.9h32.6v-14L553,0
	c4.1,0.5,7.5,0.8,10.2,0.9C565.8,1,568,1,569.8,1c1.7,0,3.2,0.1,4.5,0.2c1.2,0.1,2.5,0.5,3.8,1c1.3,0.6,2.8,1.4,4.6,2.6
	s4.1,2.8,7,4.9c0.1,0.1,0.2,0.1,0.2,0.1h0.6c0.6,0,1-0.2,1.2-0.5c0.2-0.4,0.5-0.8,0.7-1.2c0.2-0.4,0.5-0.8,0.8-1.2
	c0.3-0.4,0.8-0.5,1.4-0.5h0.7l7.3,7.3v0.9c-0.5-0.4-0.9-0.7-1.2-0.7c-0.3-0.1-0.8-0.1-1.3-0.1c-1,0-1.7,0.3-2.2,1s-1.1,1.4-1.7,2.2
	c-0.7,0.8-1.6,1.4-2.7,2c-1.2,0.6-3,0.7-5.4,0.5l-0.9,0.9h17.1c0.2,0,0.3-0.2,0.5-0.7c0.2-0.4,0.3-0.8,0.3-1c0-0.1-0.1-0.3-0.4-0.8
	c-0.3-0.4-0.4-0.7-0.4-0.8v-0.9c0.8,0.3,1.3,0.7,1.5,1.2s0.2,1.1,0.2,1.7c0,0.5-0.1,1-0.2,1.6c-0.2,0.6-0.7,0.9-1.5,0.9h-19
	c0,1.6,0.8,2.7,2.4,3.4c1.6,0.6,3.5,1.1,5.6,1.5s4.2,0.9,6.3,1.4s3.7,1.5,4.6,3c-0.2,0.1-0.4,0.1-0.9,0.1c-1.1,0-2.1-0.3-3-0.9
	s-1.9-0.9-3-0.9c-0.8,0-1.5,0.2-2.1,0.5s-1.3,0.5-2.1,0.5c-0.9,0-1.6-0.3-2.2-0.9c-0.6-0.6-1.2-1.3-1.8-2s-1.3-1.3-2-2
	c-0.7-0.6-1.7-0.9-2.8-0.9h-0.5c0.1,0.2,0.1,0.7,0.1,1.4c0,0.7-0.1,1.4-0.2,2.3c-0.1,0.8-0.2,1.6-0.3,2.3c-0.1,0.7-0.2,1.2-0.2,1.3
	c-0.1,0.1-0.2,0.3-0.5,0.6c-0.2,0.3-0.5,0.7-0.8,1c-0.3,0.4-0.5,0.7-0.8,1c-0.2,0.3-0.4,0.5-0.4,0.6c-0.1,0-0.1,0.1-0.1,0.4
	c0,0.6,0.4,1.1,1.1,1.5c0.7,0.4,1.3,0.6,1.8,0.6c1.2,0,2.3-0.2,3.4-0.5c1-0.3,2-0.7,2.9-1.2c0.9-0.4,1.8-0.8,2.7-1.2
	c0.9-0.3,1.9-0.5,2.9-0.5c0.9,0,2,0.3,3.2,0.9c-0.5,1.1-1.4,2.6-2.9,4.5c-1.4,2-2.9,4-4.3,6.2s-2.7,4.3-3.8,6.3s-1.5,3.7-1.2,4.9
	l-1.6-0.9v1.6c0.1,0.3,0.3,1,0.7,2.1s0.7,1.8,0.9,2.1h0.9c0.2-0.2,0.6-0.5,1-0.9s0.6-0.7,0.6-0.8c0-0.2-0.2-0.7-0.6-1.3
	c-0.4-0.6-0.7-1-1-1.2h0.9c0.3,0.3,1,0.9,2,1.6c1,0.8,1.7,1.3,2,1.6c-0.2,0.1-0.4,0.2-0.9,0.4c-0.4,0.2-0.7,0.3-0.7,0.4
	c-0.3,0.2-0.5,0.3-0.6,0.4c-0.1,0.1-0.2,0.2-0.2,0.4L589.7,68.4z M515.7,96.1c0,2.1-0.4,4.2-1.1,6.2c-0.7,2-1.8,3.7-3.1,5.2
	c-1.3,1.5-2.9,2.7-4.7,3.7c-1.8,0.9-3.8,1.4-6,1.4c-0.3,0-0.9,0-1.6-0.1c-0.8-0.1-1.2-0.1-1.4-0.1l-0.7-0.9c0.2,0.1,0.6,0.1,1.2,0.2
	c0.6,0,1.3,0.1,2,0.1s1.4,0,2-0.1c0.7,0,1.1-0.1,1.2-0.2c0.2,0,0.6-0.1,1-0.3c0.4-0.2,0.6-0.3,0.6-0.4v-8.2h-0.7
	c-0.7,2.2-2.1,4-4,5.3s-4,2-6.3,2c-0.7,0-1.2-0.3-1.5-0.9c-0.4-0.6-0.7-1.3-0.9-2.2c-0.2-0.9-0.3-1.7-0.4-2.4
	c-0.1-0.8-0.1-1.4-0.1-1.8c0-2.2,0.8-4.2,2.3-5.9c1.5-1.7,3.4-3.5,5.4-5.2c2.1-1.7,4.2-3.5,6.3-5.5c2.1-2,3.7-4.3,4.8-7
	c0.1-0.1,0.3-0.1,0.6-0.2c0.3,0,0.5-0.1,0.6-0.1c1,0,1.7,0.5,2.3,1.6s1,2.3,1.3,3.7c0.3,1.4,0.5,2.7,0.7,4.1s0.2,2.3,0.2,2.9
	s-0.1,1-0.3,1.4s-0.4,0.7-0.7,1c-0.2,0.3-0.5,0.7-0.7,1c-0.2,0.4-0.3,0.9-0.3,1.5c0,0.1,0,0.1,0.1,0.1h0.2l1.6-0.9v1H515.7z
	 M497.9,77.3c0-1.1-0.4-1.6-1.3-1.6c-0.8,0-1.3,0.5-1.3,1.5c-0.1,1-0.1,1.7-0.1,2.1c0.7,0,1.4-0.1,2-0.3
	C497.6,78.7,497.9,78.2,497.9,77.3z M502.6,95.2h-3.4c0,0.8,0.4,1.5,1.2,2c0.8,0.5,1.5,0.8,2.3,0.8v-2.8H502.6z M510.8,35
	c0-1.1-0.4-1.6-1.2-1.6c-0.2,0-0.8,0.2-1.8,0.6c-0.9,0.4-1.9,0.9-3,1.3c-1.1,0.5-2.1,1-3.1,1.4s-1.8,0.7-2.3,0.8l-0.1,2
	c0,0.2,0,0.8,0,1.5c0,0.8,0.3,1.2,0.9,1.4c0.2,0,0.7,0,1.5,0.1c0.7,0.1,1.2,0.1,1.5,0.1c2,0,3.8-0.7,5.4-2.2
	C510,39,510.8,37.1,510.8,35z M510.8,19.2c0-1.7-0.5-2.9-1.5-3.6c-1-0.7-2.3-1-3.7-1c-0.8,0-1.8,0.1-2.9,0.2c-1.1,0.1-2,0.6-2.4,1.5
	c0.4,0.9,1,1.6,1.9,2.1s1.7,0.9,2.7,1.2c0.9,0.2,1.9,0.4,2.8,0.5s1.7,0.2,2.4,0.3c0.5-0.3,0.8-0.6,0.9-0.9v-0.3H510.8z M508.6,92.8
	c0-0.7-0.4-1.2-1.1-1.6v1.6H508.6z M517.3,22l-0.7,0.9h2c0.9,0,1.7,0,2.3-0.1c0.7,0,1.4-0.3,2.2-0.8H517.3z M538.5,25.3
	c-0.1,0-0.8,0.1-2.3,0.4c-1.4,0.3-3.1,0.6-5.1,1s-4,0.9-6.2,1.3s-3.9,0.9-5.2,1.2c-0.5,0.2-1.1,0.3-2,0.5c-0.8,0.2-1.2,0.3-1.2,0.4
	v0.7h20.3c0.1,0,0.4-0.2,0.9-0.6s1.1-0.9,1.6-1.5s1-1.2,1.5-1.8c0.5-0.7,0.8-1.2,0.9-1.7h-3.2V25.3z M536.1,81.4
	c-0.9-0.6-1.8-0.9-2.6-0.9c-0.9,0-1.8-0.1-2.7-0.1l-2.8,0.1c-0.2,1.1-0.7,1.8-1.3,2.1c-0.7,0.3-1.3,0.6-2,0.8
	c-0.7,0.2-1.3,0.5-1.8,0.8s-0.8,1-0.8,2.1c1.5,0,2.8-0.3,3.9-0.8c1.1-0.5,2.2-1.1,3.3-1.8c1.1-0.7,2.1-1.2,3.2-1.7
	C533.4,81.6,534.7,81.4,536.1,81.4z M523.9,48.9c-0.7,0.3-1.1,0.9-1.3,1.6c-0.2,0.8-0.4,1.4-0.4,2v0.4c0.3,0.5,0.6,0.8,0.9,0.9
	l0.9-4v-0.9H523.9z M545.8,30c0-0.7-0.1-1.4-0.4-2.1c-0.2-0.7-0.7-1.3-1.3-1.8c-0.1,1.1-0.5,2.2-1.2,3.3c-0.7,1.1-1.5,2-2.6,2.9
	c-1,0.9-2.1,1.5-3.4,2.1c-1.2,0.5-2.4,0.8-3.4,0.8s-1.8-0.2-2.5-0.5s-1.5-0.5-2.5-0.5c-0.2,0-0.6,0-1.3,0.1c-0.7,0-1,0.3-1,0.9
	c0,0.2,0.1,0.6,0.3,1.2c0.2,0.7,0.3,1.1,0.4,1.2c-0.2,0-0.5,0-0.9,0.1c-0.4,0-0.9,0.1-1.3,0.3c-0.4,0.2-0.9,0.4-1.2,0.6
	c-0.4,0.2-0.5,0.6-0.5,1V40c1.2,0.7,2.3,1.2,3.2,1.7s1.8,0.9,2.7,1.3c0.9,0.4,1.8,0.7,2.9,0.9c1,0.2,2.1,0.3,3.4,0.3
	c0.7,0,1.5-0.1,2.4-0.2c0.9-0.1,1.6-0.3,2.4-0.7c0.7-0.3,1.3-0.8,1.8-1.4c0.5-0.6,0.7-1.4,0.7-2.4c0-0.6-0.3-1.1-1-1.2
	c-0.7-0.2-1.1-0.4-1.5-0.7c-0.1-0.1-0.1-0.2-0.1-0.5c0-0.2,0-0.3,0.1-0.4l5.7-5.7L545.8,30L545.8,30z M527,44.8v0.7l1.7-0.7H527z
	 M528.7,97.7c0.4,0,0.6-0.3,0.6-0.8s-0.2-0.8-0.6-0.8c-0.4,0-0.6,0.3-0.6,0.8S528.3,97.7,528.7,97.7z M533.6,19.3
	c-0.6,0-1.1,0.2-1.5,0.7s-0.8,0.9-0.9,1.1h2.4V19.3z M536.8,46.4h-1.6c0.4,0.7,0.9,1,1.6,1V46.4z M540.9,70.8
	c-0.1,0.2-0.2,0.4-0.4,0.4s-0.3-0.1-0.4-0.4c-0.1-0.2,0-0.4,0.4-0.4C540.8,70.5,540.9,70.6,540.9,70.8z M540.9,82.2
	c0.4,0,0.6-0.3,0.6-0.8s-0.2-0.8-0.6-0.8c-0.4,0-0.6,0.3-0.6,0.8S540.5,82.2,540.9,82.2z M545,75.7v0.9l0.9-0.9H545z M545,83.9
	c2,0.3,3.5,0.4,4.5,0.2c0.9-0.2,1.7-0.4,2.3-0.7c0.6-0.3,1.2-0.6,1.8-0.9s1.6-0.5,3-0.5c1,0,1.8,0.2,2.4,0.7c0.7,0.4,1.3,0.9,2,1.4
	c0.6,0.5,1.3,1,2,1.4s1.6,0.7,2.6,0.7c0,2.8-0.9,5.1-2.8,6.7c-1.9,1.6-4.2,2.4-7,2.4c-0.6,0-1.4,0-2.5,0s-1.9-0.3-2.5-1
	c-0.2-0.3-0.6-0.9-1.1-1.7c-0.5-0.8-1-1.7-1.5-2.7s-1-1.9-1.4-2.7c-0.4-0.9-0.8-1.4-0.9-1.8L545,83.9z M557.3,44.5
	c0-2.7-0.5-4.3-1.5-4.9c-1-0.6-2.8-0.9-5.4-0.9c0,1.7,0.8,3.1,2.3,4.1C554.2,43.9,555.7,44.5,557.3,44.5z M553.1,18.7h-0.9v0.9h0.9
	V18.7z M583.2,20.4c-0.8-0.7-1.3-1.3-1.5-1.9s-0.2-1.4-0.2-2.3c0-1.4,0.5-2.4,1.6-3.1c1.1-0.7,2.2-1.3,3.4-1.8
	c0.1-0.1,0.1-0.2,0.1-0.4c0-0.5-0.3-1-0.9-1.5c-0.6-0.5-1.2-1-2-1.4c-0.7-0.4-1.4-0.8-2-1.1c-0.6-0.3-1-0.5-1-0.5
	c-0.4,0.2-0.8,0.9-1,2.2c-0.3,1.3-0.8,2.7-1.4,4.2c-0.7,1.5-1.6,2.9-2.9,4.1c-1.3,1.2-3.1,1.8-5.4,1.8c-0.6,0-1-0.1-1.2-0.3
	s-0.4-0.4-0.5-0.6s-0.3-0.4-0.4-0.6c-0.2-0.2-0.4-0.3-0.9-0.3c-0.9,0-1.8,0.3-2.6,1l1.6,0.7c-0.9,0.9-1.9,1.8-3.1,2.7
	c-1.1,0.9-2.4,1.4-3.8,1.4c-0.8,0-1.5-0.2-2.1-0.5s-1.3-0.5-2.1-0.5c-0.4,0-0.9,0.1-1.3,0.2c-0.5,0.1-0.7,0.5-0.7,1.2
	c0,0.9,0.2,1.6,0.7,2.2s1.1,1,1.8,1.4s1.5,0.6,2.3,0.7s1.6,0.2,2.3,0.2c0.6,0,1.1-0.2,1.5-0.5s0.8-0.7,1.1-1.2
	c0.3-0.4,0.7-0.8,1-1.2c0.4-0.3,0.8-0.5,1.4-0.5h0.9c0.2,0,0.6,0.1,1.3,0.4s1.1,0.4,1.2,0.4c0.6,0,0.9-0.2,1-0.7s0.2-1,0.3-1.6
	s0.2-1.2,0.5-1.7c0.2-0.5,0.7-0.8,1.5-0.8h11.5V20.4z M557.2,47c-0.4,0-0.9,0-1.4,0.1s-0.9,0.4-1,0.9h2.4V47z M562.2,102.1
	c0-0.2,0-0.3-0.1-0.4c-0.1,0-0.4-0.1-1-0.3s-1.1-0.3-1.4-0.4c-0.1-0.1-0.2-0.1-0.5-0.1c-0.2,0-0.3,0-0.4,0.1c-0.7,0.6-1.3,1-1.8,1.4
	s-0.7,1-0.7,1.8c0,0.4,0,0.7,0.1,0.9c1.1-0.2,2-0.5,2.9-0.9c0.7-0.2,1.4-0.5,2-0.9C561.9,102.8,562.2,102.5,562.2,102.1z
	 M560.7,11.7c0-0.2,0-0.5-0.1-0.9c0-0.4-0.1-0.9-0.2-1.4c-0.1-0.5-0.2-0.9-0.4-1.3c-0.2-0.4-0.5-0.6-0.8-0.7c-0.2,0-0.4,0-0.5,0.1
	c-0.3,0.1-0.6,0.4-0.7,0.9c-0.1,0-0.1,0.1-0.1,0.4c0,0.7,0.3,1.4,0.8,2.1C559.2,11.3,559.9,11.7,560.7,11.7z M558.8,18
	c1.3-0.2,2-0.8,2-1.8c-0.4,0-0.8,0.1-1.3,0.3c-0.4,0.2-0.7,0.5-0.7,1V18z M570.7,8.2c0,0.4-0.1,1.1-0.2,2.1c-0.1,1-0.1,2.1,0,3.2
	s0.4,2.1,0.8,2.9c0.4,0.8,1.2,1.2,2.3,1.2c0-0.3,0-1-0.1-2c0-1-0.1-2.1-0.2-3.2c-0.1-1.1-0.2-2.1-0.3-2.9s-0.3-1.3-0.4-1.3H570.7z
	 M571,62.6c0.2-0.1,0.4-0.3,0.4-0.7s-0.1-0.7-0.4-0.9c-0.2-0.2-0.4,0.1-0.4,0.8C570.6,62.5,570.7,62.8,571,62.6z M571.8,22
	c-0.5,0-0.8,0.2-0.8,0.6s-0.1,0.7-0.1,1c0,0.7,0.1,1.8,0.3,3.4s0.5,3.3,0.9,5s0.9,3.2,1.5,4.5s1.3,2,2.1,2c0.7,0,1.4-0.7,2.1-2.1
	c0.6-1.4,1.3-3,1.8-4.9c0.6-1.8,1-3.6,1.3-5.3s0.5-2.8,0.5-3.3c0-0.6-0.3-0.9-0.9-0.9C580.5,22,571.8,22,571.8,22z M580.7,66.4
	c-0.2,0-0.7,0-1.3-0.1c-0.7,0-1.3,0-2,0s-1.2,0.2-1.8,0.5c-0.5,0.3-0.8,0.8-0.8,1.5h5.9L580.7,66.4L580.7,66.4z M577.5,102.5
	c0.2-0.1,0.4-0.2,0.4-0.4c0-0.2-0.1-0.3-0.4-0.4c-0.2,0-0.4,0.2-0.4,0.5C577.2,102.5,577.3,102.6,577.5,102.5z M595.4,86.3
	c0,0.2-0.1,0.4-0.4,0.4s-0.4-0.1-0.4-0.4c-0.1-0.2,0-0.4,0.4-0.4C595.3,85.9,595.4,86.1,595.4,86.3z M596.2,87.9
	c-0.4,0-0.6-0.3-0.6-0.8s0.2-0.8,0.6-0.8c0.4,0,0.6,0.3,0.6,0.8S596.6,87.9,596.2,87.9z M597.1,57c-0.4,0-0.6-0.3-0.6-0.9
	c0-0.6,0.2-0.9,0.6-0.9c0.4,0,0.6,0.3,0.6,0.9C597.7,56.8,597.5,57,597.1,57z M597.1,87.9c0.1-0.1,0.2-0.1,0.4-0.1s0.4,0,0.4,0.1
	c0.3,0.2,0.9,0.8,1.7,1.6c0.8,0.8,1.3,1.4,1.6,1.7c0.1,0,0.1,0.1,0.1,0.4c0,0.2,0,0.3-0.1,0.4L597.1,87.9z M597.8,55.3
	c-0.4,0-0.6-0.3-0.6-0.8s0.2-0.8,0.6-0.8c0.4,0,0.6,0.3,0.6,0.8S598.2,55.3,597.8,55.3z M598.7,53.7c-0.4,0-0.6-0.3-0.6-0.8
	s0.2-0.8,0.6-0.8c0.4,0,0.6,0.3,0.6,0.8C599.3,53.5,599.1,53.7,598.7,53.7z M599.5,52.2c-0.4,0-0.6-0.3-0.6-0.9
	c0-0.6,0.2-0.9,0.6-0.9c0.4,0,0.6,0.3,0.6,0.9S599.9,52.2,599.5,52.2z M600.2,50.4c-0.4,0-0.6-0.3-0.6-0.8s0.2-0.8,0.6-0.8
	c0.4,0,0.6,0.3,0.6,0.8C600.8,50.2,600.6,50.4,600.2,50.4z M601.9,66.8c-0.6-0.2-0.9-0.5-0.9-1s0-1,0-1.3c0-1.1,0-2.1,0.1-2.9
	c0.1-0.8,0.3-1.8,0.7-3v8.2H601.9z M601.9,93.6c-0.4,0-0.6-0.3-0.6-0.9s0.2-0.9,0.6-0.9c0.4,0,0.6,0.3,0.6,0.9
	C602.6,93.4,602.4,93.6,601.9,93.6z M602.3,48c0.5,0,0.8,0.2,1,0.5c0.2,0.4,0.3,0.8,0.3,1.2c0,0.3,0,0.6-0.1,0.7l-1.6-2.4H602.3z
	 M602.7,16.3c-0.4,0-0.6-0.3-0.6-0.8s0.2-0.8,0.6-0.8c0.4,0,0.6,0.3,0.6,0.8C603.3,16,603.1,16.3,602.7,16.3z M602.7,68.4
	c-0.2,0.1-0.4,0-0.4-0.4c0-0.3,0.1-0.5,0.4-0.5c0.2,0.1,0.4,0.2,0.4,0.4S602.9,68.3,602.7,68.4z M602.7,94.4c-0.2,0.1-0.4,0-0.4-0.4
	c0-0.3,0.1-0.4,0.4-0.4c0.2,0,0.4,0.1,0.4,0.4S602.9,94.4,602.7,94.4z M603.5,70c-0.4,0-0.6-0.3-0.6-0.8s0.2-0.8,0.6-0.8
	c0.4,0,0.6,0.3,0.6,0.8S603.9,70,603.5,70z M603.5,96.8c-0.4,0-0.6-0.3-0.6-0.8s0.2-0.8,0.6-0.8c0.4,0,0.6,0.3,0.6,0.8
	S603.9,96.8,603.5,96.8z"/>
<path class="st0" d="M728,96.1c-1.2,1.5-2.7,2.8-4.5,3.7c-1.8,0.9-3.2,2.1-4.5,3.7c-0.3,0.4-0.7,1.2-1.2,2.3c-0.5,1.1-1,2.3-1.5,3.5
	s-1.1,2.3-1.7,3.3c-0.6,1-1.2,1.5-1.6,1.5c-2.1,0-4.3-0.6-6.6-1.9s-4.5-2.9-6.8-4.8c-2.2-2-4.4-4-6.5-6.2s-4-4.3-5.8-6.2
	c-1.8-2-3.4-3.6-4.7-4.8c-1.3-1.3-2.4-1.9-3.1-1.9v24.2c0,0.6-0.3,1.1-0.9,1.5c-0.6,0.4-1.2,0.9-2,1.2c-0.7,0.4-1.5,0.6-2.3,0.9
	c-0.8,0.2-1.4,0.3-1.8,0.4c0-1.1-0.2-2.1-0.5-3s-0.7-1.9-1-2.7c-0.4-0.9-0.7-1.8-1.1-2.7c-0.4-0.9-0.6-1.9-0.7-2.9H669
	c-1.3,0-2.1,0.4-2.5,1.1s-0.5,1.6-0.5,2.6s0.2,1.8,0.6,2.4c0.4,0.6,0.9,1.3,1.4,2s1,1.3,1.4,2s0.6,1.5,0.6,2.5c-1.1,0-2,0-2.6-0.1
	s-1.1-0.2-1.5-0.3c-0.4-0.1-0.8-0.2-1.3-0.4c-0.4-0.1-1-0.2-1.8-0.2v1.7l-3.3-0.2c-0.2-0.1-0.3-0.2-0.5-0.4
	c-0.2-0.2-0.3-0.3-0.3-0.4V104c1.3,0,2.1-0.3,2.3-0.9s0.3-1.5,0.3-2.6c0-0.7,0-1.4,0-2.1c0-0.8-0.3-1.4-0.9-1.9l-1.7,0.7
	c0.1-0.7,0-1.2-0.4-1.4c-0.3-0.2-0.7-0.3-1.2-0.3c-1.4,0-2.6,0.4-3.7,1.2c-1.1,0.8-2.4,1.2-3.8,1.2c0,0.9-0.8,1.9-2.3,3.1
	s-3.5,2.4-5.9,3.7c-2.4,1.3-5.1,2.6-8,3.8c-2.9,1.3-5.8,2.4-8.6,3.4s-5.3,1.8-7.6,2.4s-4,0.9-5.1,0.9c-0.7,0-1-0.2-1.2-0.7
	c-0.1-0.5-0.2-1-0.2-1.5s0.8-1.4,2.5-2.6c1.7-1.3,3.8-2.8,6.3-4.5s5.2-3.7,8.1-6c2.9-2.2,5.6-4.6,8.1-7s4.6-4.9,6.3-7.4
	s2.5-5,2.5-7.3h-21c0-0.9-0.2-1.7-0.7-2.6c-0.5-0.8-1.2-1.2-2.2-1.2s-1.5,0.3-1.7,1s-0.2,1.4-0.2,2.3h-5.4c-0.1,0-0.2-0.1-0.4-0.3
	c-0.2-0.2-0.3-0.3-0.4-0.4l-0.2-4.5h45.9V61.9c0-0.1-0.1-0.2-0.3-0.4s-0.4-0.3-0.5-0.4h-0.9l-9.8,4H645c0.4-0.2,0.8-0.7,1.2-1.2
	c0.4-0.6,0.5-1.1,0.5-1.6c0-0.2,0-0.3-0.1-0.4c-0.5,0.5-1,0.8-1.5,0.8s-1.1,0.1-1.6,0.1l-1.7-0.1l0.9-3.2c0.1,0.1,0.3,0.2,0.7,0.4
	s0.7,0.3,0.9,0.3c1.4,0,2.9-0.6,4.5-2c1.6-1.3,3.1-2.9,4.6-4.9s2.9-4.2,4.3-6.8c1.4-2.5,2.6-5,3.7-7.4c1.1-2.4,1.9-4.6,2.5-6.6
	s0.9-3.6,0.9-4.8l-0.1-2.4c0-0.6-0.3-0.9-0.9-0.9H650c-0.8,0-1.9,1-3.2,2.9s-2.6,4.2-3.8,6.8c-1.2,2.6-2.3,5.1-3.2,7.7
	c-0.9,2.6-1.3,4.5-1.3,5.8l0.1,2.1c0,0.1,0.1,0.5,0.4,1.2c0.3,0.7,0.4,1.1,0.3,1.3c-0.1,0.3-0.4,0.7-1,1.1c-0.6,0.4-1.2,0.8-1.8,1.3
	s-1.3,0.9-1.8,1.5c-0.6,0.5-0.9,1.1-1,1.8c-0.1,0.4,0,1,0.4,1.6c0.3,0.7,0.7,1.4,1.1,2.1c0.4,0.7,0.8,1.4,1.2,1.9s0.5,0.8,0.5,0.9
	c0.1,0.2,0.2,0.3,0.3,0.5s0.2,0.3,0.3,0.5s0.2,0.4,0.2,0.6c0,0.5-0.3,0.9-0.9,1.2c-0.6,0.3-1.3,0.6-2.1,0.7
	c-0.8,0.2-1.6,0.3-2.3,0.4s-1.3,0.1-1.6,0.1c-0.7,0-1.7-0.1-2.9-0.4c-1.2-0.2-2.3-0.6-3.4-1.1c-1.1-0.5-2-1.1-2.7-1.9
	c-0.8-0.8-1.2-1.7-1.2-2.7v-0.4c0-0.2,0-0.7,0.1-1.3s0.2-1.3,0.2-2c0.1-0.7,0.2-1.3,0.2-2s0.2-1,0.2-1.3c0.7,0.3,1.1,1,1.3,2.1
	s0.3,1.8,0.3,2h0.9c0.8,0,1.4-0.3,1.8-0.9c0.4-0.6,0.6-1.2,0.6-2c0-0.2-0.1-0.7-0.2-1.3c-0.1-0.6-0.3-1.2-0.5-1.8s-0.4-1.2-0.7-1.6
	c-0.2-0.5-0.5-0.7-0.7-0.7s-0.3,0-0.4,0.1c-0.2,0.2-0.7,0.5-1.3,1.2c-0.6,0.6-1,1-1.2,1.3c-0.2-0.9-0.8-1.8-1.7-2.6
	c-0.9-0.9-1.8-1.6-2.7-2.4c-0.9-0.7-1.8-1.4-2.6-2s-1.2-1.1-1.2-1.5v-0.4c0.2-0.4,0.4-0.7,0.9-0.9c1.5-0.1,3.1-0.3,4.9-0.7
	c1.8-0.4,3.5-0.9,5.2-1.6c1.7-0.7,3.2-1.7,4.5-2.9s2.2-2.7,2.6-4.5h-9c-0.7,0-1.7-0.8-2.8-2.3s-2.2-3.2-3.3-5.1s-2-3.8-2.7-5.6
	c-0.7-1.8-1.1-2.9-1.1-3.4c0-0.6,0.3-1,0.8-1.2s1.1-0.4,1.8-0.5s1.3-0.1,1.9,0c0.6,0.1,1,0.1,1.3,0.1c2.3,0,4.5,0.3,6.7,0.9
	s4.3,0.9,6.5,0.9h0.7c-0.8-2.6-2-5-3.6-7.1c-1.6-2.2-3.4-4.1-5.3-5.9c-0.1-0.2-0.1-0.4-0.1-0.9c0-0.8,0.5-1.4,1.5-1.7
	s2.1-0.5,3.2-0.7c1.2-0.1,2.3-0.2,3.4-0.1c1.1,0,1.7,0.1,1.8,0.1c1.3,0,2.8,0.1,4.5,0.2c1.7,0.2,3.3,0.5,4.8,1.2
	c1.5,0.6,2.8,1.5,3.8,2.6s1.5,2.6,1.5,4.5s-0.4,3.5-1.2,4.8s-1.9,2.3-3.2,3.1s-2.8,1.3-4.5,1.5s-3.3,0.2-4.9,0
	c0.9,1.2,1.5,2.6,1.8,4.3c0.3,1.6,0.5,3.2,0.6,4.6c0.1,0.1,0.2,0.1,0.4,0.1s0.4,0,0.4-0.1c0.1,0,0.2-0.1,0.4-0.3
	c0.2-0.2,0.3-0.3,0.4-0.4c0.2-0.3,0.9-1.1,1.9-2.3c1-1.2,2.1-2.5,3.3-3.9s2.3-2.7,3.4-3.8c1.1-1.2,1.7-1.9,2.1-2.1
	c0.3-0.5,0.8-1,1.5-1.6s1.3-1.2,1.9-1.8c0.6-0.6,1.4-1.4,2.3-2.3h2.9c0,0.8-0.1,1.6-0.4,2.3c-0.3,0.7-0.6,1.4-0.9,2
	c-0.3,0.7-0.6,1.3-0.9,2c-0.3,0.7-0.4,1.4-0.4,2.1c2.9,0,6,0.2,9.2,0.6s6.2,0.6,9,0.6c0-1.4-0.7-2.4-2.2-3.2c-1.5-0.7-2.8-1.3-4-1.6
	c0-0.4,0-1.2-0.1-2.3S666,10.2,666,9c-0.1-1.2-0.2-2.4-0.2-3.4c-0.1-1.1-0.1-1.8-0.1-2.2v-1c0-0.3,0-0.6,0.1-0.9
	c0-0.2,0.3-0.4,0.7-0.6l3.7-0.1c0.6,0,2,0.1,4.2,0.2s4.6,0.3,7,0.4c2.4,0.2,4.6,0.3,6.6,0.5s2.9,0.4,2.9,0.5v2.4l-4.1,4
	c-0.3-0.2-0.7-0.7-1-1.3c-0.4-0.6-0.7-1.3-1.1-2c-0.4-0.7-0.7-1.3-1.1-1.8c-0.4-0.5-0.8-0.7-1.3-0.7c-0.7,0-1.1,0.3-1.2,1
	c0,0.7-0.1,1.2-0.1,1.7c0,1.4,0.6,2.5,1.6,3.4c1.1,0.9,2.3,1.3,3.7,1.3V18h3.7c0.2-0.2,0.5-0.8,1.2-1.5c0.6-0.8,1.3-1.6,2.2-2.5
	s1.8-1.7,2.8-2.4s1.9-1,2.8-1c0.3,0,0.6,0,0.9,0.1c2.2,1.6,4.6,3.4,7.2,5.2c2.6,1.9,4.8,3.9,6.7,6.1l-3.3,3.3v15.4
	c0,0.6,0.4,0.9,1.2,0.9s1.3,0.1,1.5,0.1c1.1,0,2-0.2,2.6-0.6c0.6-0.4,1.3-1.3,2-2.8c1.8,1.3,3.1,2.8,3.8,4.6s1.1,3.8,1.1,6
	c0,0.2-0.1,0.7-0.4,1.6c-0.2,0.9-0.4,1.5-0.4,1.6c-0.1,0.2-0.1,0.5-0.2,1c0,0.5-0.1,1.1-0.1,1.8s0,1.3,0.1,1.8c0,0.6,0.1,0.9,0.2,1
	c-2.3,1.1-4.7,1.6-7.3,1.6s-5.1,0.1-7.5,0.1c-0.9,0-2.2,0-3.9,0s-3.5-0.2-5.2-0.5c-1.8-0.4-3.3-1-4.6-1.9s-2-2.3-2-4.1V25.3
	c0-0.1-0.2-0.2-0.5-0.4c-0.3-0.2-0.6-0.3-0.7-0.4l-1.7-0.9h-0.4c-1.2,0-2.4,0.9-3.5,2.8s-2.1,4-3.1,6.5c-1,2.4-2,4.9-2.9,7.3
	c-1,2.4-2,4.2-3,5.4c-0.4,0.5-1.1,1.3-2.2,2.4c-1.1,1.1-2.2,2.3-3.4,3.5s-2.4,2.4-3.5,3.4c-1.1,1.1-1.9,1.8-2.4,2.2
	c0.2,0.4,1.1,0.8,2.9,1.1c1.8,0.3,3.8,0.6,6,0.9c2.2,0.3,4.4,0.5,6.5,0.7s3.4,0.3,4.1,0.4c0.1,0.2,0.1,0.5,0.1,0.9
	c0,0.9-0.2,1.6-0.7,2.1c-0.4,0.5-0.9,1-1.5,1.5c-0.5,0.4-1,0.9-1.5,1.5c-0.4,0.5-0.7,1.2-0.7,2c0,0.1,0,0.3,0,0.7
	c0,0.4,0,0.8,0.1,1.2c0.1,0.4,0.2,0.8,0.3,1.2c0.1,0.3,0.3,0.5,0.5,0.5h20.3c0.6,0,1.3-0.4,2.1-1.3c0.9-0.9,1.7-1.9,2.6-3.1
	c0.9-1.1,1.7-2.2,2.4-3.3c0.8-1.1,1.4-1.7,1.9-2.1c0-0.1,0.1-0.1,0.4-0.1c0.4,0,1.1,0.3,2.1,0.8s2.1,1.2,3.4,2
	c1.3,0.8,2.5,1.7,3.8,2.7s2.5,2,3.6,3.1c1.1,1,2,2,2.7,2.8c0.7,0.9,1.1,1.5,1.1,2v0.5c-0.2,0.3-0.5,0.6-0.9,0.9
	c-0.4-1.5-1-2.4-1.8-2.9s-1.8-0.7-3-0.7v4.4h-23.5c0.4-0.6,1.1-1,2-1.3s1.8-0.5,2.7-0.7s1.7-0.4,2.4-0.6s1-0.5,1-1
	c0-0.6-0.2-0.9-0.7-1s-1-0.2-1.5-0.2c-0.6,0-1.1,0.1-1.5,0.2s-0.9,0.5-1.3,1h-19.6l-0.7,1.2c0.6,0.5,1.2,0.8,1.9,1s1.4,0.3,2.1,0.4
	c0.7,0.1,1.4,0.2,2.1,0.3c0.7,0.1,1.3,0.4,1.9,0.8c-0.3,0.2-0.8,0.4-1.5,0.7c-0.7,0.3-1,0.8-1,1.3c0,1.1,0.9,2.1,2.6,3.2
	c1.8,1.1,4,2.2,6.7,3.2s5.8,2,9.1,2.9s6.5,1.8,9.5,2.6c3,0.8,5.7,1.4,8.1,2s4,0.9,4.9,1.2c-1.5,0.2-2.6,0.7-3.5,1.7s-1.6,2-2.3,3.2
	c0.1,0.1,0.2,0.1,0.4,0.1c0.3,0,0.9-0.1,1.6-0.3c0.7-0.2,1.4-0.5,2.1-0.9c0.7-0.4,1.3-0.8,1.8-1.3s0.7-1.1,0.6-1.7L728,96.1z
	 M620.6,111.4c-0.2-0.7-0.6-1.2-1-1.8s-1-0.8-1.7-0.8c0,0.7,0.1,1.4,0.3,1.9s0.7,0.8,1.5,0.8C620.2,111.6,620.4,111.5,620.6,111.4z
	 M624.6,105.8c0.4,0,0.6-0.3,0.6-0.9s-0.2-0.9-0.6-0.9s-0.6,0.3-0.6,0.9S624.2,105.8,624.6,105.8z M625.5,106.6
	c0.2,0.7,0.3,1.4,0.5,2s0.6,0.9,1.5,0.9c0-1.9-0.7-3.1-2-3.7V106.6z M642.7,5.8c0-0.6-0.2-1-0.5-1.4c-0.4-0.4-0.8-0.6-1.3-0.8
	s-1.1-0.3-1.6-0.3c-0.6,0-1.1-0.1-1.5-0.1c-1,0-1.8,0.1-2.5,0.2c-0.7,0.2-1,0.8-1,2c0.5,0,1.1,0,1.8,0s1.5,0,2.3,0.1
	c0.8,0,1.6,0.1,2.4,0.3c0.8,0.2,1.4,0.4,1.9,0.7C642.7,6.4,642.7,6.1,642.7,5.8z M638.5,94.4c-0.2,0-0.4,0-0.8,0.1
	c-0.4,0.1-0.8,0.2-1.2,0.3c-0.4,0.1-0.9,0.3-1.3,0.5c-0.4,0.2-0.7,0.5-0.9,0.8c0.2,0.5,0.5,0.8,0.9,0.8s0.8,0.1,1.2,0.1
	c0.7,0,1.2-0.1,1.5-0.3c0.4-0.2,0.5-0.7,0.5-1.4L638.5,94.4L638.5,94.4z M641,65.9V65l2.4,0.9H641z M650,21.2c0-0.3,0-0.6-0.1-0.7
	c-1.1,0.7-1.7,1.5-1.7,2.4c0,0.3,0,0.6,0.1,0.7C649.4,23,650,22.1,650,21.2z M650.7,15.6V18c0.5-0.2,0.8-0.5,0.9-1.1
	c0.1-0.6,0.1-1,0.1-1.3C651.7,15.6,650.7,15.6,650.7,15.6z M668.7,64.2c0-0.5-0.4-1-1.1-1.5s-1.6-1-2.5-1.4s-1.9-0.8-2.8-1.1
	c-0.9-0.3-1.6-0.4-2-0.4c0,0.4,0.2,1,0.6,1.8c0.4,0.8,0.9,1.6,1.4,2.4c0.5,0.8,1.1,1.5,1.6,2.1c0.6,0.6,1,0.9,1.3,0.9
	c0.8,0,1.6-0.2,2.3-0.5C668.3,66,668.7,65.3,668.7,64.2z M665.4,84.6c-0.1-0.1-0.3-0.2-0.8-0.4c-0.4-0.2-0.8-0.3-0.9-0.3
	c-0.1,0-0.2,0.1-0.4,0.3c-0.2,0.2-0.3,0.3-0.3,0.4H665.4z M675.8,81.4c0.1-0.2,0.2-0.7,0.5-1.6c0.2-0.9,0.4-1.5,0.4-1.6
	s-0.2-0.3-0.7-0.7c-0.4-0.4-0.7-0.7-0.9-0.9c-0.1-0.1-0.2-0.1-0.5-0.1c-0.2,0-0.3,0-0.4,0.1c-0.6,2.7-1.4,4.7-2.4,6.1
	s-2.9,2.3-5.8,2.8c0.4,0.4,0.9,0.9,1.4,1.6c0.6,0.7,1.2,1.3,1.9,1.9s1.4,1.1,2.2,1.6c0.8,0.4,1.5,0.7,2.2,0.7s1.5-0.2,2.4-0.5
	c0.8-0.4,1.3-1,1.3-1.9c0-1.1-0.3-2.2-0.8-3.1c-0.6-0.9-0.8-1.9-0.8-3L675.8,81.4L675.8,81.4z M675.1,44c0.4,0,0.6-0.3,0.6-0.8
	s-0.2-0.8-0.6-0.8c-0.4,0-0.6,0.3-0.6,0.8S674.7,44,675.1,44z M705.2,18c0.2-0.6,0-1.2-0.5-1.8c-0.5-0.6-1.2-1.2-1.9-1.7
	s-1.5-1-2.3-1.4s-1.4-0.7-1.7-0.9c-0.5,0.3-1.3,0.9-2.4,1.6c-1.1,0.7-1.7,1.6-1.7,2.6c0,0.8,0.2,1.5,0.7,2.1s1.1,1.1,1.8,1.5
	s1.5,0.7,2.3,0.9c0.8,0.2,1.5,0.3,2.2,0.3c0.2,0,0.6-0.1,1-0.4c0.4-0.2,0.8-0.5,1.2-0.9s0.7-0.7,1-1.1C705,18.5,705.2,18.2,705.2,18
	z M703.6,50.4H702c0.3,0.7,0.9,1.1,1.6,1.1V50.4z M722.7,32c-1.1,0-1.9,0.2-2.1,0.5c-0.3,0.4-0.8,1.2-1.5,2.5
	c-0.1-0.1-0.1-0.2-0.1-0.5c0-0.8,0.3-1.8,0.9-2.9s1.4-1.6,2.4-1.6c0.4,0,0.7,0,0.9,0.1c0.2,1.7,0.5,3.4,1,4.9
	c0.5,1.6,1.1,3.2,1.6,4.7c0.6,1.5,1.1,3.1,1.5,4.6s0.7,3,0.7,4.5c0,1.1-0.2,2.3-0.5,3.6s-1,2.3-2,2.9V55c0-1.1,0.1-2.1,0.4-3
	c0.3-0.9,0.4-2,0.4-3.1c0-1.5-0.1-2.8-0.4-3.7c-0.3-0.9-1.4-1.8-3.2-2.8L722.7,32L722.7,32z"/>
<path class="st0" d="M828.9,30.2c0.7,1.5,2.1,2.3,4,2.5s4,0.3,6.2,0.3s4.4,0.1,6.4,0.3s3.5,1,4.5,2.5c0,0.6-0.3,0.9-0.9,0.9
	c-2.2,0-4.5-0.2-6.8-0.7s-4.7-0.7-7-0.7v0.9c0.6,0,1.3,0,2.1,0.1c0.9,0,1.7,0.2,2.4,0.5c0.8,0.3,1.4,0.7,2,1.3
	c0.5,0.6,0.8,1.4,0.8,2.4v0.4c-0.2,0.6-0.6,1.4-1.1,2.6c-0.5,1.1-1,2.3-1.5,3.4c-0.5,1.1-1,2.2-1.4,3.1c-0.4,0.9-0.8,1.4-0.9,1.5
	c0.2-0.6,0.2-1.3-0.2-1.8c-0.4-0.6-0.9-1.1-1.5-1.5s-1.3-0.8-2-1s-1.3-0.4-1.8-0.4c0,1.5,0.2,2.5,0.6,3.1c0.4,0.6,1.5,1.2,3.3,1.6
	v0.9l-5.4,4.9v34.6c-0.4,0-0.9,0.2-1.6,0.7c-0.7,0.5-1.3,1.1-2,1.7c-0.7,0.7-1.3,1.3-1.8,1.9s-0.7,1-0.7,1.3c0,0.6,1,1.1,2.9,1.6
	c2,0.5,4.1,1.2,6.5,2c2.4,0.9,4.5,2,6.5,3.3s2.9,3.1,2.9,5.3c0,1.5-0.4,2.8-1.2,3.8s-1.8,1.8-3,2.4s-2.5,1-4,1.3
	c-1.4,0.2-2.7,0.4-4,0.4c-0.7,0-1.9-0.4-3.8-1.2c-1.9-0.8-4.2-1.9-6.8-3.1c-2.6-1.3-5.4-2.6-8.3-4.1c-2.9-1.5-5.7-2.9-8.4-4.3
	c-2.6-1.4-5-2.6-7-3.7s-3.4-1.8-4.1-2.3V98c0.1-0.2,0.2-0.6,0.4-1s0.3-0.6,0.4-0.6h16.2c0.5,0,0.8-0.2,0.9-0.7
	c0.1-0.4,0.1-0.8,0.1-1c0-0.5-0.2-0.9-0.7-1.2c-0.4-0.3-1-0.5-1.5-0.7c-0.6-0.2-1.1-0.3-1.6-0.4s-0.9-0.2-1.2-0.2
	c0-0.1,0.2-0.4,0.7-0.9c0.4-0.5,1-1,1.6-1.6s1.2-1.1,1.6-1.6c0.5-0.5,0.8-0.8,1-0.9v-6.8h-16.2c0.3-0.6,0.5-1,0.7-1.2
	c0.1-0.2,0.2-0.5,0.2-0.7s0-0.4-0.1-0.7c-0.1-0.2-0.1-0.6-0.1-1.1H788c-0.1,0-0.2,0.1-0.4,0.3c-0.2,0.2-0.3,0.3-0.3,0.4
	c0,0.2,0.1,0.7,0.3,1.5c0.2,0.7,0.3,1.2,0.4,1.5h-13.8v8.1h29.3c-0.7,1.1-1,2.5-1,4.1h-17.7c-0.2,0-0.4,0.1-0.9,0.4
	c-0.4,0.3-0.7,0.5-0.9,0.8v0.7c0.1,0.1,0.2,0.4,0.5,0.9c0.2,0.5,0.4,0.8,0.4,0.9c-0.4,2.4-1.6,4.1-3.5,5.1c-1.9,1.1-4,1.2-6.3,0.5
	c-0.3,0.2-0.6,0.5-0.9,0.9v0.9c1.5,0.8,2.6,1.4,3.5,1.8s2,0.6,3.4,0.6c0.6,0,1.2-0.2,2-0.5c0.7-0.3,1.4-0.7,2-1.2s1.1-1.1,1.5-1.7
	c0.4-0.7,0.6-1.3,0.6-2v-0.4c-0.1-0.2-0.3-0.8-0.8-1.6c-0.4-0.9-0.7-1.4-0.8-1.6h0.4c0.6,0,1.5,0.2,2.7,0.7s2.5,1.1,3.7,1.8
	c1.3,0.7,2.4,1.5,3.3,2.4c0.9,0.9,1.4,1.6,1.4,2.4s-1.2,1.7-3.7,2.8c-2.4,1.1-5.6,2.1-9.4,3.2c-3.8,1.1-8,2.1-12.6,3.2
	s-8.9,2-13.1,2.8c-4.2,0.8-7.9,1.5-11.2,2s-5.6,0.7-6.8,0.7c-0.7,0-1.3-0.1-2-0.2s-1-0.5-1-1.3c0-1,0.7-1.9,2-2.7
	c1.3-0.8,3-1.6,4.9-2.4c2-0.8,4.1-1.5,6.5-2.3c2.4-0.7,4.5-1.5,6.5-2.4s3.6-1.8,4.9-2.8c1.3-1,2-2.1,2-3.4c-0.3,0-0.8,0-1.5,0.1
	c-0.7,0-1.4,0.1-2.1,0.1c-0.7,0-1.4,0.1-2.1,0.1c-0.7,0-1.2,0-1.4-0.1c-0.2,0-0.6-0.1-1.2-0.3c-0.5-0.2-0.8-0.3-0.8-0.4V47.5
	c-1.3,0-2.5,0.3-3.5,1s-2,1.4-2.9,2.1c-0.9,0.8-1.9,1.5-2.8,2.1c-0.9,0.7-1.9,1-3,1c-0.8,0-1.7-0.8-2.7-2.4c-1-1.6-1.9-3.4-2.8-5.4
	c-0.9-2-1.6-4-2.3-6c-0.6-2-0.9-3.3-0.9-4.1s0.4-1.4,1.1-1.7c0.7-0.3,1.5-0.6,2.2-0.7c7-0.6,12.9-1.2,17.7-1.8
	c4.8-0.6,8.9-1.9,12.3-3.8c3.4-2,6.2-4.9,8.5-9c2.3-4,4.4-9.7,6.3-17.1c0.2-0.4,0.4-0.6,0.7-0.7s0.6-0.1,0.9-0.1l0.9,0.1l16.2,3.2
	c0.8,0.2,1.7,0.3,2.7,0.5s1.5,0.8,1.5,1.9c0,0.9-0.3,1.5-1,1.9c-0.7,0.4-1.4,0.8-2.2,1.2s-1.5,0.9-2.2,1.5s-1,1.5-1,2.7h26.6
	c1,0,1.8-0.3,2.4-1c0.7-0.7,1.3-1.4,2-2.2c0.6-0.8,1.3-1.5,2-2.2s1.6-1,2.6-1h0.7c0.2,0.2,0.7,0.6,1.3,1.2c0.6,0.5,1.3,1.1,2,1.7
	c0.7,0.6,1.4,1.2,2,1.7s1,0.9,1.3,1.2s0.6,0.6,1.1,1s0.7,0.9,0.7,1.5h-1.2c0,0.8,0.1,1.5,0.4,2c0.3,0.5,0.6,0.9,0.9,1.3
	c0.3,0.4,0.6,0.8,0.9,1.2c0.3,0.4,0.4,1,0.4,1.7c0,0.2,0,0.3-0.1,0.4c-0.4,0.2-1,0.6-1.8,1s-1.7,0.9-2.6,1.4
	c-0.9,0.5-1.9,0.9-2.8,1.2c-0.9,0.3-1.8,0.5-2.5,0.5c-0.5,0-0.9-0.1-1.2-0.3c-0.3-0.2-0.7-0.4-1-0.7c-0.3-0.3-0.7-0.5-1-0.7
	s-0.7-0.3-1.2-0.3c0,0.5-0.1,0.9-0.2,1.2c-0.1,0.3-0.2,0.6-0.2,0.9c0,0.2,0,0.5,0.2,0.7s0.7,0.5,1.4,0.9L828.9,30.2z M769.5,17.5
	c0,2.7-1,4.9-2.9,6.8c-1.9,1.8-4.2,2.7-6.8,2.7c-1.2,0-2.8-0.9-4.9-2.7c-2-1.8-4-3.9-6-6.3s-3.6-4.8-5.1-7.1
	c-1.4-2.4-2.1-4.1-2.1-5.2c0-0.8,0.4-1.3,1.1-1.4c0.7-0.1,1.4-0.2,2.1-0.2c2,0,4.5,0.2,7.3,0.5s5.5,1,8.1,2s4.7,2.3,6.5,4.1
	C768.6,12.4,769.5,14.7,769.5,17.5z M747.5,48c0-1.3-0.6-2-1.8-2c0,0.4,0,0.9,0.1,1.6c0.1,0.7,0.4,1.1,0.9,1.2S747.5,48.6,747.5,48z
	 M754.2,42.4c0-1.3-0.3-2.7-1-4.1c-1.9,0.2-3.3,1.1-4.1,2.4c0.3,0.9,1.1,1.4,2.2,1.5C752.4,42.3,753.4,42.4,754.2,42.4z M766.2,22.9
	c0-0.1-0.4-0.2-1.2-0.4c-0.8-0.2-1.5-0.3-2-0.4c-1.4-0.2-2.8-0.5-4.3-1s-2.9-0.8-4.1-0.8c0,0.2,0,0.7,0.1,1.3c0,0.7,0.1,1.1,0.2,1.3
	c0,0.1,0.1,0.2,0.4,0.4c0.2,0.2,0.4,0.3,0.5,0.3h10.5v-0.7H766.2z M767.9,57.4c0-1-0.4-1.8-1.3-2.4c-0.9-0.6-1.9-1.1-3-1.5
	c-1.2-0.4-2.4-0.6-3.5-0.7c-1.2-0.1-2.1-0.1-2.7,0c-0.9,0.2-1.4,0.6-1.5,1.3s-0.2,1.3-0.2,1.9c0,1,0.1,1.8,0.3,2.4
	c0.2,0.7,0.9,1,2,1c1.5,0,3.1-0.1,4.6-0.2c1.5-0.2,3-0.4,4.6-0.6c0.2-0.1,0.5-0.4,0.9-0.9v-0.3H767.9z M763.7,69.2
	c-0.3-0.7-0.9-1.2-1.8-1.4c-0.9-0.2-1.6-0.3-2.3-0.3c-1.6,0-2.6,0.5-3,1.5s-0.5,2.2-0.5,3.6c1.1,0,2.4-0.5,3.7-1.5
	S762.5,69.6,763.7,69.2z M761.6,91.2c-1,0-1.9-0.2-2.7-0.5c-0.9-0.3-1.8-0.5-2.7-0.5l0.2,4.1c0.1,0.2,0.2,0.3,0.4,0.5
	s0.3,0.3,0.4,0.3c1.1,0,2.1-0.4,3-1.2C761.2,93.3,761.6,92.3,761.6,91.2z M765.4,109.9c-0.1,0-0.4,0-0.9,0.1c-0.5,0-1.1,0.1-1.7,0.2
	c-0.6,0.1-1.2,0.3-1.6,0.5c-0.5,0.2-0.7,0.6-0.7,1.1c0,0.6,0.1,1.3,0.2,2c0.2,0.7,0.6,1,1.3,1c0.6,0,1.1-0.2,1.5-0.6
	s0.8-0.9,1.1-1.4s0.6-1.1,0.9-1.6c0.2-0.6,0.5-1,0.7-1.3C766.2,109.9,765.4,109.9,765.4,109.9z M781.7,25.3
	c-0.5,0.7-1.3,1.7-2.5,2.9c-1.2,1.2-2.5,2.4-4,3.7s-3,2.6-4.5,4c-1.5,1.3-3,2.5-4.3,3.6s-2.4,1.9-3.2,2.6c-0.8,0.7-1.2,1.1-1.2,1.2
	c0,0.4,0.2,0.8,0.5,1c0.4,0.3,0.8,0.5,1.3,0.7s1,0.4,1.5,0.5s1,0.2,1.3,0.2c0.2,0,0.3,0,0.4-0.1c2.1-1,4.7-2.2,7.7-3.5
	c3-1.4,5.9-3,8.6-4.9c2.7-1.9,5-4.1,7-6.6c1.9-2.5,2.9-5.4,2.9-8.5c0-0.6-0.1-1-0.3-1.3s-0.7-0.7-1.4-1c0.4-0.2,0.7-0.4,0.7-0.7
	c0.1-0.3,0.1-0.7,0.1-1c0-0.6-0.3-1.2-1-1.5c-0.7-0.4-1.5-0.8-2.3-1.2c-0.9-0.4-1.6-0.9-2.3-1.4s-1-1.3-1-2.3c0-0.9,0.3-1.7,0.8-2.3
	s1.1-1.3,1.8-1.8h-0.4c-2.9,0-5.2,0.6-6.9,1.8s-2.5,3.5-2.5,6.9c0,1,0.1,1.7,0.4,2.2c0.3,0.5,0.5,1,0.8,1.4c0.2,0.4,0.4,1,0.6,1.7
	c0.2,0.7,0.1,1.7-0.1,3.1L781.7,25.3z M771.9,26c-0.1,0-0.2,0.1-0.4,0.3c-0.2,0.2-0.3,0.4-0.4,0.5l-0.2,2.6c0.2,0,0.8-0.1,1.5-0.4
	c0.8-0.2,1.6-0.5,2.4-0.9c0.9-0.3,1.6-0.7,2.3-1.1s1-0.8,1-1.1h-6.2V26z M810.9,54.6h-36.6v6.5h36.6V54.6z M810.9,67.5h-36.6v6.6
	h36.6V67.5z M774.3,75.7v0.9h0.9L774.3,75.7z M775.9,93.6l-0.7,0.7h0.7V93.6z M810.9,28.5h-1.6c-1.3,1.4-2.9,3.1-4.9,5.1
	s-3.9,3.6-5.7,4.7c-0.1,0.1-0.2,0.1-0.4,0.1s-0.4,0-0.5-0.1c-0.4-0.1-0.7-0.3-0.7-0.7c-0.4,1.3-1.2,2.3-2.3,3s-2.3,1.3-3.5,1.8
	c-0.6,0.2-1.5,0.5-2.9,0.9s-2.8,1-4.4,1.5c-1.5,0.6-3,1.1-4.4,1.5s-2.4,0.8-2.9,0.9l-0.9,1.2h17.9v2c0.6-1.1,1.5-1.7,2.4-1.7
	c0.6,0,1,0.2,1.3,0.5c0.3,0.4,0.5,0.8,0.7,1.2s0.4,0.9,0.7,1.2c0.3,0.4,0.7,0.5,1.3,0.5v-3.8h10.6l6.5-7L810.9,28.5z M780.8,91.9
	c-0.1-0.4-0.3-0.7-0.6-0.7c-0.3-0.1-0.7-0.1-1-0.1s-0.6,0-0.9,0.1v0.7H780.8z M783.2,25.3c-0.4,0-0.6-0.3-0.6-0.9s0.2-0.9,0.6-0.9
	c0.4,0,0.6,0.3,0.6,0.9S783.6,25.3,783.2,25.3z M785.7,22.9c-0.1,0.1-0.4-0.2-1-0.9c-0.6-0.7-1.1-1.2-1.4-1.6v-0.9
	c0-1.1,0.6-1.7,1.7-1.7c0.8,0,1.5,0.4,2,1.1s1.2,1.2,2.1,1.5L785.7,22.9z M797.9,9c-0.5-1-1.2-2.1-2.2-3.4s-2.1-1.9-3.4-1.9v1.2l4,4
	h1.6V9z M804.5,21.2h-9.1c0,1.4,0.6,2.7,1.8,4s2.5,1.9,3.9,1.9c0.7,0,1.2,0,1.7-0.1c0.4-0.1,0.8-0.2,1.2-0.3s0.5-0.3,0.5-0.5
	L804.5,21.2L804.5,21.2z M815,80.6c-0.3,0.1-0.6,0.4-0.7,0.9h0.7c0.5-0.3,0.8-0.6,0.9-0.9H815z M815,21.7c0,0.6,0.2,1.2,0.6,1.8
	c0.4,0.6,0.9,1.2,1.5,1.7s1.2,1,1.8,1.3s1.3,0.5,1.8,0.5c1.1,0,1.9-0.6,2.4-1.8c0.6-1.2,0.9-2.2,0.9-3.1c0-0.2,0-0.6-0.1-1
	s-0.3-0.6-0.7-0.6h-7.3c-0.1,0-0.2,0.1-0.4,0.3c-0.2,0.2-0.3,0.3-0.4,0.4L815,21.7L815,21.7z M820.7,50.8c0-1.7-0.4-3-1.3-4
	c-0.9-1-2.2-1.5-3.9-1.5c0,1.3,0,2.3,0.1,3s0.3,1.3,0.6,1.6c0.3,0.4,0.8,0.6,1.5,0.7C818.4,50.8,819.4,50.8,820.7,50.8z M821.9,42
	c0-1.1-0.3-2.1-1-2.9c-0.7-0.8-1.6-1.2-2.9-1.2c0,1.1,0.4,2.1,1.1,2.9C819.8,41.6,820.8,42,821.9,42z M828,15.6
	c0-0.6-0.3-0.9-0.9-0.9c-0.2,0-0.8,0.1-1.6,0.3c-0.9,0.2-1.4,0.4-1.5,0.5c0.6,1.1,1.5,1.7,2.4,1.7c0.5,0,0.9-0.1,1.2-0.3
	C827.9,16.8,828,16.3,828,15.6z M826.4,56.2c-0.7,0.3-1.2,0.7-1.4,1c-0.2,0.4-0.3,0.8-0.3,1.4c0,1.2,0.6,1.8,1.7,1.8V56.2z
	 M847.5,21.2c-0.4,0-0.6-0.2-0.6-0.7h-0.2c-0.4,0-0.6-0.3-0.6-0.9s0.2-0.9,0.6-0.9c0.4,0,0.6,0.3,0.6,0.9h0.2c0.4,0,0.6,0.3,0.6,0.8
	S847.9,21.2,847.5,21.2z"/>
<path class="st0" d="M906.9,28.5c-0.2,0.2-0.5,0.6-0.9,1s-0.7,0.7-0.8,0.7h-50.4c-0.6,0-0.9-0.4-0.9-1.1s0-1.2,0-1.3
	c0-0.1,0-0.3,0-0.6c0-0.3,0-0.6,0.1-1c0-0.3,0.1-0.6,0.2-0.9c0.1-0.3,0.3-0.4,0.5-0.4h31.7c0.2,0,0.7-0.4,1.4-1.2
	c0.7-0.8,1.4-1.7,2.3-2.7c0.8-1,1.6-2,2.3-2.9s1.2-1.5,1.4-1.7c1.2,0.4,2.5,1.1,3.7,2.1c1.3,1,2.5,2.1,3.7,3.3
	c1.2,1.2,2.3,2.3,3.2,3.4c1,1.1,1.8,2,2.4,2.6L906.9,28.5L906.9,28.5z M880.1,57.4c0.1,0,0.5-0.4,1.2-1.2s1.4-1.7,2.2-2.6
	c0.8-0.9,1.8-2.2,3.1-3.8c0.4-0.5,0.6-0.8,0.7-0.9c0.1-0.1,0.4-0.1,0.9-0.1c0.8,0,1.9,0.4,3.4,1.3c1.4,0.9,2.8,1.9,4.1,3
	c1.3,1.2,2.4,2.4,3.4,3.6c1,1.2,1.5,2.2,1.5,3c0,2-1.1,2.9-3.3,2.9h-35.9c-0.5,0-0.9-0.2-1.2-0.7s-0.5-1.1-0.7-1.7
	c-0.2-0.6-0.3-1.2-0.3-1.8c0-0.5-0.1-0.9-0.1-1H880.1z M880.8,41.2c0.4-0.7,0.9-1.6,1.3-2.6c0.5-1,1-1.9,1.6-2.8
	c0.6-0.9,1.2-1.7,1.9-2.3s1.4-1,2.1-1c0.9,0,2,0.5,3.3,1.5s2.6,2.1,3.9,3.3c1.3,1.2,2.4,2.4,3.4,3.5s1.6,1.9,2,2.3
	c0.1,0.2,0.1,0.5,0.1,0.9c0,0.8-0.3,1.4-0.9,1.9c-0.6,0.4-1.3,0.7-2.1,0.7c-1,0-1.8-0.6-2.4-1.8c-0.7-1.2-1.3-2.5-1.8-3.9
	c-0.6-1.4-1.1-2.6-1.6-3.7c-0.5-1.1-1.1-1.5-1.7-1.3c-1.1,0.4-1.9,1.2-2.5,2.3s-0.9,2.2-0.9,3.2c0,0.2,0,0.4,0.1,0.6
	c0,0.2,0.1,0.4,0.1,0.5l4,4h-17.8c-0.4-1.1-1.2-1.8-2.3-2.4c-1.1-0.5-2.3-0.9-3.7-1c-1.3-0.2-2.7-0.2-4-0.2s-2.4,0.1-3.2,0.1v-1.7
	L880.8,41.2L880.8,41.2z M904.5,77.3l0.2,1.1c0,0.7-0.1,1.1-0.4,1.5c-0.3,0.3-0.6,0.6-1,0.8c-0.4,0.2-0.8,0.4-1.2,0.7
	c-0.4,0.2-0.7,0.5-1,0.9V105c0,0.6-0.1,1.4-0.2,2.6c-0.1,1.1-0.4,2.3-0.7,3.4s-0.9,2.1-1.5,2.9c-0.7,0.8-1.5,1.2-2.6,1.2l0.1-1.1
	c0-0.1,0.1-0.3,0.4-0.8s0.4-0.7,0.5-0.8v-0.9c-0.2-0.4-0.5-0.7-0.9-0.7c-1.7,0.7-3.3,1.2-4.9,1.7c-1.5,0.5-3.2,0.7-5,0.7
	c-1.3,0-2.1-0.3-2.4-0.8c-0.3-0.5-0.5-1.2-0.5-2s-0.1-1.6-0.1-2.4c0-0.9-0.3-1.6-0.9-2.1l-2.4-0.1c-0.2,0-0.4,0-0.7,0.1
	c-0.3,0-0.5,0.1-0.8,0.1h-1c-0.2,0-0.5,0.1-0.8,0.3c-0.3,0.2-0.4,0.3-0.4,0.4v6.6c-0.2,0.2-0.3,0.3-0.5,0.4s-0.3,0.2-0.4,0.2
	c-0.1,0.1-0.2,0.1-0.3,0.1c-0.2,0.2-0.5,0.3-0.9,0.5s-0.7,0.3-0.8,0.3h-0.7c0.3-0.7,0.5-1.2,0.7-1.5c0.1-0.3,0.2-0.5,0.2-0.7
	s0-0.3-0.1-0.5s-0.1-0.6-0.1-1.2c-0.8,0-1.5,0.2-2.2,0.6s-1.3,0.9-2,1.3c-0.7,0.5-1.3,0.9-2,1.3s-1.4,0.6-2.2,0.6h-0.5
	c-0.4,0-0.9,0-1.4-0.1s-1.1-0.2-1.6-0.2c-0.5-0.1-1.2-0.2-1.9-0.5V77.3c0.6,0.7,1.4,1,2.4,1c1.1,0,1.9,0,2.6,0l2.3-0.1l0.9-0.9
	c-0.7-0.6-1.4-1.2-2-2s-1.2-1.5-1.8-2.2s-1.3-1.3-2-1.8s-1.5-0.7-2.5-0.7v-2.4c1.8,0,3.5,0.3,5.1,0.9s3.2,1.2,4.8,1.8
	c1.6,0.7,3.2,1.3,4.8,1.8c1.6,0.6,3.4,0.9,5.2,0.9c0.2,0,0.6,0,1,0s0.8,0,1.2-0.1c0.4,0,0.9,0,1.5-0.1l5.7-5.7h2.4L904.5,77.3z
	 M941.8,11.4c0.2,0,0.4-0.1,0.9-0.3c0.4-0.2,0.7-0.3,0.9-0.4c0.3-0.3,0.9-0.9,1.6-1.6c0.8-0.8,1.6-1.6,2.4-2.4
	c0.9-0.9,1.7-1.7,2.4-2.4c0.8-0.8,1.3-1.3,1.5-1.6c1.1,0.4,2.5,1.2,4.3,2.4s3.6,2.5,5.4,4c1.8,1.4,3.3,2.8,4.6,4.1s2,2.3,2,2.9
	c0,0.8-0.3,1.5-0.9,2c-0.6,0.5-1.3,1.1-2,1.6s-1.3,1.2-2,1.9c-0.6,0.7-0.9,1.8-0.9,3v40.6c0,2,0.2,3.8,0.5,5.6
	c0.4,1.8,0.8,3.5,1.3,5.2s1.1,3.4,1.6,4.9c0.5,1.6,1,3.1,1.4,4.6c0,0.2-0.1,0.5-0.3,1.2c-0.2,0.6-0.4,1-0.5,1.3
	c0,0.1-0.1,0.1-0.4,0.1c-0.7,0-1.2-0.5-1.7-1.6s-0.9-2.5-1.2-4.1s-0.6-3.4-0.9-5.4c-0.2-2-0.4-3.8-0.6-5.6c-0.2-1.7-0.3-3.3-0.4-4.6
	c-0.1-1.3-0.3-2.1-0.4-2.4c-0.5-0.9-0.9-1.3-1.1-1.2c-0.2,0.1-0.4,0.2-0.6,0.4c-0.2,0.2-0.3,0.2-0.4,0.2c-0.1,0-0.2-0.6-0.4-1.8
	c-0.6,0.5-1.4,0.9-2.4,1.2s-2,0.6-3,1s-1.8,0.8-2.6,1.2c-0.7,0.4-1.1,1.1-1.1,1.9c0,1.1,0.4,2,1.3,2.7c0.9,0.7,1.8,1.5,2.9,2.3
	c1.1,0.8,2,1.6,2.9,2.6s1.3,2.2,1.3,3.8c0,1.1-0.3,1.9-0.8,2.4c-0.5,0.6-1.1,1.1-1.8,1.6s-1.2,1.1-1.8,1.7c-0.5,0.7-0.8,1.6-0.8,2.8
	c0,1,0.6,1.8,1.7,2.4c1.1,0.6,2.1,0.9,2.9,0.9c0.6,0,1.1-0.1,1.5-0.4s1-0.4,1.8-0.4c0.6,0,1.1,0.1,1.5,0.3c0.4,0.2,0.6,0.7,0.6,1.4
	c0,0.7-0.3,1.2-1,1.7s-1.5,1-2.3,1.6c-0.9,0.6-1.6,1.3-2.3,2.1c-0.7,0.8-1,1.9-1,3.2c0,0.2,0,0.3,0.1,0.4c0,0.1,0.1,0.3,0.4,0.8
	c0.2,0.4,0.4,0.7,0.4,0.8c0,0.3-0.1,0.5-0.4,0.7c-0.3,0.1-0.6,0.2-0.9,0.2c-0.3,0-0.8,0.1-1.5,0.1c-1.6,0-2.9-1-3.8-3.1
	c-0.9-2.1-1.7-4.5-2.2-7.1c-0.5-2.7-0.9-5.3-1.2-7.9c-0.2-2.6-0.4-4.4-0.5-5.5c-0.1-0.6-0.2-1.6-0.3-3.1s-0.3-3-0.5-4.7
	s-0.4-3.2-0.5-4.7c-0.2-1.5-0.3-2.5-0.4-3l-1.6-1.6h-8.9l-1.7,1.6c-2.1,10.2-5.3,19.3-9.6,27.5s-10.3,15.8-17.9,22.9
	c-0.7,0.7-1.5,1.4-2.6,2.1c-1.1,0.8-2.1,1.2-3.1,1.2h-0.9c1.3-1.5,2.8-2.9,4.5-4.1s3.2-2.5,4.6-4.1v-0.7c-0.1-0.1-0.3-0.3-0.6-0.7
	c-0.3-0.4-0.7-0.9-1-1.3c-0.4-0.5-0.7-0.9-1-1.3s-0.5-0.6-0.6-0.8v-0.4c0-2.1,0.5-4.7,1.5-7.7s2.2-6.2,3.4-9.7
	c1.3-3.5,2.4-7,3.4-10.6s1.5-7.1,1.5-10.4l-0.1-2.7l-0.9-0.7c-0.7,0.1-1.5,0.2-2.5,0.2c-1,0.1-2,0.1-2.9-0.1c-0.9-0.1-1.8-0.4-2.4-1
	c-0.7-0.5-1-1.4-1-2.5c0-0.2,0-0.7,0.1-1.2c0.1-0.6,0.3-0.9,0.7-0.9h8.9l0.9-1.2c0.4-0.8,0.7-1.5,0.9-2.2c0.2-0.6,0.3-1.3,0.4-2
	c0-0.7,0.1-1.4,0.1-2.3c0-0.9,0.1-2,0.2-3.4c0.5,0.6,1.2,1.3,2.1,2.1c0.9,0.9,1.8,1.3,2.8,1.3c0.5,0,0.9-0.2,1.1-0.5
	c0.2-0.3,0.4-0.7,0.5-1.2s0.1-1,0.1-1.5s0-0.9,0-1.2c0-0.7-0.2-1.3-0.7-1.6s-1.1-0.6-1.8-0.7c-0.7-0.1-1.4-0.2-2.2-0.1
	c-0.8,0-1.4,0.1-1.9,0.1v-9c0.6,0,1.1,0.2,1.5,0.5c0.4,0.4,0.9,0.8,1.3,1.3c0.4,0.5,0.9,0.9,1.5,1.3c0.5,0.4,1.2,0.5,1.9,0.5
	c0.6,0,1.2-0.2,1.8-0.5s1-0.9,1-1.7c0-0.2-0.4-0.6-1.2-1.1s-1.6-1-2.6-1.6c-1-0.6-1.9-1.1-2.8-1.6c-0.9-0.5-1.4-0.8-1.6-1
	c-0.2-0.1-0.5-0.2-0.8-0.4c-0.3-0.2-0.4-0.3-0.4-0.4V18l-1.2-1.2h-9.8l-2.4-2.1h-39.9c-0.1,0-0.2-0.1-0.4-0.3s-0.3-0.4-0.4-0.5
	c0-0.1-0.1-0.4-0.4-1.1c-0.2-0.7-0.4-1.1-0.4-1.3c-0.1,0-0.1-0.1-0.1-0.4s0-0.4,0.1-0.4c0-0.2,0-0.3,0.1-0.4
	c0.1-0.1,0.2-0.2,0.2-0.4c0.1-0.2,0.2-0.3,0.4-0.5h19.5c0.1,0,0.4-0.4,1-1.1s1.1-1.3,1.4-1.8c0.7-0.9,1.4-1.7,2.1-2.6
	c0.6-0.6,1.1-1.3,1.6-1.9s0.9-1,1.2-1.2c0.1-0.1,0.2-0.1,0.4-0.1c1.5,0,2.8,0.5,3.9,1.6c1.1,1.1,2.3,2.3,3.4,3.7
	c1.1,1.3,2.2,2.6,3.3,3.7s2.3,1.6,3.7,1.6h39V11.4z M860.6,46.4v-0.9h2.4c0.1,0,0.3,0,0.6-0.1c0.3,0,0.7,0,1,0c0.4,0,0.7,0.1,1,0.2
	c0.3,0.1,0.5,0.3,0.5,0.7L860.6,46.4L860.6,46.4z M863.8,27.8c0-0.2-0.1-0.3-0.3-0.5s-0.3-0.3-0.4-0.3c-0.5,0-0.9,0.2-1.3,0.5
	c-0.4,0.3-0.6,0.7-0.6,1.2C862.1,28.6,862.9,28.3,863.8,27.8z M882.5,81.4l-0.9-1.7c-0.1,0-0.3,0-0.7-0.1s-0.7-0.1-1-0.1
	c-0.2,0-0.5,0-0.9,0.1c-0.4,0-0.9,0.1-1.3,0.2c-0.4,0.1-0.9,0.3-1.2,0.5s-0.5,0.6-0.5,1.1v18.7h6.6L882.5,81.4L882.5,81.4z
	 M877.7,59.5h-0.9v0.7h0.9V59.5z M890.8,104.9c-1.5,0-2.6,0.6-3.3,1.8c-0.7,1.2-1.1,2.4-1.1,3.7c0.5,0,1-0.2,1.5-0.6s1-0.9,1.4-1.5
	s0.8-1.2,1-1.8C890.7,105.9,890.8,105.3,890.8,104.9z M897.6,80.6c0.5,0,1.1-0.2,1.8-0.6s1.1-0.9,1.1-1.5c0-0.2,0-0.3-0.1-0.4
	c-0.1-0.2-0.3-0.4-0.7-0.9c-0.4-0.4-0.7-0.7-0.9-0.7c0-0.1-0.1-0.1-0.4-0.1c-0.5,0-1.1,0.2-1.8,0.6s-1.1,0.9-1.1,1.5V79
	c0.2,0.1,0.4,0.3,0.9,0.8c0.4,0.4,0.7,0.7,0.9,0.8C897.3,80.6,897.6,80.6,897.6,80.6z M932.9,59.8c0-1-0.3-2.1-1-3.5
	c-0.7-1.3-1.5-2-2.7-2c-0.3,0-0.7,0.1-1.2,0.2c0.2,1.6,0,2.9-0.6,4c-0.7,1-1.4,2-2.3,2.9c-0.9,0.9-1.7,1.8-2.5,2.7
	c-0.8,0.9-1.2,2-1.2,3.4c0,1.5,0.6,2.6,1.7,3.3c0.7-0.4,1.5-1.1,2.6-2s2.2-2,3.2-3.1c1.1-1.1,2-2.2,2.7-3.2
	C932.5,61.5,932.9,60.6,932.9,59.8z M922.3,54.6c0.4,0,0.6-0.3,0.6-0.9c0-0.6-0.2-0.9-0.6-0.9c-0.4,0-0.6,0.3-0.6,0.9
	S921.9,54.6,922.3,54.6z M924.8,28.5c0.1-0.2,0-0.4-0.4-0.4c-0.3,0-0.4,0.1-0.4,0.4c0,0.2,0.1,0.4,0.4,0.4
	C924.6,28.9,924.8,28.7,924.8,28.5z M932.2,24.8c0-0.2,0-0.3-0.1-0.4c-0.1-0.3-0.3-0.6-0.7-0.9c-0.2,0.1-0.3,0.3-0.5,0.8
	c-0.2,0.4-0.3,0.8-0.3,0.9s0.1,0.2,0.3,0.4c0.2,0.2,0.4,0.3,0.5,0.3c0.3-0.1,0.6-0.3,0.7-0.7C932.2,25.2,932.2,25.1,932.2,24.8z
	 M942.3,16.3c1.8,0,3,0.4,3.7,1.2c0.6,0.8,1.1,1.8,1.3,2.8c0.2,1.1,0.5,2.1,0.7,3c0.2,1,0.9,1.6,2,2c0.4-0.5,0.7-0.9,0.7-1.2
	c0.1-0.3,0.1-0.7,0.1-1.2c0-1.3-0.3-2.5-1-3.7s-1.6-2.2-2.7-3.1c-1.1-0.9-2.3-1.6-3.5-2.2c-1.3-0.6-2.5-0.9-3.7-0.9
	c-1.5,0-2.7,0.5-3.5,1.6s-1.4,2.4-1.8,3.8c-0.4,1.4-0.6,2.9-0.7,4.3c-0.1,1.5-0.1,2.6-0.1,3.3c-0.1,0.3-0.2,1.4-0.2,3.1
	c-0.1,1.8-0.2,3.7-0.2,6c-0.1,2.2-0.2,4.5-0.2,6.8c-0.1,2.3-0.1,4.1-0.1,5.4v1.3c0,0.5,0.1,0.9,0.2,1.3c0.1,0.4,0.5,0.6,1,0.6
	c0.6,0,1.1-0.3,1.3-0.9c0.2-0.6,0.7-0.9,1.5-0.9l0.9,0.1c0.1,0,0.3,0.1,0.6,0.3s0.7,0.4,1,0.5c0.4,0.2,0.7,0.3,1,0.5
	s0.5,0.2,0.6,0.2c0,0.1,0.1,0.1,0.4,0.1c0.2,0,0.4,0,0.4-0.1c0.2,0,0.4-0.1,0.6-0.4c0.1-0.1,0.2-0.2,0.2-0.4v-31l-2.4-2.4h1.9V16.3z
	 M959.7,47.4c0-0.7-0.1-1.5-0.4-2.3c-0.2-0.8-0.6-1.5-1-2.1c-0.4-0.7-1-1.2-1.6-1.6c-0.7-0.4-1.4-0.7-2.2-0.7c-0.4,0-1,0.5-1.9,1.4
	s-1.7,2-2.6,3.2c-0.9,1.2-1.7,2.4-2.3,3.6c-0.7,1.2-1,2-1,2.5c1.1,0,2.1-0.3,2.8-0.8s1.4-1.1,2-1.7c0.6-0.6,1.2-1.2,1.8-1.7
	s1.3-0.8,2.1-0.8s1.5,0.2,2.1,0.5C958,47.2,958.8,47.4,959.7,47.4z M972.8,101c0.3,1.5,0.5,2.7,0.7,3.8s0.2,2.3,0.2,3.8
	c0,2.5-0.7,4.5-2.1,5.9c-1.4,1.4-3.3,2.1-5.7,2.1c-3.4,0-6.2-1-8.3-3.1s-3.8-4.6-5.1-7.5c0.9-0.7,1.6-1.2,2.2-1.4
	c0.6-0.2,1.3-0.3,2.2-0.3c1.5,0,2.6,0.3,3.5,1s1.5,1.6,2,2.6c0.4,1.1,0.7,2.2,0.8,3.5s0.1,2.4,0,3.5c0.1,0.7,0.5,1,1.3,0.9
	c0.8,0,1.3-0.1,1.5-0.1c2.4,0,4.1-0.7,4.9-2.2c0.9-1.5,1.3-3.3,1.3-5.5c0-2.1-0.2-4.2-0.5-6.2s-0.5-4.1-0.5-6.2
	c0-3.1,0.2-6.1,0.5-9.1s0.5-6.1,0.5-9.1l-0.1-2.3l-0.9-0.7c0.3-0.7,0.9-1.1,1.7-1.1V101H972.8z M958.9,28.5h-1c0,0.7,0.3,1.3,1,1.7
	V28.5z M961.5,85.1c0,0.5-0.2,0.8-0.5,1c-0.4,0.2-0.8,0.2-1.2,0.2s-0.8-0.1-1.2-0.2c-0.4-0.2-0.5-0.5-0.5-1s0.2-0.8,0.5-1
	c0.4-0.2,0.8-0.3,1.2-0.3s0.8,0.1,1.2,0.3C961.3,84.3,961.5,84.6,961.5,85.1z M964.7,16.8c0-0.7-0.3-1.2-0.8-1.6
	c-0.5-0.4-1.1-0.6-1.6-0.6s-0.9,0.2-1.1,0.5c-0.2,0.3-0.4,0.7-0.5,1.2c-0.1,0.5-0.2,1-0.2,1.5s0,0.9,0,1.2c0.7,0,1.5-0.2,2.6-0.5
	C964.1,18.2,964.7,17.6,964.7,16.8z"/>
</svg>
